<svg width="91" height="18" viewBox="0 0 91 18" fill="none" xmlns="http://www.w3.org/2000/svg">
<mask id="mask0_3_136" style="mask-type:luminance" maskUnits="userSpaceOnUse" x="6" y="1" width="12" height="16">
<path d="M6.96005 16.6396L6.93005 1.06957H10.5701L10.5801 6.94957H13.5001L13.4901 1.05957H17.0501L17.0801 16.6296H13.5201L13.5101 10.1696H10.5901L10.6001 16.6396H6.96005Z" fill="white"/>
</mask>
<g mask="url(#mask0_3_136)">
<path d="M6.92004 1.06982L6.96004 16.6398H6.92004V1.06982Z" fill="white"/>
<path d="M6.96004 1.0498L6.99004 16.6398H6.96004L6.92004 1.0698V1.0498H6.96004Z" fill="white"/>
<path d="M6.99008 1.0498L7.02008 16.6398H6.99008L6.96008 1.0498H6.99008Z" fill="#FEFEFE"/>
<path d="M7.02999 1.0498L7.05999 16.6398H7.01999L6.98999 1.0498H7.02999Z" fill="#FCFCFD"/>
<path d="M7.06003 1.0498L7.09003 16.6398H7.06003L7.03003 1.0498H7.06003Z" fill="#FAFAFB"/>
<path d="M7.09006 1.0498L7.12006 16.6398H7.09006L7.06006 1.0498H7.09006Z" fill="#F8F8F9"/>
<path d="M7.13009 1.0498L7.16009 16.6398H7.12009L7.09009 1.0498H7.13009Z" fill="#F6F6F7"/>
<path d="M7.16 1.0498L7.19 16.6398H7.16L7.13 1.0498H7.16Z" fill="#F4F4F5"/>
<path d="M7.19003 1.0498L7.22003 16.6398H7.19003L7.16003 1.0498H7.19003Z" fill="#F2F2F3"/>
<path d="M7.23006 1.0498L7.26006 16.6398H7.22006L7.19006 1.0498H7.23006Z" fill="#F0F0F1"/>
<path d="M7.2601 1.0498L7.2901 16.6398H7.2601L7.2301 1.0498H7.2601Z" fill="#EFEEF0"/>
<path d="M7.29001 1.0498L7.32001 16.6398H7.29001L7.26001 1.0498H7.29001Z" fill="#EDECEE"/>
<path d="M7.33004 1.0498L7.36004 16.6398H7.32004L7.29004 1.0498H7.33004Z" fill="#EBEBEC"/>
<path d="M7.36008 1.0498L7.39008 16.6398H7.36008L7.33008 1.0498H7.36008Z" fill="#E9E9EA"/>
<path d="M7.38999 1.0498L7.41999 16.6398H7.38999L7.35999 1.0498H7.38999Z" fill="#E8E7E9"/>
<path d="M7.43001 1.0498L7.46001 16.6398H7.42001L7.39001 1.0498H7.43001Z" fill="#E6E5E7"/>
<path d="M7.46005 1.0498L7.49005 16.6398H7.46005L7.43005 1.0498H7.46005Z" fill="#E4E3E5"/>
<path d="M7.49008 1.0498L7.53008 16.6398H7.49008L7.46008 1.0498H7.49008Z" fill="#E2E2E4"/>
<path d="M7.52999 1.0498L7.55999 16.6398H7.52999L7.48999 1.0498H7.52999Z" fill="#E1E0E2"/>
<path d="M7.56003 1.0498L7.59003 16.6398H7.56003L7.53003 1.0498H7.56003Z" fill="#DFDEE1"/>
<path d="M7.60006 1.0498L7.63006 16.6398H7.59006L7.56006 1.0498H7.60006Z" fill="#DDDDDF"/>
<path d="M7.6301 1.0498L7.6601 16.6398H7.6301L7.6001 1.0498H7.6301Z" fill="#DCDBDE"/>
<path d="M7.66 1.0498L7.69 16.6398H7.66L7.63 1.0498H7.66Z" fill="#DAD9DC"/>
<path d="M7.70003 1.0498L7.73003 16.6398H7.69003L7.66003 1.0498H7.70003Z" fill="#D9D8DB"/>
<path d="M7.73007 1.0498L7.76007 16.6398H7.73007L7.70007 1.0498H7.73007Z" fill="#D7D6D9"/>
<path d="M7.7601 1.0498L7.7901 16.6398H7.7601L7.7301 1.0498H7.7601Z" fill="#D6D5D8"/>
<path d="M7.80001 1.0498L7.83001 16.6398H7.79001L7.76001 1.0498H7.80001Z" fill="#D4D3D6"/>
<path d="M7.83005 1.0498L7.86005 16.6398H7.83005L7.80005 1.0498H7.83005Z" fill="#D3D2D5"/>
<path d="M7.86008 1.0498L7.89008 16.6398H7.86008L7.83008 1.0498H7.86008Z" fill="#D1D0D4"/>
<path d="M7.89999 1.0498L7.92999 16.6398H7.88999L7.85999 1.0498H7.89999Z" fill="#D0CFD2"/>
<path d="M7.93002 1.0498L7.96002 16.6398H7.93002L7.90002 1.0498H7.93002Z" fill="#CECED1"/>
<path d="M7.96005 1.0498L7.99005 16.6398H7.96005L7.93005 1.0498H7.96005Z" fill="#CDCCD0"/>
<path d="M8.00008 1.0498L8.03008 16.6398H7.99008L7.96008 1.0498H8.00008Z" fill="#CCCBCF"/>
<path d="M8.03 1.0498L8.06 16.6398H8.03L8 1.0498H8.03Z" fill="#CACACD"/>
<path d="M8.06003 1.0498L8.10003 16.6398H8.06003L8.03003 1.0498H8.06003Z" fill="#C9C8CC"/>
<path d="M8.10006 1.0498L8.13006 16.6398H8.10006L8.06006 1.0498H8.10006Z" fill="#C8C7CB"/>
<path d="M8.1301 1.0498L8.1601 16.6398H8.1301L8.1001 1.0498H8.1301Z" fill="#C7C6CA"/>
<path d="M8.16 1.0498L8.2 16.6398H8.16L8.13 1.0498H8.16Z" fill="#C5C5C9"/>
<path d="M8.20003 1.0498L8.23003 16.6398H8.20003L8.16003 1.0498H8.20003Z" fill="#C4C3C8"/>
<path d="M8.23007 1.0498L8.26007 16.6398H8.23007L8.20007 1.0498H8.23007Z" fill="#C3C2C7"/>
<path d="M8.2701 1.0498L8.3001 16.6398H8.2601L8.2301 1.0498H8.2701Z" fill="#C2C1C5"/>
<path d="M8.30002 1.0498L8.33002 16.6398H8.30002L8.27002 1.0498H8.30002Z" fill="#C1C0C4"/>
<path d="M8.33005 1.0498L8.36005 16.6398H8.33005L8.30005 1.0498H8.33005Z" fill="#C0BFC3"/>
<path d="M8.37008 1.0498L8.40008 16.6398H8.36008L8.33008 1.0498H8.37008Z" fill="#BEBEC2"/>
<path d="M8.39999 1.0498L8.43 16.6398H8.39999L8.37 1.0498H8.39999Z" fill="#BDBDC1"/>
<path d="M8.43003 1.0498L8.46002 16.6398H8.43003L8.40002 1.0498H8.43003Z" fill="#BCBCC0"/>
<path d="M8.47005 1.0498L8.50005 16.6398H8.46005L8.43005 1.0498H8.47005Z" fill="#BBBBBF"/>
<path d="M8.50009 1.0498L8.53009 16.6398H8.50009L8.47009 1.0498H8.50009Z" fill="#BABABF"/>
<path d="M8.53 1.0498L8.56 16.6398H8.53L8.5 1.0498H8.53Z" fill="#B9B9BE"/>
<path d="M8.57003 1.0498L8.60003 16.6398H8.56003L8.53003 1.0498H8.57003Z" fill="#B8B8BD"/>
<path d="M8.60007 1.0498L8.63007 16.6398H8.60007L8.57007 1.0498H8.60007Z" fill="#B7B7BC"/>
<path d="M8.6301 1.0498L8.6601 16.6398H8.6301L8.6001 1.0498H8.6301Z" fill="#B6B6BB"/>
<path d="M8.67 1.0498L8.7 16.6398H8.66L8.63 1.0498H8.67Z" fill="#B5B5BA"/>
<path d="M8.70004 1.0498L8.73004 16.6398H8.70004L8.67004 1.0498H8.70004Z" fill="#B4B4B9"/>
<path d="M8.73007 1.0498L8.77007 16.6398H8.73007L8.70007 1.0498H8.73007Z" fill="#B3B3B9"/>
<path d="M8.7701 1.0498L8.8001 16.6398H8.7701L8.7301 1.0498H8.7701Z" fill="#B2B2B8"/>
<path d="M8.80002 1.0498L8.83002 16.6398H8.80002L8.77002 1.0498H8.80002Z" fill="#B2B2B7"/>
<path d="M8.84005 1.0498L8.87005 16.6398H8.83005L8.80005 1.0498H8.84005Z" fill="#B1B1B6"/>
<path d="M8.87009 1.0498L8.90009 16.6398H8.87009L8.84009 1.0498H8.87009Z" fill="#B0B0B6"/>
<path d="M8.89999 1.0498L8.93 16.6398H8.89999L8.87 1.0498H8.89999Z" fill="#AFAFB5"/>
<path d="M8.94002 1.0498L8.97003 16.6398H8.93003L8.90002 1.0498H8.94002Z" fill="#AEAFB4"/>
<path d="M8.97006 1.0498L9.00006 16.6398H8.97006L8.94006 1.0498H8.97006Z" fill="#ADAEB4"/>
<path d="M9.00009 1.0498L9.03009 16.6398H9.00009L8.97009 1.0498H9.00009Z" fill="#ADADB3"/>
<path d="M9.04 1.0498L9.07 16.6398H9.03L9 1.0498H9.04Z" fill="#ACADB2"/>
<path d="M9.07004 1.0498L9.10004 16.6398H9.07004L9.04004 1.0498H9.07004Z" fill="#ABACB2"/>
<path d="M9.10007 1.0498L9.13007 16.6398H9.10007L9.07007 1.0498H9.10007Z" fill="#ABABB1"/>
<path d="M9.1401 1.0498L9.1701 16.6398H9.1301L9.1001 1.0498H9.1401Z" fill="#AAABB1"/>
<path d="M9.17001 1.0498L9.20001 16.6398H9.17001L9.14001 1.0498H9.17001Z" fill="#A9AAB0"/>
<path d="M9.20004 1.0498L9.23004 16.6398H9.20004L9.17004 1.0498H9.20004Z" fill="#A9A9AF"/>
<path d="M9.24007 1.0498L9.27007 16.6398H9.23007L9.20007 1.0498H9.24007Z" fill="#A8A9AF"/>
<path d="M9.26999 1.0498L9.29999 16.6398H9.26999L9.23999 1.0498H9.26999Z" fill="#A7A8AE"/>
<path d="M9.30002 1.0498L9.34002 16.6398H9.30002L9.27002 1.0498H9.30002Z" fill="#A7A8AE"/>
<path d="M9.34005 1.0498L9.37005 16.6398H9.34005L9.30005 1.0498H9.34005Z" fill="#A6A7AD"/>
<path d="M9.37009 1.0498L9.40009 16.6398H9.37009L9.34009 1.0498H9.37009Z" fill="#A6A7AD"/>
<path d="M9.41 1.0498L9.43999 16.6398H9.39999L9.37 1.0498H9.41Z" fill="#A5A6AD"/>
<path d="M9.44003 1.0498L9.47003 16.6398H9.44003L9.41003 1.0498H9.44003Z" fill="#A4A6AC"/>
<path d="M9.47006 1.0498L9.50006 16.6398H9.47006L9.44006 1.0498H9.47006Z" fill="#A4A5AC"/>
<path d="M9.51009 1.0498L9.54009 16.6398H9.50009L9.47009 1.0498H9.51009Z" fill="#A3A5AB"/>
<path d="M9.54001 1.0498L9.57001 16.6398H9.54001L9.51001 1.0498H9.54001Z" fill="#A3A4AB"/>
<path d="M9.57004 1.0498L9.60004 16.6398H9.57004L9.54004 1.0498H9.57004Z" fill="#A3A4AA"/>
<path d="M9.61007 1.0498L9.64007 16.6398H9.60007L9.57007 1.0498H9.61007Z" fill="#A2A3AA"/>
<path d="M9.63999 1.0498L9.66999 16.6398H9.63999L9.60999 1.0498H9.63999Z" fill="#A2A3AA"/>
<path d="M9.67001 1.0498L9.70001 16.6398H9.67001L9.64001 1.0498H9.67001Z" fill="#A1A3A9"/>
<path d="M9.71004 1.0498L9.74004 16.6398H9.70004L9.67004 1.0498H9.71004Z" fill="#A1A2A9"/>
<path d="M9.74008 1.0498L9.77008 16.6398H9.74008L9.71008 1.0498H9.74008Z" fill="#A0A2A9"/>
<path d="M9.76999 1.0498L9.79999 16.6398H9.76999L9.73999 1.0498H9.76999Z" fill="#A0A2A8"/>
<path d="M9.81002 1.0498L9.84002 16.6398H9.80002L9.77002 1.0498H9.81002Z" fill="#A0A1A8"/>
<path d="M9.84006 1.0498L9.87006 16.6398H9.84006L9.81006 1.0498H9.84006Z" fill="#9FA1A8"/>
<path d="M9.87009 1.0498L9.91009 16.6398H9.87009L9.84009 1.0498H9.87009Z" fill="#9FA1A8"/>
<path d="M9.91 1.0498L9.93999 16.6398H9.91L9.87 1.0498H9.91Z" fill="#9FA0A7"/>
<path d="M9.94003 1.0498L9.97003 16.6398H9.94003L9.91003 1.0498H9.94003Z" fill="#9EA0A7"/>
<path d="M9.98006 1.0498L10.0101 16.6398H9.97006L9.94006 1.0498H9.98006Z" fill="#9EA0A7"/>
<path d="M10.0101 1.0498L10.0401 16.6398H10.0101L9.9801 1.0498H10.0101Z" fill="#9EA0A7"/>
<path d="M10.04 1.0498L10.07 16.6398H10.04L10.01 1.0498H10.04Z" fill="#9E9FA7"/>
<path d="M10.08 1.0498L10.11 16.6398H10.07L10.04 1.0498H10.08Z" fill="#9D9FA6"/>
<path d="M10.1101 1.0498L10.1401 16.6398H10.1101L10.0801 1.0498H10.1101Z" fill="#9D9FA6"/>
<path d="M10.14 1.0498L10.17 16.6398H10.14L10.11 1.0498H10.14Z" fill="#9D9FA6"/>
<path d="M10.18 1.0498L10.21 16.6398H10.17L10.14 1.0498H10.18Z" fill="#9D9FA6"/>
<path d="M10.2101 1.0498L10.2401 16.6398H10.2101L10.1801 1.0498H10.2101Z" fill="#9D9FA6"/>
<path d="M10.2401 1.0498L10.2701 16.6398H10.2401L10.2101 1.0498H10.2401Z" fill="#9C9EA6"/>
<path d="M10.28 1.0498L10.31 16.6398H10.27L10.24 1.0498H10.28Z" fill="#9C9EA5"/>
<path d="M10.31 1.0498L10.34 16.6398H10.31L10.28 1.0498H10.31Z" fill="#9C9EA5"/>
<path d="M10.3401 1.0498L10.3701 16.6398H10.3401L10.3101 1.0498H10.3401Z" fill="#9C9EA5"/>
<path d="M10.3801 1.0498L10.4101 16.6398H10.3701L10.3401 1.0498H10.3801Z" fill="#9C9EA5"/>
<path d="M10.41 1.0498L10.44 16.6398H10.41L10.38 1.0498H10.41Z" fill="#9C9EA5"/>
<path d="M10.44 1.0498L10.48 16.6398H10.44L10.41 1.0498H10.44Z" fill="#9C9EA5"/>
<path d="M10.4801 1.0498L10.5101 16.6398H10.4801L10.4401 1.0498H10.4801Z" fill="#9C9EA5"/>
<path d="M10.5101 1.0498L10.5401 16.6398H10.5101L10.4801 1.0498H10.5101Z" fill="#9C9EA5"/>
<path d="M10.55 1.0498L10.58 16.6398H10.54L10.51 1.0498H10.55Z" fill="#9B9EA5"/>
<path d="M10.58 1.0498L10.61 16.6398H10.58L10.55 1.0498H10.58Z" fill="#9B9EA5"/>
<path d="M10.6101 1.0498L10.6401 16.6398H10.6101L10.5801 1.0498H10.6101Z" fill="#9B9DA5"/>
<path d="M10.65 1.0498L10.68 16.6398H10.64L10.61 1.0498H10.65Z" fill="#9B9DA5"/>
<path d="M10.68 1.0498L10.71 16.6398H10.68L10.65 1.0498H10.68Z" fill="#9B9DA5"/>
<path d="M10.7101 1.0498L10.7401 16.6398H10.7101L10.6801 1.0498H10.7101Z" fill="#9B9DA5"/>
<path d="M10.7501 1.0498L10.7801 16.6398H10.7401L10.7101 1.0498H10.7501Z" fill="#9B9DA5"/>
<path d="M10.78 1.0498L10.81 16.6398H10.78L10.75 1.0498H10.78Z" fill="#9B9DA5"/>
<path d="M10.85 1.0498L10.88 16.6398H10.81L10.78 1.0498H10.85Z" fill="#9B9DA5"/>
<path d="M10.9201 1.0498L10.9501 16.6398H10.8801L10.8501 1.0498H10.9201Z" fill="#9B9DA4"/>
<path d="M10.99 1.0498L11.02 16.6398H10.95L10.92 1.0498H10.99Z" fill="#9B9DA3"/>
<path d="M11.06 1.0498L11.09 16.6398H11.02L10.99 1.0498H11.06Z" fill="#9B9CA2"/>
<path d="M11.1301 1.0498L11.1601 16.6398H11.0901L11.0601 1.0498H11.1301Z" fill="#9B9CA1"/>
<path d="M11.2 1.0498L11.23 16.6398H11.16L11.13 1.0498H11.2Z" fill="#9B9BA0"/>
<path d="M11.2701 1.0498L11.3001 16.6398H11.2301L11.2001 1.0498H11.2701Z" fill="#9B9B9F"/>
<path d="M11.34 1.0498L11.38 16.6398H11.3L11.27 1.0498H11.34Z" fill="#9A9A9E"/>
<path d="M11.4101 1.0498L11.4501 16.6398H11.3801L11.3401 1.0498H11.4101Z" fill="#9A9A9D"/>
<path d="M11.49 1.0498L11.52 16.6398H11.45L11.41 1.0498H11.49Z" fill="#9A999D"/>
<path d="M11.56 1.0498L11.59 16.6398H11.52L11.49 1.0498H11.56Z" fill="#9A999C"/>
<path d="M11.6301 1.0498L11.6601 16.6398H11.5901L11.5601 1.0498H11.6301Z" fill="#9A999B"/>
<path d="M11.7 1.0498L11.73 16.6398H11.66L11.63 1.0498H11.7Z" fill="#9A989A"/>
<path d="M11.7701 1.0498L11.8001 16.6398H11.7301L11.7001 1.0498H11.7701Z" fill="#9A9899"/>
<path d="M11.84 1.0498L11.87 16.6398H11.8L11.77 1.0498H11.84Z" fill="#999798"/>
<path d="M11.9101 1.0498L11.9401 16.6398H11.8701L11.8401 1.0498H11.9101Z" fill="#999797"/>
<path d="M11.98 1.0498L12.01 16.6398H11.94L11.91 1.0498H11.98Z" fill="#999696"/>
<path d="M12.0501 1.0498L12.0801 16.6398H12.0101L11.9801 1.0498H12.0501Z" fill="#999695"/>
<path d="M12.12 1.0498L12.15 16.6398H12.08L12.05 1.0498H12.12Z" fill="#999695"/>
<path d="M12.19 1.0498L12.22 16.6398H12.15L12.12 1.0498H12.19Z" fill="#999594"/>
<path d="M12.2601 1.0498L12.2901 16.6398H12.2201L12.1901 1.0498H12.2601Z" fill="#999593"/>
<path d="M12.33 1.0498L12.36 16.6398H12.29L12.26 1.0498H12.33Z" fill="#989492"/>
<path d="M12.4001 1.0498L12.4301 16.6398H12.3601L12.3301 1.0498H12.4001Z" fill="#989491"/>
<path d="M12.47 1.0498L12.5 16.6398H12.43L12.4 1.0498H12.47Z" fill="#989490"/>
<path d="M12.5401 1.0498L12.5701 16.6398H12.5001L12.4701 1.0498H12.5401Z" fill="#98938F"/>
<path d="M12.61 1.0498L12.65 16.6398H12.57L12.54 1.0498H12.61Z" fill="#98938E"/>
<path d="M12.69 1.0498L12.72 16.6398H12.65L12.61 1.0498H12.69Z" fill="#98928E"/>
<path d="M12.7601 1.0498L12.7901 16.6398H12.7201L12.6901 1.0498H12.7601Z" fill="#98928D"/>
<path d="M12.83 1.0498L12.86 16.6398H12.79L12.76 1.0498H12.83Z" fill="#97918C"/>
<path d="M12.9001 1.0498L12.9301 16.6398H12.8601L12.8301 1.0498H12.9001Z" fill="#97918B"/>
<path d="M12.97 1.0498L13 16.6398H12.93L12.9 1.0498H12.97Z" fill="#97918A"/>
<path d="M13.0401 1.0498L13.0701 16.6398H13.0001L12.9701 1.0498H13.0401Z" fill="#979089"/>
<path d="M13.11 1.0498L13.14 16.6398H13.07L13.04 1.0498H13.11Z" fill="#979088"/>
<path d="M13.18 1.0498L13.21 16.6398H13.14L13.11 1.0498H13.18Z" fill="#978F88"/>
<path d="M13.2501 1.0498L13.2801 16.6398H13.2101L13.1801 1.0498H13.2501Z" fill="#978F87"/>
<path d="M13.32 1.0498L13.35 16.6398H13.28L13.25 1.0498H13.32Z" fill="#978F86"/>
<path d="M13.3901 1.0498L13.4201 16.6398H13.3501L13.3201 1.0498H13.3901Z" fill="#968E85"/>
<path d="M13.46 1.0498L13.49 16.6398H13.42L13.39 1.0498H13.46Z" fill="#968E84"/>
<path d="M13.5301 1.0498L13.5601 16.6398H13.4901L13.4601 1.0498H13.5301Z" fill="#968D84"/>
<path d="M13.6 1.0498L13.63 16.6398H13.56L13.53 1.0498H13.6Z" fill="#968D83"/>
<path d="M13.6701 1.0498L13.7001 16.6398H13.6301L13.6001 1.0498H13.6701Z" fill="#968D82"/>
<path d="M13.74 1.0498L13.77 16.6398H13.7L13.67 1.0498H13.74Z" fill="#968C81"/>
<path d="M13.81 1.0498L13.85 16.6398H13.77L13.74 1.0498H13.81Z" fill="#968C80"/>
<path d="M13.8801 1.0498L13.9201 16.6398H13.8501L13.8101 1.0498H13.8801Z" fill="#968B80"/>
<path d="M13.96 1.0498L13.99 16.6398H13.92L13.88 1.0498H13.96Z" fill="#958B7F"/>
<path d="M14.0301 1.0498L14.0601 16.6398H13.9901L13.9601 1.0498H14.0301Z" fill="#958B7E"/>
<path d="M14.1 1.0498L14.13 16.6398H14.06L14.03 1.0498H14.1Z" fill="#958A7D"/>
<path d="M14.1701 1.0498L14.2001 16.6398H14.1301L14.1001 1.0498H14.1701Z" fill="#958A7D"/>
<path d="M14.24 1.0498L14.27 16.6398H14.2L14.17 1.0498H14.24Z" fill="#958A7C"/>
<path d="M14.31 1.0498L14.34 16.6398H14.27L14.24 1.0498H14.31Z" fill="#95897B"/>
<path d="M14.3801 1.0498L14.4101 16.6398H14.3401L14.3101 1.0498H14.3801Z" fill="#95897A"/>
<path d="M14.45 1.0498L14.48 16.6398H14.41L14.38 1.0498H14.45Z" fill="#958879"/>
<path d="M14.5201 1.0498L14.5501 16.6398H14.4801L14.4501 1.0498H14.5201Z" fill="#948879"/>
<path d="M14.59 1.0498L14.62 16.6398H14.55L14.52 1.0498H14.59Z" fill="#948878"/>
<path d="M14.6601 1.0498L14.6901 16.6398H14.6201L14.5901 1.0498H14.6601Z" fill="#948777"/>
<path d="M14.73 1.0498L14.76 16.6398H14.69L14.66 1.0498H14.73Z" fill="#948776"/>
<path d="M14.8001 1.0498L14.8301 16.6398H14.7601L14.7301 1.0498H14.8001Z" fill="#948776"/>
<path d="M14.87 1.0498L14.9 16.6398H14.83L14.8 1.0498H14.87Z" fill="#948675"/>
<path d="M14.94 1.0498L14.97 16.6398H14.9L14.87 1.0498H14.94Z" fill="#948674"/>
<path d="M15.0101 1.0498L15.0401 16.6398H14.9701L14.9401 1.0498H15.0101Z" fill="#948673"/>
<path d="M15.08 1.0498L15.12 16.6398H15.04L15.01 1.0498H15.08Z" fill="#938573"/>
<path d="M15.1601 1.0498L15.1901 16.6398H15.1201L15.0801 1.0498H15.1601Z" fill="#938572"/>
<path d="M15.23 1.0498L15.26 16.6398H15.19L15.16 1.0498H15.23Z" fill="#938471"/>
<path d="M15.3001 1.0498L15.3301 16.6398H15.2601L15.2301 1.0498H15.3001Z" fill="#938471"/>
<path d="M15.37 1.0498L15.4 16.6398H15.33L15.3 1.0498H15.37Z" fill="#938470"/>
<path d="M15.44 1.0498L15.47 16.6398H15.4L15.37 1.0498H15.44Z" fill="#93836F"/>
<path d="M15.5101 1.0498L15.5401 16.6398H15.4701L15.4401 1.0498H15.5101Z" fill="#93836F"/>
<path d="M15.58 1.0498L15.61 16.6398H15.54L15.51 1.0498H15.58Z" fill="#93836E"/>
<path d="M15.6501 1.0498L15.6801 16.6398H15.6101L15.5801 1.0498H15.6501Z" fill="#93826D"/>
<path d="M15.72 1.0498L15.75 16.6398H15.68L15.65 1.0498H15.72Z" fill="#93826D"/>
<path d="M15.7901 1.0498L15.8201 16.6398H15.7501L15.7201 1.0498H15.7901Z" fill="#92826C"/>
<path d="M15.86 1.0498L15.89 16.6398H15.82L15.79 1.0498H15.86Z" fill="#92816C"/>
<path d="M15.93 1.0498L15.96 16.6398H15.89L15.86 1.0498H15.93Z" fill="#92816B"/>
<path d="M16.0001 1.0498L16.0301 16.6398H15.9601L15.9301 1.0498H16.0001Z" fill="#92816A"/>
<path d="M16.07 1.0498L16.1 16.6398H16.03L16 1.0498H16.07Z" fill="#92816A"/>
<path d="M16.1401 1.0498L16.1701 16.6398H16.1001L16.0701 1.0498H16.1401Z" fill="#928069"/>
<path d="M16.21 1.0498L16.24 16.6398H16.17L16.14 1.0498H16.21Z" fill="#928069"/>
<path d="M16.2801 1.0498L16.3201 16.6398H16.2401L16.2101 1.0498H16.2801Z" fill="#928068"/>
<path d="M16.35 1.0498L16.39 16.6398H16.32L16.28 1.0498H16.35Z" fill="#928068"/>
<path d="M16.3901 16.6398L16.3501 1.0498H17.0801V16.6398H16.3901Z" fill="#928068"/>
</g>
<path d="M0.04 11.3797H3.38V11.8297C3.38 12.6897 3.48 13.2897 3.69 13.6397C3.89 13.9897 4.23 14.1597 4.71 14.1597C5.09 14.1597 5.4 14.0297 5.62 13.7597C5.84 13.4897 5.95 13.1297 5.95 12.6697C5.95 11.9097 5.4 11.1897 4.32 10.4997C4.14 10.3797 4.01 10.2897 3.91 10.2297C3.88 10.2097 3.82 10.1697 3.74 10.1197C2.27 9.13971 1.36 8.39971 1.01 7.89971C0.75 7.51971 0.56 7.09971 0.42 6.62971C0.28 6.15971 0.22 5.63971 0.21 5.07971C0.21 3.71971 0.6 2.64971 1.39 1.86971C2.18 1.08971 3.26 0.699707 4.64 0.699707C6.14 0.699707 7.29 1.07971 8.09 1.83971C8.88 2.59971 9.28 3.69971 9.28 5.13971C9.28 5.19971 9.28 5.28971 9.28 5.38971C9.28 5.49971 9.28 5.57971 9.28 5.63971H6.01V5.44971C6.01 4.76971 5.9 4.24971 5.69 3.89971C5.48 3.54971 5.17 3.37971 4.76 3.37971C4.42 3.37971 4.14 3.49971 3.93 3.74971C3.72 3.99971 3.62 4.31971 3.62 4.72971C3.62 5.38971 4.22 6.08971 5.4 6.82971C5.62 6.96971 5.78 7.07971 5.9 7.14971C5.99 7.19971 6.13 7.28971 6.29 7.39971C7.57 8.20971 8.38 8.88971 8.74 9.43971C8.96 9.79971 9.13 10.1997 9.25 10.6597C9.37 11.1097 9.43 11.6097 9.43 12.1397C9.43 13.6997 9.03 14.8997 8.22 15.7397C7.41 16.5797 6.26 17.0097 4.75 17.0097C3.17 17.0097 1.99 16.6097 1.19 15.8097C0.4 15.0197 0 13.8197 0 12.2297C0 12.1297 0 12.0197 0 11.9097C0 11.7997 0.01 11.6197 0.03 11.3797H0.04Z" fill="#A6956E"/>
<path d="M44.8602 8.4799L44.8802 8.4499L44.9302 8.3599L44.9502 8.2899L44.9302 8.1799L44.8802 8.0699L44.8602 8.0199L44.8102 7.9499L44.7202 7.7699L44.7002 7.6599L44.6802 7.5199V7.4099L44.7202 7.3199L44.8802 7.1799L44.9702 7.1299H45.0602L45.1502 7.1499L45.2602 7.2199L45.3302 7.2899L45.4002 7.4899L45.4502 7.6299L45.5602 7.7699L45.6302 7.8399L45.7202 7.8599H45.7902H45.8402L45.9302 7.8099L45.9802 7.7599L46.6802 7.3299H46.7002L46.7702 7.3499L46.7902 7.3999V7.4699V7.8499L46.7702 7.9599L46.2702 8.3199L46.2002 8.4099L46.1302 8.5499V8.6599L46.1502 8.7999L46.2002 8.9099L46.5602 9.4299L46.6302 9.5199L46.6802 9.5699L46.7502 9.5899H46.8002L46.9402 9.6099L46.9902 9.5899L47.1002 9.5199L47.1702 9.4999L47.2602 9.4299L47.4002 9.3199L47.4202 9.2099L47.4402 9.0999L47.4202 8.9899L47.4402 8.8299L47.4602 8.2899V8.1799V8.0899V7.8399V7.6599V7.3899V7.1899L47.3902 7.0099V6.9199L47.3402 6.7799L47.2902 6.7099L47.2002 6.6399L47.0602 6.6199H46.9702L46.7902 6.5999L46.6302 6.6499H46.5602C46.3102 6.6999 46.0602 6.6499 45.8502 6.5099L45.7502 6.4499L45.6402 6.3799L45.5002 6.2399L45.4302 6.1699L45.3602 6.0799L45.3102 5.9699L45.2902 5.8299V5.7399V5.6699V5.5999L45.3402 5.5799L45.4802 5.5099L45.6202 5.4599L45.7602 5.3899L45.8702 5.3399L45.9202 5.3199L45.9902 5.2999L46.0402 5.2499L46.0902 5.2299L46.1102 5.1799V5.1099L46.1302 5.0399L46.0802 4.8399L46.0302 4.6999L45.9802 4.5899L45.8902 4.3599L45.8402 4.2199L45.7902 4.0799L45.7202 3.9699L45.6502 3.8799L45.5402 3.7399L45.4002 3.6499L45.2402 3.4699L45.0802 3.3099L44.9902 3.1499L44.8802 2.9199L44.7902 2.7399L44.7702 2.6499V2.5799L44.8602 2.5299H44.9702L45.0802 2.5099H45.1702L45.2402 2.4899L45.3102 2.4699L45.3802 2.3999V2.2899V2.1099V1.6599L45.3602 1.3399L45.3402 1.1399V0.939902L45.3602 0.829902L45.4102 0.739902L45.4602 0.689902L45.5102 0.669902L45.6002 0.689902L45.7102 0.709902H45.8002L45.8902 0.729902H46.0002L46.0702 0.769902L46.1402 0.839902L46.2302 0.889902L46.3002 0.909902L46.3902 0.959902L46.5002 0.979902L46.6102 0.999902L46.6802 1.0199L46.7502 1.0699L46.8202 1.1199L46.8902 1.1699L46.9402 1.2199L46.9902 1.2699L47.0602 1.3199L47.1102 1.3399L47.2002 1.3599L47.2702 1.3799L47.3402 1.3999L47.3902 1.4199L47.4602 1.4699L47.5302 1.5199L47.5802 1.5699L47.6302 1.6399L47.6802 1.6899L47.7302 1.7099L47.7802 1.7599L47.8302 1.7799H47.9202L48.0602 1.7299L48.1302 1.7099L48.2202 1.6899L48.2902 1.6699L48.4002 1.6199L48.4702 1.5699L48.5402 1.5199L48.6102 1.4499L48.6802 1.3999L48.7502 1.3299L48.8002 1.2799L48.8202 1.2299L48.8702 1.1799L48.9202 1.1299L48.9402 1.0399L48.9902 0.969902L49.0102 0.859902L49.0602 0.769902L49.1302 0.539902L49.1702 0.399902L49.2102 0.289902L49.2302 0.219902L49.2802 0.149902H49.3502H49.3702L49.4402 0.199902L49.5302 0.219902L49.6002 0.269902L49.6502 0.319902L49.6702 0.339902L49.6902 0.359902L49.7102 0.409902L49.7802 0.429902L49.8302 0.449902L49.9002 0.499902L49.9702 0.519902L50.0402 0.569902L50.0902 0.589902L50.1802 0.659902L50.2502 0.709902L50.3002 0.759902L50.4802 0.959902L50.5502 1.0499L50.6202 1.1199L50.6702 1.1699L50.7602 1.2799L50.8502 1.3699L50.8702 1.4399L50.9402 1.5799L50.9602 1.6699L50.9802 1.7399V1.8099L51.0302 1.9899L51.1702 2.0999L51.2802 2.1399L51.4402 2.1599H51.5802L51.6702 2.1799H51.7202H51.7402V2.1999L51.7902 2.2499V2.3399L51.7502 2.4499V2.6099L51.7302 2.6299V2.6499L51.7102 2.6699H51.6902L51.6202 2.7199L51.5302 2.7699L51.3702 2.7899L51.2102 2.8099L51.1002 2.8299H50.9902H50.8502L50.7102 2.8499L50.6002 2.8699L50.4402 2.9399L50.3302 3.0099L50.1902 3.0999L50.1002 3.1899L49.9902 3.2799L49.8802 3.3499L49.7002 3.4399L49.6102 3.4899L49.5202 3.5399L49.4702 3.5599L49.4202 3.5799L49.3502 3.6299L49.2402 3.7199L49.1502 3.8999L49.2002 4.1299L49.2902 4.2199L49.3402 4.2699L49.4302 4.3399L49.5002 4.3899L49.6402 4.4299H49.6602L49.7102 4.4799L49.7602 4.5299L49.8102 4.5999L49.8802 4.7599L49.9302 4.8299V4.9699L49.9802 5.0799V5.0999L49.9602 5.2099V5.2999L49.9402 5.3199L49.8702 5.3899L49.8502 5.4399L49.7802 5.5099L49.6902 5.5799L49.5802 5.6299L49.4202 5.7199L49.1702 5.8299L48.9402 5.9399L48.8002 6.0099L48.6202 6.0999L48.4602 6.1899L48.3202 6.2599L48.2102 6.3099L48.2302 7.0599V7.2399V7.3299L48.2502 7.3799L48.3002 7.3999L48.4602 7.3099L48.6402 7.1999L48.8202 7.1099L49.0702 6.9499L49.2302 6.8799L49.4302 6.7399L49.5902 6.6499L49.7702 6.5099L49.8802 6.4199L50.0202 6.3499L50.1802 6.2599L50.2702 6.1699L50.3602 6.0599L50.5202 5.8799L50.5902 5.7199L50.6102 5.5399L50.6502 5.3999L50.6902 5.2599L50.7602 5.1199C51.1402 5.2099 51.5002 5.3499 51.8302 5.5499V5.5699L51.8802 5.5899L52.0402 5.6799L52.1102 5.7299L52.2002 5.7799L52.2702 5.7999L52.3202 5.8499L52.3702 5.8699L52.3902 5.8899L52.5002 5.9799L52.5902 6.0499L52.6802 6.1399L52.7902 6.2099L52.8602 6.2599L52.9302 6.3299L52.9502 6.3799L53.0002 6.4499L53.0202 6.5199H53.0402L53.0202 6.5699L52.9702 6.5899L52.9002 6.6399L52.8302 6.6599L52.8102 6.6799L52.7002 6.6999H52.6102H52.5202H52.4502H52.4002L52.1502 6.7199H52.0802H52.0102L51.9402 6.7399H51.8502L51.6902 6.8099L51.4402 6.8799L51.2802 6.9299L51.1202 7.0399L50.9802 7.1299L50.8702 7.1999L50.8202 7.2199L50.7702 7.2699L50.7502 7.3199L50.6602 7.4799L50.5702 7.6199L50.5002 7.7999L50.4102 7.9999L50.3202 8.1999L50.1802 8.3999L50.0902 8.5599L50.0202 8.6699H50.1602L50.3402 8.6899H50.4802L50.6202 8.6699H50.8002H50.9802H51.1202L51.2602 8.6199L51.4002 8.5699L51.5102 8.5499L51.6002 8.5299L51.6502 8.5499L51.7602 8.6199L51.8702 8.7599L51.9602 8.8699L52.0702 9.0299L52.1602 9.0999L52.2702 9.2099L52.3402 9.2999L52.3902 9.3499L52.5002 9.4399L52.5702 9.5299L52.6202 9.6199V9.6699L52.5502 9.8099L52.5302 9.8799H52.4602L52.3002 9.8599L51.9802 9.7699L51.7302 9.7299L51.4802 9.6899L51.1902 9.6699L50.8502 9.6899L50.2202 9.7399L49.8102 9.8999L49.3802 10.0599L48.9702 10.2199L48.6502 10.3299L48.3802 10.4399L48.2702 10.4899L48.2302 11.0099L48.2102 11.2799L47.6702 11.2399V10.6499L47.2602 10.7599L46.9002 10.9399L46.5602 11.1199L46.3102 11.2599L45.9902 11.4199L45.7202 11.5599L45.4902 11.6999L45.2002 11.8399L45.0002 11.9299H44.8602L44.6302 11.9099L44.4002 11.8899L44.1702 11.8199L44.0102 11.7299L43.9202 11.6399L43.8102 11.5499L43.7902 11.4799L43.7402 11.4099V11.3199L43.7602 11.2999L43.7802 11.2799L43.8902 11.1899L44.0902 11.0999L44.3202 10.9899L44.6402 10.8799L44.8902 10.7699L45.0902 10.6599L45.3402 10.5499L45.5402 10.4599L45.8802 10.2099L46.0602 10.0699L46.1002 9.9599V9.7999L45.9902 9.5999L45.7402 9.3099L45.6502 9.2399L45.4502 9.1999L45.2002 9.3599L44.8202 9.5199L44.4402 9.4099L44.3502 9.1199L44.5302 8.9399L44.7602 8.7399V8.7099C44.8502 8.6999 44.9302 8.6499 44.9902 8.5699L45.0202 8.5899L44.8602 8.4799ZM49.6102 7.1299V7.0799V7.0299L49.4702 7.0799L49.3802 7.1299L49.2402 7.1799L49.1302 7.2499L49.0402 7.3199L48.9302 7.3899L48.8202 7.4999L48.7302 7.5899L48.5902 7.6599L48.4802 7.7499L48.3702 7.8399L48.1402 7.9799L48.0902 8.0299L48.1102 8.0999V8.2599L48.0902 8.4399V8.6699L48.0702 8.8999H48.1602L48.3002 8.8099L48.4102 8.7199L48.4802 8.6499L48.5902 8.5599L48.7002 8.4899L48.7902 8.3999L48.8802 8.3299L48.9502 8.2199L49.0002 8.1499L49.0702 8.0399L49.1402 7.9499L49.1802 7.8399L49.2502 7.7299L49.3002 7.6399L49.3202 7.5499L49.3902 7.4599L49.4402 7.3699L49.5302 7.2799L49.5802 7.2299L49.6302 7.1599L49.6102 7.1299ZM48.7002 2.2499L48.6502 2.0899L48.4702 1.9799L48.3302 2.0899L48.2402 2.1599L48.1502 2.2699L48.0402 2.3599L47.9302 2.4499L47.7502 2.5199L47.6602 2.5399L47.5002 2.5599L47.3602 2.6999L47.3402 2.8599V2.9699L47.3202 3.0799L47.2802 3.4199L47.2402 3.5299L47.2202 3.6399L47.1302 3.7999L47.2202 3.9399L47.2702 3.9899L47.2902 4.0099V4.0799L47.4502 4.3699L47.6102 4.0999L47.7202 3.9399L47.8102 3.7999L47.9202 3.5999L48.0102 3.4599L48.1002 3.3199L48.1902 3.1799L48.2602 3.0699L48.3302 2.9799L48.4402 2.7999L48.5502 2.5999L48.6202 2.4199L48.7102 2.2399L48.7002 2.2499Z" fill="white"/>
<path d="M51.2501 12.2799V12.3499L51.2101 12.4799L51.1401 12.5499L51.0201 12.6399L50.7501 12.7299L50.0301 12.9099L49.7601 12.9599L48.9901 13.0999L48.6301 13.1599L48.3601 13.2099L48.1101 13.2799V13.8199L48.0901 14.1999V14.6099V15.3299L48.0701 15.8499V16.2799L48.0501 16.5499L48.0101 16.8899L47.9601 17.0699L47.9401 17.0999L47.8701 17.1399L47.8001 17.0499L47.6901 16.9599L47.5801 16.7099L47.4901 16.4899L47.4401 16.2799L47.4201 16.1699V15.9699V15.2399L47.4401 14.8399V14.4499L47.4601 14.2499L47.4401 14.0499L47.3901 13.8699L47.3001 13.7099L47.1401 13.5999L46.9401 13.6399L46.7801 13.7099L46.6201 13.7599L46.4401 13.8199H46.3101H46.1701H46.0101L45.8501 13.7999L45.7601 13.7799L45.6701 13.7299L45.5801 13.6899L45.5401 13.6399L45.4701 13.5499L45.4201 13.4199L45.4001 13.2599L45.4201 13.1299L45.4901 12.9399L45.5601 12.8099L45.7201 12.7399L46.0301 12.5599L46.3001 12.4199L46.5501 12.3099L46.8701 12.1699L47.1801 12.0399L47.4501 11.8999L47.4801 11.4499L47.5001 11.1799L48.0401 11.2199V11.2499L48.0201 11.5399V11.7599L48.1801 11.7399L48.3101 11.6999L48.6101 11.5799L48.7401 11.5099L48.9001 11.4499L49.1001 11.3799L49.3301 11.2899L49.7101 11.1699L49.8001 11.1299H49.8701L50.0101 11.1499L50.1201 11.1699L50.2301 11.2199L50.3401 11.2599L50.5301 11.3799L50.6401 11.4699L50.8001 11.5799L50.9101 11.6899L51.0701 11.8899L51.1601 12.0099L51.2001 12.1699L51.2501 12.2799Z" fill="white"/>
<path d="M44.3202 5.4698L44.3502 5.5998L44.3202 5.7398L44.3002 5.89981L44.2602 5.9898L44.1402 6.14981L44.0802 6.27981L43.9602 6.4198L43.8502 6.52981L43.7202 6.68981L43.6002 6.77981L43.5102 6.8698L43.4202 6.9598L43.3302 7.0498L43.2702 7.1698L43.2002 7.27981L43.1302 7.3698L43.0902 7.4598L42.9502 7.7298L42.9102 7.9598L42.8402 8.2298V8.3398L42.8202 8.4498V8.5398L43.0702 8.7698L43.3102 8.9298L43.9002 9.3098L44.0202 9.6298L43.9302 10.1698L43.5402 10.5098L43.3802 10.4198L42.7102 9.4298L42.6202 10.1298L42.5302 10.9198L42.4802 11.2998L42.4602 11.6198L42.4802 11.9598V12.2698L42.5302 12.8398V13.2398V13.6098L42.5802 14.0298L42.6002 14.3498L42.5802 14.6698L42.5402 15.0498L42.4902 15.1898L42.4202 15.2098L42.2902 15.1398L42.1502 14.8298L42.0402 14.4198L41.9202 14.0398L41.8302 13.3998L41.7902 12.9298L41.7602 12.3898V11.8898V11.4798V11.1398L41.4702 11.4598L41.2602 11.7098L41.0602 11.9398L40.8802 12.1398L40.5202 12.4798L40.2702 12.5898L39.8602 12.4598L39.6802 12.3198L39.5502 12.0298L39.4802 11.7098L39.4602 11.5098L39.5702 11.2598L39.8602 10.8998L40.2502 10.4498L40.3302 10.2398L40.4902 9.9298L40.6102 9.7498L40.8502 9.4298L40.9702 9.2298L41.0302 9.0498L41.0802 8.8198L41.0302 8.5698L40.8702 8.3498L40.5102 8.1398L40.2602 8.0098L40.0102 7.8498L39.8102 7.68981L39.6102 7.5598L39.3402 7.3798L39.2402 7.2398L39.2002 7.1298L39.1802 7.0598L39.2002 6.9698L39.2402 6.85981L39.6302 6.5898L40.0102 6.3798L40.3302 6.1298L40.7102 5.7898L40.9102 5.60981L41.1202 5.4798L41.3202 5.3398L41.4102 5.2698L41.5702 5.1798L41.7302 5.0198L41.8202 4.8198L41.8402 4.6798L41.8102 4.5298V4.3398L41.7902 4.0698L41.7702 3.8698L41.7402 3.5298L41.7002 3.2598L41.6802 3.0098L41.6502 2.8998L41.6302 2.7598L41.6102 2.6698L41.5802 2.5798L41.5602 2.4698L41.5402 2.3998L41.5202 2.2198L41.4702 1.6798L41.4502 1.5698V1.4798L41.4702 1.4098L41.5102 1.3598L41.5602 1.3198L41.6102 1.2998H41.7202H41.8302L42.2402 1.3798L42.5302 1.4998L42.6002 1.5398L42.7602 1.6098L43.2602 1.9498L43.3502 2.0398L43.5302 2.1698L43.6402 2.4398V2.6498L43.5302 2.9198L43.3502 3.2098L43.2602 3.2998L43.1902 3.3698L43.1502 3.4398L43.0602 3.5498L42.9902 3.6398L42.9402 3.6898L42.8502 3.8698L42.7802 3.9598L42.7002 4.2098V4.3198V4.4098L42.7402 4.4998L42.8102 4.5498L42.9002 4.5698L43.0302 4.5498L43.0602 4.5198L43.3102 4.3598L43.4402 4.2998H43.5502H43.6402L43.7302 4.3398L43.8002 4.4498L43.8702 4.5698L43.9602 4.6998L44.0702 4.9098L44.1702 5.0598L44.2302 5.1998L44.2802 5.3298L44.3202 5.4698Z" fill="white"/>
<path d="M72.2701 14.3498L72.1301 14.3098L71.9301 14.2398L71.5701 14.1698L71.0501 14.0998L70.2401 14.0598L68.7001 13.9998L67.3201 13.9598L66.7101 13.8898L66.2101 13.8198L65.7801 13.7498L65.4001 13.6798L65.0801 13.6598L65.1501 13.2498L65.1701 12.9598L65.1901 12.5098L65.2801 12.1498V11.7198L65.4401 11.6698L65.7601 11.6198L66.0501 11.5498L66.4301 11.4798L66.8801 11.4298L67.4201 11.3598L68.1201 11.3098L68.5701 11.2598L68.8001 11.1898L68.8901 11.0098V10.8298L68.8401 10.6498L68.7001 10.4898L68.5001 10.3798L68.2701 10.2898L68.0401 10.1998L67.7901 10.1098L67.5201 10.0398L67.2301 9.87977L67.0501 9.73977L66.8701 9.64977L66.8201 9.57977L66.9301 9.48977L67.0901 9.43976L67.2901 9.34977L67.4301 9.23977L67.5401 9.14977L67.5801 8.98977L67.6001 8.80977L67.5801 8.66977L67.4701 8.55977L67.3601 8.41977L67.2501 8.30977L67.1401 8.23977L66.9401 8.19977H66.7101H66.4601L66.1701 8.28977L66.0301 8.35977L65.8301 8.40977L65.6301 8.47976H65.4501L65.4301 8.31977L65.5001 8.26977L65.6801 8.19977L65.8201 8.14977L66.0201 8.00977L66.2901 7.84977L66.5401 7.68977L66.8101 7.57977L66.9901 7.48977L67.1001 7.39977L67.1901 7.23977V7.07977V6.93977L67.1201 6.79977L67.0301 6.74977V6.58977L67.1201 6.38977L67.2101 6.11977L67.3701 5.77977L67.4601 5.52977L67.5501 5.29977L67.6401 5.27977L67.9601 5.22977L68.2801 5.20977L68.6001 5.22977H68.8301L69.0601 5.17977L69.2401 5.08977L69.4001 4.99977L69.5601 4.79977L69.5401 4.52977L69.4701 4.36977L69.3601 4.20977L69.2501 4.11977L69.1101 4.04977L68.9501 3.97977L68.7201 3.95977H68.4701L68.4001 3.93977V3.70977L68.3501 3.50977L68.2601 3.30977L68.1001 3.07977L67.9401 2.91977L67.6901 2.68977L67.5101 2.52977L67.2601 2.41977L67.0801 2.34977L66.8301 2.27977H66.5101L66.2401 2.25977L65.9701 2.30977L65.7401 2.35977V2.28977V2.01977L65.7601 1.60977L65.8301 1.37977L65.8101 1.17977L65.7601 0.979766L65.6501 0.779766L65.4901 0.579766L65.3801 0.439766L65.2401 0.299766L65.0401 0.159766L64.8401 0.0497656L64.5901 0.0297656L64.3001 0.00976562L64.0301 0.0797656L63.7601 0.189766L63.5601 0.259766L63.4201 0.399766L63.4401 0.539766L63.5101 0.679766L63.6501 0.819766L63.8101 0.959766L64.0101 1.06977L64.2101 1.22977L64.3001 1.31977L64.3701 1.58977L64.3901 1.74977V2.08977V2.40977L64.3701 2.85977L64.3001 2.94977L64.0301 3.05977L63.7801 3.14977L63.5101 3.21977L63.1701 3.32977L62.8501 3.43977L62.4701 3.52977L62.1301 3.66977L62.0601 3.82977L62.0801 3.96977L62.1301 4.12977L62.2701 4.19977L62.6801 4.26977L62.9301 4.30977H63.2701L63.6801 4.28977L63.9501 4.23977L64.2701 4.18977H64.3801L64.4001 4.36977V4.63977V4.79977L64.3601 4.93977L64.0901 5.02977L63.8901 5.11977L63.5501 5.20977L63.2101 5.29977L62.8501 5.40977L62.5801 5.45977L62.3801 5.52977L62.1101 5.59977L61.8201 5.66977L61.5001 5.75977L61.1801 5.82977L60.9501 5.89977L60.8101 6.00977L60.7901 6.14977V6.30977L60.8101 6.46977L60.8801 6.60977L61.0201 6.71977L61.2201 6.82977L61.5101 6.89977L61.7601 6.93977L62.1001 6.91977L62.3501 6.84977L62.6201 6.75977L62.8501 6.66977L63.1701 6.57977L63.4401 6.46977L63.6901 6.37977L63.8701 6.30977L64.1201 6.21977L64.4101 6.14977V6.32977L64.3901 6.68977L64.3701 6.93977L64.2101 7.02977L63.9601 7.13977L63.6901 7.22977L63.4401 7.33977L63.1201 7.40977L62.9201 7.49977L62.6901 7.58977H62.4001H62.0801L62.1501 7.78977L62.2201 7.92977L62.2901 8.10977L62.4001 8.30977L62.4901 8.46977L62.6301 8.60977L62.8601 8.71977H63.0601H63.4701L63.8501 8.64977L64.1401 8.57977L64.3701 8.52977L64.3901 8.72976L64.2501 8.77977L64.0901 8.84977L63.9101 8.93976L63.7101 9.00977L63.4801 9.09977L63.2301 9.20977L63.0301 9.27977L62.7801 9.34977L62.5801 9.41977L62.4001 9.39977L62.1301 9.37977V9.55977L62.1801 9.73977L62.2701 9.89977L62.3201 10.0398L62.4301 10.1498L62.5901 10.3498L62.7501 10.4598L62.9101 10.5698L63.2001 10.5898L63.4701 10.5398L63.7901 10.4698L64.0801 10.4198L64.3501 10.3498V10.5498L64.2401 10.5998L64.1301 10.6698L63.9501 10.7798L63.7901 10.8298L63.5901 10.8998L63.3901 10.9698L63.0501 11.0398L62.7601 11.0898L62.3801 11.1598L61.9701 11.2298L61.7201 11.2498V11.2998L61.7701 11.5298L61.8201 11.6698L61.8701 11.8098L61.9401 11.9498L62.0101 12.0898L62.1001 12.1798L62.1901 12.2898L62.2601 12.3598L62.3701 12.4298L62.5301 12.4998H62.7601L62.9401 12.4098L63.0501 12.3598L63.2301 12.2898L63.4301 12.2398L63.6101 12.1498L63.8101 12.0998L64.0601 12.0298L64.2601 11.9398L64.4201 11.8898V11.9998V12.3598L64.4401 12.8798L64.4901 13.1998V13.4498L64.2001 13.4098L63.9701 13.3698L63.6501 13.2998L63.3801 13.2298L63.1301 13.1598L62.9001 13.0898L62.6301 13.0498L62.4001 12.9798L61.9301 12.8498L61.5001 12.7398L61.0701 12.6098L60.5501 12.4998L60.3701 12.4598L60.4101 12.1898L60.5001 11.9598L60.5401 11.6398L60.6101 11.2598L60.6501 10.8098L60.6701 10.5198V10.3198L60.6901 10.0698L60.6701 9.92977L60.6501 9.72976L60.5101 9.43976L60.4001 9.27977L60.2201 9.07977L60.0401 8.91977L59.8401 8.75977L59.6601 8.64977L59.4601 8.55977L59.2601 8.46977L59.0301 8.37977L58.7801 8.30977L58.6701 8.26977L58.6901 8.12977L58.8301 7.89977L58.9401 7.66977L59.0501 7.46977L59.2301 7.17977L59.3601 6.88977L59.5401 6.61977L59.6701 6.32977L59.9401 6.07977L60.1401 5.87977L60.3201 5.67977L60.4601 5.51977L60.5001 5.33977V5.15977L60.4301 4.97977L60.3401 4.74977L60.2501 4.54977L60.1401 4.38977L60.0301 4.22977L59.8901 4.06977L59.7801 3.95977L59.6401 3.86977L59.4801 3.77977L59.3201 3.70977L59.1401 3.61977L59.0001 3.59977L58.9501 3.66977L58.8601 3.77977L58.7501 3.93977L58.5901 4.07977L58.5001 4.21977L58.3001 4.35977L58.1001 4.53977L57.8701 4.69977L57.6701 4.85977L57.3501 5.10977L57.1201 5.21977L56.9601 5.35977H56.8701L56.8501 5.28977V5.17977L56.7801 5.10977L56.6901 5.08977L56.5801 5.10977L56.4901 5.24977L56.4501 5.42977V5.53977L56.5401 5.71977L56.6301 5.91977L56.7701 6.14977L56.9301 6.37977L57.1301 6.57977L57.3301 6.66977L57.5301 6.75977L57.8501 6.82977L57.9601 6.86977L57.9201 7.04977L57.8101 7.20977L57.7001 7.47977L57.5601 7.70977L57.4701 8.02977L57.3801 8.31977L57.3601 8.72976V9.08977L57.4101 9.35977L57.4601 9.51977L57.5701 9.78977L57.6401 9.94977L57.7301 10.0598L57.8201 10.1698L58.0001 10.1198L58.2301 10.0998L58.3401 10.0498L58.6101 9.99977L58.8101 9.97976H59.0401L59.0601 10.2298L59.0801 10.3198L59.1001 10.9098V11.3598V11.6798V12.2698H58.9701L58.7001 12.2498L58.4301 12.1798H58.0701L57.8201 12.1998L57.5701 12.2698L57.2801 12.2898L57.0101 12.3398L56.7801 12.3898H56.6201L56.5101 12.2798L56.4001 12.1398L56.2601 11.9798L56.1201 11.9598L56.0101 12.0498L55.9001 12.1898L55.8301 12.3298V12.5098L55.9201 12.7098L55.9701 12.9098L56.0201 13.0698L56.0901 13.2098L56.2001 13.4998L56.2701 13.6798H56.4501L56.7201 13.6098L56.9501 13.5398L57.2401 13.4498L57.4901 13.3398L57.7801 13.2698H58.2101L58.5501 13.2898L58.7501 13.3298V13.4698L58.5701 13.7598L58.4101 13.9598L58.2101 14.1898L58.0301 14.3698L57.8301 14.5698L57.5601 14.7998L57.2401 15.0298L56.9701 15.2298L56.7201 15.3898L56.4901 15.5298L56.2401 15.6398L55.9701 15.7798L56.0801 15.9198L56.2601 16.0098L56.8001 16.1398H57.2301L57.5501 16.0898L57.8701 15.9998L58.2101 15.8598L58.5001 15.6998L58.7301 15.5598L59.0001 15.2898L59.2001 15.0598L59.3801 14.8098L59.5201 14.5798L59.6101 14.3498L59.7201 14.0998L59.8501 13.7798L59.9601 13.5098H60.2301L60.4301 13.5498L60.6801 13.6398L61.0601 13.7498L61.4401 13.8798L61.7301 14.0398L62.0901 14.1698L62.5601 14.2998L62.9401 14.4598L63.3501 14.5898L63.8001 14.7498L64.3901 14.9298L64.7701 15.0598L65.0401 15.1698L65.4001 15.3498L65.9001 15.5998L66.1901 15.7298L66.5701 15.9098L66.8901 16.0198L67.3001 16.1498L67.9101 16.2798L68.3401 16.2998L68.7001 16.2298L68.9701 16.1798L69.2601 16.1098L69.5801 15.9998L69.8701 15.9098L70.1401 15.7698L70.3701 15.6798L70.6601 15.4998L70.9301 15.3198L71.2001 15.1798L71.3601 15.1098L71.5901 15.0398L71.8401 14.9298L72.0401 14.7898L72.1501 14.6498L72.2401 14.4898L72.2901 14.3998L72.2401 14.2898L72.2701 14.3498ZM65.6301 3.83977L65.7901 3.76977L66.0801 3.69977H66.3101L66.4901 3.73977L66.5601 3.87977L66.6101 4.10977L66.5701 4.39977L66.3901 4.48977L66.0501 4.55977L65.8201 4.62977L65.6601 4.64977H65.6101L65.6301 3.83977ZM65.5701 5.84977L65.8201 5.77977L65.9601 5.72977H66.0701L66.1601 5.70977H66.2101L66.1701 5.88977L66.1001 6.11977L66.0801 6.18977L66.0401 6.32977L66.0001 6.41977L65.8601 6.57977L65.7201 6.64977L65.5401 6.69977L65.5801 5.85977L65.5701 5.84977ZM65.5801 10.2598L65.8101 10.1198L66.0101 10.0498L66.1201 9.95977L66.3001 9.86977L66.4101 9.79977L66.5201 9.72976L66.5901 9.67977L66.6801 9.76977L66.7301 9.90977L66.8001 9.99977L66.8501 10.0898L66.9201 10.1798L66.9401 10.2698L66.9201 10.3198H66.7401H66.5801L66.2201 10.3898L65.7901 10.4598L65.6501 10.4798L65.4901 10.4998L65.4001 10.4798V10.4098V10.3598L65.5801 10.2498V10.2598Z" fill="white"/>
<path d="M90.38 15.2796L90.2 15.1696L90 15.0296L89.73 14.8496L89.28 14.6196L88.99 14.4896L88.65 14.3596L88.27 14.2296L88.02 14.1196L87.73 14.0296L87.39 13.8996L87.1 13.7896L86.65 13.6296L86.31 13.4496L85.95 13.2496L85.66 13.0896L85.39 12.9296V12.7896L85.5 12.5596L85.54 12.3596L85.67 11.9796L85.74 11.7096L85.81 11.3896L85.94 10.9596L86.05 10.7296L86.14 10.4396L86.37 10.0596L86.53 9.87963L86.57 9.69963L86.5 9.44963L86.39 9.24963L86.21 8.95963L85.94 8.63963L86.1 8.49963L86.33 8.29963L86.6 8.06963L86.78 7.90963L86.98 7.74963L87.23 7.49963L87.5 7.20963L87.68 7.02963L87.86 6.77963L87.84 6.61963L87.77 6.43963L87.66 6.23963L87.52 6.07963L87.34 5.89963L87.09 5.66963L86.8 5.55963L86.44 5.53963L86.15 5.49963L85.95 5.45963L85.93 5.27963L86.02 5.07963L86.11 4.84963L86.18 4.61963L86.29 4.14963L86.33 3.89963L86.4 3.64963V3.37963L86.35 3.03963L86.24 2.58963L86.17 2.35963L86.03 2.06963L85.96 1.88963L85.85 1.70963L85.76 1.63963L85.53 1.61963L85.26 1.68963L85.01 1.77963L84.81 1.84963L84.54 2.00963L84.31 2.14963L84.2 2.23963L84.09 2.34963L83.98 2.54963L83.8 2.81963L83.62 3.06963L83.46 3.38963L83.35 3.63963L83.21 3.88963L83.17 4.06963L83.26 4.04963L83.44 3.90963L83.62 3.76963L83.87 3.56963L84.1 3.40963L84.35 3.22963L84.58 3.04963L84.78 2.90963L84.92 2.76963L85.03 2.69963L85.08 2.71963L85.15 2.85963L85.22 3.05963V3.21963L85.15 3.39963L85.11 3.64963L85.07 3.87963L84.98 4.25963L84.94 4.52963L84.87 4.86963L84.73 5.11963L84.59 5.38963L84.43 5.58963V5.76963L84.48 5.96963L84.59 6.25963L84.73 6.57963L84.87 6.80963L85.03 7.03963L85.12 7.21963L85.28 7.25963L85.46 7.16963L85.75 7.09963L85.98 7.04963L86.18 6.97963L86.29 6.99963L86.18 7.13963L85.98 7.38963L85.78 7.52963L85.4 7.84963L85.17 8.04963L84.85 8.29963L84.58 8.45963L84.38 8.61963L84.11 8.84963L83.91 8.95963L83.71 9.06963L83.46 9.15963L83.21 9.22963L82.89 9.29963L82.71 9.34963L82.69 9.20963L82.78 9.04963L82.82 8.77963L82.89 8.07963L82.93 7.53963L83 7.28963L83.07 7.08963L83.14 6.67963L83.25 6.35963L83.34 6.15963L83.45 5.95963L83.52 5.70963L83.56 5.45963L83.58 5.22963V4.95963L83.51 4.72963L83.42 4.56963L83.24 4.45963L83.06 4.34963L82.86 4.20963L82.7 4.09963L82.47 3.95963L82.27 3.81963L82.02 3.74963L82.04 3.81963V3.99963V4.19963L82.11 4.44963L82.16 4.71963V4.98963V5.41963L82.14 5.97963L82.12 6.29963V6.65963L82.03 7.01963L81.99 7.21963L81.95 7.44963L81.88 7.64963L81.72 7.82963L81.61 8.05963V8.25963V8.45963L81.68 8.65963L81.77 8.88963L81.88 9.13963L81.99 9.27963L82.13 9.50963L82.06 9.52963L81.86 9.57963L81.72 9.64963L81.61 9.75963V9.84963L81.72 9.98963L81.86 10.1496L82 10.2896L82.16 10.3796L82.36 10.4896L82.63 10.5796L82.95 10.5996L83.22 10.5096L83.51 10.4396L83.87 10.3496L84.23 10.2096L84.55 10.1396L84.78 10.0896L84.83 10.1996L84.81 10.4896L84.74 10.7196L84.65 11.0596L84.54 11.3296L84.47 11.5596L84.36 11.7596L84.29 11.9396L84.15 11.9896L83.99 11.8796L83.81 11.7696L83.65 11.6596L83.47 11.5196L83.29 11.3596L83.13 11.2196L82.95 11.0796H82.89L82.59 11.0396L82.27 11.0196L82.02 10.9996L81.79 10.9796L81.59 10.9596L81.36 10.9796L81.16 11.0296L80.96 11.0996L80.78 11.1696L80.64 11.2396L80.48 11.3796L80.3 11.5396L80.23 11.4296L80.12 11.3196L79.87 11.1796L79.64 11.0896L79.41 11.0496L79.12 11.0296L78.74 11.0796L78.29 11.1896L78.02 11.2796L77.73 11.3896L77.32 11.5696L76.98 11.7496L76.73 11.9496L76.5 12.1096L76.39 12.2196L76.34 12.2396L76.18 12.1296L76.02 11.9896L75.79 11.8796L75.54 11.8996L75.56 11.9896L75.61 12.2596L75.68 12.4896L75.75 12.8296L75.77 13.0796L75.84 13.3496L75.91 13.6196L75.98 13.9096L76 14.1596L76.09 14.3596L76.14 14.5896L76.21 14.8196L76.37 15.0896L76.44 15.2496L76.58 15.4296L76.72 15.5696L76.88 15.6796L77.13 15.7896L77.17 15.6096L77.19 15.4296L77.21 15.2496H77.39L77.82 15.1996L78.16 15.1496L78.39 15.0996L78.68 15.0496L78.93 14.9796L79.27 14.8696L79.52 14.7796L79.72 14.6696L79.83 14.6496L79.94 14.6896L80.05 14.7596L80.16 14.8496L80.36 14.9896L80.52 15.0596L80.72 15.1696L80.99 15.2396L81.46 15.3096L81.89 15.3496L82.41 15.2996L82.75 15.2296L83.09 15.1196L83.34 14.9796L83.61 14.8196L83.88 14.6596L84.2 14.4096L84.34 14.2696L84.54 14.0696L84.7 13.8896L84.86 13.9596L84.95 14.0496L85.11 14.1596L85.36 14.3396L85.41 14.4496L85.59 14.5896L85.79 14.7496L86.11 15.0396L86.25 15.1496L86.45 15.3296L86.61 15.5096L86.81 15.6696L86.99 15.7596L87.31 15.8296L87.63 15.8696L87.97 15.9096H88.35L88.58 15.8596H88.94L89.39 15.8396L89.62 15.9096L89.87 15.9296L90.07 15.8796L90.21 15.7696L90.35 15.6096L90.46 15.4096V15.2696L90.38 15.2796ZM78.76 12.7596L78.63 13.0996L78.47 13.5096L78.34 13.8296L78.23 14.0096L77.89 14.1496L77.53 14.2596L77.33 14.3296L77.22 14.2196V13.9696L77.13 13.7396L77.08 13.5096L77.01 13.2396L76.96 13.0796L76.94 12.9396L77.12 12.7096L77.41 12.5096L77.68 12.3296L77.86 12.2396L78.02 12.1496L78.16 12.0596L78.27 11.9696L78.47 11.9196L78.7 11.8996L78.84 11.9196L78.86 12.0996L78.88 12.3896L78.77 12.7496L78.76 12.7596ZM83.48 13.1996L83.21 13.4496L82.92 13.7196L82.58 13.9896L82.17 14.2396L81.81 14.3796L81.4 14.4496L80.97 14.4996L80.41 14.4796L80.25 14.4096L79.91 14.3396L79.71 14.1996L79.64 14.0596L79.59 13.9196L79.75 13.7396L79.93 13.4696L80.11 13.1996L80.29 12.9696L80.43 12.6996V12.4496L80.45 12.1996L80.43 11.9296V11.7496L80.79 11.7296L81.35 11.7696L81.6 11.7896L81.83 11.8596L82.03 11.8796L82.39 11.9896L82.57 12.0596L82.68 12.1996L82.97 12.3296L83.17 12.4896L83.37 12.6896L83.57 12.9196L83.46 13.1896L83.48 13.1996Z" fill="white"/>
<path d="M79.5601 3.46947L79.6301 3.82947L79.6001 4.05947L79.3601 4.23947L78.8801 4.34947L78.4701 4.50947L77.8701 4.66947L77.3201 4.84947L76.5801 4.98947L76.9201 4.53947L77.2501 4.01947L77.4101 3.69947L77.3701 3.55947L77.1801 3.31947L77.0001 3.03947L76.9101 2.97947L76.7101 2.67947L76.6001 2.43947L76.5701 2.20947L77.1401 2.22947L77.5901 2.31947L78.0601 2.42947L78.5401 2.58947L79.0401 2.78947L79.3501 2.99947L79.4701 3.17947L79.5601 3.46947Z" fill="white"/>
<path d="M77.1602 11.0593L77.1302 11.0193L76.8602 11.0393L76.5502 11.0893H76.3402L76.0902 10.9993L75.9802 10.8193L75.8902 10.6593L75.7502 10.4093L75.6802 10.1593V10.0493H75.9102L76.1402 9.99934L76.4302 9.90934L76.6302 9.86934L76.8102 9.79934L76.9302 9.68934L77.0802 9.56934L77.2602 9.40934L77.4502 9.25934L77.5602 9.13934L77.7202 9.00934L78.0102 9.09934L77.8702 9.22934L78.3302 9.09934L78.6902 8.93934L79.0002 8.81934L79.2702 8.84934L79.5702 8.93934L79.7702 9.13934L79.9102 9.33934L79.8602 9.60934L79.7502 9.83934L79.3402 10.0893L78.7602 10.3793L78.2802 10.6093L77.8102 10.8993L77.4502 11.1093L77.0902 11.2893L76.7502 11.3993L77.0002 11.2193L77.1602 11.0593Z" fill="white"/>
<path d="M76.6102 7.80957L76.9502 7.69957L77.2602 7.51957L77.5802 7.39957L77.8902 7.28957L78.2502 7.12957L78.5002 7.03957L78.8002 6.89957L79.0702 6.80957H79.2002L79.4502 6.85957L79.6502 6.98957L79.8102 7.12957L79.9702 7.34957L79.9502 7.57957L79.8402 7.80957L79.5902 7.98957L79.3002 8.20957L78.9102 8.48957L78.5302 8.72957L78.2802 8.93957L78.0102 9.09957L77.7202 9.00957L77.8502 8.91957L77.9202 8.84957L77.9602 8.73957L77.9002 8.68957L77.6002 8.73957L77.2602 8.82957L77.0802 8.86957L76.9502 8.82957L76.6802 8.68957L76.5602 8.50957L76.4502 8.34957L76.3602 8.14957L76.2702 7.94957L76.2202 7.80957L76.2002 7.74957L76.3802 7.73957L76.6102 7.80957Z" fill="white"/>
<path d="M74.1201 6.86965L73.7801 6.59965L73.6201 6.36965L74.4301 6.32965L75.1101 6.07965L75.7201 5.84965L76.4701 5.57965L77.2301 5.23965L77.9101 5.04965L78.4301 4.86965L79.0201 4.66965L79.6001 4.50965L80.1201 4.38965L80.6001 4.41965L80.8701 4.56965L81.0301 4.79965L81.1601 4.99965L81.1401 5.26965L80.7601 5.51965L80.0601 5.83965L79.3601 6.08965L78.5901 6.40965L77.9601 6.65965L77.2401 6.90965L76.5601 7.15965L75.9301 7.37965L75.5701 7.47965L75.2301 7.49965L74.8201 7.40965L74.4801 7.20965L74.1201 6.86965Z" fill="white"/>
<path d="M27.3801 8.77979L27.2601 8.15979L26.9501 7.65979L26.5201 7.34978L25.8301 7.25979L25.3301 7.44979L24.7801 7.65979L24.8701 7.48979L25.2001 6.91979L25.5301 6.39979L25.8901 5.87979L26.2701 5.37979L26.7201 4.99979L27.1901 4.51979L27.3601 4.20979L27.3101 4.01979L26.9301 3.46979L26.5501 3.03979L26.0001 2.77979L25.6001 2.91979L25.5301 2.98979L25.0101 3.31979L24.7001 3.41979L24.1101 3.65979L23.5601 3.91979L23.0601 3.86979L22.4901 3.72979V3.91979L22.7801 4.20979L23.1801 4.67979L23.5901 5.22979L23.7101 5.31979L24.2301 5.66979L24.1801 5.92979L23.9901 6.40979L23.6601 7.04979L23.1601 7.80978L23.0401 8.04979L22.7301 8.63979L22.1601 9.72978L22.0401 9.91979L21.7101 10.4398L21.3601 10.9898L21.0001 11.5098L20.6201 12.0298L20.3101 11.8598L20.4801 12.4998L20.7901 13.0198L20.9601 12.9698L21.2701 12.7598L21.6701 12.3298L22.1401 11.7098L22.7101 10.8798L22.7301 10.9798L23.0201 11.9098L23.2101 12.4998L23.3301 12.7598L23.8801 12.9698L24.3301 12.6798V12.2298L24.4001 12.2098L25.0601 12.0198L25.4601 11.8998L26.0801 11.7798H26.2501L26.5801 11.4198L26.4801 10.8698V10.7998L26.5001 10.6798L26.7601 10.1298L27.0401 9.55979L27.3701 8.96979L27.3501 8.72978L27.3801 8.77979ZM25.4101 9.44979L25.2001 10.0398L24.9901 10.6598L24.7001 10.7798L24.1501 11.0198L24.0801 10.7798L23.9101 10.1898L23.6701 9.54979L23.9501 9.09979H24.0001L24.5901 8.99979L25.2601 8.87979L25.5501 9.08979L25.4101 9.44979Z" fill="white"/>
<path d="M35.23 14.6296L34.94 14.0796L34.63 13.8696L34.37 13.6096L33.89 13.2796L33.46 13.0396L33.53 12.9896L33.7 12.8196L33.87 12.5296L34.01 12.1996L34.13 11.7696L34.25 11.2696L34.34 10.6996L34.41 10.0296L34.48 9.28959L34.53 8.47959L34.55 7.59959L34.57 6.62959L34.59 5.57959L34.54 5.36959L34.35 4.79959L33.99 4.34959L33.47 3.96959L33.28 3.98959L32.61 4.08959L31.99 4.18959L31.42 4.30959L31.68 3.90959L31.77 3.83959L32.32 3.54959L32.87 3.25959L33.44 2.94959L34.01 2.63959L34.58 2.32959L34.72 1.73959L34.67 1.66959L34.24 1.28959L33.6 1.07959L33.2 1.14959L32.68 1.26959L32.11 1.40959L31.52 1.54959L30.88 1.71959L30.24 1.90959L29.55 2.12959L28.81 2.34959L28.45 2.25959L28.26 2.35959V2.40959L28.52 3.04959L28.9 3.49959L29.35 3.73959L29.8 3.68959L30.44 3.58959L30.35 3.75959L30.02 4.30959L29.74 4.87959L29.22 5.08959L29.05 5.60959L28.91 6.17959L28.79 6.76959L28.67 7.38959L28.58 8.00959L28.51 8.64959L28.46 9.30959L28.41 9.99959L28.39 10.6896L28.58 11.1896L28.87 11.7396L28.3 11.9496L27.68 12.1196L27.2 11.9796L27.01 12.3796L27.06 12.4496L27.49 12.8496L28.06 13.1296H28.13L28.68 13.0596L29.3 12.9396L29.96 12.6996L29.82 13.0596L29.32 13.7296L28.92 14.2796L28.47 14.7596L28.02 15.1396L27.52 15.4496L28.04 15.6396L28.32 15.6196L28.94 15.4496L29.44 15.1396L29.58 15.0196L30.15 14.4296L30.6 13.9296L30.93 13.4996L31.17 13.1396L31.41 12.8096L31.79 12.2396L32.05 11.8096L32.12 11.9296L32.5 12.4796L32.88 12.9296L32.64 12.8596H32.54L31.99 13.0496L31.75 12.9996L32.08 13.3996L32.46 13.9496L32.53 14.0196L32.91 14.5696L33.2 14.8996L33.72 15.3696L34.17 15.8396L34.48 16.0996H34.5L35.09 15.8896L35.3 15.2696L35.18 14.6296H35.23ZM33.26 5.60959L33.21 6.22959L33.16 6.84959L33.11 7.46959L33.09 8.08959L33.07 8.72959L33.05 9.39959L33.03 10.0396V10.6996V11.3896L32.72 11.3396L32.1 11.2496L32.08 11.1996L31.63 10.7996L31.06 10.6596L30.99 10.7296L30.59 11.0396L30.02 11.3296L29.26 11.5896L29.28 11.2996V11.1496L29.3 10.6796L29.32 9.96959L29.37 10.0196L29.87 10.3496H29.97L30.59 10.2796L30.45 10.3996L29.88 10.7796L29.53 11.1596L30.03 10.9196L30.1 10.8996L30.65 10.5696L31.17 10.2396L31.72 9.90959L32.27 9.54959H32.32L32.41 9.09959L32.2 8.85959L31.63 8.57959L31.35 8.67959L30.8 8.88959L30.18 9.12959L29.49 9.38959H29.39V9.10959V8.96959V8.34959V7.67959L29.56 7.91959L30.04 8.22959L30.54 8.08959L30.45 8.18959L30.02 8.68959L30 8.70959L29.57 9.11959H29.59L30.18 8.82959L30.63 8.51959L31.15 8.13959L31.65 7.75959L32.17 7.34959L32.5 7.10959L32.64 6.67959L32.4 6.41959L31.8 6.13959L31.4 6.32959L30.88 6.56959L30.26 6.87959L29.62 7.18959L29.41 7.11959V6.59959L29.93 6.28959L30.55 5.92959L31.17 5.61959L31.74 5.40959L32.31 5.21959L32.83 5.09959L33.33 5.04959L33.28 5.63959L33.26 5.60959Z" fill="white"/>
</svg>
