<svg width="77" height="15" viewBox="0 0 77 15" fill="none" xmlns="http://www.w3.org/2000/svg">
<path fill-rule="evenodd" clip-rule="evenodd" d="M11.08 8.91986V13.7599L10.85 14.2099H15.45L15.22 13.7599V0.559863L15.45 0.109863H0.790039L1.02003 0.559863V13.7599L0.790039 14.2099H5.39004L5.16004 13.7599V8.91986C5.16004 7.36986 6.36004 5.93986 8.14004 5.93986C9.81004 5.93986 11.08 7.30986 11.08 8.91986Z" fill="white"/>
<path d="M21.1901 1.89008H23.0501L23.8201 1.08008L24.8001 1.78008C24.9101 1.88008 24.9701 1.98008 24.9701 2.06008C24.9701 2.21008 24.8901 2.28008 24.7501 2.28008H23.7101V13.6001C23.7101 13.7401 23.6501 13.8401 23.5401 13.9101C23.3601 13.9501 23.1801 13.9801 22.9901 13.9801C22.7401 13.9801 22.6101 13.9101 22.6101 13.7701L22.6701 11.5301V10.4001C22.0101 10.7201 21.3001 11.0301 20.5301 11.3101L20.4001 11.7901C20.3701 11.9201 20.3201 11.9701 20.2001 11.9701C20.0801 11.9701 20.0001 11.9001 19.9801 11.7301L19.4901 10.4401C19.7801 10.4101 20.0801 10.3701 20.3601 10.3101V2.31008C20.1101 2.34008 19.8801 2.35008 19.6601 2.38008L19.3801 1.72008C19.9801 1.83008 20.5901 1.89008 21.1901 1.89008ZM22.6701 4.53008V2.29008H21.3501V4.53008H22.6701ZM22.6701 7.26008V4.91008H21.3501V7.26008H22.6701ZM22.6701 9.97008V7.64008H21.3501V10.1801C21.8001 10.1201 22.2301 10.0501 22.6701 9.97008ZM26.9301 1.74008C27.0701 1.80008 27.1501 1.87008 27.1501 1.95008C27.1501 2.09008 26.9401 2.19008 26.5501 2.23008C26.2001 2.72008 25.7501 3.28008 25.2001 3.91008C25.2601 3.97008 25.3301 4.02008 25.3801 4.05008C25.6301 4.27008 25.7701 4.48008 25.7701 4.68008C25.7701 5.09008 25.5901 5.28008 25.2201 5.28008C25.1201 5.28008 25.0401 5.20008 24.9701 5.01008C24.7201 4.51008 24.3801 4.00008 23.9601 3.47008L24.2401 3.32008C24.4801 3.46008 24.6901 3.59008 24.8601 3.68008C25.0301 3.26008 25.1501 2.92008 25.2701 2.66008C25.4501 2.17008 25.6101 1.69008 25.7201 1.23008L26.9301 1.73008V1.74008ZM27.8801 3.62008C28.0101 3.68008 28.0801 3.73008 28.0801 3.82008C28.0801 3.96008 27.9001 4.06008 27.5301 4.09008C27.0501 4.72008 26.4501 5.44008 25.7201 6.23008C25.8001 6.23008 25.8901 6.23008 25.9701 6.22008C26.4301 6.19008 26.8201 6.15008 27.1501 6.12008C27.0701 5.92008 26.9701 5.71008 26.8701 5.52008L27.1501 5.35008C27.4901 5.63008 27.7701 5.91008 27.9901 6.16008C28.1901 6.43008 28.3001 6.65008 28.3001 6.83008C28.3001 7.24008 28.1301 7.43008 27.8101 7.43008C27.6401 7.43008 27.5301 7.30008 27.4701 7.04008C27.4101 6.87008 27.3701 6.69008 27.3201 6.52008C27.0401 6.63008 26.7001 6.76008 26.3101 6.90008C25.7201 7.12008 25.2901 7.26008 25.0101 7.32008L24.8401 7.71008C24.7801 7.82008 24.7101 7.86008 24.6301 7.86008C24.5201 7.86008 24.4501 7.78008 24.4301 7.59008L24.0801 6.33008C24.4401 6.32008 24.8201 6.29008 25.2001 6.26008C25.5101 5.73008 25.7601 5.31008 25.9401 4.98008C26.2601 4.35008 26.5301 3.73008 26.7501 3.14008L27.8701 3.60008L27.8801 3.62008ZM25.4301 8.24008C25.6301 8.27008 25.7201 8.35008 25.7201 8.46008C25.7201 8.53008 25.6601 8.59008 25.5801 8.63008L25.4001 8.73008V10.5401H26.6601C26.6901 10.2601 26.7201 9.95008 26.7201 9.62008V9.34008C26.7201 9.07008 26.6801 8.51008 26.6101 7.64008L27.8601 7.82008C28.1101 7.85008 28.2501 7.95008 28.2501 8.09008C28.2501 8.22008 28.0801 8.34008 27.7601 8.47008V9.62008C27.7601 10.2101 27.6901 10.7301 27.5801 11.2001C27.4701 11.6301 27.3101 12.0101 27.0901 12.3201C26.8501 12.6601 26.5401 12.9401 26.1701 13.1901C25.7801 13.4601 25.2001 13.7101 24.4701 13.9501L24.3701 13.6101C24.8501 13.4001 25.2201 13.1801 25.4801 12.9201C25.7901 12.6701 26.0401 12.3701 26.2401 12.0401C26.3901 11.7701 26.5201 11.4201 26.6001 10.9901C26.6001 10.9601 26.6101 10.9501 26.6101 10.9301H25.4101V11.4801C25.4101 11.6201 25.3301 11.7301 25.1901 11.8201C25.0401 11.8901 24.9001 11.9201 24.7601 11.9201C24.5501 11.9201 24.4401 11.8401 24.4401 11.6401L24.4801 10.3401V9.46008C24.4801 8.68008 24.4401 8.23008 24.3801 8.10008L25.4401 8.25008L25.4301 8.24008ZM31.0901 1.80008C31.2301 1.86008 31.3101 1.93008 31.3101 2.01008C31.3101 2.15008 31.1001 2.25008 30.7101 2.29008C30.3501 2.78008 29.9001 3.35008 29.3401 4.01008C29.4101 4.07008 29.4801 4.12008 29.5501 4.16008C29.8001 4.36008 29.9401 4.55008 29.9401 4.73008C29.9401 5.14008 29.7601 5.33008 29.3901 5.33008C29.2901 5.33008 29.2101 5.25008 29.1201 5.08008C28.8701 4.60008 28.5501 4.13008 28.1301 3.64008L28.4101 3.47008C28.6301 3.60008 28.8301 3.71008 29.0001 3.79008C29.1801 3.34008 29.3201 2.99008 29.4301 2.71008C29.6001 2.22008 29.7501 1.74008 29.8801 1.28008L31.0901 1.78008V1.80008ZM32.2001 3.62008C32.3401 3.68008 32.4101 3.73008 32.4101 3.82008C32.4101 3.96008 32.2301 4.06008 31.8601 4.09008C31.3801 4.65008 30.7901 5.30008 30.0901 6.02008C30.1501 6.02008 30.1901 6.01008 30.2301 6.01008C30.7101 5.97008 31.1001 5.93008 31.4401 5.88008C31.3601 5.71008 31.2901 5.56008 31.2001 5.40008L31.4701 5.23008C31.8301 5.52008 32.1401 5.80008 32.3901 6.08008C32.6101 6.35008 32.7301 6.57008 32.7301 6.77008C32.7301 7.22008 32.5501 7.43008 32.1801 7.43008C32.0001 7.43008 31.8901 7.29008 31.8301 7.01008C31.7701 6.76008 31.6901 6.52008 31.5901 6.27008C31.3101 6.40008 30.9701 6.54008 30.5801 6.68008C30.0501 6.90008 29.6401 7.04008 29.3901 7.10008L29.2201 7.49008C29.1601 7.60008 29.0901 7.64008 29.0101 7.64008C28.9001 7.64008 28.8301 7.56008 28.8101 7.37008L28.4601 6.11008C28.8201 6.10008 29.1701 6.07008 29.5201 6.04008C29.8301 5.56008 30.0801 5.17008 30.2501 4.88008C30.5901 4.29008 30.8501 3.72008 31.0801 3.16008L32.1901 3.62008H32.2001ZM29.7701 7.95008C29.9901 7.98008 30.1101 8.06008 30.1101 8.19008C30.1101 8.29008 30.0501 8.36008 29.9401 8.40008L29.7201 8.53008V10.5501H31.0801V10.2801L31.0901 9.68008C31.0901 8.84008 31.0501 8.33008 30.9801 8.19008L32.1001 8.36008C32.3001 8.39008 32.4101 8.47008 32.4101 8.58008C32.4101 8.66008 32.3501 8.73008 32.2701 8.78008L32.0701 8.91008V11.4901C32.0701 11.6301 31.9901 11.7401 31.8501 11.8301C31.7001 11.9001 31.5601 11.9301 31.4301 11.9301C31.1801 11.9301 31.0501 11.8301 31.0401 11.6101L31.0701 10.9501H29.7201V13.4601C29.7201 13.6301 29.6201 13.7501 29.4501 13.8401C29.2801 13.9201 29.1101 13.9701 28.9601 13.9701C28.7501 13.9701 28.6401 13.8601 28.6201 13.6301L28.6801 12.2101V9.31008C28.6801 8.43008 28.6401 7.91008 28.5701 7.77008L29.7701 7.97008V7.95008Z" fill="white"/>
<path d="M36.3002 2.28992H37.6202L38.3902 1.45992L39.3702 2.16992C39.4802 2.24992 39.5402 2.34992 39.5402 2.43992C39.5402 2.58992 39.4602 2.65992 39.3202 2.65992H37.2502C36.9802 3.84992 36.7302 4.79992 36.4802 5.49992C36.4002 5.76992 36.3002 6.01992 36.2102 6.23992L36.5302 6.41992H37.5702L38.1702 5.81992L38.9802 6.44992C39.1202 6.54992 39.2002 6.62992 39.2002 6.69992C39.2002 6.79992 39.1402 6.86992 39.0602 6.90992L38.7102 7.07992V11.3499L38.7702 12.5599C38.7702 12.6599 38.7002 12.7399 38.5902 12.8099C38.4802 12.8899 38.3402 12.9399 38.1702 12.9399C37.8302 12.9399 37.6802 12.8399 37.6802 12.6699V11.9599H36.5302V12.8799C36.5302 13.0799 36.4302 13.1999 36.2402 13.2899C36.1002 13.3499 35.9302 13.3699 35.7602 13.3699C35.5502 13.3699 35.4402 13.2599 35.4402 13.0499C35.4402 12.7699 35.4502 12.3099 35.5002 11.6199V7.70992C35.4702 7.77992 35.4402 7.83992 35.4202 7.85992C35.0802 8.44992 34.7502 8.92992 34.4102 9.31992L34.2402 9.04992C34.4202 8.73992 34.6202 8.28992 34.8302 7.69992C35.1002 6.91992 35.3302 6.05992 35.5302 5.15992C35.7002 4.39992 35.8702 3.55992 36.0102 2.64992C35.6002 2.65992 35.2002 2.68992 34.7902 2.74992L34.5102 2.08992C35.1102 2.19992 35.7202 2.25992 36.3202 2.25992L36.3002 2.28992ZM37.6702 11.5899V6.82992H36.5202V11.5899H37.6702ZM42.9002 11.9099C43.0302 11.9899 43.1002 12.0899 43.1002 12.1899C43.1002 12.3199 42.8802 12.3899 42.4402 12.3999C41.7702 12.7799 41.0802 13.0999 40.3802 13.3699C39.9502 13.5199 39.2902 13.7199 38.3902 13.9399L38.2202 13.6599C39.0302 13.2699 39.6902 12.9199 40.2002 12.6099C40.8002 12.1899 41.3602 11.7399 41.9002 11.2499L42.9102 11.9099H42.9002ZM41.4902 1.83992H45.3302L46.1402 0.919922L47.2302 1.69992C47.3402 1.80992 47.4002 1.90992 47.4002 2.00992C47.4002 2.15992 47.3302 2.22992 47.1902 2.22992H43.8702C43.5602 2.89992 43.1802 3.55992 42.7502 4.18992H45.1002L45.7602 3.52992L46.5702 4.19992C46.7102 4.29992 46.7902 4.37992 46.7902 4.46992C46.7902 4.56992 46.7302 4.63992 46.6502 4.67992L46.3002 4.84992V9.77992L46.3602 10.9899C46.3602 11.0999 46.2902 11.1999 46.1802 11.2799C46.0702 11.3799 45.9302 11.4199 45.7602 11.4199C45.4002 11.4199 45.2102 11.3399 45.2102 11.1399V10.8199H41.2702V11.0399C41.2702 11.2099 41.1902 11.3199 41.0302 11.3799C40.8602 11.4899 40.6902 11.5299 40.5002 11.5299C40.2502 11.5299 40.1202 11.3999 40.1202 11.1399L40.1802 9.77992V4.52992C40.1802 4.04992 40.1402 3.72992 40.0702 3.58992L41.2802 4.18992H42.2902L42.6702 2.22992H41.4902C40.9902 2.22992 40.4702 2.26992 39.9602 2.32992L39.6802 1.68992C40.2802 1.79992 40.8902 1.83992 41.4902 1.83992ZM45.2202 6.21992V4.57992H41.2802V6.21992H45.2202ZM45.2202 8.23992V6.59992H41.2802V8.23992H45.2202ZM45.2202 10.4399V8.62992H41.2802V10.4399H45.2202ZM46.6502 12.2399C47.2202 12.5299 47.5202 12.8599 47.5202 13.2299C47.5202 13.5999 47.3102 13.8299 46.9202 13.8299C46.8102 13.8299 46.6702 13.7299 46.5002 13.5599C45.8602 12.9399 45.0002 12.3299 43.9602 11.6799L44.1302 11.4099C45.1802 11.6499 46.0202 11.9099 46.6502 12.2199V12.2399Z" fill="white"/>
<path d="M50.6502 5.13014V2.29014C50.6502 2.15014 50.6202 1.88014 50.5902 1.46014L51.8702 1.64014C52.1102 1.67014 52.2302 1.75014 52.2302 1.89014C52.2302 2.04014 52.0502 2.17014 51.6802 2.28014V5.12014H51.9602L52.6202 4.41014L53.5002 5.04014C53.6002 5.12014 53.6502 5.21014 53.6502 5.28014C53.6502 5.43014 53.5902 5.50014 53.4802 5.50014H51.6702V9.73014C51.8102 9.67014 51.9502 9.62014 52.0902 9.56014C52.6102 9.35014 53.0602 9.13014 53.4202 8.89014L53.4802 9.23014C53.1902 9.52014 52.8602 9.80014 52.5102 10.0701C52.1202 10.3801 51.6302 10.7001 51.0202 11.0401C50.6602 11.2401 50.3202 11.4001 50.0302 11.5301L49.8802 11.9101C49.8102 12.1101 49.7102 12.1901 49.6002 12.1901C49.5202 12.1801 49.4502 12.0901 49.4002 11.9201L49.0502 10.4801C49.4602 10.4401 49.9602 10.3301 50.5502 10.1401C50.5802 10.1401 50.6102 10.1301 50.6302 10.1101V5.50014C50.1502 5.51014 49.7102 5.56014 49.2602 5.61014L48.9902 4.95014C49.5402 5.06014 50.0802 5.12014 50.6302 5.12014L50.6502 5.13014ZM59.9502 4.47014L60.6602 3.70014L61.7502 4.40014C61.8902 4.50014 61.9702 4.60014 61.9702 4.68014C61.9702 4.79014 61.7302 4.95014 61.2602 5.13014C61.0402 7.65014 60.9002 9.07014 60.8302 9.38014C60.7202 9.67014 60.5502 9.87014 60.3302 9.98014C60.0902 10.1501 59.7702 10.2201 59.3502 10.2201C59.3102 9.72014 59.2202 9.44014 59.0802 9.35014L58.4202 9.01014L58.4802 8.69014L59.4602 8.90014C59.5702 8.90014 59.6702 8.87014 59.7502 8.80014C59.8302 8.74014 59.8902 8.62014 59.9302 8.42014C59.9902 8.20014 60.0702 7.02014 60.2102 4.88014L58.0802 5.57014V10.2801C58.0802 10.4501 57.9802 10.5701 57.8102 10.6601C57.6402 10.7401 57.4702 10.7701 57.3202 10.7701C57.0702 10.7701 56.9402 10.6401 56.9302 10.3901L56.9902 8.90014V5.92014L55.3502 6.45014V11.7501C55.3502 12.0401 55.5502 12.2301 55.9502 12.2801C56.3402 12.3601 57.1402 12.4101 58.3202 12.4101C59.5002 12.4101 60.1602 12.3701 60.4902 12.2701C60.7602 12.2101 60.9402 12.1001 61.0202 11.9301L61.5802 10.2201H61.8602V11.7501C61.8602 11.9201 61.9402 12.0601 62.1102 12.1701C62.2202 12.2801 62.2902 12.4401 62.2902 12.6301C62.2902 12.8101 62.1802 12.9501 61.9802 13.0501C61.7802 13.1801 61.4502 13.2701 60.9702 13.3401C60.3702 13.4001 59.5002 13.4401 58.3602 13.4401C57.0102 13.4401 56.0902 13.3801 55.5902 13.2901C55.1402 13.2301 54.7902 13.0901 54.5702 12.8601C54.3502 12.6201 54.2502 12.3101 54.2502 11.9201V6.82014L53.8402 6.95014L53.0402 7.33014L52.7602 6.56014L53.6402 6.52014L54.2402 6.32014V3.77014C54.2402 3.18014 54.2102 2.82014 54.1802 2.68014L55.5802 2.85014C55.7802 2.88014 55.8702 2.95014 55.8702 3.06014C55.8702 3.16014 55.8002 3.24014 55.6602 3.30014L55.3202 3.50014V5.99014L56.9602 5.47014V2.79014C56.9602 1.85014 56.9202 1.30014 56.8502 1.14014L58.1102 1.34014C58.3302 1.38014 58.4502 1.47014 58.4502 1.59014C58.4502 1.69014 58.3902 1.77014 58.2802 1.83014L58.0602 1.97014V5.12014L59.9702 4.52014L59.9302 4.49014L59.9502 4.47014Z" fill="white"/>
<path d="M66.04 7.15C66.04 8.87 65.84 10.27 65.45 11.35C65.11 12.33 64.62 13.17 64.01 13.89L63.8 13.67C64.11 13.08 64.37 12.38 64.58 11.53C64.82 10.55 64.94 9.09 64.94 7.16V6.5C64.94 6.08 64.9101 5.73 64.8801 5.46L65.94 6.12H74.73L75.61 5.14L76.73 5.97C76.84 6.08 76.91 6.18 76.91 6.29C76.91 6.43 76.81 6.5 76.64 6.5H66.0201V7.16L66.04 7.15ZM71.45 1.14C71.7 1.18 71.84 1.27 71.84 1.41C71.84 1.58 71.66 1.73 71.29 1.84V2.39H74.36L75.17 1.47L76.25 2.27C76.36 2.37 76.43 2.47 76.43 2.56C76.43 2.71 76.36 2.78 76.22 2.78H73.26L74.06 3.19C74.21 3.26 74.3 3.36 74.3 3.48C74.3 3.62 74.08 3.69 73.64 3.7C73.33 3.9 73.01 4.06 72.7 4.22C73.01 4.33 73.29 4.44 73.51 4.54C73.96 4.74 74.18 4.99 74.18 5.28C74.18 5.62 74.0001 5.78 73.6301 5.78C73.5501 5.78 73.34 5.7 73.03 5.5C72.62 5.25 72.1301 4.98 71.5701 4.72C70.9501 4.97 70.3 5.18 69.58 5.35C68.92 5.53 67.94 5.71 66.62 5.88L66.51 5.56C67.29 5.41 67.86 5.28 68.19 5.2C68.83 5.03 69.41 4.85 69.91 4.63C70.16 4.53 70.4 4.42 70.62 4.31C69.61 3.9 68.7 3.6 67.87 3.39L68.08 3.17C69.31 3.37 70.41 3.58 71.36 3.83C71.39 3.84 71.4301 3.86 71.4601 3.86C71.5701 3.79 71.68 3.72 71.8 3.65C72.22 3.37 72.58 3.08 72.89 2.8H66.61C66.09 2.8 65.59 2.84 65.08 2.9L64.8 2.26C65.4 2.37 66 2.41 66.61 2.41H70.17V1.81C70.17 1.68 70.14 1.42 70.11 1L71.41 1.17L71.45 1.14ZM69.14 7.35C69.29 7.41 69.3801 7.5 69.3801 7.64C69.3801 7.77 69.2 7.86 68.83 7.92C68.65 8.26 68.48 8.54 68.34 8.79H70.69V7.64C70.69 7.51 70.6601 7.25 70.6301 6.83L71.93 7C72.18 7.04 72.3201 7.13 72.3201 7.27C72.3201 7.44 72.14 7.59 71.7701 7.7V8.79H74.0701L74.84 7.92L75.8801 8.68C75.9901 8.78 76.05 8.88 76.05 8.96C76.05 9.11 75.97 9.18 75.83 9.18H71.78V10.82H73.81L74.5701 9.94L75.61 10.7C75.72 10.8 75.78 10.9 75.78 10.99C75.78 11.13 75.7101 11.2 75.5701 11.2H71.79V13.12H74.86L75.69 12.2L76.7701 12.98C76.88 13.08 76.94 13.18 76.94 13.29C76.94 13.43 76.87 13.5 76.73 13.5H67.64C67.14 13.5 66.62 13.53 66.11 13.61L65.83 12.95C66.43 13.06 67.04 13.12 67.64 13.12H70.7101V11.2H69.39C68.89 11.2 68.37 11.24 67.86 11.31L67.58 10.65C68.18 10.76 68.79 10.82 69.39 10.82H70.7101V9.18H68.12C67.95 9.43 67.8 9.64 67.66 9.84C67.37 10.2 66.9501 10.64 66.3801 11.14L66.11 10.99C66.56 10.32 66.8901 9.7 67.1301 9.14C67.4101 8.52 67.66 7.78 67.91 6.94L69.14 7.35Z" fill="white"/>
</svg>
