<svg width="727" height="447" viewBox="0 0 727 447" fill="none" xmlns="http://www.w3.org/2000/svg">
<path d="M484.576 67.8194L425.261 8.50473C420.116 3.35963 413.149 0.47998 405.879 0.47998H321.997C314.727 0.47998 307.76 3.3697 302.615 8.50473L243.3 67.8194C238.155 72.9645 235.275 79.932 235.275 87.2016V171.084C235.275 178.354 238.165 185.321 243.3 190.466L302.615 249.781C307.76 254.926 314.727 257.806 321.997 257.806H405.879C413.149 257.806 420.116 254.916 425.261 249.781L484.576 190.466C489.721 185.321 492.601 178.354 492.601 171.084V87.2016C492.601 79.932 489.711 72.9645 484.576 67.8194ZM481.183 149.265C481.183 167.479 473.943 184.938 461.076 197.816L432.622 226.27C419.744 239.148 402.274 246.378 384.07 246.378H343.826C325.611 246.378 308.152 239.138 295.274 226.27L266.82 197.816C253.942 184.938 246.713 167.469 246.713 149.265V109.02C246.713 90.8062 253.953 73.3471 266.82 60.4693L295.274 32.0151C308.152 19.1373 325.622 11.9079 343.826 11.9079H384.07C402.285 11.9079 419.744 19.1473 432.622 32.0151L461.076 60.4693C473.954 73.3471 481.183 90.8163 481.183 109.02V149.265Z" fill="#C9A063"/>
<path d="M411.94 85.6808C409.796 84.7142 406.594 82.8112 404.61 79.4583C402.355 75.6423 402.043 70.5576 403.684 64.3452L396.999 55.666H330.898L324.212 64.3452C325.853 70.5576 325.541 75.6423 323.286 79.4583C321.302 82.8213 318.09 84.7343 315.966 85.6909L303.078 78.6226L296.422 90.7453L312.009 99.3037L316.892 99.9783C318.1 99.6964 328.884 96.9477 335.056 86.7179C338.077 81.7137 339.396 75.9444 339.013 69.5004H388.873C388.49 75.9444 389.809 81.7137 392.83 86.7179C399.002 96.9477 409.786 99.6964 410.994 99.9783L415.877 99.3037L431.464 90.7453L424.808 78.6226L411.93 85.6909L411.94 85.6808Z" fill="#C9A063"/>
<path d="M326.89 132.269H402.335L405.678 131.403L420.529 123.187L413.833 111.084L400.543 118.435H328.34L313.197 111.819L307.659 124.496L324.121 131.695L326.89 132.269Z" fill="#C9A063"/>
<path d="M409.141 152.155H320.074L302.373 145.802L297.701 158.82L316.529 165.587L316.781 165.627V200.303L323.698 207.221H404.188L411.105 200.303V165.889L413.501 165.365L430.497 157.632L424.768 145.046L409.141 152.165V152.155ZM330.616 193.386V165.989H397.28V193.386H330.616Z" fill="#C9A063"/>
<path d="M23.7017 417.757C22.2921 414.434 17.9021 406.399 17.3987 405.493L17.0463 404.848L15.5662 405.735V401.083H21.9195V395.837H15.5662V379.808H10.3506V395.837H3.4737V401.083H7.19911C6.91719 408.262 5.22565 417.162 1.28879 419.629L0.714874 419.992L3.3126 424.503L3.93686 424.11C6.77623 422.338 8.92086 419.005 10.3506 414.182V444.892H15.5662V412.913C16.8751 415.39 18.3754 418.31 19.0399 419.861L19.3218 420.535L23.9736 418.391L23.7017 417.757Z" fill="white"/>
<path d="M53.2735 392.535V388.829H60.9559V383.413H53.2735V379.798H47.7256V383.413H37.4958V379.798H31.948V383.413H24.5475V388.829H31.948V392.535H37.4958V388.829H47.7256V392.535H53.2735Z" fill="white"/>
<path d="M56.0927 416.307V411.998H64.6913V406.591H56.0927V402.483H50.8469V406.591H45.4601V400.237H60.9559V394.82H24.5475V400.237H40.0432V406.591H35.0491V402.483H29.7933V406.591H20.812V411.998H29.7933V416.307H35.0491V411.998H40.0432V419.277H23.3996V424.694H40.0432V428.651H26.4102V434.068H40.0432V446.11H45.4601V434.068H59.0932V428.651H45.4601V424.694H62.1037V419.277H45.4601V411.998H50.8469V416.307H56.0927Z" fill="white"/>
<path d="M139.492 385.436L137.82 374.814L124.278 377.059V344.406H138.968V333.653H124.278V302.007H113.766V333.653H96.4581V344.406H113.766V378.801L95.5217 381.831L97.1931 392.454L113.766 389.705V421.391C113.766 421.462 113.897 428.037 110.443 431.581C108.752 433.323 106.386 434.098 103.134 433.987L102.409 433.967L102.358 444.72L103.043 444.741C103.355 444.751 103.667 444.751 103.979 444.751C109.708 444.751 114.28 442.908 117.945 439.112C124.298 432.537 124.338 422.952 124.288 421.119V387.963L139.502 385.436H139.492Z" fill="white"/>
<path d="M232.677 349.42C212.137 342.15 201.787 307.625 201.676 307.273L200.558 303.426H170.544L169.496 307.424C169.406 307.746 160.666 339.825 139.693 349.118L139.059 349.4L143.207 359.287L143.872 358.995C164.673 349.783 174.883 324.983 178.447 314.2H192.866C196.923 325.749 208.291 352.189 229.244 359.6L229.919 359.841L233.332 349.662L232.677 349.43V349.42Z" fill="white"/>
<path d="M211.684 356.509H158.753V367.262H211.684V356.509Z" fill="white"/>
<path d="M152.178 443.372H219.256V381.922H152.178V443.372ZM162.69 432.598V392.686H208.744V432.598H162.69Z" fill="white"/>
<path d="M337.583 372.336V314.28H317.365L320.789 300.255L310.609 297.536L306.521 314.28H290.25V372.336H330.948H337.583ZM327.071 361.422H300.752V349.239H327.071V361.422ZM327.071 338.314H300.752V325.205H327.071V338.314Z" fill="white"/>
<path d="M288.81 402.422C288.81 402.422 285.87 407.446 279.195 413.397C272.992 418.925 262.159 426.456 245.797 430.926L245.132 431.108L247.78 441.68L248.475 441.488C284.128 431.732 297.328 408.916 297.872 407.95L298.204 407.356L289.173 401.788L288.81 402.422Z" fill="white"/>
<path d="M383.124 431.067C358.244 421.895 344.994 403.388 339.959 394.79H381.201V383.865H319.721V376.404H309.21V383.865H246.421V394.79H309.21V420.767C309.21 420.767 309.149 424.613 307.729 428.228C305.766 433.192 302.806 433.826 300.45 433.826H299.745V444.751H300.45C308.374 444.751 314.455 440.24 317.577 432.064C319.59 426.778 319.721 421.764 319.731 420.807V394.79H327.988C330.193 399.744 344.228 428.308 379.62 441.357L380.305 441.609L383.778 431.299L383.134 431.057L383.124 431.067Z" fill="white"/>
<path d="M282.376 325.598L249.079 308.592V320.725L282.376 337.64V325.598Z" fill="white"/>
<path d="M282.376 346.803L249.079 357.184V368.571L282.376 358.201V346.803Z" fill="white"/>
<path d="M378.825 308.592L345.447 325.638V337.872L378.825 320.725V308.592Z" fill="white"/>
<path d="M378.825 357.184L345.447 346.783V358.18L378.825 368.571V357.184Z" fill="white"/>
<path d="M8.19592 335.626V362.56H13.5827V360.586H25.1717V324.107H13.1396C14.358 318.429 14.5895 312.72 14.6197 310.263H25.2624V304.705H4.61146V310.263H9.24306C9.16251 316.455 7.98447 328.095 3.97713 332.132C3.07095 333.048 1.84257 333.461 0.704809 333.401L0 333.371V338.908L0.704809 338.939C3.36294 339.049 5.73916 338.113 7.74283 336.099C7.89386 335.948 8.04489 335.787 8.19592 335.616V335.626ZM19.785 329.655V355.028H13.5827V329.655H19.785Z" fill="white"/>
<path d="M40.7782 314.542H30.0248V353.286H59.506V314.542H46.3361L47.5242 309.719H62.0936V304.161H28.6958V309.719H41.9663L40.7782 314.542ZM35.4015 325.336V320.1H54.1092V325.336H35.4015ZM35.4015 335.575V330.883H54.1092V335.575H35.4015ZM35.4015 347.728V341.133H54.1092V347.728H35.4015Z" fill="white"/>
<path d="M61.6607 363.436C57.8648 361.734 56.4048 358.502 55.8611 356.669H50.3133C50.716 358.784 52.478 365.379 59.516 368.53L60.1806 368.822L62.2849 363.718L61.6607 363.436Z" fill="white"/>
<path d="M34.4954 356.68C33.9617 358.502 32.5219 361.734 28.6958 363.446L28.0715 363.728L30.1759 368.833L30.8404 368.541C37.8684 365.389 39.6405 358.804 40.0432 356.68H34.5054H34.4954Z" fill="white"/>
<path d="M449.879 341.647C448.52 342.392 445.338 343.248 441.281 343.248C429.641 343.248 423.64 335.193 423.64 324.581C423.64 311.884 431.856 304.856 442.006 304.856C445.963 304.856 448.963 305.712 450.282 306.507L448.731 313.163C447.221 312.428 445.056 311.763 442.348 311.763C436.347 311.763 431.645 315.811 431.645 324.087C431.645 331.558 435.622 336.24 442.388 336.24C444.714 336.24 447.241 335.737 448.742 335.032L449.879 341.637V341.647Z" fill="#C9A063"/>
<path d="M489.137 323.675C489.137 335.888 482.482 343.268 472.645 343.268C462.807 343.268 456.807 334.911 456.807 324.299C456.807 313.686 463.271 304.816 473.168 304.816C483.066 304.816 489.127 313.364 489.127 323.665L489.137 323.675ZM464.851 324.148C464.851 331.448 467.953 336.583 473.027 336.583C478.102 336.583 481.102 331.206 481.102 323.967C481.102 317.251 478.233 311.522 473.007 311.522C467.781 311.522 464.851 316.908 464.851 324.148Z" fill="#C9A063"/>
<path d="M506.697 305.43V326.846C506.697 333.28 508.932 336.562 512.789 336.562C516.645 336.562 518.981 333.441 518.981 326.846V305.43H526.583V326.322C526.583 337.811 521.337 343.268 512.537 343.268C503.737 343.268 499.095 338.052 499.095 326.222V305.43H506.697Z" fill="#C9A063"/>
<path d="M538.151 342.664V305.43H547.012L553.99 319.093C556.003 323 557.967 327.661 559.487 331.86L559.618 331.84C559.155 326.916 559.004 321.912 559.004 316.284V305.43H565.981V342.664H558.017L550.808 328.326C548.804 324.308 546.599 319.536 544.968 315.166L544.797 315.186C545.028 320.12 545.129 325.386 545.129 331.467V342.664H538.151Z" fill="#C9A063"/>
<path d="M584.045 312.498H574.973V305.43H600.849V312.498H591.647V342.664H584.045V312.498Z" fill="#C9A063"/>
<path d="M609.881 305.43H617.483V335.606H630.864V342.664H609.881V305.43Z" fill="#C9A063"/>
<path d="M660.335 326.916H647.961V335.767H661.795V342.664H640.359V305.43H661.07V312.327H647.961V320.08H660.335V326.916Z" fill="#C9A063"/>
<path d="M672.236 333.974C674.25 335.173 677.412 336.31 680.664 336.31C684.158 336.31 686.01 334.709 686.01 332.253C686.01 329.967 684.409 328.618 680.382 327.047C674.774 324.842 671.109 321.459 671.109 316.022C671.109 309.669 675.922 304.846 683.825 304.846C687.662 304.846 690.431 305.691 692.414 306.718L690.733 313.475C689.404 312.77 686.977 311.702 683.715 311.702C680.452 311.702 678.821 313.404 678.821 315.307C678.821 317.673 680.684 318.72 685.044 320.543C690.994 323.01 693.753 326.433 693.753 331.689C693.753 337.901 689.454 343.238 680.201 343.238C676.395 343.238 672.579 342.09 670.706 340.922L672.246 333.964L672.236 333.974Z" fill="#C9A063"/>
<path d="M704.154 333.974C706.168 335.173 709.329 336.31 712.582 336.31C716.075 336.31 717.928 334.709 717.928 332.253C717.928 329.967 716.327 328.618 712.3 327.047C706.691 324.842 703.026 321.459 703.026 316.022C703.026 309.669 707.839 304.846 715.743 304.846C719.579 304.846 722.348 305.691 724.332 306.718L722.65 313.475C721.321 312.77 718.895 311.702 715.632 311.702C712.37 311.702 710.739 313.404 710.739 315.307C710.739 317.673 712.602 318.72 716.961 320.543C722.912 323.01 725.671 326.433 725.671 331.689C725.671 337.901 721.372 343.238 712.118 343.238C708.312 343.238 704.496 342.09 702.624 340.922L704.164 333.964L704.154 333.974Z" fill="#C9A063"/>
<path d="M425.221 362.771C427.557 362.338 430.849 361.986 435.481 361.986C440.113 361.986 443.516 362.993 445.771 364.996C447.926 366.849 449.336 369.95 449.336 373.605C449.336 377.26 448.268 380.361 446.265 382.425C443.667 385.124 439.79 386.372 435.34 386.372C434.333 386.372 433.437 386.302 432.742 386.181V399.512H425.211V362.771H425.221ZM432.752 379.656C433.387 379.817 434.172 379.878 435.28 379.878C439.317 379.878 441.814 377.612 441.814 373.837C441.814 370.413 439.7 368.369 435.864 368.369C434.363 368.369 433.316 368.51 432.763 368.651V379.656H432.752Z" fill="#C9A063"/>
<path d="M459.183 362.278H466.785V392.454H480.166V399.512H459.183V362.278Z" fill="#C9A063"/>
<path d="M509.637 383.764H497.263V392.615H511.097V399.512H489.661V362.278H510.372V369.175H497.263V376.928H509.637V383.764Z" fill="#C9A063"/>
<path d="M529.08 389.947L526.703 399.512H518.84L529.1 362.278H539.048L549.519 399.512H541.333L538.746 389.947H529.08ZM537.628 383.674L535.534 375.76C534.96 373.555 534.356 370.766 533.842 368.591H533.741C533.248 370.786 532.745 373.605 532.201 375.77L530.187 383.674H537.628Z" fill="#C9A063"/>
<path d="M559.245 390.823C561.259 392.021 564.421 393.159 567.673 393.159C571.167 393.159 573.019 391.558 573.019 389.101C573.019 386.816 571.419 385.467 567.391 383.896C561.783 381.691 558.118 378.308 558.118 372.871C558.118 366.517 562.931 361.694 570.835 361.694C574.671 361.694 577.44 362.54 579.423 363.567L577.742 370.323C576.413 369.618 573.986 368.551 570.724 368.551C567.462 368.551 565.83 370.253 565.83 372.156C565.83 374.522 567.693 375.569 572.053 377.391C578.003 379.858 580.762 383.282 580.762 388.537C580.762 394.75 576.463 400.086 567.21 400.086C563.404 400.086 559.588 398.938 557.715 397.77L559.256 390.813L559.245 390.823Z" fill="#C9A063"/>
<path d="M598.483 362.278V383.694C598.483 390.128 600.718 393.41 604.575 393.41C608.431 393.41 610.767 390.289 610.767 383.694V362.278H618.369V383.17C618.369 394.659 613.123 400.116 604.323 400.116C595.523 400.116 590.881 394.9 590.881 383.07V362.278H598.483Z" fill="#C9A063"/>
<path d="M629.938 362.781C632.374 362.328 635.999 361.986 640.037 361.986C645.021 361.986 648.514 362.832 650.921 364.936C652.925 366.698 654.032 369.316 654.032 372.739C654.032 377.451 650.991 380.744 648.092 381.892V382.063C650.428 383.11 651.736 385.577 652.582 389C653.619 393.209 654.636 398.062 655.291 399.512H647.508C646.994 398.435 646.148 395.444 645.192 390.833C644.255 386.181 642.846 384.932 639.714 384.892H637.449V399.512H629.918V362.781H629.938ZM637.469 378.801H640.449C644.225 378.801 646.481 376.676 646.481 373.434C646.481 370.021 644.376 368.279 640.903 368.259C639.08 368.259 638.013 368.39 637.479 368.541V378.801H637.469Z" fill="#C9A063"/>
<path d="M684.48 383.764H672.105V392.615H685.94V399.512H664.504V362.278H685.215V369.175H672.105V376.928H684.48V383.764Z" fill="#C9A063"/>
<path d="M430.094 434.883C430.839 434.883 430.97 434.883 431.282 434.833C431.252 435.135 431.232 435.266 431.202 435.558C431.021 437.853 430.668 439.263 429.923 440.854C430.507 441.418 431.051 441.8 431.695 442.062C432.44 442.374 433.165 442.505 434.625 442.606C435.058 442.636 435.632 442.656 435.884 442.656C437.898 442.656 439.952 442.576 441.522 442.445C441.24 443.19 441.19 443.401 441.079 444.277C439.529 444.308 437.938 444.328 436.136 444.328C432.491 444.328 430.789 443.814 429.138 442.243C428.413 443.331 427.96 443.865 427.023 444.71C426.681 444.116 426.399 443.754 425.845 443.19C426.872 442.314 427.366 441.78 427.98 440.854C427.688 440.421 427.466 440.048 427.184 439.485C427.154 439.414 427.003 439.152 426.802 438.74C426.721 438.589 426.6 438.327 426.439 438.015L427.909 437.239C428.262 438.266 428.423 438.679 428.785 439.324C429.168 438.377 429.329 437.753 429.51 436.444H427.94C427.476 436.444 426.993 436.464 426.6 436.494C427.285 435.38 427.758 434.568 428.02 434.058C428.634 432.9 428.765 432.588 429.067 431.772H427.416C426.973 431.772 426.691 431.792 426.288 431.853V430.101C426.671 430.171 426.983 430.181 427.466 430.181H429.218C429.843 430.181 430.125 430.161 430.406 430.111L431.202 431.188C431.071 431.369 431.051 431.399 430.789 432.034C430.457 432.809 429.712 434.249 429.329 434.883H430.094ZM434.897 431.802H432.964C432.521 431.802 432.138 431.822 431.786 431.873V430.403C432.199 430.453 432.481 430.473 433.065 430.473H434.897C434.897 429.94 434.877 429.758 434.817 429.386H436.639C436.589 429.698 436.558 429.919 436.558 430.473H438.995C439.509 430.473 439.891 430.453 440.254 430.423C440.223 430.735 440.203 431.047 440.203 431.47V432.678C440.737 432.678 441.009 432.658 441.381 432.578V434.118C441.019 434.048 440.737 434.037 440.203 434.037V435.296C440.203 435.679 440.223 436.041 440.254 436.293C439.821 436.273 439.529 436.263 439.096 436.263H436.568V437.209H439.136C439.72 437.209 440.062 437.189 440.526 437.139V438.578C440.133 438.528 439.72 438.508 439.116 438.508H436.568V439.485H439.71C440.405 439.485 440.767 439.464 441.18 439.404V440.955C440.787 440.904 440.324 440.884 439.71 440.884H436.568C436.568 441.629 436.589 441.881 436.649 442.274H434.827C434.897 441.841 434.907 441.529 434.907 440.884H432.521C431.826 440.884 431.514 440.904 431.101 440.955V439.404C431.484 439.475 431.927 439.485 432.541 439.485H434.907V438.508H432.934C432.44 438.508 432.028 438.528 431.615 438.589V437.129C432.048 437.179 432.39 437.199 432.934 437.199H434.907V436.253H432.893C432.45 436.253 432.199 436.273 431.836 436.303V434.863C432.179 434.913 432.43 434.934 432.994 434.934H434.917V434.037H432.37C431.655 434.037 431.363 434.058 430.95 434.108V432.598C431.363 432.668 431.595 432.678 432.44 432.678H434.927V431.822L434.897 431.802ZM438.562 432.668V431.812H436.548V432.668H438.562ZM436.548 434.913H438.562V434.017H436.548V434.913Z" fill="white"/>
<path d="M457.511 433.525C458.045 433.525 458.458 433.505 458.82 433.454C458.77 433.887 458.75 434.3 458.75 434.975V436.666C458.75 436.928 458.8 436.968 459.132 436.968C459.465 436.968 459.525 436.938 459.596 436.797C459.646 436.646 459.716 436.002 459.716 435.428L459.696 435.247C459.696 435.159 459.703 435.075 459.716 434.995C460.23 435.277 460.623 435.458 461.136 435.609C461.066 438.106 460.824 438.459 459.122 438.459C458.327 438.459 457.914 438.408 457.632 438.257C457.28 438.076 457.189 437.844 457.189 437.26V434.955H454.692C454.672 435.398 454.672 435.569 454.622 435.881L455.578 435.206C456.253 436.012 456.535 436.384 457.038 437.14L455.86 438.015C455.397 437.14 455.065 436.656 454.571 436.113C454.37 437.019 454.088 437.572 453.444 438.247H454.34C454.289 438.559 454.269 438.781 454.269 439.274H459.002C459.857 439.274 460.441 439.244 460.985 439.173V440.875C460.401 440.805 459.797 440.774 459.002 440.774H455.729C457.3 441.832 459.022 442.476 461.307 442.879C460.814 443.573 460.663 443.855 460.351 444.631C457.652 443.855 455.739 442.848 454.229 441.419C454.249 441.65 454.259 442.013 454.279 442.476V443.292C454.279 444.057 454.299 444.399 454.38 444.782H452.376C452.457 444.339 452.477 443.976 452.477 443.292V442.496C452.477 442.244 452.477 442.083 452.527 441.439C451.672 442.234 450.957 442.728 449.849 443.312C448.802 443.855 448.057 444.137 446.637 444.57C446.305 443.805 446.144 443.543 445.63 442.879C447.896 442.436 449.416 441.852 451.138 440.774H448.097C447.302 440.774 446.728 440.805 446.124 440.875V439.173C446.567 439.244 447.261 439.274 448.077 439.274H452.477V438.892C452.225 438.539 451.752 438.116 451.289 437.764C451.732 437.532 451.913 437.421 452.195 437.18C451.198 437.532 450.655 437.693 449.396 438.005C448.621 438.207 448.168 438.308 447.342 438.469C446.966 438.549 446.674 438.61 446.466 438.65L446.104 436.999C446.879 436.968 447.433 436.878 448.701 436.666V435.126H448.007C447.342 435.126 447.08 435.146 446.647 435.196V433.646C446.879 433.676 446.949 433.676 447.11 433.696C446.778 433.344 446.677 433.263 445.852 432.699C447.241 431.572 447.956 430.635 448.379 429.286L450.161 429.618C450.161 429.618 449.96 429.961 449.648 430.565H451.782C452.578 430.565 453.011 430.545 453.403 430.464V431.803C454.048 431.058 454.541 430.081 454.722 429.276L456.474 429.608C456.404 429.729 456.263 430.051 456.031 430.585H459.223C460.099 430.585 460.482 430.565 461.025 430.484V432.176C460.512 432.105 460.029 432.095 459.304 432.095H458.075C458.277 432.377 458.287 432.407 458.639 432.991L457.35 433.525H457.501H457.511ZM452.235 437.15C452.91 436.535 453.142 435.81 453.142 434.421C453.142 434.008 453.121 433.756 453.091 433.475C453.343 433.505 453.454 433.505 453.887 433.525C453.585 433.193 453.121 432.81 452.678 432.518C452.89 432.337 452.98 432.256 453.111 432.135C452.809 432.105 452.497 432.085 452.185 432.085H451.279C451.531 432.478 451.611 432.619 451.893 433.142L450.302 433.575C450.091 432.991 449.99 432.78 449.577 432.085H448.731C448.218 432.78 447.876 433.193 447.322 433.706C447.604 433.726 447.684 433.726 447.996 433.726H450.937C451.712 433.726 451.893 433.706 452.296 433.656V435.206C451.883 435.156 451.571 435.136 451.067 435.136H450.322V436.344C451.037 436.183 451.319 436.113 452.145 435.861L452.225 437.14L452.235 437.15ZM454.37 433.525H457.068C456.897 433.112 456.706 432.699 456.343 432.105H455.216C454.833 432.649 454.501 433.052 454.038 433.525H454.37Z" fill="white"/>
<path d="M467.097 443.996C467.077 443.825 467.077 443.734 467.016 443.352C466.704 441.419 466.573 439.828 466.573 438.086C466.573 436.596 466.674 435.146 466.885 433.706C466.939 433.377 467.087 432.588 467.328 431.34C467.449 430.756 467.51 430.283 467.51 430.112V430.041L469.745 430.273C469.07 431.712 468.436 435.7 468.426 438.579C468.412 438.975 468.406 439.261 468.406 439.435V439.697C468.406 439.828 468.406 439.858 468.386 440.049H468.406C468.459 439.928 468.527 439.767 468.607 439.566C468.637 439.445 468.728 439.264 468.808 439.002C468.909 438.774 469.013 438.526 469.121 438.257C469.121 438.257 469.171 438.156 469.322 437.744L470.691 438.358C469.715 440.281 469.05 442.325 469.05 443.422C469.05 443.543 469.05 443.553 469.08 443.865L467.097 443.986V443.996ZM470.842 433.162C471.618 433.364 472.484 433.424 473.833 433.424C474.417 433.424 474.779 433.424 475.353 433.394C475.353 432.417 475.333 431.592 475.333 430.917C475.333 430.555 475.313 430.303 475.283 430.122L477.347 430.071C477.266 430.534 477.226 431.33 477.226 432.508V433.273C478.082 433.172 478.817 433.041 479.461 432.88C479.528 432.86 479.649 432.817 479.824 432.749L479.955 432.719L480.025 434.592C479.864 434.612 479.844 434.612 479.542 434.673C478.978 434.793 478.122 434.934 477.246 435.035V435.398C477.246 436.324 477.246 436.354 477.407 439.133C478.595 439.697 479.008 439.928 480.005 440.643C480.216 440.794 480.307 440.845 480.468 440.925L479.673 442.929C479.391 442.597 478.897 442.164 478.434 441.872C477.87 441.509 477.488 441.258 477.387 441.197V441.429C477.387 441.791 477.337 442.123 477.256 442.355C476.874 443.332 475.716 443.906 474.115 443.906C471.95 443.906 470.621 442.879 470.621 441.187C470.621 439.496 472.03 438.458 474.024 438.458C474.638 438.458 475.051 438.529 475.494 438.69C475.444 438.277 475.424 437.462 475.363 435.166C474.699 435.186 474.306 435.196 473.873 435.196C473.259 435.196 472.594 435.176 471.819 435.116C471.587 435.116 471.406 435.095 471.326 435.095C471.175 435.075 471.074 435.075 471.044 435.075C470.963 435.055 470.913 435.055 470.883 435.055C470.863 435.055 470.832 435.055 470.782 435.075L470.812 433.172L470.842 433.162ZM474.195 440.09C473.138 440.09 472.473 440.502 472.473 441.177C472.473 441.791 473.068 442.204 473.994 442.204C474.608 442.204 475.081 442.023 475.333 441.691C475.484 441.489 475.544 441.247 475.544 440.794V440.351C475.001 440.15 474.689 440.09 474.185 440.09H474.195Z" fill="white"/>
<path d="M493.809 436.706C494.524 438.247 495.068 439.173 495.843 439.999C496.668 440.895 497.726 441.65 498.873 442.163C499.387 442.415 499.719 442.506 500.474 442.707C499.931 443.402 499.699 443.764 499.367 444.54C496.175 443.281 494.141 441.348 492.701 438.247C492.168 439.767 491.463 440.895 490.315 441.972C489.157 443.059 488.019 443.744 486.116 444.489C485.764 443.714 485.492 443.261 485.039 442.788C487.254 442.073 488.563 441.267 489.671 439.958C490.476 439.002 490.949 438.035 491.262 436.696H488.05C487.305 436.696 486.63 436.726 485.965 436.797V434.974C486.549 435.045 487.204 435.075 488.03 435.075H491.503C491.57 434.35 491.611 433.383 491.624 432.175H487.516C486.66 432.175 485.976 432.205 485.381 432.276V430.393C485.925 430.474 486.69 430.514 487.516 430.514H497.957C498.763 430.514 499.508 430.484 500.112 430.393V432.276C499.488 432.205 498.823 432.175 497.977 432.175H493.497C493.467 433.927 493.467 434.209 493.376 435.075H497.414C498.229 435.075 498.904 435.045 499.528 434.974V436.797C498.853 436.726 498.209 436.696 497.424 436.696H493.799L493.809 436.706Z" fill="white"/>
<path d="M510.14 429.789C510.211 430.897 510.704 433.283 511.228 434.964C511.946 434.703 513.376 434.216 515.517 433.504C515.809 433.404 515.9 433.374 516.141 433.253L516.856 435.337C515.416 435.619 513.252 436.243 511.399 436.928C508.983 437.824 507.774 438.881 507.774 440.069C507.774 441.257 508.902 441.791 511.56 441.791C513.624 441.791 515.668 441.539 516.907 441.116L517.088 443.382C516.725 443.382 516.645 443.402 515.749 443.503C513.967 443.684 513.03 443.754 511.872 443.754C509.577 443.754 508.137 443.472 507.07 442.848C506.163 442.304 505.63 441.277 505.63 440.079C505.63 438.972 506.163 437.914 507.1 437.119C507.744 436.575 508.278 436.243 509.355 435.699C508.942 434.36 508.66 433.253 508.248 431.219C508.086 430.423 508.066 430.393 507.986 430.141L510.14 429.789Z" fill="white"/>
<path d="M524.408 431.541C524.408 430.685 524.378 430.152 524.307 429.638H526.21C526.13 430.172 526.109 430.635 526.109 431.561V433.676H526.472C527.086 433.676 527.318 433.656 527.579 433.605V435.347C527.237 435.297 526.935 435.277 526.422 435.277H526.109V439.777C526.754 439.485 526.935 439.395 527.68 439.012L527.73 440.764C526.22 441.58 525.334 441.972 523.643 442.597C523.179 442.778 523.028 442.848 522.787 442.959L522.444 441.056C522.938 440.986 523.421 440.845 524.418 440.462V435.267H524.035C523.411 435.267 523.139 435.287 522.746 435.347V433.575C523.109 433.646 523.391 433.656 524.035 433.656H524.418V431.521L524.408 431.541ZM530.348 442.083C530.348 442.415 530.469 442.526 530.832 442.597C531.265 442.677 531.879 442.717 533.087 442.717C535.06 442.717 535.584 442.637 535.836 442.284C536.037 442.003 536.138 441.439 536.138 440.311C536.671 440.543 537.376 440.754 537.94 440.855C537.739 444.167 537.396 444.399 532.674 444.399C529.331 444.399 528.606 444.087 528.606 442.627V436.938C528.455 436.988 528.345 437.019 528.274 437.039C527.781 437.2 527.6 437.27 527.267 437.421L526.854 435.619C527.318 435.549 527.902 435.438 528.455 435.257L528.606 435.206V432.941C528.606 432.145 528.586 431.732 528.506 431.189H530.459C530.389 431.722 530.358 432.196 530.358 432.88V434.683L531.959 434.169V431.289C531.959 430.524 531.939 430.182 531.879 429.638H533.802C533.731 430.182 533.701 430.716 533.701 431.33V433.646L536.087 432.9C536.732 432.699 536.994 432.598 537.447 432.407C537.417 433.132 537.396 433.253 537.366 434.149C537.286 436.485 537.165 437.985 537.004 438.7C536.792 439.646 536.339 439.928 535.131 439.928C534.919 439.928 534.768 439.928 534.356 439.898C534.275 439.183 534.154 438.71 533.913 438.197C534.295 438.277 534.587 438.327 534.839 438.327C535.252 438.327 535.352 438.257 535.423 437.915C535.504 437.371 535.574 436.344 535.624 434.733L533.721 435.327V439.445C533.721 440.12 533.752 440.583 533.822 441.096H531.899C531.969 440.532 531.979 440.17 531.979 439.395V435.891L530.379 436.404V442.113L530.348 442.083Z" fill="white"/>
<path d="M549.298 439.536C548.351 441.67 547.294 442.647 545.935 442.647C544.052 442.647 542.693 440.724 542.693 438.066C542.693 436.243 543.337 434.542 544.515 433.253C545.904 431.732 547.858 430.937 550.204 430.937C554.171 430.937 556.759 433.354 556.759 437.079C556.759 439.938 555.268 442.224 552.741 443.251C551.946 443.583 551.301 443.744 550.143 443.946C549.861 443.07 549.66 442.707 549.136 442.013C550.657 441.811 551.654 441.549 552.429 441.106C553.869 440.311 554.725 438.74 554.725 436.968C554.725 435.377 554.01 434.089 552.691 433.293C552.177 432.991 551.744 432.86 551.019 432.8C550.707 435.397 550.123 437.683 549.298 439.556V439.536ZM546.861 433.605C545.471 434.602 544.606 436.304 544.606 438.076C544.606 439.435 545.19 440.512 545.914 440.512C546.458 440.512 547.022 439.818 547.616 438.398C548.24 436.908 548.794 434.673 548.985 432.81C548.13 432.91 547.525 433.142 546.851 433.625L546.861 433.605Z" fill="white"/>
<path d="M563.726 437.723C563.051 437.723 562.518 437.754 561.974 437.824V436.123C562.488 436.193 563.021 436.223 563.726 436.223H568.297V435.166H564.743C564.099 435.166 563.736 435.186 563.273 435.247V433.646C563.716 433.716 564.048 433.726 564.743 433.726H568.297V432.699H564.33C563.585 432.699 563.041 432.729 562.558 432.78V431.128C563.092 431.199 563.605 431.229 564.33 431.229H566.263C565.881 430.605 565.639 430.283 565.287 429.91L566.958 429.326C567.492 430.041 567.854 430.615 568.186 431.229H570.291C570.724 430.665 571.056 430.101 571.368 429.407L573.17 429.87C572.889 430.333 572.576 430.766 572.214 431.229H574.268C575.043 431.229 575.547 431.199 576.04 431.128V432.78C575.547 432.729 575.013 432.699 574.268 432.699H570.1V433.726H573.835C574.53 433.726 574.862 433.706 575.325 433.646V435.247C574.862 435.176 574.5 435.166 573.835 435.166H570.1V436.223H574.852C575.627 436.223 576.131 436.193 576.624 436.123V437.824C576.131 437.744 575.668 437.723 574.852 437.723H570.069C570.056 437.791 570.039 437.955 570.019 438.217C570.019 438.217 569.989 438.448 569.918 438.861H574.651C575.446 438.861 575.889 438.841 576.423 438.781V440.482C575.859 440.412 575.265 440.382 574.52 440.382H570.784C571.479 441.177 572.355 441.791 573.432 442.214C574.489 442.627 575.365 442.808 576.876 442.909C576.443 443.684 576.312 444.037 576.131 444.812C574.228 444.48 573.07 444.097 571.882 443.442C570.744 442.778 569.868 441.983 569.153 440.966C568.66 441.781 567.995 442.506 567.119 443.12C566.012 443.896 564.884 444.308 562.548 444.792C562.387 444.097 562.236 443.795 561.753 442.989C564.421 442.728 566.203 441.912 567.391 440.392H564.099C563.354 440.392 562.759 440.422 562.196 440.492V438.791C562.729 438.861 563.243 438.871 563.968 438.871H568.086C568.156 438.589 568.166 438.509 568.166 438.408C568.187 438.197 568.197 438.046 568.217 437.995C568.237 437.975 568.237 437.965 568.237 437.945L568.207 437.744C568.207 437.744 568.227 437.744 568.227 437.723H563.756H563.726Z" fill="white"/>
<path d="M585.535 430.202C585.434 430.685 585.404 431.158 585.334 432.437C585.263 433.978 585.172 437.33 585.172 438.508C585.172 440.079 585.273 440.673 585.605 441.177C585.988 441.72 586.783 442.033 587.82 442.033C589.613 442.033 591.053 441.026 591.828 439.203C592.19 438.347 592.412 437.562 592.593 436.424C593.489 437.149 593.781 437.33 594.597 437.703C593.932 439.938 593.439 441.016 592.623 441.922C591.385 443.331 589.744 444.026 587.659 444.026C586.522 444.026 585.454 443.764 584.76 443.301C583.622 442.536 583.139 441.267 583.139 439.052C583.139 438.196 583.169 436.535 583.269 432.387C583.29 431.893 583.29 431.541 583.29 431.309C583.29 430.846 583.269 430.615 583.219 430.182L585.535 430.212V430.202Z" fill="white"/>
<path d="M600.195 432.9C600.688 432.971 601.121 432.981 601.796 432.981C603.034 432.981 605.239 432.83 606.266 432.699C605.984 431.974 605.269 430.222 605.189 430.081L607.323 429.799C607.424 430.363 607.716 431.239 608.23 432.447C609.931 432.145 611.411 431.803 612.287 431.471L612.519 433.444C612.086 433.515 611.905 433.565 611.341 433.676C611.089 433.746 610.284 433.907 608.904 434.169C609.498 435.277 609.881 435.971 610.042 436.273C610.485 437.039 611.22 438.106 611.794 438.891L609.871 439.767C609.458 439.385 609.196 439.224 608.733 439.052C607.988 438.801 607.112 438.67 606.115 438.67C603.87 438.67 602.541 439.344 602.541 440.522C602.541 441.6 603.769 442.194 606.015 442.194C607.766 442.194 609.71 441.761 610.999 441.086L611.26 443.201C609.206 443.825 607.666 444.097 606.015 444.097C603.9 444.097 602.259 443.654 601.413 442.838C600.789 442.244 600.436 441.429 600.436 440.603C600.436 439.657 600.869 438.781 601.625 438.136C602.581 437.331 603.961 436.948 605.843 436.948C606.921 436.948 607.877 437.109 608.703 437.441C608.028 436.515 608.008 436.465 606.921 434.431C605.461 434.632 603.014 434.793 601.051 434.824C600.638 434.844 600.567 434.844 600.326 434.874L600.175 432.89L600.195 432.9Z" fill="white"/>
<path d="M618.399 431.491C619.074 431.642 620.141 431.702 622.235 431.702C622.678 430.706 622.829 430.212 622.9 429.648L625.065 429.88C624.997 429.994 624.776 430.491 624.4 431.37C624.319 431.551 624.289 431.602 624.249 431.672C624.336 431.659 624.685 431.635 625.296 431.602C627.219 431.491 628.719 431.3 629.636 431.038L629.757 432.921C629.448 432.941 629.011 432.985 628.448 433.052C627.239 433.203 625.135 433.334 623.464 433.384C622.98 434.33 622.517 434.985 621.943 435.589L621.963 435.619C622.044 435.565 622.155 435.482 622.296 435.367C622.91 434.904 623.786 434.622 624.632 434.622C625.92 434.622 626.736 435.237 626.998 436.374C628.266 435.911 629.112 435.609 629.525 435.478C630.421 435.166 630.482 435.146 630.753 434.985L631.529 436.888C631.066 436.958 630.572 437.089 629.696 437.331C629.465 437.401 628.639 437.673 627.209 438.177V438.358C627.223 438.647 627.229 438.868 627.229 439.022V439.687C627.209 439.969 627.209 440.12 627.209 440.231C627.209 440.593 627.229 440.825 627.259 441.107L625.336 441.157C625.407 440.855 625.437 440.019 625.437 439.234V438.841C624.621 439.224 624.199 439.455 623.846 439.697C623.262 440.13 622.99 440.573 622.99 441.056C622.99 441.912 623.786 442.265 625.789 442.265C627.793 442.265 629.485 442.013 630.653 441.57L630.814 443.704C630.532 443.704 630.451 443.724 630.049 443.775C628.86 443.956 627.27 444.077 625.81 444.077C624.058 444.077 622.96 443.876 622.114 443.382C621.349 442.949 620.906 442.154 620.906 441.248C620.906 440.573 621.108 440.039 621.631 439.415C622.376 438.489 623.323 437.864 625.185 437.079C625.105 436.465 624.773 436.183 624.178 436.183C623.222 436.183 622.064 436.767 620.785 437.885C620.091 438.469 619.708 438.881 619.346 439.395L617.835 437.905C618.268 437.573 618.741 437.109 619.325 436.435C619.97 435.67 620.977 434.23 621.309 433.605C621.356 433.518 621.4 433.448 621.44 433.394C621.369 433.394 621.158 433.414 621.158 433.414C620.896 433.414 619.436 433.384 619.074 433.384C618.866 433.371 618.711 433.364 618.611 433.364C618.611 433.364 618.459 433.364 618.349 433.384L618.379 431.501L618.399 431.491Z" fill="white"/>
<path d="M643.913 437.634C643.52 438.117 643.369 438.258 642.705 438.872V442.285C643.974 442.054 644.678 441.893 646.128 441.51V443.252C644.89 443.594 644.507 443.685 642.675 444.057C641.547 444.269 641.487 444.289 640.57 444.44C640.309 444.487 640.05 444.527 639.795 444.561C639.463 444.631 639.151 444.692 639 444.722L638.607 442.789C639.271 442.769 639.845 442.718 640.893 442.587V440.322C639.785 441.067 638.919 441.5 637.369 442.144C637.066 441.429 636.825 441.007 636.341 440.372C638.547 439.778 640.278 438.882 641.668 437.644H638.536C637.771 437.644 637.167 437.674 636.603 437.744V435.952C637.097 436.033 637.55 436.053 638.526 436.053H643.057V434.996H639.825C638.879 434.996 638.486 435.016 638.003 435.066V433.415C638.466 433.465 638.859 433.485 639.825 433.485H643.057V432.478H639.09C638.184 432.478 637.681 432.499 637.238 432.559V430.817C637.731 430.888 638.325 430.918 639.171 430.918H643.057C643.057 430.203 643.037 429.891 642.957 429.498H644.991C644.91 429.911 644.89 430.173 644.89 430.918H649.038C649.944 430.918 650.508 430.888 651.012 430.817V432.559C650.569 432.488 650.055 432.478 649.159 432.478H644.89V433.485H648.384C649.38 433.485 649.773 433.465 650.216 433.415V435.066C649.733 435.016 649.34 434.996 648.384 434.996H644.89V436.053H649.672C650.619 436.053 651.132 436.033 651.575 435.952V437.744C651.012 437.674 650.418 437.644 649.672 437.644H645.816C646.128 438.358 646.491 438.932 647.105 439.678C647.951 439.033 648.645 438.318 649.038 437.775L650.689 438.802C650.616 438.882 650.488 439.01 650.307 439.184C649.823 439.667 649.119 440.312 648.353 440.906C649.531 441.782 650.458 442.265 651.978 442.779C651.445 443.423 651.153 443.906 650.891 444.561C648.645 443.584 647.135 442.497 645.957 441.057C645.192 440.11 644.547 438.993 644.004 437.654H643.903L643.913 437.634Z" fill="white"/>
<path d="M657.939 431.934C657.325 431.934 657.012 431.954 656.549 432.015V430.232C656.992 430.313 657.395 430.333 658.039 430.333H660.486C661.11 430.333 661.493 430.313 661.956 430.232V432.004C661.523 431.954 661.181 431.934 660.597 431.934H660.164V435.176H660.657C661.141 435.176 661.372 435.156 661.715 435.106V436.777C661.332 436.727 661.04 436.707 660.657 436.707H660.164V439.767C660.708 439.536 661.02 439.405 661.966 438.962V440.653C660.577 441.419 659.469 441.882 657.576 442.536C657.113 442.697 656.962 442.748 656.72 442.869L656.257 440.966C656.7 440.895 657.466 440.704 658.422 440.382V436.707H657.808C657.365 436.707 657.033 436.727 656.68 436.787V435.096C657.063 435.146 657.325 435.166 657.838 435.166H658.422V431.924H657.929L657.939 431.934ZM663.96 439.395C663.366 439.395 663.084 439.415 662.409 439.445C662.439 438.902 662.46 438.438 662.46 437.774V431.582C662.46 430.685 662.439 430.393 662.409 429.91C662.842 429.96 663.174 429.981 664.01 429.981H669.075C669.85 429.981 670.213 429.96 670.666 429.91C670.615 430.343 670.595 430.766 670.595 431.582V437.673C670.595 438.398 670.615 438.901 670.666 439.465C670.323 439.435 669.87 439.395 669.689 439.395H668.481V442.687C668.481 442.939 668.561 442.969 669.256 442.969C669.699 442.969 669.931 442.919 670.021 442.788C670.142 442.637 670.223 441.842 670.233 440.804C670.716 441.086 671.229 441.298 671.773 441.469C671.622 443.251 671.511 443.785 671.179 444.117C670.837 444.469 670.233 444.58 668.944 444.58C667.756 444.58 667.272 444.5 666.991 444.248C666.779 444.067 666.739 443.936 666.739 443.322V439.395H665.933C665.762 440.402 665.702 440.633 665.5 441.147C665.057 442.275 664.312 443.201 663.265 443.896C662.621 444.329 662.037 444.59 660.949 444.943C660.718 444.399 660.486 444.047 659.902 443.422C660.778 443.221 661.241 443.06 661.805 442.758C663.275 441.962 664.01 440.925 664.191 439.395H663.96ZM664.161 432.669H668.863V431.541H664.161V432.669ZM664.161 435.226H668.863V434.099H664.161V435.226ZM664.161 437.864H668.863V436.676H664.161V437.864Z" fill="white"/>
<path d="M680.211 430.202C680.11 430.685 680.08 431.158 680.009 432.437C679.939 433.978 679.848 437.33 679.848 438.508C679.848 440.079 679.949 440.673 680.281 441.177C680.664 441.72 681.459 442.033 682.496 442.033C684.289 442.033 685.728 441.026 686.504 439.203C686.866 438.347 687.088 437.562 687.269 436.424C688.165 437.149 688.457 437.33 689.273 437.703C688.608 439.938 688.115 441.016 687.299 441.922C686.061 443.331 684.419 444.026 682.335 444.026C681.197 444.026 680.13 443.764 679.435 443.301C678.298 442.536 677.814 441.267 677.814 439.052C677.814 438.196 677.845 436.535 677.945 432.387C677.965 431.893 677.965 431.541 677.965 431.309C677.965 430.846 677.945 430.615 677.895 430.182L680.211 430.212V430.202Z" fill="white"/>
<path d="M706.591 443.573C705.866 442.768 704.718 441.922 703.53 441.308C703.167 441.106 703.037 441.056 702.634 440.895V441.076C702.634 442.123 702.332 442.828 701.707 443.311C701.083 443.795 700.187 444.026 698.979 444.026C696.562 444.026 695.173 443.08 695.173 441.449C695.173 439.646 696.814 438.589 699.593 438.589C699.986 438.589 700.268 438.609 700.701 438.66C700.701 438.525 700.694 438.395 700.68 438.267V437.905C700.667 437.75 700.657 437.451 700.65 437.008C699.855 437.029 699.341 437.039 698.999 437.039C697.992 437.039 697.378 437.019 696.009 436.918C695.797 436.898 695.626 436.898 695.384 436.898L695.414 435.105C696.129 435.267 697.7 435.387 699.271 435.387C699.603 435.387 700.167 435.367 700.63 435.357C700.63 435.206 700.63 434.642 700.61 433.706C700.076 433.726 699.815 433.726 699.563 433.726C698.757 433.726 696.623 433.646 695.505 433.555C695.324 433.535 695.193 433.535 695.143 433.535H694.881L694.901 431.702C695.747 431.914 697.448 432.045 699.351 432.045C699.613 432.045 700.177 432.024 700.59 432.014C700.57 430.363 700.57 430.343 700.509 429.93H702.614C702.533 430.373 702.513 430.595 702.493 431.944C704.738 431.813 706.178 431.632 707.255 431.32L707.336 433.152C707.094 433.166 706.658 433.216 706.027 433.303C704.567 433.505 703.923 433.555 702.473 433.635C702.493 434.048 702.493 434.25 702.503 435.277C703.053 435.243 703.835 435.173 704.849 435.065C705.896 434.934 706.158 434.894 706.903 434.703L706.953 436.525C706.671 436.545 706.258 436.596 705.876 436.636C705.624 436.666 704.879 436.757 703.641 436.868C703.409 436.888 703.157 436.898 702.513 436.938C702.547 438.005 702.57 438.673 702.583 438.942C704.043 439.375 705.332 440.019 707.114 441.278C707.396 441.459 707.477 441.529 707.708 441.66L706.581 443.593L706.591 443.573ZM699.351 440.21C698.012 440.21 697.197 440.643 697.197 441.348C697.197 441.962 697.912 442.345 699.079 442.345C699.774 442.345 700.288 442.144 700.519 441.811C700.65 441.6 700.721 441.247 700.721 440.754V440.361C700.177 440.251 699.845 440.21 699.351 440.21Z" fill="white"/>
<path d="M722.197 436.012C722.197 436.082 722.217 436.213 722.217 436.404C722.58 437.17 722.751 437.844 722.751 438.74C722.751 440.543 721.895 442.103 720.284 443.211C719.589 443.694 718.824 444.036 717.294 444.57C716.831 443.543 716.669 443.291 716.116 442.697C717.475 442.436 718.15 442.204 718.925 441.741C720.053 441.096 720.717 440.251 720.848 439.324C720.365 440.09 719.509 440.502 718.411 440.502C717.646 440.502 717.052 440.321 716.488 439.908C715.713 439.344 715.35 438.619 715.35 437.673C715.35 435.921 716.72 434.662 718.643 434.662C719.358 434.662 719.982 434.844 720.365 435.156C720.351 435.102 720.345 435.035 720.345 434.954C720.345 434.954 720.324 433.998 720.324 433.545C717.958 433.615 716.398 433.666 715.673 433.716C714.008 433.837 713.028 433.921 712.733 433.968L712.662 431.994C713.025 432.024 713.176 432.024 713.478 432.024C713.89 432.024 714.152 432.024 716.287 431.944C717.364 431.914 717.525 431.914 718.885 431.873C719.247 431.86 719.717 431.843 720.294 431.823C720.281 430.776 720.247 430.108 720.194 429.819L722.278 429.799C722.207 430.313 722.207 430.343 722.197 431.773C725.077 431.753 726.366 431.722 726.98 431.652L727 433.555C726.386 433.505 725.59 433.474 724.221 433.474C723.828 433.474 723.526 433.474 722.217 433.505V434.582L722.197 436.002V436.012ZM718.814 436.173C717.968 436.173 717.274 436.767 717.274 437.492C717.274 438.217 717.858 438.801 718.683 438.801C719.63 438.801 720.304 438.176 720.304 437.311C720.304 436.616 719.72 436.173 718.814 436.173Z" fill="white"/>
</svg>
