<svg width="276" height="374" viewBox="0 0 276 374" fill="none" xmlns="http://www.w3.org/2000/svg">
<path d="M16.9043 319.668C15.8996 317.298 12.7587 311.562 12.4075 310.918L12.1539 310.46L11.0907 311.094V307.777H15.6265V304.032H11.0907V292.59H7.36453V304.032H2.46783V307.777H5.13077C4.93569 312.908 3.72615 319.258 0.916886 321.014L0.507202 321.268L2.36053 324.487L2.79948 324.214C4.82839 322.945 6.35983 320.565 7.37428 317.122V339.04H11.1005V316.215C12.0369 317.98 13.1001 320.068 13.5781 321.18L13.7829 321.658L17.0994 320.126L16.9043 319.678V319.668Z" fill="white"/>
<path d="M38.0129 301.662V299.018H43.4948V295.156H38.0129V292.571H34.0526V295.156H26.7465V292.571H22.7863V295.156H17.5092V299.018H22.7863V301.662H26.7465V299.018H34.0526V301.662H38.0129Z" fill="white"/>
<path d="M40.0221 318.634V315.562H46.1576V311.689H40.0221V308.763H36.2764V311.689H32.4332V307.163H43.4947V303.3H17.509V307.163H28.5705V311.689H25.0004V308.763H21.2547V311.689H14.8461V315.562H21.2547V318.634H25.0004V315.562H28.5705V320.751H16.6799V324.623H28.5705V327.442H18.8356V331.305H28.5705V339.908H32.4332V331.305H42.1681V327.442H32.4332V324.623H44.314V320.751H32.4332V315.562H36.2764V318.634H40.0221Z" fill="white"/>
<path d="M99.5532 296.599L98.3631 289.019L88.6965 290.629V267.326H99.1825V259.649H88.6965V237.058H81.1954V259.649H68.8464V267.326H81.1954V291.877L68.1733 294.043L69.3634 301.622L81.1954 299.661V322.282C81.1954 322.282 81.2832 327.022 78.8154 329.549C77.6058 330.788 75.9183 331.353 73.5968 331.266L73.0798 331.246L73.0505 338.923L73.5382 338.942C73.7626 338.942 73.9869 338.952 74.2113 338.952C78.3081 338.952 81.5661 337.635 84.1803 334.924C88.716 330.232 88.7453 323.394 88.7063 322.087V298.413L99.5727 296.608L99.5532 296.599Z" fill="white"/>
<path d="M166.068 270.886C151.407 265.697 144.014 241.057 143.936 240.794L143.136 238.043H121.705L120.964 240.891C120.905 241.126 114.663 264.019 99.6897 270.652L99.241 270.847L102.206 277.9L102.675 277.695C117.521 271.12 124.817 253.416 127.353 245.72H137.644C140.541 253.962 148.657 272.837 163.61 278.134L164.098 278.309L166.536 271.042L166.068 270.876V270.886Z" fill="white"/>
<path d="M151.085 275.948H113.307V283.625H151.085V275.948Z" fill="white"/>
<path d="M108.615 337.957H156.49V294.092H108.615V337.957ZM116.116 330.261V301.768H148.989V330.261H116.116Z" fill="white"/>
<path d="M240.962 287.244V245.807H226.526L228.974 235.79L221.707 233.849L218.791 245.798H207.173V287.234H236.222H240.962V287.244ZM233.461 279.45H214.674V270.749H233.461V279.45ZM233.461 262.965H214.674V253.601H233.461V262.965Z" fill="white"/>
<path d="M206.149 308.723C206.149 308.723 204.052 312.313 199.292 316.556C194.863 320.497 187.128 325.871 175.452 329.071L174.974 329.198L176.866 336.747L177.364 336.611C202.813 329.646 212.236 313.366 212.626 312.674L212.86 312.254L206.412 308.274L206.149 308.723Z" fill="white"/>
<path d="M273.474 329.169C255.711 322.614 246.249 309.407 242.66 303.281H272.099V295.487H228.214V290.161H220.712V295.487H175.891V303.281H220.712V321.824C220.712 321.824 220.673 324.575 219.659 327.15C218.254 330.691 216.147 331.149 214.46 331.149H213.953V338.943H214.46C220.117 338.943 224.458 335.724 226.682 329.881C228.116 326.106 228.214 322.526 228.214 321.853V303.281H234.105C235.685 306.822 245.703 327.208 270.957 336.524L271.445 336.699L273.923 329.344L273.464 329.179L273.474 329.169Z" fill="white"/>
<path d="M201.555 253.874L177.783 241.74V250.402L201.555 262.478V253.874Z" fill="white"/>
<path d="M201.555 269.023L177.783 276.427V284.562L201.555 277.148V269.023Z" fill="white"/>
<path d="M270.401 241.74L246.571 253.904V262.644L270.401 250.402V241.74Z" fill="white"/>
<path d="M270.401 276.426L246.571 269.003V277.138L270.401 284.561V276.426Z" fill="white"/>
<path d="M5.83312 261.034V280.26H9.67634V278.855H17.948V252.821H9.3642C10.2323 248.773 10.3982 244.695 10.4274 242.94H18.0261V238.979H3.27747V242.94H6.5842C6.52568 247.358 5.6868 255.669 2.82877 258.547C2.18498 259.2 1.30709 259.493 0.497473 259.454L0 259.434V263.394L0.497473 263.414C2.39958 263.492 4.09684 262.819 5.52098 261.385C5.62827 261.278 5.73557 261.161 5.84287 261.044L5.83312 261.034ZM14.1048 256.781V274.885H9.67634V256.781H14.1048Z" fill="white"/>
<path d="M29.0875 245.993H21.4108V273.647H42.4607V245.993H33.0575L33.9061 242.55H44.3043V238.589H20.4646V242.55H29.9361L29.0875 245.993ZM25.254 253.689V249.953H38.6077V253.689H25.254ZM25.254 261.005V257.659H38.6077V261.005H25.254ZM25.254 269.677V264.965H38.6077V269.677H25.254Z" fill="white"/>
<path d="M44.002 280.894C41.2903 279.684 40.2563 277.373 39.8662 276.065H35.9059C36.1888 277.577 37.4568 282.279 42.4706 284.532L42.9485 284.747L44.4507 281.099L44.002 280.894Z" fill="white"/>
<path d="M24.6005 276.065C24.2201 277.363 23.1862 279.675 20.4549 280.894L20.0062 281.099L21.5084 284.747L21.9864 284.532C27.0099 282.289 28.2682 277.577 28.5511 276.065H24.6005Z" fill="white"/>
<path d="M6.82808 364.06C7.50113 364.06 7.62793 364.06 7.91081 364.011C7.88155 364.284 7.86204 364.401 7.83278 364.674C7.66695 366.762 7.35481 368.039 6.68176 369.473C7.2085 369.981 7.70597 370.332 8.29123 370.566C8.96428 370.849 9.62758 370.976 10.9444 371.063C11.3346 371.093 11.8613 371.112 12.0857 371.112C13.9195 371.112 15.7728 371.034 17.2067 370.917C16.9531 371.59 16.9043 371.785 16.797 372.585C15.3827 372.614 13.9488 372.634 12.31 372.634C9.01305 372.634 7.46211 372.166 5.95994 370.741C5.29664 371.736 4.89671 372.214 4.03832 372.975C3.72618 372.439 3.47257 372.107 2.9751 371.59C3.90176 370.79 4.36022 370.312 4.90646 369.473C4.63334 369.083 4.43825 368.742 4.18464 368.225C4.15538 368.166 4.01882 367.922 3.84324 367.552C3.7652 367.415 3.66766 367.181 3.51159 366.888L4.84794 366.186C5.16008 367.113 5.31615 367.493 5.6478 368.078C5.9892 367.22 6.14527 366.654 6.31109 365.464H4.88696C4.46752 365.464 4.02857 365.484 3.66766 365.513C4.28544 364.505 4.71463 363.77 4.95524 363.309C5.51123 362.255 5.62829 361.972 5.90141 361.241H4.39924C3.98955 361.241 3.73594 361.26 3.38478 361.319V359.729C3.72618 359.787 4.01882 359.807 4.44801 359.807H6.03797C6.60372 359.807 6.86709 359.797 7.12071 359.748L7.84253 360.724C7.72548 360.889 7.70597 360.919 7.47186 361.484C7.16948 362.187 6.49643 363.494 6.15502 364.069H6.84758L6.82808 364.06ZM11.1785 361.27H9.42274C9.01306 361.27 8.67165 361.289 8.35951 361.328V359.992C8.73018 360.041 8.99355 360.051 9.51053 360.051H11.1785C11.1785 359.573 11.159 359.407 11.1005 359.065H12.749C12.7002 359.348 12.6709 359.543 12.6709 360.051H14.8754C15.3436 360.051 15.685 360.031 16.0167 360.002C15.9874 360.285 15.9679 360.568 15.9679 360.948V362.041C16.4459 362.041 16.6995 362.021 17.0312 361.953V363.348C16.6995 363.289 16.4459 363.27 15.9679 363.27V364.411C15.9679 364.752 15.9777 365.084 16.0167 365.308C15.6265 365.298 15.3534 365.279 14.9632 365.279H12.6709V366.137H14.9925C15.5192 366.137 15.8314 366.118 16.2508 366.079V367.386C15.8899 367.337 15.5192 367.327 14.973 367.327H12.6612V368.215H15.5095C16.1435 368.215 16.4654 368.196 16.8458 368.137V369.551C16.4849 369.503 16.0655 369.493 15.5095 369.493H12.6612C12.6612 370.166 12.6807 370.39 12.7392 370.751H11.0907C11.1493 370.361 11.1688 370.078 11.1688 369.493H9.01306C8.37902 369.493 8.09614 369.512 7.72548 369.551V368.137C8.06688 368.196 8.47656 368.215 9.03256 368.215H11.1785V367.327H9.39348C8.94478 367.327 8.56435 367.347 8.19369 367.405V366.089C8.58386 366.137 8.896 366.147 9.39348 366.147H11.1785V365.289H9.3447C8.93502 365.289 8.71067 365.308 8.38877 365.337V364.03C8.70091 364.079 8.92527 364.089 9.44225 364.089H11.1883V363.279H8.87649C8.23271 363.279 7.95958 363.299 7.58892 363.338V361.972C7.95958 362.031 8.17418 362.05 8.93502 362.05H11.1883V361.27H11.1785ZM14.5048 362.05V361.27H12.6709V362.05H14.5048ZM12.6807 364.089H14.5145V363.279H12.6807V364.089Z" fill="white"/>
<path d="M31.6823 362.831C32.1602 362.831 32.5406 362.811 32.8625 362.772C32.8138 363.162 32.804 363.533 32.804 364.157V365.689C32.804 365.932 32.8528 365.962 33.1454 365.962C33.438 365.962 33.5063 365.932 33.5649 365.815C33.6136 365.679 33.6721 365.094 33.6721 364.567L33.6526 364.401C33.6526 364.323 33.6591 364.248 33.6721 364.177C34.1404 364.43 34.5013 364.596 34.9597 364.733C34.9012 366.996 34.6769 367.318 33.1259 367.318C32.4041 367.318 32.0334 367.269 31.7798 367.132C31.4677 366.966 31.3701 366.762 31.3701 366.235V364.147H29.1071C29.0876 364.557 29.0876 364.703 29.0486 364.986L29.9167 364.372C30.5312 365.103 30.7849 365.435 31.2336 366.128L30.1703 366.927C29.7509 366.128 29.4485 365.698 28.9998 365.201C28.8242 366.03 28.5609 366.518 27.9756 367.132H28.7852C28.7364 367.415 28.7267 367.61 28.7267 368.059H33.0186C33.799 368.059 34.3257 368.03 34.8232 367.971V369.512C34.2964 369.454 33.7404 369.425 33.0186 369.425H30.0533C31.4774 370.38 33.0381 370.966 35.106 371.327C34.6573 371.961 34.5208 372.214 34.2379 372.917C31.7896 372.214 30.0533 371.297 28.6877 370.01C28.7072 370.224 28.7169 370.546 28.7364 370.966V371.697C28.7364 372.39 28.7559 372.702 28.8242 373.043H27.0099C27.0879 372.634 27.0977 372.312 27.0977 371.697V370.975C27.0977 370.751 27.0977 370.605 27.1465 370.02C26.3661 370.741 25.7223 371.19 24.7176 371.717C23.7715 372.214 23.0984 372.468 21.8108 372.858C21.5084 372.165 21.3621 371.931 20.8939 371.327C22.9521 370.917 24.3275 370.4 25.8882 369.425H23.1277C22.4058 369.425 21.8791 369.454 21.3426 369.512V367.971C21.7523 368.03 22.3766 368.059 23.1179 368.059H27.1075V367.718C26.8831 367.405 26.4442 367.015 26.0247 366.693C26.4344 366.479 26.5905 366.381 26.8538 366.167C25.9564 366.479 25.459 366.635 24.3177 366.918C23.6154 367.093 23.2057 367.191 22.4546 367.337C22.1165 367.409 21.8531 367.464 21.6645 367.503L21.3329 366.001C22.0352 365.971 22.5327 365.893 23.6934 365.698V364.303H23.0594C22.4546 364.303 22.2205 364.313 21.8303 364.362V362.948C22.0449 362.977 22.1035 362.977 22.2498 362.996C21.9474 362.684 21.8596 362.606 21.1085 362.099C22.3668 361.075 23.0106 360.226 23.4008 359.007L25.02 359.309C25.02 359.309 24.8444 359.621 24.5518 360.168H26.4832C27.205 360.168 27.5952 360.158 27.9561 360.08V361.299C28.5413 360.626 28.9901 359.738 29.1559 359.007L30.7458 359.309C30.6873 359.417 30.5508 359.719 30.3362 360.197H33.2332C34.0331 360.197 34.3745 360.177 34.8719 360.109V361.641C34.4037 361.582 33.9745 361.563 33.3112 361.563H32.1992C32.3748 361.816 32.3943 361.845 32.7065 362.372L31.5359 362.85H31.6725L31.6823 362.831ZM26.9026 366.118C27.5171 365.562 27.7317 364.898 27.7317 363.64C27.7317 363.269 27.7122 363.035 27.683 362.782C27.9073 362.811 28.0146 362.811 28.4048 362.831C28.1317 362.528 27.7122 362.187 27.3123 361.914C27.5074 361.748 27.5854 361.67 27.7025 361.572C27.4294 361.543 27.1465 361.523 26.8636 361.523H26.0345C26.2588 361.884 26.3369 362.001 26.5905 362.479L25.1468 362.87C24.9517 362.343 24.864 362.148 24.4835 361.523H23.7227C23.2545 362.158 22.9423 362.528 22.4449 362.996C22.6985 363.016 22.7765 363.016 23.0594 363.016H25.7321C26.4344 363.016 26.6002 362.996 26.9611 362.957V364.372C26.5905 364.323 26.2978 364.313 25.8491 364.313H25.1761V365.406C25.8199 365.259 26.0735 365.201 26.8246 364.967L26.9026 366.118ZM28.834 362.831H31.2823C31.136 362.46 30.9507 362.079 30.619 361.543H29.6046C29.2632 362.04 28.9608 362.401 28.5414 362.831H28.8437H28.834Z" fill="white"/>
<path d="M40.3735 372.322C40.354 372.176 40.354 372.078 40.2954 371.737C40.0125 369.981 39.8857 368.537 39.8857 366.967C39.8857 365.621 39.9735 364.294 40.1686 362.987C40.2206 362.688 40.3572 361.972 40.5783 360.841C40.6856 360.314 40.7441 359.885 40.7441 359.729V359.67L42.773 359.885C42.1585 361.192 41.583 364.801 41.5732 367.415C41.5602 367.773 41.5537 368.033 41.5537 368.196V368.44C41.5537 368.557 41.5537 368.586 41.5342 368.752H41.5537C41.6058 368.641 41.6643 368.495 41.7293 368.313C41.7586 368.205 41.8366 368.04 41.9049 367.806C41.9959 367.597 42.0902 367.373 42.1878 367.133C42.1878 367.133 42.2365 367.045 42.3634 366.664L43.6119 367.22C42.7243 368.957 42.1292 370.82 42.1292 371.815C42.1292 371.922 42.1292 371.932 42.1585 372.224L40.354 372.332L40.3735 372.322ZM43.7582 362.499C44.4605 362.675 45.2409 362.743 46.4699 362.743C46.9967 362.743 47.3283 362.743 47.8551 362.714C47.8551 361.826 47.8356 361.075 47.8356 360.461C47.8356 360.129 47.816 359.904 47.7868 359.739L49.6596 359.69C49.5816 360.109 49.5523 360.831 49.5523 361.894V362.587C50.3327 362.499 50.996 362.382 51.5812 362.226C51.6398 362.207 51.7503 362.168 51.9129 362.109L52.0299 362.08L52.0885 363.777C51.9421 363.797 51.9226 363.796 51.6495 363.855C51.1423 363.962 50.3619 364.099 49.5621 364.187V364.518C49.5621 365.357 49.5621 365.386 49.7084 367.913C50.7911 368.42 51.1618 368.635 52.0592 369.278C52.2543 369.415 52.3323 369.454 52.4786 369.532L51.7568 371.346C51.5032 371.044 51.0545 370.654 50.6351 370.39C50.1278 370.059 49.7767 369.834 49.6889 369.776V369.991C49.6889 370.322 49.6401 370.625 49.5718 370.829C49.2304 371.717 48.177 372.244 46.7236 372.244C44.7629 372.244 43.5534 371.317 43.5534 369.786C43.5534 368.254 44.8312 367.308 46.6455 367.308C47.2015 367.308 47.5722 367.367 47.9819 367.513C47.9331 367.142 47.9233 366.401 47.8648 364.313C47.26 364.323 46.9089 364.343 46.5187 364.343C45.9627 364.343 45.3677 364.323 44.6556 364.265C44.441 364.265 44.285 364.245 44.2069 364.245C44.0704 364.235 43.9826 364.235 43.9533 364.235C43.8753 364.216 43.8363 364.216 43.807 364.216C43.7875 364.216 43.7582 364.216 43.7192 364.235L43.7485 362.509L43.7582 362.499ZM46.8113 368.781C45.8554 368.781 45.2506 369.152 45.2506 369.766C45.2506 370.322 45.7871 370.693 46.6358 370.693C47.1918 370.693 47.6307 370.527 47.8551 370.225C47.9916 370.049 48.0502 369.815 48.0502 369.415V369.005C47.5527 368.83 47.2698 368.761 46.8211 368.761L46.8113 368.781Z" fill="white"/>
<path d="M64.5837 365.708C65.2275 367.103 65.725 367.942 66.4273 368.693C67.1784 369.503 68.1343 370.195 69.1683 370.663C69.6365 370.888 69.9389 370.976 70.6217 371.161C70.1242 371.795 69.9194 372.117 69.617 372.829C66.7199 371.688 64.8763 369.932 63.5693 367.123C63.0913 368.508 62.4475 369.522 61.4135 370.498C60.3601 371.493 59.3261 372.107 57.5996 372.78C57.2874 372.078 57.0338 371.668 56.6241 371.239C58.6335 370.595 59.8236 369.854 60.8283 368.674C61.5599 367.805 61.9793 366.937 62.2719 365.718H59.3651C58.6921 365.718 58.0775 365.747 57.4728 365.806V364.157C57.9995 364.216 58.5945 364.245 59.3456 364.245H62.4963C62.5548 363.588 62.5906 362.714 62.6036 361.621H58.8872C58.1068 361.621 57.4923 361.65 56.9558 361.709V360.002C57.4533 360.08 58.1361 360.109 58.8872 360.109H68.3587C69.0902 360.109 69.773 360.08 70.3095 360.002V361.709C69.7438 361.65 69.139 361.621 68.3782 361.621H64.3106C64.2813 363.211 64.2813 363.465 64.2033 364.245H67.8612C68.5928 364.245 69.2073 364.216 69.7828 364.157V365.806C69.1683 365.747 68.583 365.718 67.8807 365.718H64.5935L64.5837 365.708Z" fill="white"/>
<path d="M79.3909 359.436C79.4494 360.441 79.8981 362.606 80.3859 364.128C81.0361 363.887 82.3302 363.448 84.2681 362.811C84.5412 362.723 84.6095 362.694 84.8339 362.587L85.4776 364.479C84.1706 364.733 82.2099 365.308 80.5224 365.923C78.3277 366.732 77.2352 367.698 77.2352 368.771C77.2352 369.844 78.2594 370.332 80.6687 370.332C82.5416 370.332 84.3851 370.107 85.5167 369.717L85.6825 371.775C85.3508 371.775 85.2728 371.795 84.4632 371.883C82.844 372.048 82.0051 372.107 80.9516 372.107C78.8642 372.107 77.5571 371.853 76.6012 371.278C75.772 370.78 75.2941 369.854 75.2941 368.771C75.2941 367.766 75.772 366.81 76.6304 366.089C77.2157 365.591 77.6937 365.289 78.6691 364.801C78.2984 363.582 78.035 362.577 77.6644 360.733C77.5181 360.012 77.4986 359.982 77.4205 359.758L79.3714 359.446L79.3909 359.436Z" fill="white"/>
<path d="M92.3251 361.026C92.3251 360.246 92.2958 359.768 92.2373 359.3H93.9638C93.8858 359.778 93.876 360.197 93.876 361.036V362.958H94.2077C94.7637 362.958 94.9685 362.938 95.2124 362.899V364.47C94.9003 364.421 94.6271 364.411 94.1589 364.411H93.876V368.488C94.4613 368.215 94.6271 368.147 95.3002 367.796L95.349 369.386C93.9834 370.117 93.1737 370.478 91.6423 371.054C91.2229 371.22 91.0863 371.278 90.862 371.385L90.5498 369.659C90.9985 369.6 91.4375 369.464 92.3349 369.122V364.411H91.9935C91.4277 364.411 91.1838 364.421 90.8229 364.489V362.88C91.1546 362.938 91.4082 362.958 91.9935 362.958H92.3349V361.026H92.3251ZM97.7095 370.586C97.7095 370.888 97.8168 370.995 98.1485 371.054C98.5386 371.132 99.0946 371.161 100.187 371.161C101.972 371.161 102.45 371.083 102.674 370.771C102.85 370.517 102.948 370 102.948 368.986C103.426 369.191 104.069 369.396 104.586 369.483C104.411 372.488 104.089 372.693 99.8165 372.693C96.7828 372.693 96.1293 372.41 96.1293 371.083V365.923C95.9927 365.972 95.8855 366.001 95.8269 366.011C95.3782 366.157 95.2124 366.225 94.91 366.352L94.5393 364.713C94.9588 364.655 95.4855 364.548 95.9927 364.382L96.1293 364.333V362.275C96.1293 361.553 96.1098 361.182 96.0415 360.685H97.8071C97.7485 361.163 97.7193 361.602 97.7193 362.216V363.855L99.1727 363.387V360.773C99.1727 360.08 99.1629 359.768 99.0946 359.271H100.841C100.782 359.768 100.753 360.246 100.753 360.802V362.899L102.909 362.226C103.494 362.051 103.738 361.953 104.138 361.777C104.108 362.441 104.089 362.538 104.06 363.358C103.982 365.474 103.884 366.84 103.728 367.484C103.533 368.342 103.123 368.596 102.031 368.596C101.836 368.596 101.699 368.596 101.328 368.566C101.25 367.923 101.153 367.484 100.919 367.025C101.26 367.103 101.533 367.142 101.758 367.142C102.128 367.142 102.226 367.084 102.284 366.772C102.362 366.274 102.421 365.347 102.46 363.894L100.733 364.431V368.166C100.733 368.781 100.763 369.2 100.821 369.669H99.0751C99.1337 369.161 99.1532 368.83 99.1532 368.127V364.948L97.6998 365.416V370.595L97.7095 370.586Z" fill="white"/>
<path d="M114.887 368.273C114.029 370.205 113.073 371.092 111.844 371.092C110.137 371.092 108.908 369.356 108.908 366.937C108.908 365.288 109.493 363.737 110.556 362.567C111.815 361.182 113.59 360.47 115.716 360.47C119.316 360.47 121.657 362.664 121.657 366.039C121.657 368.634 120.311 370.702 118.009 371.638C117.287 371.941 116.701 372.087 115.658 372.273C115.404 371.473 115.219 371.151 114.741 370.517C116.126 370.341 117.023 370.097 117.726 369.688C119.033 368.966 119.813 367.542 119.813 365.932C119.813 364.489 119.169 363.318 117.97 362.606C117.501 362.333 117.111 362.216 116.458 362.157C116.175 364.518 115.648 366.586 114.897 368.283L114.887 368.273ZM112.683 362.899C111.424 363.796 110.644 365.347 110.644 366.947C110.644 368.176 111.171 369.151 111.834 369.151C112.332 369.151 112.839 368.517 113.375 367.23C113.941 365.883 114.438 363.855 114.624 362.157C113.843 362.245 113.307 362.46 112.692 362.889L112.683 362.899Z" fill="white"/>
<path d="M127.968 366.635C127.353 366.635 126.875 366.664 126.378 366.723V365.181C126.846 365.24 127.324 365.269 127.968 365.269H132.113V364.313H128.885C128.299 364.313 127.968 364.333 127.548 364.391V362.938C127.958 362.996 128.25 363.016 128.885 363.016H132.113V362.089H128.514C127.841 362.089 127.343 362.119 126.904 362.167V360.665C127.382 360.724 127.851 360.753 128.514 360.753H130.27C129.928 360.187 129.704 359.895 129.382 359.553L130.894 359.026C131.372 359.67 131.704 360.197 132.006 360.753H133.908C134.298 360.246 134.601 359.729 134.883 359.104L136.522 359.524C136.269 359.943 135.986 360.333 135.654 360.753H137.517C138.219 360.753 138.668 360.724 139.127 360.665V362.167C138.678 362.119 138.2 362.089 137.517 362.089H133.732V363.016H137.127C137.761 363.016 138.054 362.996 138.473 362.938V364.391C138.054 364.333 137.722 364.313 137.127 364.313H133.732V365.269H138.034C138.736 365.269 139.185 365.24 139.644 365.181V366.723C139.195 366.645 138.775 366.635 138.034 366.635H133.693C133.687 366.693 133.671 366.843 133.645 367.083C133.645 367.083 133.615 367.298 133.557 367.669H137.849C138.571 367.669 138.971 367.659 139.458 367.591V369.132C138.951 369.073 138.405 369.044 137.732 369.044H134.337C134.971 369.766 135.761 370.322 136.737 370.712C137.693 371.083 138.493 371.249 139.858 371.346C139.468 372.048 139.351 372.37 139.185 373.073C137.459 372.77 136.405 372.429 135.332 371.824C134.298 371.219 133.498 370.507 132.855 369.571C132.406 370.302 131.801 370.966 131.011 371.522C130.006 372.224 128.982 372.604 126.865 373.034C126.719 372.4 126.583 372.136 126.144 371.395C128.563 371.151 130.182 370.419 131.265 369.034H128.28C127.607 369.034 127.06 369.064 126.553 369.122V367.581C127.031 367.639 127.499 367.659 128.163 367.659H131.899C131.957 367.405 131.977 367.327 131.977 367.24C131.996 367.044 132.006 366.908 132.025 366.869C132.045 366.859 132.045 366.84 132.045 366.82L132.016 366.645C132.016 366.645 132.025 366.645 132.025 366.625H127.977L127.968 366.635Z" fill="white"/>
<path d="M147.74 359.816C147.652 360.255 147.623 360.684 147.564 361.845C147.506 363.24 147.418 366.284 147.418 367.357C147.418 368.781 147.506 369.317 147.808 369.776C148.15 370.273 148.871 370.556 149.818 370.556C151.437 370.556 152.744 369.639 153.446 367.991C153.778 367.21 153.973 366.508 154.139 365.474C154.948 366.137 155.222 366.303 155.953 366.625C155.348 368.654 154.9 369.629 154.168 370.449C153.046 371.726 151.554 372.351 149.671 372.351C148.637 372.351 147.672 372.107 147.047 371.687C146.013 370.995 145.574 369.844 145.574 367.834C145.574 367.054 145.604 365.552 145.692 361.787C145.711 361.338 145.711 361.016 145.711 360.811C145.711 360.392 145.692 360.177 145.652 359.787L147.75 359.816H147.74Z" fill="white"/>
<path d="M161.035 362.255C161.484 362.314 161.874 362.333 162.489 362.333C163.61 362.333 165.61 362.197 166.537 362.079C166.283 361.416 165.639 359.826 165.561 359.709L167.493 359.456C167.58 359.963 167.853 360.763 168.322 361.855C169.863 361.582 171.199 361.27 171.999 360.967L172.214 362.753C171.823 362.811 171.658 362.86 171.15 362.967C170.926 363.026 170.195 363.172 168.946 363.416C169.482 364.421 169.834 365.055 169.98 365.318C170.39 366.01 171.043 366.986 171.57 367.688L169.834 368.488C169.463 368.147 169.219 367.991 168.8 367.844C168.127 367.62 167.327 367.503 166.429 367.503C164.391 367.503 163.191 368.117 163.191 369.181C163.191 370.156 164.303 370.693 166.342 370.693C167.931 370.693 169.687 370.302 170.858 369.688L171.102 371.61C169.239 372.175 167.844 372.419 166.342 372.419C164.42 372.419 162.937 372.009 162.167 371.278C161.601 370.741 161.279 370 161.279 369.249C161.279 368.391 161.669 367.6 162.362 367.015C163.23 366.284 164.478 365.932 166.185 365.932C167.161 365.932 168.029 366.079 168.78 366.381C168.166 365.542 168.146 365.494 167.161 363.65C165.844 363.826 163.62 363.982 161.835 364.011C161.464 364.03 161.396 364.03 161.172 364.06L161.035 362.255Z" fill="white"/>
<path d="M177.539 360.987C178.154 361.123 179.119 361.182 181.022 361.182C181.431 360.285 181.558 359.836 181.626 359.319L183.587 359.533C183.528 359.631 183.327 360.08 182.982 360.88C182.904 361.045 182.875 361.094 182.846 361.153C182.924 361.14 183.239 361.12 183.792 361.094C185.528 360.987 186.894 360.821 187.723 360.587L187.83 362.294C187.55 362.313 187.157 362.352 186.65 362.411C185.557 362.548 183.645 362.665 182.134 362.713C181.695 363.572 181.275 364.167 180.748 364.713L180.768 364.742C180.839 364.69 180.94 364.615 181.07 364.518C181.626 364.099 182.416 363.845 183.187 363.845C184.358 363.845 185.089 364.401 185.333 365.435C186.484 365.015 187.255 364.742 187.625 364.625C188.435 364.342 188.493 364.323 188.737 364.177L189.44 365.903C189.02 365.962 188.571 366.079 187.772 366.313C187.557 366.371 186.816 366.625 185.518 367.083V367.249C185.531 367.509 185.538 367.711 185.538 367.854V368.459C185.518 368.712 185.518 368.849 185.518 368.956C185.518 369.288 185.538 369.493 185.567 369.756L183.831 369.805C183.889 369.532 183.919 368.771 183.919 368.069V367.708C183.187 368.049 182.797 368.264 182.475 368.488C181.948 368.878 181.695 369.288 181.695 369.717C181.695 370.497 182.416 370.809 184.231 370.809C186.045 370.809 187.576 370.585 188.64 370.175L188.786 372.107C188.532 372.107 188.454 372.126 188.093 372.165C187.011 372.331 185.577 372.438 184.25 372.438C182.66 372.438 181.665 372.263 180.904 371.804C180.212 371.414 179.812 370.692 179.812 369.873C179.812 369.259 179.988 368.781 180.475 368.205C181.148 367.366 182.007 366.791 183.704 366.088C183.626 365.532 183.333 365.279 182.787 365.279C181.919 365.279 180.865 365.806 179.714 366.82C179.08 367.347 178.739 367.717 178.407 368.186L177.042 366.839C177.432 366.537 177.871 366.118 178.388 365.503C178.973 364.811 179.89 363.503 180.192 362.938C180.231 362.86 180.27 362.795 180.309 362.743C180.251 362.743 180.056 362.762 180.056 362.762C179.812 362.762 178.495 362.733 178.164 362.733C177.975 362.72 177.835 362.713 177.744 362.713C177.744 362.713 177.608 362.713 177.5 362.733L177.529 361.026L177.539 360.987Z" fill="white"/>
<path d="M200.677 366.547C200.316 366.986 200.179 367.113 199.584 367.669V370.761C200.735 370.546 201.369 370.4 202.686 370.059V371.629C201.565 371.941 201.213 372.019 199.555 372.361C198.541 372.556 198.472 372.575 197.653 372.702C197.412 372.741 197.178 372.777 196.951 372.809C196.648 372.868 196.365 372.926 196.229 372.956L195.868 371.2C196.473 371.18 196.99 371.141 197.936 371.024V368.966C196.931 369.639 196.151 370.029 194.736 370.615C194.463 369.971 194.239 369.581 193.81 369.005C195.809 368.469 197.38 367.659 198.638 366.528H195.8C195.107 366.528 194.551 366.557 194.044 366.615V364.996C194.493 365.074 194.902 365.084 195.78 365.084H199.887V364.128H196.96C196.102 364.128 195.741 364.148 195.312 364.187V362.684C195.731 362.733 196.092 362.743 196.96 362.743H199.887V361.826H196.287C195.458 361.826 195.01 361.845 194.61 361.904V360.324C195.058 360.382 195.595 360.412 196.365 360.412H199.887C199.887 359.768 199.867 359.485 199.799 359.124H201.643C201.565 359.495 201.555 359.739 201.555 360.412H205.32C206.149 360.412 206.656 360.382 207.105 360.324V361.904C206.695 361.845 206.237 361.826 205.427 361.826H201.555V362.743H204.725C205.622 362.743 205.983 362.723 206.393 362.684V364.187C205.954 364.138 205.603 364.128 204.725 364.128H201.555V365.084H205.895C206.754 365.084 207.212 365.064 207.622 364.996V366.615C207.115 366.557 206.569 366.528 205.895 366.528H202.403C202.686 367.171 203.018 367.698 203.574 368.371C204.335 367.786 204.969 367.142 205.33 366.645L206.832 367.571C206.76 367.643 206.647 367.757 206.491 367.913C206.052 368.352 205.408 368.937 204.715 369.473C205.778 370.273 206.617 370.702 208.002 371.171C207.524 371.756 207.251 372.195 207.007 372.79C204.969 371.902 203.603 370.917 202.54 369.61C201.847 368.752 201.262 367.737 200.765 366.518H200.677V366.547Z" fill="white"/>
<path d="M213.377 361.387C212.821 361.387 212.538 361.407 212.118 361.465V359.846C212.528 359.924 212.879 359.934 213.464 359.934H215.688C216.254 359.934 216.605 359.914 217.025 359.846V361.455C216.635 361.407 216.322 361.397 215.796 361.397H215.406V364.333H215.854C216.293 364.333 216.498 364.313 216.81 364.274V365.786C216.469 365.738 216.196 365.728 215.854 365.728H215.406V368.508C215.903 368.293 216.186 368.176 217.044 367.776V369.308C215.786 370 214.781 370.42 213.065 371.015C212.645 371.161 212.509 371.21 212.284 371.317L211.865 369.59C212.274 369.532 212.957 369.347 213.835 369.064V365.738H213.279C212.869 365.738 212.577 365.757 212.255 365.816V364.284C212.596 364.333 212.84 364.343 213.308 364.343H213.835V361.407H213.386L213.377 361.387ZM218.839 368.157C218.303 368.157 218.039 368.176 217.425 368.205C217.454 367.708 217.474 367.288 217.474 366.693V361.085C217.474 360.275 217.454 360.002 217.425 359.573C217.815 359.622 218.117 359.631 218.878 359.631H223.472C224.175 359.631 224.506 359.612 224.916 359.573C224.867 359.963 224.858 360.353 224.858 361.085V366.606C224.858 367.269 224.877 367.718 224.916 368.225C224.604 368.196 224.194 368.166 224.028 368.166H222.936V371.151C222.936 371.376 223.014 371.405 223.638 371.405C224.048 371.405 224.253 371.356 224.331 371.239C224.438 371.102 224.516 370.381 224.526 369.434C224.965 369.688 225.423 369.883 225.921 370.039C225.784 371.658 225.677 372.136 225.384 372.439C225.072 372.751 224.526 372.858 223.355 372.858C222.273 372.858 221.843 372.78 221.58 372.556C221.385 372.39 221.356 372.273 221.356 371.717V368.157H220.624C220.478 369.074 220.419 369.278 220.234 369.747C219.824 370.771 219.151 371.61 218.205 372.234C217.62 372.624 217.093 372.868 216.108 373.18C215.893 372.683 215.688 372.37 215.162 371.795C215.962 371.619 216.381 371.463 216.888 371.19C218.225 370.468 218.888 369.522 219.044 368.147H218.839V368.157ZM219.024 362.05H223.287V361.026H219.024V362.05ZM219.024 364.372H223.287V363.348H219.024V364.372ZM219.024 366.762H223.287V365.679H219.024V366.762Z" fill="white"/>
<path d="M233.578 359.816C233.491 360.255 233.461 360.684 233.403 361.845C233.344 363.24 233.256 366.284 233.256 367.357C233.256 368.781 233.344 369.317 233.647 369.776C233.988 370.273 234.71 370.556 235.656 370.556C237.275 370.556 238.582 369.639 239.285 367.991C239.616 367.21 239.811 366.508 239.977 365.474C240.787 366.137 241.06 366.303 241.791 366.625C241.187 368.654 240.738 369.629 240.006 370.449C238.885 371.726 237.392 372.351 235.51 372.351C234.476 372.351 233.51 372.107 232.886 371.687C231.852 370.995 231.413 369.844 231.413 367.834C231.413 367.054 231.442 365.552 231.53 361.787C231.549 361.338 231.549 361.016 231.549 360.811C231.549 360.392 231.53 360.177 231.491 359.787L233.588 359.816H233.578Z" fill="white"/>
<path d="M257.486 371.931C256.823 371.2 255.789 370.429 254.716 369.873C254.384 369.698 254.267 369.649 253.906 369.503V369.669C253.906 370.615 253.633 371.258 253.068 371.697C252.502 372.136 251.682 372.341 250.59 372.341C248.395 372.341 247.137 371.483 247.137 370C247.137 368.361 248.62 367.405 251.146 367.405C251.507 367.405 251.76 367.425 252.151 367.464C252.151 367.347 252.144 367.227 252.131 367.103V366.771C252.125 366.635 252.115 366.365 252.102 365.962C251.38 365.981 250.922 365.991 250.6 365.991C249.683 365.991 249.127 365.981 247.888 365.884C247.693 365.864 247.547 365.864 247.322 365.864L247.351 364.245C247.995 364.391 249.419 364.499 250.844 364.499C251.146 364.499 251.653 364.479 252.073 364.469C252.073 364.333 252.073 363.826 252.053 362.967C251.575 362.977 251.331 362.977 251.107 362.977C250.375 362.977 248.434 362.899 247.43 362.831C247.264 362.811 247.147 362.811 247.098 362.811H246.854L246.874 361.143C247.634 361.338 249.185 361.455 250.912 361.455C251.156 361.455 251.663 361.446 252.034 361.426C252.014 359.924 252.014 359.914 251.956 359.534H253.858C253.78 359.943 253.77 360.138 253.75 361.368C255.789 361.25 257.096 361.085 258.072 360.802L258.15 362.47C257.928 362.483 257.535 362.528 256.969 362.606C255.652 362.782 255.067 362.831 253.741 362.909C253.75 363.279 253.75 363.465 253.77 364.391C254.271 364.359 254.979 364.294 255.896 364.196C256.842 364.079 257.077 364.05 257.759 363.865L257.808 365.513C257.555 365.533 257.174 365.572 256.833 365.62C256.608 365.65 255.935 365.728 254.804 365.835C254.589 365.855 254.365 365.864 253.78 365.894C253.812 366.862 253.832 367.467 253.838 367.708C255.155 368.098 256.326 368.683 257.945 369.825C258.198 369.99 258.276 370.049 258.481 370.166L257.457 371.922L257.486 371.931ZM250.931 368.888C249.712 368.888 248.98 369.278 248.98 369.922C248.98 370.478 249.624 370.82 250.687 370.82C251.322 370.82 251.78 370.644 251.995 370.342C252.112 370.146 252.17 369.834 252.17 369.386V369.025C251.673 368.917 251.37 368.888 250.922 368.888H250.931Z" fill="white"/>
<path d="M271.63 365.074C271.63 365.133 271.65 365.259 271.65 365.435C271.981 366.128 272.128 366.742 272.128 367.552C272.128 369.19 271.347 370.595 269.894 371.6C269.26 372.039 268.577 372.351 267.182 372.829C266.763 371.902 266.616 371.678 266.119 371.132C267.348 370.888 267.963 370.683 268.675 370.263C269.689 369.678 270.294 368.917 270.411 368.069C269.972 368.761 269.192 369.132 268.206 369.132C267.514 369.132 266.977 368.966 266.47 368.595C265.768 368.088 265.436 367.425 265.436 366.566C265.436 364.976 266.685 363.835 268.421 363.835C269.065 363.835 269.64 364.001 269.982 364.284C269.969 364.232 269.962 364.17 269.962 364.099C269.962 364.099 269.943 363.23 269.943 362.821C267.797 362.879 266.392 362.928 265.729 362.967C264.22 363.078 263.329 363.152 263.056 363.191L262.998 361.406C263.329 361.436 263.466 361.436 263.729 361.436C264.1 361.436 264.344 361.436 266.275 361.358C267.25 361.328 267.397 361.328 268.636 361.299C268.967 361.286 269.393 361.27 269.913 361.25C269.9 360.301 269.871 359.696 269.826 359.436L271.718 359.417C271.659 359.885 271.659 359.914 271.64 361.202C274.254 361.192 275.425 361.153 275.981 361.094L276 362.821C275.444 362.772 274.722 362.743 273.484 362.743C273.123 362.743 272.849 362.743 271.669 362.772V363.747L271.65 365.035L271.63 365.074ZM268.577 365.23C267.816 365.23 267.182 365.767 267.182 366.43C267.182 367.093 267.709 367.61 268.46 367.61C269.318 367.61 269.933 367.044 269.933 366.264C269.933 365.63 269.406 365.23 268.587 365.23H268.577Z" fill="white"/>
<path d="M197.097 33.5522L168.156 4.61096C165.649 2.10408 162.245 0.689697 158.704 0.689697H117.774C114.224 0.689697 110.829 2.09433 108.322 4.61096L79.3812 33.5522C76.8743 36.0591 75.46 39.4633 75.46 43.0042V83.9335C75.46 87.4841 76.8646 90.8786 79.3812 93.3855L108.322 122.327C110.829 124.834 114.234 126.248 117.774 126.248H158.704C162.254 126.248 165.649 124.843 168.156 122.327L197.097 93.3855C199.604 90.8786 201.018 87.4744 201.018 83.9335V43.0042C201.018 39.4536 199.614 36.0591 197.097 33.5522ZM195.439 73.2915C195.439 82.1777 191.908 90.7031 185.626 96.9849L171.745 110.865C165.464 117.147 156.938 120.678 148.052 120.678H128.416C119.53 120.678 111.005 117.147 104.723 110.865L90.8426 96.9849C84.5608 90.7031 81.0297 82.1777 81.0297 73.2915V53.656C81.0297 44.7697 84.5608 36.2444 90.8426 29.9626L104.723 16.0821C111.005 9.80028 119.53 6.2692 128.416 6.2692H148.052C156.938 6.2692 165.464 9.80028 171.745 16.0821L185.626 29.9626C191.908 36.2444 195.439 44.7697 195.439 53.656V73.2915Z" fill="#C9A063"/>
<path d="M161.65 42.2729C160.606 41.8047 159.045 40.878 158.08 39.2393C156.977 37.3762 156.831 34.8986 157.631 31.865L154.373 27.6316H122.115L118.857 31.865C119.657 34.8986 119.501 37.3762 118.408 39.2393C117.443 40.878 115.872 41.8145 114.838 42.2827L108.557 38.8296L105.308 44.7505L112.917 48.9254L115.297 49.257C115.882 49.1205 121.149 47.7744 124.164 42.7899C125.636 40.3513 126.28 37.5323 126.095 34.3914H150.422C150.237 37.5323 150.881 40.3513 152.354 42.7899C155.368 47.7841 160.625 49.1205 161.22 49.257L163.6 48.9254L171.209 44.7505L167.961 38.8296L161.679 42.2827L161.65 42.2729Z" fill="#C9A063"/>
<path d="M120.154 65.0005H156.967L158.596 64.5811L165.844 60.572L162.576 54.6707L156.09 58.2505H120.857L113.473 55.0218L110.771 61.2158L118.808 64.7177L120.154 65.0005Z" fill="#C9A063"/>
<path d="M160.284 74.7062H116.828L108.196 71.6043L105.913 77.9544L115.102 81.2514L115.219 81.2709V98.1947L118.594 101.57H157.865L161.24 98.1947V81.3977L162.41 81.1441L170.702 77.3691L167.902 71.2239L160.274 74.6964L160.284 74.7062ZM121.969 94.8197V81.4465H154.5V94.8197H121.969Z" fill="#C9A063"/>
<path d="M75.3136 169.323C74.66 169.675 73.0408 170.104 70.9924 170.104C64.5643 170.104 61.7452 165.675 61.7452 160.603C61.7452 153.892 66.1835 150.488 71.3045 150.488C73.2847 150.488 74.8844 150.897 75.5965 151.336L74.699 155.345C73.9577 155.004 72.8945 154.663 71.5191 154.663C68.8757 154.663 66.5932 156.389 66.5932 160.281C66.5932 163.734 68.4562 165.88 71.6069 165.88C72.7189 165.88 73.9675 165.636 74.6795 165.334L75.3136 169.323Z" fill="#C9A063"/>
<path d="M95.0174 160.115C95.0174 166.231 91.7009 170.123 86.3945 170.123C81.0882 170.123 78.1423 165.695 78.1423 160.418C78.1423 155.141 81.4198 150.488 86.6774 150.488C92.1984 150.488 95.0076 155.024 95.0076 160.115H95.0174ZM83.0195 160.32C83.0195 163.9 84.4241 166.085 86.6286 166.085C88.8331 166.085 90.1597 163.695 90.1597 160.271C90.1597 156.848 88.8331 154.516 86.6091 154.516C84.3851 154.516 83.0293 156.828 83.0293 160.32H83.0195Z" fill="#C9A063"/>
<path d="M103.943 150.79V161.588C103.943 164.456 104.84 166.085 106.664 166.085C108.488 166.085 109.386 164.612 109.386 161.588V150.79H113.99V161.276C113.99 167.148 111.356 170.114 106.528 170.114C101.699 170.114 99.3582 167.256 99.3582 161.149V150.781H103.952L103.943 150.79Z" fill="#C9A063"/>
<path d="M119.042 169.811V150.79H124.466L127.187 156.623C128.114 158.516 129.128 161.062 129.879 163.286H129.948C129.694 160.779 129.606 158.126 129.606 155.277V150.781H133.81V169.802H128.953L126.046 163.481C125.09 161.462 123.978 158.906 123.159 156.614H123.071C123.188 159.179 123.246 162.047 123.246 165.139V169.811H119.042Z" fill="#C9A063"/>
<path d="M142.248 155.063H137.868V150.79H151.3V155.063H146.842V169.811H142.248V155.063Z" fill="#C9A063"/>
<path d="M155.348 150.79H159.952V165.539H166.566V169.811H155.358V150.79H155.348Z" fill="#C9A063"/>
<path d="M181.48 162.144H175.306V165.646H182.202V169.811H170.702V150.79H181.841V154.955H175.296V158.028H181.47V162.144H181.48Z" fill="#C9A063"/>
<path d="M186.991 164.749C188.035 165.324 189.722 165.929 191.449 165.929C193.019 165.929 193.8 165.324 193.8 164.359C193.8 163.451 193.029 162.915 191.088 162.174C188.191 161.042 186.269 159.267 186.269 156.438C186.269 153.073 188.835 150.488 193.166 150.488C195.214 150.488 196.677 150.907 197.809 151.463L196.843 155.531C196.102 155.17 194.834 154.624 193.107 154.624C191.703 154.624 190.932 155.199 190.932 156.028C190.932 156.994 191.839 157.384 194.005 158.282C197.097 159.54 198.482 161.374 198.482 164.017C198.482 167.304 196.18 170.094 191.166 170.094C189.098 170.094 187.089 169.499 186.113 168.933L186.981 164.729L186.991 164.749Z" fill="#C9A063"/>
<path d="M203.194 164.749C204.237 165.324 205.925 165.929 207.651 165.929C209.222 165.929 210.002 165.324 210.002 164.359C210.002 163.451 209.232 162.915 207.29 162.174C204.393 161.042 202.472 159.267 202.472 156.438C202.472 153.073 205.037 150.488 209.368 150.488C211.417 150.488 212.88 150.907 214.011 151.463L213.045 155.531C212.304 155.17 211.036 154.624 209.31 154.624C207.905 154.624 207.134 155.199 207.134 156.028C207.134 156.994 208.041 157.384 210.207 158.282C213.299 159.54 214.684 161.374 214.684 164.017C214.684 167.304 212.382 170.094 207.368 170.094C205.301 170.094 203.291 169.499 202.316 168.933L203.184 164.729L203.194 164.749Z" fill="#C9A063"/>
<path d="M72.1921 184.541C73.4407 184.316 75.2453 184.131 77.8594 184.131C80.3273 184.131 82.1026 184.628 83.3024 185.653C84.4729 186.608 85.2533 188.296 85.2533 190.227C85.2533 192.159 84.6777 193.836 83.5852 194.919C82.2001 196.295 80.181 196.909 77.8692 196.909C77.4205 196.909 77.0303 196.87 76.7474 196.841V203.298H72.1921V184.541ZM76.7474 192.939C76.9913 192.988 77.3034 193.007 77.8009 193.007C79.586 193.007 80.7077 191.983 80.7077 190.344C80.7077 188.93 79.8591 187.964 78.113 187.964C77.44 187.964 76.9815 188.023 76.7474 188.081V192.929V192.939Z" fill="#C9A063"/>
<path d="M89.4377 184.287H94.0418V199.035H100.655V203.308H89.4475V184.287H89.4377Z" fill="#C9A063"/>
<path d="M115.58 195.631H109.405V199.133H116.301V203.298H104.801V184.277H115.941V188.442H109.395V191.515H115.57V195.631H115.58Z" fill="#C9A063"/>
<path d="M125.276 198.889L124.31 203.298H119.55L124.534 184.277H130.66L135.781 203.298H130.816L129.724 198.889H125.285H125.276ZM129.09 195.133L128.29 191.71C128.026 190.637 127.704 189.086 127.431 187.964H127.383C127.129 189.086 126.875 190.656 126.622 191.729L125.88 195.133H129.08H129.09Z" fill="#C9A063"/>
<path d="M140.19 198.236C141.234 198.811 142.921 199.416 144.648 199.416C146.218 199.416 146.998 198.811 146.998 197.845C146.998 196.938 146.228 196.402 144.287 195.66C141.39 194.529 139.468 192.754 139.468 189.925C139.468 186.56 142.024 183.975 146.364 183.975C148.413 183.975 149.876 184.394 151.008 184.95L150.042 189.018C149.3 188.657 148.032 188.11 146.306 188.11C144.901 188.11 144.131 188.686 144.131 189.515C144.131 190.481 145.038 190.871 147.203 191.768C150.295 193.027 151.681 194.86 151.681 197.504C151.681 200.791 149.379 203.581 144.365 203.581C142.297 203.581 140.287 202.986 139.312 202.42L140.18 198.216L140.19 198.236Z" fill="#C9A063"/>
<path d="M160.654 184.287V195.085C160.654 197.952 161.552 199.581 163.376 199.581C165.2 199.581 166.097 198.109 166.097 195.085V184.287H170.701V194.773C170.701 200.645 168.068 203.61 163.239 203.61C158.411 203.61 156.07 200.752 156.07 194.646V184.277H160.664L160.654 184.287Z" fill="#C9A063"/>
<path d="M175.754 184.541C177.052 184.316 179.003 184.131 181.305 184.131C183.938 184.131 185.821 184.531 187.118 185.614C188.22 186.54 188.816 187.896 188.816 189.759C188.816 192.129 187.206 193.817 185.87 194.363V194.461C187.011 195.007 187.625 196.217 188.064 197.865C188.581 199.796 189.147 202.567 189.479 203.298H184.777C184.514 202.752 184.065 201.26 183.577 198.918C183.109 196.636 182.485 196.168 181.061 196.168H180.319V203.298H175.764V184.541H175.754ZM180.31 192.52H181.509C183.246 192.52 184.241 191.583 184.241 190.159C184.241 188.735 183.392 187.925 181.861 187.906C180.992 187.906 180.534 187.955 180.31 188.023V192.52Z" fill="#C9A063"/>
<path d="M204.159 195.631H197.984V199.133H204.881V203.298H193.38V184.277H204.52V188.442H197.975V191.515H204.149V195.631H204.159Z" fill="#C9A063"/>
</svg>
