<svg width="300" height="51" viewBox="0 0 300 51" fill="none" xmlns="http://www.w3.org/2000/svg">
<g clip-path="url(#clip0_5_1641)">
<path d="M10.3695 45.0451H29.776V50.1429H0L21.5342 22.8722C23.6058 20.2105 24.6473 17.4699 24.6473 14.6391C24.6473 11.8083 23.7514 9.66541 21.9597 7.83835C20.168 6.01128 18.0179 5.08647 15.4871 5.08647C12.766 5.08647 10.5487 6.04511 8.86898 7.96241C7.17805 9.8797 6.29339 12.3045 6.21501 15.2143H1.09742C1.17581 10.8609 2.56439 7.22932 5.25196 4.33083C7.93953 1.43233 11.2878 0 15.3191 0C19.3505 0 22.6652 1.38722 25.5095 4.15038C28.3539 6.91353 29.776 10.3985 29.776 14.5827C29.776 18.7669 28.6114 22.1053 26.2934 24.9812L10.3695 45.0564V45.0451Z" fill="white"/>
<path d="M43.2027 3.92481C45.6887 1.30827 48.7346 0 52.3516 0C55.9686 0 59.0257 1.30827 61.5005 3.92481C63.9753 6.54135 65.2183 9.81203 65.2183 13.7368C65.2183 15.9135 64.7144 18 63.729 19.985C62.7323 21.9699 61.355 23.4812 59.608 24.5301C61.7245 25.5789 63.3818 27.1692 64.58 29.3008C65.7783 31.4323 66.383 33.7895 66.383 36.3609C66.383 40.5902 65.0392 44.0865 62.3516 46.8496C59.664 49.6241 56.327 51 52.3404 51C48.3538 51 45.0168 49.6128 42.3292 46.8496C39.6416 44.0865 38.2979 40.5789 38.2979 36.3609C38.2979 33.7895 38.9026 31.4323 40.1008 29.3008C41.299 27.1692 42.9563 25.5789 45.0728 24.5301C43.3258 23.4812 41.9485 21.9699 40.9518 19.985C39.9552 18 39.4625 15.9248 39.4625 13.7368C39.4625 9.81203 40.7055 6.54135 43.1803 3.92481H43.2027ZM58.6674 29.718C56.9429 27.8684 54.8376 26.9436 52.3516 26.9436C49.8656 26.9436 47.7603 27.8684 46.0358 29.718C44.3113 31.5677 43.4378 33.8008 43.4378 36.4173C43.4378 39.0338 44.3001 41.2669 46.0358 43.1165C47.7603 44.9662 49.8656 45.891 52.3516 45.891C54.8376 45.891 56.9317 44.9662 58.6674 43.1165C60.3919 41.2669 61.2654 39.0338 61.2654 36.4173C61.2654 33.8008 60.4031 31.5677 58.6674 29.718ZM57.9955 7.57895C56.4278 5.92105 54.5465 5.09774 52.3516 5.09774C50.1568 5.09774 48.2755 5.93233 46.7077 7.57895C45.14 9.23684 44.3561 11.2444 44.3561 13.5902C44.3561 15.9361 45.14 18.0226 46.7077 19.703C48.2755 21.3835 50.1568 22.218 52.3516 22.218C54.5465 22.218 56.4278 21.3835 57.9955 19.703C59.5632 18.0226 60.3471 15.9925 60.3471 13.5902C60.3471 11.188 59.5632 9.23684 57.9955 7.57895Z" fill="white"/>
<path d="M84.5689 51L80.7279 48.1917L91.3438 32.5602L91.2206 32.4248C89.8768 32.8647 88.5554 33.0789 87.2564 33.0789C83.0683 33.0789 79.5409 31.4887 76.6741 28.3083C73.8074 25.1278 72.374 21.2932 72.374 16.8045C72.374 12.3158 73.9306 8.17669 77.0437 4.90601C80.1568 1.63534 83.8858 0 88.2419 0C92.598 0 96.327 1.63534 99.4401 4.90601C102.553 8.17669 104.11 12.1466 104.11 16.8045C104.11 20.4699 102.688 24.4173 99.8432 28.6353L84.5913 51H84.5689ZM95.8231 8.46992C93.729 6.22556 91.1982 5.09774 88.2307 5.09774C85.2632 5.09774 82.7324 6.22556 80.6383 8.46992C78.5442 10.7143 77.4916 13.4323 77.4916 16.6128C77.4916 19.7932 78.533 22.4887 80.6047 24.688C82.6764 26.8872 85.2184 27.9925 88.2307 27.9925C91.243 27.9925 93.729 26.8872 95.8231 24.688C97.9171 22.4887 98.9698 19.7932 98.9698 16.6128C98.9698 13.4323 97.9171 10.7143 95.8231 8.46992Z" fill="white"/>
<path d="M115.319 3.92481C117.805 1.30827 120.851 0 124.468 0C128.085 0 131.142 1.30827 133.617 3.92481C136.092 6.54135 137.335 9.81203 137.335 13.7368C137.335 15.9135 136.831 18 135.845 19.985C134.849 21.9699 133.471 23.4812 131.724 24.5301C133.841 25.5789 135.498 27.1692 136.697 29.3008C137.895 31.4323 138.499 33.7895 138.499 36.3609C138.499 40.5902 137.156 44.0865 134.468 46.8496C131.78 49.6241 128.443 51 124.457 51C120.47 51 117.133 49.6128 114.446 46.8496C111.758 44.0865 110.414 40.5789 110.414 36.3609C110.414 33.7895 111.019 31.4323 112.217 29.3008C113.415 27.1692 115.073 25.5789 117.189 24.5301C115.442 23.4812 114.065 21.9699 113.068 19.985C112.072 18 111.579 15.9248 111.579 13.7368C111.579 9.81203 112.822 6.54135 115.297 3.92481H115.319ZM130.784 29.718C129.059 27.8684 126.954 26.9436 124.468 26.9436C121.982 26.9436 119.877 27.8684 118.152 29.718C116.428 31.5677 115.554 33.8008 115.554 36.4173C115.554 39.0338 116.417 41.2669 118.152 43.1165C119.877 44.9662 121.982 45.891 124.468 45.891C126.954 45.891 129.048 44.9662 130.784 43.1165C132.508 41.2669 133.382 39.0338 133.382 36.4173C133.382 33.8008 132.52 31.5677 130.784 29.718ZM130.112 7.57895C128.544 5.92105 126.663 5.09774 124.468 5.09774C122.273 5.09774 120.392 5.93233 118.824 7.57895C117.256 9.23684 116.473 11.2444 116.473 13.5902C116.473 15.9361 117.256 18.0226 118.824 19.703C120.392 21.3835 122.273 22.218 124.468 22.218C126.663 22.218 128.544 21.3835 130.112 19.703C131.68 18.0226 132.464 15.9925 132.464 13.5902C132.464 11.188 131.68 9.23684 130.112 7.57895Z" fill="white"/>
<path d="M176.271 5.95468H168.645L171.333 0.856934H181.4V50.1539H176.271V5.95468Z" fill="white"/>
<path d="M204.703 3.92481C207.189 1.30827 210.235 0 213.852 0C217.469 0 220.526 1.30827 223.001 3.92481C225.476 6.54135 226.719 9.81203 226.719 13.7368C226.719 15.9135 226.215 18 225.23 19.985C224.233 21.9699 222.856 23.4812 221.109 24.5301C223.225 25.5789 224.882 27.1692 226.081 29.3008C227.279 31.4323 227.884 33.7895 227.884 36.3609C227.884 40.5902 226.54 44.0865 223.852 46.8496C221.165 49.6241 217.828 51 213.841 51C209.854 51 206.517 49.6128 203.83 46.8496C201.142 44.0865 199.798 40.5789 199.798 36.3609C199.798 33.7895 200.403 31.4323 201.601 29.3008C202.8 27.1692 204.457 25.5789 206.573 24.5301C204.826 23.4812 203.449 21.9699 202.452 19.985C201.456 18 200.963 15.9248 200.963 13.7368C200.963 9.81203 202.206 6.54135 204.681 3.92481H204.703ZM220.168 29.718C218.443 27.8684 216.338 26.9436 213.852 26.9436C211.366 26.9436 209.261 27.8684 207.536 29.718C205.812 31.5677 204.938 33.8008 204.938 36.4173C204.938 39.0338 205.801 41.2669 207.536 43.1165C209.261 44.9662 211.366 45.891 213.852 45.891C216.338 45.891 218.432 44.9662 220.168 43.1165C221.893 41.2669 222.766 39.0338 222.766 36.4173C222.766 33.8008 221.904 31.5677 220.168 29.718ZM219.496 7.57895C217.928 5.92105 216.047 5.09774 213.852 5.09774C211.657 5.09774 209.776 5.93233 208.208 7.57895C206.641 9.23684 205.857 11.2444 205.857 13.5902C205.857 15.9361 206.641 18.0226 208.208 19.703C209.776 21.3835 211.657 22.218 213.852 22.218C216.047 22.218 217.928 21.3835 219.496 19.703C221.064 18.0226 221.848 15.9925 221.848 13.5902C221.848 11.188 221.064 9.23684 219.496 7.57895Z" fill="white"/>
<path d="M240.762 3.92481C243.248 1.30827 246.293 0 249.91 0C253.527 0 256.585 1.30827 259.059 3.92481C261.534 6.54135 262.777 9.81203 262.777 13.7368C262.777 15.9135 262.273 18 261.288 19.985C260.291 21.9699 258.914 23.4812 257.167 24.5301C259.283 25.5789 260.941 27.1692 262.139 29.3008C263.337 31.4323 263.942 33.7895 263.942 36.3609C263.942 40.5902 262.598 44.0865 259.91 46.8496C257.223 49.6241 253.886 51 249.899 51C245.913 51 242.576 49.6128 239.888 46.8496C237.2 44.0865 235.857 40.5789 235.857 36.3609C235.857 33.7895 236.461 31.4323 237.66 29.3008C238.858 27.1692 240.515 25.5789 242.632 24.5301C240.885 23.4812 239.507 21.9699 238.511 19.985C237.514 18 237.021 15.9248 237.021 13.7368C237.021 9.81203 238.264 6.54135 240.739 3.92481H240.762ZM256.226 29.718C254.502 27.8684 252.396 26.9436 249.91 26.9436C247.424 26.9436 245.319 27.8684 243.595 29.718C241.87 31.5677 240.997 33.8008 240.997 36.4173C240.997 39.0338 241.859 41.2669 243.595 43.1165C245.319 44.9662 247.424 45.891 249.91 45.891C252.396 45.891 254.491 44.9662 256.226 43.1165C257.951 41.2669 258.824 39.0338 258.824 36.4173C258.824 33.8008 257.962 31.5677 256.226 29.718ZM255.554 7.57895C253.987 5.92105 252.105 5.09774 249.91 5.09774C247.716 5.09774 245.834 5.93233 244.267 7.57895C242.699 9.23684 241.915 11.2444 241.915 13.5902C241.915 15.9361 242.699 18.0226 244.267 19.703C245.834 21.3835 247.716 22.218 249.91 22.218C252.105 22.218 253.987 21.3835 255.554 19.703C257.122 18.0226 257.906 15.9925 257.906 13.5902C257.906 11.188 257.122 9.23684 255.554 7.57895Z" fill="white"/>
<path d="M276.82 3.92481C279.306 1.30827 282.352 0 285.969 0C289.586 0 292.643 1.30827 295.118 3.92481C297.592 6.54135 298.835 9.81203 298.835 13.7368C298.835 15.9135 298.331 18 297.346 19.985C296.349 21.9699 294.972 23.4812 293.225 24.5301C295.342 25.5789 296.999 27.1692 298.197 29.3008C299.395 31.4323 300 33.7895 300 36.3609C300 40.5902 298.656 44.0865 295.969 46.8496C293.281 49.6241 289.944 51 285.957 51C281.971 51 278.634 49.6128 275.946 46.8496C273.259 44.0865 271.915 40.5789 271.915 36.3609C271.915 33.7895 272.52 31.4323 273.718 29.3008C274.916 27.1692 276.573 25.5789 278.69 24.5301C276.943 23.4812 275.566 21.9699 274.569 19.985C273.572 18 273.08 15.9248 273.08 13.7368C273.08 9.81203 274.323 6.54135 276.797 3.92481H276.82ZM292.284 29.718C290.56 27.8684 288.455 26.9436 285.969 26.9436C283.483 26.9436 281.377 27.8684 279.653 29.718C277.928 31.5677 277.055 33.8008 277.055 36.4173C277.055 39.0338 277.917 41.2669 279.653 43.1165C281.377 44.9662 283.483 45.891 285.969 45.891C288.455 45.891 290.549 44.9662 292.284 43.1165C294.009 41.2669 294.882 39.0338 294.882 36.4173C294.882 33.8008 294.02 31.5677 292.284 29.718ZM291.613 7.57895C290.045 5.92105 288.164 5.09774 285.969 5.09774C283.774 5.09774 281.893 5.93233 280.325 7.57895C278.757 9.23684 277.973 11.2444 277.973 13.5902C277.973 15.9361 278.757 18.0226 280.325 19.703C281.893 21.3835 283.774 22.218 285.969 22.218C288.164 22.218 290.045 21.3835 291.613 19.703C293.18 18.0226 293.964 15.9925 293.964 13.5902C293.964 11.188 293.18 9.23684 291.613 7.57895Z" fill="white"/>
</g>
<defs>
<clipPath id="clip0_5_1641">
<rect width="300" height="51" fill="white"/>
</clipPath>
</defs>
</svg>
