<svg width="1426" height="252" viewBox="0 0 1426 252" fill="none" xmlns="http://www.w3.org/2000/svg">
<g clip-path="url(#clip0_2003_2816)">
<path d="M897.907 118.141H933.292V127.437H879L918.264 77.7081C922.041 72.8545 923.94 67.8569 923.94 62.6948C923.94 57.5327 922.307 53.6252 919.04 50.2935C915.773 46.9617 911.853 45.2753 907.238 45.2753C902.277 45.2753 898.234 47.0234 895.171 50.5197C892.088 54.0159 890.475 58.4376 890.332 63.7437H881.001C881.144 55.8052 883.676 49.1829 888.576 43.8974C893.476 38.6119 899.581 36 906.932 36C914.282 36 920.326 38.5296 925.512 43.5683C930.699 48.607 933.292 54.962 933.292 62.592C933.292 70.222 931.168 76.3096 926.942 81.554L897.907 118.162V118.141Z" fill="#231815"/>
<path d="M957.773 43.157C962.306 38.3857 967.86 36 974.455 36C981.05 36 986.624 38.3857 991.136 43.157C995.649 47.9283 997.915 53.8925 997.915 61.0495C997.915 65.0188 996.996 68.8235 995.2 72.4432C993.382 76.0628 990.871 78.8187 987.686 80.7313C991.545 82.644 994.567 85.5438 996.751 89.4308C998.936 93.3178 1000.04 97.6161 1000.04 102.305C1000.04 110.017 997.588 116.393 992.688 121.432C987.788 126.491 981.703 129 974.434 129C967.166 129 961.081 126.47 956.181 121.432C951.28 116.393 948.83 109.997 948.83 102.305C948.83 97.6161 949.933 93.3178 952.117 89.4308C954.302 85.5438 957.324 82.644 961.183 80.7313C957.998 78.8187 955.486 76.0628 953.669 72.4432C951.852 68.8235 950.954 65.0394 950.954 61.0495C950.954 53.8925 953.22 47.9283 957.732 43.157H957.773ZM985.971 90.1917C982.826 86.8189 978.988 85.1325 974.455 85.1325C969.922 85.1325 966.083 86.8189 962.939 90.1917C959.795 93.5646 958.202 97.6367 958.202 102.408C958.202 107.179 959.774 111.251 962.939 114.624C966.083 117.997 969.922 119.684 974.455 119.684C978.988 119.684 982.806 117.997 985.971 114.624C989.115 111.251 990.708 107.179 990.708 102.408C990.708 97.6367 989.135 93.5646 985.971 90.1917ZM984.745 49.8204C981.887 46.7972 978.457 45.2959 974.455 45.2959C970.453 45.2959 967.023 46.8178 964.164 49.8204C961.306 52.8437 959.876 56.5044 959.876 60.7822C959.876 65.0599 961.306 68.8647 964.164 71.929C967.023 74.9934 970.453 76.5153 974.455 76.5153C978.457 76.5153 981.887 74.9934 984.745 71.929C987.604 68.8647 989.033 65.1628 989.033 60.7822C989.033 56.4016 987.604 52.8437 984.745 49.8204Z" fill="#231815"/>
<path d="M1033.2 129L1026.19 123.879L1045.55 95.3744L1045.33 95.1276C1042.88 95.9297 1040.47 96.3204 1038.1 96.3204C1030.46 96.3204 1024.03 93.4206 1018.8 87.621C1013.58 81.8213 1010.96 74.8288 1010.96 66.6435C1010.96 58.4582 1013.8 50.9104 1019.48 44.9463C1025.15 38.9821 1031.95 36 1039.89 36C1047.84 36 1054.64 38.9821 1060.31 44.9463C1065.99 50.9104 1068.83 58.1497 1068.83 66.6435C1068.83 73.3275 1066.23 80.5256 1061.05 88.2174L1033.24 129H1033.2ZM1053.72 51.4452C1049.9 47.3525 1045.28 45.2959 1039.87 45.2959C1034.46 45.2959 1029.85 47.3525 1026.03 51.4452C1022.21 55.5378 1020.29 60.4942 1020.29 66.2939C1020.29 72.0935 1022.19 77.0088 1025.97 81.0192C1029.75 85.0296 1034.38 87.0451 1039.87 87.0451C1045.37 87.0451 1049.9 85.0296 1053.72 81.0192C1057.54 77.0088 1059.45 72.0935 1059.45 66.2939C1059.45 60.4942 1057.54 55.5378 1053.72 51.4452Z" fill="#231815"/>
<path d="M1089.27 43.157C1093.8 38.3857 1099.35 36 1105.95 36C1112.54 36 1118.12 38.3857 1122.63 43.157C1127.14 47.9283 1129.41 53.8925 1129.41 61.0495C1129.41 65.0188 1128.49 68.8235 1126.69 72.4432C1124.87 76.0628 1122.36 78.8187 1119.18 80.7313C1123.04 82.644 1126.06 85.5438 1128.24 89.4308C1130.43 93.3178 1131.53 97.6161 1131.53 102.305C1131.53 110.017 1129.08 116.393 1124.18 121.432C1119.28 126.491 1113.2 129 1105.93 129C1098.66 129 1092.57 126.47 1087.67 121.432C1082.77 116.393 1080.32 109.997 1080.32 102.305C1080.32 97.6161 1081.42 93.3178 1083.61 89.4308C1085.79 85.5438 1088.82 82.644 1092.68 80.7313C1089.49 78.8187 1086.98 76.0628 1085.16 72.4432C1083.34 68.8235 1082.45 65.0394 1082.45 61.0495C1082.45 53.8925 1084.71 47.9283 1089.22 43.157H1089.27ZM1117.46 90.1917C1114.32 86.8189 1110.48 85.1325 1105.95 85.1325C1101.41 85.1325 1097.58 86.8189 1094.43 90.1917C1091.29 93.5646 1089.69 97.6367 1089.69 102.408C1089.69 107.179 1091.27 111.251 1094.43 114.624C1097.58 117.997 1101.41 119.684 1105.95 119.684C1110.48 119.684 1114.3 117.997 1117.46 114.624C1120.61 111.251 1122.2 107.179 1122.2 102.408C1122.2 97.6367 1120.63 93.5646 1117.46 90.1917ZM1116.24 49.8204C1113.38 46.7972 1109.95 45.2959 1105.95 45.2959C1101.95 45.2959 1098.51 46.8178 1095.66 49.8204C1092.8 52.8437 1091.37 56.5044 1091.37 60.7822C1091.37 65.0599 1092.8 68.8647 1095.66 71.929C1098.51 74.9934 1101.95 76.5153 1105.95 76.5153C1109.95 76.5153 1113.38 74.9934 1116.24 71.929C1119.1 68.8647 1120.53 65.1628 1120.53 60.7822C1120.53 56.4016 1119.1 52.8437 1116.24 49.8204Z" fill="#231815"/>
<path d="M1200.4 46.8594H1186.5L1191.4 37.5635H1209.75V127.458H1200.4V46.8594Z" fill="#231815"/>
<path d="M1252.24 43.157C1256.77 38.3857 1262.33 36 1268.92 36C1275.52 36 1281.09 38.3857 1285.61 43.157C1290.12 47.9283 1292.38 53.8925 1292.38 61.0495C1292.38 65.0188 1291.47 68.8235 1289.67 72.4432C1287.85 76.0628 1285.34 78.8187 1282.15 80.7313C1286.01 82.644 1289.04 85.5438 1291.22 89.4308C1293.4 93.3178 1294.51 97.6161 1294.51 102.305C1294.51 110.017 1292.06 116.393 1287.16 121.432C1282.26 126.491 1276.17 129 1268.9 129C1261.63 129 1255.55 126.47 1250.65 121.432C1245.75 116.393 1243.3 109.997 1243.3 102.305C1243.3 97.6161 1244.4 93.3178 1246.59 89.4308C1248.77 85.5438 1251.79 82.644 1255.65 80.7313C1252.47 78.8187 1249.96 76.0628 1248.14 72.4432C1246.32 68.8235 1245.42 65.0394 1245.42 61.0495C1245.42 53.8925 1247.69 47.9283 1252.2 43.157H1252.24ZM1280.44 90.1917C1277.29 86.8189 1273.46 85.1325 1268.92 85.1325C1264.39 85.1325 1260.55 86.8189 1257.41 90.1917C1254.26 93.5646 1252.67 97.6367 1252.67 102.408C1252.67 107.179 1254.24 111.251 1257.41 114.624C1260.55 117.997 1264.39 119.684 1268.92 119.684C1273.46 119.684 1277.27 117.997 1280.44 114.624C1283.58 111.251 1285.18 107.179 1285.18 102.408C1285.18 97.6367 1283.6 93.5646 1280.44 90.1917ZM1279.21 49.8204C1276.36 46.7972 1272.93 45.2959 1268.92 45.2959C1264.92 45.2959 1261.49 46.8178 1258.63 49.8204C1255.77 52.8437 1254.35 56.5044 1254.35 60.7822C1254.35 65.0599 1255.77 68.8647 1258.63 71.929C1261.49 74.9934 1264.92 76.5153 1268.92 76.5153C1272.93 76.5153 1276.36 74.9934 1279.21 71.929C1282.07 68.8647 1283.5 65.1628 1283.5 60.7822C1283.5 56.4016 1282.07 52.8437 1279.21 49.8204Z" fill="#231815"/>
<path d="M1317.99 43.157C1322.52 38.3857 1328.07 36 1334.67 36C1341.26 36 1346.84 38.3857 1351.35 43.157C1355.86 47.9283 1358.13 53.8925 1358.13 61.0495C1358.13 65.0188 1357.21 68.8235 1355.41 72.4432C1353.6 76.0628 1351.09 78.8187 1347.9 80.7313C1351.76 82.644 1354.78 85.5438 1356.97 89.4308C1359.15 93.3178 1360.25 97.6161 1360.25 102.305C1360.25 110.017 1357.8 116.393 1352.9 121.432C1348 126.491 1341.92 129 1334.65 129C1327.38 129 1321.3 126.47 1316.4 121.432C1311.5 116.393 1309.04 109.997 1309.04 102.305C1309.04 97.6161 1310.15 93.3178 1312.33 89.4308C1314.52 85.5438 1317.54 82.644 1321.4 80.7313C1318.21 78.8187 1315.7 76.0628 1313.88 72.4432C1312.07 68.8235 1311.17 65.0394 1311.17 61.0495C1311.17 53.8925 1313.43 47.9283 1317.95 43.157H1317.99ZM1346.19 90.1917C1343.04 86.8189 1339.2 85.1325 1334.67 85.1325C1330.14 85.1325 1326.3 86.8189 1323.15 90.1917C1320.01 93.5646 1318.42 97.6367 1318.42 102.408C1318.42 107.179 1319.99 111.251 1323.15 114.624C1326.3 117.997 1330.14 119.684 1334.67 119.684C1339.2 119.684 1343.02 117.997 1346.19 114.624C1349.33 111.251 1350.92 107.179 1350.92 102.408C1350.92 97.6367 1349.35 93.5646 1346.19 90.1917ZM1344.96 49.8204C1342.1 46.7972 1338.67 45.2959 1334.67 45.2959C1330.67 45.2959 1327.24 46.8178 1324.38 49.8204C1321.52 52.8437 1320.09 56.5044 1320.09 60.7822C1320.09 65.0599 1321.52 68.8647 1324.38 71.929C1327.24 74.9934 1330.67 76.5153 1334.67 76.5153C1338.67 76.5153 1342.1 74.9934 1344.96 71.929C1347.82 68.8647 1349.25 65.1628 1349.25 60.7822C1349.25 56.4016 1347.82 52.8437 1344.96 49.8204Z" fill="#231815"/>
<path d="M1383.74 43.157C1388.27 38.3857 1393.82 36 1400.42 36C1407.01 36 1412.59 38.3857 1417.1 43.157C1421.61 47.9283 1423.88 53.8925 1423.88 61.0495C1423.88 65.0188 1422.96 68.8235 1421.16 72.4432C1419.34 76.0628 1416.83 78.8187 1413.65 80.7313C1417.51 82.644 1420.53 85.5438 1422.71 89.4308C1424.9 93.3178 1426 97.6161 1426 102.305C1426 110.017 1423.55 116.393 1418.65 121.432C1413.75 126.491 1407.67 129 1400.4 129C1393.13 129 1387.04 126.47 1382.14 121.432C1377.24 116.393 1374.79 109.997 1374.79 102.305C1374.79 97.6161 1375.89 93.3178 1378.08 89.4308C1380.26 85.5438 1383.29 82.644 1387.14 80.7313C1383.96 78.8187 1381.45 76.0628 1379.63 72.4432C1377.81 68.8235 1376.92 65.0394 1376.92 61.0495C1376.92 53.8925 1379.18 47.9283 1383.69 43.157H1383.74ZM1411.93 90.1917C1408.79 86.8189 1404.95 85.1325 1400.42 85.1325C1395.88 85.1325 1392.05 86.8189 1388.9 90.1917C1385.76 93.5646 1384.16 97.6367 1384.16 102.408C1384.16 107.179 1385.74 111.251 1388.9 114.624C1392.05 117.997 1395.88 119.684 1400.42 119.684C1404.95 119.684 1408.77 117.997 1411.93 114.624C1415.08 111.251 1416.67 107.179 1416.67 102.408C1416.67 97.6367 1415.1 93.5646 1411.93 90.1917ZM1410.71 49.8204C1407.85 46.7972 1404.42 45.2959 1400.42 45.2959C1396.41 45.2959 1392.98 46.8178 1390.13 49.8204C1387.27 52.8437 1385.84 56.5044 1385.84 60.7822C1385.84 65.0599 1387.27 68.8647 1390.13 71.929C1392.98 74.9934 1396.41 76.5153 1400.42 76.5153C1404.42 76.5153 1407.85 74.9934 1410.71 71.929C1413.57 68.8647 1415 65.1628 1415 60.7822C1415 56.4016 1413.57 52.8437 1410.71 49.8204Z" fill="#231815"/>
</g>
<path d="M69.336 41.856H130.488V49.76H69.336V41.856ZM99.392 99.992H126.744V107.792H99.392V99.992ZM67.776 69.728H132.984V77.528H67.776V69.728ZM73.808 55.584H125.912V92.192H73.808V84.704H116.76V63.28H73.808V55.584ZM94.296 33.224H103.448V124.12L94.296 119.128V33.224ZM74.224 93.856L83.272 95C81.088 109.976 76.096 122.248 68.088 130.256C66.424 128.696 62.68 125.992 60.496 124.744C68.4 117.88 72.56 106.856 74.224 93.856ZM80.36 103.008C86.08 117.36 97.624 120.376 112.808 120.376C115.512 120.376 129.032 120.376 132.984 120.272C131.736 122.352 130.384 126.408 130.072 128.8H112.288C93.36 128.8 80.88 124.432 73.392 105.816L80.36 103.008ZM34.496 86.472C42.712 84.392 54.984 80.752 66.736 77.216L68.088 86.16C57.272 89.696 45.832 93.232 36.888 95.936L34.496 86.472ZM36.056 53.712H67.776V62.76H36.056V53.712ZM48.224 33.328H57.272V118.92C57.272 123.912 56.336 126.512 53.424 127.968C50.72 129.528 46.456 129.84 39.8 129.84C39.488 127.448 38.344 123.392 37.096 120.688C41.36 120.896 45.208 120.896 46.456 120.792C47.704 120.792 48.224 120.376 48.224 118.92V33.328ZM195.904 47.784H205.472V115.696H195.904V47.784ZM182.696 82.624V88.448H219.2V82.624H182.696ZM182.696 70.976V76.696H219.2V70.976H182.696ZM174.584 64.632H227.624V94.792H174.584V64.632ZM168.864 36.76H232.096V56.104H222.632V44.144H177.912V56.104H168.864V36.76ZM177.08 52.36H224.504V59.432H177.08V52.36ZM169.696 100.408H233.344V107.896H169.696V100.408ZM143.8 37.592L151.288 33.224C155.864 38.32 161.272 44.976 163.976 49.24L156.176 54.44C153.68 50.072 148.168 42.792 143.8 37.592ZM140.576 57.56H162.416V65.568H140.576V57.56ZM160.232 103.944C166.264 117.776 179.264 119.544 199.232 119.648C210.256 119.648 226.376 119.128 237.504 118.088C236.048 120.064 234.904 124.536 234.384 127.24C224.088 127.864 210.88 128.072 199.128 128.072C174.792 128.072 161.48 125.16 153.68 106.752L160.232 103.944ZM158.464 83.04H161.376L162.936 82.832L167.2 84.496C164.08 106.856 156.072 121.936 145.152 130.048C143.904 128.072 140.576 124.744 138.704 123.392C149 116.32 155.968 103.112 158.464 84.6V83.04ZM142.344 92.296V85.12L146.4 83.04H162.312V90.84H148.584C145.984 90.84 143.176 91.464 142.344 92.296ZM142.344 92.296C141.72 90.216 139.848 85.848 138.912 83.976C140.576 83.56 142.24 82.832 144.112 80.752C147.128 77.736 156.592 63.904 160.024 58.288V57.976L162.728 56.832L168.864 59.64C164.08 66.816 155.032 79.92 149.312 86.68C149.312 86.68 142.344 90.008 142.344 92.296ZM246.24 58.912H277.024V68.688H246.24V58.912ZM297.824 35.096H308.016V110.08C308.016 115.488 308.64 116.424 312.384 116.424C314.048 116.424 321.536 116.424 323.408 116.424C327.776 116.424 328.4 111.536 329.024 91.984C331.52 94.064 335.784 96.04 338.488 96.664C337.552 118.296 335.16 125.992 324.344 125.992C322.264 125.992 313.008 125.992 311.032 125.992C300.84 125.992 297.824 122.456 297.824 109.976V35.096ZM271.72 35.096H281.912V112.368H271.72V35.096ZM242.808 118.608C254.04 114.968 272.24 108.312 288.88 102.072L290.648 110.808C275.672 117.152 259.552 123.704 247.384 128.592L242.808 118.608ZM303.128 58.808H336.408V68.584H303.128V58.808ZM347.12 87.304C355.752 85.328 368.232 82 380.296 78.776L381.648 87.72C370.624 90.944 358.976 94.272 349.824 96.768L347.12 87.304ZM348.368 53.712H383.624V62.864H348.368V53.712ZM361.888 33.224H371.456V118.088C371.456 123.184 370.416 125.784 367.296 127.24C364.28 128.8 359.6 129.008 352.32 129.008C352.008 126.512 350.76 122.456 349.512 119.96C354.088 120.168 358.56 120.064 359.808 120.064C361.264 120.064 361.888 119.544 361.888 118.088V33.224ZM394.96 36.864H422.624V46.016H394.96V36.864ZM383.104 78.88H430.736V88.032H383.104V78.88ZM427.408 78.88H429.28L431.048 78.464L437.496 81.168C428.448 109.352 406.296 123.496 379.984 129.944C379.152 127.24 376.968 123.08 375.096 120.896C399.328 116.216 420.128 103.216 427.408 80.336V78.88ZM394.232 85.952C402.552 103.736 420.232 116.216 444.256 120.896C442.072 123.08 439.368 127.24 438.016 129.944C413.056 124.12 395.688 110.08 385.704 88.968L394.232 85.952ZM392.776 36.864H401.928V48.512C401.928 58.288 399.016 69.728 385.6 76.8C384.352 74.928 380.92 71.08 379.048 69.624C391.112 63.592 392.776 55.48 392.776 48.2V36.864ZM418.048 36.864H427.408V60.368C427.408 63.384 427.72 64.424 429.28 64.424C430.632 64.424 435 64.424 436.352 64.424C437.912 64.424 440.408 64.216 441.76 63.904C441.968 66.296 442.176 69.936 442.592 72.12C441.136 72.744 438.744 72.848 436.456 72.848C434.896 72.848 430.008 72.848 428.552 72.848C419.92 72.848 418.048 69.208 418.048 60.16V36.864ZM453.512 52.256H494.592V61.304H453.512V52.256ZM452.472 110.08C462.768 108.104 478.264 104.568 492.928 101.136L493.864 110.184C480.24 113.616 465.68 117.152 454.76 119.856L452.472 110.08ZM457.36 67.128L465.056 65.672C467.448 77.112 469.528 91.672 470.152 101.656L462.04 103.216C461.624 93.336 459.544 78.464 457.36 67.128ZM481.072 64.528L490.224 66.192C488.04 79.712 484.712 97.08 481.8 107.584L474.52 105.92C477.224 95.208 479.928 77.216 481.072 64.528ZM465.472 36.24L474 33.744C476.912 38.528 479.824 44.872 481.072 49.032L472.232 52.048C471.088 47.784 468.176 41.128 465.472 36.24ZM518.2 53.712H548.152V63.072H518.2V53.712ZM500.52 115.592H538.896V124.744H500.52V115.592ZM512.584 33.12H522.672V86.68H512.584V33.12ZM496.048 82.624H544.096V129.216H534.112V91.88H505.616V129.632H496.048V82.624ZM579.768 122.456C567.808 122.456 560.008 117.672 554.808 111.848L560.736 104.152C565.208 108.728 570.824 112.576 578.832 112.576C587.36 112.576 593.288 107.792 593.288 99.888C593.288 91.36 587.88 85.952 570.72 85.952V77.008C585.696 77.008 590.688 71.392 590.688 63.696C590.688 56.936 586.32 52.672 578.936 52.672C573.112 52.672 568.12 55.48 563.752 59.848L557.408 52.256C563.544 46.848 570.616 43.104 579.456 43.104C593.184 43.104 602.856 50.176 602.856 62.76C602.856 71.6 597.76 77.736 589.648 80.752V81.272C598.488 83.56 605.456 90.112 605.456 100.512C605.456 114.344 593.912 122.456 579.768 122.456ZM639.185 122.456C627.121 122.456 619.529 117.568 614.017 112.16L619.841 104.36C624.105 108.728 629.721 112.576 637.729 112.576C646.361 112.576 652.809 106.44 652.809 96.248C652.809 86.16 646.985 80.336 638.249 80.336C633.465 80.336 630.553 81.688 626.081 84.6L620.153 80.856L622.441 44.456H661.337V54.648H632.945L631.177 74.2C634.401 72.536 637.521 71.6 641.681 71.6C654.473 71.6 664.977 79.088 664.977 95.936C664.977 112.784 652.497 122.456 639.185 122.456ZM700.265 122.456C685.185 122.456 675.513 109.04 675.513 82.416C675.513 56 685.185 43.104 700.265 43.104C715.241 43.104 725.017 56 725.017 82.416C725.017 109.04 715.241 122.456 700.265 122.456ZM700.265 112.888C708.065 112.888 713.473 104.568 713.473 82.416C713.473 60.576 708.065 52.464 700.265 52.464C692.465 52.464 686.953 60.576 686.953 82.416C686.953 104.568 692.465 112.888 700.265 112.888ZM735.554 72.848H828.218V82.728H735.554V72.848ZM776.53 33.328H787.034V129.736H776.53V33.328ZM813.138 38.112L823.954 42.376C818.754 51.424 812.202 61.616 807.002 68.064L798.474 64.216C803.57 57.352 809.706 46.328 813.138 38.112ZM741.17 42.688L750.01 38.84C755.938 46.224 761.97 56.104 764.466 62.864L754.794 67.232C752.714 60.68 746.786 50.384 741.17 42.688ZM763.426 87.928L772.058 91.048C765.09 106.024 752.922 121.104 741.274 129.424C739.61 127.032 736.282 123.392 733.994 121.416C745.225 114.448 757.186 100.824 763.426 87.928ZM791.402 92.192L799.202 87.408C811.058 98.328 824.37 113.408 830.194 124.016L821.562 129.528C816.258 119.024 803.362 103.32 791.402 92.192Z" fill="#9F291C"/>
<path d="M36.47 170.4V240.4H33.46V170.4H36.47ZM101.29 197.7V201.48H127.96V197.7H101.29ZM101.29 190.28V193.99H127.96V190.28H101.29ZM95.27 186.43H134.33V205.4H95.27V186.43ZM92.05 209.25C102.06 209.25 117.6 208.97 132.23 208.69L132.02 213.31C117.88 213.73 102.97 214.15 92.61 214.36L92.05 209.25ZM123.13 205.89L127.54 203.44C131.32 206.24 135.94 210.37 138.11 213.24L133.35 216.04C131.32 213.24 126.91 208.9 123.13 205.89ZM111.3 173.48H117.74V211.21L111.3 211.84V173.48ZM90.65 217.51H137.48V222.69H90.65V217.51ZM121.59 211.84H128.03V231.44C128.03 234.66 127.33 236.27 124.95 237.11C122.57 238.02 118.93 238.02 113.68 238.02C113.4 236.34 112.56 234.03 111.79 232.42C115.57 232.56 119.14 232.56 120.26 232.49C121.31 232.42 121.59 232.14 121.59 231.3V211.84ZM97.58 225L102.41 221.99C105.63 224.65 109.48 228.5 111.3 231.16L106.12 234.66C104.44 232 100.73 227.87 97.58 225ZM92.4 178.1H136.78V183H92.4V178.1ZM87.64 173.2L93.87 175.16C89.32 187.06 82.11 199.24 74.48 207.15C73.85 205.54 72.03 201.97 70.84 200.43C77.56 193.85 83.86 183.56 87.64 173.2ZM80.64 191.82L86.87 185.52L86.94 185.59V237.81H80.64V191.82ZM172.06 189.3H178.78V229.55C178.78 233.26 177.94 235.01 175.35 236.06C172.83 237.11 168.84 237.25 162.96 237.25C162.61 235.43 161.56 232.63 160.58 230.88C164.92 231.02 169.12 231.02 170.38 231.02C171.64 230.95 172.06 230.6 172.06 229.55V189.3ZM153.72 175.37H191.73V181.46H153.72V175.37ZM189.7 175.37H191.38L192.85 175.09L197.4 178.38C191.94 184.12 183.75 189.93 175.84 193.5C174.93 192.24 173.11 190.35 172.06 189.3C178.78 186.29 186.27 180.83 189.7 176.7V175.37ZM164.22 195.18H186.06V200.78H164.22V195.18ZM144.41 190.49H159.04V196.51H144.41V190.49ZM162.82 205.96H187.25V211.63H162.82V205.96ZM159.67 217.09H190.47V222.76H159.67V217.09ZM200.48 186.43L205.66 190.77C201.46 194.55 196.21 198.89 192.22 201.55L188.23 197.77C192.08 194.97 197.4 190.14 200.48 186.43ZM193.9 196.79C196 209.32 200.55 220.87 208.18 226.54C206.64 227.8 204.54 230.25 203.49 232C195.16 225.07 190.68 212.4 188.23 197.77L193.9 196.79ZM157.29 190.49H158.55L159.74 190.21L163.87 191.68C161.28 209.81 155.05 224.09 147.07 231.65C146.02 230.18 143.57 227.73 142.1 226.75C149.73 219.89 155.26 207.15 157.29 191.89V190.49ZM241.43 214.36H247.87V232.7H241.43V214.36ZM225.19 187.55H264.67V192.17H225.19V187.55ZM230.58 199.94V204.49H258.72V199.94H230.58ZM224.49 195.39H265.16V208.9H224.49V195.39ZM219.59 212.33H270.76V237.81H264.25V217.3H225.89V238.02H219.59V212.33ZM224 221.85H266.49V226.19H224V221.85ZM224.07 230.95H266.42V235.85H224.07V230.95ZM215.39 178.24H274.75V192.45H268.1V183.91H221.76V192.45H215.39V178.24ZM239.26 173.62L246.4 172.15C247.73 174.39 249.27 177.4 249.97 179.36L242.69 181.18C241.99 179.15 240.52 176 239.26 173.62ZM301.14 200.5V204.49H328.58V200.5H301.14ZM301.14 192.31V196.23H328.58V192.31H301.14ZM295.19 187.76H334.74V209.11H295.19V187.76ZM335.79 212.89H342.16V231.58C342.16 234.52 341.6 235.99 339.5 236.9C337.4 237.74 334.32 237.74 329.91 237.74C329.7 236.13 328.86 234.03 328.09 232.56C331.1 232.7 333.83 232.7 334.67 232.56C335.51 232.56 335.79 232.28 335.79 231.58V212.89ZM311.57 189.58H317.73V225.77L311.57 226.61V189.58ZM297.57 224.3C305.41 224.09 317.24 223.74 328.86 223.32L328.72 228.43C317.66 229.06 306.11 229.62 297.99 229.9L297.57 224.3ZM322.63 220.45L327.18 218.77C329.63 221.99 332.29 226.47 333.41 229.34L328.65 231.23C327.6 228.29 325.08 223.74 322.63 220.45ZM285.39 178.52H344.89V192.03H338.52V184.26H291.41V192.03H285.39V178.52ZM309.89 173.83L316.89 172.29C318.43 174.88 320.11 178.31 320.74 180.62L313.39 182.3C312.83 180.13 311.36 176.49 309.89 173.83ZM285.6 212.89H338.45V218.35H285.6V212.89ZM288.33 210.79H294.56V237.88H288.33V210.79ZM368.69 232.98C360.64 232.98 355.39 229.76 351.89 225.84L355.88 220.66C358.89 223.74 362.67 226.33 368.06 226.33C373.8 226.33 377.79 223.11 377.79 217.79C377.79 212.05 374.15 208.41 362.6 208.41V202.39C372.68 202.39 376.04 198.61 376.04 193.43C376.04 188.88 373.1 186.01 368.13 186.01C364.21 186.01 360.85 187.9 357.91 190.84L353.64 185.73C357.77 182.09 362.53 179.57 368.48 179.57C377.72 179.57 384.23 184.33 384.23 192.8C384.23 198.75 380.8 202.88 375.34 204.91V205.26C381.29 206.8 385.98 211.21 385.98 218.21C385.98 227.52 378.21 232.98 368.69 232.98ZM395.872 232V225.35H407.212V189.51H397.902V184.4C402.802 183.56 406.162 182.3 409.172 180.48H415.262V225.35H425.342V232H395.872ZM433.134 215.27V209.25H451.614V215.27H433.134ZM473.553 232.98C465.503 232.98 460.253 229.76 456.753 225.84L460.743 220.66C463.753 223.74 467.533 226.33 472.923 226.33C478.663 226.33 482.653 223.11 482.653 217.79C482.653 212.05 479.013 208.41 467.463 208.41V202.39C477.543 202.39 480.903 198.61 480.903 193.43C480.903 188.88 477.963 186.01 472.993 186.01C469.073 186.01 465.713 187.9 462.773 190.84L458.503 185.73C462.633 182.09 467.393 179.57 473.343 179.57C482.583 179.57 489.093 184.33 489.093 192.8C489.093 198.75 485.663 202.88 480.203 204.91V205.26C486.153 206.8 490.843 211.21 490.843 218.21C490.843 227.52 483.073 232.98 473.553 232.98ZM511.795 232.98C505.845 232.98 501.575 230.53 498.635 227.45L502.975 222.48C505.075 224.79 508.225 226.33 511.445 226.33C517.955 226.33 523.485 220.87 523.485 204.49C523.485 191.61 519.495 185.73 513.195 185.73C508.715 185.73 505.215 189.72 505.215 196.51C505.215 203.02 508.225 206.8 513.615 206.8C516.835 206.8 520.475 204.98 523.485 200.29L523.905 206.17C520.895 210.16 516.275 212.68 512.145 212.68C503.535 212.68 497.725 207.29 497.725 196.51C497.725 186.22 504.725 179.57 513.125 179.57C522.995 179.57 530.975 187.48 530.975 204.49C530.975 224.79 521.735 232.98 511.795 232.98ZM558.437 207.5H602.187V213.8H558.437V207.5ZM560.397 176.35H600.297V182.65H560.397V176.35ZM576.917 177.82H583.567V237.88H576.917V177.82ZM592.527 185.73L598.757 187.06C597.007 193.01 594.907 199.94 593.087 204.35L588.047 202.95C589.727 198.4 591.617 190.91 592.527 185.73ZM562.497 187.48L567.817 186.15C569.777 191.54 571.317 198.4 571.877 202.95L566.207 204.42C565.857 199.8 564.247 192.87 562.497 187.48ZM537.997 189.51H557.807V195.81H537.997V189.51ZM545.347 173.83H551.437V219.68H545.347V173.83ZM536.807 220.87C542.197 219.19 550.457 216.32 558.297 213.52L559.417 219.4C552.417 222.34 544.997 225.28 539.117 227.59L536.807 220.87ZM641.177 170.4V240.4H638.167V170.4H641.177ZM706.767 185.45V188.04H729.237V185.45H706.767ZM706.767 190.91V193.57H729.237V190.91H706.767ZM706.767 179.99V182.58H729.237V179.99H706.767ZM700.607 177.05H735.677V196.58H700.607V177.05ZM714.467 172.85L721.327 173.55C719.927 175.79 718.317 177.68 717.197 179.08L712.087 178.1C712.997 176.35 713.977 174.25 714.467 172.85ZM695.777 199.17H740.437V205.75H734.487V202.67H701.587V206.24H695.777V199.17ZM696.617 212.26H740.017V216.18H696.617V212.26ZM709.707 218.35H729.587V222.06H709.707V218.35ZM728.187 218.35H733.857C733.857 218.35 733.787 219.68 733.577 220.38C732.807 224.79 731.827 227.03 730.427 228.22C729.237 229.13 727.907 229.41 726.227 229.41C724.687 229.48 721.747 229.48 718.667 229.27C718.597 228.15 718.107 226.54 717.477 225.42C720.207 225.7 722.867 225.7 723.847 225.7C724.897 225.7 725.457 225.63 725.947 225.28C726.787 224.58 727.487 222.76 728.187 218.91V218.35ZM709.637 214.5H715.237C713.977 221.92 710.617 226.82 700.397 229.55C699.837 228.29 698.437 226.19 697.317 225.21C705.997 223.25 708.587 219.75 709.637 214.5ZM713.697 196.09L719.927 195.18C720.837 196.86 721.887 199.1 722.237 200.5L715.727 201.62C715.307 200.22 714.467 197.84 713.697 196.09ZM713.627 208.9L719.017 207.64C720.067 209.6 721.397 212.19 722.027 213.87L716.357 215.41C715.797 213.66 714.607 210.93 713.627 208.9ZM722.237 201.06H727.697V205.54C727.697 206.73 727.767 207.22 729.237 207.22C730.147 207.22 733.437 207.22 734.417 207.22C735.607 207.22 738.127 207.08 739.107 206.87C739.177 208.13 739.177 208.83 739.457 210.23C738.547 210.51 736.377 210.51 734.697 210.51C733.157 210.51 728.257 210.51 726.787 210.51C722.797 210.51 722.237 208.55 722.237 205.47V201.06ZM710.617 201.48H716.637C714.607 207.43 709.917 209.95 699.207 211.56C698.717 210.44 697.527 208.97 696.547 208.13C705.507 207.08 709.147 205.19 710.617 201.48ZM679.957 175.86L684.997 172.92C688.077 176.35 691.717 180.83 693.537 183.7L688.287 187.2C686.607 184.26 682.897 179.36 679.957 175.86ZM677.717 189.16H692.207V194.55H677.717V189.16ZM691.017 220.52C695.077 229.83 703.827 231.02 717.267 231.09C724.687 231.09 735.537 230.74 743.027 230.04C742.047 231.37 741.277 234.38 740.927 236.2C733.997 236.62 725.107 236.76 717.197 236.76C700.817 236.76 691.857 234.8 686.607 222.41L691.017 220.52ZM689.407 206.45H691.367L692.487 206.31L695.357 207.43C693.257 222.34 688.147 232.56 681.007 238.02C680.097 236.76 677.927 234.52 676.597 233.61C683.317 228.78 687.867 219.89 689.407 207.5V206.45ZM679.187 212.68V207.85L681.917 206.45H692.697L692.627 211.7H683.387C681.637 211.7 679.747 212.12 679.187 212.68ZM679.187 212.68C678.837 211.28 677.577 208.34 676.947 207.15C677.997 206.8 679.117 206.31 680.237 204.98C682.197 202.88 688.077 193.5 690.177 189.65V189.51L691.927 188.74L696.127 190.42C693.117 195.25 687.447 204.35 683.807 208.9C683.807 208.9 679.187 211.14 679.187 212.68ZM769.487 215.76H789.787V220.66H769.487V215.76ZM769.137 205.26H792.867V231.37H769.137V226.4H786.637V210.3H769.137V205.26ZM766.337 205.26H772.357V234.94H766.337V205.26ZM753.947 185.66H772.567V190.28H753.947V185.66ZM786.287 185.66H805.187V190.28H786.287V185.66ZM802.457 175.79H809.107V229.69C809.107 233.54 808.337 235.57 805.817 236.69C803.297 237.81 799.447 237.88 793.497 237.88C793.217 236.06 792.237 232.98 791.257 231.16C795.247 231.37 799.517 231.3 800.777 231.23C802.037 231.23 802.457 230.81 802.457 229.62V175.79ZM754.437 175.79H776.767V200.43H754.437V195.53H770.537V180.76H754.437V175.79ZM805.887 175.79V180.76H788.667V195.67H805.887V200.57H782.367V175.79H805.887ZM750.657 175.79H757.237V237.95H750.657V175.79ZM833.397 232.98C825.347 232.98 820.097 229.76 816.597 225.84L820.587 220.66C823.597 223.74 827.377 226.33 832.767 226.33C838.507 226.33 842.497 223.11 842.497 217.79C842.497 212.05 838.857 208.41 827.307 208.41V202.39C837.387 202.39 840.747 198.61 840.747 193.43C840.747 188.88 837.807 186.01 832.837 186.01C828.917 186.01 825.557 187.9 822.617 190.84L818.347 185.73C822.477 182.09 827.237 179.57 833.187 179.57C842.427 179.57 848.937 184.33 848.937 192.8C848.937 198.75 845.507 202.88 840.047 204.91V205.26C845.997 206.8 850.687 211.21 850.687 218.21C850.687 227.52 842.917 232.98 833.397 232.98ZM889.279 203.79L895.789 202.39C897.469 204.77 899.079 207.99 899.779 210.23L892.989 211.91C892.429 209.67 890.889 206.24 889.279 203.79ZM867.859 208.2H921.199V213.52H867.859V208.2ZM886.899 218.21H909.439V223.39H886.899V218.21ZM907.619 218.21H914.199C914.199 218.21 914.129 219.82 913.989 220.66C913.149 229.97 912.169 234.17 910.349 235.92C908.949 237.25 907.409 237.67 905.239 237.81C903.419 238.02 899.919 237.95 896.209 237.81C896.139 236.13 895.439 233.75 894.459 232.28C897.819 232.56 901.179 232.63 902.439 232.63C903.629 232.63 904.329 232.56 904.959 232C906.079 230.95 906.919 227.45 907.619 218.98V218.21ZM885.009 210.44H891.589C890.259 223.74 886.689 233.05 870.379 238.02C869.749 236.48 868.069 234.1 866.669 232.84C881.369 228.92 883.889 221.29 885.009 210.44ZM868.769 186.22H916.579V202.32H868.769V197.21H909.999V191.4H868.769V186.22ZM910.069 173.06L915.179 177.96C902.019 180.83 882.909 182.65 866.669 183.42C866.459 181.88 865.619 179.5 864.989 178.17C880.949 177.33 899.499 175.44 910.069 173.06ZM864.989 178.17H871.499V200.64C871.499 211.84 870.169 228.29 861.769 238.44C860.789 237.18 858.199 234.59 856.939 233.75C864.289 224.37 864.989 210.79 864.989 200.57V178.17ZM961.099 170.4V240.4H958.089V170.4H961.099Z" fill="#231815"/>
<mask id="mask0_2003_2816" style="mask-type:luminance" maskUnits="userSpaceOnUse" x="1050" y="196" width="20" height="30">
<path d="M1050.94 225.87L1050.88 196.9H1057.65L1057.67 207.83H1063.11L1063.09 196.87H1069.71L1069.77 225.83H1063.15L1063.13 213.82H1057.69L1057.71 225.85H1050.94V225.87Z" fill="white"/>
</mask>
<g mask="url(#mask0_2003_2816)">
<path d="M1050.88 196.9L1050.94 225.87H1050.88V196.9Z" fill="white"/>
<path d="M1050.94 196.87L1051 225.87H1050.94L1050.88 196.9V196.87H1050.94Z" fill="white"/>
<path d="M1051 196.87L1051.06 225.87H1051L1050.94 196.87H1051Z" fill="#FEFEFE"/>
<path d="M1051.07 196.87L1051.12 225.87H1051.06L1051 196.87H1051.07Z" fill="#FCFCFD"/>
<path d="M1051.13 196.87L1051.19 225.87H1051.12L1051.07 196.87H1051.13Z" fill="#FAFAFB"/>
<path d="M1051.19 196.87L1051.25 225.87H1051.19L1051.13 196.87H1051.19Z" fill="#F8F8F9"/>
<path d="M1051.25 196.87L1051.31 225.87H1051.25L1051.19 196.87H1051.25Z" fill="#F6F6F7"/>
<path d="M1051.32 196.87L1051.37 225.87H1051.31L1051.25 196.87H1051.32Z" fill="#F4F4F5"/>
<path d="M1051.38 196.87L1051.44 225.87H1051.37L1051.32 196.87H1051.38Z" fill="#F2F2F3"/>
<path d="M1051.44 196.87L1051.5 225.87H1051.44L1051.38 196.87H1051.44Z" fill="#F0F0F1"/>
<path d="M1051.5 196.87L1051.56 225.87H1051.5L1051.44 196.87H1051.5Z" fill="#EFEEF0"/>
<path d="M1051.57 196.87L1051.62 225.87H1051.56L1051.5 196.87H1051.57Z" fill="#EDECEE"/>
<path d="M1051.63 196.87L1051.69 225.87H1051.62L1051.57 196.87H1051.63Z" fill="#EBEBEC"/>
<path d="M1051.69 196.87L1051.75 225.87H1051.69L1051.63 196.87H1051.69Z" fill="#E9E9EA"/>
<path d="M1051.75 196.87L1051.81 225.87H1051.75L1051.69 196.87H1051.75Z" fill="#E8E7E9"/>
<path d="M1051.82 196.87L1051.87 225.87H1051.81L1051.75 196.87H1051.82Z" fill="#E6E5E7"/>
<path d="M1051.88 196.87L1051.93 225.87H1051.87L1051.82 196.87H1051.88Z" fill="#E4E3E5"/>
<path d="M1051.94 196.87L1052 225.87H1051.93L1051.88 196.87H1051.94Z" fill="#E2E2E4"/>
<path d="M1052 196.87L1052.06 225.87H1052L1051.94 196.87H1052Z" fill="#E1E0E2"/>
<path d="M1052.06 196.87L1052.12 225.87H1052.06L1052 196.87H1052.06Z" fill="#DFDEE1"/>
<path d="M1052.13 196.87L1052.18 225.87H1052.12L1052.06 196.87H1052.13Z" fill="#DDDDDF"/>
<path d="M1052.19 196.87L1052.25 225.87H1052.18L1052.13 196.87H1052.19Z" fill="#DCDBDE"/>
<path d="M1052.25 196.87L1052.31 225.87H1052.25L1052.19 196.87H1052.25Z" fill="#DAD9DC"/>
<path d="M1052.31 196.87L1052.37 225.87H1052.31L1052.25 196.87H1052.31Z" fill="#D9D8DB"/>
<path d="M1052.38 196.87L1052.43 225.87H1052.37L1052.31 196.87H1052.38Z" fill="#D7D6D9"/>
<path d="M1052.44 196.87L1052.5 225.87H1052.43L1052.38 196.87H1052.44Z" fill="#D6D5D8"/>
<path d="M1052.5 196.87L1052.56 225.87H1052.5L1052.44 196.87H1052.5Z" fill="#D4D3D6"/>
<path d="M1052.56 196.87L1052.62 225.87H1052.56L1052.5 196.87H1052.56Z" fill="#D3D2D5"/>
<path d="M1052.63 196.87L1052.68 225.87H1052.62L1052.56 196.87H1052.63Z" fill="#D1D0D4"/>
<path d="M1052.69 196.87L1052.75 225.87H1052.68L1052.63 196.87H1052.69Z" fill="#D0CFD2"/>
<path d="M1052.75 196.87L1052.81 225.87H1052.75L1052.69 196.87H1052.75Z" fill="#CECED1"/>
<path d="M1052.81 196.87L1052.87 225.87H1052.81L1052.75 196.87H1052.81Z" fill="#CDCCD0"/>
<path d="M1052.88 196.87L1052.93 225.87H1052.87L1052.81 196.87H1052.88Z" fill="#CCCBCF"/>
<path d="M1052.94 196.87L1052.99 225.87H1052.93L1052.88 196.87H1052.94Z" fill="#CACACD"/>
<path d="M1053 196.87L1053.06 225.87H1052.99L1052.94 196.87H1053Z" fill="#C9C8CC"/>
<path d="M1053.06 196.87L1053.12 225.87H1053.06L1053 196.87H1053.06Z" fill="#C8C7CB"/>
<path d="M1053.12 196.87L1053.18 225.87H1053.12L1053.06 196.87H1053.12Z" fill="#C7C6CA"/>
<path d="M1053.19 196.87L1053.24 225.87H1053.18L1053.12 196.87H1053.19Z" fill="#C5C5C9"/>
<path d="M1053.25 196.87L1053.31 225.87H1053.24L1053.19 196.87H1053.25Z" fill="#C4C3C8"/>
<path d="M1053.31 196.87L1053.37 225.87H1053.31L1053.25 196.87H1053.31Z" fill="#C3C2C7"/>
<path d="M1053.37 196.87L1053.43 225.87H1053.37L1053.31 196.87H1053.37Z" fill="#C2C1C5"/>
<path d="M1053.44 196.87L1053.49 225.87H1053.43L1053.37 196.87H1053.44Z" fill="#C1C0C4"/>
<path d="M1053.5 196.87L1053.56 225.87H1053.49L1053.44 196.87H1053.5Z" fill="#C0BFC3"/>
<path d="M1053.56 196.87L1053.62 225.87H1053.56L1053.5 196.87H1053.56Z" fill="#BEBEC2"/>
<path d="M1053.62 196.87L1053.68 225.87H1053.62L1053.56 196.87H1053.62Z" fill="#BDBDC1"/>
<path d="M1053.69 196.87L1053.74 225.87H1053.68L1053.62 196.87H1053.69Z" fill="#BCBCC0"/>
<path d="M1053.75 196.87L1053.81 225.87H1053.74L1053.69 196.87H1053.75Z" fill="#BBBBBF"/>
<path d="M1053.81 196.87L1053.87 225.87H1053.81L1053.75 196.87H1053.81Z" fill="#BABABF"/>
<path d="M1053.87 196.87L1053.93 225.87H1053.87L1053.81 196.87H1053.87Z" fill="#B9B9BE"/>
<path d="M1053.94 196.87L1053.99 225.87H1053.93L1053.87 196.87H1053.94Z" fill="#B8B8BD"/>
<path d="M1054 196.87L1054.05 225.87H1053.99L1053.94 196.87H1054Z" fill="#B7B7BC"/>
<path d="M1054.06 196.87L1054.12 225.87H1054.05L1054 196.87H1054.06Z" fill="#B6B6BB"/>
<path d="M1054.12 196.87L1054.18 225.87H1054.12L1054.06 196.87H1054.12Z" fill="#B5B5BA"/>
<path d="M1054.19 196.87L1054.24 225.87H1054.18L1054.12 196.87H1054.19Z" fill="#B4B4B9"/>
<path d="M1054.25 196.87L1054.3 225.87H1054.24L1054.19 196.87H1054.25Z" fill="#B3B3B9"/>
<path d="M1054.31 196.87L1054.37 225.87H1054.3L1054.25 196.87H1054.31Z" fill="#B2B2B8"/>
<path d="M1054.37 196.87L1054.43 225.87H1054.37L1054.31 196.87H1054.37Z" fill="#B2B2B7"/>
<path d="M1054.43 196.87L1054.49 225.87H1054.43L1054.37 196.87H1054.43Z" fill="#B1B1B6"/>
<path d="M1054.5 196.87L1054.55 225.87H1054.49L1054.43 196.87H1054.5Z" fill="#B0B0B6"/>
<path d="M1054.56 196.87L1054.62 225.87H1054.55L1054.5 196.87H1054.56Z" fill="#AFAFB5"/>
<path d="M1054.62 196.87L1054.68 225.87H1054.62L1054.56 196.87H1054.62Z" fill="#AEAFB4"/>
<path d="M1054.68 196.87L1054.74 225.87H1054.68L1054.62 196.87H1054.68Z" fill="#ADAEB4"/>
<path d="M1054.75 196.87L1054.8 225.87H1054.74L1054.68 196.87H1054.75Z" fill="#ADADB3"/>
<path d="M1054.81 196.87L1054.87 225.87H1054.8L1054.75 196.87H1054.81Z" fill="#ACADB2"/>
<path d="M1054.87 196.87L1054.93 225.87H1054.87L1054.81 196.87H1054.87Z" fill="#ABACB2"/>
<path d="M1054.93 196.87L1054.99 225.87H1054.93L1054.87 196.87H1054.93Z" fill="#ABABB1"/>
<path d="M1055 196.87L1055.05 225.87H1054.99L1054.93 196.87H1055Z" fill="#AAABB1"/>
<path d="M1055.06 196.87L1055.11 225.87H1055.05L1055 196.87H1055.06Z" fill="#A9AAB0"/>
<path d="M1055.12 196.87L1055.18 225.87H1055.11L1055.06 196.87H1055.12Z" fill="#A9A9AF"/>
<path d="M1055.18 196.87L1055.24 225.87H1055.18L1055.12 196.87H1055.18Z" fill="#A8A9AF"/>
<path d="M1055.24 196.87L1055.3 225.87H1055.24L1055.18 196.87H1055.24Z" fill="#A7A8AE"/>
<path d="M1055.31 196.87L1055.36 225.87H1055.3L1055.24 196.87H1055.31Z" fill="#A7A8AE"/>
<path d="M1055.37 196.87L1055.43 225.87H1055.36L1055.31 196.87H1055.37Z" fill="#A6A7AD"/>
<path d="M1055.43 196.87L1055.49 225.87H1055.43L1055.37 196.87H1055.43Z" fill="#A6A7AD"/>
<path d="M1055.49 196.87L1055.55 225.87H1055.49L1055.43 196.87H1055.49Z" fill="#A5A6AD"/>
<path d="M1055.56 196.87L1055.61 225.87H1055.55L1055.49 196.87H1055.56Z" fill="#A4A6AC"/>
<path d="M1055.62 196.87L1055.68 225.87H1055.61L1055.56 196.87H1055.62Z" fill="#A4A5AC"/>
<path d="M1055.68 196.87L1055.74 225.87H1055.68L1055.62 196.87H1055.68Z" fill="#A3A5AB"/>
<path d="M1055.74 196.87L1055.8 225.87H1055.74L1055.68 196.87H1055.74Z" fill="#A3A4AB"/>
<path d="M1055.81 196.87L1055.86 225.87H1055.8L1055.74 196.87H1055.81Z" fill="#A3A4AA"/>
<path d="M1055.87 196.87L1055.93 225.87H1055.86L1055.81 196.87H1055.87Z" fill="#A2A3AA"/>
<path d="M1055.93 196.87L1055.99 225.87H1055.93L1055.87 196.87H1055.93Z" fill="#A2A3AA"/>
<path d="M1055.99 196.87L1056.05 225.87H1055.99L1055.93 196.87H1055.99Z" fill="#A1A3A9"/>
<path d="M1056.06 196.87L1056.11 225.87H1056.05L1055.99 196.87H1056.06Z" fill="#A1A2A9"/>
<path d="M1056.12 196.87L1056.17 225.87H1056.11L1056.06 196.87H1056.12Z" fill="#A0A2A9"/>
<path d="M1056.18 196.87L1056.24 225.87H1056.17L1056.12 196.87H1056.18Z" fill="#A0A2A8"/>
<path d="M1056.24 196.87L1056.3 225.87H1056.24L1056.18 196.87H1056.24Z" fill="#A0A1A8"/>
<path d="M1056.31 196.87L1056.36 225.87H1056.3L1056.24 196.87H1056.31Z" fill="#9FA1A8"/>
<path d="M1056.37 196.87L1056.42 225.87H1056.36L1056.31 196.87H1056.37Z" fill="#9FA1A8"/>
<path d="M1056.43 196.87L1056.49 225.87H1056.42L1056.37 196.87H1056.43Z" fill="#9FA0A7"/>
<path d="M1056.49 196.87L1056.55 225.87H1056.49L1056.43 196.87H1056.49Z" fill="#9EA0A7"/>
<path d="M1056.55 196.87L1056.61 225.87H1056.55L1056.49 196.87H1056.55Z" fill="#9EA0A7"/>
<path d="M1056.62 196.87L1056.67 225.87H1056.61L1056.55 196.87H1056.62Z" fill="#9EA0A7"/>
<path d="M1056.68 196.87L1056.74 225.87H1056.67L1056.62 196.87H1056.68Z" fill="#9E9FA7"/>
<path d="M1056.74 196.87L1056.8 225.87H1056.74L1056.68 196.87H1056.74Z" fill="#9D9FA6"/>
<path d="M1056.8 196.87L1056.86 225.87H1056.8L1056.74 196.87H1056.8Z" fill="#9D9FA6"/>
<path d="M1056.87 196.87L1056.92 225.87H1056.86L1056.8 196.87H1056.87Z" fill="#9D9FA6"/>
<path d="M1056.93 196.87L1056.99 225.87H1056.92L1056.87 196.87H1056.93Z" fill="#9D9FA6"/>
<path d="M1056.99 196.87L1057.05 225.87H1056.99L1056.93 196.87H1056.99Z" fill="#9D9FA6"/>
<path d="M1057.05 196.87L1057.11 225.87H1057.05L1056.99 196.87H1057.05Z" fill="#9C9EA6"/>
<path d="M1057.12 196.87L1057.17 225.87H1057.11L1057.05 196.87H1057.12Z" fill="#9C9EA5"/>
<path d="M1057.18 196.87L1057.24 225.87H1057.17L1057.12 196.87H1057.18Z" fill="#9C9EA5"/>
<path d="M1057.24 196.87L1057.3 225.87H1057.24L1057.18 196.87H1057.24Z" fill="#9C9EA5"/>
<path d="M1057.3 196.87L1057.36 225.87H1057.3L1057.24 196.87H1057.3Z" fill="#9C9EA5"/>
<path d="M1057.37 196.87L1057.42 225.87H1057.36L1057.3 196.87H1057.37Z" fill="#9C9EA5"/>
<path d="M1057.43 196.87L1057.48 225.87H1057.42L1057.37 196.87H1057.43Z" fill="#9C9EA5"/>
<path d="M1057.49 196.87L1057.55 225.87H1057.48L1057.43 196.87H1057.49Z" fill="#9C9EA5"/>
<path d="M1057.55 196.87L1057.61 225.87H1057.55L1057.49 196.87H1057.55Z" fill="#9C9EA5"/>
<path d="M1057.61 196.87L1057.67 225.87H1057.61L1057.55 196.87H1057.61Z" fill="#9B9EA5"/>
<path d="M1057.68 196.87L1057.73 225.87H1057.67L1057.61 196.87H1057.68Z" fill="#9B9EA5"/>
<path d="M1057.74 196.87L1057.8 225.87H1057.73L1057.68 196.87H1057.74Z" fill="#9B9DA5"/>
<path d="M1057.8 196.87L1057.86 225.87H1057.8L1057.74 196.87H1057.8Z" fill="#9B9DA5"/>
<path d="M1057.86 196.87L1057.92 225.87H1057.86L1057.8 196.87H1057.86Z" fill="#9B9DA5"/>
<path d="M1057.93 196.87L1057.98 225.87H1057.92L1057.86 196.87H1057.93Z" fill="#9B9DA5"/>
<path d="M1057.99 196.87L1058.05 225.87H1057.98L1057.93 196.87H1057.99Z" fill="#9B9DA5"/>
<path d="M1058.05 196.87L1058.11 225.87H1058.05L1057.99 196.87H1058.05Z" fill="#9B9DA5"/>
<path d="M1058.18 196.87L1058.24 225.87H1058.11L1058.05 196.87H1058.18Z" fill="#9B9DA5"/>
<path d="M1058.31 196.87L1058.37 225.87H1058.24L1058.18 196.87H1058.31Z" fill="#9B9DA4"/>
<path d="M1058.44 196.87L1058.5 225.87H1058.37L1058.31 196.87H1058.44Z" fill="#9B9DA3"/>
<path d="M1058.58 196.87L1058.63 225.87H1058.5L1058.44 196.87H1058.58Z" fill="#9B9CA2"/>
<path d="M1058.71 196.87L1058.76 225.87H1058.63L1058.58 196.87H1058.71Z" fill="#9B9CA1"/>
<path d="M1058.84 196.87L1058.9 225.87H1058.76L1058.71 196.87H1058.84Z" fill="#9B9BA0"/>
<path d="M1058.97 196.87L1059.03 225.87H1058.9L1058.84 196.87H1058.97Z" fill="#9B9B9F"/>
<path d="M1059.1 196.87L1059.16 225.87H1059.03L1058.97 196.87H1059.1Z" fill="#9A9A9E"/>
<path d="M1059.23 196.87L1059.29 225.87H1059.16L1059.1 196.87H1059.23Z" fill="#9A9A9D"/>
<path d="M1059.36 196.87L1059.42 225.87H1059.29L1059.23 196.87H1059.36Z" fill="#9A999D"/>
<path d="M1059.49 196.87L1059.55 225.87H1059.42L1059.36 196.87H1059.49Z" fill="#9A999C"/>
<path d="M1059.63 196.87L1059.68 225.87H1059.55L1059.49 196.87H1059.63Z" fill="#9A999B"/>
<path d="M1059.76 196.87L1059.81 225.87H1059.68L1059.63 196.87H1059.76Z" fill="#9A989A"/>
<path d="M1059.89 196.87L1059.95 225.87H1059.81L1059.76 196.87H1059.89Z" fill="#9A9899"/>
<path d="M1060.02 196.87L1060.08 225.87H1059.95L1059.89 196.87H1060.02Z" fill="#999798"/>
<path d="M1060.15 196.87L1060.21 225.87H1060.08L1060.02 196.87H1060.15Z" fill="#999797"/>
<path d="M1060.28 196.87L1060.34 225.87H1060.21L1060.15 196.87H1060.28Z" fill="#999696"/>
<path d="M1060.41 196.87L1060.47 225.87H1060.34L1060.28 196.87H1060.41Z" fill="#999695"/>
<path d="M1060.55 196.87L1060.6 225.87H1060.47L1060.41 196.87H1060.55Z" fill="#999695"/>
<path d="M1060.68 196.87L1060.73 225.87H1060.6L1060.55 196.87H1060.68Z" fill="#999594"/>
<path d="M1060.81 196.87L1060.86 225.87H1060.73L1060.68 196.87H1060.81Z" fill="#999593"/>
<path d="M1060.94 196.87L1061 225.87H1060.86L1060.81 196.87H1060.94Z" fill="#989492"/>
<path d="M1061.07 196.87L1061.13 225.87H1061L1060.94 196.87H1061.07Z" fill="#989491"/>
<path d="M1061.2 196.87L1061.26 225.87H1061.13L1061.07 196.87H1061.2Z" fill="#989490"/>
<path d="M1061.33 196.87L1061.39 225.87H1061.26L1061.2 196.87H1061.33Z" fill="#98938F"/>
<path d="M1061.46 196.87L1061.52 225.87H1061.39L1061.33 196.87H1061.46Z" fill="#98938E"/>
<path d="M1061.6 196.87L1061.65 225.87H1061.52L1061.46 196.87H1061.6Z" fill="#98928E"/>
<path d="M1061.73 196.87L1061.78 225.87H1061.65L1061.6 196.87H1061.73Z" fill="#98928D"/>
<path d="M1061.86 196.87L1061.91 225.87H1061.78L1061.73 196.87H1061.86Z" fill="#97918C"/>
<path d="M1061.99 196.87L1062.05 225.87H1061.91L1061.86 196.87H1061.99Z" fill="#97918B"/>
<path d="M1062.12 196.87L1062.18 225.87H1062.05L1061.99 196.87H1062.12Z" fill="#97918A"/>
<path d="M1062.25 196.87L1062.31 225.87H1062.18L1062.12 196.87H1062.25Z" fill="#979089"/>
<path d="M1062.38 196.87L1062.44 225.87H1062.31L1062.25 196.87H1062.38Z" fill="#979088"/>
<path d="M1062.51 196.87L1062.57 225.87H1062.44L1062.38 196.87H1062.51Z" fill="#978F88"/>
<path d="M1062.65 196.87L1062.7 225.87H1062.57L1062.51 196.87H1062.65Z" fill="#978F87"/>
<path d="M1062.78 196.87L1062.83 225.87H1062.7L1062.65 196.87H1062.78Z" fill="#978F86"/>
<path d="M1062.91 196.87L1062.97 225.87H1062.83L1062.78 196.87H1062.91Z" fill="#968E85"/>
<path d="M1063.04 196.87L1063.1 225.87H1062.97L1062.91 196.87H1063.04Z" fill="#968E84"/>
<path d="M1063.17 196.87L1063.23 225.87H1063.1L1063.04 196.87H1063.17Z" fill="#968D84"/>
<path d="M1063.3 196.87L1063.36 225.87H1063.23L1063.17 196.87H1063.3Z" fill="#968D83"/>
<path d="M1063.43 196.87L1063.49 225.87H1063.36L1063.3 196.87H1063.43Z" fill="#968D82"/>
<path d="M1063.56 196.87L1063.62 225.87H1063.49L1063.43 196.87H1063.56Z" fill="#968C81"/>
<path d="M1063.7 196.87L1063.75 225.87H1063.62L1063.56 196.87H1063.7Z" fill="#968C80"/>
<path d="M1063.83 196.87L1063.88 225.87H1063.75L1063.7 196.87H1063.83Z" fill="#968B80"/>
<path d="M1063.96 196.87L1064.02 225.87H1063.88L1063.83 196.87H1063.96Z" fill="#958B7F"/>
<path d="M1064.09 196.87L1064.15 225.87H1064.02L1063.96 196.87H1064.09Z" fill="#958B7E"/>
<path d="M1064.22 196.87L1064.28 225.87H1064.15L1064.09 196.87H1064.22Z" fill="#958A7D"/>
<path d="M1064.35 196.87L1064.41 225.87H1064.28L1064.22 196.87H1064.35Z" fill="#958A7D"/>
<path d="M1064.48 196.87L1064.54 225.87H1064.41L1064.35 196.87H1064.48Z" fill="#958A7C"/>
<path d="M1064.61 196.87L1064.67 225.87H1064.54L1064.48 196.87H1064.61Z" fill="#95897B"/>
<path d="M1064.75 196.87L1064.8 225.87H1064.67L1064.61 196.87H1064.75Z" fill="#95897A"/>
<path d="M1064.88 196.87L1064.93 225.87H1064.8L1064.75 196.87H1064.88Z" fill="#958879"/>
<path d="M1065.01 196.87L1065.07 225.87H1064.93L1064.88 196.87H1065.01Z" fill="#948879"/>
<path d="M1065.14 196.87L1065.2 225.87H1065.07L1065.01 196.87H1065.14Z" fill="#948878"/>
<path d="M1065.27 196.87L1065.33 225.87H1065.2L1065.14 196.87H1065.27Z" fill="#948777"/>
<path d="M1065.4 196.87L1065.46 225.87H1065.33L1065.27 196.87H1065.4Z" fill="#948776"/>
<path d="M1065.53 196.87L1065.59 225.87H1065.46L1065.4 196.87H1065.53Z" fill="#948776"/>
<path d="M1065.66 196.87L1065.72 225.87H1065.59L1065.53 196.87H1065.66Z" fill="#948675"/>
<path d="M1065.8 196.87L1065.85 225.87H1065.72L1065.66 196.87H1065.8Z" fill="#948674"/>
<path d="M1065.93 196.87L1065.98 225.87H1065.85L1065.8 196.87H1065.93Z" fill="#948673"/>
<path d="M1066.06 196.87L1066.12 225.87H1065.98L1065.93 196.87H1066.06Z" fill="#938573"/>
<path d="M1066.19 196.87L1066.25 225.87H1066.12L1066.06 196.87H1066.19Z" fill="#938572"/>
<path d="M1066.32 196.87L1066.38 225.87H1066.25L1066.19 196.87H1066.32Z" fill="#938471"/>
<path d="M1066.45 196.87L1066.51 225.87H1066.38L1066.32 196.87H1066.45Z" fill="#938471"/>
<path d="M1066.58 196.87L1066.64 225.87H1066.51L1066.45 196.87H1066.58Z" fill="#938470"/>
<path d="M1066.71 196.87L1066.77 225.87H1066.64L1066.58 196.87H1066.71Z" fill="#93836F"/>
<path d="M1066.85 196.87L1066.9 225.87H1066.77L1066.71 196.87H1066.85Z" fill="#93836F"/>
<path d="M1066.98 196.87L1067.03 225.87H1066.9L1066.85 196.87H1066.98Z" fill="#93836E"/>
<path d="M1067.11 196.87L1067.17 225.87H1067.03L1066.98 196.87H1067.11Z" fill="#93826D"/>
<path d="M1067.24 196.87L1067.3 225.87H1067.17L1067.11 196.87H1067.24Z" fill="#93826D"/>
<path d="M1067.37 196.87L1067.43 225.87H1067.3L1067.24 196.87H1067.37Z" fill="#92826C"/>
<path d="M1067.5 196.87L1067.56 225.87H1067.43L1067.37 196.87H1067.5Z" fill="#92816C"/>
<path d="M1067.63 196.87L1067.69 225.87H1067.56L1067.5 196.87H1067.63Z" fill="#92816B"/>
<path d="M1067.76 196.87L1067.82 225.87H1067.69L1067.63 196.87H1067.76Z" fill="#92816A"/>
<path d="M1067.9 196.87L1067.95 225.87H1067.82L1067.76 196.87H1067.9Z" fill="#92816A"/>
<path d="M1068.03 196.87L1068.08 225.87H1067.95L1067.9 196.87H1068.03Z" fill="#928069"/>
<path d="M1068.16 196.87L1068.22 225.87H1068.08L1068.03 196.87H1068.16Z" fill="#928069"/>
<path d="M1068.29 196.87L1068.35 225.87H1068.22L1068.16 196.87H1068.29Z" fill="#928068"/>
<path d="M1068.42 196.87L1068.48 225.87H1068.35L1068.29 196.87H1068.42Z" fill="#928068"/>
<path d="M1068.48 225.87L1068.42 196.87H1069.77V225.87H1068.48Z" fill="#928068"/>
</g>
<path d="M1038.07 216.08H1044.28V216.91C1044.28 218.5 1044.47 219.63 1044.85 220.28C1045.23 220.93 1045.86 221.26 1046.75 221.25C1047.46 221.25 1048.03 221 1048.44 220.5C1048.85 220 1049.06 219.33 1049.06 218.48C1049.06 217.08 1048.05 215.73 1046.02 214.44C1045.69 214.21 1045.44 214.05 1045.27 213.93C1045.21 213.89 1045.1 213.82 1044.95 213.72C1042.22 211.89 1040.53 210.52 1039.86 209.59C1039.38 208.89 1039.02 208.1 1038.76 207.22C1038.51 206.34 1038.38 205.38 1038.38 204.34C1038.38 201.81 1039.11 199.82 1040.57 198.37C1042.03 196.92 1044.05 196.2 1046.62 196.19C1049.42 196.19 1051.55 196.89 1053.03 198.3C1054.51 199.71 1055.25 201.76 1055.25 204.45C1055.25 204.56 1055.25 204.72 1055.23 204.92C1055.22 205.12 1055.21 205.28 1055.21 205.39H1049.13V205.04C1049.13 203.77 1048.93 202.81 1048.53 202.16C1048.13 201.51 1047.56 201.18 1046.81 201.19C1046.17 201.19 1045.66 201.42 1045.27 201.88C1044.88 202.34 1044.69 202.94 1044.69 203.7C1044.69 204.93 1045.8 206.23 1048.01 207.61C1048.41 207.87 1048.72 208.07 1048.93 208.21C1049.11 208.31 1049.35 208.47 1049.66 208.68C1052.03 210.18 1053.55 211.44 1054.22 212.47C1054.64 213.13 1054.95 213.89 1055.17 214.73C1055.39 215.58 1055.5 216.49 1055.5 217.49C1055.5 220.39 1054.76 222.62 1053.26 224.19C1051.76 225.76 1049.61 226.55 1046.81 226.55C1043.88 226.55 1041.67 225.81 1040.19 224.31C1038.75 222.85 1038 220.62 1038 217.66C1038 217.47 1038 217.27 1038 217.07C1038 216.86 1038.03 216.53 1038.06 216.08H1038.07Z" fill="#A6956E"/>
<path d="M1121.44 210.69L1121.47 210.64L1121.55 210.47L1121.59 210.34L1121.55 210.13L1121.47 209.92L1121.43 209.84L1121.35 209.71L1121.18 209.37L1121.14 209.16L1121.1 208.91V208.7L1121.18 208.53L1121.47 208.28L1121.64 208.2H1121.81L1121.98 208.24L1122.19 208.37L1122.32 208.5L1122.45 208.88L1122.53 209.13L1122.74 209.38L1122.87 209.51L1123.04 209.55H1123.17H1123.25L1123.42 209.47L1123.5 209.39L1124.8 208.59H1124.84L1124.97 208.63L1125.01 208.71V208.84V209.55L1124.97 209.76L1124.05 210.43L1123.92 210.6L1123.79 210.85V211.06L1123.83 211.31L1123.91 211.52L1124.58 212.49L1124.71 212.66L1124.79 212.74L1124.92 212.78H1125L1125.25 212.82L1125.33 212.78L1125.54 212.65L1125.67 212.61L1125.84 212.48L1126.09 212.27L1126.13 212.06L1126.17 211.85L1126.13 211.64L1126.17 211.35L1126.21 210.34V210.13V209.96V209.5V209.16V208.66V208.28L1126.08 207.94V207.77L1126 207.52L1125.92 207.39L1125.75 207.26L1125.5 207.22H1125.33L1124.99 207.18L1124.7 207.26L1124.56 207.28C1124.1 207.35 1123.63 207.26 1123.24 207L1123.06 206.88L1122.85 206.75L1122.6 206.5L1122.47 206.37L1122.34 206.2L1122.26 205.99L1122.22 205.74V205.57V205.44V205.31L1122.3 205.27L1122.55 205.14L1122.8 205.06L1123.05 204.93L1123.26 204.85L1123.34 204.81L1123.47 204.77L1123.55 204.69L1123.63 204.65L1123.67 204.57V204.44L1123.71 204.31L1123.63 203.93L1123.55 203.68L1123.47 203.47L1123.3 203.05L1123.22 202.8L1123.14 202.55L1123.01 202.34L1122.88 202.17L1122.67 201.92L1122.42 201.75L1122.13 201.41L1121.83 201.12L1121.66 200.83L1121.45 200.41L1121.28 200.07L1121.24 199.9V199.77L1121.41 199.69H1121.62L1121.83 199.65H1122L1122.13 199.61L1122.26 199.57L1122.39 199.44V199.23V198.89V198.05L1122.35 197.46L1122.31 197.08V196.7L1122.35 196.49L1122.43 196.32L1122.52 196.24L1122.6 196.2L1122.77 196.24L1122.98 196.28H1123.15L1123.32 196.32H1123.53L1123.66 196.4L1123.79 196.53L1123.96 196.61L1124.09 196.65L1124.26 196.73L1124.47 196.77L1124.68 196.81L1124.81 196.85L1124.94 196.93L1125.07 197.01L1125.2 197.09L1125.28 197.17L1125.36 197.25L1125.49 197.33L1125.57 197.37L1125.74 197.41L1125.87 197.45L1126 197.49L1126.08 197.53L1126.21 197.61L1126.34 197.69L1126.42 197.77L1126.5 197.9L1126.58 197.98L1126.66 198.02L1126.74 198.1L1126.82 198.14H1126.98L1127.24 198.06L1127.37 198.02L1127.54 197.98L1127.67 197.94L1127.88 197.86L1128.01 197.78L1128.14 197.7L1128.27 197.57L1128.4 197.49L1128.53 197.36L1128.61 197.28L1128.65 197.2L1128.73 197.12L1128.82 197.04L1128.86 196.87L1128.94 196.74L1128.98 196.53L1129.06 196.36L1129.19 195.94L1129.27 195.69L1129.36 195.48L1129.4 195.35L1129.48 195.22H1129.61H1129.65L1129.78 195.3L1129.95 195.34L1130.07 195.42L1130.16 195.5L1130.2 195.54L1130.24 195.58L1130.28 195.66L1130.41 195.7L1130.49 195.74L1130.62 195.82L1130.75 195.86L1130.88 195.94L1130.96 195.98L1131.13 196.11L1131.26 196.19L1131.34 196.27L1131.68 196.65L1131.81 196.82L1131.94 196.95L1132.02 197.03L1132.19 197.24L1132.36 197.41L1132.4 197.54L1132.53 197.79L1132.57 197.96L1132.61 198.09V198.22L1132.69 198.56L1132.94 198.77L1133.15 198.85L1133.44 198.89H1133.69L1133.86 198.93H1133.94H1133.98V198.97L1134.06 199.05V199.22L1133.98 199.43V199.72L1133.94 199.76V199.8L1133.9 199.84H1133.86L1133.73 199.92L1133.56 200L1133.27 200.04L1132.98 200.08L1132.77 200.12H1132.56H1132.31L1132.06 200.16L1131.85 200.2L1131.56 200.33L1131.35 200.46L1131.1 200.63L1130.93 200.8L1130.72 200.97L1130.51 201.1L1130.17 201.27L1130 201.35L1129.83 201.43L1129.74 201.47L1129.66 201.51L1129.53 201.59L1129.32 201.76L1129.15 202.1L1129.23 202.52L1129.4 202.69L1129.48 202.77L1129.65 202.9L1129.78 202.98L1130.03 203.06H1130.07L1130.15 203.14L1130.23 203.22L1130.31 203.35L1130.44 203.64L1130.52 203.77V204.02L1130.6 204.23V204.27L1130.56 204.48V204.65L1130.52 204.69L1130.39 204.82L1130.35 204.9L1130.22 205.03L1130.05 205.16L1129.84 205.24L1129.55 205.41L1129.09 205.62L1128.67 205.83L1128.42 205.96L1128.08 206.13L1127.79 206.3L1127.54 206.43L1127.33 206.51L1127.37 207.9V208.24V208.41L1127.41 208.49L1127.49 208.53L1127.78 208.36L1128.12 208.15L1128.46 207.98L1128.92 207.69L1129.21 207.56L1129.59 207.31L1129.88 207.14L1130.22 206.89L1130.43 206.72L1130.68 206.59L1130.97 206.42L1131.14 206.25L1131.31 206.04L1131.6 205.7L1131.73 205.41L1131.77 205.07L1131.85 204.82L1131.94 204.57L1132.07 204.32C1132.77 204.48 1133.44 204.75 1134.07 205.11V205.15L1134.16 205.19L1134.45 205.36L1134.58 205.44L1134.75 205.52L1134.88 205.56L1134.96 205.64L1135.04 205.68L1135.08 205.72L1135.29 205.89L1135.46 206.02L1135.63 206.19L1135.84 206.32L1135.97 206.4L1136.1 206.53L1136.14 206.61L1136.22 206.74L1136.26 206.87H1136.3L1136.26 206.95L1136.18 206.99L1136.05 207.07L1135.92 207.11L1135.88 207.15L1135.67 207.19H1135.5H1135.33H1135.2H1135.12L1134.66 207.23H1134.53H1134.4L1134.27 207.27H1134.1L1133.81 207.4L1133.35 207.53L1133.05 207.61L1132.76 207.82L1132.51 207.99L1132.3 208.12L1132.22 208.16L1132.14 208.24L1132.1 208.32L1131.93 208.61L1131.76 208.86L1131.63 209.2L1131.46 209.58L1131.29 209.96L1131.04 210.34L1130.87 210.63L1130.74 210.84H1130.99L1131.33 210.88H1131.58L1131.83 210.84H1132.17H1132.51H1132.76L1133.01 210.75L1133.26 210.67L1133.47 210.63L1133.63 210.59L1133.72 210.63L1133.93 210.76L1134.14 211.01L1134.31 211.22L1134.52 211.51L1134.69 211.64L1134.9 211.85L1135.03 212.02L1135.11 212.1L1135.32 212.27L1135.45 212.44L1135.53 212.61V212.69L1135.4 212.94L1135.36 213.07H1135.23L1134.94 213.03L1134.35 212.86L1133.89 212.78L1133.43 212.7L1132.88 212.66L1132.25 212.7L1131.07 212.79L1130.31 213.09L1129.51 213.39L1128.75 213.69L1128.16 213.9L1127.66 214.11L1127.45 214.19L1127.36 215.16L1127.33 215.65L1126.32 215.58V214.49L1125.56 214.7L1124.89 215.04L1124.26 215.38L1123.8 215.63L1123.21 215.93L1122.71 216.18L1122.29 216.43L1121.74 216.68L1121.36 216.85H1121.11L1120.69 216.81L1120.27 216.77L1119.85 216.64L1119.56 216.47L1119.39 216.3L1119.18 216.13L1119.14 216L1119.06 215.87V215.7L1119.1 215.66L1119.14 215.62L1119.35 215.45L1119.73 215.28L1120.15 215.07L1120.74 214.86L1121.2 214.65L1121.58 214.44L1122.04 214.23L1122.42 214.06L1123.05 213.6L1123.39 213.35L1123.47 213.14V212.85L1123.26 212.47L1122.8 211.92L1122.63 211.79L1122.25 211.71L1121.79 212.01L1121.08 212.31L1120.37 212.1L1120.2 211.55L1120.54 211.21L1120.96 210.83V210.78C1121.12 210.75 1121.28 210.66 1121.38 210.52L1121.44 210.55V210.69ZM1130.29 208.18V208.1V208.02L1130.04 208.1L1129.87 208.18L1129.62 208.26L1129.41 208.39L1129.24 208.52L1129.03 208.65L1128.82 208.86L1128.65 209.03L1128.4 209.16L1128.19 209.33L1127.98 209.5L1127.56 209.75L1127.48 209.83L1127.52 209.96V210.25L1127.48 210.59V211.01L1127.44 211.43H1127.61L1127.86 211.26L1128.07 211.09L1128.2 210.96L1128.41 210.79L1128.62 210.66L1128.79 210.49L1128.96 210.36L1129.09 210.15L1129.17 210.02L1129.3 209.81L1129.43 209.64L1129.51 209.43L1129.64 209.22L1129.72 209.05L1129.76 208.88L1129.89 208.71L1129.97 208.54L1130.14 208.37L1130.22 208.29L1130.3 208.16L1130.29 208.18ZM1128.59 199.11L1128.51 198.82L1128.17 198.61L1127.92 198.82L1127.75 198.95L1127.58 199.16L1127.37 199.33L1127.16 199.5L1126.82 199.63L1126.66 199.67L1126.37 199.71L1126.12 199.96L1126.08 200.25V200.46L1126.04 200.67L1125.96 201.3L1125.88 201.51L1125.84 201.72L1125.67 202.01L1125.84 202.26L1125.93 202.34L1125.97 202.38V202.51L1126.27 203.06L1126.56 202.56L1126.77 202.27L1126.94 202.02L1127.15 201.64L1127.32 201.39L1127.49 201.14L1127.66 200.89L1127.79 200.68L1127.92 200.51L1128.13 200.17L1128.34 199.79L1128.47 199.45L1128.64 199.11H1128.59Z" fill="#231815"/>
<path d="M1133.33 217.76V217.88L1133.25 218.13L1133.12 218.26L1132.91 218.43L1132.41 218.6L1131.06 218.94L1130.56 219.02L1129.13 219.28L1128.46 219.4L1127.96 219.49L1127.49 219.62L1127.5 220.62L1127.46 221.34V222.09V223.44L1127.42 224.41V225.2L1127.38 225.71L1127.3 226.34L1127.21 226.68L1127.17 226.72L1127.05 226.8L1126.92 226.63L1126.71 226.47L1126.5 226L1126.33 225.58L1126.24 225.21L1126.2 225V224.62V223.27L1126.24 222.52V221.8L1126.28 221.42L1126.24 221.05L1126.15 220.71L1125.98 220.42L1125.69 220.21L1125.31 220.29L1125.02 220.42L1124.72 220.5L1124.39 220.63H1124.13H1123.88H1123.59L1123.29 220.59L1123.13 220.55L1122.96 220.47L1122.79 220.38L1122.7 220.3L1122.58 220.13L1122.49 219.88L1122.45 219.58L1122.49 219.33L1122.62 219L1122.74 218.74L1123.04 218.62L1123.63 218.28L1124.13 218.03L1124.59 217.81L1125.18 217.56L1125.77 217.31L1126.27 217.06L1126.31 216.21L1126.35 215.71L1127.36 215.78V215.83L1127.32 216.38V216.8L1127.61 216.76L1127.87 216.67L1128.41 216.46L1128.66 216.34L1128.96 216.21L1129.34 216.08L1129.76 215.91L1130.47 215.7L1130.64 215.62H1130.76L1131.02 215.66L1131.23 215.7L1131.44 215.78L1131.65 215.87L1131.98 216.08L1132.19 216.25L1132.49 216.45L1132.7 216.66L1132.99 217.04L1133.16 217.25L1133.25 217.55L1133.33 217.76Z" fill="#231815"/>
<path d="M1120.45 205.09L1120.49 205.34L1120.45 205.6L1120.41 205.89L1120.32 206.06L1120.11 206.35L1119.99 206.6L1119.78 206.86L1119.57 207.07L1119.32 207.36L1119.11 207.53L1118.94 207.7L1118.77 207.87L1118.61 208.04L1118.48 208.25L1118.35 208.46L1118.23 208.63L1118.14 208.79L1117.89 209.3L1117.81 209.72L1117.68 210.22L1117.69 210.43L1117.64 210.64V210.81L1118.11 211.23L1118.57 211.52L1119.66 212.24L1119.88 212.82L1119.71 213.83L1119 214.46L1118.7 214.3L1117.44 212.45L1117.27 213.75L1117.11 215.22L1117.02 215.94L1116.98 216.53L1117.03 217.16V217.75L1117.11 218.8L1117.12 219.55V220.22L1117.2 221.02L1117.25 221.61L1117.2 222.2L1117.12 222.91L1117.04 223.17L1116.91 223.21L1116.66 223.08L1116.41 222.49L1116.19 221.74L1115.98 221.02L1115.81 219.85L1115.73 218.97L1115.68 217.96V217.03V216.28V215.65L1115.13 216.24L1114.76 216.7L1114.38 217.12L1114.04 217.5L1113.37 218.13L1112.91 218.34L1112.15 218.09L1111.82 217.84L1111.56 217.29L1111.44 216.71L1111.39 216.33L1111.6 215.87L1112.15 215.19L1112.86 214.35L1113.03 213.97L1113.32 213.38L1113.53 213.05L1113.99 212.46L1114.2 212.08L1114.33 211.74L1114.41 211.32L1114.32 210.86L1114.03 210.44L1113.36 210.06L1112.89 209.81L1112.43 209.52L1112.05 209.23L1111.67 208.97L1111.17 208.64L1111 208.39L1110.92 208.18L1110.87 208.05L1110.92 207.88L1111 207.67L1111.71 207.17L1112.43 206.79L1113.01 206.32L1113.73 205.69L1114.1 205.36L1114.48 205.1L1114.86 204.85L1115.03 204.72L1115.32 204.56L1115.61 204.26L1115.78 203.88L1115.82 203.63L1115.78 203.34V203L1115.74 202.5L1115.69 202.12L1115.65 201.49L1115.57 200.98L1115.52 200.52L1115.48 200.31L1115.44 200.06L1115.4 199.89L1115.35 199.72L1115.31 199.51L1115.27 199.39L1115.23 199.05L1115.14 198.04L1115.1 197.83V197.66L1115.14 197.54L1115.22 197.45L1115.31 197.37L1115.39 197.33H1115.6H1115.81L1116.57 197.49L1117.11 197.7L1117.24 197.79L1117.53 197.91L1118.46 198.54L1118.63 198.71L1118.97 198.96L1119.18 199.46V199.84L1118.97 200.35L1118.63 200.89L1118.47 201.06L1118.34 201.19L1118.26 201.31L1118.09 201.52L1117.96 201.69L1117.88 201.78L1117.71 202.11L1117.59 202.28L1117.42 202.74V202.95V203.12L1117.5 203.29L1117.63 203.37L1117.8 203.42L1118.05 203.37L1118.09 203.33L1118.55 203.04L1118.81 202.91H1119.02H1119.18L1119.35 202.99L1119.48 203.2L1119.6 203.41L1119.77 203.66L1119.98 204.04L1120.15 204.34L1120.28 204.59L1120.36 204.84L1120.45 205.09Z" fill="#231815"/>
<path d="M1172.43 221.61L1172.18 221.53L1171.8 221.4L1171.13 221.28L1170.16 221.16L1168.65 221.08L1165.79 220.96L1163.23 220.88L1162.1 220.76L1161.18 220.64L1160.38 220.52L1159.67 220.4L1159.08 220.36L1159.2 219.6L1159.24 219.05L1159.28 218.21L1159.45 217.54V216.74L1159.74 216.66L1160.33 216.57L1160.88 216.44L1161.59 216.31L1162.43 216.22L1163.44 216.09L1164.74 216L1165.58 215.91L1166 215.78L1166.17 215.44V215.1L1166.08 214.76L1165.83 214.47L1165.45 214.26L1165.03 214.09L1164.61 213.92L1164.15 213.75L1163.65 213.63L1163.1 213.34L1162.76 213.09L1162.42 212.92L1162.34 212.79L1162.55 212.62L1162.84 212.54L1163.22 212.37L1163.47 212.16L1163.68 211.99L1163.76 211.7L1163.8 211.36L1163.76 211.11L1163.55 210.9L1163.34 210.65L1163.13 210.44L1162.92 210.31L1162.54 210.23H1162.12H1161.66L1161.11 210.4L1160.86 210.53L1160.48 210.61L1160.1 210.74H1159.76L1159.72 210.45L1159.85 210.37L1160.19 210.24L1160.44 210.16L1160.82 209.91L1161.32 209.61L1161.78 209.31L1162.28 209.1L1162.62 208.93L1162.83 208.76L1163 208.47V208.18V207.93L1162.87 207.68L1162.7 207.6V207.31L1162.87 206.93L1163.04 206.43L1163.33 205.8L1163.5 205.34L1163.67 204.92L1163.84 204.88L1164.43 204.79L1165.02 204.75L1165.61 204.79H1166.03L1166.45 204.7L1166.79 204.53L1167.08 204.36L1167.37 203.98L1167.33 203.48L1167.2 203.19L1166.99 202.9L1166.78 202.73L1166.53 202.6L1166.24 202.47L1165.82 202.43H1165.36L1165.23 202.39V201.97L1165.14 201.59L1164.97 201.21L1164.67 200.79L1164.38 200.5L1163.92 200.08L1163.58 199.79L1163.12 199.58L1162.78 199.45L1162.32 199.32H1161.73L1161.23 199.28L1160.73 199.37L1160.31 199.45V199.32V198.82L1160.35 198.06L1160.48 197.64L1160.44 197.26L1160.36 196.88L1160.15 196.5L1159.86 196.12L1159.65 195.87L1159.4 195.62L1159.02 195.37L1158.64 195.16L1158.18 195.12L1157.63 195.08L1157.13 195.21L1156.63 195.42L1156.25 195.55L1156 195.8L1156.04 196.05L1156.17 196.3L1156.42 196.55L1156.71 196.8L1157.09 197.01L1157.47 197.3L1157.64 197.47L1157.77 197.97L1157.81 198.26V198.89V199.48L1157.77 200.32L1157.64 200.49L1157.14 200.7L1156.68 200.87L1156.18 201L1155.55 201.21L1154.96 201.42L1154.25 201.59L1153.62 201.84L1153.49 202.13L1153.53 202.38L1153.61 202.67L1153.86 202.8L1154.62 202.92L1155.08 203H1155.71L1156.47 202.96L1156.97 202.88L1157.56 202.79H1157.77L1157.81 203.13V203.63V203.92L1157.73 204.17L1157.23 204.34L1156.85 204.51L1156.22 204.68L1155.59 204.85L1154.92 205.06L1154.42 205.14L1154.04 205.27L1153.54 205.4L1152.99 205.53L1152.4 205.7L1151.81 205.83L1151.39 205.96L1151.14 206.17L1151.1 206.42V206.71L1151.14 207L1151.27 207.25L1151.52 207.46L1151.9 207.67L1152.45 207.79L1152.91 207.87L1153.54 207.83L1154 207.7L1154.5 207.53L1154.92 207.36L1155.51 207.19L1156.01 206.98L1156.47 206.81L1156.81 206.68L1157.27 206.51L1157.82 206.38V206.72L1157.78 207.39L1157.74 207.85L1157.45 208.02L1156.99 208.23L1156.49 208.4L1156.03 208.61L1155.44 208.74L1155.06 208.91L1154.64 209.08H1154.09H1153.5L1153.63 209.46L1153.76 209.71L1153.89 210.05L1154.1 210.43L1154.27 210.72L1154.52 210.97L1154.94 211.18H1155.32H1156.08L1156.79 211.05L1157.34 210.92L1157.76 210.84L1157.8 211.22L1157.55 211.3L1157.26 211.43L1156.92 211.6L1156.54 211.73L1156.12 211.9L1155.66 212.11L1155.28 212.24L1154.82 212.37L1154.44 212.5L1154.1 212.46L1153.6 212.42V212.76L1153.69 213.1L1153.86 213.39L1153.94 213.64L1154.15 213.85L1154.44 214.23L1154.73 214.44L1155.02 214.65L1155.57 214.69L1156.07 214.61L1156.66 214.48L1157.21 214.39L1157.71 214.26V214.64L1157.5 214.72L1157.29 214.85L1156.95 215.06L1156.66 215.14L1156.28 215.27L1155.9 215.4L1155.27 215.53L1154.72 215.62L1154.01 215.75L1153.25 215.88L1152.79 215.92V216L1152.87 216.42L1152.95 216.67L1153.03 216.92L1153.16 217.17L1153.29 217.42L1153.46 217.59L1153.63 217.8L1153.76 217.93L1153.97 218.06L1154.26 218.19H1154.68L1155.02 218.02L1155.23 217.94L1155.57 217.81L1155.95 217.73L1156.29 217.56L1156.67 217.48L1157.13 217.35L1157.51 217.18L1157.8 217.1V217.31V217.98L1157.84 218.95L1157.93 219.54V220L1157.38 219.92L1156.96 219.84L1156.37 219.72L1155.87 219.59L1155.41 219.46L1154.99 219.33L1154.49 219.25L1154.07 219.12L1153.19 218.87L1152.39 218.66L1151.59 218.41L1150.62 218.2L1150.28 218.12L1150.36 217.62L1150.53 217.2L1150.61 216.61L1150.73 215.9L1150.81 215.06L1150.85 214.51V214.13L1150.89 213.67L1150.85 213.42L1150.81 213.04L1150.56 212.49L1150.35 212.2L1150.01 211.82L1149.67 211.53L1149.29 211.24L1148.95 211.03L1148.57 210.86L1148.19 210.69L1147.77 210.52L1147.31 210.39L1147.1 210.31L1147.14 210.06L1147.39 209.64L1147.6 209.22L1147.81 208.84L1148.15 208.29L1148.4 207.74L1148.74 207.24L1148.99 206.69L1149.49 206.23L1149.87 205.85L1150.21 205.47L1150.46 205.18L1150.54 204.84V204.5L1150.41 204.16L1150.24 203.74L1150.07 203.36L1149.86 203.07L1149.65 202.78L1149.4 202.49L1149.19 202.28L1148.94 202.11L1148.65 201.94L1148.36 201.81L1148.02 201.64L1147.77 201.6L1147.69 201.73L1147.52 201.94L1147.31 202.23L1147.02 202.48L1146.85 202.73L1146.47 202.98L1146.09 203.32L1145.67 203.61L1145.29 203.9L1144.7 204.36L1144.28 204.57L1143.99 204.82H1143.82L1143.78 204.69V204.48L1143.65 204.35L1143.48 204.31L1143.27 204.35L1143.1 204.6L1143.02 204.94V205.15L1143.19 205.49L1143.36 205.87L1143.61 206.29L1143.9 206.71L1144.28 207.09L1144.66 207.26L1145.04 207.43L1145.63 207.55L1145.84 207.63L1145.76 207.97L1145.55 208.26L1145.34 208.76L1145.09 209.18L1144.92 209.77L1144.75 210.32L1144.71 211.08V211.75L1144.8 212.25L1144.88 212.54L1145.09 213.04L1145.22 213.33L1145.39 213.54L1145.56 213.75L1145.9 213.67L1146.32 213.63L1146.53 213.55L1147.03 213.47L1147.41 213.43H1147.83L1147.87 213.89L1147.91 214.06L1147.95 215.15V215.99V216.58V217.67H1147.7L1147.2 217.63L1146.7 217.5H1146.03L1145.57 217.54L1145.11 217.67L1144.56 217.71L1144.06 217.8L1143.64 217.88H1143.35L1143.14 217.67L1142.93 217.42L1142.68 217.13L1142.43 217.09L1142.22 217.26L1142.01 217.51L1141.88 217.76V218.1L1142.05 218.48L1142.13 218.86L1142.21 219.15L1142.34 219.4L1142.55 219.95L1142.68 220.29H1143.02L1143.52 220.16L1143.94 220.03L1144.49 219.86L1144.95 219.65L1145.5 219.52H1146.3L1146.93 219.56L1147.31 219.64V219.89L1146.98 220.44L1146.69 220.82L1146.31 221.24L1145.97 221.58L1145.59 221.96L1145.09 222.38L1144.5 222.8L1144 223.18L1143.54 223.47L1143.12 223.72L1142.66 223.93L1142.16 224.18L1142.37 224.43L1142.71 224.6L1143.72 224.85H1144.52L1145.11 224.76L1145.7 224.59L1146.33 224.34L1146.88 224.04L1147.3 223.79L1147.8 223.28L1148.18 222.86L1148.52 222.4L1148.77 221.98L1148.94 221.56L1149.15 221.1L1149.4 220.51L1149.61 220.01H1150.11L1150.49 220.09L1150.95 220.26L1151.66 220.47L1152.37 220.72L1152.92 221.01L1153.59 221.26L1154.47 221.51L1155.18 221.8L1155.94 222.05L1156.78 222.34L1157.87 222.67L1158.58 222.92L1159.08 223.13L1159.75 223.46L1160.68 223.92L1161.23 224.17L1161.94 224.5L1162.53 224.71L1163.29 224.96L1164.42 225.21L1165.22 225.25L1165.89 225.12L1166.39 225.04L1166.94 224.91L1167.53 224.7L1168.08 224.53L1168.58 224.28L1169 224.11L1169.55 223.77L1170.05 223.43L1170.55 223.18L1170.84 223.05L1171.26 222.92L1171.72 222.71L1172.1 222.46L1172.31 222.21L1172.48 221.92L1172.56 221.75L1172.48 221.54L1172.43 221.61ZM1160.08 202.06L1160.37 201.93L1160.92 201.8H1161.34L1161.68 201.88L1161.81 202.13L1161.89 202.55L1161.81 203.1L1161.47 203.27L1160.84 203.4L1160.42 203.53L1160.13 203.57H1160.05L1160.09 202.06H1160.08ZM1159.96 205.8L1160.42 205.67L1160.67 205.59H1160.88L1161.05 205.55H1161.13L1161.05 205.89L1160.92 206.31L1160.88 206.44L1160.8 206.69L1160.72 206.86L1160.47 207.15L1160.22 207.28L1159.88 207.36L1159.96 205.81V205.8ZM1159.98 213.99L1160.4 213.74L1160.78 213.61L1160.99 213.44L1161.33 213.27L1161.54 213.14L1161.75 213.01L1161.88 212.93L1162.05 213.1L1162.13 213.35L1162.26 213.52L1162.34 213.69L1162.47 213.86L1162.51 214.03L1162.47 214.11H1162.13H1161.84L1161.17 214.24L1160.37 214.37L1160.12 214.41L1159.83 214.45L1159.66 214.41V214.28V214.2L1160 213.99H1159.98Z" fill="#231815"/>
<path d="M1206.11 223.35L1205.77 223.14L1205.39 222.89L1204.89 222.55L1204.05 222.13L1203.5 221.88L1202.87 221.63L1202.16 221.38L1201.7 221.17L1201.15 221L1200.52 220.75L1199.97 220.54L1199.13 220.25L1198.5 219.91L1197.83 219.53L1197.28 219.24L1196.78 218.95V218.7L1196.99 218.28L1197.07 217.9L1197.32 217.19L1197.45 216.69L1197.57 216.1L1197.82 215.3L1198.03 214.88L1198.2 214.33L1198.62 213.61L1198.91 213.27L1198.99 212.93L1198.86 212.47L1198.65 212.09L1198.31 211.54L1197.8 210.95L1198.09 210.7L1198.51 210.32L1199.01 209.9L1199.35 209.61L1199.73 209.32L1200.19 208.86L1200.69 208.31L1201.03 207.97L1201.37 207.51L1201.33 207.22L1201.2 206.88L1200.99 206.5L1200.74 206.21L1200.4 205.87L1199.94 205.45L1199.39 205.24L1198.72 205.2L1198.17 205.12L1197.79 205.04L1197.75 204.7L1197.92 204.32L1198.09 203.9L1198.22 203.48L1198.43 202.6L1198.51 202.14L1198.64 201.68V201.18L1198.55 200.55L1198.34 199.71L1198.21 199.29L1197.96 198.74L1197.83 198.4L1197.62 198.06L1197.45 197.93L1197.03 197.89L1196.53 198.02L1196.07 198.19L1195.69 198.32L1195.19 198.62L1194.77 198.87L1194.56 199.04L1194.35 199.25L1194.14 199.63L1193.8 200.13L1193.46 200.59L1193.17 201.18L1192.96 201.64L1192.71 202.1L1192.63 202.44L1192.8 202.4L1193.14 202.15L1193.48 201.9L1193.94 201.52L1194.36 201.22L1194.82 200.88L1195.24 200.54L1195.62 200.29L1195.87 200.04L1196.08 199.91L1196.16 199.95L1196.29 200.2L1196.42 200.58V200.87L1196.3 201.21L1196.22 201.67L1196.14 202.09L1195.97 202.8L1195.89 203.3L1195.77 203.93L1195.52 204.39L1195.27 204.89L1194.98 205.27V205.61L1195.07 205.99L1195.28 206.54L1195.53 207.13L1195.78 207.55L1196.08 207.97L1196.25 208.31L1196.54 208.39L1196.88 208.22L1197.43 208.09L1197.85 208.01L1198.23 207.88L1198.44 207.92L1198.23 208.17L1197.85 208.63L1197.47 208.88L1196.76 209.47L1196.34 209.85L1195.75 210.31L1195.25 210.61L1194.87 210.9L1194.37 211.32L1193.99 211.53L1193.61 211.74L1193.15 211.91L1192.69 212.04L1192.1 212.17L1191.76 212.25L1191.72 212L1191.89 211.71L1191.97 211.21L1192.09 209.91L1192.17 208.9L1192.3 208.44L1192.43 208.06L1192.55 207.3L1192.76 206.71L1192.93 206.33L1193.14 205.95L1193.27 205.49L1193.35 205.03L1193.39 204.61V204.11L1193.26 203.69L1193.09 203.4L1192.75 203.19L1192.41 202.98L1192.03 202.73L1191.74 202.52L1191.32 202.27L1190.94 202.02L1190.48 201.89L1190.52 202.02V202.36V202.74L1190.65 203.2L1190.74 203.7V204.2V205L1190.7 206.05L1190.66 206.64V207.31L1190.49 207.98L1190.41 208.36L1190.33 208.78L1190.2 209.16L1189.91 209.5L1189.7 209.92V210.3V210.68L1189.83 211.06L1190 211.48L1190.21 211.94L1190.42 212.19L1190.67 212.61L1190.54 212.65L1190.16 212.73L1189.91 212.86L1189.7 213.07V213.24L1189.91 213.49L1190.16 213.78L1190.41 214.03L1190.7 214.2L1191.08 214.41L1191.58 214.58L1192.17 214.62L1192.67 214.45L1193.22 214.32L1193.89 214.15L1194.56 213.9L1195.15 213.77L1195.57 213.69L1195.65 213.9L1195.61 214.45L1195.48 214.87L1195.31 215.5L1195.1 216L1194.97 216.42L1194.76 216.8L1194.63 217.14L1194.38 217.22L1194.09 217.01L1193.75 216.8L1193.46 216.59L1193.12 216.34L1192.78 216.05L1192.49 215.8L1192.15 215.55H1192.04L1191.48 215.47L1190.89 215.43L1190.43 215.39L1190.01 215.35L1189.63 215.31L1189.21 215.35L1188.83 215.43L1188.45 215.56L1188.11 215.69L1187.86 215.82L1187.57 216.07L1187.23 216.36L1187.1 216.15L1186.89 215.94L1186.43 215.69L1186.01 215.52L1185.59 215.44L1185.04 215.4L1184.33 215.49L1183.49 215.7L1182.99 215.87L1182.44 216.08L1181.68 216.42L1181.05 216.76L1180.59 217.14L1180.17 217.43L1179.96 217.64L1179.88 217.68L1179.59 217.47L1179.3 217.22L1178.88 217.01L1178.42 217.05L1178.46 217.22L1178.55 217.72L1178.68 218.14L1178.81 218.77L1178.85 219.23L1178.98 219.73L1179.11 220.23L1179.24 220.78L1179.28 221.24L1179.45 221.62L1179.53 222.04L1179.66 222.46L1179.96 222.96L1180.09 223.25L1180.34 223.59L1180.59 223.84L1180.88 224.05L1181.34 224.26L1181.42 223.92L1181.46 223.58L1181.5 223.24H1181.84L1182.64 223.15L1183.27 223.06L1183.69 222.98L1184.24 222.89L1184.7 222.76L1185.33 222.55L1185.79 222.38L1186.17 222.17L1186.38 222.13L1186.59 222.21L1186.8 222.34L1187.01 222.51L1187.39 222.76L1187.68 222.89L1188.06 223.1L1188.56 223.23L1189.44 223.35L1190.24 223.43L1191.21 223.34L1191.84 223.21L1192.47 223L1192.93 222.75L1193.43 222.45L1193.93 222.15L1194.52 221.69L1194.77 221.44L1195.15 221.06L1195.44 220.72L1195.73 220.85L1195.9 221.02L1196.19 221.23L1196.65 221.57L1196.73 221.78L1197.07 222.03L1197.45 222.32L1198.04 222.87L1198.29 223.08L1198.67 223.42L1198.96 223.76L1199.34 224.05L1199.68 224.22L1200.27 224.34L1200.86 224.42L1201.49 224.5H1202.2L1202.62 224.41H1203.29L1204.13 224.36L1204.55 224.49L1205.01 224.53L1205.39 224.45L1205.64 224.24L1205.89 223.95L1206.1 223.57V223.32L1206.11 223.35ZM1184.5 218.64L1184.25 219.27L1183.96 220.03L1183.71 220.62L1183.5 220.96L1182.87 221.21L1182.2 221.42L1181.82 221.55L1181.61 221.34V220.88L1181.44 220.46L1181.36 220.04L1181.23 219.54L1181.15 219.25L1181.11 219L1181.45 218.58L1182 218.2L1182.5 217.86L1182.84 217.69L1183.13 217.52L1183.38 217.35L1183.59 217.18L1183.97 217.1L1184.39 217.06L1184.64 217.1L1184.68 217.44L1184.72 217.99L1184.51 218.66L1184.5 218.64ZM1193.28 219.47L1192.78 219.93L1192.23 220.44L1191.6 220.95L1190.84 221.41L1190.17 221.66L1189.41 221.79L1188.61 221.88L1187.56 221.84L1187.27 221.71L1186.64 221.59L1186.26 221.34L1186.13 221.09L1186.05 220.84L1186.34 220.5L1186.68 220L1187.02 219.5L1187.36 219.08L1187.61 218.58V218.12L1187.65 217.66L1187.61 217.16V216.82L1188.28 216.78L1189.33 216.86L1189.79 216.9L1190.21 217.03L1190.59 217.07L1191.26 217.28L1191.6 217.41L1191.81 217.66L1192.36 217.91L1192.74 218.2L1193.12 218.58L1193.5 219L1193.29 219.5L1193.28 219.47Z" fill="#231815"/>
<path d="M1185.98 201.369L1186.11 202.039L1186.07 202.459L1185.61 202.799L1184.72 203.009L1183.97 203.309L1182.83 203.599L1181.83 203.939L1180.44 204.189L1181.07 203.349L1181.7 202.389L1181.99 201.799L1181.91 201.539L1181.57 201.079L1181.23 200.579L1181.06 200.449L1180.68 199.909L1180.47 199.449L1180.43 199.029L1181.48 199.069L1182.32 199.229L1183.2 199.439L1184.09 199.729L1185.01 200.109L1185.6 200.489L1185.81 200.819L1185.98 201.369Z" fill="#231815"/>
<path d="M1181.51 215.499L1181.47 215.409L1180.97 215.449L1180.38 215.539H1180L1179.54 215.369L1179.33 215.039L1179.16 214.739L1178.91 214.279L1178.78 213.819V213.609H1179.2L1179.62 213.519L1180.16 213.359L1180.54 213.269L1180.88 213.139L1181.09 212.929L1181.38 212.719L1181.72 212.429L1182.05 212.129L1182.26 211.919L1182.56 211.669L1183.1 211.839L1182.85 212.089L1183.69 211.839L1184.36 211.539L1184.95 211.329L1185.45 211.369L1186 211.539L1186.38 211.909L1186.63 212.289L1186.55 212.799L1186.34 213.219L1185.58 213.679L1184.49 214.229L1183.61 214.649L1182.73 215.199L1182.06 215.579L1181.39 215.919L1180.76 216.129L1181.22 215.789L1181.51 215.499Z" fill="#231815"/>
<path d="M1180.49 209.449L1181.12 209.239L1181.71 208.899L1182.3 208.689L1182.89 208.479L1183.56 208.179L1184.02 208.009L1184.56 207.759L1185.07 207.589H1185.32L1185.78 207.669L1186.16 207.919L1186.46 208.169L1186.75 208.589L1186.71 209.009L1186.5 209.439L1186.04 209.769L1185.49 210.189L1184.78 210.699L1184.07 211.159L1183.61 211.539L1183.1 211.839L1182.56 211.669L1182.81 211.499L1182.93 211.379L1183.02 211.159L1182.89 211.079L1182.34 211.169L1181.71 211.339L1181.38 211.419L1181.13 211.339L1180.62 211.089L1180.41 210.749L1180.2 210.459L1180.03 210.079L1179.86 209.699L1179.78 209.449L1179.74 209.319H1180.07L1180.49 209.449Z" fill="#231815"/>
<path d="M1175.87 207.689L1175.24 207.189L1174.94 206.769L1176.45 206.679L1177.71 206.219L1178.85 205.789L1180.23 205.289L1181.66 204.649L1182.92 204.319L1183.88 203.979L1184.98 203.599L1186.07 203.299L1187.03 203.089L1187.92 203.129L1188.42 203.419L1188.72 203.839L1188.97 204.219L1188.93 204.719L1188.22 205.189L1186.91 205.779L1185.61 206.239L1184.18 206.829L1183.01 207.299L1181.67 207.759L1180.41 208.229L1179.23 208.649L1178.56 208.819L1177.93 208.859L1177.17 208.699L1176.54 208.319L1175.87 207.689Z" fill="#231815"/>
<path d="M1088.92 211.241L1088.7 210.091L1088.13 209.161L1087.33 208.591L1086.05 208.421L1085.12 208.771L1084.11 209.171L1084.29 208.861L1084.91 207.801L1085.53 206.831L1086.19 205.861L1086.89 204.931L1087.73 204.221L1088.61 203.331L1088.92 202.761L1088.83 202.411L1088.12 201.401L1087.41 200.611L1086.39 200.131L1085.64 200.401L1085.51 200.531L1084.54 201.151L1083.97 201.331L1082.86 201.771L1081.85 202.261L1080.92 202.171L1079.86 201.911V202.261L1080.39 202.791L1081.14 203.671L1081.89 204.681L1082.11 204.861L1083.08 205.521L1082.99 206.011L1082.64 206.891L1082.02 208.081L1081.1 209.501L1080.88 209.941L1080.31 211.051L1079.25 213.081L1079.03 213.431L1078.41 214.401L1077.75 215.421L1077.09 216.391L1076.39 217.361L1075.81 217.051L1076.12 218.241L1076.7 219.211L1077.01 219.121L1077.58 218.721L1078.33 217.921L1079.21 216.771L1080.27 215.221L1080.32 215.401L1080.85 217.121L1081.21 218.221L1081.43 218.711L1082.45 219.111L1083.29 218.581V217.741L1083.42 217.691L1084.66 217.341L1085.41 217.121L1086.56 216.901H1086.87L1087.49 216.241L1087.31 215.221V215.091L1087.35 214.871L1087.83 213.851L1088.36 212.791L1088.98 211.681L1088.94 211.241H1088.92ZM1085.26 212.491L1084.86 213.601L1084.46 214.751L1083.93 214.971L1082.91 215.411L1082.78 214.971L1082.47 213.871L1082.03 212.681L1082.56 211.841H1082.65L1083.75 211.661L1084.99 211.441L1085.52 211.841L1085.26 212.501V212.491Z" fill="#231815"/>
<path d="M1103.52 222.13L1102.99 221.12L1102.42 220.72L1101.93 220.23L1101.05 219.61L1100.25 219.17L1100.38 219.08L1100.69 218.77L1101 218.24L1101.26 217.62L1101.48 216.82L1101.7 215.89L1101.88 214.83L1102.01 213.59L1102.14 212.22L1102.23 210.72L1102.27 209.09L1102.31 207.28L1102.35 205.34L1102.26 204.94L1101.91 203.88L1101.25 203.04L1100.28 202.34L1099.93 202.38L1098.69 202.56L1097.54 202.74L1096.48 202.96L1096.96 202.21L1097.14 202.08L1098.16 201.55L1099.17 201.02L1100.23 200.44L1101.29 199.86L1102.35 199.28L1102.61 198.18L1102.52 198.05L1101.72 197.34L1100.53 196.94L1099.78 197.08L1098.81 197.3L1097.75 197.57L1096.65 197.84L1095.46 198.15L1094.27 198.51L1092.99 198.91L1091.62 199.31L1090.96 199.13L1090.61 199.31V199.4L1091.1 200.59L1091.81 201.43L1092.65 201.87L1093.49 201.78L1094.68 201.6L1094.5 201.91L1093.88 202.93L1093.35 203.99L1092.38 204.39L1092.07 205.36L1091.81 206.42L1091.59 207.52L1091.37 208.67L1091.2 209.82L1091.07 211.01L1090.98 212.25L1090.89 213.53L1090.85 214.81L1091.2 215.74L1091.73 216.75L1090.67 217.15L1089.52 217.46L1088.64 217.2L1088.29 217.95L1088.38 218.08L1089.18 218.83L1090.24 219.36H1090.37L1091.39 219.23L1092.54 219.01L1093.78 218.56L1093.52 219.22L1092.6 220.46L1091.85 221.48L1091.01 222.37L1090.17 223.08L1089.24 223.65L1090.21 224L1090.74 223.96L1091.89 223.65L1092.82 223.08L1093.09 222.86L1094.15 221.75L1094.99 220.82L1095.61 220.02L1096.05 219.36L1096.49 218.74L1097.19 217.68L1097.67 216.88L1097.8 217.1L1098.51 218.11L1099.22 218.95L1098.78 218.82H1098.6L1097.59 219.17L1097.15 219.08L1097.77 219.83L1098.48 220.84L1098.61 220.97L1099.32 221.98L1099.85 222.6L1100.82 223.48L1101.66 224.36L1102.23 224.85H1102.28L1103.38 224.45L1103.78 223.3L1103.56 222.11L1103.52 222.13ZM1099.87 205.34L1099.78 206.49L1099.69 207.64L1099.6 208.79L1099.56 209.94L1099.52 211.13L1099.48 212.37L1099.44 213.56V214.8V216.08L1098.86 215.99L1097.71 215.82L1097.67 215.73L1096.83 214.98L1095.77 214.72L1095.64 214.85L1094.89 215.43L1093.83 215.96L1092.42 216.45L1092.46 215.92V215.64L1092.5 214.77L1092.54 213.44L1092.63 213.53L1093.56 214.15H1093.74L1094.89 214.01L1094.62 214.23L1093.56 214.94L1092.9 215.65L1093.83 215.21L1093.96 215.17L1094.98 214.55L1095.95 213.93L1096.97 213.31L1097.98 212.64H1098.07L1098.25 211.8L1097.85 211.36L1096.79 210.83L1096.26 211.01L1095.24 211.41L1094.09 211.85L1092.81 212.34H1092.63V211.81V211.54V210.39V209.15L1092.94 209.59L1093.82 210.16L1094.75 209.89L1094.57 210.07L1093.78 211L1093.73 211.04L1092.94 211.79H1092.98L1094.08 211.26L1094.92 210.68L1095.89 209.97L1096.82 209.26L1097.79 208.51L1098.41 208.07L1098.67 207.27L1098.23 206.78L1097.12 206.25L1096.37 206.61L1095.4 207.05L1094.25 207.63L1093.06 208.21L1092.66 208.08V207.11L1093.63 206.53L1094.78 205.86L1095.93 205.28L1096.99 204.88L1098.05 204.53L1099.02 204.31L1099.95 204.22L1099.86 205.32L1099.87 205.34Z" fill="#231815"/>
<path fill-rule="evenodd" clip-rule="evenodd" d="M1259.5 213.37V222.37L1259.08 223.21H1267.64L1267.21 222.38V197.81L1267.64 196.97H1240.37L1240.79 197.81V222.36L1240.37 223.2H1248.92L1248.5 222.37V213.37C1248.5 210.49 1250.73 207.83 1254.04 207.83C1257.15 207.83 1259.5 210.38 1259.5 213.37Z" fill="#C30D23"/>
<path d="M1278.29 200.299H1281.76L1283.19 198.789L1285.01 200.089C1285.22 200.269 1285.32 200.449 1285.32 200.609C1285.32 200.899 1285.16 201.029 1284.9 201.029H1282.97V222.089C1282.97 222.349 1282.87 222.529 1282.66 222.659C1282.32 222.739 1281.98 222.789 1281.64 222.789C1281.17 222.789 1280.94 222.659 1280.94 222.399L1281.04 218.229V216.119C1279.82 216.719 1278.49 217.289 1277.05 217.809L1276.82 218.699C1276.77 218.929 1276.66 219.039 1276.46 219.039C1276.26 219.039 1276.1 218.909 1276.04 218.599L1275.13 216.199C1275.68 216.149 1276.22 216.069 1276.75 215.969V201.079C1276.28 201.129 1275.86 201.159 1275.45 201.209L1274.93 199.989C1276.05 200.199 1277.17 200.299 1278.29 200.299ZM1281.05 205.199V201.029H1278.6V205.199H1281.05ZM1281.05 210.279V205.899H1278.6V210.279H1281.05ZM1281.05 215.309V210.979H1278.6V215.699C1279.43 215.599 1280.24 215.469 1281.05 215.309ZM1288.98 200.009C1289.24 200.109 1289.4 200.239 1289.4 200.399C1289.4 200.659 1289.01 200.839 1288.28 200.919C1287.63 201.829 1286.79 202.869 1285.78 204.049C1285.88 204.149 1286.01 204.259 1286.12 204.309C1286.59 204.729 1286.85 205.119 1286.85 205.479C1286.85 206.239 1286.51 206.599 1285.83 206.599C1285.65 206.599 1285.49 206.439 1285.36 206.099C1284.89 205.159 1284.27 204.219 1283.48 203.229L1284 202.939C1284.44 203.199 1284.83 203.439 1285.15 203.619C1285.46 202.839 1285.7 202.209 1285.91 201.719C1286.25 200.809 1286.54 199.919 1286.74 199.059L1288.98 199.999V200.009ZM1290.75 203.509C1290.98 203.609 1291.11 203.719 1291.11 203.879C1291.11 204.139 1290.77 204.319 1290.09 204.379C1289.2 205.549 1288.08 206.879 1286.73 208.369C1286.89 208.369 1287.04 208.369 1287.2 208.339C1288.06 208.289 1288.79 208.209 1289.39 208.159C1289.23 207.799 1289.05 207.399 1288.87 207.039L1289.39 206.729C1290.02 207.249 1290.54 207.769 1290.95 208.239C1291.31 208.739 1291.52 209.149 1291.52 209.489C1291.52 210.249 1291.21 210.609 1290.61 210.609C1290.3 210.609 1290.09 210.379 1289.98 209.879C1289.88 209.569 1289.8 209.229 1289.69 208.919C1289.17 209.129 1288.54 209.359 1287.81 209.619C1286.72 210.039 1285.91 210.299 1285.39 210.399L1285.08 211.129C1284.98 211.339 1284.85 211.419 1284.69 211.419C1284.48 211.419 1284.35 211.259 1284.33 210.919L1283.68 208.569C1284.36 208.539 1285.06 208.489 1285.76 208.439C1286.33 207.449 1286.8 206.669 1287.14 206.069C1287.74 204.899 1288.23 203.749 1288.65 202.659L1290.74 203.519L1290.75 203.509ZM1286.19 212.109C1286.55 212.159 1286.74 212.319 1286.74 212.529C1286.74 212.659 1286.64 212.759 1286.48 212.839L1286.14 213.019V216.379H1288.49C1288.54 215.859 1288.59 215.289 1288.59 214.659V214.139C1288.59 213.639 1288.51 212.599 1288.38 210.989L1290.7 211.329C1291.17 211.379 1291.43 211.559 1291.43 211.829C1291.43 212.059 1291.12 212.299 1290.52 212.529V214.669C1290.52 215.759 1290.39 216.729 1290.18 217.619C1289.97 218.429 1289.68 219.129 1289.27 219.709C1288.83 220.339 1288.25 220.859 1287.55 221.329C1286.82 221.829 1285.75 222.289 1284.4 222.739L1284.22 222.109C1285.11 221.719 1285.81 221.299 1286.28 220.829C1286.85 220.359 1287.32 219.809 1287.69 219.189C1287.98 218.699 1288.21 218.039 1288.37 217.239C1288.37 217.189 1288.4 217.159 1288.4 217.139H1286.16V218.159C1286.16 218.419 1286 218.629 1285.74 218.789C1285.45 218.919 1285.19 218.969 1284.93 218.969C1284.54 218.969 1284.33 218.809 1284.33 218.449L1284.41 216.029V214.389C1284.41 212.929 1284.33 212.099 1284.23 211.859L1286.21 212.149L1286.19 212.109ZM1296.72 200.119C1296.98 200.219 1297.14 200.349 1297.14 200.509C1297.14 200.769 1296.75 200.949 1296.02 201.029C1295.34 201.939 1294.51 203.009 1293.47 204.239C1293.6 204.339 1293.73 204.449 1293.86 204.529C1294.33 204.899 1294.59 205.259 1294.59 205.599C1294.59 206.359 1294.25 206.719 1293.57 206.719C1293.39 206.719 1293.23 206.559 1293.07 206.249C1292.6 205.359 1292 204.479 1291.22 203.569L1291.74 203.259C1292.16 203.489 1292.52 203.699 1292.83 203.859C1293.17 203.029 1293.43 202.369 1293.64 201.849C1293.95 200.939 1294.24 200.049 1294.47 199.189L1296.71 200.129L1296.72 200.119ZM1298.78 203.509C1299.04 203.609 1299.17 203.719 1299.17 203.879C1299.17 204.139 1298.83 204.319 1298.15 204.379C1297.26 205.419 1296.17 206.619 1294.87 207.979C1294.97 207.979 1295.05 207.949 1295.13 207.949C1296.02 207.869 1296.75 207.789 1297.37 207.719C1297.21 207.409 1297.08 207.119 1296.93 206.829L1297.43 206.519C1298.11 207.069 1298.68 207.589 1299.15 208.109C1299.57 208.609 1299.78 209.019 1299.78 209.389C1299.78 210.219 1299.44 210.619 1298.76 210.619C1298.42 210.619 1298.21 210.359 1298.11 209.839C1298.01 209.369 1297.85 208.929 1297.67 208.459C1297.15 208.689 1296.52 208.949 1295.79 209.219C1294.8 209.639 1294.04 209.899 1293.57 209.999L1293.26 210.729C1293.16 210.939 1293.03 211.019 1292.87 211.019C1292.66 211.019 1292.53 210.859 1292.51 210.519L1291.86 208.169C1292.54 208.139 1293.19 208.089 1293.84 208.039C1294.41 207.149 1294.88 206.419 1295.2 205.879C1295.83 204.779 1296.32 203.719 1296.74 202.669L1298.8 203.529L1298.78 203.509ZM1294.27 211.559C1294.69 211.609 1294.9 211.769 1294.9 211.999C1294.9 212.179 1294.8 212.309 1294.59 212.389L1294.17 212.619V216.369H1296.7L1296.73 215.879V214.759C1296.73 213.199 1296.65 212.259 1296.52 211.999L1298.61 212.309C1298.97 212.359 1299.18 212.519 1299.18 212.729C1299.18 212.889 1299.08 213.019 1298.92 213.089L1298.56 213.319V218.119C1298.56 218.379 1298.4 218.589 1298.14 218.749C1297.85 218.879 1297.59 218.929 1297.36 218.929C1296.89 218.929 1296.66 218.749 1296.63 218.329L1296.68 217.099H1294.18V221.769C1294.18 222.079 1294 222.319 1293.68 222.469C1293.37 222.629 1293.05 222.699 1292.77 222.699C1292.38 222.699 1292.17 222.489 1292.14 222.069L1292.24 219.439V214.039C1292.24 212.399 1292.16 211.429 1292.03 211.169L1294.27 211.529V211.559Z" fill="#231815"/>
<path d="M1306.4 201.029H1308.85L1310.28 199.489L1312.1 200.819C1312.31 200.979 1312.41 201.159 1312.41 201.319C1312.41 201.609 1312.25 201.739 1311.99 201.739H1308.13C1307.63 203.959 1307.17 205.729 1306.7 207.029C1306.54 207.529 1306.36 207.989 1306.2 208.409L1306.8 208.749H1308.73L1309.85 207.629L1311.36 208.799C1311.62 208.979 1311.78 209.139 1311.78 209.269C1311.78 209.449 1311.68 209.579 1311.52 209.659L1310.87 209.969V217.919L1310.97 220.159C1310.97 220.339 1310.84 220.499 1310.63 220.629C1310.42 220.789 1310.16 220.859 1309.85 220.859C1309.22 220.859 1308.94 220.679 1308.94 220.359V219.029H1306.8V220.749C1306.8 221.109 1306.62 221.349 1306.25 221.509C1305.99 221.609 1305.68 221.669 1305.36 221.669C1304.97 221.669 1304.76 221.459 1304.76 221.069C1304.76 220.549 1304.79 219.689 1304.86 218.409V211.139C1304.81 211.269 1304.76 211.369 1304.7 211.429C1304.07 212.519 1303.45 213.409 1302.82 214.139L1302.51 213.639C1302.85 213.069 1303.21 212.229 1303.6 211.139C1304.1 209.679 1304.54 208.089 1304.9 206.419C1305.21 205.009 1305.53 203.449 1305.79 201.749C1305.03 201.779 1304.28 201.829 1303.52 201.929L1303 200.709C1304.12 200.919 1305.24 201.019 1306.36 201.019L1306.4 201.029ZM1308.95 218.339V209.479H1306.81V218.339H1308.95ZM1318.67 218.939C1318.9 219.099 1319.04 219.279 1319.04 219.459C1319.04 219.689 1318.62 219.819 1317.81 219.849C1316.56 220.549 1315.28 221.149 1313.98 221.649C1313.17 221.939 1311.95 222.299 1310.28 222.719L1309.97 222.199C1311.48 221.469 1312.71 220.819 1313.64 220.249C1314.76 219.469 1315.8 218.629 1316.79 217.719L1318.67 218.949V218.939ZM1316.07 200.199H1323.21L1324.72 198.479L1326.75 199.939C1326.96 200.149 1327.06 200.329 1327.06 200.509C1327.06 200.799 1326.93 200.929 1326.67 200.929H1320.49C1319.92 202.179 1319.21 203.409 1318.4 204.579H1322.78L1324 203.349L1325.51 204.599C1325.77 204.779 1325.93 204.939 1325.93 205.099C1325.93 205.279 1325.83 205.409 1325.67 205.489L1325.02 205.799V214.969L1325.12 217.209C1325.12 217.419 1324.99 217.599 1324.78 217.759C1324.57 217.939 1324.31 218.019 1324 218.019C1323.32 218.019 1322.98 217.859 1322.98 217.499V216.899H1315.66V217.319C1315.66 217.629 1315.5 217.839 1315.22 217.949C1314.91 218.159 1314.59 218.239 1314.23 218.239C1313.76 218.239 1313.53 218.009 1313.53 217.509L1313.63 214.979V205.209C1313.63 204.319 1313.55 203.719 1313.42 203.459L1315.66 204.579H1317.54L1318.24 200.929H1316.05C1315.11 200.929 1314.15 201.009 1313.21 201.109L1312.69 199.909C1313.81 200.119 1314.93 200.199 1316.05 200.199H1316.07ZM1323 208.349V205.299H1315.68V208.349H1323ZM1323 212.109V209.059H1315.68V212.109H1323ZM1323 216.199V212.839H1315.68V216.199H1323ZM1325.66 219.529C1326.73 220.079 1327.28 220.679 1327.28 221.379C1327.28 222.079 1326.89 222.499 1326.16 222.499C1325.95 222.499 1325.69 222.319 1325.38 222.009C1324.18 220.859 1322.59 219.719 1320.66 218.519L1320.97 218.019C1322.92 218.459 1324.49 218.959 1325.66 219.529Z" fill="#231815"/>
<path d="M1333.1 206.319V201.029C1333.1 200.769 1333.05 200.269 1333 199.489L1335.37 199.829C1335.81 199.879 1336.05 200.039 1336.05 200.299C1336.05 200.589 1335.71 200.819 1335.03 201.029V206.319H1335.55L1336.78 204.989L1338.42 206.159C1338.6 206.319 1338.71 206.469 1338.71 206.599C1338.71 206.889 1338.61 207.019 1338.4 207.019H1335.04V214.889C1335.3 214.789 1335.56 214.679 1335.82 214.579C1336.78 214.189 1337.62 213.769 1338.3 213.329L1338.4 213.959C1337.85 214.509 1337.25 215.029 1336.6 215.519C1335.87 216.089 1334.96 216.689 1333.84 217.319C1333.16 217.679 1332.54 217.999 1331.99 218.229L1331.7 218.929C1331.57 219.289 1331.39 219.449 1331.18 219.449C1331.02 219.419 1330.89 219.269 1330.82 218.949L1330.17 216.269C1330.93 216.189 1331.86 215.979 1332.96 215.639C1333.01 215.639 1333.06 215.609 1333.12 215.589V207.009C1332.23 207.039 1331.4 207.109 1330.57 207.219L1330.07 205.989C1331.09 206.199 1332.1 206.299 1333.12 206.299L1333.1 206.319ZM1350.4 205.099L1351.73 203.669L1353.76 204.969C1354.02 205.149 1354.18 205.339 1354.18 205.489C1354.18 205.699 1353.74 205.989 1352.85 206.319C1352.43 211.009 1352.17 213.639 1352.04 214.219C1351.83 214.769 1351.52 215.129 1351.1 215.339C1350.66 215.649 1350.06 215.779 1349.28 215.779C1349.2 214.839 1349.05 214.319 1348.78 214.159L1347.55 213.529L1347.65 212.929L1349.47 213.319C1349.68 213.319 1349.86 213.269 1350.02 213.139C1350.18 213.039 1350.28 212.799 1350.36 212.439C1350.46 212.019 1350.62 209.829 1350.88 205.849L1346.92 207.129V215.889C1346.92 216.199 1346.74 216.439 1346.42 216.589C1346.11 216.749 1345.79 216.799 1345.51 216.799C1345.04 216.799 1344.81 216.569 1344.78 216.099L1344.88 213.339V207.789L1341.83 208.779V218.629C1341.83 219.179 1342.19 219.519 1342.95 219.619C1343.68 219.779 1345.17 219.849 1347.35 219.849C1349.53 219.849 1350.76 219.769 1351.39 219.589C1351.89 219.489 1352.22 219.279 1352.38 218.959L1353.42 215.779H1353.94V218.619C1353.94 218.929 1354.1 219.189 1354.41 219.399C1354.62 219.609 1354.75 219.899 1354.75 220.259C1354.75 220.599 1354.54 220.859 1354.18 221.039C1353.82 221.269 1353.19 221.459 1352.3 221.589C1351.18 221.689 1349.56 221.769 1347.45 221.769C1344.95 221.769 1343.23 221.669 1342.29 221.479C1341.46 221.379 1340.8 221.119 1340.39 220.669C1339.97 220.229 1339.79 219.649 1339.79 218.919V209.429L1339.03 209.659L1337.54 210.359L1337.02 208.929L1338.66 208.849L1339.78 208.479V203.739C1339.78 202.649 1339.73 201.969 1339.68 201.709L1342.29 202.019C1342.65 202.069 1342.84 202.199 1342.84 202.409C1342.84 202.589 1342.71 202.749 1342.45 202.849L1341.82 203.209V207.849L1344.87 206.889V201.909C1344.87 200.159 1344.79 199.149 1344.66 198.829L1347.01 199.199C1347.43 199.279 1347.64 199.429 1347.64 199.669C1347.64 199.849 1347.54 200.009 1347.33 200.109L1346.91 200.369V206.229L1350.45 205.109L1350.37 205.059L1350.4 205.099Z" fill="#231815"/>
<path d="M1361.72 210.07C1361.72 213.28 1361.36 215.88 1360.63 217.89C1360 219.71 1359.09 221.28 1357.95 222.61L1357.56 222.19C1358.13 221.1 1358.63 219.79 1359.02 218.2C1359.46 216.38 1359.7 213.67 1359.7 210.07V208.84C1359.7 208.06 1359.65 207.41 1359.6 206.91L1361.58 208.14H1377.92L1379.56 206.32L1381.64 207.86C1381.85 208.07 1381.98 208.25 1381.98 208.46C1381.98 208.72 1381.8 208.85 1381.48 208.85H1361.72V210.08V210.07ZM1371.78 198.89C1372.25 198.97 1372.51 199.12 1372.51 199.39C1372.51 199.7 1372.17 199.99 1371.49 200.2V201.22H1377.2L1378.71 199.5L1380.72 200.99C1380.93 201.17 1381.06 201.36 1381.06 201.54C1381.06 201.83 1380.93 201.96 1380.67 201.96H1375.17L1376.66 202.72C1376.95 202.85 1377.1 203.03 1377.1 203.27C1377.1 203.53 1376.68 203.66 1375.88 203.69C1375.31 204.05 1374.71 204.37 1374.13 204.65C1374.7 204.86 1375.22 205.07 1375.64 205.25C1376.47 205.61 1376.89 206.08 1376.89 206.63C1376.89 207.26 1376.55 207.57 1375.87 207.57C1375.71 207.57 1375.32 207.41 1374.75 207.05C1373.99 206.58 1373.08 206.09 1372.04 205.59C1370.89 206.06 1369.67 206.45 1368.34 206.76C1367.11 207.1 1365.29 207.44 1362.84 207.75L1362.63 207.15C1364.09 206.86 1365.13 206.63 1365.76 206.47C1366.96 206.16 1368.03 205.82 1368.97 205.4C1369.44 205.22 1369.88 205.01 1370.3 204.8C1368.42 204.04 1366.73 203.47 1365.19 203.08L1365.58 202.66C1367.87 203.02 1369.91 203.42 1371.68 203.88C1371.73 203.91 1371.81 203.93 1371.86 203.93C1372.07 203.8 1372.28 203.67 1372.49 203.54C1373.27 203.02 1373.95 202.47 1374.52 201.95H1362.84C1361.88 201.95 1360.94 202.03 1360 202.13L1359.48 200.93C1360.6 201.14 1361.72 201.22 1362.84 201.22H1369.46V200.1C1369.46 199.87 1369.41 199.37 1369.36 198.59L1371.78 198.9V198.89ZM1367.48 210.44C1367.77 210.54 1367.92 210.73 1367.92 210.99C1367.92 211.22 1367.58 211.41 1366.9 211.51C1366.56 212.14 1366.25 212.66 1365.99 213.13H1370.37V210.99C1370.37 210.76 1370.32 210.26 1370.27 209.48L1372.69 209.79C1373.16 209.87 1373.42 210.02 1373.42 210.28C1373.42 210.59 1373.08 210.88 1372.4 211.09V213.12H1376.67L1378.1 211.5L1380.03 212.91C1380.24 213.09 1380.34 213.27 1380.34 213.43C1380.34 213.72 1380.18 213.85 1379.92 213.85H1372.39V216.9H1376.17L1377.58 215.26L1379.51 216.67C1379.72 216.85 1379.82 217.03 1379.82 217.22C1379.82 217.48 1379.69 217.61 1379.43 217.61H1372.39V221.18H1378.1L1379.64 219.46L1381.65 220.92C1381.86 221.1 1381.96 221.29 1381.96 221.49C1381.96 221.75 1381.83 221.88 1381.57 221.88H1364.65C1363.71 221.88 1362.75 221.93 1361.81 222.09L1361.29 220.86C1362.41 221.07 1363.53 221.17 1364.65 221.17H1370.36V217.6H1367.91C1366.97 217.6 1366.01 217.68 1365.07 217.81L1364.55 216.59C1365.67 216.8 1366.79 216.9 1367.91 216.9H1370.36V213.85H1365.54C1365.23 214.32 1364.94 214.71 1364.68 215.07C1364.13 215.75 1363.35 216.56 1362.31 217.49L1361.81 217.2C1362.64 215.95 1363.27 214.8 1363.71 213.76C1364.23 212.61 1364.7 211.23 1365.17 209.67L1367.46 210.43L1367.48 210.44Z" fill="#231815"/>
<defs>
<clipPath id="clip0_2003_2816">
<rect width="547" height="93" fill="white" transform="translate(879 36)"/>
</clipPath>
</defs>
</svg>
