<svg width="289" height="84" viewBox="0 0 289 84" fill="none" xmlns="http://www.w3.org/2000/svg">
<path d="M23.488 12.648H42.304V15.08H23.488V12.648ZM32.736 30.536H41.152V32.936H32.736V30.536ZM23.008 21.224H43.072V23.624H23.008V21.224ZM24.864 16.872H40.896V28.136H24.864V25.832H38.08V19.24H24.864V16.872ZM31.168 9.992H33.984V37.96L31.168 36.424V9.992ZM24.992 28.648L27.776 29C27.104 33.608 25.568 37.384 23.104 39.848C22.592 39.368 21.44 38.536 20.768 38.152C23.2 36.04 24.48 32.648 24.992 28.648ZM26.88 31.464C28.64 35.88 32.192 36.808 36.864 36.808C37.696 36.808 41.856 36.808 43.072 36.776C42.688 37.416 42.272 38.664 42.176 39.4H36.704C30.88 39.4 27.04 38.056 24.736 32.328L26.88 31.464ZM12.768 26.376C15.296 25.736 19.072 24.616 22.688 23.528L23.104 26.28C19.776 27.368 16.256 28.456 13.504 29.288L12.768 26.376ZM13.248 16.296H23.008V19.08H13.248V16.296ZM16.992 10.024H19.776V36.36C19.776 37.896 19.488 38.696 18.592 39.144C17.76 39.624 16.448 39.72 14.4 39.72C14.304 38.984 13.952 37.736 13.568 36.904C14.88 36.968 16.064 36.968 16.448 36.936C16.832 36.936 16.992 36.808 16.992 36.36V10.024ZM64.672 14.472H67.616V35.368H64.672V14.472ZM60.608 25.192V26.984H71.84V25.192H60.608ZM60.608 21.608V23.368H71.84V21.608H60.608ZM58.112 19.656H74.432V28.936H58.112V19.656ZM56.352 11.08H75.808V17.032H72.896V13.352H59.136V17.032H56.352V11.08ZM58.88 15.88H73.472V18.056H58.88V15.88ZM56.608 30.664H76.192V32.968H56.608V30.664ZM48.64 11.336L50.944 9.992C52.352 11.56 54.016 13.608 54.848 14.92L52.448 16.52C51.68 15.176 49.984 12.936 48.64 11.336ZM47.648 17.48H54.368V19.944H47.648V17.48ZM53.696 31.752C55.552 36.008 59.552 36.552 65.696 36.584C69.088 36.584 74.048 36.424 77.472 36.104C77.024 36.712 76.672 38.088 76.512 38.92C73.344 39.112 69.28 39.176 65.664 39.176C58.176 39.176 54.08 38.28 51.68 32.616L53.696 31.752ZM53.152 25.32H54.048L54.528 25.256L55.84 25.768C54.88 32.648 52.416 37.288 49.056 39.784C48.672 39.176 47.648 38.152 47.072 37.736C50.24 35.56 52.384 31.496 53.152 25.8V25.32ZM48.192 28.168V25.96L49.44 25.32H54.336V27.72H50.112C49.312 27.72 48.448 27.912 48.192 28.168ZM48.192 28.168C48 27.528 47.424 26.184 47.136 25.608C47.648 25.48 48.16 25.256 48.736 24.616C49.664 23.688 52.576 19.432 53.632 17.704V17.608L54.464 17.256L56.352 18.12C54.88 20.328 52.096 24.36 50.336 26.44C50.336 26.44 48.192 27.464 48.192 28.168ZM82.4 17.896H91.872V20.904H82.4V17.896ZM98.272 10.568H101.408V33.64C101.408 35.304 101.6 35.592 102.752 35.592C103.264 35.592 105.568 35.592 106.144 35.592C107.488 35.592 107.68 34.088 107.872 28.072C108.64 28.712 109.952 29.32 110.784 29.512C110.496 36.168 109.76 38.536 106.432 38.536C105.792 38.536 102.944 38.536 102.336 38.536C99.2 38.536 98.272 37.448 98.272 33.608V10.568ZM90.24 10.568H93.376V34.344H90.24V10.568ZM81.344 36.264C84.8 35.144 90.4 33.096 95.52 31.176L96.064 33.864C91.456 35.816 86.496 37.832 82.752 39.336L81.344 36.264ZM99.904 17.864H110.144V20.872H99.904V17.864ZM115.68 26.632C118.336 26.024 122.176 25 125.888 24.008L126.304 26.76C122.912 27.752 119.328 28.776 116.512 29.544L115.68 26.632ZM116.064 16.296H126.912V19.112H116.064V16.296ZM120.224 9.992H123.168V36.104C123.168 37.672 122.848 38.472 121.888 38.92C120.96 39.4 119.52 39.464 117.28 39.464C117.184 38.696 116.8 37.448 116.416 36.68C117.824 36.744 119.2 36.712 119.584 36.712C120.032 36.712 120.224 36.552 120.224 36.104V9.992ZM130.4 11.112H138.912V13.928H130.4V11.112ZM126.752 24.04H141.408V26.856H126.752V24.04ZM140.384 24.04H140.96L141.504 23.912L143.488 24.744C140.704 33.416 133.888 37.768 125.792 39.752C125.536 38.92 124.864 37.64 124.288 36.968C131.744 35.528 138.144 31.528 140.384 24.488V24.04ZM130.176 26.216C132.736 31.688 138.176 35.528 145.568 36.968C144.896 37.64 144.064 38.92 143.648 39.752C135.968 37.96 130.624 33.64 127.552 27.144L130.176 26.216ZM129.728 11.112H132.544V14.696C132.544 17.704 131.648 21.224 127.52 23.4C127.136 22.824 126.08 21.64 125.504 21.192C129.216 19.336 129.728 16.84 129.728 14.6V11.112ZM137.504 11.112H140.384V18.344C140.384 19.272 140.48 19.592 140.96 19.592C141.376 19.592 142.72 19.592 143.136 19.592C143.616 19.592 144.384 19.528 144.8 19.432C144.864 20.168 144.928 21.288 145.056 21.96C144.608 22.152 143.872 22.184 143.168 22.184C142.688 22.184 141.184 22.184 140.736 22.184C138.08 22.184 137.504 21.064 137.504 18.28V11.112ZM150.656 15.848H163.296V18.632H150.656V15.848ZM150.336 33.64C153.504 33.032 158.272 31.944 162.784 30.888L163.072 33.672C158.88 34.728 154.4 35.816 151.04 36.648L150.336 33.64ZM151.84 20.424L154.208 19.976C154.944 23.496 155.584 27.976 155.776 31.048L153.28 31.528C153.152 28.488 152.512 23.912 151.84 20.424ZM159.136 19.624L161.952 20.136C161.28 24.296 160.256 29.64 159.36 32.872L157.12 32.36C157.952 29.064 158.784 23.528 159.136 19.624ZM154.336 10.92L156.96 10.152C157.856 11.624 158.752 13.576 159.136 14.856L156.416 15.784C156.064 14.472 155.168 12.424 154.336 10.92ZM170.56 16.296H179.776V19.176H170.56V16.296ZM165.12 35.336H176.928V38.152H165.12V35.336ZM168.832 9.96H171.936V26.44H168.832V9.96ZM163.744 25.192H178.528V39.528H175.456V28.04H166.688V39.656H163.744V25.192ZM191.744 37.448C188.064 37.448 185.664 35.976 184.064 34.184L185.888 31.816C187.264 33.224 188.992 34.408 191.456 34.408C194.08 34.408 195.904 32.936 195.904 30.504C195.904 27.88 194.24 26.216 188.96 26.216V23.464C193.568 23.464 195.104 21.736 195.104 19.368C195.104 17.288 193.76 15.976 191.488 15.976C189.696 15.976 188.16 16.84 186.816 18.184L184.864 15.848C186.752 14.184 188.928 13.032 191.648 13.032C195.872 13.032 198.848 15.208 198.848 19.08C198.848 21.8 197.28 23.688 194.784 24.616V24.776C197.504 25.48 199.648 27.496 199.648 30.696C199.648 34.952 196.096 37.448 191.744 37.448ZM212.266 37.448C208.554 37.448 206.218 35.944 204.522 34.28L206.314 31.88C207.626 33.224 209.354 34.408 211.818 34.408C214.474 34.408 216.458 32.52 216.458 29.384C216.458 26.28 214.666 24.488 211.978 24.488C210.506 24.488 209.61 24.904 208.234 25.8L206.41 24.648L207.114 13.448H219.082V16.584H210.346L209.802 22.6C210.794 22.088 211.754 21.8 213.034 21.8C216.97 21.8 220.202 24.104 220.202 29.288C220.202 34.472 216.362 37.448 212.266 37.448ZM233.3 37.448C228.66 37.448 225.684 33.32 225.684 25.128C225.684 17 228.66 13.032 233.3 13.032C237.908 13.032 240.916 17 240.916 25.128C240.916 33.32 237.908 37.448 233.3 37.448ZM233.3 34.504C235.7 34.504 237.364 31.944 237.364 25.128C237.364 18.408 235.7 15.912 233.3 15.912C230.9 15.912 229.204 18.408 229.204 25.128C229.204 31.944 230.9 34.504 233.3 34.504ZM246.398 22.184H274.91V25.224H246.398V22.184ZM259.006 10.024H262.238V39.688H259.006V10.024ZM270.27 11.496L273.598 12.808C271.998 15.592 269.982 18.728 268.382 20.712L265.758 19.528C267.326 17.416 269.214 14.024 270.27 11.496ZM248.126 12.904L250.846 11.72C252.67 13.992 254.526 17.032 255.294 19.112L252.318 20.456C251.678 18.44 249.854 15.272 248.126 12.904ZM254.974 26.824L257.63 27.784C255.486 32.392 251.742 37.032 248.158 39.592C247.646 38.856 246.622 37.736 245.918 37.128C249.374 34.984 253.054 30.792 254.974 26.824ZM263.582 28.136L265.982 26.664C269.63 30.024 273.726 34.664 275.518 37.928L272.862 39.624C271.23 36.392 267.262 31.56 263.582 28.136Z" fill="#9F291C"/>
<path d="M12.8962 55.88V79.88H11.8642V55.88H12.8962ZM34.4002 77.336C31.6402 77.336 29.8402 76.232 28.6402 74.888L30.0082 73.112C31.0402 74.168 32.3362 75.056 34.1842 75.056C36.1522 75.056 37.5202 73.952 37.5202 72.128C37.5202 70.16 36.2722 68.912 32.3122 68.912V66.848C35.7682 66.848 36.9202 65.552 36.9202 63.776C36.9202 62.216 35.9122 61.232 34.2082 61.232C32.8642 61.232 31.7122 61.88 30.7042 62.888L29.2402 61.136C30.6562 59.888 32.2882 59.024 34.3282 59.024C37.4962 59.024 39.7282 60.656 39.7282 63.56C39.7282 65.6 38.5522 67.016 36.6802 67.712V67.832C38.7202 68.36 40.3282 69.872 40.3282 72.272C40.3282 75.464 37.6642 77.336 34.4002 77.336ZM47.3197 77V74.72H51.2077V62.432H48.0157V60.68C49.6957 60.392 50.8477 59.96 51.8797 59.336H53.9677V74.72H57.4237V77H47.3197ZM63.6952 71.264V69.2H70.0312V71.264H63.6952ZM81.1533 77.336C78.3933 77.336 76.5933 76.232 75.3933 74.888L76.7613 73.112C77.7933 74.168 79.0893 75.056 80.9373 75.056C82.9053 75.056 84.2733 73.952 84.2733 72.128C84.2733 70.16 83.0253 68.912 79.0653 68.912V66.848C82.5213 66.848 83.6733 65.552 83.6733 63.776C83.6733 62.216 82.6653 61.232 80.9613 61.232C79.6173 61.232 78.4653 61.88 77.4573 62.888L75.9933 61.136C77.4093 59.888 79.0413 59.024 81.0813 59.024C84.2493 59.024 86.4813 60.656 86.4813 63.56C86.4813 65.6 85.3053 67.016 83.4333 67.712V67.832C85.4733 68.36 87.0813 69.872 87.0813 72.272C87.0813 75.464 84.4173 77.336 81.1533 77.336ZM97.8648 77.336C95.8248 77.336 94.3608 76.496 93.3528 75.44L94.8408 73.736C95.5608 74.528 96.6408 75.056 97.7448 75.056C99.9768 75.056 101.873 73.184 101.873 67.568C101.873 63.152 100.505 61.136 98.3448 61.136C96.8088 61.136 95.6088 62.504 95.6088 64.832C95.6088 67.064 96.6408 68.36 98.4888 68.36C99.5928 68.36 100.841 67.736 101.873 66.128L102.017 68.144C100.985 69.512 99.4008 70.376 97.9848 70.376C95.0328 70.376 93.0408 68.528 93.0408 64.832C93.0408 61.304 95.4408 59.024 98.3208 59.024C101.705 59.024 104.441 61.736 104.441 67.568C104.441 74.528 101.273 77.336 97.8648 77.336ZM117.456 68.6H132.456V70.76H117.456V68.6ZM118.128 57.92H131.808V60.08H118.128V57.92ZM123.792 58.424H126.072V79.016H123.792V58.424ZM129.144 61.136L131.28 61.592C130.68 63.632 129.96 66.008 129.336 67.52L127.608 67.04C128.184 65.48 128.832 62.912 129.144 61.136ZM118.848 61.736L120.672 61.28C121.344 63.128 121.872 65.48 122.064 67.04L120.12 67.544C120 65.96 119.448 63.584 118.848 61.736ZM110.448 62.432H117.24V64.592H110.448V62.432ZM112.968 57.056H115.056V72.776H112.968V57.056ZM110.04 73.184C111.888 72.608 114.72 71.624 117.408 70.664L117.792 72.68C115.392 73.688 112.848 74.696 110.832 75.488L110.04 73.184ZM149.424 55.88V79.88H148.392V55.88H149.424ZM175.512 61.04V61.928H183.216V61.04H175.512ZM175.512 62.912V63.824H183.216V62.912H175.512ZM175.512 59.168V60.056H183.216V59.168H175.512ZM173.4 58.16H185.424V64.856H173.4V58.16ZM178.152 56.72L180.504 56.96C180.024 57.728 179.472 58.376 179.088 58.856L177.336 58.52C177.648 57.92 177.984 57.2 178.152 56.72ZM171.744 65.744H187.056V68H185.016V66.944H173.736V68.168H171.744V65.744ZM172.032 70.232H186.912V71.576H172.032V70.232ZM176.52 72.32H183.336V73.592H176.52V72.32ZM182.856 72.32H184.8C184.8 72.32 184.776 72.776 184.704 73.016C184.44 74.528 184.104 75.296 183.624 75.704C183.216 76.016 182.76 76.112 182.184 76.112C181.656 76.136 180.648 76.136 179.592 76.064C179.568 75.68 179.4 75.128 179.184 74.744C180.12 74.84 181.032 74.84 181.368 74.84C181.728 74.84 181.92 74.816 182.088 74.696C182.376 74.456 182.616 73.832 182.856 72.512V72.32ZM176.496 71H178.416C177.984 73.544 176.832 75.224 173.328 76.16C173.136 75.728 172.656 75.008 172.272 74.672C175.248 74 176.136 72.8 176.496 71ZM177.888 64.688L180.024 64.376C180.336 64.952 180.696 65.72 180.816 66.2L178.584 66.584C178.44 66.104 178.152 65.288 177.888 64.688ZM177.864 69.08L179.712 68.648C180.072 69.32 180.528 70.208 180.744 70.784L178.8 71.312C178.608 70.712 178.2 69.776 177.864 69.08ZM180.816 66.392H182.688V67.928C182.688 68.336 182.712 68.504 183.216 68.504C183.528 68.504 184.656 68.504 184.992 68.504C185.4 68.504 186.264 68.456 186.6 68.384C186.624 68.816 186.624 69.056 186.72 69.536C186.408 69.632 185.664 69.632 185.088 69.632C184.56 69.632 182.88 69.632 182.376 69.632C181.008 69.632 180.816 68.96 180.816 67.904V66.392ZM176.832 66.536H178.896C178.2 68.576 176.592 69.44 172.92 69.992C172.752 69.608 172.344 69.104 172.008 68.816C175.08 68.456 176.328 67.808 176.832 66.536ZM166.32 57.752L168.048 56.744C169.104 57.92 170.352 59.456 170.976 60.44L169.176 61.64C168.6 60.632 167.328 58.952 166.32 57.752ZM165.552 62.312H170.52V64.16H165.552V62.312ZM170.112 73.064C171.504 76.256 174.504 76.664 179.112 76.688C181.656 76.688 185.376 76.568 187.944 76.328C187.608 76.784 187.344 77.816 187.224 78.44C184.848 78.584 181.8 78.632 179.088 78.632C173.472 78.632 170.4 77.96 168.6 73.712L170.112 73.064ZM169.56 68.24H170.232L170.616 68.192L171.6 68.576C170.88 73.688 169.128 77.192 166.68 79.064C166.368 78.632 165.624 77.864 165.168 77.552C167.472 75.896 169.032 72.848 169.56 68.6V68.24ZM166.056 70.376V68.72L166.992 68.24H170.688L170.664 70.04H167.496C166.896 70.04 166.248 70.184 166.056 70.376ZM166.056 70.376C165.936 69.896 165.504 68.888 165.288 68.48C165.648 68.36 166.032 68.192 166.416 67.736C167.088 67.016 169.104 63.8 169.824 62.48V62.432L170.424 62.168L171.864 62.744C170.832 64.4 168.888 67.52 167.64 69.08C167.64 69.08 166.056 69.848 166.056 70.376ZM200.616 71.432H207.576V73.112H200.616V71.432ZM200.496 67.832H208.632V76.784H200.496V75.08H206.496V69.56H200.496V67.832ZM199.536 67.832H201.6V78.008H199.536V67.832ZM195.288 61.112H201.672V62.696H195.288V61.112ZM206.376 61.112H212.856V62.696H206.376V61.112ZM211.92 57.728H214.2V76.208C214.2 77.528 213.936 78.224 213.072 78.608C212.208 78.992 210.888 79.016 208.848 79.016C208.752 78.392 208.416 77.336 208.08 76.712C209.448 76.784 210.912 76.76 211.344 76.736C211.776 76.736 211.92 76.592 211.92 76.184V57.728ZM195.456 57.728H203.112V66.176H195.456V64.496H200.976V59.432H195.456V57.728ZM213.096 57.728V59.432H207.192V64.544H213.096V66.224H205.032V57.728H213.096ZM194.16 57.728H196.416V79.04H194.16V57.728ZM226.128 77.336C223.368 77.336 221.568 76.232 220.368 74.888L221.736 73.112C222.768 74.168 224.064 75.056 225.912 75.056C227.88 75.056 229.248 73.952 229.248 72.128C229.248 70.16 228 68.912 224.04 68.912V66.848C227.496 66.848 228.648 65.552 228.648 63.776C228.648 62.216 227.64 61.232 225.936 61.232C224.592 61.232 223.44 61.88 222.432 62.888L220.968 61.136C222.384 59.888 224.016 59.024 226.056 59.024C229.224 59.024 231.456 60.656 231.456 63.56C231.456 65.6 230.28 67.016 228.408 67.712V67.832C230.448 68.36 232.056 69.872 232.056 72.272C232.056 75.464 229.392 77.336 226.128 77.336ZM248.888 67.328L251.12 66.848C251.696 67.664 252.248 68.768 252.488 69.536L250.16 70.112C249.968 69.344 249.44 68.168 248.888 67.328ZM241.544 68.84H259.832V70.664H241.544V68.84ZM248.072 72.272H255.8V74.048H248.072V72.272ZM255.176 72.272H257.432C257.432 72.272 257.408 72.824 257.36 73.112C257.072 76.304 256.736 77.744 256.112 78.344C255.632 78.8 255.104 78.944 254.36 78.992C253.736 79.064 252.536 79.04 251.264 78.992C251.24 78.416 251 77.6 250.664 77.096C251.816 77.192 252.968 77.216 253.4 77.216C253.808 77.216 254.048 77.192 254.264 77C254.648 76.64 254.936 75.44 255.176 72.536V72.272ZM247.424 69.608H249.68C249.224 74.168 248 77.36 242.408 79.064C242.192 78.536 241.616 77.72 241.136 77.288C246.176 75.944 247.04 73.328 247.424 69.608ZM241.856 61.304H258.248V66.824H241.856V65.072H255.992V63.08H241.856V61.304ZM256.016 56.792L257.768 58.472C253.256 59.456 246.704 60.08 241.136 60.344C241.064 59.816 240.776 59 240.56 58.544C246.032 58.256 252.392 57.608 256.016 56.792ZM240.56 58.544H242.792V66.248C242.792 70.088 242.336 75.728 239.456 79.208C239.12 78.776 238.232 77.888 237.8 77.6C240.32 74.384 240.56 69.728 240.56 66.224V58.544ZM277.112 55.88V79.88H276.08V55.88H277.112Z" fill="#231815"/>
</svg>
