<svg width="339" height="339" viewBox="0 0 339 339" fill="none" xmlns="http://www.w3.org/2000/svg">
<path d="M306.033 201.471C323.873 125.883 277.06 50.1436 201.471 32.3031C125.883 14.4626 50.1436 61.2766 32.3031 136.865C14.4626 212.453 61.2765 288.193 136.865 306.033C212.453 323.874 288.192 277.06 306.033 201.471Z" fill="url(#paint0_linear_28_2612)"/>
<path d="M67.1565 132.225V134.179H86.8852V132.225H67.1565ZM67.1565 127.133V129.043H86.8852V127.133H67.1565ZM61.9289 123.77H92.3856V137.543H61.9289V123.77ZM56.8831 139.362H97.1587V143.589H56.8831V139.362ZM68.2021 148.862V151.817H86.1579V148.862H68.2021ZM62.9744 145.135H91.6583V155.545H62.9744V145.135ZM74.2934 136.771H79.8847V141.771H74.2934V136.771ZM74.5207 153.408H80.0211V160.409C80.0211 162.772 79.4756 163.818 77.6573 164.454C75.8844 165.045 73.4752 165.045 70.2931 165.045C70.0204 163.727 69.384 162 68.7475 160.818C70.6568 160.909 73.066 160.909 73.7024 160.909C74.3389 160.863 74.5207 160.727 74.5207 160.227V153.408ZM82.0212 158.545L85.6124 155.681C89.3399 157.045 94.5221 159.454 97.2496 161.272L93.3857 164.454C90.9309 162.727 85.8851 160.136 82.0212 158.545ZM66.7019 155.635L71.6568 157.636C68.6112 160.318 63.7017 162.954 59.7924 164.545C58.8378 163.5 56.974 161.59 55.7921 160.727C59.7924 159.545 64.1563 157.636 66.7019 155.635ZM111.842 149.317H127.615V152.544H111.842V149.317ZM111.842 154.272H127.615V157.499H111.842V154.272ZM111.614 159.227H128.525V162.909H111.614V159.227ZM106.796 125.133H128.752V128.906H106.796V125.133ZM116.978 146.044H121.433V161.454H116.978V146.044ZM110.887 122.633H115.478V131.316H110.887V122.633ZM120.297 122.633H124.888V131.316H120.297V122.633ZM111.114 135.316V137.816H113.387V135.316H111.114ZM107.614 132.134H117.069V140.998H107.614V132.134ZM122.07 135.316V137.816H124.57V135.316H122.07ZM118.615 132.134H128.252V140.998H118.615V132.134ZM113.751 143.998H128.434V147.635H113.751V164.818H109.387V146.999L112.114 143.998H113.751ZM118.842 140.589L123.251 141.544C122.251 143.453 121.297 145.407 120.524 146.726L117.115 145.771C117.796 144.271 118.478 142.089 118.842 140.589ZM111.251 140.225L115.205 141.316C113.614 146.135 110.978 151.09 108.069 154.272C107.568 153.408 106.296 151.453 105.523 150.59C107.932 148.044 110.069 144.18 111.251 140.225ZM134.752 135.68V138.589H142.253V135.68H134.752ZM134.752 142.725V145.635H142.253V142.725H134.752ZM134.752 128.679V131.543H142.253V128.679H134.752ZM130.116 123.997H147.162V150.271H130.116V123.997ZM138.616 149.544H143.207V158.681C143.207 159.818 143.298 159.954 143.753 159.954C143.935 159.954 144.526 159.954 144.753 159.954C145.344 159.954 145.526 159.363 145.617 154.59C146.48 155.363 148.435 156.09 149.662 156.454C149.299 162.681 148.162 164.272 145.298 164.272C144.617 164.272 143.571 164.272 142.935 164.272C139.343 164.272 138.616 162.863 138.616 158.727V149.544ZM132.479 149.726H137.071C136.661 156.817 135.389 161.954 129.161 165C128.615 163.818 127.297 161.954 126.252 161.09C131.388 158.863 132.161 155.181 132.479 149.726ZM179.892 161H157.208V156.226L165.345 147.999C166.982 146.301 168.3 144.892 169.3 143.771C170.3 142.619 171.028 141.589 171.482 140.68C171.937 139.74 172.164 138.74 172.164 137.68C172.164 136.377 171.8 135.407 171.073 134.77C170.376 134.134 169.421 133.816 168.209 133.816C166.967 133.816 165.754 134.104 164.573 134.679C163.391 135.255 162.148 136.074 160.845 137.134L157.117 132.725C158.057 131.907 159.042 131.149 160.072 130.452C161.133 129.755 162.345 129.194 163.709 128.77C165.103 128.315 166.77 128.088 168.709 128.088C170.831 128.088 172.649 128.482 174.164 129.27C175.71 130.028 176.892 131.073 177.71 132.407C178.558 133.71 178.983 135.195 178.983 136.861C178.983 138.225 178.77 139.483 178.346 140.634C177.952 141.786 177.361 142.907 176.573 143.998C175.816 145.059 174.876 146.165 173.755 147.317C172.634 148.438 171.361 149.665 169.937 150.999L165.754 154.908V155.226H179.892V161ZM187.768 151.59V146.044H199.678V151.59H187.768ZM229.283 135.816C229.283 137.301 228.965 138.589 228.328 139.68C227.722 140.771 226.889 141.665 225.828 142.362C224.798 143.059 223.616 143.574 222.283 143.907V144.044C224.889 144.347 226.859 145.135 228.192 146.408C229.556 147.68 230.238 149.393 230.238 151.544C230.238 153.423 229.768 155.12 228.829 156.636C227.919 158.121 226.495 159.302 224.555 160.181C222.646 161.03 220.176 161.454 217.146 161.454C215.358 161.454 213.691 161.303 212.146 161C210.6 160.696 209.145 160.257 207.782 159.681V153.863C209.176 154.56 210.63 155.09 212.146 155.454C213.691 155.817 215.115 155.999 216.419 155.999C218.873 155.999 220.586 155.575 221.555 154.726C222.555 153.878 223.055 152.681 223.055 151.135C223.055 150.226 222.828 149.468 222.374 148.862C221.919 148.226 221.116 147.756 219.964 147.453C218.843 147.12 217.267 146.953 215.237 146.953H212.782V141.68H215.282C217.282 141.68 218.797 141.498 219.828 141.134C220.889 140.74 221.601 140.225 221.964 139.589C222.358 138.922 222.555 138.165 222.555 137.316C222.555 136.164 222.192 135.27 221.464 134.634C220.767 133.967 219.585 133.634 217.919 133.634C216.888 133.634 215.949 133.77 215.1 134.043C214.252 134.285 213.479 134.589 212.782 134.952C212.115 135.316 211.524 135.664 211.009 135.998L207.827 131.27C208.676 130.664 209.615 130.119 210.645 129.634C211.706 129.149 212.873 128.77 214.146 128.497C215.418 128.224 216.843 128.088 218.419 128.088C221.752 128.088 224.389 128.77 226.328 130.134C228.298 131.467 229.283 133.361 229.283 135.816ZM243.614 131.316H248.978V141.589C248.978 148.544 248.069 158.408 242.66 164.591C241.705 163.682 239.341 162.136 237.978 161.59C243.114 155.863 243.614 147.589 243.614 141.544V131.316ZM246.433 131.316H276.344V142.089H246.433V138.134H270.98V135.27H246.433V131.316ZM240.614 124.497H279.117V129.361H240.614V124.497ZM246.024 144.862H280.253V149.135H246.024V144.862ZM258.479 151.726H272.071V155.863H258.479V151.726ZM259.115 141.589H264.525V147.044H259.115V141.589ZM270.934 151.726H276.344C276.344 151.726 276.298 152.999 276.208 153.59C275.753 159.59 275.117 162.409 273.98 163.636C272.98 164.636 271.798 164.954 270.389 165.091C269.116 165.227 266.798 165.227 264.343 165.136C264.252 163.772 263.707 161.863 262.934 160.636C264.979 160.818 267.025 160.863 267.889 160.863C268.616 160.863 269.025 160.772 269.48 160.409C270.116 159.818 270.571 157.59 270.934 152.363V151.726ZM256.57 147.271H261.979C261.206 155.726 259.115 161.772 248.251 165.091C247.751 163.818 246.387 161.863 245.296 160.863C254.661 158.363 255.933 153.726 256.57 147.271ZM76.9935 184.406H82.403V227.091H76.9935V184.406ZM73.0387 193.407L76.9481 193.952C76.7662 197.861 75.948 203.271 74.857 206.771L70.8113 205.316C71.9022 202.271 72.7205 197.179 73.0387 193.407ZM81.1756 193.497L84.9032 191.906C86.2669 194.679 87.8125 198.316 88.4034 200.589L84.4031 202.453C83.9486 200.134 82.4939 196.361 81.1756 193.497ZM87.6761 191.27H110.95V207.544H105.586V196.361H87.6761V191.27ZM85.585 204.68H113.814V209.908H85.585V204.68ZM101.677 205.771C103.632 213.272 107.723 219.454 114.769 222.09C113.496 223.272 111.723 225.636 110.905 227.227C103.086 223.59 99.1769 216.272 96.7676 206.726L101.677 205.771ZM95.5403 184.406H101.041V200.543C101.041 209.771 99.1769 220.636 87.4033 227.318C86.676 226.182 84.8122 224.136 83.5394 223.09C94.9039 217.59 95.5403 208.18 95.5403 200.498V184.406ZM122.997 210.317H163.591V215.044H122.997V210.317ZM140.407 206.771H145.953V227.045H140.407V206.771ZM138.725 212.362L143.18 214.317C139.043 219.681 132.134 224.318 125.406 226.727C124.588 225.363 122.951 223.272 121.769 222.181C128.315 220.318 135.225 216.545 138.725 212.362ZM147.589 212.499C151.181 216.454 158.136 220.045 164.772 221.772C163.591 222.863 161.909 225 161.136 226.363C154.408 224.09 147.408 219.636 143.089 214.59L147.589 212.499ZM140.862 199.952V203.362H145.453V199.952H140.862ZM140.862 192.77V196.134H145.453V192.77H140.862ZM136.316 188.679H150.181V207.453H136.316V188.679ZM141.089 184.36L146.589 184.997C145.726 187.361 144.862 189.679 144.135 191.27L139.816 190.497C140.316 188.679 140.862 186.179 141.089 184.36ZM122.588 194.543L124.724 190.861C127.043 192.497 129.997 194.907 131.316 196.543L129.043 200.725C127.77 198.907 124.861 196.316 122.588 194.543ZM131.316 200.271L134.679 199.225C135.77 201.953 136.816 205.498 137.089 207.68L133.498 208.999C133.27 206.726 132.316 203.044 131.316 200.271ZM131.952 191.043L136.043 192.679C133.498 197.179 130.27 202.407 127.588 205.771L124.224 204.135C126.861 200.725 130.134 195.179 131.952 191.043ZM128.315 184.724L132.543 186.224C131.043 189.315 129.361 192.725 127.952 194.998L124.451 193.543C125.77 191.179 127.452 187.452 128.315 184.724ZM122.497 203.68C125.633 203.498 130.043 203.18 134.679 202.816L134.725 206.544C130.543 207.18 126.452 207.68 122.997 208.18L122.497 203.68ZM148.999 194.088L151.453 190.634C153.817 192.588 156.772 195.361 158.09 197.225L155.499 201.18C154.272 199.134 151.362 196.179 148.999 194.088ZM157.954 200.089L161.5 198.816C162.772 201.68 164.045 205.453 164.454 207.771L160.636 209.317C160.272 206.907 159.136 203.044 157.954 200.089ZM158.545 191.134L162.681 192.816C160.09 197.316 156.726 202.544 153.999 205.907L150.635 204.316C153.317 200.862 156.681 195.27 158.545 191.134ZM155.09 184.679L159.363 186.179C157.772 189.315 156.045 192.679 154.59 194.907L151.09 193.497C152.453 191.134 154.226 187.406 155.09 184.679ZM149.317 203.589C152.544 203.453 157.045 203.18 161.727 202.907V206.726C157.545 207.226 153.363 207.68 149.908 208.089L149.317 203.589ZM191.047 212.135H196.32V224.227H191.047V212.135ZM186.774 201.316V204.044H200.502V201.316H186.774ZM181.728 197.452H205.912V207.953H181.728V197.452ZM177.364 209.817H210.685V227.136H205.23V213.772H182.592V227.182H177.364V209.817ZM180.274 216.09H207.139V219.772H180.274V216.09ZM180.274 222.181H207.139V226.136H180.274V222.181ZM190.82 184.406H196.366V192.861H190.82V184.406ZM174.046 190.588H213.776V200.998H208.366V195.225H179.228V200.998H174.046V190.588ZM177.546 186.724L182.41 184.815C183.865 186.451 185.319 188.679 186.001 190.27L180.955 192.497C180.364 190.906 178.91 188.452 177.546 186.724ZM204.639 184.724L210.458 186.406C208.866 188.588 207.275 190.679 206.048 192.088L201.411 190.543C202.548 188.906 203.957 186.497 204.639 184.724ZM241.323 184.451H246.915V190.952H241.323V184.451ZM224.913 187.997H263.598V198.27H258.052V192.952H230.232V198.27H224.913V187.997ZM231.823 195.861H256.37V200.498H231.823V195.861ZM236.278 203.953L240.46 201.498C251.188 208.953 251.097 221.772 246.233 225.272C244.505 226.773 243.051 227.182 240.641 227.182C239.505 227.227 238.141 227.182 236.778 227.091C236.687 225.591 236.187 223.409 235.232 221.863C236.914 222.045 238.414 222.09 239.596 222.09C240.732 222.09 241.596 221.954 242.369 221.136C244.96 219.136 244.96 210.135 236.278 203.953ZM243.46 197.043L247.96 198.907C243.142 203.816 234.868 207.317 227.277 209.317C226.777 208.271 225.368 206.089 224.504 205.089C231.732 203.635 239.505 200.816 243.46 197.043ZM239.914 206.089L243.414 208.544C239.641 211.453 232.959 214.817 227.868 216.59C227.277 215.408 226.14 213.544 225.14 212.453C230.095 211.271 236.687 208.544 239.914 206.089ZM243.596 210.408L247.324 213.181C242.46 217.817 233.596 222.636 226.368 225.045C225.731 223.681 224.549 221.727 223.504 220.545C230.686 218.772 239.369 214.499 243.596 210.408ZM250.506 197.816C252.688 207.362 257.37 215.499 265.416 219.09C264.189 220.181 262.461 222.363 261.643 223.863C253.051 219.272 248.506 210.18 245.915 198.725L250.506 197.816ZM259.37 200.771L263.643 204.453C260.507 206.817 256.552 209.362 253.597 210.862L250.097 207.589C252.961 205.953 257.006 203.044 259.37 200.771Z" fill="white"/>
<defs>
<linearGradient id="paint0_linear_28_2612" x1="-1015.9" y1="743.165" x2="553.764" y2="-17.1699" gradientUnits="userSpaceOnUse">
<stop offset="0.27" stop-color="#8FC31F"/>
<stop offset="0.85" stop-color="#EA5514"/>
<stop offset="1" stop-color="#E61673"/>
</linearGradient>
</defs>
</svg>
