<svg width="375" height="627" viewBox="0 0 375 627" fill="none" xmlns="http://www.w3.org/2000/svg">
<g clip-path="url(#clip0_53_19963)">
<rect width="375" height="627" fill="#E5005C"/>
<g clip-path="url(#clip1_53_19963)">
<path d="M92.6646 293H43V303.358H92.6646V293Z" fill="url(#paint0_linear_53_19963)"/>
<path d="M142.33 293H92.665V303.358H142.33V293Z" fill="url(#paint1_linear_53_19963)"/>
<path d="M192 293H142.335V303.358H192V293Z" fill="url(#paint2_linear_53_19963)"/>
</g>
<path d="M109.062 32.8073C118.874 -8.76565 93.1264 -50.4215 51.5535 -60.2336C9.98047 -70.0457 -31.6754 -44.2985 -41.4875 -2.72548C-51.2996 38.8475 -25.5523 80.5034 16.0206 90.3155C57.5936 100.128 99.2495 74.3803 109.062 32.8073Z" fill="url(#paint3_linear_53_19963)"/>
<path d="M337.5 16C354.897 16 369 30.5507 369 48.5C369 66.4492 354.897 81 337.5 81C320.103 81 306 66.4492 306 48.5C306 30.5507 320.103 16 337.5 16Z" fill="#4F4398"/>
<path d="M166.896 338.098C176.248 334.642 186.568 339.614 189.931 349.226C193.295 358.838 188.457 369.445 179.104 372.902C169.752 376.358 159.432 371.386 156.069 361.774C152.705 352.162 157.543 341.555 166.896 338.098Z" fill="#8BC782"/>
<path d="M67.0194 319.026C92.2001 309.506 119.927 323.191 129.122 349.67C138.176 376.149 125.161 405.454 99.9806 414.974C74.8 424.494 46.9315 410.809 37.8777 384.33C28.824 357.851 41.8387 328.695 67.0194 319.026Z" fill="#00B4ED"/>
<path d="M109.606 426.593C114.807 424.724 120.538 427.422 122.407 432.606C124.276 437.807 121.578 443.538 116.394 445.407C111.21 447.276 105.462 444.578 103.593 439.394C101.724 434.193 104.422 428.462 109.606 426.593Z" fill="url(#paint4_linear_53_19963)"/>
</g>
<defs>
<linearGradient id="paint0_linear_53_19963" x1="113.919" y1="321.911" x2="20.2153" y2="284.28" gradientUnits="userSpaceOnUse">
<stop offset="0.27" stop-color="#8FC31F"/>
<stop offset="0.85" stop-color="#EA5514"/>
<stop offset="1" stop-color="#E61673"/>
</linearGradient>
<linearGradient id="paint1_linear_53_19963" x1="86.0324" y1="291.953" x2="196.474" y2="308.994" gradientUnits="userSpaceOnUse">
<stop stop-color="#23A3DD"/>
<stop offset="0.54" stop-color="#F5EA2B"/>
<stop offset="1" stop-color="#83BC44"/>
</linearGradient>
<linearGradient id="paint2_linear_53_19963" x1="135.702" y1="291.953" x2="246.144" y2="308.994" gradientUnits="userSpaceOnUse">
<stop stop-color="#F5EA2B"/>
<stop offset="0.01" stop-color="#F2D832"/>
<stop offset="0.03" stop-color="#EDAC45"/>
<stop offset="0.06" stop-color="#E78455"/>
<stop offset="0.08" stop-color="#E36363"/>
<stop offset="0.1" stop-color="#E0486F"/>
<stop offset="0.13" stop-color="#DD3377"/>
<stop offset="0.16" stop-color="#DB247E"/>
<stop offset="0.2" stop-color="#DA1B81"/>
<stop offset="0.26" stop-color="#DA1983"/>
<stop offset="0.95" stop-color="#7A2988"/>
</linearGradient>
<linearGradient id="paint3_linear_53_19963" x1="-617.988" y1="330.734" x2="245.311" y2="-87.4434" gradientUnits="userSpaceOnUse">
<stop offset="0.27" stop-color="#8FC31F"/>
<stop offset="0.85" stop-color="#EA5514"/>
<stop offset="1" stop-color="#E61673"/>
</linearGradient>
<linearGradient id="paint4_linear_53_19963" x1="179.999" y1="501.597" x2="91.3245" y2="414.893" gradientUnits="userSpaceOnUse">
<stop offset="0.27" stop-color="#8FC31F"/>
<stop offset="0.85" stop-color="#EA5514"/>
<stop offset="1" stop-color="#E61673"/>
</linearGradient>
<clipPath id="clip0_53_19963">
<rect width="375" height="627" fill="white"/>
</clipPath>
<clipPath id="clip1_53_19963">
<rect width="149" height="10.3583" fill="white" transform="translate(43 293)"/>
</clipPath>
</defs>
</svg>
