<svg width="1275" height="492" viewBox="0 0 1275 492" fill="none" xmlns="http://www.w3.org/2000/svg">
<g clip-path="url(#clip0_134_211)">
<path d="M335.328 482H218V492H335.328V482Z" fill="url(#paint0_linear_134_211)"/>
<path d="M452.657 482H335.328V492H452.657V482Z" fill="url(#paint1_linear_134_211)"/>
<path d="M570 482H452.672V492H570V482Z" fill="url(#paint2_linear_134_211)"/>
</g>
<path d="M1182.84 334.662C1196.87 329.431 1212.35 336.956 1217.4 351.504C1222.44 366.053 1215.19 382.106 1201.16 387.338C1187.13 392.569 1171.65 385.044 1166.6 370.496C1161.56 355.947 1168.81 339.894 1182.84 334.662Z" fill="#8BC782"/>
<path d="M244.843 146.662C258.872 141.431 274.352 148.956 279.397 163.504C284.442 178.053 277.186 194.106 263.157 199.338C249.128 204.569 233.648 197.044 228.603 182.496C223.558 167.947 230.814 151.894 244.843 146.662Z" fill="#8BC782"/>
<path d="M1087.17 166.513C1099.89 161.753 1113.9 168.596 1118.55 181.835C1123.12 195.074 1116.55 209.727 1103.83 214.487C1091.11 219.247 1077.03 212.404 1072.45 199.165C1067.88 185.926 1074.45 171.348 1087.17 166.513Z" fill="#00B4ED"/>
<path d="M62.0582 5.81482C110.862 -12.4793 164.601 13.8185 182.423 64.699C199.97 115.579 174.746 171.891 125.942 190.185C77.1381 208.479 23.1249 182.182 5.57749 131.301C-11.9699 80.4205 13.2544 24.3948 62.0582 5.81482Z" fill="#00B4ED"/>
<path d="M991.673 226.876C1025.17 214.646 1062.14 232.322 1074.18 266.334C1086.23 300.347 1068.82 337.895 1035.33 350.124C1001.83 362.354 964.859 344.678 952.817 310.666C940.774 276.653 958.179 239.105 991.673 226.876Z" fill="#4F4398"/>
<path d="M1219.41 186.401C1241 178.832 1264.78 189.758 1272.54 210.753C1280.3 231.82 1269.1 255.029 1247.59 262.599C1226.07 270.168 1202.22 259.242 1194.46 238.247C1186.7 217.18 1197.9 193.971 1219.41 186.401Z" fill="url(#paint3_linear_134_211)"/>
<path d="M173.239 198.889C181.301 196.086 190.184 200.132 193.081 207.909C195.978 215.711 191.796 224.307 183.761 227.111C175.726 229.914 166.816 225.868 163.919 218.091C161.022 210.289 165.204 201.693 173.239 198.889Z" fill="url(#paint4_linear_134_211)"/>
<g clip-path="url(#clip1_134_211)">
<path d="M800.209 99.6948C796.42 99.6948 792.064 101.141 792.064 112.442L792.569 172.477C792.569 182.66 796.243 184.141 797.456 184.629L801.183 186.128L788.841 204.933C787.903 207.036 787.354 209.067 787.221 210.956V228.227C787.442 230.099 787.92 230.099 788.514 230.099H817.244C818.28 230.099 819.856 229.77 821.556 226.905L848.471 185.818H865.789V223.162C865.842 225.193 866.161 230.099 868.091 230.099H935.371C936.584 230.019 937.009 229.779 937.009 227.872V202.13C937.009 200.853 936.929 200.276 935.052 200.17L900.655 199.877V185.818H924.534C928.562 185.818 933.193 184.372 933.193 173.071V112.459C933.193 101.229 928.686 99.7126 924.277 99.7126H800.209V99.6948ZM825.903 122.971H899.858V135.114H825.903V122.971ZM900.363 161.965H825.903V149.538H900.363V161.965Z" fill="white"/>
<path d="M772.94 199.567H758.995V107.527H773.117C774.303 107.527 775.268 106.365 775.268 104.937V86.0522C775.268 84.624 774.303 83.462 773.117 83.462H758.995V21.857C758.995 19.7991 757.579 18.1226 755.843 18.1226H726.13C724.386 18.1226 722.978 19.7991 722.978 21.857V83.4531H708.856C707.67 83.4531 706.714 84.6151 706.714 86.0433V104.928C706.714 106.357 707.679 107.519 708.856 107.519H722.978V199.558H708.679C707.493 199.558 706.537 200.72 706.537 202.148V226.95C706.537 228.378 707.502 229.54 708.679 229.54H772.949C774.135 229.54 775.1 228.378 775.1 226.95V202.148C775.1 200.72 774.135 199.558 772.949 199.558L772.94 199.567Z" fill="white"/>
<path d="M932.139 64.5413H911.554L921.639 48.7963H928.961C930.9 48.7963 932.644 48.3706 932.644 43.2435C932.476 37.797 932.352 32.2974 932.272 26.8332C932.201 21.919 930.466 21.919 929.2 21.919H884.196V18.6103C884.196 16.3129 883.683 15.1243 880.885 14.9912H862.77H844.655C841.858 15.1154 841.344 16.304 841.344 18.6103V21.919H796.34C795.074 21.919 793.348 21.919 793.268 26.8332C793.188 32.2974 793.065 37.8059 792.896 43.2435C792.896 48.3706 794.64 48.7963 796.579 48.7963H803.902L813.986 64.5413H793.401C792.223 64.5413 790.453 64.5413 790.453 69.8192V86.1496C790.453 91.0816 792.17 91.6138 793.95 91.7025H931.564C933.343 91.6138 935.061 91.0816 935.061 86.1496V69.8192C935.061 64.5413 933.29 64.5413 932.113 64.5413H932.139ZM886.303 64.5413H839.263L827.869 48.7963H897.707L886.312 64.5413H886.303Z" fill="white"/>
<path d="M682.286 217.804C663.109 196.923 604.125 112.876 601.62 109.31L600.84 108.201V94.9225H678.612C680.701 94.9225 681.684 94.541 681.684 91.0284V49.2399C681.684 45.0619 680.498 45.0619 679.125 45.0619H600.584V17.9628C600.584 16.8185 599.663 15.896 598.521 15.896H547.948C546.806 15.896 545.885 16.8185 545.885 17.9628V45.053H467.344C465.971 45.053 464.785 45.053 464.785 49.231V91.0195C464.785 94.5322 465.768 94.9136 467.848 94.9136H545.628V108.193L544.849 109.301C542.353 112.867 483.369 196.914 464.183 217.795C461.482 220.74 460.367 224.838 461.482 227.775C462.607 230.737 465.706 231.367 468.105 231.367H504.459C508.505 231.367 512.268 229.336 515.96 225.158L573.226 160.847L630.483 225.158C634.184 229.336 637.947 231.376 641.993 231.376H678.346C680.746 231.376 683.844 230.755 684.969 227.783C686.084 224.856 684.969 220.749 682.269 217.804H682.286Z" fill="white"/>
<path d="M463.023 270.69V260.542H473.754V263.035H466.945V264.241H472.461V266.742H466.945V268.073H474.09V270.69H463.023Z" fill="white"/>
<path d="M485.396 270.69L489.912 265.341L486.043 260.542H490.78L492.17 262.742L493.666 260.542H498.349L494.427 265.341L498.854 270.69H493.94L492.134 267.967L490.284 270.69H485.388H485.396Z" fill="white"/>
<path d="M513.604 270.69V263.114H509.939V260.542H521.21V263.114H517.527V270.69H513.604Z" fill="white"/>
<path d="M533.844 270.69V260.542H544.575V263.035H537.766V264.241H543.282V266.742H537.766V268.073H544.911V270.69H533.844Z" fill="white"/>
<path d="M557.661 270.69V260.542H562.3L566.205 266.388V260.542H570.003V270.69H565.603L561.353 264.747V270.69H557.652H557.661Z" fill="white"/>
<path d="M583.106 267.603H587.861C587.896 267.869 588.065 268.082 588.374 268.233C588.675 268.383 589.1 268.454 589.632 268.454C590.163 268.454 590.561 268.392 590.818 268.277C591.084 268.162 591.216 267.975 591.216 267.736C591.216 267.523 591.101 267.346 590.871 267.213C590.641 267.079 590.287 266.991 589.818 266.929L586.887 266.565C585.674 266.423 584.762 266.095 584.142 265.58C583.531 265.075 583.222 264.392 583.222 263.54C583.222 262.405 583.682 261.58 584.612 261.056C585.541 260.533 587.02 260.276 589.056 260.276C591.093 260.276 592.739 260.542 593.758 261.056C594.785 261.58 595.342 262.387 595.422 263.496H590.862C590.809 263.177 590.623 262.937 590.287 262.777C589.95 262.618 589.481 262.538 588.879 262.538C588.445 262.538 588.1 262.6 587.843 262.715C587.595 262.839 587.471 262.999 587.471 263.203C587.471 263.398 587.569 263.54 587.764 263.647C587.958 263.744 588.357 263.842 588.976 263.93L592.553 264.436C593.669 264.596 594.51 264.924 595.059 265.412C595.617 265.909 595.891 266.565 595.891 267.399C595.891 268.641 595.333 269.554 594.236 270.14C593.129 270.725 591.385 271.009 589.012 271.009C587.117 271.009 585.674 270.716 584.656 270.131C583.647 269.545 583.133 268.703 583.115 267.612L583.106 267.603Z" fill="white"/>
<path d="M608.968 270.69V260.542H612.89V270.69H608.968Z" fill="white"/>
<path d="M629.341 270.69L624.87 260.542H629.297L631.439 267.337L633.697 260.542H638.088L633.431 270.69H629.332H629.341Z" fill="white"/>
<path d="M650.094 270.69V260.542H660.825V263.035H654.016V264.241H659.532V266.742H654.016V268.073H661.161V270.69H650.094Z" fill="white"/>
<path d="M731.124 270.69V263.114H727.458V260.542H738.729V263.114H735.046V270.69H731.124Z" fill="white"/>
<path d="M751.363 270.69V260.542H762.094V263.035H755.285V264.241H760.801V266.742H755.285V268.073H762.43V270.69H751.363Z" fill="white"/>
<path d="M782.9 260.542C783.777 260.542 784.485 260.586 785.016 260.666C785.548 260.746 785.955 260.879 786.256 261.065C786.637 261.287 786.92 261.589 787.124 261.97C787.318 262.352 787.425 262.786 787.425 263.274C787.425 263.877 787.274 264.401 786.982 264.853C786.681 265.305 786.274 265.634 785.751 265.838C786.203 266.024 786.513 266.263 786.69 266.538C786.867 266.813 786.973 267.301 787.008 268.002C787.008 268.082 787.008 268.188 787.026 268.321C787.088 269.652 787.265 270.388 787.557 270.53V270.69H783.193C783.06 270.477 782.989 270.06 782.971 269.439C782.971 269.075 782.945 268.8 782.927 268.596C782.883 268.224 782.759 267.967 782.555 267.816C782.351 267.665 781.997 267.594 781.51 267.594H779.164V270.69H775.189V260.542H782.9ZM779.164 264.924H781.448C782.042 264.924 782.467 264.853 782.706 264.711C782.953 264.569 783.069 264.33 783.069 263.993C783.069 263.656 782.953 263.434 782.723 263.301C782.493 263.168 782.033 263.106 781.342 263.106H779.155V264.915L779.164 264.924Z" fill="white"/>
<path d="M808.311 260.542C809.187 260.542 809.895 260.586 810.427 260.666C810.958 260.746 811.365 260.879 811.666 261.065C812.047 261.287 812.33 261.589 812.534 261.97C812.729 262.352 812.835 262.786 812.835 263.274C812.835 263.877 812.684 264.401 812.392 264.853C812.091 265.305 811.684 265.634 811.162 265.838C811.613 266.024 811.923 266.263 812.1 266.538C812.277 266.813 812.383 267.301 812.419 268.002C812.419 268.082 812.419 268.188 812.436 268.321C812.498 269.652 812.676 270.388 812.968 270.53V270.69H808.603C808.47 270.477 808.399 270.06 808.381 269.439C808.381 269.075 808.355 268.8 808.337 268.596C808.293 268.224 808.169 267.967 807.965 267.816C807.762 267.665 807.408 267.594 806.921 267.594H804.574V270.69H800.599V260.542H808.311ZM804.574 264.924H806.859C807.452 264.924 807.877 264.853 808.116 264.711C808.364 264.569 808.488 264.33 808.488 263.993C808.488 263.656 808.373 263.434 808.142 263.301C807.912 263.168 807.452 263.106 806.761 263.106H804.574V264.915V264.924Z" fill="white"/>
<path d="M826 270.69V260.542H829.923V270.69H826Z" fill="white"/>
<path d="M846.214 270.69V263.114H842.548V260.542H853.819V263.114H850.136V270.69H846.214Z" fill="white"/>
<path d="M865.869 265.616C865.869 263.851 866.444 262.52 867.587 261.624C868.729 260.719 870.429 260.276 872.677 260.276C874.926 260.276 876.626 260.728 877.777 261.624C878.919 262.52 879.495 263.851 879.495 265.616C879.495 267.381 878.919 268.712 877.777 269.608C876.626 270.503 874.935 270.956 872.677 270.956C870.42 270.956 868.729 270.503 867.587 269.608C866.444 268.712 865.869 267.381 865.869 265.616ZM870.083 265.616C870.083 266.503 870.305 267.177 870.756 267.638C871.199 268.108 871.845 268.339 872.686 268.339C873.527 268.339 874.174 268.108 874.616 267.638C875.059 267.177 875.28 266.503 875.28 265.616C875.28 264.729 875.059 264.046 874.616 263.576C874.174 263.106 873.527 262.866 872.686 262.866C871.845 262.866 871.199 263.106 870.756 263.576C870.313 264.046 870.083 264.729 870.083 265.616Z" fill="white"/>
<path d="M900.337 260.542C901.213 260.542 901.921 260.586 902.453 260.666C902.984 260.746 903.391 260.879 903.692 261.065C904.073 261.287 904.356 261.589 904.56 261.97C904.755 262.352 904.861 262.786 904.861 263.274C904.861 263.877 904.71 264.401 904.418 264.853C904.117 265.305 903.71 265.634 903.188 265.838C903.639 266.024 903.949 266.263 904.126 266.538C904.303 266.813 904.409 267.301 904.445 268.002C904.445 268.082 904.445 268.188 904.462 268.321C904.524 269.652 904.702 270.388 904.994 270.53V270.69H900.629C900.496 270.477 900.425 270.06 900.407 269.439C900.407 269.075 900.381 268.8 900.363 268.596C900.319 268.224 900.195 267.967 899.991 267.816C899.788 267.665 899.434 267.594 898.947 267.594H896.6V270.69H892.625V260.542H900.337ZM896.6 264.924H898.885C899.478 264.924 899.903 264.853 900.142 264.711C900.39 264.569 900.505 264.33 900.505 263.993C900.505 263.656 900.39 263.434 900.16 263.301C899.929 263.168 899.469 263.106 898.778 263.106H896.592V264.915L896.6 264.924Z" fill="white"/>
<path d="M920.762 270.69V267.825L916.318 260.542H920.93L922.754 264.72L924.693 260.542H929.209L924.693 267.825V270.69H920.762Z" fill="white"/>
<path d="M716.161 264.711H675.796V267.115H716.161V264.711Z" fill="white"/>
<path d="M370.944 72.7996H422.198C423.137 72.7996 423.137 72.5512 423.137 72.019L423.039 62.368C423.039 61.9866 423.039 61.6584 421.818 61.6584H403.88V55.0854H421.154C422.189 55.0854 422.189 54.8459 422.189 54.4822L422.092 44.9288C422.092 44.6094 422.092 44.3078 420.87 44.3078H403.88V41.2476C403.88 40.875 403.88 40.8218 403.225 40.8218H388.784C388.244 40.8218 388.156 40.8661 388.129 41.4959V44.3167L371.316 44.2191C370.289 44.2191 370.289 44.4498 370.289 44.911V53.675C370.289 54.8902 370.652 55.0854 371.511 55.0854H388.129V61.6584H370.758C369.819 61.6584 369.819 61.8801 369.819 62.3503V72.0101C369.819 72.4803 369.819 72.7907 370.944 72.7907V72.7996Z" fill="white"/>
<path d="M423.526 105.461H404.411V97.9828H422.827C423.703 97.9828 423.907 97.7787 423.907 96.8651V84.8191C423.907 84.2247 423.907 83.7103 422.42 83.7103H404.402V77.3945C404.358 77.3945 404.296 77.3945 404.225 77.3945H388.828C387.598 77.3945 387.554 77.7405 387.536 77.8913V83.7191H369.828C368.881 83.7191 368.642 83.9586 368.642 84.9433V96.874C368.642 97.5658 368.73 97.9916 370.023 97.9916H387.545V105.469H369.226C368.403 105.469 368.146 105.638 368.146 106.693V119.857C368.146 120.966 368.527 121.41 369.598 121.543H423.863C424.571 121.418 425.005 121.117 425.005 119.857L424.908 106.711C424.908 105.94 424.819 105.478 423.526 105.478V105.461Z" fill="white"/>
<path d="M362.754 40.3248H352.333C351.43 40.3248 350.961 40.6441 350.66 41.4691L341.346 65.4103C340.974 66.4304 340.673 67.5392 340.452 68.6924C339.743 72.3558 339.876 75.4693 340.797 76.8176C341.213 77.5716 342.576 78.4143 342.939 78.4143H346.1V119.307C346.1 121.48 346.853 121.48 347.34 121.48H359.54C360.071 121.48 360.868 121.48 360.868 119.307L361.116 64.5321L363.365 54.8723C363.684 53.7723 363.834 52.7434 363.834 51.7055V41.1409C363.763 40.5909 363.595 40.3159 362.763 40.3159L362.754 40.3248Z" fill="white"/>
<path d="M369.828 158.905C368.049 157.938 366.473 156.82 365.145 155.596C363.994 154.532 363.17 153.441 362.719 152.367C362.223 151.205 361.107 150.451 359.868 150.451H354.086C352.856 150.451 351.74 151.196 351.235 152.358C350.766 153.449 349.899 154.576 348.659 155.729C347.278 157.015 345.79 158.08 344.223 158.896C343.187 159.446 342.55 160.519 342.55 161.699V168.609C342.55 169.735 343.117 170.756 344.073 171.332C345.038 171.918 346.242 171.926 347.216 171.359C349.394 170.09 351.342 168.76 353.015 167.42C354.494 166.232 355.813 164.972 356.964 163.677C358.106 165.043 359.39 166.294 360.806 167.411C362.409 168.715 364.454 170.064 366.871 171.412C367.34 171.669 367.854 171.802 368.376 171.802C368.943 171.802 369.501 171.651 369.997 171.341C370.935 170.764 371.484 169.753 371.484 168.636V161.681C371.484 160.51 370.855 159.446 369.837 158.896L369.828 158.905Z" fill="white"/>
<path d="M425.527 178.127H401.596C400.887 178.127 400.33 177.683 400.037 176.876C399.745 176.078 399.754 175.049 400.073 173.984L400.427 172.911C400.533 172.538 400.71 171.776 400.524 171.261C400.356 170.8 399.905 170.525 399.285 170.525H390.829C389.926 170.525 389.333 171.155 388.952 172.512L387.917 175.892C387.465 177.399 386.792 178.136 385.845 178.136H375.211C374.229 178.136 373.733 178.978 373.733 180.637V186.057C373.733 187.716 374.229 188.558 375.211 188.558H381.551C382.241 188.558 382.781 188.984 383.065 189.765C383.357 190.563 383.339 191.61 383.012 192.71L373.609 226.763C373.37 227.624 373.326 228.333 373.485 228.768C373.644 229.203 374.043 229.433 374.601 229.433H383.118C384.021 229.433 384.614 228.803 384.995 227.455L395.15 190.838C395.61 189.295 396.283 188.558 397.231 188.558H425.527C426.51 188.558 427.006 187.716 427.006 186.057V180.637C427.006 178.978 426.51 178.136 425.527 178.136V178.127Z" fill="white"/>
<path d="M420.401 209.209C420.073 207.71 419.516 207.053 418.612 207.053H411.521C411.007 207.053 410.618 207.284 410.449 207.71C410.263 208.153 410.281 208.898 410.476 209.794L411.158 213.75C411.37 214.744 411.574 216.074 411.184 217.006C411.025 217.387 410.706 217.84 410.086 217.84L403.127 217.804C402.189 218.017 401.72 217.307 401.534 216.873C401.348 216.438 401.091 215.471 401.534 213.91L406.527 198.493C406.757 197.677 406.802 196.968 406.642 196.542C406.483 196.107 406.084 195.876 405.527 195.876H398.984C398.081 195.876 397.487 196.506 397.107 197.863L390.679 216.837C390.298 218.239 390.139 219.356 390.139 220.74V226.808C390.139 227.429 390.236 227.996 390.404 228.653C390.511 229.087 390.635 229.62 391.635 229.948C391.635 229.948 415.567 229.948 415.886 229.948H423.455C423.996 229.948 424.394 229.69 424.58 229.238C424.766 228.786 424.757 228.058 424.562 227.198L420.401 209.226V209.209Z" fill="white"/>
<path d="M425.527 154.727H409.776C408.59 154.727 407.846 153.476 407.846 151.463V150.771C407.846 149.085 407.041 148.73 406.368 148.73H394.371C393.698 148.73 392.892 149.085 392.892 150.771V151.463C392.892 153.476 392.157 154.727 390.962 154.727H375.211C374.229 154.727 373.733 155.57 373.733 157.228V170.481C373.733 172.139 374.229 172.982 375.211 172.982H385.367C386.349 172.982 386.845 172.139 386.845 170.481V166.906C386.845 164.866 387.562 163.651 388.775 163.651H411.954C413.159 163.651 413.885 164.866 413.885 166.906V170.481C413.885 172.139 414.38 172.982 415.363 172.982H425.518C426.501 172.982 426.997 172.139 426.997 170.481V157.228C426.997 155.57 426.501 154.727 425.518 154.727H425.527Z" fill="white"/>
<path d="M369.023 218.762H363.462C363.799 218.443 364.153 218.132 364.56 217.813C366.03 216.66 367.624 215.711 369.279 214.974C369.952 214.682 370.368 214.07 370.368 213.36V207.514C370.368 206.929 370.067 206.379 369.554 206.042C368.969 205.66 368.208 205.607 367.579 205.918C365.871 206.76 364.348 207.63 362.949 208.517V201.456H369.625C369.97 201.456 370.492 201.456 370.492 199.708L370.413 192.195C370.413 191.512 370.342 190.368 369.864 190.341H362.869V189.605V186.066H369.023C369.669 186.039 370.271 185.879 370.271 184.221V175.288C370.227 173.576 369.731 173.549 369.492 173.532H362.869H357.185H354.547H350.465H344.737C344.135 173.558 343.577 173.718 343.577 175.377V184.309C343.621 186.021 344.082 186.048 344.303 186.066H345.578H350.447V190.244H344.427C343.816 190.244 343.568 190.341 343.568 191.317V199.708C343.568 201.456 344.152 201.456 344.577 201.456H350.447V207.94C349.279 207.266 347.977 206.574 346.499 205.882C345.852 205.581 345.1 205.643 344.524 206.024C344.028 206.352 343.727 206.902 343.727 207.479V213.36C343.727 214.052 344.135 214.664 344.79 214.957C346.676 215.826 348.34 216.819 349.748 217.91C349.996 218.106 350.217 218.301 350.439 218.487V218.735H345.764C344.197 218.735 343.559 218.833 343.559 219.853V227.437C343.559 229.265 345.055 229.265 346.153 229.265H369.005C369.899 229.265 370.634 228.475 370.634 227.508V220.483C370.634 219.516 369.899 218.726 369.005 218.726L369.023 218.762Z" fill="white"/>
</g>
<defs>
<linearGradient id="paint0_linear_134_211" x1="385.539" y1="509.911" x2="254.766" y2="381.397" gradientUnits="userSpaceOnUse">
<stop offset="0.27" stop-color="#8FC31F"/>
<stop offset="0.85" stop-color="#EA5514"/>
<stop offset="1" stop-color="#E61673"/>
</linearGradient>
<linearGradient id="paint1_linear_134_211" x1="319.659" y1="480.989" x2="553.451" y2="569.263" gradientUnits="userSpaceOnUse">
<stop stop-color="#23A3DD"/>
<stop offset="0.54" stop-color="#F5EA2B"/>
<stop offset="1" stop-color="#83BC44"/>
</linearGradient>
<linearGradient id="paint2_linear_134_211" x1="437.002" y1="480.989" x2="670.794" y2="569.263" gradientUnits="userSpaceOnUse">
<stop stop-color="#F5EA2B"/>
<stop offset="0.01" stop-color="#F2D832"/>
<stop offset="0.03" stop-color="#EDAC45"/>
<stop offset="0.06" stop-color="#E78455"/>
<stop offset="0.08" stop-color="#E36363"/>
<stop offset="0.1" stop-color="#E0486F"/>
<stop offset="0.13" stop-color="#DD3377"/>
<stop offset="0.16" stop-color="#DB247E"/>
<stop offset="0.2" stop-color="#DA1B81"/>
<stop offset="0.26" stop-color="#DA1983"/>
<stop offset="0.95" stop-color="#7A2988"/>
</linearGradient>
<linearGradient id="paint3_linear_134_211" x1="1511.55" y1="490.167" x2="1152.32" y2="130.255" gradientUnits="userSpaceOnUse">
<stop offset="0.27" stop-color="#8FC31F"/>
<stop offset="0.85" stop-color="#EA5514"/>
<stop offset="1" stop-color="#E61673"/>
</linearGradient>
<linearGradient id="paint4_linear_134_211" x1="282.348" y1="311.395" x2="149.31" y2="176.977" gradientUnits="userSpaceOnUse">
<stop offset="0.27" stop-color="#8FC31F"/>
<stop offset="0.85" stop-color="#EA5514"/>
<stop offset="1" stop-color="#E61673"/>
</linearGradient>
<clipPath id="clip0_134_211">
<rect width="352" height="10" fill="white" transform="translate(218 482)"/>
</clipPath>
<clipPath id="clip1_134_211">
<rect width="597" height="256" fill="white" transform="translate(340 15)"/>
</clipPath>
</defs>
</svg>
