<svg width="14" height="226" viewBox="0 0 14 226" fill="none" xmlns="http://www.w3.org/2000/svg">
<path d="M9.51 12.84L9.32 12.86V11.52L9.51 11.48C11.55 11.03 12.99 9.53 12.99 6.87C12.99 3.8 10.64 1.49 6.98 1.49C3.32 1.49 0.97 3.7 0.97 6.72C0.97 9.49 2.47 10.96 4.53 11.41L4.72 11.45V12.79L4.53 12.77C2.06 12.38 0 10.43 0 6.63C0 2.55 2.84 0 6.93 0C11.02 0 13.97 2.85 13.97 6.94C13.97 10.53 12.06 12.45 9.51 12.84Z" fill="#A32424"/>
<path d="M6.98 35.7204C2.93 35.7204 0 33.1504 0 28.7804C0 24.4104 2.94 21.8604 6.98 21.8604C11.02 21.8604 13.96 24.4304 13.96 28.7804C13.96 33.1304 11.06 35.7204 6.98 35.7204ZM6.98 34.2304C10.75 34.2304 12.99 32.0004 12.99 28.7804C12.99 25.5604 10.75 23.3504 6.98 23.3504C3.21 23.3504 0.97 25.5804 0.97 28.7804C0.97 31.9804 3.23 34.2304 6.98 34.2304Z" fill="#A32424"/>
<path d="M0.27002 59.9798V58.6398H7.51002C9.20002 58.6398 11.07 58.6398 12.63 58.6798C11.07 58.0998 9.19002 57.3398 7.53002 56.6498L0.27002 53.6198V51.9298L7.55002 48.8798C9.18002 48.2098 11.07 47.4498 12.61 46.8898C11.05 46.9298 9.19002 46.9298 7.51002 46.9298H0.27002V45.5898H13.69V47.7698L1.28002 52.8098L13.69 57.8298V59.9698H0.27002V59.9798Z" fill="#A32424"/>
<path d="M0.27002 70.6699H13.69V72.0099H0.27002V70.6699Z" fill="#A32424"/>
<path d="M0.27002 91.7304L12.53 83.9704C10.88 84.0104 8.87002 84.0304 7.20002 84.0304H0.27002V82.6904H13.69V84.7204L1.43002 92.5004C3.10002 92.4604 5.09002 92.4404 6.76002 92.4404H13.69V93.7604L0.27002 93.7804V91.7304Z" fill="#A32424"/>
<path d="M6.55999 116.23H0.26999V115.02H3.02999L1.81999 114.44C0.56999 113.45 -0.0100098 111.87 -0.0100098 110.07C-0.0100098 105.96 2.82999 103.41 6.91999 103.41C11.01 103.41 13.96 106.29 13.96 110.42C13.96 114.01 12.05 115.93 9.49999 116.34L9.30999 116.36V115.02L9.49999 114.98C11.54 114.53 12.98 113.03 12.98 110.37C12.98 107.23 10.63 104.9 6.96999 104.9C3.30999 104.9 0.95999 107.11 0.95999 110.15C0.95999 112.53 2.51999 114.89 5.54999 114.89V110.83H6.53999V116.24L6.55999 116.23Z" fill="#A32424"/>
<path d="M10.1 158.53V157.12C11.93 156.86 13 155.56 13 153.6C13 151.89 12.2 150.31 10.61 150.31C9.02 150.31 8.37 151.37 7.79 153.92C7.05 157.12 5.96 158.72 3.74 158.72C1.52 158.72 0 156.56 0 153.7C0 150.67 1.38 148.49 3.97 148.16V149.59C2.04 149.96 0.97 151.6 0.97 153.74C0.97 155.71 1.98 157.29 3.54 157.29C5.27 157.29 6.01 156.17 6.63 153.38C7.29 150.55 8.19 148.86 10.35 148.86C12.51 148.86 13.97 151.07 13.97 153.7C13.97 156.68 12.28 158.24 10.1 158.52V158.53Z" fill="#A32424"/>
<path d="M6.98 181.45C2.93 181.45 0 178.88 0 174.51C0 170.14 2.94 167.59 6.98 167.59C11.02 167.59 13.96 170.16 13.96 174.51C13.96 178.86 11.06 181.45 6.98 181.45ZM6.98 179.96C10.75 179.96 12.99 177.73 12.99 174.51C12.99 171.29 10.75 169.08 6.98 169.08C3.21 169.08 0.97 171.31 0.97 174.51C0.97 177.71 3.23 179.96 6.98 179.96Z" fill="#A32424"/>
<path d="M6.98 204.11C2.93 204.11 0 201.54 0 197.17C0 192.8 2.94 190.25 6.98 190.25C11.02 190.25 13.96 192.82 13.96 197.17C13.96 201.52 11.06 204.11 6.98 204.11ZM6.98 202.62C10.75 202.62 12.99 200.39 12.99 197.17C12.99 193.95 10.75 191.74 6.98 191.74C3.21 191.74 0.97 193.97 0.97 197.17C0.97 200.37 3.23 202.62 6.98 202.62Z" fill="#A32424"/>
<path d="M0.27002 223.04L12.53 215.28C10.88 215.32 8.87002 215.34 7.20002 215.34H0.27002V214H13.69V216.03L1.43002 223.81C3.10002 223.77 5.09002 223.75 6.76002 223.75H13.69V225.07L0.27002 225.09V223.04Z" fill="#A32424"/>
</svg>
