<svg width="269" height="33" viewBox="0 0 269 33" fill="none" xmlns="http://www.w3.org/2000/svg">
<mask id="mask0_13_24" style="mask-type:luminance" maskUnits="userSpaceOnUse" x="215" y="0" width="7" height="11">
<path d="M215.418 10.5334L215.395 0.646154H217.709V4.38016H219.565V0.638641H221.826L221.849 10.5184H219.588L219.58 6.42372H217.724L217.732 10.5259H215.418V10.5334Z" fill="white"/>
</mask>
<g mask="url(#mask0_13_24)">
<path d="M215.395 0.646179L215.418 10.5334H215.395V0.646179Z" fill="white"/>
<path d="M215.418 0.638641L215.433 10.5334H215.418L215.395 0.646154V0.638641H215.418Z" fill="white"/>
<path d="M215.44 0.638641L215.455 10.5334H215.433L215.418 0.638641H215.44Z" fill="#FEFEFE"/>
<path d="M215.463 0.638641L215.478 10.5334H215.455L215.44 0.638641H215.463Z" fill="#FCFCFD"/>
<path d="M215.478 0.638641L215.5 10.5334H215.478L215.463 0.638641H215.478Z" fill="#FAFAFB"/>
<path d="M215.501 0.638641L215.523 10.5334H215.501L215.478 0.638641H215.501Z" fill="#F8F8F9"/>
<path d="M215.523 0.638641L215.546 10.5334H215.523L215.5 0.638641H215.523Z" fill="#F6F6F7"/>
<path d="M215.545 0.638641L215.561 10.5334H215.545L215.523 0.638641H215.545Z" fill="#F4F4F5"/>
<path d="M215.568 0.638641L215.583 10.5334H215.56L215.545 0.638641H215.568Z" fill="#F2F2F3"/>
<path d="M215.591 0.638641L215.606 10.5334H215.583L215.568 0.638641H215.591Z" fill="#F0F0F1"/>
<path d="M215.606 0.638641L215.628 10.5334H215.606L215.591 0.638641H215.606Z" fill="#EFEEF0"/>
<path d="M215.628 0.638641L215.651 10.5334H215.628L215.606 0.638641H215.628Z" fill="#EDECEE"/>
<path d="M215.651 0.638641L215.673 10.5334H215.651L215.628 0.638641H215.651Z" fill="#EBEBEC"/>
<path d="M215.673 0.638641L215.688 10.5334H215.673L215.651 0.638641H215.673Z" fill="#E9E9EA"/>
<path d="M215.696 0.638641L215.711 10.5334H215.688L215.673 0.638641H215.696Z" fill="#E8E7E9"/>
<path d="M215.711 0.638641L215.733 10.5334H215.711L215.696 0.638641H215.711Z" fill="#E6E5E7"/>
<path d="M215.733 0.638641L215.756 10.5334H215.733L215.711 0.638641H215.733Z" fill="#E4E3E5"/>
<path d="M215.756 0.638641L215.778 10.5334H215.756L215.733 0.638641H215.756Z" fill="#E2E2E4"/>
<path d="M215.778 0.638641L215.801 10.5334H215.778L215.756 0.638641H215.778Z" fill="#E1E0E2"/>
<path d="M215.801 0.638641L215.816 10.5334H215.801L215.778 0.638641H215.801Z" fill="#DFDEE1"/>
<path d="M215.824 0.638641L215.839 10.5334H215.816L215.801 0.638641H215.824Z" fill="#DDDDDF"/>
<path d="M215.839 0.638641L215.861 10.5334H215.839L215.823 0.638641H215.839Z" fill="#DCDBDE"/>
<path d="M215.861 0.638641L215.884 10.5334H215.861L215.839 0.638641H215.861Z" fill="#DAD9DC"/>
<path d="M215.884 0.638641L215.906 10.5334H215.884L215.861 0.638641H215.884Z" fill="#D9D8DB"/>
<path d="M215.906 0.638641L215.929 10.5334H215.906L215.884 0.638641H215.906Z" fill="#D7D6D9"/>
<path d="M215.929 0.638641L215.944 10.5334H215.929L215.906 0.638641H215.929Z" fill="#D6D5D8"/>
<path d="M215.951 0.638641L215.966 10.5334H215.944L215.929 0.638641H215.951Z" fill="#D4D3D6"/>
<path d="M215.966 0.638641L215.989 10.5334H215.966L215.951 0.638641H215.966Z" fill="#D3D2D5"/>
<path d="M215.989 0.638641L216.011 10.5334H215.989L215.966 0.638641H215.989Z" fill="#D1D0D4"/>
<path d="M216.011 0.638641L216.034 10.5334H216.011L215.989 0.638641H216.011Z" fill="#D0CFD2"/>
<path d="M216.034 0.638641L216.057 10.5334H216.034L216.011 0.638641H216.034Z" fill="#CECED1"/>
<path d="M216.056 0.638641L216.072 10.5334H216.056L216.034 0.638641H216.056Z" fill="#CDCCD0"/>
<path d="M216.079 0.638641L216.094 10.5334H216.071L216.056 0.638641H216.079Z" fill="#CCCBCF"/>
<path d="M216.094 0.638641L216.116 10.5334H216.094L216.079 0.638641H216.094Z" fill="#CACACD"/>
<path d="M216.117 0.638641L216.139 10.5334H216.117L216.094 0.638641H216.117Z" fill="#C9C8CC"/>
<path d="M216.139 0.638641L216.162 10.5334H216.139L216.116 0.638641H216.139Z" fill="#C8C7CB"/>
<path d="M216.162 0.638641L216.184 10.5334H216.162L216.139 0.638641H216.162Z" fill="#C7C6CA"/>
<path d="M216.184 0.638641L216.199 10.5334H216.184L216.162 0.638641H216.184Z" fill="#C5C5C9"/>
<path d="M216.207 0.638641L216.222 10.5334H216.199L216.184 0.638641H216.207Z" fill="#C4C3C8"/>
<path d="M216.222 0.638641L216.244 10.5334H216.222L216.207 0.638641H216.222Z" fill="#C3C2C7"/>
<path d="M216.244 0.638641L216.267 10.5334H216.244L216.222 0.638641H216.244Z" fill="#C2C1C5"/>
<path d="M216.267 0.638641L216.289 10.5334H216.267L216.244 0.638641H216.267Z" fill="#C1C0C4"/>
<path d="M216.289 0.638641L216.312 10.5334H216.289L216.267 0.638641H216.289Z" fill="#C0BFC3"/>
<path d="M216.312 0.638641L216.327 10.5334H216.312L216.289 0.638641H216.312Z" fill="#BEBEC2"/>
<path d="M216.334 0.638641L216.349 10.5334H216.327L216.312 0.638641H216.334Z" fill="#BDBDC1"/>
<path d="M216.349 0.638641L216.372 10.5334H216.349L216.334 0.638641H216.349Z" fill="#BCBCC0"/>
<path d="M216.372 0.638641L216.394 10.5334H216.372L216.349 0.638641H216.372Z" fill="#BBBBBF"/>
<path d="M216.395 0.638641L216.417 10.5334H216.395L216.372 0.638641H216.395Z" fill="#BABABF"/>
<path d="M216.417 0.638641L216.44 10.5334H216.417L216.395 0.638641H216.417Z" fill="#B9B9BE"/>
<path d="M216.44 0.638641L216.455 10.5334H216.44L216.417 0.638641H216.44Z" fill="#B8B8BD"/>
<path d="M216.462 0.638641L216.477 10.5334H216.454L216.439 0.638641H216.462Z" fill="#B7B7BC"/>
<path d="M216.477 0.638641L216.5 10.5334H216.477L216.462 0.638641H216.477Z" fill="#B6B6BB"/>
<path d="M216.5 0.638641L216.522 10.5334H216.5L216.477 0.638641H216.5Z" fill="#B5B5BA"/>
<path d="M216.522 0.638641L216.545 10.5334H216.522L216.5 0.638641H216.522Z" fill="#B4B4B9"/>
<path d="M216.545 0.638641L216.567 10.5334H216.545L216.522 0.638641H216.545Z" fill="#B3B3B9"/>
<path d="M216.567 0.638641L216.582 10.5334H216.567L216.545 0.638641H216.567Z" fill="#B2B2B8"/>
<path d="M216.59 0.638641L216.605 10.5334H216.582L216.567 0.638641H216.59Z" fill="#B2B2B7"/>
<path d="M216.605 0.638641L216.627 10.5334H216.605L216.59 0.638641H216.605Z" fill="#B1B1B6"/>
<path d="M216.628 0.638641L216.65 10.5334H216.628L216.605 0.638641H216.628Z" fill="#B0B0B6"/>
<path d="M216.65 0.638641L216.673 10.5334H216.65L216.627 0.638641H216.65Z" fill="#AFAFB5"/>
<path d="M216.672 0.638641L216.695 10.5334H216.672L216.65 0.638641H216.672Z" fill="#AEAFB4"/>
<path d="M216.695 0.638641L216.71 10.5334H216.695L216.672 0.638641H216.695Z" fill="#ADAEB4"/>
<path d="M216.718 0.638641L216.733 10.5334H216.71L216.695 0.638641H216.718Z" fill="#ADADB3"/>
<path d="M216.733 0.638641L216.755 10.5334H216.733L216.718 0.638641H216.733Z" fill="#ACADB2"/>
<path d="M216.755 0.638641L216.778 10.5334H216.755L216.733 0.638641H216.755Z" fill="#ABACB2"/>
<path d="M216.778 0.638641L216.8 10.5334H216.778L216.755 0.638641H216.778Z" fill="#ABABB1"/>
<path d="M216.8 0.638641L216.823 10.5334H216.8L216.778 0.638641H216.8Z" fill="#AAABB1"/>
<path d="M216.823 0.638641L216.838 10.5334H216.823L216.8 0.638641H216.823Z" fill="#A9AAB0"/>
<path d="M216.845 0.638641L216.86 10.5334H216.838L216.823 0.638641H216.845Z" fill="#A9A9AF"/>
<path d="M216.86 0.638641L216.883 10.5334H216.86L216.845 0.638641H216.86Z" fill="#A8A9AF"/>
<path d="M216.883 0.638641L216.905 10.5334H216.883L216.86 0.638641H216.883Z" fill="#A7A8AE"/>
<path d="M216.905 0.638641L216.928 10.5334H216.905L216.883 0.638641H216.905Z" fill="#A7A8AE"/>
<path d="M216.928 0.638641L216.951 10.5334H216.928L216.906 0.638641H216.928Z" fill="#A6A7AD"/>
<path d="M216.951 0.638641L216.966 10.5334H216.951L216.928 0.638641H216.951Z" fill="#A6A7AD"/>
<path d="M216.973 0.638641L216.988 10.5334H216.965L216.95 0.638641H216.973Z" fill="#A5A6AD"/>
<path d="M216.988 0.638641L217.011 10.5334H216.988L216.973 0.638641H216.988Z" fill="#A4A6AC"/>
<path d="M217.011 0.638641L217.033 10.5334H217.011L216.988 0.638641H217.011Z" fill="#A4A5AC"/>
<path d="M217.033 0.638641L217.056 10.5334H217.033L217.01 0.638641H217.033Z" fill="#A3A5AB"/>
<path d="M217.055 0.638641L217.078 10.5334H217.055L217.033 0.638641H217.055Z" fill="#A3A4AB"/>
<path d="M217.078 0.638641L217.093 10.5334H217.078L217.056 0.638641H217.078Z" fill="#A3A4AA"/>
<path d="M217.101 0.638641L217.116 10.5334H217.093L217.078 0.638641H217.101Z" fill="#A2A3AA"/>
<path d="M217.116 0.638641L217.138 10.5334H217.116L217.101 0.638641H217.116Z" fill="#A2A3AA"/>
<path d="M217.138 0.638641L217.161 10.5334H217.138L217.116 0.638641H217.138Z" fill="#A1A3A9"/>
<path d="M217.161 0.638641L217.184 10.5334H217.161L217.138 0.638641H217.161Z" fill="#A1A2A9"/>
<path d="M217.183 0.638641L217.206 10.5334H217.183L217.161 0.638641H217.183Z" fill="#A0A2A9"/>
<path d="M217.206 0.638641L217.221 10.5334H217.206L217.183 0.638641H217.206Z" fill="#A0A2A8"/>
<path d="M217.228 0.638641L217.243 10.5334H217.221L217.206 0.638641H217.228Z" fill="#A0A1A8"/>
<path d="M217.244 0.638641L217.266 10.5334H217.244L217.229 0.638641H217.244Z" fill="#9FA1A8"/>
<path d="M217.266 0.638641L217.288 10.5334H217.266L217.243 0.638641H217.266Z" fill="#9FA1A8"/>
<path d="M217.289 0.638641L217.311 10.5334H217.289L217.266 0.638641H217.289Z" fill="#9FA0A7"/>
<path d="M217.311 0.638641L217.326 10.5334H217.311L217.289 0.638641H217.311Z" fill="#9EA0A7"/>
<path d="M217.334 0.638641L217.349 10.5334H217.326L217.311 0.638641H217.334Z" fill="#9EA0A7"/>
<path d="M217.356 0.638641L217.371 10.5334H217.349L217.334 0.638641H217.356Z" fill="#9EA0A7"/>
<path d="M217.371 0.638641L217.394 10.5334H217.371L217.356 0.638641H217.371Z" fill="#9E9FA7"/>
<path d="M217.394 0.638641L217.416 10.5334H217.394L217.371 0.638641H217.394Z" fill="#9D9FA6"/>
<path d="M217.416 0.638641L217.439 10.5334H217.416L217.394 0.638641H217.416Z" fill="#9D9FA6"/>
<path d="M217.439 0.638641L217.454 10.5334H217.439L217.416 0.638641H217.439Z" fill="#9D9FA6"/>
<path d="M217.461 0.638641L217.476 10.5334H217.454L217.439 0.638641H217.461Z" fill="#9D9FA6"/>
<path d="M217.484 0.638641L217.499 10.5334H217.476L217.461 0.638641H217.484Z" fill="#9D9FA6"/>
<path d="M217.499 0.638641L217.521 10.5334H217.499L217.484 0.638641H217.499Z" fill="#9C9EA6"/>
<path d="M217.522 0.638641L217.544 10.5334H217.522L217.499 0.638641H217.522Z" fill="#9C9EA5"/>
<path d="M217.544 0.638641L217.567 10.5334H217.544L217.521 0.638641H217.544Z" fill="#9C9EA5"/>
<path d="M217.567 0.638641L217.582 10.5334H217.567L217.544 0.638641H217.567Z" fill="#9C9EA5"/>
<path d="M217.589 0.638641L217.604 10.5334H217.581L217.566 0.638641H217.589Z" fill="#9C9EA5"/>
<path d="M217.612 0.638641L217.627 10.5334H217.604L217.589 0.638641H217.612Z" fill="#9C9EA5"/>
<path d="M217.627 0.638641L217.649 10.5334H217.627L217.612 0.638641H217.627Z" fill="#9C9EA5"/>
<path d="M217.649 0.638641L217.672 10.5334H217.649L217.627 0.638641H217.649Z" fill="#9C9EA5"/>
<path d="M217.672 0.638641L217.694 10.5334H217.672L217.649 0.638641H217.672Z" fill="#9C9EA5"/>
<path d="M217.694 0.638641L217.709 10.5334H217.694L217.672 0.638641H217.694Z" fill="#9B9EA5"/>
<path d="M217.717 0.638641L217.732 10.5334H217.709L217.694 0.638641H217.717Z" fill="#9B9EA5"/>
<path d="M217.739 0.638641L217.754 10.5334H217.732L217.717 0.638641H217.739Z" fill="#9B9DA5"/>
<path d="M217.755 0.638641L217.777 10.5334H217.755L217.74 0.638641H217.755Z" fill="#9B9DA5"/>
<path d="M217.777 0.638641L217.799 10.5334H217.777L217.754 0.638641H217.777Z" fill="#9B9DA5"/>
<path d="M217.799 0.638641L217.822 10.5334H217.799L217.777 0.638641H217.799Z" fill="#9B9DA5"/>
<path d="M217.822 0.638641L217.837 10.5334H217.822L217.799 0.638641H217.822Z" fill="#9B9DA5"/>
<path d="M217.845 0.638641L217.86 10.5334H217.837L217.822 0.638641H217.845Z" fill="#9B9DA5"/>
<path d="M217.89 0.638641L217.905 10.5334H217.86L217.844 0.638641H217.89Z" fill="#9B9DA5"/>
<path d="M217.935 0.638641L217.95 10.5334H217.905L217.89 0.638641H217.935Z" fill="#9B9DA4"/>
<path d="M217.98 0.638641L217.995 10.5334H217.95L217.935 0.638641H217.98Z" fill="#9B9DA3"/>
<path d="M218.025 0.638641L218.04 10.5334H217.995L217.98 0.638641H218.025Z" fill="#9B9CA2"/>
<path d="M218.07 0.638641L218.085 10.5334H218.04L218.025 0.638641H218.07Z" fill="#9B9CA1"/>
<path d="M218.108 0.638641L218.13 10.5334H218.085L218.07 0.638641H218.108Z" fill="#9B9BA0"/>
<path d="M218.153 0.638641L218.175 10.5334H218.13L218.108 0.638641H218.153Z" fill="#9B9B9F"/>
<path d="M218.198 0.638641L218.22 10.5334H218.175L218.153 0.638641H218.198Z" fill="#9A9A9E"/>
<path d="M218.243 0.638641L218.265 10.5334H218.22L218.198 0.638641H218.243Z" fill="#9A9A9D"/>
<path d="M218.288 0.638641L218.31 10.5334H218.265L218.243 0.638641H218.288Z" fill="#9A999D"/>
<path d="M218.333 0.638641L218.355 10.5334H218.31L218.288 0.638641H218.333Z" fill="#9A999C"/>
<path d="M218.378 0.638641L218.4 10.5334H218.355L218.333 0.638641H218.378Z" fill="#9A999B"/>
<path d="M218.423 0.638641L218.446 10.5334H218.4L218.378 0.638641H218.423Z" fill="#9A989A"/>
<path d="M218.468 0.638641L218.491 10.5334H218.446L218.423 0.638641H218.468Z" fill="#9A9899"/>
<path d="M218.513 0.638641L218.536 10.5334H218.491L218.468 0.638641H218.513Z" fill="#999798"/>
<path d="M218.558 0.638641L218.581 10.5334H218.536L218.513 0.638641H218.558Z" fill="#999797"/>
<path d="M218.603 0.638641L218.626 10.5334H218.581L218.558 0.638641H218.603Z" fill="#999696"/>
<path d="M218.648 0.638641L218.671 10.5334H218.626L218.603 0.638641H218.648Z" fill="#999695"/>
<path d="M218.694 0.638641L218.716 10.5334H218.671L218.648 0.638641H218.694Z" fill="#999695"/>
<path d="M218.738 0.638641L218.761 10.5334H218.716L218.693 0.638641H218.738Z" fill="#999594"/>
<path d="M218.784 0.638641L218.806 10.5334H218.761L218.739 0.638641H218.784Z" fill="#999593"/>
<path d="M218.829 0.638641L218.844 10.5334H218.806L218.784 0.638641H218.829Z" fill="#989492"/>
<path d="M218.874 0.638641L218.889 10.5334H218.844L218.829 0.638641H218.874Z" fill="#989491"/>
<path d="M218.919 0.638641L218.934 10.5334H218.889L218.874 0.638641H218.919Z" fill="#989490"/>
<path d="M218.964 0.638641L218.979 10.5334H218.934L218.919 0.638641H218.964Z" fill="#98938F"/>
<path d="M219.009 0.638641L219.024 10.5334H218.979L218.964 0.638641H219.009Z" fill="#98938E"/>
<path d="M219.054 0.638641L219.069 10.5334H219.024L219.009 0.638641H219.054Z" fill="#98928E"/>
<path d="M219.099 0.638641L219.114 10.5334H219.069L219.054 0.638641H219.099Z" fill="#98928D"/>
<path d="M219.144 0.638641L219.159 10.5334H219.114L219.099 0.638641H219.144Z" fill="#97918C"/>
<path d="M219.189 0.638641L219.204 10.5334H219.159L219.144 0.638641H219.189Z" fill="#97918B"/>
<path d="M219.235 0.638641L219.25 10.5334H219.204L219.189 0.638641H219.235Z" fill="#97918A"/>
<path d="M219.272 0.638641L219.295 10.5334H219.25L219.235 0.638641H219.272Z" fill="#979089"/>
<path d="M219.317 0.638641L219.34 10.5334H219.295L219.272 0.638641H219.317Z" fill="#979088"/>
<path d="M219.362 0.638641L219.385 10.5334H219.34L219.317 0.638641H219.362Z" fill="#978F88"/>
<path d="M219.407 0.638641L219.43 10.5334H219.385L219.362 0.638641H219.407Z" fill="#978F87"/>
<path d="M219.452 0.638641L219.475 10.5334H219.43L219.407 0.638641H219.452Z" fill="#978F86"/>
<path d="M219.497 0.638641L219.52 10.5334H219.475L219.452 0.638641H219.497Z" fill="#968E85"/>
<path d="M219.542 0.638641L219.565 10.5334H219.52L219.497 0.638641H219.542Z" fill="#968E84"/>
<path d="M219.588 0.638641L219.61 10.5334H219.565L219.542 0.638641H219.588Z" fill="#968D84"/>
<path d="M219.633 0.638641L219.655 10.5334H219.61L219.588 0.638641H219.633Z" fill="#968D83"/>
<path d="M219.678 0.638641L219.7 10.5334H219.655L219.633 0.638641H219.678Z" fill="#968D82"/>
<path d="M219.723 0.638641L219.745 10.5334H219.7L219.678 0.638641H219.723Z" fill="#968C81"/>
<path d="M219.768 0.638641L219.791 10.5334H219.745L219.723 0.638641H219.768Z" fill="#968C80"/>
<path d="M219.813 0.638641L219.835 10.5334H219.79L219.768 0.638641H219.813Z" fill="#968B80"/>
<path d="M219.858 0.638641L219.881 10.5334H219.836L219.813 0.638641H219.858Z" fill="#958B7F"/>
<path d="M219.903 0.638641L219.926 10.5334H219.88L219.858 0.638641H219.903Z" fill="#958B7E"/>
<path d="M219.948 0.638641L219.971 10.5334H219.926L219.903 0.638641H219.948Z" fill="#958A7D"/>
<path d="M219.993 0.638641L220.008 10.5334H219.971L219.948 0.638641H219.993Z" fill="#958A7D"/>
<path d="M220.038 0.638641L220.054 10.5334H220.008L219.993 0.638641H220.038Z" fill="#958A7C"/>
<path d="M220.083 0.638641L220.098 10.5334H220.053L220.038 0.638641H220.083Z" fill="#95897B"/>
<path d="M220.129 0.638641L220.144 10.5334H220.099L220.083 0.638641H220.129Z" fill="#95897A"/>
<path d="M220.174 0.638641L220.189 10.5334H220.144L220.129 0.638641H220.174Z" fill="#958879"/>
<path d="M220.219 0.638641L220.234 10.5334H220.189L220.174 0.638641H220.219Z" fill="#948879"/>
<path d="M220.264 0.638641L220.279 10.5334H220.234L220.219 0.638641H220.264Z" fill="#948878"/>
<path d="M220.309 0.638641L220.324 10.5334H220.279L220.264 0.638641H220.309Z" fill="#948777"/>
<path d="M220.354 0.638641L220.369 10.5334H220.324L220.309 0.638641H220.354Z" fill="#948776"/>
<path d="M220.399 0.638641L220.414 10.5334H220.369L220.354 0.638641H220.399Z" fill="#948776"/>
<path d="M220.444 0.638641L220.459 10.5334H220.414L220.399 0.638641H220.444Z" fill="#948675"/>
<path d="M220.482 0.638641L220.504 10.5334H220.459L220.444 0.638641H220.482Z" fill="#948674"/>
<path d="M220.527 0.638641L220.549 10.5334H220.504L220.482 0.638641H220.527Z" fill="#948673"/>
<path d="M220.572 0.638641L220.594 10.5334H220.549L220.527 0.638641H220.572Z" fill="#938573"/>
<path d="M220.617 0.638641L220.639 10.5334H220.594L220.572 0.638641H220.617Z" fill="#938572"/>
<path d="M220.662 0.638641L220.685 10.5334H220.639L220.617 0.638641H220.662Z" fill="#938471"/>
<path d="M220.707 0.638641L220.729 10.5334H220.684L220.662 0.638641H220.707Z" fill="#938471"/>
<path d="M220.752 0.638641L220.775 10.5334H220.73L220.707 0.638641H220.752Z" fill="#938470"/>
<path d="M220.797 0.638641L220.82 10.5334H220.774L220.752 0.638641H220.797Z" fill="#93836F"/>
<path d="M220.842 0.638641L220.865 10.5334H220.82L220.797 0.638641H220.842Z" fill="#93836F"/>
<path d="M220.887 0.638641L220.91 10.5334H220.865L220.842 0.638641H220.887Z" fill="#93836E"/>
<path d="M220.933 0.638641L220.955 10.5334H220.91L220.887 0.638641H220.933Z" fill="#93826D"/>
<path d="M220.978 0.638641L221 10.5334H220.955L220.933 0.638641H220.978Z" fill="#93826D"/>
<path d="M221.023 0.638641L221.045 10.5334H221L220.978 0.638641H221.023Z" fill="#92826C"/>
<path d="M221.068 0.638641L221.09 10.5334H221.045L221.022 0.638641H221.068Z" fill="#92816C"/>
<path d="M221.113 0.638641L221.135 10.5334H221.09L221.068 0.638641H221.113Z" fill="#92816B"/>
<path d="M221.158 0.638641L221.173 10.5334H221.135L221.113 0.638641H221.158Z" fill="#92816A"/>
<path d="M221.203 0.638641L221.218 10.5334H221.173L221.158 0.638641H221.203Z" fill="#92816A"/>
<path d="M221.248 0.638641L221.263 10.5334H221.218L221.203 0.638641H221.248Z" fill="#928069"/>
<path d="M221.293 0.638641L221.308 10.5334H221.263L221.248 0.638641H221.293Z" fill="#928069"/>
<path d="M221.338 0.638641L221.353 10.5334H221.308L221.293 0.638641H221.338Z" fill="#928068"/>
<path d="M221.383 0.638641L221.398 10.5334H221.353L221.338 0.638641H221.383Z" fill="#928068"/>
<path d="M221.398 10.5334L221.383 0.638641H221.841V10.5334H221.398Z" fill="#928068"/>
</g>
<path d="M211.023 7.19005H213.141V7.47555C213.141 8.01649 213.209 8.39966 213.337 8.62505C213.464 8.85044 213.682 8.95563 213.983 8.95563C214.223 8.95563 214.418 8.87298 214.561 8.70018C214.704 8.52738 214.772 8.30199 214.772 8.00898C214.772 7.52814 214.426 7.06984 213.735 6.63408C213.622 6.55895 213.539 6.49885 213.479 6.46128C213.457 6.44626 213.419 6.42372 213.367 6.39366C212.435 5.77008 211.856 5.30427 211.631 4.9812C211.466 4.74078 211.346 4.47031 211.255 4.16979C211.173 3.86927 211.128 3.5462 211.128 3.18557C211.128 2.32157 211.376 1.64539 211.872 1.14953C212.375 0.653663 213.059 0.405731 213.938 0.405731C214.892 0.405731 215.621 0.64615 216.124 1.12699C216.627 1.60783 216.883 2.30654 216.883 3.22314C216.883 3.2607 216.883 3.3133 216.883 3.38091C216.883 3.44853 216.883 3.50112 216.883 3.53869H214.809V3.41848C214.809 2.98272 214.742 2.65966 214.606 2.43427C214.471 2.20887 214.276 2.10369 214.02 2.10369C213.802 2.10369 213.63 2.18633 213.494 2.3366C213.359 2.49437 213.299 2.69722 213.299 2.96018C213.299 3.38091 213.675 3.82419 214.433 4.29C214.569 4.38016 214.674 4.44777 214.749 4.49285C214.809 4.53042 214.892 4.58301 214.997 4.65063C215.808 5.16152 216.327 5.59728 216.552 5.94288C216.695 6.16827 216.8 6.42372 216.875 6.71673C216.95 7.00222 216.988 7.31777 216.988 7.65586C216.988 8.64759 216.732 9.40641 216.222 9.93984C215.711 10.4733 214.974 10.7437 214.02 10.7437C213.021 10.7437 212.27 10.4883 211.759 9.97741C211.255 9.50408 211 8.73775 211 7.73099C211 7.66338 211 7.59576 211 7.52814C211 7.46052 211.008 7.34783 211.023 7.19005Z" fill="#A6956E"/>
<path d="M239.474 5.34932V5.33429L239.512 5.27418L239.527 5.22911L239.512 5.15398L239.482 5.07884L239.467 5.04879L239.437 5.00371L239.377 4.89102L239.362 4.81589L239.347 4.73324V4.65811L239.377 4.59801L239.474 4.51536L239.535 4.48531H239.595L239.655 4.50034L239.73 4.54541L239.775 4.59049L239.82 4.71822L239.85 4.80086L239.925 4.8835L239.97 4.92858L240.03 4.94361H240.075H240.106L240.166 4.91356L240.196 4.8835L240.639 4.61303H240.654L240.699 4.62806L240.714 4.65811V4.70319V4.94361L240.699 5.01874L240.384 5.25165L240.338 5.31175L240.293 5.39439V5.46952L240.308 5.55217L240.338 5.6273L240.571 5.95788L240.616 6.01798L240.646 6.04803L240.692 6.06306H240.722L240.804 6.07808L240.834 6.06306L240.909 6.01798L240.955 6.00295L241.015 5.95788L241.097 5.88274L241.112 5.80761L241.127 5.73248L241.112 5.65735L241.127 5.55968L241.142 5.21408V5.13895V5.07884V4.92107V4.80837V4.63557V4.50785L241.097 4.39515V4.33505L241.067 4.2524L241.037 4.20733L240.977 4.16225L240.894 4.14722H240.834L240.722 4.13219L240.624 4.16225H240.579C240.421 4.1923 240.263 4.16225 240.128 4.07209L240.068 4.03452L239.993 3.98945L239.91 3.9068L239.865 3.86172L239.82 3.80162L239.79 3.72649L239.775 3.64384V3.58374V3.53866V3.49358L239.805 3.47856L239.888 3.43348L239.97 3.40343L240.053 3.35835L240.128 3.32829L240.158 3.31327L240.203 3.29824L240.233 3.26819L240.263 3.25316L240.278 3.22311V3.17803L240.293 3.13295L240.263 3.00523L240.233 2.92259L240.203 2.84746L240.143 2.70471L240.113 2.62206L240.083 2.53942L240.038 2.46429L239.993 2.40418L239.918 2.32154L239.835 2.26144L239.737 2.14874L239.64 2.05107L239.58 1.9534L239.504 1.81065L239.444 1.69795L239.429 1.63785V1.59277L239.489 1.56272H239.565L239.64 1.54769H239.7L239.745 1.53267L239.79 1.51764L239.835 1.47256V1.39743V1.28473V0.999237L239.82 0.796383L239.805 0.668661V0.540938L239.82 0.465807L239.85 0.405703L239.88 0.37565L239.91 0.360624L239.97 0.37565L240.045 0.390677H240.106L240.166 0.405703H240.241L240.286 0.435755L240.331 0.480834L240.391 0.510886L240.436 0.525912L240.496 0.555965L240.571 0.570991L240.646 0.586017L240.692 0.601043L240.737 0.631095L240.782 0.661148L240.827 0.6912L240.857 0.721253L240.887 0.751305L240.932 0.781357L240.962 0.796383L241.022 0.81141L241.067 0.826436L241.112 0.841462L241.142 0.856488L241.187 0.88654L241.233 0.916593L241.263 0.946645L241.293 0.991724L241.323 1.02178L241.353 1.0368L241.383 1.06685L241.413 1.08188H241.473L241.556 1.05183L241.601 1.0368L241.661 1.02178L241.706 1.00675L241.781 0.976698L241.826 0.946645L241.871 0.916593L241.916 0.871514L241.961 0.841462L242.006 0.796383L242.036 0.766331L242.051 0.736279L242.081 0.706226L242.112 0.676174L242.127 0.616069L242.157 0.570991L242.172 0.49586L242.202 0.435755L242.247 0.293006L242.277 0.210362L242.307 0.135232L242.322 0.090153L242.352 0.0450745H242.397H242.412L242.457 0.0751268L242.517 0.090153L242.562 0.120205L242.592 0.150258L242.607 0.165284L242.622 0.18031L242.637 0.210362L242.683 0.225389L242.713 0.240415L242.758 0.270467L242.803 0.285493L242.848 0.315546L242.878 0.330572L242.938 0.37565L242.983 0.405703L243.013 0.435755L243.126 0.563478L243.171 0.623582L243.216 0.668661L243.246 0.698713L243.306 0.773844L243.366 0.833949L243.381 0.879027L243.426 0.961671L243.441 1.02178L243.456 1.06685V1.11193L243.486 1.22463L243.569 1.29976L243.644 1.32981L243.742 1.34484H243.825L243.885 1.35987H243.915H243.93V1.37489L243.96 1.40494V1.46505L243.93 1.54018V1.63785L243.915 1.65288V1.6679L243.9 1.68293H243.885L243.84 1.71298L243.779 1.74303L243.682 1.75806L243.584 1.77308L243.509 1.78811H243.434H243.351L243.269 1.80314L243.193 1.81816L243.096 1.86324L243.021 1.90832L242.938 1.96843L242.878 2.02853L242.803 2.08863L242.728 2.13371L242.615 2.19382L242.555 2.22387L242.495 2.25392L242.465 2.26895L242.435 2.28398L242.39 2.31403L242.314 2.37413L242.254 2.48683L242.284 2.62958L242.344 2.68968L242.374 2.71973L242.435 2.76481L242.48 2.79487L242.562 2.82492H242.577L242.607 2.85497L242.637 2.88502L242.668 2.9301L242.713 3.02777L242.743 3.07285V3.15549L242.773 3.23062V3.24565L242.758 3.32078V3.38089L242.743 3.39591L242.698 3.44099L242.683 3.47104L242.637 3.51612L242.577 3.5612L242.502 3.59125L242.405 3.65136L242.247 3.72649L242.104 3.80162L242.021 3.8467L241.909 3.9068L241.811 3.96691L241.728 4.01199L241.653 4.04204L241.668 4.51536V4.62806V4.68816L241.683 4.71822L241.713 4.73324L241.811 4.67314L241.924 4.59801L242.036 4.5379L242.194 4.44023L242.292 4.39515L242.42 4.31251L242.517 4.2524L242.63 4.16976L242.705 4.10966L242.788 4.06458L242.885 4.00447L242.945 3.94437L243.006 3.86924L243.103 3.75654L243.148 3.65887L243.163 3.54617L243.193 3.46353L243.223 3.38089L243.269 3.29824C243.509 3.35083 243.742 3.44099 243.952 3.56871V3.58374L243.982 3.59877L244.08 3.65887L244.125 3.68892L244.185 3.71898L244.23 3.734L244.26 3.76405L244.29 3.77908L244.305 3.79411L244.38 3.85421L244.441 3.89929L244.501 3.95939L244.576 4.00447L244.621 4.03452L244.666 4.0796L244.681 4.10966L244.711 4.15473L244.726 4.19981H244.741L244.726 4.22987L244.696 4.24489L244.651 4.27494L244.606 4.28997L244.591 4.305L244.516 4.32002H244.456H244.396H244.35H244.32L244.163 4.33505H244.118H244.072L244.027 4.35007H243.967L243.87 4.39515L243.712 4.44023L243.614 4.47028L243.516 4.54541L243.434 4.60552L243.359 4.6506L243.329 4.66562L243.299 4.69568L243.284 4.72573L243.223 4.8234L243.163 4.90604L243.118 5.01874L243.058 5.14646L242.998 5.27418L242.915 5.40191L242.855 5.49958L242.81 5.57471H242.893L243.006 5.58973H243.088L243.171 5.57471H243.284H243.396H243.479L243.562 5.54466L243.644 5.5146L243.719 5.49958L243.779 5.48455L243.809 5.49958L243.885 5.54466L243.96 5.6273L244.02 5.70243L244.095 5.8001L244.155 5.84518L244.23 5.92031L244.275 5.98041L244.305 6.01047L244.38 6.07057L244.426 6.13068L244.456 6.19078V6.22083L244.411 6.30348L244.396 6.34856H244.35L244.253 6.33353L244.05 6.27343L243.892 6.24337L243.734 6.21332L243.547 6.19829L243.329 6.21332L242.93 6.24337L242.675 6.34104L242.405 6.43871L242.149 6.53638L241.946 6.61151L241.773 6.68664L241.698 6.7167L241.668 7.04727L241.653 7.22007L241.308 7.19754V6.82188L241.052 6.89701L240.819 7.00971L240.601 7.1224L240.444 7.20505L240.241 7.30272L240.068 7.38536L239.925 7.46801L239.737 7.55065L239.61 7.61075H239.527L239.384 7.59573L239.242 7.5807L239.099 7.53562L239.001 7.47552L238.941 7.41541L238.866 7.35531L238.851 7.31023L238.821 7.26515V7.20505L238.836 7.19002L238.851 7.175L238.926 7.11489L239.054 7.05479L239.196 6.97966L239.399 6.90452L239.557 6.82939L239.685 6.75426L239.843 6.67913L239.97 6.61903L240.188 6.46125L240.301 6.37861L240.331 6.30348V6.20581L240.256 6.07808L240.098 5.89026L240.038 5.84518L239.91 5.81513L239.752 5.9128L239.512 6.01047L239.272 5.94285L239.211 5.75502L239.324 5.64233L239.467 5.5146V5.49958C239.52 5.49206 239.572 5.4545 239.61 5.40942H239.632L239.474 5.34932ZM242.495 4.49282V4.46277V4.43272L242.412 4.46277L242.352 4.49282L242.269 4.52288L242.194 4.56795L242.134 4.61303L242.059 4.65811L241.984 4.73324L241.924 4.79335L241.841 4.83843L241.766 4.89853L241.691 4.95863L241.548 5.04128L241.518 5.07133L241.533 5.11641V5.21408L241.518 5.32678V5.46952L241.503 5.61227H241.563L241.646 5.55217L241.721 5.49206L241.766 5.44699L241.841 5.38688L241.916 5.3418L241.976 5.2817L242.036 5.23662L242.081 5.16149L242.112 5.11641L242.157 5.04128L242.202 4.98117L242.232 4.90604L242.277 4.83091L242.307 4.77081L242.322 4.7107L242.367 4.6506L242.397 4.59049L242.457 4.53039L242.487 4.50034L242.517 4.45526L242.495 4.49282ZM241.909 1.39743L241.879 1.29976L241.766 1.22463L241.683 1.29976L241.623 1.34484L241.563 1.41997L241.488 1.48007L241.413 1.54018L241.3 1.58526L241.24 1.60028L241.142 1.61531L241.06 1.69795L241.045 1.79562V1.87076L241.03 1.94589L241 2.16377L240.97 2.2389L240.955 2.31403L240.894 2.4117L240.955 2.49434L240.985 2.52439L241 2.53942V2.5845L241.097 2.77233L241.195 2.59952L241.27 2.50185L241.33 2.41921L241.405 2.29149L241.465 2.20884L241.526 2.1262L241.586 2.04356L241.631 1.96843L241.676 1.90832L241.751 1.79562L241.826 1.6679L241.871 1.55521L241.931 1.44251L241.909 1.39743Z" fill="white"/>
<path d="M243.532 7.761V7.80608L243.501 7.89623L243.456 7.9338L243.389 7.9939L243.216 8.05401L242.758 8.1667L242.585 8.19676L242.097 8.2794L241.871 8.32448L241.698 8.35453L241.541 8.39961V8.74521L241.526 8.98563V9.24108V9.69937L241.511 10.0299V10.3079L241.503 10.4807L241.473 10.6911L241.443 10.8038L241.428 10.8188L241.383 10.8489L241.345 10.7963L241.27 10.7362L241.202 10.5784L241.142 10.4357L241.112 10.3079L241.097 10.2328V10.1051V9.64678L241.112 9.39134V9.1434L241.127 9.01568L241.112 8.88796L241.082 8.77526L241.022 8.67008L240.924 8.60246L240.797 8.63251L240.692 8.67008L240.594 8.70013L240.481 8.74521H240.391H240.308H240.203L240.106 8.73018L240.045 8.71516L239.993 8.68511L239.933 8.66257L239.903 8.63251L239.865 8.57241L239.835 8.48977L239.82 8.38458L239.835 8.30194L239.873 8.18924L239.918 8.09909L240.015 8.05401L240.218 7.94131L240.391 7.85867L240.549 7.78354L240.752 7.70089L240.947 7.61073L241.12 7.52809L241.135 7.23508L241.15 7.06228L241.495 7.09233V7.10736L241.48 7.29518V7.43793L241.578 7.42291L241.668 7.39286L241.849 7.32524L241.939 7.28016L242.036 7.23508L242.164 7.19L242.307 7.13741L242.555 7.06228L242.615 7.03223H242.653L242.743 7.04725L242.81 7.06228L242.885 7.09233L242.953 7.12238L243.073 7.19L243.141 7.25011L243.246 7.31772L243.314 7.39286L243.419 7.52058L243.471 7.5882L243.501 7.69338L243.532 7.761Z" fill="white"/>
<path d="M239.136 3.441L239.151 3.53116L239.136 3.6138L239.121 3.71147L239.091 3.77158L239.024 3.86925L238.979 3.9594L238.903 4.04205L238.836 4.11718L238.746 4.21485L238.678 4.27495L238.618 4.33506L238.565 4.38765L238.505 4.44775L238.46 4.51537L238.423 4.5905L238.378 4.65061L238.347 4.7032L238.265 4.876L238.235 5.01875L238.19 5.19155V5.26668L238.175 5.3343V5.3944L238.332 5.53715L238.49 5.63482L238.866 5.88275L238.941 6.07809L238.881 6.4237L238.64 6.64158L238.535 6.58147L238.107 5.95037L238.047 6.40116L237.994 6.89702L237.964 7.14495L237.949 7.34781L237.964 7.55817V7.76103L237.994 8.12165V8.3771V8.60249L238.024 8.88048L238.039 9.07582L238.024 9.27867L238.002 9.5266L237.972 9.60925L237.927 9.62427L237.844 9.57919L237.754 9.38385L237.686 9.1209L237.611 8.88048L237.551 8.47477L237.521 8.17425L237.506 7.83616V7.52061V7.25765V7.04728L237.318 7.24262L237.19 7.4004L237.063 7.54315L236.95 7.67838L236.717 7.88875L236.559 7.96388L236.304 7.88124L236.191 7.79108L236.101 7.60325L236.056 7.40791L236.048 7.27268L236.116 7.1149L236.304 6.88951L236.544 6.60401L236.604 6.46877L236.702 6.27343L236.777 6.15322L236.928 5.95788L237.003 5.82265L237.048 5.70995L237.07 5.5672L237.048 5.40943L236.943 5.26668L236.717 5.13896L236.559 5.05631L236.402 4.95113L236.266 4.85346L236.139 4.7633L235.966 4.65061L235.913 4.56796L235.883 4.49283L235.868 4.45527L235.883 4.39516L235.913 4.32003L236.154 4.14723L236.394 4.01951L236.597 3.86173L236.837 3.64385L236.973 3.53116L237.1 3.44851L237.228 3.35836L237.288 3.31328L237.386 3.26069L237.483 3.1555L237.544 3.02778L237.559 2.94514L237.544 2.83995V2.72726L237.529 2.55446L237.514 2.42673L237.499 2.20885L237.468 2.04357L237.453 1.88579L237.438 1.81066L237.423 1.72802L237.408 1.66791L237.393 1.60781L237.378 1.54019L237.363 1.49511L237.356 1.38241L237.326 1.03681L237.311 0.96168V0.909089L237.326 0.86401L237.348 0.833958L237.378 0.803906L237.408 0.796392L237.483 0.788879H237.551L237.807 0.848984L237.994 0.924115L238.039 0.946654L238.137 0.991733L238.453 1.20961L238.513 1.2622L238.625 1.35236L238.701 1.52516V1.65288L238.633 1.82569L238.513 2.006L238.46 2.0661L238.415 2.11118L238.385 2.15626L238.332 2.22388L238.287 2.28398L238.257 2.31404L238.197 2.42673L238.16 2.48684L238.1 2.64461V2.71223V2.77234L238.13 2.82493L238.175 2.85498L238.227 2.87001L238.317 2.85498L238.332 2.83995L238.49 2.74228L238.573 2.6972H238.648H238.701L238.761 2.72726L238.806 2.79487L238.843 2.87001L238.903 2.95265L238.979 3.08037L239.031 3.18555L239.076 3.2682L239.106 3.35836L239.136 3.441Z" fill="white"/>
<path d="M256.875 9.08332L256.792 9.05327L256.664 9.00819L256.431 8.96311L256.101 8.91804L255.583 8.88798L254.606 8.85042L253.734 8.82037L253.344 8.77529L253.028 8.73021L252.758 8.68513L252.517 8.64005L252.314 8.62503L252.359 8.36958L252.374 8.18175L252.389 7.89626L252.45 7.66335V7.39288L252.547 7.36283L252.75 7.33277L252.938 7.2877L253.178 7.24262L253.464 7.21257L253.809 7.16749L254.253 7.13743L254.538 7.10738L254.681 7.0623L254.741 6.94961V6.83691L254.711 6.72421L254.628 6.62654L254.501 6.55141L254.358 6.49131L254.215 6.4312L254.057 6.3711L253.885 6.32602L253.697 6.22835L253.584 6.14571L253.471 6.0856L253.441 6.04052L253.516 5.98042L253.614 5.95037L253.742 5.89026L253.824 5.81513L253.9 5.75503L253.93 5.65736L253.945 5.54466L253.93 5.46202L253.854 5.38688L253.779 5.30424L253.704 5.22911L253.629 5.18403L253.501 5.15398H253.359H253.201L253.013 5.21408L252.93 5.25916L252.803 5.28921L252.675 5.33429H252.562L252.547 5.23662L252.592 5.20657L252.705 5.16149L252.788 5.13144L252.915 5.0488L253.088 4.95113L253.246 4.85346L253.419 4.77832L253.531 4.71822L253.607 4.65811L253.667 4.56044V4.46277V4.38013L253.622 4.29749L253.561 4.26743V4.16976L253.622 4.04204L253.682 3.86924L253.779 3.65136L253.839 3.49359L253.9 3.35084L253.96 3.33581L254.163 3.30576L254.365 3.29073L254.568 3.30576H254.711L254.854 3.27571L254.966 3.2156L255.064 3.1555L255.162 3.02777L255.147 2.85497L255.102 2.7573L255.027 2.65963L254.951 2.59953L254.869 2.55445L254.771 2.50937L254.628 2.49435H254.471L254.425 2.47932V2.33657L254.395 2.20885L254.335 2.08113L254.238 1.93838L254.14 1.84071L253.982 1.69796L253.87 1.60029L253.712 1.52516L253.599 1.48008L253.441 1.435H253.238L253.066 1.41997L252.893 1.45003L252.75 1.48008V1.435V1.2622L252.765 1.00675L252.81 0.864005L252.795 0.736283L252.765 0.60856L252.69 0.480838L252.592 0.353115L252.517 0.270471L252.435 0.187827L252.307 0.105183L252.179 0.0300523L252.021 0.0150262L251.833 0L251.661 0.0450785L251.488 0.120209L251.36 0.165288L251.278 0.247932L251.293 0.330576L251.338 0.41322L251.42 0.495864L251.518 0.578508L251.646 0.653639L251.773 0.751309L251.833 0.811414L251.879 0.984215L251.894 1.08188V1.29976V1.50262L251.879 1.78812L251.833 1.84822L251.661 1.92335L251.503 1.98346L251.33 2.02853L251.112 2.10366L250.909 2.1788L250.669 2.2389L250.451 2.32906L250.406 2.42673L250.421 2.50937L250.451 2.60704L250.534 2.65212L250.789 2.6972L250.947 2.72725H251.165L251.42 2.71222L251.593 2.68217L251.796 2.65212H251.871L251.886 2.76482V2.93762V3.03529L251.856 3.11793L251.683 3.17804L251.555 3.23814L251.338 3.29825L251.12 3.35835L250.887 3.43348L250.714 3.46353L250.586 3.50861L250.413 3.55369L250.226 3.59877L250.023 3.65887L249.82 3.70395L249.677 3.74903L249.595 3.82416L249.58 3.90681V4.00448L249.595 4.10215L249.64 4.18479L249.722 4.25992L249.85 4.33505L250.038 4.38013L250.196 4.41018L250.413 4.39516L250.571 4.35008L250.744 4.28997L250.887 4.22987L251.09 4.16976L251.262 4.09463L251.42 4.03453L251.533 3.98945L251.691 3.92935L251.879 3.88427V3.99696L251.864 4.22987L251.848 4.38764L251.751 4.44775L251.593 4.52288L251.42 4.58298L251.262 4.65811L251.06 4.70319L250.932 4.7633L250.789 4.8234H250.601H250.398L250.444 4.95113L250.489 5.03377L250.534 5.14647L250.609 5.27419L250.669 5.37186L250.752 5.4545L250.894 5.52963H251.022H251.278L251.518 5.48455L251.706 5.43948L251.848 5.40942L251.864 5.53715L251.781 5.5672L251.683 5.61228L251.571 5.67238L251.443 5.71746L251.3 5.77757L251.142 5.8527L251.015 5.89777L250.857 5.94285L250.729 5.98793L250.616 5.97291L250.444 5.95788V6.07058L250.474 6.18327L250.534 6.28094L250.564 6.36359L250.639 6.43872L250.737 6.56644L250.834 6.64157L250.932 6.7167L251.12 6.73173L251.293 6.70167L251.495 6.6566L251.683 6.62654L251.856 6.58147V6.70919L251.781 6.73924L251.706 6.78432L251.593 6.85945L251.495 6.8895L251.368 6.93458L251.24 6.97966L251.022 7.02474L250.834 7.05479L250.594 7.09987L250.338 7.14495L250.181 7.15997V7.19003L250.211 7.33277L250.241 7.41542L250.271 7.49806L250.316 7.58071L250.361 7.66335L250.421 7.72345L250.481 7.79859L250.526 7.84366L250.601 7.88874L250.699 7.93382H250.842L250.954 7.87372L251.03 7.84366L251.142 7.79859L251.27 7.76853L251.383 7.70843L251.51 7.67838L251.668 7.6333L251.796 7.57319L251.894 7.54314V7.61827V7.85118L251.909 8.18175L251.939 8.38461V8.54238L251.751 8.51233L251.608 8.48228L251.405 8.4372L251.232 8.39212L251.075 8.34704L250.932 8.30196L250.759 8.27191L250.616 8.22683L250.316 8.14419L250.045 8.07657L249.775 7.99393L249.444 7.92631L249.332 7.89626L249.362 7.72345L249.422 7.58071L249.452 7.37785L249.497 7.13743L249.527 6.85194L249.542 6.66411V6.53639L249.557 6.37861L249.542 6.29597L249.527 6.16825L249.444 5.98042L249.369 5.88275L249.256 5.75503L249.144 5.65736L249.016 5.55969L248.903 5.48455L248.776 5.42445L248.648 5.36435L248.505 5.30424L248.347 5.25916L248.272 5.22911L248.287 5.14647L248.37 5.00372L248.445 4.86097L248.52 4.73325L248.633 4.54542L248.716 4.35759L248.828 4.18479L248.911 3.99696L249.084 3.83919L249.211 3.71147L249.324 3.58374L249.407 3.48607L249.437 3.37338V3.26068L249.392 3.14798L249.332 3.00524L249.272 2.87751L249.196 2.77984L249.121 2.68217L249.039 2.5845L248.963 2.50937L248.881 2.44927L248.783 2.38916L248.685 2.34408L248.573 2.28398L248.49 2.26895L248.46 2.31403L248.4 2.38916L248.325 2.48683L248.227 2.56948L248.167 2.65212L248.039 2.73476L247.912 2.84746L247.769 2.94513L247.641 3.0428L247.438 3.20058L247.296 3.27571L247.198 3.35835H247.138L247.123 3.31327V3.23814L247.078 3.19306L247.018 3.17804L246.942 3.19306L246.882 3.27571L246.852 3.3884V3.46353L246.912 3.57623L246.973 3.70395L247.055 3.8467L247.153 3.98945L247.281 4.11717L247.408 4.17728L247.536 4.23738L247.739 4.28246L247.814 4.31251L247.784 4.42521L247.709 4.52288L247.641 4.69568L247.559 4.83843L247.498 5.04128L247.438 5.22911L247.423 5.48455V5.71746L247.453 5.89026L247.483 5.98793L247.559 6.16073L247.604 6.2584L247.664 6.33353L247.724 6.40866L247.837 6.37861L247.979 6.36359L248.054 6.33353L248.227 6.30348L248.355 6.28846H248.498L248.513 6.44623L248.528 6.50633L248.543 6.88199V7.16749V7.37034V7.74599H248.46L248.287 7.73097L248.114 7.68589H247.882L247.724 7.70092L247.566 7.74599L247.378 7.76102L247.205 7.79107L247.063 7.82113H246.965L246.89 7.75351L246.815 7.67086L246.732 7.57319L246.649 7.55817L246.574 7.61827L246.499 7.70092L246.454 7.78356V7.89626L246.514 8.02398L246.544 8.1517L246.574 8.24937L246.619 8.33202L246.695 8.51984L246.74 8.63254H246.852L247.025 8.58746L247.168 8.54238L247.356 8.48228L247.513 8.40715L247.701 8.36207H247.972L248.19 8.37709L248.317 8.40715V8.48979L248.205 8.67762L248.107 8.80534L247.979 8.94809L247.867 9.06079L247.739 9.18851L247.566 9.33126L247.363 9.474L247.19 9.60173L247.033 9.6994L246.89 9.78204L246.732 9.85717L246.559 9.93982L246.634 10.0225L246.747 10.0826L247.093 10.1652H247.363L247.566 10.1352L247.769 10.0751L247.987 9.98489L248.175 9.88722L248.317 9.80458L248.49 9.63178L248.618 9.48903L248.731 9.33126L248.813 9.18851L248.873 9.04576L248.948 8.88798L249.031 8.68513L249.099 8.51233H249.272L249.399 8.54238L249.557 8.60249L249.797 8.6701L250.038 8.75275L250.226 8.85042L250.459 8.93306L250.759 9.01571L251 9.11338L251.255 9.19602L251.54 9.29369L251.916 9.40639L252.157 9.48903L252.329 9.55665L252.562 9.66934L252.878 9.82712L253.066 9.90976L253.306 10.0225L253.509 10.0901L253.764 10.1727L254.155 10.2554L254.425 10.2704L254.658 10.2253L254.831 10.1953L255.019 10.1502L255.222 10.0751L255.41 10.0149L255.583 9.9323L255.725 9.8722L255.913 9.7595L256.086 9.64681L256.259 9.56416L256.356 9.51908L256.499 9.474L256.657 9.39887L256.785 9.31623L256.86 9.23359L256.92 9.13592L256.95 9.07581L256.92 9.00068L256.875 9.08332ZM252.66 2.40419L252.758 2.35911L252.945 2.31403H253.088L253.201 2.34408L253.246 2.42673L253.276 2.56948L253.246 2.7573L253.133 2.81741L252.915 2.86249L252.773 2.90757L252.675 2.92259H252.645L252.66 2.40419ZM252.615 3.68141L252.773 3.63633L252.855 3.60628H252.93L252.99 3.59126H253.021L252.99 3.70395L252.945 3.8467L252.93 3.89178L252.9 3.97442L252.87 4.03453L252.788 4.1322L252.705 4.17728L252.592 4.20733L252.622 3.6739L252.615 3.68141ZM252.622 6.47628L252.765 6.39364L252.893 6.34856L252.968 6.28846L253.081 6.22835L253.156 6.18327L253.231 6.13819L253.276 6.10814L253.336 6.16825L253.366 6.25089L253.411 6.31099L253.441 6.3711L253.486 6.4312L253.501 6.49131L253.486 6.52136H253.374H253.276L253.043 6.56644L252.773 6.61152L252.69 6.62654L252.592 6.64157L252.532 6.62654V6.58147V6.55141L252.645 6.47628H252.622Z" fill="white"/>
<path d="M268.362 9.66937L268.25 9.59424L268.122 9.51159L267.949 9.3989L267.664 9.25615L267.476 9.1735L267.258 9.09086L267.017 9.00822L266.86 8.93309L266.672 8.87298L266.454 8.79034L266.266 8.72272L265.981 8.62505L265.763 8.51235L265.53 8.38463L265.342 8.28696L265.169 8.18929V8.10665L265.237 7.9639L265.267 7.83617L265.35 7.59576L265.395 7.42295L265.44 7.2201L265.522 6.94963L265.598 6.80688L265.658 6.61905L265.8 6.37864L265.898 6.26594L265.928 6.15324L265.883 5.99547L265.808 5.86775L265.695 5.67992L265.522 5.47706L265.62 5.39442L265.763 5.2667L265.936 5.12395L266.048 5.02628L266.176 4.92861L266.334 4.77083L266.507 4.58301L266.619 4.47031L266.732 4.31254L266.717 4.21487L266.672 4.10217L266.597 3.97445L266.514 3.87678L266.401 3.76408L266.244 3.62133L266.056 3.55371L265.823 3.53869L265.635 3.50864L265.507 3.47858L265.492 3.36589L265.552 3.23816L265.613 3.09542L265.658 2.95267L265.725 2.65214L265.755 2.49437L265.8 2.33659V2.16379L265.77 1.94591L265.695 1.66042L265.65 1.51767L265.567 1.32984L265.522 1.21714L265.447 1.10445L265.387 1.05937L265.244 1.04434L265.072 1.08942L264.914 1.14953L264.786 1.1946L264.613 1.29227L264.471 1.37492L264.395 1.43502L264.32 1.51015L264.245 1.63788L264.132 1.81068L264.02 1.96845L263.922 2.17131L263.847 2.32908L263.764 2.48686L263.734 2.59955L263.794 2.58453L263.907 2.50188L264.02 2.41924L264.178 2.29151L264.32 2.19384L264.478 2.08115L264.621 1.96845L264.749 1.88581L264.831 1.80316L264.906 1.75809L264.936 1.77311L264.981 1.85576L265.027 1.98348V2.08115L264.981 2.19384L264.951 2.35162L264.921 2.49437L264.861 2.73479L264.831 2.90759L264.786 3.12547L264.703 3.28324L264.621 3.45604L264.523 3.58377V3.69646L264.553 3.82419L264.628 4.01201L264.718 4.21487L264.801 4.35761L264.899 4.50036L264.959 4.61306L265.057 4.64311L265.169 4.58301L265.357 4.53793L265.5 4.50788L265.628 4.4628L265.703 4.47782L265.628 4.56047L265.5 4.71824L265.372 4.80089L265.132 5.00374L264.989 5.13146L264.786 5.28924L264.613 5.38691L264.486 5.48458L264.313 5.62733L264.185 5.70246L264.057 5.77759L263.9 5.83769L263.742 5.88277L263.539 5.92785L263.426 5.9579L263.411 5.87526L263.471 5.77759L263.501 5.60479L263.546 5.16151L263.576 4.81591L263.622 4.65814L263.667 4.53042L263.712 4.27497L263.779 4.07212L263.839 3.94439L263.915 3.81667L263.96 3.6589L263.99 3.50112L264.005 3.35837V3.18557L263.96 3.04282L263.9 2.94515L263.787 2.87002L263.674 2.79489L263.546 2.71225L263.449 2.63712L263.306 2.55447L263.178 2.47183L263.021 2.42675L263.036 2.47183V2.58453V2.71225L263.081 2.87002L263.111 3.04282V3.21563V3.4861L263.096 3.84672L263.081 4.04958V4.28248L263.021 4.51539L262.99 4.64311L262.96 4.78586L262.915 4.91358L262.818 5.02628L262.743 5.16903V5.29675V5.42447L262.788 5.5522L262.848 5.69494L262.923 5.85272L262.998 5.93536L263.081 6.07811L263.036 6.09314L262.908 6.12319L262.825 6.16827L262.75 6.2434V6.3035L262.825 6.38615L262.908 6.48382L262.99 6.56646L263.088 6.62657L263.216 6.7017L263.389 6.7618L263.592 6.77683L263.764 6.71672L263.952 6.67165L264.185 6.61154L264.418 6.52138L264.621 6.47631L264.764 6.44625L264.794 6.52138L264.779 6.70921L264.734 6.85196L264.673 7.06984L264.606 7.24264L264.561 7.38539L264.486 7.51311L264.44 7.62581L264.358 7.65586L264.26 7.58073L264.147 7.5056L264.05 7.43047L263.937 7.34782L263.824 7.25015L263.727 7.16751L263.614 7.08487H263.576L263.389 7.05481L263.186 7.03979L263.028 7.02476L262.885 7.00974L262.758 6.99471L262.615 7.00974L262.487 7.03979L262.359 7.08487L262.247 7.12994L262.164 7.17502L262.066 7.25767L261.954 7.35534L261.909 7.28021L261.833 7.20507L261.676 7.12243L261.533 7.06233L261.39 7.03227L261.202 7.01725L260.962 7.0473L260.676 7.12243L260.504 7.18254L260.316 7.25767L260.06 7.37036L259.842 7.48306L259.685 7.61078L259.542 7.70845L259.467 7.78358L259.437 7.79861L259.339 7.72348L259.241 7.64083L259.099 7.5657L258.941 7.58073L258.956 7.64083L258.986 7.81363L259.031 7.95638L259.076 8.17426L259.091 8.33204L259.136 8.50484L259.181 8.67764L259.226 8.86547L259.241 9.02324L259.302 9.15097L259.332 9.29371L259.377 9.43646L259.474 9.60926L259.519 9.70693L259.602 9.81963L259.685 9.90227L259.782 9.9774L259.94 10.0525L259.97 9.93984L259.985 9.82714L260 9.71445H260.113L260.383 9.68439L260.601 9.65434L260.744 9.62429L260.932 9.59424L261.09 9.54916L261.308 9.47403L261.465 9.41392L261.593 9.33879L261.668 9.32377L261.743 9.35382L261.818 9.3989L261.894 9.459L262.021 9.54165L262.119 9.58672L262.247 9.66185L262.419 9.70693L262.72 9.75201L262.99 9.78206L263.321 9.75201L263.539 9.70693L263.757 9.6318L263.915 9.54916L264.087 9.45149L264.26 9.35382L264.463 9.19604L264.546 9.1134L264.673 8.98568L264.771 8.87298L264.869 8.91806L264.929 8.97816L265.027 9.0533L265.184 9.16599L265.214 9.24112L265.327 9.32377L265.455 9.42144L265.658 9.60926L265.74 9.68439L265.868 9.79709L265.966 9.90979L266.093 10.0075L266.206 10.0676L266.409 10.1126L266.612 10.1427L266.83 10.1727H267.07L267.213 10.1427H267.446L267.731 10.1277L267.874 10.1727L268.032 10.1878L268.159 10.1577L268.242 10.0826L268.325 9.98492L268.4 9.85719V9.77455L268.362 9.66937ZM260.992 8.06908L260.909 8.28696L260.812 8.5424L260.729 8.74526L260.654 8.85795L260.436 8.94811L260.203 9.02324L260.075 9.06832L260 8.99319V8.83542L259.94 8.69267L259.91 8.54992L259.865 8.37712L259.835 8.27945L259.82 8.1968L259.933 8.05405L260.12 7.92633L260.293 7.81363L260.406 7.75353L260.504 7.69343L260.586 7.63332L260.661 7.57322L260.789 7.54316L260.932 7.52814L261.015 7.54316L261.03 7.65586L261.045 7.84369L260.977 8.07659L260.992 8.06908ZM263.99 8.34706L263.817 8.50484L263.629 8.67764L263.411 8.85044L263.156 9.00822L262.923 9.09837L262.667 9.14345L262.397 9.1735L262.036 9.15848L261.939 9.1134L261.721 9.06832L261.593 8.98568L261.548 8.90303L261.518 8.82039L261.616 8.70769L261.728 8.53489L261.841 8.36209L261.954 8.21934L262.036 8.04654V7.88877L262.051 7.73099L262.036 7.55819V7.44549L262.269 7.43047L262.63 7.46052L262.788 7.47555L262.93 7.52062L263.058 7.53565L263.291 7.60327L263.404 7.64835L263.479 7.73099L263.667 7.81363L263.794 7.9113L263.922 8.03903L264.05 8.18178L263.982 8.35458L263.99 8.34706Z" fill="white"/>
<path d="M261.495 2.1713L261.54 2.4042L261.525 2.54695L261.368 2.65965L261.067 2.73478L260.812 2.83245L260.421 2.93012L260.083 3.05033L259.61 3.13297L259.82 2.84747L260.038 2.5169L260.135 2.31404L260.105 2.2314L259.993 2.07363L259.873 1.90082L259.82 1.85575L259.692 1.67543L259.617 1.51766L259.602 1.37491L259.963 1.38242L260.248 1.44253L260.549 1.51014L260.849 1.61533L261.165 1.74305L261.368 1.87077L261.443 1.98347L261.495 2.1713Z" fill="white"/>
<path d="M259.97 6.99469L259.955 6.96463L259.782 6.97966L259.587 7.00971H259.459L259.302 6.94961L259.226 6.83691L259.166 6.73924L259.084 6.58147L259.039 6.42369V6.34856H259.181L259.324 6.31851L259.512 6.2584L259.64 6.23586L259.752 6.19079L259.827 6.11566L259.925 6.04804L260.045 5.94285L260.158 5.84518L260.226 5.77005L260.331 5.68741L260.511 5.74L260.428 5.83016L260.714 5.74L260.947 5.64233L261.142 5.5672L261.315 5.58223L261.503 5.64233L261.631 5.77005L261.721 5.89778L261.691 6.07058L261.623 6.21333L261.36 6.3711L260.992 6.55893L260.691 6.70168L260.391 6.8895L260.158 7.01723L259.933 7.13744L259.715 7.20505L259.873 7.09236L259.97 6.99469Z" fill="white"/>
<path d="M259.624 4.92862L259.842 4.85348L260.038 4.74079L260.24 4.66566L260.443 4.59804L260.669 4.49286L260.826 4.44026L261.014 4.35011L261.187 4.29752H261.27L261.427 4.32006L261.555 4.41021L261.66 4.49286L261.758 4.63561L261.743 4.77835L261.675 4.9211L261.518 5.04131L261.33 5.18406L261.089 5.35686L260.841 5.51464L260.684 5.64236L260.511 5.74003L260.331 5.68744L260.413 5.62733L260.458 5.58977L260.488 5.51464L260.443 5.48458L260.255 5.51464L260.038 5.57474L259.925 5.60479L259.842 5.57474L259.669 5.48458L259.594 5.37189L259.527 5.27422L259.467 5.14649L259.406 5.01126L259.376 4.92862L259.369 4.88354H259.482L259.624 4.92862Z" fill="white"/>
<path d="M258.047 4.32756L257.829 4.15476L257.731 4.01201L258.242 3.98196L258.678 3.82418L259.061 3.68143L259.534 3.50863L260.023 3.29075L260.451 3.17806L260.782 3.06536L261.157 2.93013L261.525 2.83246L261.856 2.75732L262.156 2.77235L262.329 2.87002L262.427 3.01277L262.517 3.148L262.502 3.31329L262.262 3.47858L261.818 3.67392L261.368 3.8317L260.887 4.03455L260.481 4.19232L260.023 4.35761L259.594 4.51539L259.196 4.65814L258.963 4.71073L258.745 4.72575L258.49 4.67316L258.272 4.54544L258.047 4.32756Z" fill="white"/>
<path d="M228.378 5.53715L228.302 5.14647L228.107 4.83092L227.837 4.63558L227.401 4.57547L227.085 4.69568L226.74 4.83092L226.8 4.72573L227.01 4.3651L227.221 4.03453L227.446 3.70395L227.686 3.3884L227.972 3.14798L228.272 2.84746L228.378 2.65212L228.348 2.53191L228.107 2.18631L227.867 1.91584L227.521 1.75055L227.266 1.84071L227.221 1.88578L226.89 2.09615L226.695 2.15626L226.319 2.30652L225.973 2.47181L225.658 2.44175L225.297 2.3516V2.47181L225.478 2.65212L225.733 2.95264L225.988 3.29825L226.064 3.35835L226.394 3.58374L226.364 3.74903L226.244 4.04955L226.033 4.45526L225.718 4.9361L225.643 5.08636L225.447 5.46202L225.087 6.15322L225.012 6.27343L224.801 6.604L224.576 6.94961L224.351 7.28018L224.11 7.61076L223.915 7.50558L224.02 7.91128L224.215 8.24186L224.321 8.21181L224.516 8.07657L224.771 7.8061L225.072 7.41542L225.432 6.8895L225.447 6.94961L225.628 7.53563L225.748 7.91128L225.823 8.07657L226.169 8.21181L226.454 8.03149V7.746L226.499 7.73097L226.92 7.61076L227.175 7.53563L227.566 7.4605H227.671L227.882 7.2351L227.822 6.8895V6.84442L227.837 6.76929L228.002 6.42369L228.182 6.06306L228.393 5.68741L228.378 5.53715ZM227.123 5.96539L226.988 6.34105L226.852 6.73173L226.672 6.80686L226.326 6.95712L226.281 6.80686L226.176 6.4312L226.026 6.0255L226.206 5.74H226.236L226.612 5.67989L227.033 5.60476L227.213 5.74L227.123 5.96539Z" fill="white"/>
<path d="M233.359 9.25611L233.178 8.91051L232.983 8.77528L232.818 8.60999L232.517 8.39962L232.247 8.24936L232.292 8.21931L232.397 8.11412L232.502 7.93381L232.592 7.72344L232.667 7.45297L232.743 7.13742L232.803 6.7768L232.848 6.35606L232.893 5.89025L232.923 5.37936L232.938 4.82339L232.953 4.20732L232.968 3.54617L232.938 3.41093L232.818 3.0503L232.592 2.76481L232.262 2.52439L232.141 2.53941L231.721 2.59952L231.33 2.65962L230.969 2.73475L231.135 2.47931L231.195 2.43423L231.54 2.25392L231.886 2.0736L232.247 1.87826L232.607 1.68292L232.968 1.48758L233.058 1.11193L233.028 1.06685L232.758 0.826428L232.352 0.691193L232.096 0.736271L231.766 0.811402L231.405 0.901559L231.03 0.991716L230.624 1.0969L230.218 1.21711L229.782 1.35234L229.317 1.48758L229.091 1.42748L228.971 1.48758V1.51763L229.136 1.92334L229.377 2.20884L229.662 2.3591L229.948 2.32905L230.353 2.26894L230.293 2.37412L230.083 2.71973L229.903 3.08035L229.572 3.21559L229.467 3.54617L229.377 3.90679L229.302 4.28245L229.226 4.67313L229.166 5.06381L229.121 5.46952L229.091 5.89025L229.061 6.32601L229.046 6.76177L229.166 7.07732L229.347 7.42292L228.986 7.55816L228.595 7.66334L228.295 7.57318L228.175 7.82863L228.205 7.87371L228.475 8.12915L228.836 8.30947H228.881L229.226 8.26439L229.617 8.18926L230.038 8.03899L229.948 8.26439L229.632 8.68512L229.377 9.03072L229.091 9.33125L228.806 9.57166L228.49 9.767L228.821 9.88721L229.001 9.87219L229.392 9.767L229.707 9.57166L229.797 9.49653L230.158 9.12088L230.444 8.80533L230.654 8.53486L230.804 8.30947L230.954 8.0991L231.195 7.73847L231.36 7.468L231.405 7.54313L231.646 7.88873L231.886 8.17423L231.736 8.12915H231.676L231.33 8.24936L231.18 8.21931L231.39 8.47475L231.631 8.82035L231.676 8.86543L231.916 9.21104L232.096 9.4214L232.427 9.72193L232.712 10.0224L232.908 10.1877H232.923L233.298 10.0525L233.434 9.66182L233.359 9.25611ZM232.111 3.53114L232.081 3.92182L232.051 4.3125L232.021 4.70318L232.006 5.09386L231.991 5.49957L231.976 5.9203L231.961 6.32601V6.74674V7.1825L231.766 7.15245L231.375 7.09234L231.36 7.06229L231.075 6.80685L230.714 6.71669L230.669 6.76177L230.413 6.95711L230.053 7.13742L229.572 7.30271L229.587 7.1224V7.02473L229.602 6.73172L229.617 6.28093L229.647 6.31098L229.963 6.52135H230.023L230.413 6.47627L230.323 6.5514L229.963 6.79182L229.737 7.03224L230.053 6.88198L230.098 6.86695L230.444 6.65659L230.774 6.44622L231.12 6.23585L231.465 6.01046H231.495L231.555 5.72496L231.42 5.5747L231.06 5.39439L230.879 5.45449L230.534 5.58973L230.143 5.73999L229.707 5.90528H229.647V5.72496V5.63481V5.24412V4.82339L229.752 4.97365L230.053 5.16899L230.368 5.07884L230.308 5.13894L230.038 5.45449L230.023 5.46952L229.752 5.72496H229.767L230.143 5.54465L230.428 5.34931L230.759 5.10889L231.075 4.86847L231.405 4.61302L231.616 4.46276L231.706 4.19229L231.555 4.027L231.18 3.84669L230.924 3.9669L230.594 4.11716L230.203 4.3125L229.797 4.50784L229.662 4.46276V4.13219L229.993 3.93685L230.383 3.71145L230.774 3.51611L231.135 3.38088L231.495 3.26067L231.826 3.18554L232.141 3.15549L232.111 3.53114Z" fill="white"/>
<path fill-rule="evenodd" clip-rule="evenodd" d="M218.911 27.8961V31.5249L218.739 31.863H222.187L222.014 31.5249V21.6302L222.187 21.2921H211.203L211.368 21.6302V31.5249L211.203 31.863H214.651L214.479 31.5249V27.8961C214.479 26.7391 215.38 25.6647 216.71 25.6647C217.965 25.6647 218.911 26.694 218.911 27.8961Z" fill="white"/>
<path d="M226.485 22.6294H227.882L228.461 22.0209L229.197 22.5468C229.28 22.6219 229.325 22.6971 229.325 22.7572C229.325 22.8699 229.265 22.9224 229.159 22.9224H228.385V31.4122C228.385 31.5174 228.34 31.5925 228.258 31.6451C228.123 31.6752 227.987 31.6977 227.845 31.6977C227.657 31.6977 227.559 31.6451 227.559 31.54L227.604 29.857V29.008C227.108 29.2485 226.575 29.4814 225.996 29.6917L225.899 30.0524C225.876 30.15 225.839 30.1876 225.748 30.1876C225.658 30.1876 225.598 30.135 225.583 30.0073L225.215 29.0381C225.433 29.0156 225.658 28.9855 225.869 28.9404V22.945C225.681 22.9675 225.508 22.975 225.343 22.9976L225.132 22.5017C225.583 22.5844 226.034 22.6294 226.485 22.6294ZM227.597 24.6054V22.9224H226.612V24.6054H227.597ZM227.597 26.6489V24.8834H226.612V26.6489H227.597ZM227.597 28.6775V26.9344H226.612V28.8352C226.95 28.7902 227.274 28.7376 227.597 28.6775ZM230.79 22.5092C230.895 22.5543 230.955 22.6069 230.955 22.667C230.955 22.7722 230.797 22.8473 230.504 22.8774C230.241 23.2455 229.903 23.6662 229.497 24.1396C229.543 24.1846 229.595 24.2222 229.633 24.2447C229.82 24.41 229.926 24.5678 229.926 24.7181C229.926 25.0261 229.79 25.1689 229.512 25.1689C229.437 25.1689 229.377 25.1088 229.325 24.966C229.137 24.5904 228.881 24.2072 228.566 23.809L228.776 23.6963C228.956 23.8015 229.114 23.8991 229.242 23.9668C229.37 23.6512 229.46 23.4033 229.55 23.2004C229.685 22.8323 229.805 22.4792 229.888 22.1261L230.79 22.5017V22.5092ZM231.503 23.9217C231.601 23.9668 231.654 24.0043 231.654 24.0719C231.654 24.1771 231.518 24.2523 231.24 24.2748C230.88 24.7481 230.429 25.2816 229.888 25.8826C229.948 25.8826 230.016 25.8826 230.076 25.8751C230.422 25.8525 230.715 25.8225 230.955 25.8C230.895 25.6497 230.82 25.4919 230.745 25.3492L230.955 25.2215C231.21 25.4318 231.413 25.6422 231.586 25.83C231.736 26.0329 231.819 26.1982 231.819 26.3334C231.819 26.6414 231.691 26.7842 231.451 26.7842C231.323 26.7842 231.24 26.6865 231.195 26.4912C231.15 26.3634 231.12 26.2282 231.083 26.1005C230.872 26.1831 230.617 26.2808 230.324 26.386C229.881 26.5513 229.558 26.6565 229.347 26.7015L229.219 26.9945C229.174 27.0772 229.122 27.1072 229.062 27.1072C228.979 27.1072 228.926 27.0471 228.911 26.9044L228.648 25.9577C228.919 25.9502 229.204 25.9277 229.49 25.9051C229.723 25.5069 229.911 25.1914 230.046 24.951C230.286 24.4777 230.489 24.0194 230.654 23.5761L231.496 23.9217H231.503ZM229.663 27.3852C229.813 27.4078 229.881 27.4679 229.881 27.5505C229.881 27.6031 229.836 27.6482 229.775 27.6782L229.64 27.7534V29.1057H230.587C230.609 28.8954 230.632 28.6624 230.632 28.4145V28.2041C230.632 28.0013 230.602 27.5881 230.549 26.9344L231.481 27.0697C231.669 27.0922 231.774 27.1673 231.774 27.2725C231.774 27.3702 231.646 27.4604 231.406 27.558V28.422C231.406 28.8653 231.353 29.2485 231.271 29.6091C231.188 29.9322 231.068 30.2177 230.902 30.4506C230.722 30.706 230.489 30.9089 230.211 31.1042C229.918 31.3071 229.49 31.4949 228.941 31.6677L228.866 31.4122C229.227 31.2545 229.505 31.0892 229.693 30.9013C229.926 30.7135 230.114 30.4881 230.256 30.2402C230.369 30.0373 230.467 29.7819 230.527 29.4513C230.527 29.4288 230.534 29.4213 230.534 29.4062H229.633V29.8195C229.633 29.9246 229.573 30.0073 229.467 30.0749C229.355 30.1275 229.249 30.15 229.144 30.15C228.987 30.15 228.904 30.0899 228.904 29.9397L228.934 28.963V28.3018C228.934 27.7158 228.904 27.3777 228.859 27.28L229.655 27.3927L229.663 27.3852ZM233.908 22.5543C234.013 22.5994 234.073 22.652 234.073 22.7121C234.073 22.8173 233.915 22.8924 233.622 22.9224C233.352 23.2906 233.014 23.7188 232.593 24.2147C232.645 24.2598 232.698 24.2973 232.751 24.3274C232.938 24.4777 233.044 24.6204 233.044 24.7556C233.044 25.0637 232.908 25.2064 232.63 25.2064C232.555 25.2064 232.495 25.1463 232.428 25.0186C232.24 24.658 231.999 24.3049 231.684 23.9367L231.894 23.809C232.059 23.9067 232.21 23.9893 232.337 24.0494C232.473 23.7113 232.578 23.4484 232.66 23.238C232.788 22.8699 232.901 22.5167 232.999 22.1636L233.9 22.5393L233.908 22.5543ZM234.742 23.9217C234.847 23.9668 234.899 24.0043 234.899 24.0719C234.899 24.1771 234.764 24.2523 234.486 24.2748C234.125 24.6955 233.69 25.1764 233.164 25.7248C233.209 25.7248 233.239 25.7173 233.269 25.7173C233.63 25.6873 233.923 25.6572 234.171 25.6196C234.11 25.4919 234.058 25.3792 233.99 25.259L234.193 25.1313C234.464 25.3492 234.696 25.5595 234.884 25.7699C235.05 25.9728 235.14 26.138 235.14 26.2808C235.14 26.6189 235.005 26.7767 234.727 26.7767C234.591 26.7767 234.509 26.6715 234.464 26.4611C234.419 26.2733 234.358 26.093 234.283 25.9051C234.073 26.0028 233.817 26.108 233.524 26.2132C233.126 26.3785 232.818 26.4837 232.63 26.5287L232.503 26.8217C232.458 26.9044 232.405 26.9344 232.345 26.9344C232.262 26.9344 232.21 26.8743 232.195 26.7316L231.932 25.7849C232.202 25.7774 232.465 25.7549 232.728 25.7323C232.961 25.3717 233.149 25.0787 233.277 24.8608C233.532 24.4176 233.727 23.9893 233.893 23.5686L234.719 23.9142L234.742 23.9217ZM232.923 27.1673C233.089 27.1899 233.179 27.25 233.179 27.3477C233.179 27.4228 233.134 27.4754 233.051 27.5054L232.886 27.6031V29.1132H233.908V28.9104L233.915 28.4596C233.915 27.8285 233.885 27.4528 233.832 27.3477L234.674 27.4754C234.824 27.4979 234.907 27.558 234.907 27.6407C234.907 27.7008 234.862 27.7534 234.802 27.7909L234.651 27.8886V29.8195C234.651 29.9246 234.591 30.0073 234.486 30.0749C234.373 30.1275 234.268 30.15 234.171 30.15C233.983 30.15 233.885 30.0749 233.878 29.9096L233.9 29.4138H232.893V31.292C232.893 31.4198 232.818 31.5099 232.69 31.5775C232.563 31.6376 232.435 31.6752 232.322 31.6752C232.165 31.6752 232.082 31.5926 232.067 31.4197L232.112 30.3604V28.1891C232.112 27.528 232.082 27.1373 232.029 27.0321L232.931 27.1824L232.923 27.1673Z" fill="white"/>
<path d="M237.807 22.9224H238.791L239.37 22.3063L240.106 22.8398C240.189 22.8999 240.234 22.975 240.234 23.0426C240.234 23.1553 240.173 23.2079 240.068 23.2079H238.513C238.31 24.102 238.122 24.8157 237.935 25.3416C237.874 25.5445 237.799 25.7323 237.732 25.8976L237.972 26.0328H238.746L239.197 25.5821L239.805 26.0554C239.911 26.1305 239.971 26.1906 239.971 26.2432C239.971 26.3183 239.926 26.3709 239.865 26.401L239.602 26.5287V29.7293L239.648 30.6309C239.648 30.706 239.595 30.7661 239.512 30.8187C239.43 30.8788 239.325 30.9163 239.197 30.9163C238.941 30.9163 238.829 30.8412 238.829 30.7135V30.1801H237.965V30.8713C237.965 31.0215 237.89 31.1117 237.747 31.1793C237.642 31.2244 237.514 31.2394 237.386 31.2394C237.228 31.2394 237.146 31.1568 237.146 30.999C237.146 30.7886 237.153 30.443 237.191 29.9246V26.9945C237.168 27.0471 237.146 27.0922 237.131 27.1072C236.875 27.5505 236.627 27.9036 236.372 28.1966L236.244 27.9938C236.379 27.7608 236.53 27.4303 236.687 26.987C236.89 26.401 237.063 25.7549 237.213 25.0862C237.341 24.5227 237.469 23.8916 237.574 23.2079C237.266 23.2154 236.965 23.238 236.657 23.283L236.447 22.7872C236.898 22.8698 237.349 22.9149 237.799 22.9149L237.807 22.9224ZM238.836 29.8946V26.3259H237.972V29.8946H238.836ZM242.758 30.135C242.856 30.1951 242.908 30.2702 242.908 30.3454C242.908 30.443 242.743 30.4956 242.412 30.5031C241.909 30.7886 241.391 31.029 240.872 31.2244C240.549 31.3371 240.053 31.4873 239.377 31.6526L239.249 31.4423C239.858 31.1493 240.354 30.8863 240.729 30.6534C241.18 30.3378 241.601 29.9998 241.999 29.6316L242.758 30.1275V30.135ZM241.706 22.5843H244.584L245.192 21.8931L246.011 22.4791C246.094 22.5618 246.139 22.6369 246.139 22.7121C246.139 22.8248 246.086 22.8773 245.981 22.8773H243.494C243.261 23.3807 242.983 23.8766 242.653 24.3499H244.418L244.914 23.854L245.523 24.3574C245.628 24.4326 245.688 24.4927 245.688 24.5603C245.688 24.6354 245.643 24.688 245.583 24.7181L245.32 24.8458V28.5422L245.365 29.4438C245.365 29.5264 245.312 29.6016 245.23 29.6617C245.147 29.7368 245.042 29.7668 244.914 29.7668C244.644 29.7668 244.501 29.7067 244.501 29.5565V29.3161H241.548V29.4813C241.548 29.6091 241.488 29.6917 241.368 29.7368C241.24 29.8194 241.113 29.8495 240.97 29.8495C240.782 29.8495 240.684 29.7518 240.684 29.5565L240.729 28.5347V24.5978C240.729 24.2372 240.699 23.9968 240.647 23.8916L241.548 24.3424H242.307L242.593 22.8698H241.714C241.338 22.8698 240.947 22.8999 240.572 22.945L240.361 22.4641C240.812 22.5468 241.263 22.5768 241.714 22.5768L241.706 22.5843ZM244.501 25.8751V24.6429H241.548V25.8751H244.501ZM244.501 27.3852V26.1531H241.548V27.3852H244.501ZM244.501 29.0381V27.6857H241.548V29.0381H244.501ZM245.568 30.3829C245.996 30.6008 246.222 30.8487 246.222 31.1267C246.222 31.4047 246.064 31.5775 245.771 31.5775C245.688 31.5775 245.583 31.5024 245.455 31.3746C244.974 30.9088 244.328 30.4505 243.554 29.9697L243.682 29.7668C244.471 29.9472 245.102 30.1425 245.575 30.3754L245.568 30.3829Z" fill="white"/>
<path d="M248.566 25.0561V22.9224C248.566 22.8172 248.543 22.6144 248.521 22.3064L249.475 22.4416C249.655 22.4641 249.745 22.5242 249.745 22.6294C249.745 22.7421 249.61 22.8398 249.332 22.9224V25.0561H249.542L250.038 24.5227L250.699 24.996C250.774 25.0561 250.812 25.1238 250.812 25.1764C250.812 25.289 250.767 25.3416 250.684 25.3416H249.332V28.5122C249.437 28.4671 249.542 28.4295 249.648 28.3844C250.038 28.2267 250.369 28.0614 250.647 27.8811L250.692 28.1365C250.474 28.3544 250.226 28.5648 249.971 28.7676C249.678 29.0005 249.309 29.2409 248.859 29.4889C248.588 29.6391 248.333 29.7593 248.115 29.857L248.002 30.1425C247.95 30.2928 247.874 30.3529 247.792 30.3529C247.732 30.3454 247.679 30.2777 247.642 30.15L247.379 29.0681C247.687 29.0381 248.062 28.9554 248.506 28.8127C248.528 28.8127 248.551 28.8052 248.566 28.7901V25.3341C248.205 25.3416 247.874 25.3792 247.536 25.4168L247.333 24.9209C247.747 25.0036 248.152 25.0486 248.566 25.0486V25.0561ZM255.545 24.5603L256.079 23.9818L256.898 24.5077C257.003 24.5828 257.063 24.658 257.063 24.7181C257.063 24.8007 256.883 24.9209 256.53 25.0561C256.364 26.9494 256.259 28.0088 256.206 28.2417C256.124 28.4596 255.996 28.6098 255.831 28.6925C255.65 28.8202 255.41 28.8728 255.095 28.8728C255.064 28.4971 254.997 28.2868 254.892 28.2192L254.396 27.9637L254.441 27.7233L255.177 27.8811C255.26 27.8811 255.335 27.8585 255.395 27.8059C255.455 27.7609 255.5 27.6707 255.53 27.5204C255.575 27.3552 255.635 26.4686 255.741 24.8608L254.148 25.3717V28.9028C254.148 29.0306 254.073 29.1207 253.945 29.1883C253.817 29.2484 253.69 29.271 253.577 29.271C253.389 29.271 253.291 29.1733 253.284 28.9855L253.329 27.8736V25.6347L252.097 26.0328V29.9998C252.097 30.2176 252.247 30.3604 252.548 30.398C252.841 30.4581 253.442 30.4956 254.321 30.4956C255.2 30.4956 255.696 30.4656 255.951 30.3904C256.154 30.3454 256.289 30.2627 256.349 30.135L256.77 28.8503H256.98V29.9922C256.98 30.12 257.04 30.2251 257.168 30.3078C257.251 30.3904 257.303 30.5106 257.303 30.6534C257.303 30.7886 257.221 30.8938 257.07 30.9689C256.92 31.0666 256.672 31.1342 256.312 31.1868C255.861 31.2319 255.207 31.262 254.358 31.262C253.351 31.262 252.66 31.2169 252.277 31.1493C251.939 31.1042 251.676 30.999 251.511 30.8262C251.345 30.6459 251.27 30.413 251.27 30.12V26.2958L250.962 26.3935L250.361 26.679L250.151 26.1005L250.812 26.0704L251.263 25.9201V24.0118C251.263 23.5686 251.24 23.2981 251.218 23.1929L252.27 23.3206C252.42 23.3432 252.487 23.3958 252.487 23.4784C252.487 23.5535 252.435 23.6136 252.33 23.6587L252.074 23.809V25.6797L253.306 25.2891V23.2831C253.306 22.5768 253.276 22.1711 253.224 22.0434L254.17 22.1937C254.336 22.2237 254.426 22.2913 254.426 22.3815C254.426 22.4566 254.381 22.5167 254.298 22.5618L254.133 22.667V25.0336L255.56 24.5828L255.53 24.5603H255.545Z" fill="white"/>
<path d="M260.106 26.5663C260.106 27.8585 259.956 28.9103 259.663 29.7142C259.407 30.4505 259.046 31.0816 258.581 31.6151L258.423 31.4498C258.656 31.0065 258.851 30.4806 259.009 29.842C259.189 29.1057 259.279 28.0163 259.279 26.5663V26.0704C259.279 25.7548 259.257 25.4919 259.234 25.2965L260.031 25.7924H266.62L267.281 25.0561L268.122 25.6722C268.205 25.7548 268.257 25.83 268.257 25.9126C268.257 26.0178 268.182 26.0704 268.055 26.0704H260.091V26.5663H260.106ZM264.155 22.0584C264.343 22.0885 264.448 22.1561 264.448 22.2613C264.448 22.389 264.313 22.5017 264.035 22.5843V22.9975H266.334L266.943 22.3063L267.754 22.9074C267.837 22.9825 267.889 23.0576 267.889 23.1253C267.889 23.238 267.837 23.2905 267.732 23.2905H265.515L266.116 23.5986C266.229 23.6512 266.297 23.7263 266.297 23.8165C266.297 23.9216 266.131 23.9742 265.801 23.9817C265.568 24.132 265.327 24.2522 265.094 24.3724C265.327 24.4551 265.538 24.5377 265.703 24.6128C266.041 24.7631 266.206 24.9509 266.206 25.1688C266.206 25.4243 266.071 25.5445 265.793 25.5445C265.733 25.5445 265.575 25.4844 265.342 25.3341C265.034 25.1463 264.674 24.9434 264.253 24.7481C263.787 24.9359 263.299 25.0937 262.758 25.2214C262.262 25.3566 261.526 25.4919 260.542 25.6196L260.459 25.3792C261.045 25.2665 261.466 25.1688 261.721 25.1087C262.202 24.981 262.638 24.8458 263.013 24.6805C263.201 24.6053 263.381 24.5227 263.547 24.44C262.788 24.132 262.104 23.9066 261.488 23.7488L261.646 23.5836C262.57 23.7338 263.389 23.8916 264.103 24.0794C264.125 24.0869 264.155 24.102 264.178 24.102C264.261 24.0494 264.343 23.9968 264.433 23.9442C264.749 23.7338 265.019 23.5159 265.252 23.3056H260.549C260.158 23.3056 259.783 23.3356 259.407 23.3807L259.197 22.8999C259.647 22.9825 260.098 23.0126 260.549 23.0126H263.216V22.5618C263.216 22.4641 263.194 22.2688 263.171 21.9532L264.148 22.0809L264.155 22.0584ZM262.427 26.7165C262.54 26.7616 262.608 26.8292 262.608 26.9344C262.608 27.0321 262.472 27.0997 262.194 27.1448C262.059 27.4002 261.931 27.6106 261.826 27.7984H263.592V26.9344C263.592 26.8367 263.569 26.6414 263.547 26.3258L264.523 26.4536C264.711 26.4836 264.816 26.5512 264.816 26.6564C264.816 26.7841 264.681 26.8968 264.403 26.9795V27.7984H266.124L266.702 27.1448L267.476 27.7082C267.559 27.7834 267.604 27.8585 267.604 27.9186C267.604 28.0313 267.544 28.0839 267.439 28.0839H264.403V29.316H265.928L266.499 28.6549L267.273 29.2259C267.356 29.301 267.401 29.3761 267.401 29.4438C267.401 29.5489 267.348 29.6015 267.243 29.6015H264.411V31.0441H266.71L267.326 30.3529L268.137 30.9389C268.22 31.014 268.265 31.0891 268.265 31.1718C268.265 31.277 268.212 31.3296 268.107 31.3296H261.293C260.917 31.3296 260.527 31.3521 260.151 31.4122L259.94 30.9163C260.391 30.999 260.842 31.0441 261.293 31.0441H263.592V29.6015H262.608C262.232 29.6015 261.841 29.6316 261.466 29.6842L261.255 29.1883C261.706 29.271 262.157 29.316 262.608 29.316H263.592V28.0839H261.646C261.518 28.2717 261.406 28.4295 261.3 28.5798C261.082 28.8502 260.767 29.1808 260.346 29.5565L260.143 29.4438C260.481 28.9404 260.729 28.4746 260.91 28.0538C261.12 27.588 261.308 27.0321 261.496 26.4085L262.42 26.7165H262.427Z" fill="white"/>
<path d="M6.7723 29.1432H19.4542V32.4462H0L14.0701 14.804C15.4285 13.0833 16.1028 11.3033 16.1028 9.47378C16.1028 7.64429 15.5178 6.25981 14.3478 5.07312C13.1777 3.88643 11.7697 3.29308 10.1237 3.29308C8.33895 3.29308 6.9012 3.91609 5.80058 5.15223C4.69995 6.39826 4.11494 7.96074 4.06536 9.84957H0.713917C0.763495 7.03117 1.66581 4.67756 3.42085 2.80851C5.18581 0.939467 7.37714 0 10.0048 0C12.6324 0 14.8039 0.89991 16.6581 2.68984C18.5222 4.47977 19.4443 6.73449 19.4443 9.43422C19.4443 12.134 18.6907 14.2997 17.1737 16.1588L6.7723 29.1432Z" fill="white"/>
<path d="M28.2196 2.5415C29.8358 0.850464 31.8388 0 34.1987 0C36.5585 0 38.5516 0.850464 40.1777 2.5415C41.7939 4.23254 42.607 6.34882 42.607 8.89032C42.607 10.3045 42.2798 11.6494 41.6254 12.935C40.9709 14.2206 40.0786 15.1996 38.9383 15.872C40.3165 16.5445 41.4072 17.5829 42.1906 18.9574C42.9739 20.3419 43.3705 21.8649 43.3705 23.5262C43.3705 26.2655 42.4979 28.5202 40.7429 30.32C38.9878 32.1199 36.8064 33.0099 34.2086 33.0099C31.6107 33.0099 29.4194 32.11 27.6742 30.32C25.9291 28.5301 25.0466 26.2655 25.0466 23.5262C25.0466 21.8649 25.4433 20.3419 26.2266 18.9574C27.0099 17.573 28.0907 16.5445 29.4789 15.872C28.3386 15.1996 27.4363 14.2206 26.7918 12.935C26.1373 11.6494 25.8101 10.3045 25.8101 8.89032C25.8101 6.34882 26.6232 4.23254 28.2394 2.5415H28.2196ZM38.3235 19.2245C37.1931 18.0279 35.8149 17.4246 34.1987 17.4246C32.5824 17.4246 31.2042 18.0279 30.0738 19.2245C28.9434 20.421 28.3782 21.8648 28.3782 23.5559C28.3782 25.2469 28.9434 26.6907 30.0738 27.8873C31.2042 29.0839 32.5824 29.6871 34.1987 29.6871C35.8149 29.6871 37.1931 29.0839 38.3235 27.8873C39.4539 26.6907 40.0191 25.2469 40.0191 23.5559C40.0191 21.8648 39.4539 20.421 38.3235 19.2245ZM37.8872 4.905C36.8659 3.83698 35.6364 3.29308 34.1987 3.29308C32.7609 3.29308 31.5314 3.82709 30.5101 4.905C29.4888 5.97303 28.9732 7.27839 28.9732 8.80132C28.9732 10.3242 29.4888 11.6692 30.5101 12.757C31.5314 13.8448 32.7609 14.3887 34.1987 14.3887C35.6364 14.3887 36.8659 13.8448 37.8872 12.757C38.9085 11.6692 39.4241 10.3539 39.4241 8.80132C39.4241 7.24873 38.9085 5.98292 37.8872 4.905Z" fill="white"/>
<path d="M55.2492 33L52.7406 31.1804L59.6815 21.0737L59.6022 20.9847C58.7296 21.2715 57.857 21.4099 57.0142 21.4099C54.2775 21.4099 51.9771 20.3815 50.1031 18.3245C48.2291 16.2676 47.297 13.7854 47.297 10.878C47.297 7.97063 48.3084 5.29068 50.351 3.17441C52.3837 1.05814 54.8229 0 57.6686 0C60.5144 0 62.9536 1.05814 64.9863 3.17441C67.019 5.29068 68.0403 7.85196 68.0403 10.878C68.0403 13.2514 67.1082 15.8028 65.254 18.5322L55.2889 33H55.2492ZM62.6066 5.47857C61.2382 4.02487 59.5823 3.30297 57.6488 3.30297C55.7153 3.30297 54.0594 4.02487 52.691 5.47857C51.3227 6.93227 50.6385 8.68265 50.6385 10.7495C50.6385 12.8163 51.3128 14.5469 52.6712 15.9709C54.0296 17.395 55.6855 18.107 57.6587 18.107C59.6319 18.107 61.2481 17.395 62.6165 15.9709C63.9848 14.5469 64.669 12.8064 64.669 10.7495C64.669 8.69254 63.9848 6.93227 62.6165 5.47857H62.6066Z" fill="white"/>
<path d="M75.3381 2.5415C76.9544 0.850464 78.9573 0 81.3172 0C83.6771 0 85.6701 0.850464 87.2962 2.5415C88.9125 4.23254 89.7255 6.34882 89.7255 8.89032C89.7255 10.3045 89.3983 11.6494 88.7439 12.935C88.0895 14.2206 87.1971 15.1996 86.0568 15.872C87.4351 16.5445 88.5258 17.5829 89.3091 18.9574C90.0924 20.3419 90.489 21.8649 90.489 23.5262C90.489 26.2655 89.6165 28.5202 87.8614 30.32C86.1064 32.1199 83.925 33.0099 81.3271 33.0099C78.7292 33.0099 76.5379 32.11 74.7928 30.32C73.0476 28.5301 72.1652 26.2655 72.1652 23.5262C72.1652 21.8649 72.5618 20.3419 73.3451 18.9574C74.1284 17.573 75.2092 16.5445 76.5974 15.872C75.4571 15.1996 74.5548 14.2206 73.9103 12.935C73.2559 11.6494 72.9287 10.3045 72.9287 8.89032C72.9287 6.34882 73.7417 4.23254 75.358 2.5415H75.3381ZM85.442 19.2245C84.3117 18.0279 82.9334 17.4246 81.3172 17.4246C79.701 17.4246 78.3227 18.0279 77.1923 19.2245C76.062 20.421 75.4968 21.8648 75.4968 23.5559C75.4968 25.2469 76.062 26.6907 77.1923 27.8873C78.3227 29.0839 79.701 29.6871 81.3172 29.6871C82.9334 29.6871 84.3117 29.0839 85.442 27.8873C86.5724 26.6907 87.1376 25.2469 87.1376 23.5559C87.1376 21.8648 86.5724 20.421 85.442 19.2245ZM85.0058 4.905C83.9845 3.83698 82.7549 3.29308 81.3172 3.29308C79.8794 3.29308 78.6499 3.82709 77.6286 4.905C76.6073 5.97303 76.0917 7.27839 76.0917 8.80132C76.0917 10.3242 76.6073 11.6692 77.6286 12.757C78.6499 13.8448 79.8794 14.3887 81.3172 14.3887C82.7549 14.3887 83.9845 13.8448 85.0058 12.757C86.0271 11.6692 86.5427 10.3539 86.5427 8.80132C86.5427 7.24873 86.0271 5.98292 85.0058 4.905Z" fill="white"/>
<path d="M115.159 3.84688H110.171L111.926 0.543915H118.5V32.4363H115.149V3.84688H115.159Z" fill="white"/>
<path d="M133.74 2.5415C135.357 0.850464 137.36 0 139.719 0C142.079 0 144.072 0.850464 145.698 2.5415C147.315 4.23254 148.128 6.34882 148.128 8.89032C148.128 10.3045 147.801 11.6494 147.146 12.935C146.492 14.2206 145.599 15.1996 144.459 15.872C145.837 16.5445 146.928 17.5829 147.711 18.9574C148.495 20.3419 148.891 21.8649 148.891 23.5262C148.891 26.2655 148.019 28.5202 146.264 30.32C144.509 32.1199 142.327 33.0099 139.729 33.0099C137.131 33.0099 134.94 32.11 133.195 30.32C131.45 28.5301 130.567 26.2655 130.567 23.5262C130.567 21.8649 130.964 20.3419 131.747 18.9574C132.531 17.573 133.611 16.5445 135 15.872C133.859 15.1996 132.957 14.2206 132.313 12.935C131.658 11.6494 131.331 10.3045 131.331 8.89032C131.331 6.34882 132.144 4.23254 133.76 2.5415H133.74ZM143.844 19.2245C142.714 18.0279 141.336 17.4246 139.719 17.4246C138.103 17.4246 136.725 18.0279 135.595 19.2245C134.464 20.421 133.899 21.8648 133.899 23.5559C133.899 25.2469 134.464 26.6907 135.595 27.8873C136.725 29.0839 138.103 29.6871 139.719 29.6871C141.336 29.6871 142.714 29.0839 143.844 27.8873C144.975 26.6907 145.54 25.2469 145.54 23.5559C145.54 21.8648 144.975 20.421 143.844 19.2245ZM143.408 4.905C142.387 3.83698 141.157 3.29308 139.719 3.29308C138.282 3.29308 137.052 3.82709 136.031 4.905C135.01 5.97303 134.494 7.27839 134.494 8.80132C134.494 10.3242 135.01 11.6692 136.031 12.757C137.052 13.8448 138.282 14.3887 139.719 14.3887C141.157 14.3887 142.387 13.8448 143.408 12.757C144.429 11.6692 144.945 10.3539 144.945 8.80132C144.945 7.24873 144.429 5.98292 143.408 4.905Z" fill="white"/>
<path d="M157.3 2.5415C158.916 0.850464 160.919 0 163.279 0C165.639 0 167.632 0.850464 169.258 2.5415C170.874 4.23254 171.687 6.34882 171.687 8.89032C171.687 10.3045 171.36 11.6494 170.705 12.935C170.051 14.2206 169.159 15.1996 168.018 15.872C169.397 16.5445 170.487 17.5829 171.271 18.9574C172.054 20.3419 172.451 21.8649 172.451 23.5262C172.451 26.2655 171.578 28.5202 169.823 30.32C168.068 32.1199 165.887 33.0099 163.289 33.0099C160.691 33.0099 158.499 32.11 156.754 30.32C155.009 28.5301 154.127 26.2655 154.127 23.5262C154.127 21.8649 154.523 20.3419 155.307 18.9574C156.09 17.573 157.171 16.5445 158.559 15.872C157.419 15.1996 156.516 14.2206 155.872 12.935C155.217 11.6494 154.89 10.3045 154.89 8.89032C154.89 6.34882 155.703 4.23254 157.32 2.5415H157.3ZM167.404 19.2245C166.273 18.0279 164.895 17.4246 163.279 17.4246C161.662 17.4246 160.284 18.0279 159.154 19.2245C158.023 20.421 157.458 21.8648 157.458 23.5559C157.458 25.2469 158.023 26.6907 159.154 27.8873C160.284 29.0839 161.662 29.6871 163.279 29.6871C164.895 29.6871 166.273 29.0839 167.404 27.8873C168.534 26.6907 169.099 25.2469 169.099 23.5559C169.099 21.8648 168.534 20.421 167.404 19.2245ZM166.967 4.905C165.946 3.83698 164.716 3.29308 163.279 3.29308C161.841 3.29308 160.611 3.82709 159.59 4.905C158.569 5.97303 158.053 7.27839 158.053 8.80132C158.053 10.3242 158.569 11.6692 159.59 12.757C160.611 13.8448 161.841 14.3887 163.279 14.3887C164.716 14.3887 165.946 13.8448 166.967 12.757C167.989 11.6692 168.504 10.3539 168.504 8.80132C168.504 7.24873 167.989 5.98292 166.967 4.905Z" fill="white"/>
<path d="M180.859 2.5415C182.475 0.850464 184.478 0 186.838 0C189.198 0 191.191 0.850464 192.817 2.5415C194.433 4.23254 195.246 6.34882 195.246 8.89032C195.246 10.3045 194.919 11.6494 194.265 12.935C193.61 14.2206 192.718 15.1996 191.578 15.872C192.956 16.5445 194.047 17.5829 194.83 18.9574C195.613 20.3419 196.01 21.8649 196.01 23.5262C196.01 26.2655 195.137 28.5202 193.382 30.32C191.627 32.1199 189.446 33.0099 186.848 33.0099C184.25 33.0099 182.059 32.11 180.314 30.32C178.569 28.5301 177.686 26.2655 177.686 23.5262C177.686 21.8649 178.083 20.3419 178.866 18.9574C179.649 17.573 180.73 16.5445 182.118 15.872C180.978 15.1996 180.076 14.2206 179.431 12.935C178.777 11.6494 178.45 10.3045 178.45 8.89032C178.45 6.34882 179.263 4.23254 180.879 2.5415H180.859ZM190.963 19.2245C189.833 18.0279 188.454 17.4246 186.838 17.4246C185.222 17.4246 183.844 18.0279 182.713 19.2245C181.583 20.421 181.018 21.8648 181.018 23.5559C181.018 25.2469 181.583 26.6907 182.713 27.8873C183.844 29.0839 185.222 29.6871 186.838 29.6871C188.454 29.6871 189.833 29.0839 190.963 27.8873C192.093 26.6907 192.658 25.2469 192.658 23.5559C192.658 21.8648 192.093 20.421 190.963 19.2245ZM190.527 4.905C189.505 3.83698 188.276 3.29308 186.838 3.29308C185.4 3.29308 184.171 3.82709 183.149 4.905C182.128 5.97303 181.613 7.27839 181.613 8.80132C181.613 10.3242 182.128 11.6692 183.149 12.757C184.171 13.8448 185.4 14.3887 186.838 14.3887C188.276 14.3887 189.505 13.8448 190.527 12.757C191.548 11.6692 192.064 10.3539 192.064 8.80132C192.064 7.24873 191.548 5.98292 190.527 4.905Z" fill="white"/>
</svg>
