<svg width="20" height="231" viewBox="0 0 20 231" fill="none" xmlns="http://www.w3.org/2000/svg">
<path d="M5.31999 6.66C6.21999 6.66 6.37999 6.66 6.75999 6.6C6.71999 6.96 6.69999 7.12 6.65999 7.48C6.43999 10.26 6.01999 11.96 5.11999 13.88C5.81999 14.56 6.47999 15.02 7.25999 15.34C8.15999 15.72 9.03999 15.88 10.8 16C11.32 16.04 12.02 16.06 12.32 16.06C14.76 16.06 17.24 15.96 19.14 15.8C18.8 16.7 18.74 16.96 18.6 18.02C16.72 18.06 14.8 18.08 12.62 18.08C8.21999 18.08 6.15999 17.46 4.15999 15.56C3.27999 16.88 2.73999 17.52 1.59999 18.54C1.17999 17.82 0.839993 17.38 0.179993 16.7C1.41999 15.64 2.01999 15 2.75999 13.88C2.39999 13.36 2.13999 12.9 1.79999 12.22C1.75999 12.14 1.57999 11.82 1.33999 11.32C1.23999 11.14 1.09999 10.82 0.899993 10.44L2.67999 9.5C3.09999 10.74 3.29999 11.24 3.73999 12.02C4.19999 10.88 4.39999 10.12 4.61999 8.54H2.71999C2.15999 8.54 1.57999 8.56 1.09999 8.6C1.92666 7.25333 2.49999 6.27333 2.81999 5.66C3.55999 4.26 3.71999 3.88 4.07999 2.9H2.07999C1.53999 2.9 1.19999 2.92 0.719993 3V0.88C1.17999 0.96 1.55999 0.98 2.13999 0.98H4.25999C5.01999 0.98 5.35999 0.96 5.69999 0.9L6.65999 2.2C6.49999 2.42 6.47999 2.46 6.15999 3.22C5.75999 4.16 4.85999 5.9 4.39999 6.66H5.31999ZM11.12 2.94H8.77999C8.23999 2.94 7.77999 2.96 7.35999 3.02V1.24C7.85999 1.3 8.19999 1.32 8.89999 1.32H11.12C11.12 0.68 11.1 0.46 11.02 0H13.22C13.16 0.38 13.12 0.64 13.12 1.32H16.06C16.68 1.32 17.14 1.3 17.58 1.26C17.54 1.64 17.52 2.02 17.52 2.52V3.98C18.16 3.98 18.5 3.96 18.94 3.86V5.72C18.5 5.64 18.16 5.62 17.52 5.62V7.14C17.52 7.6 17.54 8.04 17.58 8.34C17.06 8.32 16.7 8.3 16.18 8.3H13.12V9.44H16.22C16.92 9.44 17.34 9.42 17.9 9.36V11.1C17.42 11.04 16.92 11.02 16.2 11.02H13.12V12.2H16.92C17.76 12.2 18.2 12.18 18.7 12.1V13.98C18.22 13.92 17.66 13.9 16.92 13.9H13.12C13.12 14.8 13.14 15.1 13.22 15.58H11.02C11.1 15.06 11.12 14.68 11.12 13.9H8.23999C7.39999 13.9 7.01999 13.92 6.51999 13.98V12.1C6.97999 12.18 7.51999 12.2 8.25999 12.2H11.12V11.02H8.73999C8.13999 11.02 7.63999 11.04 7.13999 11.12V9.36C7.65999 9.42 8.07999 9.44 8.73999 9.44H11.12V8.3H8.67999C8.13999 8.3 7.83999 8.32 7.39999 8.36V6.62C7.81999 6.68 8.11999 6.7 8.79999 6.7H11.12V5.62H8.03999C7.17999 5.62 6.81999 5.64 6.31999 5.7V3.88C6.81999 3.96 7.09999 3.98 8.11999 3.98H11.12V2.94ZM15.56 3.98V2.94H13.12V3.98H15.56ZM13.12 6.7H15.56V5.62H13.12V6.7Z" fill="white"/>
<path d="M14.46 29.02C15.1 29.02 15.6 29 16.04 28.94C15.98 29.46 15.96 29.96 15.96 30.78V32.82C15.96 33.14 16.02 33.18 16.42 33.18C16.82 33.18 16.9 33.14 16.98 32.98C17.04 32.8 17.12 32.02 17.12 31.32L17.1 31.1C17.1 30.9933 17.1067 30.8933 17.12 30.8C17.74 31.14 18.22 31.36 18.84 31.54C18.76 34.56 18.46 34.98 16.4 34.98C15.44 34.98 14.94 34.92 14.6 34.74C14.18 34.52 14.06 34.24 14.06 33.54V30.76H11.04C11.02 31.3 11.02 31.5 10.96 31.88L12.12 31.06C12.94 32.04 13.28 32.48 13.88 33.4L12.46 34.46C11.9 33.4 11.5 32.82 10.9 32.16C10.66 33.26 10.32 33.92 9.54 34.74H10.62C10.56 35.12 10.54 35.38 10.54 35.98H16.26C17.3 35.98 18 35.94 18.66 35.86V37.92C17.96 37.84 17.22 37.8 16.26 37.8H12.3C14.2 39.08 16.28 39.86 19.04 40.34C18.44 41.18 18.26 41.52 17.88 42.46C14.62 41.52 12.3 40.3 10.48 38.58C10.5 38.86 10.52 39.3 10.54 39.86V40.84C10.54 41.76 10.56 42.18 10.66 42.64H8.24C8.34 42.1 8.36 41.66 8.36 40.84V39.88C8.36 39.58 8.36 39.38 8.42 38.6C7.38 39.56 6.52 40.16 5.18 40.86C3.92 41.52 3.02 41.86 1.3 42.38C0.900002 41.46 0.700002 41.14 0.0800018 40.34C2.82 39.8 4.66 39.1 6.74 37.8H3.06C2.1 37.8 1.4 37.84 0.680002 37.92V35.86C1.22 35.94 2.06 35.98 3.04 35.98H8.36V35.52C8.06 35.1 7.48 34.58 6.92 34.16C7.46 33.88 7.68 33.74 8.02 33.46C6.82 33.88 6.16 34.08 4.64 34.46C3.7 34.7 3.16 34.82 2.16 35.02C1.70667 35.1133 1.35334 35.1867 1.1 35.24L0.660002 33.24C1.6 33.2 2.26 33.1 3.8 32.84V30.98H2.96C2.16 30.98 1.84 31 1.32 31.06V29.18C1.6 29.22 1.68 29.22 1.88 29.24C1.48 28.82 1.36 28.72 0.360002 28.04C2.04 26.68 2.9 25.54 3.42 23.92L5.58 24.32C5.58 24.32 5.34 24.74 4.96 25.46H7.54C8.5 25.46 9.02 25.44 9.5 25.34V26.96C10.28 26.06 10.88 24.88 11.1 23.9L13.22 24.3C13.14 24.44 12.96 24.84 12.68 25.48H16.54C17.6 25.48 18.06 25.46 18.72 25.36V27.4C18.1 27.32 17.52 27.3 16.64 27.3H15.16C15.4 27.64 15.42 27.68 15.84 28.38L14.28 29.02H14.46ZM8.08 33.4C8.9 32.66 9.18 31.78 9.18 30.1C9.18 29.6 9.16 29.3 9.12 28.96C9.42 29 9.56 29 10.08 29.02C9.72 28.62 9.16 28.16 8.62 27.8C8.88 27.58 8.98 27.48 9.14 27.34C8.78 27.3 8.4 27.28 8.02 27.28H6.92C7.22 27.76 7.32 27.92 7.66 28.56L5.74 29.08C5.48 28.38 5.36 28.12 4.86 27.28H3.84C3.22 28.12 2.8 28.62 2.14 29.24C2.48 29.26 2.58 29.26 2.96 29.26H6.52C7.46 29.26 7.68 29.24 8.16 29.18V31.06C7.66 31 7.28 30.98 6.68 30.98H5.78V32.44C6.64 32.24 6.98 32.16 7.98 31.86L8.08 33.4ZM10.66 29.02H13.92C13.72 28.52 13.48 28.02 13.04 27.3H11.68C11.22 27.96 10.82 28.44 10.26 29.02H10.66Z" fill="white"/>
<path d="M2.31999 65.44C2.29999 65.24 2.29999 65.12 2.21999 64.66C1.83999 62.32 1.67999 60.4 1.67999 58.3C1.67999 56.5 1.79999 54.74 2.05999 53C2.12666 52.6 2.30666 51.6467 2.59999 50.14C2.73999 49.44 2.81999 48.86 2.81999 48.66V48.58L5.51999 48.86C4.69999 50.6 3.93999 55.42 3.91999 58.9C3.90666 59.38 3.89999 59.7267 3.89999 59.94V60.26C3.89999 60.42 3.89999 60.46 3.87999 60.68H3.89999C3.96666 60.5333 4.04666 60.34 4.13999 60.1C4.17999 59.96 4.27999 59.74 4.37999 59.42C4.49999 59.14 4.62666 58.84 4.75999 58.52C4.79999 58.46 4.81999 58.4 4.99999 57.9L6.65999 58.64C5.47999 60.96 4.67999 63.44 4.67999 64.76C4.67999 64.9 4.67999 64.92 4.71999 65.3L2.31999 65.44ZM6.83999 52.34C7.77999 52.58 8.81999 52.66 10.46 52.66C11.16 52.66 11.6 52.66 12.3 52.62C12.3 51.44 12.28 50.44 12.28 49.62C12.28 49.18 12.26 48.88 12.22 48.66L14.72 48.6C14.62 49.16 14.58 50.12 14.58 51.54V52.46C15.62 52.34 16.5 52.18 17.28 51.98C17.36 51.9533 17.5067 51.9 17.72 51.82L17.88 51.78L17.96 54.04C17.76 54.06 17.74 54.06 17.38 54.14C16.7 54.28 15.66 54.46 14.6 54.58V55.02C14.6 56.14 14.6 56.18 14.8 59.54C16.24 60.22 16.74 60.5 17.94 61.36C18.2 61.54 18.3 61.6 18.5 61.7L17.54 64.12C17.2 63.72 16.6 63.2 16.04 62.84C15.36 62.4 14.9 62.1 14.78 62.02V62.3C14.78 62.74 14.72 63.14 14.62 63.42C14.16 64.6 12.76 65.3 10.82 65.3C8.19999 65.3 6.59999 64.06 6.59999 62.02C6.59999 59.98 8.29999 58.72 10.72 58.72C11.46 58.72 11.96 58.8 12.5 59C12.44 58.5 12.42 57.52 12.34 54.74C11.54 54.76 11.06 54.78 10.54 54.78C9.79999 54.78 8.99999 54.76 8.05999 54.68C7.77999 54.68 7.55999 54.66 7.45999 54.66C7.27999 54.64 7.15999 54.64 7.11999 54.64C7.01999 54.62 6.95999 54.62 6.91999 54.62C6.89999 54.62 6.85999 54.62 6.79999 54.64L6.83999 52.34ZM10.9 60.72C9.61999 60.72 8.81999 61.22 8.81999 62.04C8.81999 62.78 9.53999 63.28 10.66 63.28C11.4 63.28 11.98 63.06 12.28 62.66C12.46 62.42 12.54 62.12 12.54 61.58V61.04C11.88 60.8 11.5 60.72 10.9 60.72Z" fill="white"/>
<path d="M7.32 74.12C7.76 73.24 8.04 72.4 8.24 71.48L10.76 71.72C10.4 72.68 10.1 73.36 9.74 74.12H14.38C15.54 74.12 16.1 74.1 16.84 74.02C16.76 74.7 16.74 75.24 16.74 76.48V87.68C16.74 88.86 16.76 89.36 16.86 90H14.56V88.98H4.68V90H2.42C2.5 89.5 2.54 88.62 2.54 87.68V76.48C2.54 75.28 2.52 74.72 2.44 74.02C3.16 74.1 3.72 74.12 4.88 74.12H7.32ZM4.7 78.42H14.58V76.16H4.7V78.42ZM4.7 82.62H14.58V80.34H4.7V82.62ZM4.7 86.96H14.58V84.54H4.7V86.96Z" fill="white"/>
<path d="M3.7 102.12C4.28 102.54 4.82 103.04 5.34 103.58C5.72 103.14 5.88 102.92 6.24 102.42C5.76 101.94 5.28 101.56 4.52 101.02L5.5 99.7C6.16 100.12 6.56 100.42 7.12 100.92C7.42 100.28 7.58 99.88 7.88 98.9H5.24C4.3 100.66 2.98 102.28 1.58 103.38C1.12 102.72 0.760004 102.32 0.160004 101.84C1.72 100.76 2.8 99.48 3.64 97.7C4.04 96.88 4.22 96.34 4.32 95.6L6.52 95.88C6.44 96.04 6.42 96.1 6.34 96.28C6.3 96.4 6.24 96.5467 6.16 96.72C6.16 96.72 6.14 96.76 6.02 97.1H7.62C8.26 97.1 8.68 97.08 9.06 97.02L10.14 98.12C10.0733 98.32 10 98.5733 9.92 98.88C9.84 99.08 9.76 99.38 9.58 99.84C10.06 99.88 10.54 99.9 11.2 99.9H11.84C11.88 99.08 11.9 98.64 11.9 97.84C11.9 96.72 11.88 96.4 11.8 95.84H14.1C14.02 96.32 14.02 96.56 14.02 97.6C14 98.26 13.98 98.9 13.9 99.9H16.28C17.14 99.9 17.8 99.86 18.38 99.78V101.96C17.76 101.88 17.14 101.84 16.28 101.84H14.08C14.6 103.12 15.22 104.04 16.28 105.04C17.16 105.88 17.78 106.28 18.96 106.84C18.44 107.52 18.22 107.94 17.84 108.94C15.5 107.58 13.88 105.82 13.02 103.76C12.6 104.82 11.98 105.86 11.36 106.58C10.66 107.36 9.76 108.04 8.4 108.82C8.08 108.16 7.74 107.7 7.08 107.04C8.56 106.36 9.36 105.76 10.18 104.76C10.78 104 11.24 103.02 11.54 101.84H11.2C10.24 101.84 9.94 101.86 9.26 101.94V100.76C8.48 102.84 7.56 104.26 6.06 105.82C5.48 106.42 4.58 107.14 3.68 107.76C3.16 108.1 2.72 108.34 1.6 108.94C1.28 108.2 0.960004 107.72 0.300004 107.08C2.08 106.3 2.88 105.82 4.06 104.84C3.64 104.32 3 103.7 2.48 103.34L3.7 102.12ZM0.440004 112.88C1.74 111.52 2.44 110.42 3.16 108.6L5.02 109.48C4.16 111.74 3.6 112.7 2.28 114.34L0.440004 112.88ZM6.56 114.08C6.52 112.06 6.42 110.82 6.14 109.3L8.1 109.08C8.46 110.8 8.58 111.7 8.72 113.84L6.56 114.08ZM11.26 113.92C11 112.12 10.7 110.9 10.08 109.34L12 108.92C12.68 110.58 13.02 111.64 13.42 113.46L11.26 113.92ZM16.78 114.12C15.78 112 15.2 111.04 13.96 109.48L15.6 108.46C17.16 110.36 17.78 111.28 18.72 113L16.78 114.12ZM16.02 95.98C16.74 96.8 17.38 97.64 17.84 98.46L16.22 99.5C15.62 98.34 15.3 97.86 14.46 96.88L16.02 95.98Z" fill="white"/>
<path d="M9.12 130.92C7.98 133.5 6.7 134.68 5.06 134.68C2.78 134.68 1.14 132.36 1.14 129.14C1.14 126.94 1.92 124.88 3.34 123.32C5.02 121.48 7.38 120.52 10.22 120.52C15.02 120.52 18.14 123.44 18.14 127.94C18.14 131.4 16.34 134.16 13.28 135.4C12.32 135.8 11.54 136 10.14 136.24C9.8 135.18 9.56 134.74 8.92 133.9C10.76 133.66 11.96 133.34 12.9 132.8C14.64 131.84 15.68 129.94 15.68 127.8C15.68 125.88 14.82 124.32 13.22 123.36C12.6 123 12.08 122.84 11.2 122.76C10.82 125.9 10.12 128.66 9.12 130.92ZM6.18 123.76C4.5 124.96 3.46 127.02 3.46 129.16C3.46 130.8 4.16 132.1 5.04 132.1C5.7 132.1 6.38 131.26 7.1 129.54C7.86 127.74 8.52 125.04 8.76 122.78C7.72 122.9 7 123.18 6.18 123.76Z" fill="white"/>
<path d="M7.6 145.82H2.62V147.56H0.64C0.7 147.08 0.72 146.72 0.72 146.28V145.32C0.72 144.96 0.7 144.48 0.66 143.98C0.94 144.02 1.4 144.04 2.26 144.04H4.14V143.62C4.14 143.06 4.12 142.78 4.04 142.36H6.34C6.26 142.72 6.24 143 6.24 143.64V144.04H7.88C8.7 144.04 9.06 144.02 9.36 144V142.72C10 142.8 10.34 142.82 11.46 142.82H16.68C17.78 142.82 18.38 142.78 18.78 142.72V144.84C18.08 144.76 17.68 144.74 16.68 144.74H15.26C15.1 145.28 14.98 145.58 14.76 146.14H16.08C17.28 146.14 17.64 146.14 18.04 146.08C18 146.64 17.98 147.1 17.98 147.86V154.76C17.98 155.62 18 156.1 18.04 156.82C17.36 156.78 16.8 156.76 16.32 156.76H15.64C16.8 157.84 17.32 158.14 19.32 158.94C18.8 159.56 18.46 160.12 18.12 160.86C16.36 160.08 15.4 159.42 14.08 158.04L15.48 156.76H12.2L13.66 158.02C12.32 159.44 11.26 160.18 9.6 160.9C9.32 160.36 8.94 159.8 8.54 159.4C8.56 159.8 8.58 160.1 8.6 160.36H6.6V159.42H3.86V160.52H1.8C1.86 160.02 1.9 159.38 1.9 158.66V155.54C1.9 155.26 1.9 155.1 1.88 154.8C1.54 154.96 1.42 155.02 1 155.2C0.74 154.4 0.46 153.88 0 153.36C1.62 152.9 2.72 152.4 3.92 151.56C3.32 151 3.12 150.8 2.74 150.34C2.14 150.92 1.9 151.12 1.3 151.54C0.98 150.84 0.74 150.46 0.24 149.98C1.84 149.02 3.3 147.34 3.68 146L5.54 146.38C5.48 146.5 5.46 146.54 5.38 146.7C5.3 146.86 5.2 147.047 5.08 147.26H6.68C7.1 147.26 7.28 147.26 7.6 147.22V145.82ZM7.22 154.1C7.64 154.1 7.76 154.1 8 154.08C6.98 153.64 6.12 153.2 5.34 152.7C4.62 153.28 4.16 153.6 3.26 154.1H7.22ZM4 148.92C3.94 149.02 3.92 149.04 3.82 149.14C4.2 149.64 4.62 150.06 5.18 150.52C5.6 150.1 5.8 149.86 6.52 148.92H4ZM3.84 157.7H6.6V155.76H3.84V157.7ZM9.04 148.26L8.96 148.36C8.84 148.52 8.82 148.54 8.72 148.68C8 149.86 7.38 150.7 6.66 151.48C7.78 152.04 8.54 152.32 9.84 152.68C9.5 153.3 9.36 153.64 9.14 154.48L8.56 154.3C8.53333 154.713 8.52 155.173 8.52 155.68V159.1C9.36 158.8 9.76 158.6 10.46 158.12C11.12 157.68 11.38 157.44 12.02 156.76H11.42C11.08 156.76 10.56 156.78 9.86 156.82C9.9 156.34 9.92 155.44 9.92 154.98V147.98C9.92 147.38 9.9 146.753 9.86 146.1C10.26 146.14 10.52 146.14 11.54 146.14H12.7C12.98 145.44 13.06 145.18 13.2 144.74H11.46C10.64 144.74 9.86 144.78 9.42 144.84V146.14C9.42 146.92 9.44 147.18 9.48 147.48H8.32L9.04 148.26ZM11.88 149.14H16V147.94H11.88V149.14ZM11.88 152.04H16V150.78H11.88V152.04ZM11.88 154.92H16V153.68H11.88V154.92Z" fill="white"/>
<path d="M2.86 177.56C2.7 180.68 2.6 181.6 2.12 183.8L0.360001 183.12C0.880001 181.24 1.04 180.16 1.16 177.36L2.86 177.56ZM7.18 177.36C7.28 177.9 7.32 178.06 7.4 178.44C8.66 178.02 9.94 177.38 11.14 176.6C10.96 176.34 10.9 176.24 10.68 175.94C9.98 176.4 9.5 176.64 8.1 177.22C7.98 176.98 7.94 176.9 7.82 176.7L6.54 177.18C6.46 176.7 6.44 176.56 6.38 176.22C5.96 176.28 5.88 176.28 5.3 176.34V182.7C5.3 183.66 5.32 184.16 5.42 184.8H3.28C3.38 184.14 3.4 183.66 3.4 182.7V176.52C2.68 176.58 2.16 176.62 1.86 176.64C0.980001 176.7 0.960001 176.7 0.660001 176.76L0.440001 174.66C0.660001 174.7 1.2 174.72 1.64 174.72H2.04C2.4 174.227 2.68 173.84 2.88 173.56C2 172.16 1.52 171.54 0.400001 170.28L1.46 168.6C1.74 168.94 1.84 169.04 2.08 169.32C2.82 168.08 3.38 166.84 3.5 166.06L5.44 166.88C5.34 167.04 5.32 167.08 5.02 167.68C4.38 168.9 3.78 169.96 3.26 170.74C3.78 171.46 3.86 171.56 4.02 171.82C5.2 169.94 5.76 168.94 5.96 168.28L7.7 169.22C7.56 169.42 7.44 169.6 7.22 169.96C6.18 171.68 4.96 173.44 4 174.62C5.08 174.54 5.71333 174.487 5.9 174.46C5.7 173.92 5.64 173.78 5.38 173.14L6.7 172.68C7.2 173.82 7.46 174.56 7.72 175.5C8.88 175.14 9.82 174.66 10.76 173.92H9.48C8.6 173.92 8.16 173.94 7.58 174.02V172C8.2 172.1 8.64 172.12 9.48 172.12H14.76C14.7733 171.867 14.7867 171.533 14.8 171.12H10.52C9.64 171.12 9.22 171.14 8.7 171.2V169.42C9.2 169.5 9.56 169.52 10.52 169.52H14.84L14.86 168.56H10.28C9.34 168.56 8.94 168.58 8.32 168.64V166.74C8.9 166.82 9.42 166.84 10.32 166.84H15.22C16.04 166.84 16.58 166.82 17.06 166.76C17 167.32 17 167.38 16.96 168.88C16.96 169.18 16.92 170.26 16.84 172.12H17.12C17.98 172.12 18.44 172.1 19.04 172V174.02C18.44 173.94 17.9 173.92 17.14 173.92H15.06C15.2 174.8 15.32 175.3 15.66 176.26C16.32 175.42 16.56 175.02 16.9 174.32L18.74 175.4C18.6867 175.467 18.5867 175.587 18.44 175.76C18.38 175.84 18.26 176 18.14 176.16C17.58 176.92 17.02 177.58 16.46 178.18C17.28 179.76 18.1 180.76 19.24 181.56C18.84 182.08 18.42 182.88 18.1 183.78C16.56 182.22 15.72 181.04 14.9 179.24C14.18 177.6 13.76 176.28 13.22 173.92H12.96C12.64 174.32 12.46 174.54 12.06 174.92C13.48 176.6 14.24 178.92 14.24 181.54C14.24 183.98 13.58 184.66 11.22 184.66C11.06 184.66 10.9 184.66 10.56 184.64C10.46 183.7 10.38 183.38 10 182.64C10.44 182.72 10.98 182.76 11.2 182.76C12.18 182.76 12.3 182.6 12.3 181.36C12.3 181.26 12.3 181.12 12.28 180.92C11 182.04 9.68 182.88 7.86 183.76C7.54 182.98 7.24 182.5 6.64 181.94C8.58 181.3 10.24 180.36 12 178.9C11.92 178.56 11.9 178.44 11.78 178.06C11.02 178.7 9.7 179.48 8.38 180.08C8.18 179.6 7.84 179.1 7.44 178.68C7.48 178.94 7.58 179.72 7.74 181.06L6.16 181.5C6.08 179.68 5.98 178.9 5.76 177.78L7.18 177.36Z" fill="white"/>
<path d="M1.12 192.3C1.56 192.32 1.78 192.32 1.88 192.32C2.12 192.32 3.22 192.253 5.18 192.12C6.64 192.04 10.06 191.86 15.4 191.6C17.04 191.52 17.14 191.52 17.46 191.44L17.6 193.98C17.4533 193.967 17.3133 193.96 17.18 193.96C15.98 193.96 14.5 194.36 13.22 195.04C10.68 196.36 9.18 198.36 9.18 200.38C9.18 201.94 10.16 203.14 11.84 203.64C12.82 203.94 14.1 204.16 14.82 204.16C14.84 204.16 15.02 204.16 15.22 204.14L14.86 206.86C14.6 206.8 14.56 206.8 14.18 206.74C11.98 206.46 10.72 206.1 9.5 205.42C7.66 204.38 6.64 202.68 6.64 200.6C6.64 198.9 7.31999 197.22 8.54 195.9C9.3 195.08 10.02 194.54 11.32 193.88C9.7 194.12 8.46 194.24 4.58 194.52C2.8 194.66 1.88 194.78 1.26 194.92L1.12 192.3ZM14.9 196.14C15.78 197.08 16.32 197.84 17 199.08L15.6 199.82C14.94 198.6 14.38 197.8 13.5 196.84L14.9 196.14ZM18 198.56C17.4 197.46 16.74 196.52 15.96 195.66L17.3 194.96C18.2 195.88 18.76 196.64 19.38 197.78L18 198.56Z" fill="white"/>
<path d="M12.52 220.22C12.52 220.3 12.54 220.46 12.54 220.7C12.98 221.62 13.18 222.44 13.18 223.52C13.18 225.7 12.14 227.58 10.2 228.92C9.36 229.5 8.44 229.92 6.58 230.56C6.02 229.32 5.82 229.02 5.16 228.3C6.8 227.98 7.62 227.7 8.56 227.14C9.92 226.36 10.72 225.34 10.88 224.22C10.3 225.14 9.26 225.64 7.94 225.64C7.02 225.64 6.3 225.42 5.62 224.92C4.68 224.24 4.24 223.36 4.24 222.22C4.24 220.1 5.9 218.58 8.22 218.58C9.08 218.58 9.84 218.8 10.3 219.18C10.2867 219.113 10.28 219.033 10.28 218.94C10.28 218.94 10.26 217.78 10.26 217.24C7.4 217.32 5.52 217.38 4.64 217.44C2.62667 217.587 1.44 217.687 1.08 217.74L1 215.36C1.44 215.4 1.62 215.4 1.98 215.4C2.48 215.4 2.8 215.4 5.38 215.3C6.68 215.26 6.88 215.26 8.52 215.22C8.96 215.207 9.52667 215.187 10.22 215.16C10.2067 213.893 10.1667 213.087 10.1 212.74L12.62 212.72C12.54 213.34 12.54 213.38 12.52 215.1C16 215.08 17.56 215.04 18.3 214.96L18.32 217.26C17.58 217.2 16.62 217.16 14.96 217.16C14.48 217.16 14.12 217.16 12.54 217.2V218.5L12.52 220.22ZM8.44 220.42C7.42 220.42 6.58 221.14 6.58 222.02C6.58 222.9 7.28 223.6 8.28 223.6C9.42 223.6 10.24 222.84 10.24 221.8C10.24 220.96 9.54 220.42 8.44 220.42Z" fill="white"/>
</svg>
