<svg width="295" height="24" viewBox="0 0 295 24" fill="none" xmlns="http://www.w3.org/2000/svg">
<path d="M139.646 6.7865L137.229 9.2041L139.646 11.6217L142.064 9.2041L139.646 6.7865Z" fill="black"/>
<path d="M134.514 5.59371C134.514 5.25614 134.592 4.90991 134.761 4.58965L136.462 1.34375C136.094 2.04919 136.133 2.85417 136.488 3.49902C135.479 3.73706 134.696 4.56368 134.514 5.59371ZM144.758 5.59371C144.758 5.25614 144.68 4.90991 144.512 4.58965L142.811 1.34375C143.179 2.04919 143.14 2.85417 142.785 3.50335C143.793 3.74138 144.576 4.56801 144.758 5.59804V5.59371Z" fill="#A20000"/>
<path d="M139.639 6.77934L137.224 9.19862L135.151 7.1299C134.744 6.72308 134.519 6.16911 134.519 5.59783C134.7 4.5678 135.484 3.74551 136.492 3.50315C136.596 3.68925 136.722 3.86236 136.873 4.01384L139.639 6.77934ZM142.785 3.49882C142.681 3.68492 142.556 3.85803 142.404 4.00951L139.639 6.77934L142.053 9.19429L144.122 7.12557C144.529 6.71875 144.754 6.16478 144.754 5.59351C144.572 4.56348 143.789 3.74118 142.781 3.49882H142.785ZM142.811 1.34355C142.443 0.638106 141.755 0.205319 141.019 0.131746C140.565 0.0841393 140.106 0.0625 139.639 0.0625C139.171 0.0625 138.712 0.0841393 138.258 0.131746C137.522 0.205319 136.834 0.638106 136.466 1.34355C136.098 2.04899 136.137 2.85397 136.492 3.50315C136.687 3.45554 136.89 3.4339 137.098 3.4339H142.179C142.387 3.4339 142.59 3.45987 142.785 3.50315C143.14 2.8583 143.179 2.04899 142.811 1.34355Z" fill="#E40012"/>
<path d="M149.303 16.4436L146.888 18.8585L144.473 16.4436L146.888 14.0286L149.303 16.4436ZM139.639 21.2778C138.306 22.6108 136.142 22.6108 134.804 21.2778C137.475 23.9481 141.802 23.9481 144.468 21.2778C143.135 22.6108 140.972 22.6108 139.634 21.2778H139.639ZM134.804 11.6137C132.134 14.284 132.134 18.6119 134.804 21.2778C133.471 19.9405 133.471 17.7809 134.804 16.4436C133.471 15.1106 133.471 12.9467 134.804 11.6094V11.6137Z" fill="#002063"/>
<path d="M149.303 16.4435L146.888 14.0286L149.973 10.9428L152.388 13.3577L149.303 16.4435ZM142.053 9.19434L139.639 11.6093L144.473 16.4435L146.888 14.0286L142.053 9.19434ZM154.803 21.9442L149.303 16.4435L146.888 18.8584L149.973 21.9399H154.808L154.803 21.9442ZM134.804 21.2777C136.137 22.6107 138.301 22.6107 139.639 21.2777L134.804 16.4435C133.471 17.7765 133.471 19.9404 134.804 21.2777ZM144.473 16.4435L139.639 21.2777C140.971 22.6107 143.135 22.6107 144.473 21.2777L146.888 18.8628L144.473 16.4478V16.4435ZM137.219 9.19434L134.804 11.6093C133.471 12.9423 133.471 15.1062 134.804 16.4435L139.639 11.6093L137.219 9.19434Z" fill="#004096"/>
<path d="M271.794 14.8899C273.183 14.8899 273.915 14.9115 274.798 14.9635V13.7776C273.915 13.8296 273.183 13.8512 271.794 13.8512H267.224V12.5096H271.054C272.443 12.5096 273.175 12.5312 274.058 12.5832V11.3973C273.175 11.4493 272.443 11.4709 271.054 11.4709H267.505V10.2461H269.743C271.132 10.2461 271.863 10.2678 272.746 10.3197V9.13385C271.863 9.18579 271.132 9.20743 269.743 9.20743H267.505V8.05622H269.743C271.132 8.05622 271.863 8.07786 272.746 8.12979V6.94396C271.863 6.99589 271.132 7.01753 269.743 7.01753H267.505V6.62802C267.505 6.35537 267.505 6.10868 267.505 5.86632H270.691C272.08 5.86632 272.811 5.88796 273.694 5.93989V4.75406C272.811 4.80599 272.08 4.82763 270.691 4.82763H267.518C267.531 4.03131 267.557 3.3778 267.6 2.70698H265.411C265.449 3.3778 265.475 4.03131 265.493 4.82763H262.026C262.519 4.25635 263 3.64613 263.437 3.01426L261.498 2.38672C261.498 2.38672 260.022 5.9572 256.919 8.35051L257.564 9.07326C257.564 9.07326 258.529 8.3332 259.776 7.16035C259.78 7.59746 259.784 8.07786 259.784 8.63182C259.784 10.3803 259.754 11.4363 259.689 12.5485L259.758 12.5269L259.689 12.5658C260.572 12.5139 261.303 12.4923 262.693 12.4923H265.22V13.8339H260.62C259.23 13.8339 258.499 13.8123 257.616 13.7603V14.9462C258.499 14.8942 259.23 14.8726 260.62 14.8726H263.666C262.771 15.9243 260.676 17.9887 257.43 18.8802L257.962 19.8107C257.962 19.8107 262.221 18.5253 265.22 15.9459V16.2921C265.22 18.0406 265.19 19.0966 265.125 20.2089H267.315C267.25 19.1009 267.22 18.0406 267.22 16.2921V15.5218C270.69 18.8715 274.032 19.6376 274.032 19.6376L275.04 17.8891C270.89 17.0365 268.769 15.5391 267.99 14.8683H271.794V14.8899ZM265.506 9.22041H261.788V8.0692H265.506V9.22041ZM265.506 6.64966V7.03917H261.788V5.88796H265.506C265.506 6.13032 265.506 6.37701 265.506 6.64966ZM261.784 11.4839V10.2591H265.501V11.4839H261.784ZM190.378 7.62343C191.633 7.63209 192.529 7.66238 193.451 7.71864V6.19091C192.529 6.24717 191.638 6.27314 190.383 6.28179C190.391 4.94016 190.422 4.01399 190.478 3.05321H188.132C188.188 4.01399 188.219 4.94016 188.227 6.28612H182.93C182.939 4.94448 182.969 4.01399 183.025 3.05321H180.68C180.736 4.01399 180.766 4.94016 180.775 6.28179C179.256 6.27747 178.26 6.24717 177.226 6.18658V7.71432C178.26 7.65373 179.256 7.62343 180.771 7.6191C180.749 8.94776 180.671 11.9773 180.584 13.3492H180.481C178.689 13.3492 177.607 13.3189 176.469 13.254V14.7817C177.59 14.7168 178.663 14.6865 180.407 14.6865C179.944 17.0019 178.775 18.3132 176.685 19.1052L177.403 20.2175C178.615 19.5294 180.134 18.7201 181.112 17.5515C181.805 16.7249 182.251 15.6819 182.506 14.6865H188.232V16.0108C188.232 17.8026 188.201 18.8845 188.137 20.0228H190.482C190.413 18.8845 190.387 17.8026 190.387 16.0108V14.6865C191.997 14.6865 193.027 14.7211 194.096 14.7817V13.254C193.027 13.3189 191.997 13.3449 190.387 13.3492V7.62343H190.378ZM182.731 13.3492C182.857 11.9989 182.913 9.6532 182.921 7.6191H188.227V13.3492H182.731ZM163.117 5.66291C161.325 5.66291 160.243 5.6932 159.105 5.75812V4.00967C160.243 4.07458 161.325 4.10488 163.117 4.10488H169.237C171.029 4.10488 172.11 4.07458 173.249 4.00967V5.75812C172.11 5.68888 171.029 5.66291 169.237 5.66291H163.117ZM170.301 17.6597C172.093 17.6597 173.175 17.6294 174.313 17.5645V19.313C173.175 19.2437 172.093 19.2178 170.301 19.2178H162.057C160.265 19.2178 159.183 19.2481 158.045 19.313V17.5645C159.183 17.6294 160.265 17.6597 162.057 17.6597H170.301ZM212.81 13.2626C212.169 13.9421 211.884 14.4312 211.42 15.1842C208.594 13.0852 206.829 11.103 205.82 8.54094C206.296 8.23799 206.608 8.01294 207.006 7.61045C208.231 9.93451 210.17 11.934 212.81 13.2626ZM209.114 3.74134C210.905 3.74134 211.987 3.71104 213.126 3.64613V5.17386C211.987 5.10462 210.905 5.07865 209.114 5.07865H205.513C205.5 5.64993 205.496 6.29045 205.496 7.06514V16.0108C205.496 17.8026 205.526 18.8845 205.591 20.0228H203.349C203.418 18.8845 203.444 17.8026 203.444 16.0108V9.73976C202.15 11.8907 200.094 13.6824 196.896 15.1842C196.697 14.7644 196.524 14.4528 196.295 14.0546C200.371 12.1547 202.245 8.97805 202.942 5.07432H200.233C198.441 5.07432 197.359 5.10462 196.221 5.16953V3.6418C197.359 3.71104 198.441 3.73701 200.233 3.73701H209.114V3.74134ZM230.022 3.05321H227.676C227.732 4.00534 227.762 4.92717 227.771 6.25583C227.061 6.24284 226.499 6.2212 225.91 6.18658V7.39838C226.499 7.36376 227.057 7.34212 227.771 7.32914C227.754 8.60153 227.65 12.9337 227.537 13.8685C227.317 15.7338 226.715 17.0192 225.676 17.9367L225.599 17.3741C224.075 17.5299 222.902 17.6511 221.794 17.7593V16.6037H222.27C223.69 16.6037 224.443 16.6254 225.347 16.6816V15.4698C224.443 15.5218 223.694 15.5477 222.27 15.5477H221.794V14.3056H222.11C223.53 14.3056 224.452 14.3273 225.352 14.3835C225.3 13.531 225.304 11.9902 225.304 11.4319C225.304 10.086 225.304 9.33726 225.352 8.48035C224.447 8.53228 223.53 8.55825 222.11 8.55825H221.794V7.32481H222.387C223.807 7.32481 224.56 7.34645 225.464 7.40271V6.19091C224.56 6.24284 223.811 6.26881 222.387 6.26881H221.794V4.8233C223.075 4.68914 224.309 4.49872 225.356 4.23039L224.807 2.65505C222.56 3.58986 218.925 4.14816 216.211 4.22173L216.263 5.09596C217.393 5.09596 218.665 5.06134 219.951 4.97911V6.27314H219.392C217.973 6.27314 217.112 6.2515 216.207 6.19524V7.40704C217.112 7.3551 217.968 7.32914 219.392 7.32914H219.951V8.56258H219.669C218.25 8.56258 217.272 8.54094 216.367 8.48467C216.419 9.33726 216.415 10.0903 216.415 11.4363C216.415 11.9946 216.415 13.531 216.367 14.3879C217.267 14.3359 218.245 14.31 219.669 14.31H219.951V15.5521H219.488C218.068 15.5521 217.207 15.5304 216.302 15.4742V16.686C217.207 16.634 218.064 16.6081 219.488 16.6081H219.951V17.9411C218.834 18.0449 217.627 18.1488 216.034 18.2786L216.302 19.8626C219.877 19.2437 221.708 18.9538 225.127 18.3695C224.703 18.6551 224.227 18.8975 223.681 19.1052L224.4 20.2175C225.611 19.5294 227.131 18.7201 228.109 17.5515C228.948 16.5475 229.446 15.2188 229.649 14.0503C229.84 12.938 229.918 9.83064 229.926 7.32048H231.831C231.805 11.116 231.692 15.4655 231.389 17.3049C231.155 18.7201 231.104 18.7677 229.939 18.5556C229.576 18.4907 229.217 18.4128 228.961 18.3565C228.879 18.798 228.818 19.0879 228.723 19.4385C229.437 19.6462 231.065 20.053 231.813 20.0184C232.467 19.9838 232.947 19.6203 233.151 18.5426C233.549 16.4176 233.726 9.43248 233.726 6.26015H229.931C229.939 4.92717 229.97 4.00534 230.026 3.04888L230.022 3.05321ZM221.794 13.3102V11.9253H222.11C222.664 11.9253 223.149 11.9253 223.586 11.9383C223.586 12.4966 223.586 12.9943 223.577 13.3016C223.145 13.3102 222.66 13.3146 222.11 13.3146H221.794V13.3102ZM222.106 9.55366C222.656 9.55366 223.14 9.55366 223.573 9.56664C223.577 9.93018 223.582 10.4149 223.586 10.9213C223.149 10.9299 222.664 10.9342 222.11 10.9342H221.794V9.55366H222.11H222.106ZM219.951 9.55366V10.9342H219.669C219.102 10.9342 218.592 10.9342 218.133 10.9213C218.133 10.4106 218.137 9.93018 218.146 9.56664C218.6 9.55798 219.111 9.55366 219.669 9.55366H219.951ZM219.669 13.3102C219.115 13.3102 218.596 13.3102 218.142 13.2973C218.137 12.9943 218.133 12.4923 218.133 11.934C218.592 11.9253 219.102 11.921 219.669 11.921H219.951V13.3059H219.669V13.3102ZM168.146 10.601C169.938 10.601 171.02 10.5707 172.158 10.5058V12.2542C171.02 12.185 169.938 12.159 168.146 12.159H164.208C162.416 12.159 161.334 12.1893 160.196 12.2542V10.5058C161.334 10.575 162.416 10.601 164.208 10.601H168.146ZM285.596 7.24691C285.596 7.44599 285.604 7.65373 285.604 7.87445H285.405C283.657 7.87445 282.601 7.84415 281.488 7.77923C281.553 8.35051 281.584 8.90015 281.584 9.80467C281.584 10.7092 281.553 11.2545 281.488 11.8258C282.596 11.7609 283.657 11.7306 285.405 11.7306H285.609V12.5745C282.298 12.6308 280.844 12.4706 280.844 12.4706L281.164 13.9032C284.782 13.7127 287.409 13.5526 290.408 13.202C290.928 13.769 291.274 14.2797 291.274 14.2797L292.507 13.2713C291.46 12.4447 290.629 11.9816 290.209 11.7652C290.668 11.7782 291.092 11.7998 291.52 11.8258C291.456 11.2545 291.425 10.7049 291.425 9.80467C291.425 8.90448 291.456 8.35484 291.52 7.77923C290.413 7.84415 289.352 7.87445 287.604 7.87445H287.353C287.353 7.65373 287.357 7.44599 287.361 7.24691H288.534C290.283 7.24691 291.339 7.2772 292.451 7.34212V6.18658C291.343 6.2515 290.283 6.28179 288.534 6.28179H287.387C287.4 5.92258 287.418 5.58068 287.439 5.23878H285.518C285.539 5.58501 285.557 5.92691 285.57 6.28179H284.648C282.899 6.28179 281.843 6.2515 280.731 6.18658V7.34212C281.839 7.2772 282.899 7.24691 284.648 7.24691H285.596ZM285.609 8.77031C285.609 8.89582 285.609 9.02133 285.609 9.15549V9.33294H283.237V8.77031H285.609ZM283.237 10.8434V10.2245H285.609V10.8434H283.237ZM289.772 10.8434H287.344V10.2245H289.772V10.8434ZM289.651 12.4879C289.192 12.5009 288.448 12.5226 287.34 12.5442V11.7349H287.599C288.43 11.7349 289.101 11.7436 289.698 11.7565L289.144 12.1158C289.322 12.2239 289.491 12.3538 289.651 12.4879ZM289.772 8.77031V9.33294H287.344V9.15549C287.344 9.02133 287.344 8.89582 287.344 8.77031H289.772ZM292.62 15.6083C291.759 15.5564 290.919 15.5304 289.772 15.5174V17.3049C289.772 18.0406 289.59 18.6119 288.95 18.6465C288.223 18.6811 287.439 18.4993 285.808 18.27L285.635 17.3352L286.877 17.4736C287.894 17.5818 288.037 17.4823 288.037 17.1404V15.5131H284.509C284.025 15.5131 283.596 15.5131 283.202 15.5218C284.6 16.0454 285.838 16.7639 285.838 16.7639L284.717 18.0363C283.523 16.647 282.246 16.0628 282.246 16.0628L282.739 15.5261C281.93 15.5391 281.272 15.5651 280.597 15.6083V14.4528C281.705 14.5177 282.765 14.548 284.514 14.548H288.024C288.011 14.2407 287.985 13.9767 287.946 13.7084H289.867C289.828 13.9724 289.807 14.2364 289.789 14.5437C290.928 14.535 291.763 14.5047 292.62 14.4528V15.6083ZM295 20.118C294.935 19.01 294.905 17.9237 294.905 16.1753V7.70999C294.905 5.96153 294.935 4.72809 295 3.62016C293.892 3.68508 292.832 3.71537 291.083 3.71537H282.073C280.324 3.71537 279.268 3.68508 278.156 3.62016C278.221 4.72809 278.251 5.96586 278.251 7.70999V16.1753C278.251 17.9237 278.221 19.0057 278.156 20.118C279.264 20.053 280.324 20.0228 282.073 20.0228H291.083C292.832 20.0228 293.888 20.053 295 20.118ZM280.294 18.8629C280.264 18.1358 280.251 17.3525 280.251 16.1753V7.70999C280.251 6.5155 280.264 5.65425 280.294 4.87524H292.905V18.8629H280.294ZM249.298 18.283C249.912 18.283 253.089 18.2527 254.227 18.1877V19.5121C253.089 19.4428 249.912 19.4169 249.298 19.4169H244.42C243.806 19.4169 240.629 19.4471 239.491 19.5121V18.1877C240.629 18.2527 243.806 18.283 244.42 18.283H245.775V16.4609C244.901 16.4653 242.434 16.4955 241.395 16.5561V15.2318C242.438 15.2924 244.901 15.3227 245.775 15.327V13.5093C245.204 13.5093 243.442 13.531 242.196 13.5699C241.824 14.2537 241.335 14.9202 240.703 15.6256L239.811 15.0847C240.789 13.8166 241.278 12.0422 241.348 10.5967H243.105C243.04 11.2199 242.914 11.7868 242.733 12.3321C243.901 12.3624 245.273 12.3754 245.766 12.3798C245.758 11.4017 245.727 11.5531 245.671 10.601H248.03C247.974 11.5531 247.943 11.4017 247.935 12.3798C248.675 12.3798 251.67 12.3495 252.769 12.2845V13.6089C251.665 13.5439 248.666 13.5136 247.93 13.5136V15.3314C248.804 15.3314 251.271 15.2967 252.31 15.2491V16.5605C251.267 16.4869 248.804 16.4653 247.93 16.4653V18.2873H249.285L249.298 18.283ZM241.655 9.97346H250.094C251.886 9.97346 252.968 10.0038 254.106 10.0687V8.82225C253.249 8.87418 252.427 8.90015 251.306 8.91313L251.886 8.25097C251.042 7.77923 250.129 7.37674 249.203 7.03051C250.267 6.58474 251.15 6.1433 251.942 5.76245L251.657 5.46816C252.492 5.48114 253.171 5.51143 253.868 5.55039V4.30396C252.73 4.36888 251.648 4.39917 249.856 4.39917H247.013C247.03 3.82357 247.052 3.31288 247.082 2.78921H244.736C244.767 3.31288 244.788 3.82357 244.806 4.39917H242.04C240.248 4.39917 239.166 4.36888 238.028 4.30396V5.55039C238.985 5.49412 239.906 5.46383 241.235 5.45517L240.807 6.10002C240.807 6.10002 242.698 6.35104 245.134 7.03051C243.364 7.4633 241.668 7.73596 240.162 7.97832L240.681 8.91313C239.461 8.90448 238.625 8.87418 237.712 8.82225C237.82 12.0292 237.846 16.7725 235.73 19.4688L236.613 20.2132C239.158 17.4347 239.79 15.3703 239.811 9.98644C240.344 9.97779 240.941 9.97346 241.646 9.97346H241.655ZM243.36 5.4595H249.813C248.991 5.8317 248.164 6.13897 247.342 6.4073C245.84 5.9572 244.429 5.65425 243.36 5.4595ZM250.168 8.92179C250.142 8.92179 250.12 8.92179 250.094 8.92179H242.101C244.221 8.61884 245.922 8.19471 247.337 7.7273C248.281 8.06054 249.246 8.45871 250.168 8.92179Z" fill="black"/>
<path d="M3.4796 11.8213C3.4796 8.90865 5.01599 6.35954 7.32274 4.93134V0.0625H0V23.2815H7.32707V18.7113C5.02032 17.2831 3.48393 14.7339 3.48393 11.8213H3.4796Z" fill="#1226AA"/>
<path d="M15.8313 0.0625V4.92702C18.138 6.35088 19.6788 8.90432 19.6788 11.817C19.6788 14.7296 18.1424 17.2787 15.8313 18.7069V23.2771H23.1584V0.0625H15.8313Z" fill="#1226AA"/>
<path d="M11.5814 3.71973C10.0191 3.71973 8.56491 4.16117 7.32714 4.9272V18.7071C7.32714 18.7071 7.34445 18.7158 7.34878 18.7201L7.31848 18.7504L11.5987 22.9787L14.0137 20.4339L8.99336 15.1756C8.08451 14.4269 7.50458 13.2973 7.50458 12.0249C7.50458 9.7744 9.33094 7.94805 11.5814 7.94805C13.8319 7.94805 15.6583 9.7744 15.6583 12.0249C15.6583 14.2754 13.8319 16.1017 11.5814 16.1017C11.1227 16.1017 10.6812 16.0195 10.2658 15.881L13.8189 19.603L14.308 20.1137L15.6842 18.798C15.7318 18.772 15.7838 18.7461 15.8314 18.7158V4.9272C14.5936 4.16117 13.1395 3.71973 11.5771 3.71973H11.5814Z" fill="#1226AA"/>
<path d="M34.1209 10.0212H40.7858C41.197 9.02143 41.5172 7.98274 41.7466 6.90943L43.4734 7.48504C43.6768 7.53697 43.7807 7.6192 43.7807 7.73605C43.7807 7.87887 43.6335 8.03035 43.3393 8.19913C43.1618 8.85264 42.9671 9.46287 42.7636 10.0255H51.7916V11.6398H42.1275C41.6687 12.6915 41.1797 13.5657 40.669 14.2711C39.5307 15.9374 37.7736 17.53 35.4063 19.0534L33.8872 17.8027C35.1553 17.0712 36.2199 16.3312 37.0768 15.5738C38.1631 14.626 39.0806 13.4791 39.825 12.1332C39.9159 11.9557 39.9981 11.7869 40.076 11.6355H34.1209V10.0212ZM42.0366 2.83691L43.785 2.98839C44.1053 3.00137 44.2654 3.09226 44.2654 3.25672C44.2654 3.36059 44.1356 3.51206 43.8802 3.7198V5.02681H51.2203V8.6752H49.4545V6.63678H36.393V8.6752H34.6273V5.02681H42.0409V2.83691H42.0366ZM43.7288 12.3625L45.4383 13.0334C45.6806 13.1113 45.8018 13.2065 45.8018 13.319C45.8018 13.4099 45.646 13.5484 45.3387 13.7431C44.6463 14.9982 43.7634 16.3745 42.6857 17.8719C44.5164 17.6685 46.3038 17.4434 48.0436 17.2011C47.52 16.4827 46.9747 15.8292 46.412 15.2406L47.7017 14.2019C49.1083 15.5608 50.4975 17.2963 51.8695 19.4083L50.2379 20.5032C49.8787 19.8887 49.5194 19.3001 49.1602 18.7375C46.8665 19.1227 43.4994 19.6204 39.0547 20.2349C38.9119 20.4643 38.7647 20.5811 38.6132 20.5811C38.4618 20.5811 38.3752 20.4859 38.3622 20.2912L37.8818 18.2744C38.7777 18.2095 39.6736 18.1402 40.5694 18.0623C41.0931 17.3179 41.5345 16.6428 41.8938 16.0239C42.6381 14.7818 43.244 13.557 43.7201 12.3539L43.7288 12.3625Z" fill="#222222"/>
<path d="M59.1749 2.98783C59.8544 3.41196 60.5209 3.95728 61.1744 4.61944L60.2352 5.25131H64.1909L65.7273 2.83203L67.1122 3.5418C67.3026 3.64567 67.4022 3.73223 67.4022 3.81013C67.4022 3.96593 67.2723 4.10009 67.017 4.21262L66.1904 5.25131H70.1677V6.70979H65.3248V10.7434H66.5366L67.8826 7.67058L69.1896 8.32409C69.38 8.42796 69.4795 8.51451 69.4795 8.59241C69.4795 8.74389 69.3584 8.87373 69.116 8.97759L68.2331 10.7434H71.2669V12.2798H54.1892V10.7434H56.8595C56.5912 9.89943 56.2623 9.11176 55.8814 8.38035L57.6688 8.05576C58.028 8.89969 58.3483 9.79556 58.6296 10.7434H59.7245V6.70979H55.2668V5.25131H59.3004C58.8633 4.76658 58.4175 4.34245 57.9545 3.98324L59.1836 2.98351L59.1749 2.98783ZM56.9461 13.1323H68.627V20.5113H66.9348V19.9357H58.6339V20.5113H56.9417V13.1323H56.9461ZM58.6339 15.8978H66.9348V14.6687H58.6339V15.8978ZM58.6339 18.4729H66.9348V17.2828H58.6339V18.4729ZM61.4211 10.752H63.6283V6.71845H61.4211V10.752Z" fill="#222222"/>
<path d="M80.074 3.98779H83.7224V2.91016L85.3929 3.04432C85.7002 3.07029 85.856 3.16117 85.856 3.31265C85.856 3.41652 85.7348 3.56366 85.4925 3.75409V3.98347H89.6039V6.59749H91.3697V8.13388H89.6039V10.7479H85.4925V11.977H89.8333V13.5134H85.4925V14.7036H90.2964V16.3179H85.4925V18.5078C86.5441 18.5467 87.7213 18.564 89.0283 18.564C89.6429 18.564 90.4219 18.5467 91.3697 18.5078L90.5258 20.4293C87.0808 20.4293 84.4235 20.3255 82.5538 20.1221C81.0434 19.9663 79.8057 19.7196 78.8449 19.3733C78.1135 19.131 77.4686 18.8237 76.906 18.4515C76.2655 19.3474 75.4778 20.0831 74.543 20.6587L73.236 19.2565C74.1448 18.7934 74.9022 18.1529 75.5038 17.3349C74.8892 16.6944 74.227 15.7293 73.5259 14.4352L74.9671 13.8986C75.4908 14.6819 75.9712 15.3095 76.4083 15.7812C76.88 14.6906 77.183 13.1802 77.3128 11.2456H75.7937L75.1229 12.5916L73.5476 12.0333L76.5468 5.71461H73.6255V4.10032H76.893L77.3907 3.9272C77.5552 3.9272 77.7196 3.98347 77.8711 4.10032L78.8319 4.77114C78.9487 4.86202 79.005 4.95291 79.005 5.03946C79.005 5.20825 78.8708 5.37271 78.6025 5.53717L76.603 9.627H79.005C78.9011 12.7907 78.5376 15.132 77.9101 16.6598C77.8711 16.7507 77.8278 16.8329 77.7759 16.9108C78.6068 17.4474 79.5763 17.8283 80.6756 18.0447C81.355 18.2091 82.3721 18.339 83.731 18.4299V16.3179H79.005V14.7036H83.731V13.5134H79.6196V11.977H83.731V10.7479H80.0826V9.21152H83.731V8.13388H78.4683V6.59749H83.731V5.5415H80.0826V3.98347L80.074 3.98779ZM85.4925 5.54582V6.60182H87.9117V5.54582H85.4925ZM85.4925 8.13821V9.21585H87.9117V8.13821H85.4925Z" fill="#222222"/>
<path d="M93.2179 5.83127H100.29V7.36766H93.2179V5.83127ZM93.6377 14.0932H99.8612V20.3556H98.2469V19.3948H95.252V20.507H93.6377V14.0888V14.0932ZM93.906 8.63572H99.5149V10.0942H93.906V8.63572ZM93.906 11.2498H99.5149V12.7082H93.906V11.2498ZM93.9839 3.18262H99.4414V4.64111H93.9839V3.18262ZM95.252 17.9363H98.2469V15.556H95.252V17.9363ZM101.977 3.25619H107.664V7.44556C107.664 8.06012 107.755 8.36739 107.933 8.36739H108.971C109.075 8.36739 109.162 8.30248 109.24 8.17697C109.318 8.02117 109.404 7.41959 109.508 6.37225L111.122 6.9695C110.841 8.28949 110.534 9.10746 110.2 9.42772C109.841 9.74798 109.331 9.90811 108.664 9.90811H107.781C106.578 9.90811 105.976 9.22431 105.976 7.85238V4.71901H103.631C103.566 6.12989 103.388 7.1729 103.094 7.85238C102.748 8.67034 102.164 9.50995 101.346 10.3669L99.9823 9.27192C100.761 8.59244 101.289 7.93894 101.558 7.3114C101.839 6.77474 101.982 5.42445 101.982 3.25619H101.977ZM101.437 11.1329H107.794C108.036 10.9684 108.171 10.8819 108.197 10.8819C108.339 10.8819 108.465 10.9468 108.582 11.0723L109.504 11.9379C109.608 12.0417 109.659 12.1543 109.659 12.2841C109.659 12.4139 109.486 12.5741 109.14 12.7645C108.409 14.9025 107.591 16.4648 106.682 17.4516C107.76 17.9752 109.183 18.4253 110.966 18.7975L109.833 20.507C107.989 20.0223 106.483 19.4121 105.319 18.6807C104.267 19.4121 102.938 20.018 101.324 20.507L100.134 18.9317C101.298 18.6764 102.233 18.3864 102.938 18.0661C103.285 17.9147 103.592 17.7415 103.86 17.5468C102.99 16.7288 102.081 15.5473 101.134 14.0109L102.363 13.2059C103.272 14.6514 104.215 15.7551 105.184 16.5124C105.327 16.3566 105.453 16.1965 105.57 16.032C106.158 15.2876 106.704 14.1667 107.201 12.6693H101.437V11.1329Z" fill="#222222"/>
</svg>
