<svg width="140" height="456" viewBox="0 0 140 456" fill="none" xmlns="http://www.w3.org/2000/svg">
<path d="M55.2 323.07L54.21 316.85L46.22 318.17V299.04H54.88V292.74H46.22V274.2H40.02V292.74H29.81V299.04H40.02V319.19L29.26 320.96L30.25 327.18L40.03 325.57V344.13C40.03 344.13 40.11 348.02 38.07 350.1C37.07 351.12 35.68 351.58 33.76 351.51H33.33L33.3 357.8H33.7C33.89 357.82 34.07 357.82 34.25 357.82C37.63 357.82 40.33 356.74 42.49 354.52C46.24 350.67 46.26 345.06 46.23 343.98V324.55L55.21 323.07H55.2Z" fill="white"/>
<path d="M110.17 301.97C98.05 297.71 91.95 277.49 91.88 277.28L91.22 275.03H73.51L72.89 277.37C72.84 277.56 67.68 296.35 55.31 301.8L54.94 301.96L57.39 307.75L57.78 307.58C70.05 302.18 76.07 287.65 78.18 281.34H86.68C89.07 288.11 95.78 303.59 108.14 307.94L108.54 308.08L110.55 302.12L110.16 301.98L110.17 301.97Z" fill="white"/>
<path d="M97.78 306.12H66.56V312.42H97.78V306.12Z" fill="white"/>
<path d="M62.69 357.01H102.25V321.01H62.69V357.01ZM68.89 350.7V327.32H96.05V350.7H68.89Z" fill="white"/>
<path d="M82.83 413.96V380.33H71.53L73.44 372.2L67.75 370.62L65.46 380.32H56.37V413.96H79.11H82.82H82.83ZM76.96 407.63H62.26V400.57H76.96V407.63ZM76.96 394.25H62.26V386.65H76.96V394.25Z" fill="white"/>
<path d="M55.58 431.39C55.58 431.39 53.94 434.3 50.21 437.75C46.74 440.95 40.69 445.31 31.55 447.91L31.18 448.02L32.66 454.15L33.05 454.04C52.97 448.39 60.34 435.17 60.65 434.61L60.84 434.27L55.79 431.04L55.59 431.41L55.58 431.39Z" fill="white"/>
<path d="M108.28 447.98C94.38 442.66 86.98 431.94 84.16 426.96H107.2V420.63H72.85V416.31H66.98V420.63H31.9V426.96H66.98V442.01C66.98 442.01 66.95 444.24 66.15 446.33C65.05 449.21 63.4 449.58 62.08 449.58H61.68V455.91H62.08C66.51 455.91 69.9 453.3 71.65 448.56C72.77 445.5 72.85 442.59 72.85 442.04V426.97H77.46C78.69 429.84 86.53 446.39 106.3 453.95L106.68 454.1L108.62 448.13L108.26 447.99L108.28 447.98Z" fill="white"/>
<path d="M51.99 386.87L33.38 377.02V384.05L51.99 393.85V386.87Z" fill="white"/>
<path d="M51.99 399.16L33.38 405.17V411.78L51.99 405.76V399.16Z" fill="white"/>
<path d="M105.87 377.02L87.23 386.9V393.99L105.87 384.05V377.02Z" fill="white"/>
<path d="M105.87 405.17L87.23 399.15V405.75L105.87 411.78V405.17Z" fill="white"/>
<path d="M86.65 238.03C85.88 236.22 83.49 231.85 83.22 231.36L83.03 231.01L82.22 231.49V228.96H85.68V226.11H82.22V217.39H79.39V226.11H75.65V228.96H77.68C77.53 232.87 76.61 237.71 74.47 239.05L74.16 239.25L75.57 241.7L75.91 241.49C77.45 240.52 78.62 238.71 79.4 236.09V252.79H82.23V235.4C82.94 236.75 83.76 238.33 84.12 239.18L84.27 239.55L86.8 238.38L86.65 238.04V238.03Z" fill="white"/>
<path d="M102.73 224.31V222.3H106.91V219.36H102.73V217.39H99.7101V219.36H94.15V217.39H91.14V219.36H87.11V222.3H91.14V224.31H94.15V222.3H99.7101V224.31H102.73Z" fill="white"/>
<path d="M104.27 237.24V234.9H108.94V231.95H104.27V229.73H101.41V231.95H98.48V228.5H106.91V225.56H87.11V228.5H95.54V231.95H92.82V229.73H89.97V231.95H85.08V234.9H89.97V237.24H92.82V234.9H95.54V238.86H86.49V241.8H95.54V243.95H88.12V246.9H95.54V253.45H98.48V246.9H105.9V243.95H98.48V241.8H107.54V238.86H98.48V234.9H101.41V237.24H104.27Z" fill="white"/>
<path d="M35.33 235.39V250.04H38.26V248.97H44.56V229.13H38.02C38.68 226.04 38.81 222.94 38.83 221.6H44.62V218.58H33.39V221.6H35.91C35.86 224.97 35.23 231.3 33.05 233.49C32.56 233.99 31.89 234.21 31.27 234.18L30.89 234.16V237.17L31.27 237.19C32.72 237.25 34.01 236.74 35.09 235.65C35.17 235.57 35.25 235.48 35.33 235.39ZM41.64 232.15V245.94H38.27V232.15H41.64Z" fill="white"/>
<path d="M53.05 223.93H47.2V245H63.23V223.93H56.07L56.72 221.31H64.64V218.29H46.48V221.31H53.7L53.05 223.93ZM50.12 229.79V226.94H60.29V229.79H50.12ZM50.12 235.37V232.82H60.29V235.37H50.12ZM50.12 241.97V238.38H60.29V241.97H50.12Z" fill="white"/>
<path d="M64.4 250.52C62.33 249.6 61.54 247.84 61.25 246.84H58.23C58.45 247.99 59.41 251.58 63.23 253.29L63.59 253.45L64.74 250.67L64.4 250.52Z" fill="white"/>
<path d="M49.63 246.84C49.34 247.83 48.55 249.59 46.47 250.52L46.13 250.67L47.27 253.45L47.63 253.29C51.45 251.58 52.42 247.99 52.63 246.84H49.62H49.63Z" fill="white"/>
<path d="M123.7 30.03L97.25 3.58C94.96 1.29 91.85 0 88.61 0H51.2C47.96 0 44.85 1.29 42.56 3.58L16.11 30.03C13.82 32.32 12.53 35.43 12.53 38.67V76.08C12.53 79.32 13.82 82.43 16.11 84.72L42.56 111.17C44.85 113.46 47.96 114.75 51.2 114.75H88.61C91.85 114.75 94.96 113.46 97.25 111.17L123.7 84.72C125.99 82.43 127.28 79.32 127.28 76.08V38.67C127.28 35.43 125.99 32.32 123.7 30.03ZM122.19 66.35C122.19 74.47 118.96 82.26 113.22 88L100.53 100.69C94.79 106.43 87 109.66 78.88 109.66H60.93C52.81 109.66 45.02 106.43 39.28 100.69L26.59 88C20.85 82.26 17.62 74.47 17.62 66.35V48.4C17.62 40.28 20.85 32.49 26.59 26.75L39.28 14.06C45.02 8.32 52.81 5.09 60.93 5.09H78.88C87 5.09 94.79 8.32 100.53 14.06L113.22 26.75C118.96 32.49 122.19 40.28 122.19 48.4V66.35Z" fill="white"/>
<path d="M91.31 37.99C90.35 37.56 88.93 36.71 88.04 35.21C87.04 33.51 86.9 31.24 87.63 28.47L84.65 24.6H55.17L52.19 28.47C52.92 31.24 52.78 33.51 51.78 35.21C50.89 36.71 49.46 37.56 48.51 37.99L42.76 34.84L39.79 40.25L46.74 44.07L48.92 44.37C49.46 44.25 54.27 43.02 57.02 38.46C58.37 36.23 58.96 33.66 58.79 30.78H81.02C80.85 33.65 81.44 36.23 82.79 38.46C85.54 43.02 90.35 44.25 90.89 44.37L93.07 44.07L100.02 40.25L97.05 34.84L91.31 37.99Z" fill="white"/>
<path d="M53.38 58.77H87.03L88.52 58.38L95.14 54.72L92.15 49.32L86.23 52.6H54.03L47.27 49.65L44.81 55.3L52.15 58.51L53.38 58.77Z" fill="white"/>
<path d="M90.0601 67.63H50.3401L42.4501 64.79L40.3701 70.59L48.7701 73.61L48.8801 73.63V89.1L51.9601 92.18H87.8601L90.9401 89.1V73.75L92.0101 73.52L99.59 70.07L97.0401 64.46L90.0701 67.63H90.0601ZM55.0401 86.02V73.8H84.7701V86.02H55.0401Z" fill="white"/>
<path d="M12.4 154.11C11.81 154.43 10.33 154.83 8.45 154.83C2.58 154.83 0 150.78 0 146.15C0 140.02 4.06 136.91 8.74 136.91C10.54 136.91 12.01 137.28 12.66 137.68L11.84 141.34C11.16 141.02 10.19 140.71 8.94 140.71C6.52 140.71 4.43 142.29 4.43 145.85C4.43 149 6.13 150.96 9.01 150.96C10.03 150.96 11.17 150.74 11.82 150.46L12.4 154.1V154.11Z" fill="white"/>
<path d="M30.4 145.7C30.4 151.29 27.37 154.85 22.52 154.85C17.67 154.85 14.98 150.81 14.98 145.98C14.98 141.15 17.97 136.9 22.78 136.9C27.83 136.9 30.39 141.05 30.39 145.7H30.4ZM19.44 145.89C19.44 149.16 20.73 151.16 22.73 151.16C24.73 151.16 25.96 148.98 25.96 145.85C25.96 142.72 24.75 140.59 22.71 140.59C20.67 140.59 19.44 142.7 19.44 145.9V145.89Z" fill="white"/>
<path d="M38.57 137.18V147.04C38.57 149.66 39.39 151.15 41.06 151.15C42.73 151.15 43.55 149.8 43.55 147.04V137.18H47.75V146.77C47.75 152.14 45.34 154.85 40.93 154.85C36.52 154.85 34.38 152.24 34.38 146.66V137.18H38.58H38.57Z" fill="white"/>
<path d="M52.37 154.56V137.18H57.33L59.82 142.51C60.67 144.24 61.59 146.57 62.28 148.6H62.34C62.11 146.31 62.03 143.88 62.03 141.28V137.17H65.87V154.55H61.43L58.77 148.77C57.9 146.93 56.88 144.59 56.13 142.49H56.05C56.15 144.84 56.21 147.45 56.21 150.28V154.55H52.37V154.56Z" fill="white"/>
<path d="M73.58 141.09H69.58V137.18H81.86V141.09H77.79V154.56H73.59V141.09H73.58Z" fill="white"/>
<path d="M85.55 137.18H89.75V150.66H95.79V154.56H85.54V137.18H85.55Z" fill="white"/>
<path d="M109.43 147.55H103.79V150.75H110.09V154.55H99.58V137.17H109.76V140.97H103.78V143.77H109.42V147.53L109.43 147.55Z" fill="white"/>
<path d="M114.47 149.93C115.43 150.46 116.97 151.01 118.54 151.01C119.98 151.01 120.69 150.46 120.69 149.58C120.69 148.75 119.98 148.26 118.21 147.59C115.57 146.55 113.8 144.93 113.8 142.35C113.8 139.27 116.14 136.92 120.1 136.92C121.97 136.92 123.31 137.31 124.34 137.81L123.46 141.53C122.79 141.2 121.62 140.7 120.05 140.7C118.77 140.7 118.06 141.22 118.06 141.98C118.06 142.86 118.89 143.22 120.87 144.04C123.7 145.19 124.96 146.86 124.96 149.28C124.96 152.28 122.85 154.84 118.27 154.84C116.38 154.84 114.54 154.29 113.65 153.78L114.45 149.94L114.47 149.93Z" fill="white"/>
<path d="M129.28 149.93C130.24 150.46 131.78 151.01 133.35 151.01C134.79 151.01 135.5 150.46 135.5 149.58C135.5 148.75 134.79 148.26 133.02 147.59C130.38 146.55 128.61 144.93 128.61 142.35C128.61 139.27 130.95 136.92 134.91 136.92C136.78 136.92 138.12 137.31 139.15 137.81L138.27 141.53C137.6 141.2 136.43 140.7 134.86 140.7C133.58 140.7 132.87 141.22 132.87 141.98C132.87 142.86 133.7 143.22 135.68 144.04C138.51 145.19 139.77 146.86 139.77 149.28C139.77 152.28 137.66 154.84 133.08 154.84C131.19 154.84 129.35 154.29 128.46 153.78L129.26 149.94L129.28 149.93Z" fill="white"/>
<path d="M9.54999 168.03C10.69 167.82 12.34 167.66 14.72 167.66C16.98 167.66 18.6 168.11 19.7 169.05C20.77 169.93 21.49 171.46 21.49 173.23C21.49 175 20.96 176.53 19.97 177.52C18.7 178.78 16.86 179.34 14.74 179.34C14.33 179.34 13.97 179.3 13.72 179.28V185.18H9.55999V168.04L9.54999 168.03ZM13.71 175.7C13.94 175.74 14.22 175.76 14.67 175.76C16.31 175.76 17.33 174.82 17.33 173.33C17.33 172.03 16.56 171.16 14.95 171.16C14.33 171.16 13.92 171.21 13.7 171.27V175.7H13.71Z" fill="white"/>
<path d="M25.31 167.79H29.51V181.27H35.55V185.17H25.3V167.79H25.31Z" fill="white"/>
<path d="M49.2 178.16H43.56V181.36H49.86V185.16H39.35V167.78H49.53V171.58H43.55V174.38H49.19V178.14L49.2 178.16Z" fill="white"/>
<path d="M58.06 181.14L57.18 185.17H52.83L57.38 167.79H62.98L67.66 185.17H63.12L62.12 181.14H58.06ZM61.54 177.7L60.81 174.57C60.57 173.59 60.27 172.17 60.03 171.15H59.98C59.75 172.18 59.51 173.61 59.29 174.59L58.61 177.7H61.53H61.54Z" fill="white"/>
<path d="M71.7 180.54C72.66 181.07 74.2 181.62 75.77 181.62C77.21 181.62 77.92 181.07 77.92 180.19C77.92 179.36 77.22 178.87 75.44 178.2C72.8 177.16 71.03 175.54 71.03 172.96C71.03 169.88 73.37 167.53 77.33 167.53C79.21 167.53 80.54 167.92 81.57 168.42L80.69 172.14C80.01 171.81 78.85 171.31 77.28 171.31C76 171.31 75.3 171.83 75.3 172.59C75.3 173.47 76.13 173.83 78.11 174.65C80.94 175.8 82.2 177.47 82.2 179.89C82.2 182.89 80.09 185.45 75.51 185.45C73.62 185.45 71.78 184.9 70.89 184.39L71.69 180.55L71.7 180.54Z" fill="white"/>
<path d="M90.4 167.79V177.65C90.4 180.27 91.22 181.76 92.89 181.76C94.56 181.76 95.38 180.41 95.38 177.65V167.79H99.58V177.38C99.58 182.75 97.17 185.46 92.76 185.46C88.35 185.46 86.21 182.85 86.21 177.27V167.79H90.41H90.4Z" fill="white"/>
<path d="M104.2 168.03C105.39 167.82 107.17 167.66 109.27 167.66C111.67 167.66 113.4 168.03 114.58 169.01C115.59 169.86 116.13 171.1 116.13 172.8C116.13 174.97 114.66 176.51 113.44 177V177.09C114.48 177.59 115.05 178.7 115.45 180.2C115.92 181.97 116.44 184.49 116.74 185.16H112.44C112.2 184.66 111.79 183.3 111.34 181.16C110.92 179.08 110.34 178.65 109.04 178.65H108.36V185.17H104.2V168.03ZM108.36 175.31H109.45C111.03 175.31 111.95 174.45 111.95 173.15C111.95 171.85 111.18 171.11 109.78 171.09C108.99 171.09 108.57 171.13 108.36 171.19V175.3V175.31Z" fill="white"/>
<path d="M130.16 178.16H124.52V181.36H130.82V185.16H120.31V167.78H130.49V171.58H124.51V174.38H130.15V178.14L130.16 178.16Z" fill="white"/>
</svg>
