<svg width="168" height="54" viewBox="0 0 168 54" fill="none" xmlns="http://www.w3.org/2000/svg">
<path d="M5.12235 37.8261H0V34.1953H14.208V37.8261H9.08563V52.8289H5.12235V37.8261Z" fill="#A32424"/>
<path d="M17.2832 43.517C17.2832 42.0214 17.5262 40.6764 18.0029 39.463C18.4797 38.2496 19.162 37.2243 20.022 36.3684C20.8819 35.5218 21.9101 34.8634 23.0973 34.4025C24.2844 33.9416 25.5743 33.7158 26.9764 33.7158C28.3785 33.7158 29.6778 33.9416 30.8556 34.4025C32.0427 34.8634 33.0615 35.5124 33.9308 36.3684C34.7908 37.2243 35.4638 38.2496 35.9499 39.463C36.4359 40.6764 36.6696 42.0214 36.6696 43.517C36.6696 45.0126 36.4266 46.3577 35.9499 47.5711C35.4638 48.7845 34.7908 49.8097 33.9308 50.6657C33.0709 51.5216 32.0427 52.1707 30.8556 52.6316C29.6684 53.0831 28.3785 53.3182 26.9764 53.3182C25.5743 53.3182 24.275 53.0925 23.0973 52.6316C21.9101 52.1801 20.8913 51.5216 20.022 50.6657C19.162 49.8191 18.489 48.7845 18.0029 47.5711C17.5169 46.3577 17.2832 45.0126 17.2832 43.517ZM21.396 43.517C21.396 44.3918 21.5269 45.2007 21.7886 45.925C22.0504 46.6493 22.4242 47.2889 22.9197 47.825C23.4057 48.3612 23.9946 48.7751 24.6863 49.076C25.3687 49.377 26.1351 49.5275 26.9858 49.5275C27.8364 49.5275 28.5935 49.377 29.2852 49.076C29.9676 48.7751 30.5564 48.3612 31.0519 47.825C31.5379 47.2889 31.9212 46.6587 32.1829 45.925C32.4446 45.2007 32.5755 44.3918 32.5755 43.517C32.5755 42.6422 32.4446 41.8615 32.1829 41.1185C31.9212 40.3754 31.5473 39.7452 31.0519 39.209C30.5564 38.6729 29.9769 38.259 29.2852 37.958C28.6028 37.657 27.8364 37.5065 26.9858 37.5065C26.1351 37.5065 25.378 37.657 24.6863 37.958C24.004 38.259 23.4151 38.6729 22.9197 39.209C22.4242 39.7452 22.0504 40.3848 21.7886 41.1185C21.5269 41.8521 21.396 42.6517 21.396 43.517Z" fill="#A32424"/>
<path d="M41.5396 34.1953H45.5028V41.9366L52.4853 34.1953H57.6637L49.6718 42.8584L58.3461 52.8383H52.8125L45.5028 43.9965V52.8383H41.5396V34.1953Z" fill="#A32424"/>
<path d="M66.1607 44.8905L59.4119 34.2051H64.3379L68.1423 41.1844L72.1804 34.2051H76.8727L70.1239 44.8905V52.8386H66.1607V44.8905Z" fill="#A32424"/>
<path d="M79.2563 43.517C79.2563 42.0214 79.4994 40.6764 79.9761 39.463C80.4528 38.2496 81.1352 37.2243 81.9951 36.3684C82.8551 35.5218 83.8833 34.8634 85.0704 34.4025C86.2575 33.9416 87.5475 33.7158 88.9496 33.7158C90.3517 33.7158 91.6509 33.9416 92.8287 34.4025C94.0158 34.8634 95.0347 35.5124 95.904 36.3684C96.7639 37.2243 97.437 38.2496 97.923 39.463C98.4091 40.6764 98.6428 42.0214 98.6428 43.517C98.6428 45.0126 98.3997 46.3577 97.923 47.5711C97.437 48.7845 96.7639 49.8097 95.904 50.6657C95.044 51.5216 94.0158 52.1707 92.8287 52.6316C91.6416 53.0831 90.3517 53.3182 88.9496 53.3182C87.5475 53.3182 86.2482 53.0925 85.0704 52.6316C83.8833 52.1801 82.8644 51.5216 81.9951 50.6657C81.1352 49.8191 80.4622 48.7845 79.9761 47.5711C79.49 46.3577 79.2563 45.0126 79.2563 43.517ZM83.3598 43.517C83.3598 44.3918 83.4907 45.2007 83.7524 45.925C84.0141 46.6493 84.388 47.2889 84.8835 47.825C85.3695 48.3612 85.9584 48.7751 86.6501 49.076C87.3325 49.377 88.0989 49.5275 88.9496 49.5275C89.8002 49.5275 90.5573 49.377 91.249 49.076C91.9314 48.7751 92.5202 48.3612 93.0157 47.825C93.5017 47.2889 93.885 46.6587 94.1467 45.925C94.4084 45.2007 94.5393 44.3918 94.5393 43.517C94.5393 42.6422 94.4084 41.8615 94.1467 41.1185C93.885 40.3754 93.5111 39.7452 93.0157 39.209C92.5202 38.6729 91.9407 38.259 91.249 37.958C90.5666 37.657 89.8002 37.5065 88.9496 37.5065C88.0989 37.5065 87.3418 37.657 86.6501 37.958C85.9677 38.259 85.3789 38.6729 84.8835 39.209C84.388 39.7452 84.0141 40.3848 83.7524 41.1185C83.4907 41.8521 83.3598 42.6517 83.3598 43.517Z" fill="#A32424"/>
<path d="M113.056 34.1953H117.019V49.0476H124.357V52.8383H113.066V34.1953H113.056Z" fill="#A32424"/>
<path d="M129.022 34.1953H132.985V52.8383H129.022V34.1953Z" fill="#A32424"/>
<path d="M139.266 34.1953H151.324V37.986H143.229V41.7767H150.717V45.5673H143.229V52.8383H139.266V34.1953Z" fill="#A32424"/>
<path d="M155.334 34.1959H167.542V37.9866H159.298V41.4575H167.084V45.2481H159.298V49.0388H168V52.8295H155.334V34.1865V34.1959Z" fill="#A32424"/>
<path d="M2.00031 1.16113H4.64562L11.5533 17.161L18.461 1.16113H20.9754V20.2368H19.2088V3.42801H19.1527L11.9272 20.2368H11.1514L3.8137 3.42801H3.75762V20.2368H1.99097V1.16113H2.00031Z" fill="black"/>
<path d="M28.1261 1.16113H39.7168V2.77899H29.8927V9.57022H39.0999V11.1881H29.8927V18.6189H40.1468V20.2368H28.1261V1.16113Z" fill="black"/>
<path d="M46.1384 1.16113H57.7291V2.77899H47.9051V9.57022H57.1122V11.1881H47.9051V18.6189H58.1591V20.2368H46.1384V1.16113Z" fill="black"/>
<path d="M68.3571 2.77899H61.8794V1.16113H76.6015V2.77899H70.1238V20.2368H68.3571V2.77899Z" fill="black"/>
<path d="M91.0058 16.2487C91.361 17.1611 91.8471 17.8666 92.464 18.3651C93.0809 18.8636 93.9222 19.1082 94.9971 19.1082C95.6888 19.1082 96.3058 19.0047 96.8479 18.7884C97.3807 18.572 97.8294 18.2804 98.1752 17.8948C98.5211 17.5185 98.7828 17.0764 98.9604 16.5779C99.138 16.0794 99.2315 15.5338 99.2315 14.9601C99.2315 14.264 99.0819 13.662 98.7922 13.1541C98.5024 12.6556 98.1098 12.2417 97.6424 11.9313C97.1657 11.6209 96.6329 11.3857 96.0347 11.2446C95.4364 11.1035 94.8382 11.0283 94.2306 11.0283H93.5389V9.41043H94.3428C94.8382 9.41043 95.343 9.34459 95.8571 9.2129C96.3712 9.08122 96.8199 8.86488 97.2218 8.58269C97.6237 8.2911 97.9509 7.92426 98.2033 7.46336C98.4556 7.00246 98.5772 6.45691 98.5772 5.80788C98.5772 4.78261 98.2594 3.94546 97.6237 3.28703C96.9881 2.6286 96.1375 2.29939 95.0719 2.29939C94.2867 2.29939 93.5857 2.49692 92.9594 2.90138C92.3331 3.30585 91.8471 3.8514 91.4825 4.52865L89.9589 3.66328C90.473 2.67564 91.1834 1.96077 92.0901 1.50927C92.9874 1.05778 93.9876 0.832031 95.0719 0.832031C95.7823 0.832031 96.4647 0.935499 97.1096 1.14243C97.7546 1.34937 98.3154 1.65037 98.7922 2.05483C99.2782 2.45929 99.6521 2.96723 99.9325 3.57863C100.213 4.19002 100.344 4.90489 100.344 5.73263C100.344 6.77671 100.054 7.69852 99.4839 8.49804C98.9137 9.29756 98.0724 9.85252 96.9694 10.1535V10.21C97.577 10.3134 98.1285 10.5204 98.6146 10.8119C99.11 11.1129 99.5306 11.4704 99.8858 11.9031C100.241 12.3357 100.521 12.8155 100.718 13.361C100.914 13.8972 101.007 14.4709 101.007 15.0823C101.007 15.8348 100.886 16.5497 100.643 17.2081C100.4 17.876 100.035 18.4497 99.5493 18.9483C99.0539 19.4468 98.4463 19.8324 97.7172 20.124C96.9881 20.4156 96.1282 20.5567 95.1467 20.5567C93.7165 20.5567 92.5107 20.2557 91.5199 19.6537C90.5291 19.0517 89.7813 18.1017 89.2859 16.8131L91.0245 16.2487H91.0058Z" fill="black"/>
<path d="M108.719 9.57022H108.775C109.093 9.29745 109.532 9.09992 110.075 8.96823C110.617 8.83655 111.121 8.7707 111.589 8.7707C112.43 8.7707 113.206 8.9212 113.916 9.2316C114.627 9.5326 115.244 9.95588 115.767 10.4826C116.281 11.0094 116.683 11.6302 116.973 12.345C117.263 13.0505 117.403 13.8218 117.403 14.6495C117.403 15.4773 117.244 16.305 116.935 17.0293C116.627 17.7536 116.188 18.3838 115.636 18.9011C115.085 19.4185 114.43 19.8323 113.664 20.1239C112.907 20.4249 112.084 20.566 111.187 20.566C110.29 20.566 109.467 20.4155 108.71 20.1239C107.953 19.8323 107.298 19.4185 106.747 18.9011C106.195 18.3838 105.756 17.7536 105.448 17.0293C105.139 16.305 104.98 15.5055 104.98 14.6495C104.98 14.151 105.036 13.6713 105.139 13.2198C105.242 12.7683 105.392 12.345 105.569 11.9406C105.747 11.5361 105.934 11.1599 106.13 10.793C106.326 10.4356 106.523 10.097 106.719 9.76775L111.851 1.16113H113.888L108.719 9.56082V9.57022ZM111.187 10.1628C110.561 10.1628 109.981 10.2757 109.448 10.5108C108.915 10.746 108.448 11.0658 108.046 11.4703C107.644 11.8747 107.326 12.3544 107.093 12.9C106.859 13.4456 106.747 14.0287 106.747 14.6401C106.747 15.308 106.85 15.91 107.065 16.4555C107.28 17.0011 107.579 17.4714 107.971 17.8664C108.364 18.2615 108.831 18.5625 109.373 18.7788C109.916 18.9952 110.523 19.0986 111.178 19.0986C111.832 19.0986 112.439 18.9952 112.982 18.7788C113.524 18.5625 113.991 18.2615 114.384 17.8664C114.776 17.4714 115.075 17.0011 115.29 16.4555C115.505 15.91 115.608 15.2986 115.608 14.6401C115.608 14.0287 115.496 13.455 115.262 12.9C115.029 12.3544 114.711 11.8747 114.309 11.4703C113.907 11.0658 113.43 10.746 112.888 10.5108C112.346 10.2757 111.766 10.1628 111.159 10.1628H111.187Z" fill="black"/>
<path d="M120.983 10.6991C120.983 10.0124 121.011 9.29756 121.076 8.52626C121.142 7.76436 121.254 7.02127 121.422 6.28759C121.59 5.56332 121.824 4.86727 122.114 4.20884C122.413 3.55041 122.787 2.97663 123.254 2.4687C123.722 1.97017 124.273 1.56571 124.927 1.27412C125.582 0.98253 126.348 0.832031 127.246 0.832031C128.143 0.832031 128.909 0.98253 129.564 1.27412C130.218 1.57512 130.769 1.97017 131.237 2.4687C131.704 2.96723 132.078 3.55041 132.377 4.20884C132.676 4.86727 132.901 5.55392 133.069 6.28759C133.237 7.01187 133.359 7.76436 133.415 8.52626C133.48 9.28815 133.508 10.0124 133.508 10.6991C133.508 11.3857 133.48 12.1288 133.415 12.8813C133.349 13.6338 133.237 14.3769 133.069 15.1012C132.901 15.8254 132.667 16.5215 132.377 17.1799C132.087 17.8383 131.704 18.4121 131.237 18.92C130.769 19.4186 130.218 19.823 129.564 20.1146C128.909 20.4156 128.143 20.5567 127.246 20.5567C126.348 20.5567 125.582 20.4062 124.927 20.1146C124.273 19.823 123.722 19.4186 123.254 18.92C122.787 18.4215 122.413 17.8383 122.114 17.1799C121.824 16.5215 121.59 15.8348 121.422 15.1012C121.254 14.3769 121.132 13.6338 121.076 12.8813C121.011 12.1288 120.983 11.4045 120.983 10.6991ZM122.749 10.6991C122.749 11.1976 122.768 11.7526 122.806 12.3546C122.843 12.9565 122.908 13.5679 123.021 14.1888C123.123 14.8096 123.282 15.4116 123.488 16.0041C123.694 16.5967 123.965 17.1235 124.292 17.5844C124.619 18.0453 125.03 18.4121 125.507 18.6849C125.993 18.9671 126.573 19.0988 127.246 19.0988C127.919 19.0988 128.479 18.9577 128.975 18.6849C129.461 18.4027 129.872 18.0359 130.209 17.5844C130.536 17.1235 130.807 16.5967 131.013 16.0041C131.218 15.4116 131.377 14.8096 131.48 14.1888C131.583 13.5679 131.657 12.9565 131.695 12.3546C131.732 11.7526 131.751 11.1976 131.751 10.6991C131.751 10.2006 131.732 9.6644 131.695 9.053C131.657 8.4416 131.592 7.8302 131.48 7.2094C131.377 6.58859 131.218 5.9866 131.013 5.39401C130.807 4.80142 130.536 4.27468 130.209 3.81378C129.881 3.35288 129.47 2.98604 128.975 2.71326C128.479 2.43108 127.909 2.29939 127.246 2.29939C126.582 2.29939 126.012 2.44048 125.516 2.71326C125.021 2.99544 124.619 3.36228 124.282 3.81378C123.946 4.26527 123.684 4.80142 123.479 5.39401C123.273 5.9866 123.114 6.58859 123.011 7.2094C122.908 7.8302 122.834 8.4416 122.796 9.053C122.759 9.6644 122.74 10.21 122.74 10.6991H122.749Z" fill="black"/>
<path d="M141.706 8.60186C141.173 8.60186 140.668 8.4984 140.192 8.29146C139.715 8.08453 139.313 7.80234 138.958 7.45432C138.612 7.10629 138.341 6.69242 138.145 6.2127C137.948 5.73299 137.855 5.22506 137.855 4.68891C137.855 4.15276 137.948 3.64483 138.145 3.18393C138.341 2.71362 138.612 2.30916 138.958 1.96113C139.304 1.6131 139.715 1.34032 140.192 1.14279C140.668 0.945264 141.173 0.841797 141.706 0.841797C142.239 0.841797 142.743 0.945264 143.201 1.14279C143.669 1.34032 144.071 1.6131 144.417 1.96113C144.762 2.30916 145.043 2.72303 145.248 3.18393C145.454 3.65423 145.557 4.15276 145.557 4.68891C145.557 5.22506 145.454 5.73299 145.248 6.2127C145.043 6.69242 144.762 7.10629 144.417 7.45432C144.071 7.80234 143.659 8.08453 143.201 8.29146C142.734 8.4984 142.239 8.60186 141.706 8.60186ZM141.706 7.30382C142.416 7.30382 143.024 7.04985 143.529 6.55133C144.024 6.0528 144.276 5.4414 144.276 4.71713C144.276 3.99285 144.024 3.39086 143.529 2.88293C143.033 2.3844 142.426 2.13044 141.706 2.13044C140.986 2.13044 140.388 2.3844 139.883 2.88293C139.388 3.38146 139.135 3.99285 139.135 4.71713C139.135 5.4414 139.388 6.04339 139.883 6.55133C140.379 7.04985 140.986 7.30382 141.706 7.30382Z" fill="black"/>
</svg>
