<svg width="269" height="115" viewBox="0 0 269 115" fill="none" xmlns="http://www.w3.org/2000/svg">
<path d="M207.364 38.0464C205.657 38.0464 203.694 38.6959 203.694 43.7725L203.921 70.7413C203.921 75.3158 205.577 75.9812 206.123 76.2004L207.803 76.8738L202.242 85.3215C201.819 86.2659 201.572 87.1784 201.512 88.0272V95.7855C201.611 96.6263 201.827 96.6263 202.094 96.6263H215.04C215.506 96.6263 216.217 96.4788 216.983 95.1917L229.11 76.7344H236.913V93.5102C236.937 94.4227 237.081 96.6263 237.951 96.6263H268.266C268.813 96.5904 269.004 96.4828 269.004 95.6261V84.0623C269.004 83.4885 268.968 83.2295 268.122 83.1817L252.624 83.0502V76.7344H263.383C265.198 76.7344 267.285 76.0848 267.285 71.0083V43.7804C267.285 38.7357 265.254 38.0544 263.267 38.0544H207.364V38.0464ZM218.941 48.5024H252.265V53.9575H218.941V48.5024ZM252.492 66.0194H218.941V60.4367H252.492V66.0194Z" fill="white"/>
<path d="M195.077 82.911H188.793V41.5652H195.156C195.691 41.5652 196.126 41.0432 196.126 40.4016V31.9181C196.126 31.2765 195.691 30.7545 195.156 30.7545H188.793V3.08041C188.793 2.15595 188.155 1.40283 187.373 1.40283H173.985C173.199 1.40283 172.565 2.15595 172.565 3.08041V30.7505H166.201C165.667 30.7505 165.236 31.2725 165.236 31.9141V40.3976C165.236 41.0392 165.671 41.5612 166.201 41.5612H172.565V82.907H166.122C165.587 82.907 165.156 83.429 165.156 84.0705V95.2119C165.156 95.8535 165.591 96.3755 166.122 96.3755H195.081C195.615 96.3755 196.05 95.8535 196.05 95.2119V84.0705C196.05 83.429 195.615 82.907 195.081 82.907L195.077 82.911Z" fill="white"/>
<path d="M266.81 22.2549H257.535L262.078 15.182H265.378C266.251 15.182 267.037 14.9907 267.037 12.6875C266.961 10.2409 266.906 7.77035 266.87 5.31574C266.838 3.10819 266.056 3.10819 265.485 3.10819H245.207V1.62187C245.207 0.589822 244.976 0.0558651 243.715 -0.00390625H235.553H227.391C226.13 0.0518803 225.899 0.585838 225.899 1.62187V3.10819H205.621C205.05 3.10819 204.272 3.10819 204.236 5.31574C204.201 7.77035 204.145 10.2449 204.069 12.6875C204.069 14.9907 204.855 15.182 205.728 15.182H209.028L213.572 22.2549H204.296C203.766 22.2549 202.968 22.2549 202.968 24.6259V31.9618C202.968 34.1773 203.742 34.4164 204.544 34.4562H266.551C267.352 34.4164 268.126 34.1773 268.126 31.9618V24.6259C268.126 22.2549 267.328 22.2549 266.798 22.2549H266.81ZM246.157 22.2549H224.961L219.827 15.182H251.295L246.161 22.2549H246.157Z" fill="white"/>
<path d="M154.229 91.1033C145.588 81.7232 119.011 43.9677 117.882 42.3658L117.531 41.8677V35.9025H152.574C153.515 35.9025 153.958 35.7312 153.958 34.1532V15.381C153.958 13.5042 153.424 13.5042 152.805 13.5042H117.415V1.33079C117.415 0.816758 117.001 0.402344 116.486 0.402344H93.6985C93.1839 0.402344 92.769 0.816758 92.769 1.33079V13.5002H57.3792C56.7609 13.5002 56.2263 13.5002 56.2263 15.377V34.1492C56.2263 35.7272 56.6691 35.8985 57.6066 35.8985H92.6533V41.8637L92.3022 42.3618C91.1772 43.9637 64.6 81.7192 55.955 91.0993C54.7382 92.4223 54.2356 94.2632 54.7382 95.5822C55.2449 96.9131 56.6412 97.196 57.7223 97.196H74.1027C75.9258 97.196 77.6213 96.2835 79.2849 94.4067L105.088 65.5172L130.888 94.4067C132.555 96.2835 134.251 97.2 136.074 97.2H152.454C153.535 97.2 154.932 96.9211 155.438 95.5862C155.941 94.2712 155.438 92.4263 154.221 91.1033H154.229Z" fill="white"/>
<path d="M55.4326 114.861V110.302H60.2678V111.422H57.1999V111.964H59.6853V113.088H57.1999V113.685H60.4193V114.861H55.4326Z" fill="white"/>
<path d="M65.5138 114.861L67.5483 112.458L65.805 110.302H67.9393L68.5656 111.29L69.2398 110.302H71.3502L69.5829 112.458L71.5776 114.861H69.3635L68.5497 113.637L67.7159 114.861H65.5098H65.5138Z" fill="white"/>
<path d="M78.2239 114.861V111.458H76.5723V110.302H81.6507V111.458H79.9912V114.861H78.2239Z" fill="white"/>
<path d="M87.3438 114.861V110.302H92.1789V111.422H89.111V111.964H91.5964V113.088H89.111V113.685H92.3305V114.861H87.3438Z" fill="white"/>
<path d="M98.0753 114.861V110.302H100.166L101.925 112.928V110.302H103.636V114.861H101.654L99.7388 112.191V114.861H98.0713H98.0753Z" fill="white"/>
<path d="M109.541 113.474H111.683C111.699 113.594 111.775 113.689 111.915 113.757C112.05 113.825 112.242 113.857 112.481 113.857C112.721 113.857 112.9 113.829 113.016 113.777C113.135 113.725 113.195 113.641 113.195 113.534C113.195 113.438 113.143 113.358 113.04 113.299C112.936 113.239 112.776 113.199 112.565 113.171L111.244 113.008C110.698 112.944 110.287 112.797 110.008 112.565C109.733 112.338 109.593 112.032 109.593 111.649C109.593 111.139 109.8 110.768 110.219 110.533C110.638 110.298 111.304 110.183 112.222 110.183C113.139 110.183 113.881 110.302 114.34 110.533C114.803 110.768 115.054 111.131 115.09 111.629H113.036C113.012 111.486 112.928 111.378 112.776 111.306C112.625 111.235 112.413 111.199 112.142 111.199C111.947 111.199 111.791 111.227 111.675 111.278C111.564 111.334 111.508 111.406 111.508 111.498C111.508 111.585 111.552 111.649 111.639 111.697C111.727 111.741 111.907 111.784 112.186 111.824L113.798 112.051C114.3 112.123 114.679 112.271 114.927 112.49C115.178 112.713 115.302 113.008 115.302 113.382C115.302 113.94 115.05 114.351 114.556 114.614C114.057 114.877 113.271 115.004 112.202 115.004C111.348 115.004 110.698 114.873 110.239 114.61C109.784 114.347 109.553 113.968 109.545 113.478L109.541 113.474Z" fill="white"/>
<path d="M121.193 114.861V110.302H122.961V114.861H121.193Z" fill="white"/>
<path d="M130.373 114.861L128.358 110.302H130.353L131.319 113.355L132.336 110.302H134.315L132.216 114.861H130.369H130.373Z" fill="white"/>
<path d="M139.725 114.861V110.302H144.56V111.422H141.492V111.964H143.977V113.088H141.492V113.685H144.711V114.861H139.725Z" fill="white"/>
<path d="M176.235 114.861V111.458H174.583V110.302H179.661V111.458H178.002V114.861H176.235Z" fill="white"/>
<path d="M185.354 114.861V110.302H190.19V111.422H187.122V111.964H189.607V113.088H187.122V113.685H190.341V114.861H185.354Z" fill="white"/>
<path d="M199.565 110.302C199.96 110.302 200.279 110.322 200.518 110.358C200.757 110.394 200.941 110.454 201.077 110.537C201.248 110.637 201.376 110.772 201.468 110.944C201.555 111.115 201.603 111.31 201.603 111.53C201.603 111.801 201.535 112.036 201.404 112.239C201.268 112.442 201.085 112.589 200.849 112.681C201.053 112.765 201.192 112.872 201.272 112.996C201.352 113.119 201.4 113.339 201.416 113.653C201.416 113.689 201.416 113.737 201.424 113.797C201.452 114.395 201.531 114.725 201.663 114.789V114.861H199.696C199.636 114.765 199.604 114.578 199.597 114.299C199.597 114.136 199.585 114.012 199.577 113.92C199.557 113.753 199.501 113.637 199.409 113.57C199.317 113.502 199.158 113.47 198.938 113.47H197.881V114.861H196.09V110.302H199.565ZM197.881 112.271H198.91C199.178 112.271 199.369 112.239 199.477 112.175C199.589 112.111 199.64 112.004 199.64 111.852C199.64 111.701 199.589 111.601 199.485 111.542C199.381 111.482 199.174 111.454 198.862 111.454H197.877V112.267L197.881 112.271Z" fill="white"/>
<path d="M211.015 110.302C211.41 110.302 211.729 110.322 211.968 110.358C212.208 110.394 212.391 110.454 212.527 110.537C212.698 110.637 212.826 110.772 212.918 110.944C213.006 111.115 213.053 111.31 213.053 111.53C213.053 111.801 212.986 112.036 212.854 112.239C212.718 112.442 212.535 112.589 212.299 112.681C212.503 112.765 212.642 112.872 212.722 112.996C212.802 113.119 212.85 113.339 212.866 113.653C212.866 113.689 212.866 113.737 212.874 113.797C212.902 114.395 212.982 114.725 213.113 114.789V114.861H211.146C211.087 114.765 211.055 114.578 211.047 114.299C211.047 114.136 211.035 114.012 211.027 113.92C211.007 113.753 210.951 113.637 210.859 113.57C210.767 113.502 210.608 113.47 210.388 113.47H209.331V114.861H207.54V110.302H211.015ZM209.331 112.271H210.361C210.628 112.271 210.819 112.239 210.927 112.175C211.039 112.111 211.095 112.004 211.095 111.852C211.095 111.701 211.043 111.601 210.939 111.542C210.835 111.482 210.628 111.454 210.317 111.454H209.331V112.267V112.271Z" fill="white"/>
<path d="M218.985 114.861V110.302H220.753V114.861H218.985Z" fill="white"/>
<path d="M228.093 114.861V111.458H226.441V110.302H231.52V111.458H229.86V114.861H228.093Z" fill="white"/>
<path d="M236.949 112.581C236.949 111.788 237.209 111.191 237.723 110.788C238.238 110.382 239.004 110.183 240.017 110.183C241.03 110.183 241.796 110.386 242.315 110.788C242.83 111.191 243.089 111.788 243.089 112.581C243.089 113.374 242.83 113.972 242.315 114.375C241.796 114.777 241.034 114.98 240.017 114.98C239 114.98 238.238 114.777 237.723 114.375C237.209 113.972 236.949 113.374 236.949 112.581ZM238.848 112.581C238.848 112.98 238.948 113.283 239.151 113.49C239.351 113.701 239.642 113.805 240.021 113.805C240.4 113.805 240.691 113.701 240.891 113.49C241.09 113.283 241.19 112.98 241.19 112.581C241.19 112.183 241.09 111.876 240.891 111.665C240.691 111.454 240.4 111.346 240.021 111.346C239.642 111.346 239.351 111.454 239.151 111.665C238.952 111.876 238.848 112.183 238.848 112.581Z" fill="white"/>
<path d="M252.481 110.302C252.876 110.302 253.195 110.322 253.434 110.358C253.673 110.394 253.857 110.454 253.993 110.537C254.164 110.637 254.292 110.772 254.384 110.944C254.471 111.115 254.519 111.31 254.519 111.53C254.519 111.801 254.451 112.036 254.32 112.239C254.184 112.442 254.001 112.589 253.765 112.681C253.969 112.765 254.108 112.872 254.188 112.996C254.268 113.119 254.316 113.339 254.332 113.653C254.332 113.689 254.332 113.737 254.34 113.797C254.368 114.395 254.447 114.725 254.579 114.789V114.861H252.612C252.552 114.765 252.521 114.578 252.513 114.299C252.513 114.136 252.501 114.012 252.493 113.92C252.473 113.753 252.417 113.637 252.325 113.57C252.233 113.502 252.074 113.47 251.854 113.47H250.797V114.861H249.006V110.302H252.481ZM250.797 112.271H251.826C252.094 112.271 252.285 112.239 252.393 112.175C252.505 112.111 252.556 112.004 252.556 111.852C252.556 111.701 252.505 111.601 252.401 111.542C252.297 111.482 252.09 111.454 251.778 111.454H250.793V112.267L250.797 112.271Z" fill="white"/>
<path d="M261.683 114.861V113.574L259.681 110.302H261.759L262.581 112.179L263.455 110.302H265.489L263.455 113.574V114.861H261.683Z" fill="white"/>
<path d="M169.493 112.175H151.306V113.255H169.493V112.175Z" fill="white"/>
<path d="M13.9432 25.9646H37.0377C37.4606 25.9646 37.4606 25.8531 37.4606 25.614L37.4167 21.2786C37.4167 21.1072 37.4167 20.9598 36.8662 20.9598H28.7837V18.0071H36.567C37.0337 18.0071 37.0337 17.8995 37.0337 17.7361L36.9898 13.4446C36.9898 13.3011 36.9898 13.1656 36.4393 13.1656H28.7837V11.7909C28.7837 11.6235 28.7837 11.5996 28.4885 11.5996H21.9818C21.7384 11.5996 21.6985 11.6195 21.6866 11.9025V13.1696L14.1107 13.1258C13.648 13.1258 13.648 13.2294 13.648 13.4366V17.3735C13.648 17.9194 13.8115 18.0071 14.1985 18.0071H21.6866V20.9598H13.8594C13.4365 20.9598 13.4365 21.0594 13.4365 21.2706V25.61C13.4365 25.8212 13.4365 25.9607 13.9432 25.9607V25.9646Z" fill="white"/>
<path d="M37.6362 40.6366H29.0231V37.2774H37.321C37.716 37.2774 37.8077 37.1858 37.8077 36.7753V31.364C37.8077 31.0971 37.8077 30.866 37.1375 30.866H29.0191V28.0288C28.9992 28.0288 28.9713 28.0288 28.9393 28.0288H22.0018C21.4473 28.0288 21.4273 28.1842 21.4194 28.252V30.8699H13.4406C13.0137 30.8699 12.906 30.9775 12.906 31.4198V36.7793C12.906 37.0901 12.9459 37.2814 13.5284 37.2814H21.4234V40.6406H13.1693C12.7983 40.6406 12.6826 40.7163 12.6826 41.1905V47.1038C12.6826 47.6019 12.8542 47.8012 13.3369 47.8609H37.7878C38.1069 47.8051 38.3024 47.6697 38.3024 47.1038L38.2585 41.1984C38.2585 40.8517 38.2186 40.6445 37.6362 40.6445V40.6366Z" fill="white"/>
<path d="M10.2526 11.3765H5.55714C5.15023 11.3765 4.93879 11.52 4.80315 11.8906L0.60632 22.6454C0.438766 23.1037 0.303127 23.6018 0.203392 24.1198C-0.115758 25.7655 -0.0559177 27.1641 0.358978 27.7698C0.546479 28.1085 1.16084 28.4871 1.32441 28.4871H2.74862V46.8568C2.74862 47.8331 3.08772 47.8331 3.30713 47.8331H8.8045C9.04386 47.8331 9.40291 47.8331 9.40291 46.8568L9.51461 22.2509L10.5279 17.9115C10.6715 17.4174 10.7393 16.9552 10.7393 16.489V11.7431C10.7074 11.4961 10.6316 11.3726 10.2566 11.3726L10.2526 11.3765Z" fill="white"/>
<path d="M13.4397 64.6446C12.6379 64.2103 11.9277 63.7082 11.3293 63.1583C10.8107 62.6802 10.4397 62.19 10.2362 61.7079C10.0128 61.1859 9.51018 60.8472 8.95167 60.8472H6.3466C5.79208 60.8472 5.28942 61.1819 5.06202 61.7039C4.85058 62.194 4.45962 62.7001 3.90111 63.2181C3.27877 63.7959 2.60855 64.2741 1.90243 64.6407C1.43567 64.8877 1.14844 65.3699 1.14844 65.8998V69.004C1.14844 69.51 1.40376 69.9683 1.83461 70.2273C2.26945 70.4903 2.81201 70.4943 3.25084 70.2392C4.23223 69.6694 5.10989 69.0717 5.86389 68.47C6.53011 67.936 7.12453 67.3702 7.64315 66.7884C8.15778 67.4021 8.73624 67.9639 9.37454 68.466C10.0966 69.0518 11.0182 69.6575 12.1073 70.2631C12.3187 70.3787 12.5501 70.4385 12.7855 70.4385C13.0408 70.4385 13.2921 70.3707 13.5155 70.2313C13.9384 69.9723 14.1857 69.518 14.1857 69.0159V65.8919C14.1857 65.3659 13.9025 64.8877 13.4437 64.6407L13.4397 64.6446Z" fill="white"/>
<path d="M38.5369 73.2797H27.7536C27.4344 73.2797 27.1831 73.0804 27.0515 72.7178C26.9198 72.3592 26.9238 71.897 27.0674 71.4188L27.227 70.9366C27.2749 70.7693 27.3547 70.4266 27.2709 70.1955C27.1951 69.9883 26.9916 69.8647 26.7124 69.8647H22.9025C22.4956 69.8647 22.2283 70.1477 22.0568 70.7573L21.59 72.2755C21.3865 72.9529 21.0834 73.2837 20.6565 73.2837H15.8652C15.4224 73.2837 15.199 73.6622 15.199 74.4074V76.842C15.199 77.5872 15.4224 77.9658 15.8652 77.9658H18.7216C19.0328 77.9658 19.2762 78.157 19.4038 78.5077C19.5355 78.8663 19.5275 79.3365 19.3799 79.8306L15.1432 95.1281C15.0355 95.5146 15.0155 95.8334 15.0873 96.0286C15.1591 96.2239 15.3386 96.3275 15.59 96.3275H19.4278C19.8347 96.3275 20.102 96.0446 20.2735 95.4389L24.8493 78.9898C25.0568 78.2965 25.36 77.9658 25.7868 77.9658H38.5369C38.9797 77.9658 39.2031 77.5872 39.2031 76.842V74.4074C39.2031 73.6622 38.9797 73.2837 38.5369 73.2837V73.2797Z" fill="white"/>
<path d="M36.2275 87.2425C36.0799 86.5691 35.8286 86.2742 35.4216 86.2742H32.2262C31.9948 86.2742 31.8192 86.3778 31.7434 86.5691C31.6597 86.7683 31.6676 87.103 31.7554 87.5055L32.0626 89.2827C32.1583 89.729 32.2501 90.3267 32.0746 90.7451C32.0027 90.9164 31.8591 91.1197 31.5799 91.1197L28.4442 91.1037C28.0213 91.1994 27.8099 90.8806 27.7261 90.6853C27.6424 90.4901 27.5267 90.0557 27.7261 89.3544L29.9761 82.4289C30.0799 82.0623 30.0998 81.7435 30.028 81.5523C29.9562 81.357 29.7767 81.2534 29.5253 81.2534H26.5772C26.1703 81.2534 25.903 81.5363 25.7314 82.146L22.8351 90.6694C22.6636 91.299 22.5918 91.8011 22.5918 92.4227V95.1483C22.5918 95.4272 22.6357 95.6822 22.7115 95.9771C22.7594 96.1723 22.8152 96.4114 23.266 96.5589C23.266 96.5589 34.0493 96.5589 34.1929 96.5589H37.6038C37.8472 96.5589 38.0267 96.4433 38.1105 96.2401C38.1943 96.0369 38.1903 95.7101 38.1025 95.3236L36.2275 87.2505V87.2425Z" fill="white"/>
<path d="M38.5371 62.7679H31.44C30.9054 62.7679 30.5703 62.2061 30.5703 61.3015V60.9907C30.5703 60.2336 30.2073 60.0742 29.9041 60.0742H24.4985C24.1953 60.0742 23.8322 60.2336 23.8322 60.9907V61.3015C23.8322 62.2061 23.5011 62.7679 22.9626 62.7679H15.8654C15.4226 62.7679 15.1992 63.1465 15.1992 63.8916V69.8448C15.1992 70.59 15.4226 70.9685 15.8654 70.9685H20.4413C20.8841 70.9685 21.1075 70.59 21.1075 69.8448V68.239C21.1075 67.3225 21.4306 66.7766 21.9772 66.7766H32.4214C32.9639 66.7766 33.2911 67.3225 33.2911 68.239V69.8448C33.2911 70.59 33.5145 70.9685 33.9573 70.9685H38.5331C38.9759 70.9685 39.1993 70.59 39.1993 69.8448V63.8916C39.1993 63.1465 38.9759 62.7679 38.5331 62.7679H38.5371Z" fill="white"/>
<path d="M13.077 91.5341H10.5716C10.7232 91.3906 10.8828 91.2512 11.0663 91.1077C11.7286 90.5897 12.4467 90.1633 13.1927 89.8326C13.4959 89.7011 13.6834 89.4261 13.6834 89.1074V86.4814C13.6834 86.2184 13.5477 85.9714 13.3163 85.8199C13.053 85.6486 12.71 85.6247 12.4267 85.7642C11.6568 86.1427 10.9706 86.5332 10.3403 86.9317V83.7598H13.3483C13.5038 83.7598 13.7392 83.7598 13.7392 82.9748L13.7033 79.5997C13.7033 79.2929 13.6714 78.7789 13.456 78.7669H10.3044V78.4362V76.8463H13.077C13.3682 76.8343 13.6395 76.7626 13.6395 76.0175V72.0048C13.6195 71.2357 13.3961 71.2238 13.2884 71.2158H10.3044H7.74317H6.55434H4.71523H2.1341C1.86283 71.2278 1.61149 71.2995 1.61149 72.0446V76.0573C1.63144 76.8264 1.83889 76.8383 1.93862 76.8463H2.51309H4.70725V78.7231H1.99448C1.71921 78.7231 1.60751 78.7669 1.60751 79.2053V82.9748C1.60751 83.7598 1.8708 83.7598 2.06229 83.7598H4.70725V86.6727C4.18066 86.3698 3.59422 86.059 2.92799 85.7482C2.63677 85.6127 2.29767 85.6406 2.03836 85.812C1.81495 85.9594 1.67931 86.2065 1.67931 86.4655V89.1074C1.67931 89.4182 1.86283 89.6931 2.15804 89.8246C3.00778 90.2151 3.75778 90.6614 4.39209 91.1515C4.5038 91.2392 4.60353 91.3269 4.70327 91.4106V91.5221H2.59687C1.89075 91.5221 1.60352 91.566 1.60352 92.0242V95.4312C1.60352 96.252 2.27772 96.252 2.7724 96.252H13.069C13.4719 96.252 13.803 95.8974 13.803 95.4631V92.3071C13.803 91.8728 13.4719 91.5181 13.069 91.5181L13.077 91.5341Z" fill="white"/>
</svg>
