<svg width="272" height="44" viewBox="0 0 272 44" fill="none" xmlns="http://www.w3.org/2000/svg">
<path d="M3.42754 12.5342C6.31647 13.5954 10.1847 15.5276 12.1237 17.0994L8.43175 22.6257C6.71798 21.0139 2.93789 18.8514 0 17.56L3.42754 12.5342ZM1.62563 38.8842C3.92698 35.4303 7.16846 29.904 9.83215 24.5078L14.7482 28.8828C12.4958 33.6282 10.0574 38.2835 7.89314 41.8776C8.11838 42.198 8.20652 42.5684 8.20652 42.8487C8.20652 43.1691 8.11838 43.4494 7.93231 43.7197L1.62563 38.8842ZM6.39481 0.140159C9.23478 1.20137 13.1128 3.13356 15.0028 4.79545L11.1738 10.2316C9.46002 8.56974 5.7191 6.35722 2.83996 5.07577L6.39481 0.140159ZM37.1252 6.8678C39.828 10.552 42.3057 15.4375 43.2948 18.8915L37.7519 21.7948L40.4156 22.3954C40.2785 22.8059 39.828 23.1363 39.1132 23.1763C35.5975 35.16 29.2027 40.456 16.981 43.6796C16.3934 41.6573 14.8657 38.9843 13.4164 37.4125C19.9483 36.2612 24.8644 34.2789 28.2919 30.5047H28.2429C26.3921 31.3356 24.0026 31.4758 21.0353 31.4758C20.8101 29.5436 19.821 26.6403 18.9592 24.7982C20.8982 24.8883 23.1506 24.8883 23.8753 24.8883C24.551 24.8883 24.7762 24.7081 24.7762 24.0573V9.36064C24.502 9.681 24.1005 9.7711 23.699 9.73106C22.2105 14.3863 19.821 19.6323 17.1671 22.9561C15.9528 21.8949 13.6514 20.3732 12.2118 19.5422C14.6503 16.689 16.8047 11.7133 17.9309 7.14812L24.7762 9.13037V0L32.5714 0.320364C32.5225 0.830944 32.2091 1.19135 31.269 1.33151V24.1875C31.269 24.9283 31.22 25.5691 31.1808 26.1197C31.9447 24.5579 32.6204 22.7559 33.159 20.7336L37.3015 21.7047C36.4495 18.2908 34.06 13.2751 31.6215 9.5909L37.1154 6.8678H37.1252Z" fill="white"/>
<path d="M86.609 25.7996H55.7807C55.2421 32.1568 53.9788 39.1147 51.1389 44.0002C50.0127 42.899 47.2609 41.0068 45.8213 40.3561C49.6112 33.7686 49.8756 23.9975 49.8756 17.0897V3.82458H65.7402V0.050293L73.9467 0.510816C73.8978 1.0214 73.5452 1.34176 72.5953 1.52197V3.82458H88.4599V9.63118H71.0676V9.68124L77.6876 10.0016C77.6387 10.5122 77.2861 10.7825 76.3852 10.9226V12.6246H86.6188V25.7996H86.609ZM64.0264 34.089V36.7119C66.1907 36.5718 68.492 36.4316 70.6955 36.2514L70.7444 41.5074C65.7402 42.1081 60.5597 42.6587 57.093 42.9791C57.0049 43.3895 56.6425 43.6699 56.2802 43.7199L53.9397 37.3126C55.1148 37.2626 56.4173 37.1725 57.8569 37.1324V26.0298L65.3387 26.4403C65.2897 26.9509 64.8882 27.2212 64.0362 27.4114V28.843H70.5681V34.099H64.0362L64.0264 34.089ZM60.1484 17.7304H56.0941C56.0941 18.6514 56.0941 19.6626 56.0452 20.6837H60.1484V17.7304ZM60.1484 9.62117H56.0941V12.6146H60.1484V9.62117ZM70.245 12.6146V9.62117H60.9612V9.67122L67.4931 9.99159C67.4442 10.4521 67.0916 10.7725 66.1907 10.9126V12.6146H70.245ZM66.1907 17.7304V20.6837H70.245V17.7304H66.1907ZM78.4515 36.4316C78.4515 37.9033 78.6278 38.0435 79.6658 38.0435H82.1924C83.1423 38.0435 83.3676 37.4428 83.5438 34.2191C84.719 35.1402 87.2358 36.1113 88.9104 36.4817C88.3228 41.9679 86.7462 43.5297 82.8681 43.5297H78.5886C73.3591 43.5297 72.1938 41.7377 72.1938 36.4817V26.0699L79.7637 26.4803C79.7148 26.9909 79.3622 27.2612 78.4613 27.4514V29.6639C80.2632 28.8831 81.928 28.0021 83.1521 27.1311L88.0192 31.5961C87.794 31.8765 87.3435 31.8765 86.8441 31.8765C84.6798 33.0278 81.5265 34.1791 78.4613 35.0601V36.4416L78.4515 36.4316ZM80.3905 17.7304H76.3754V20.6837H80.3905V17.7304Z" fill="white"/>
<path d="M134.781 31.9265V37.9634H117.066V43.81H110.26V37.9634H93.1807V31.9265H110.26V30.1745H97.5483V11.193H110.26V9.63118H94.1306V3.59432H110.26V0.050293L118.466 0.510816C118.417 1.0214 118.016 1.34176 117.066 1.52197V3.59432H133.469V9.63118H117.066V11.193H130.041V30.1745H117.066V31.9265H134.781ZM103.865 16.489V18.1909H110.26V16.489H103.865ZM103.865 24.8785H110.26V23.1265H103.865V24.8785ZM123.421 16.489H117.066V18.1909H123.421V16.489ZM123.421 24.8785V23.1265H117.066V24.8785H123.421Z" fill="white"/>
<path d="M157.628 16.9993C157.452 17.4098 157.001 17.64 156.277 17.6901C155.65 21.7948 154.426 27.0908 153.299 30.9552L157.089 30.1743L157.716 36.121C151.997 37.6428 145.906 39.1645 141.9 40.1256C141.851 40.5861 141.45 40.9065 141.048 40.9966L138.747 33.8084C141.861 33.2978 146.092 32.4769 150.508 31.5458L148.031 30.765C149.108 26.5702 150.146 20.0728 150.557 15.1873L157.638 16.9793L157.628 16.9993ZM157.315 8.33948V14.5565H139.824V8.33948H145.769V0.780887L153.113 1.19135C153.064 1.65188 152.712 1.97224 151.85 2.1124V8.32946H157.305L157.315 8.33948ZM145.867 15.4776C146.856 19.9427 147.531 25.6091 147.62 29.4334L142.028 30.5347C142.116 26.7604 141.528 20.9538 140.676 16.5288L145.857 15.4676L145.867 15.4776ZM181.337 14.3263H171.603V21.6045H179.985V43.6296H173.267V41.6073H164.209V43.8598H157.853V21.6045H164.836V0L172.944 0.460523C172.895 0.971103 172.543 1.29147 171.593 1.43163V7.97907H181.327V14.3363L181.337 14.3263ZM173.267 35.3802V27.8216H164.209V35.3802H173.267Z" fill="white"/>
<path d="M226.894 4.23505V10.2719H219.637L219.862 10.322C219.686 10.7324 219.275 10.9226 218.511 10.9627C218.11 11.8337 217.61 12.8048 217.071 13.7258H225.092V36.8521C225.092 42.6988 222.526 43.76 214.594 43.76C214.418 42.6587 213.967 41.0869 213.468 39.7054H203.283V42.2382H197.515V27.8619C197.015 28.0421 196.526 28.1422 195.987 28.2724C195.674 27.4014 194.998 26.15 194.234 25.0887V43.8401H188.016V13.7258H195.635C195.272 12.6246 194.871 11.4232 194.42 10.4121L195.184 10.2719H185.9V4.23505H202.666V0.050293L210.775 0.510816C210.726 1.0214 210.373 1.34176 209.423 1.48192V4.24506H226.913L226.894 4.23505ZM194.215 19.4423V23.587C197.818 22.8062 198.808 21.5647 199.082 19.4423H194.215ZM215.798 27.5015V37.593H217.786C218.511 37.593 218.775 37.3627 218.775 36.722V25.8997C218.237 26.0398 217.6 26.0799 216.885 26.0799H213.507C208.277 26.0799 208.013 24.0976 208.013 19.4423H205.036C204.948 19.4423 204.86 19.4924 204.722 19.4924C204.36 22.9063 203.508 25.7595 198.68 27.5115H215.808L215.798 27.5015ZM201.246 10.2719C201.785 11.4232 202.235 12.7147 202.548 13.7258H209.854C210.304 12.6246 210.706 11.4232 211.068 10.2719H201.246ZM209.942 34.8298V32.337H203.273V34.8298H209.942ZM216.112 21.3345C216.738 21.3345 216.925 21.1943 217.062 20.7839C217.463 21.0642 218.1 21.3845 218.775 21.6548V19.4423H213.595C213.595 21.1443 213.595 21.3345 214.447 21.3345H216.112Z" fill="white"/>
<path d="M232.828 1.66211H271.99V43.8601H265.595V42.3383H238.959V43.8601H232.828V1.66211ZM238.959 36.3515H265.595V7.64891H238.959V24.9285C240.76 24.0576 242.249 22.9463 243.551 21.5647H240.085V17.7904H246.254C246.529 17.2799 246.754 16.7793 246.979 16.2287H244.364V14.8471C243.865 15.4478 243.375 15.9483 242.876 16.4089C242.063 15.628 240.535 14.4767 239.536 13.876C241.113 12.4944 242.69 10.2318 243.591 8.15949L248.507 9.82138C248.37 10.1417 248.056 10.332 247.518 10.2318C247.116 11.0127 246.617 11.7936 246.029 12.6246H248.193C248.556 11.243 248.82 9.81137 249.006 8.28964L254.725 9.16063C254.637 9.53105 254.275 9.80136 253.687 9.85142L253.149 12.6146H258.329C257.604 11.7436 256.841 10.9126 256.116 10.1718L259.808 8.00932C261.698 9.80136 264.048 12.3843 265.174 14.1863L261.257 16.5791C260.944 16.0284 260.493 15.3777 259.994 14.6869V16.2086H257.781C258.006 16.7593 258.28 17.2698 258.545 17.7704H264.401V21.5447H261.424C262.599 22.696 263.95 23.6171 265.527 24.2678C264.45 25.1888 263.049 27.0309 262.325 28.3224C260.797 27.5415 259.396 26.4803 258.221 25.1888C257.908 30.2546 257.271 30.8553 251.464 30.6751C251.376 29.6639 251.014 28.2323 250.514 27.3613C251.503 27.4514 252.267 27.5015 252.718 27.5015C253.031 27.5015 253.668 27.5015 253.795 26.6305H249.515V30.0844C249.515 31.3759 249.878 31.516 251.68 31.516H257.134C258.437 31.516 258.76 31.1056 258.936 28.7529C259.974 29.3936 261.864 30.0444 263.177 30.2746C262.677 34.3793 261.326 35.4805 257.683 35.4805H251.014C246.009 35.4805 244.521 34.3292 244.521 30.1845V27.0009C243.669 27.6416 242.719 28.2423 241.73 28.7529C241.191 27.6917 239.84 25.8496 238.939 24.9786V36.3615L238.959 36.3515ZM256.576 23.1265C256.214 22.6159 255.9 22.1154 255.587 21.5647H249.545C249.231 22.1154 248.869 22.6259 248.468 23.1265H255.048L255.998 23.0764L256.586 23.1265H256.576ZM253.873 17.7804L253.335 16.2187H252.071C251.895 16.7693 251.709 17.2799 251.484 17.7804H253.873Z" fill="white"/>
</svg>
