<svg width="61" height="90" viewBox="0 0 61 90" fill="none" xmlns="http://www.w3.org/2000/svg">
<path d="M30.24 60.1296C46.7478 60.1296 60.13 46.7474 60.13 30.2396C60.13 13.7318 46.7478 0.349609 30.24 0.349609C13.7322 0.349609 0.349976 13.7318 0.349976 30.2396C0.349976 46.7474 13.7322 60.1296 30.24 60.1296Z" stroke="#E9C468" stroke-width="0.7" stroke-miterlimit="10"/>
<path d="M6.93 82.4593H5.73C5.63 81.3193 4.96 80.6693 3.83 80.6693C2.88 80.6693 2.12 81.1093 2.12 82.0493C2.12 82.9893 2.68 83.4493 4.05 83.7593C6.03 84.2193 7.02 85.0293 7.02 86.5493C7.02 88.0693 5.66 89.1493 3.93 89.1493C1.95 89.1493 0.69 88.1493 0.5 86.4093H1.7C1.96 87.5993 2.78 88.2593 3.96 88.2593C4.99 88.2593 5.83 87.6993 5.83 86.7593C5.83 85.6593 5.2 85.1693 3.63 84.7993C2.04 84.4293 0.93 83.7993 0.93 82.3093C0.93 80.8193 2.27 79.7793 3.93 79.7793C5.8 79.7793 6.77 80.9193 6.94 82.4493L6.93 82.4593Z" fill="#E9C468"/>
<path d="M18.33 82.8393V82.9693H17.22L17.19 82.8393C16.93 81.5493 16.13 80.6693 14.63 80.6693C12.79 80.6693 11.66 82.2693 11.66 84.4493C11.66 86.6293 12.78 88.2593 14.56 88.2593C16.06 88.2593 16.86 87.3893 17.12 86.0893L17.15 85.9593H18.27V86.0893C18.09 87.7193 16.87 89.1393 14.5 89.1393C11.88 89.1393 10.42 87.1293 10.42 84.4993C10.42 81.8693 12.12 79.7793 14.67 79.7793C16.95 79.7793 18.15 81.0693 18.34 82.8293L18.33 82.8393Z" fill="#E9C468"/>
<path d="M29.1 88.9697H27.86C27.61 88.3997 27.49 87.8197 27.38 86.7097C27.28 85.7797 26.92 85.1697 26.04 85.1097C25.83 85.0997 25.61 85.0997 25.4 85.0997H23.7V88.9697H22.58V79.9697H25.53C25.99 79.9697 26.3 79.9697 26.7 80.0197C28 80.1897 28.94 80.9097 28.94 82.4197C28.94 83.6097 28.17 84.2897 27.34 84.5497C28.07 84.8897 28.42 85.7097 28.5 86.6097C28.6 87.7797 28.73 88.4897 29.1 88.9697ZM25.42 84.1897C25.82 84.1897 26.05 84.1897 26.29 84.1597C27.12 84.0797 27.74 83.5497 27.74 82.5297C27.74 81.5097 27.26 81.0697 26.42 80.9397C26.17 80.8997 25.92 80.8897 25.52 80.8897H23.69V84.1897H25.41H25.42Z" fill="#E9C468"/>
<path d="M40.82 84.4691C40.82 87.2091 39.31 89.1491 36.57 89.1491C33.83 89.1491 32.32 87.2091 32.32 84.4691C32.32 81.7291 33.83 79.7891 36.57 79.7891C39.31 79.7891 40.82 81.7191 40.82 84.4691ZM39.57 84.4691C39.57 82.1191 38.46 80.6691 36.57 80.6691C34.68 80.6691 33.57 82.1191 33.57 84.4691C33.57 86.8191 34.68 88.2691 36.57 88.2691C38.46 88.2691 39.57 86.8091 39.57 84.4691Z" fill="#E9C468"/>
<path d="M50.96 88.9697H44.97V79.9697H46.09V88.0597H50.96V88.9697Z" fill="#E9C468"/>
<path d="M60.81 88.9697H54.82V79.9697H55.94V88.0597H60.81V88.9697Z" fill="#E9C468"/>
</svg>
