<svg width="60" height="72" viewBox="0 0 60 72" fill="none" xmlns="http://www.w3.org/2000/svg">
<g filter="url(#filter0_d_6_1573)">
<path d="M30.9612 63.0008C40.8672 63.0008 48.8976 54.9704 48.8976 45.0643C48.8976 35.1583 40.8672 27.1279 30.9612 27.1279C21.0552 27.1279 13.0248 35.1583 13.0248 45.0643C13.0248 54.9704 21.0552 63.0008 30.9612 63.0008Z" stroke="white" stroke-width="0.75" stroke-miterlimit="10"/>
</g>
<g filter="url(#filter1_d_6_1573)">
<path d="M13.6684 10.8131H12.8326C12.7574 10.0191 12.2977 9.56772 11.5037 9.56772C10.835 9.56772 10.3085 9.87696 10.3085 10.5373C10.3085 11.1975 10.7013 11.5151 11.6541 11.7325C13.0415 12.0501 13.7353 12.6184 13.7353 13.6799C13.7353 14.7414 12.7908 15.4936 11.5705 15.4936C10.1831 15.4936 9.30548 14.7915 9.17175 13.5796H10.0076C10.1914 14.407 10.7681 14.8751 11.5872 14.8751C12.306 14.8751 12.8911 14.4823 12.8911 13.8303C12.8911 13.0614 12.4565 12.7187 11.3532 12.4596C10.2416 12.2005 9.46429 11.7575 9.46429 10.7211C9.46429 9.68473 10.4004 8.94922 11.5622 8.94922C12.866 8.94922 13.5514 9.74324 13.6684 10.8214V10.8131Z" fill="white"/>
<path d="M21.6421 11.0805V11.1725H20.8648L20.8481 11.0805C20.6642 10.1779 20.1126 9.56772 19.0595 9.56772C17.7723 9.56772 16.9783 10.6877 16.9783 12.2089C16.9783 13.73 17.764 14.8751 19.001 14.8751C20.0457 14.8751 20.6057 14.265 20.7896 13.3623L20.8063 13.2703H21.592V13.3623C21.4666 14.499 20.6141 15.4936 18.9592 15.4936C17.1288 15.4936 16.1007 14.0894 16.1007 12.2507C16.1007 10.4119 17.2876 8.94922 19.0762 8.94922C20.6726 8.94922 21.5084 9.85189 21.6421 11.0805Z" fill="white"/>
<path d="M29.1727 15.3678H28.3035C28.1279 14.9667 28.0444 14.5655 27.9691 13.7882C27.8939 13.1446 27.6515 12.71 27.033 12.6682C26.8909 12.6598 26.7321 12.6598 26.5901 12.6598H25.4032V15.3678H24.6176V9.07422H26.682C26.9996 9.07422 27.2169 9.07422 27.5011 9.10765C28.4121 9.22466 29.0724 9.72615 29.0724 10.7876C29.0724 11.6151 28.5375 12.0915 27.9524 12.2754C28.4623 12.5094 28.713 13.0861 28.7632 13.7129C28.8384 14.532 28.9303 15.0252 29.1811 15.3595L29.1727 15.3678ZM26.5984 12.0163C26.8826 12.0163 27.033 12.0163 27.2086 11.9995C27.7936 11.941 28.2199 11.5733 28.2199 10.8628C28.2199 10.1524 27.8856 9.84316 27.3005 9.75122C27.125 9.72615 26.9578 9.71779 26.6736 9.71779H25.3949V12.0246H26.5984V12.0163Z" fill="white"/>
<path d="M37.3635 12.2168C37.3635 14.1308 36.3021 15.4932 34.3881 15.4932C32.4741 15.4932 31.4126 14.1308 31.4126 12.2168C31.4126 10.3028 32.4741 8.94043 34.3881 8.94043C36.3021 8.94043 37.3635 10.2861 37.3635 12.2168ZM36.4859 12.2168C36.4859 10.5786 35.7086 9.56728 34.3881 9.56728C33.0675 9.56728 32.2902 10.5786 32.2902 12.2168C32.2902 13.855 33.0675 14.8663 34.3881 14.8663C35.7086 14.8663 36.4859 13.8466 36.4859 12.2168Z" fill="white"/>
<path d="M44.4512 15.3678H40.2638V9.07422H41.0495V14.7243H44.4512V15.3595V15.3678Z" fill="white"/>
<path d="M51.3383 15.3678H47.1509V9.07422H47.9365V14.7243H51.3383V15.3595V15.3678Z" fill="white"/>
</g>
<defs>
<filter id="filter0_d_6_1573" x="4.28978" y="18.3929" width="53.3428" height="53.343" filterUnits="userSpaceOnUse" color-interpolation-filters="sRGB">
<feFlood flood-opacity="0" result="BackgroundImageFix"/>
<feColorMatrix in="SourceAlpha" type="matrix" values="0 0 0 0 0 0 0 0 0 0 0 0 0 0 0 0 0 0 127 0" result="hardAlpha"/>
<feOffset/>
<feGaussianBlur stdDeviation="4.18"/>
<feColorMatrix type="matrix" values="0 0 0 0 0.298039 0 0 0 0 0.239216 0 0 0 0 0.235294 0 0 0 0.75 0"/>
<feBlend mode="normal" in2="BackgroundImageFix" result="effect1_dropShadow_6_1573"/>
<feBlend mode="normal" in="SourceGraphic" in2="effect1_dropShadow_6_1573" result="shape"/>
</filter>
<filter id="filter1_d_6_1573" x="0.811753" y="0.58043" width="58.8865" height="23.2727" filterUnits="userSpaceOnUse" color-interpolation-filters="sRGB">
<feFlood flood-opacity="0" result="BackgroundImageFix"/>
<feColorMatrix in="SourceAlpha" type="matrix" values="0 0 0 0 0 0 0 0 0 0 0 0 0 0 0 0 0 0 127 0" result="hardAlpha"/>
<feOffset/>
<feGaussianBlur stdDeviation="4.18"/>
<feColorMatrix type="matrix" values="0 0 0 0 0.298039 0 0 0 0 0.239216 0 0 0 0 0.235294 0 0 0 0.75 0"/>
<feBlend mode="normal" in2="BackgroundImageFix" result="effect1_dropShadow_6_1573"/>
<feBlend mode="normal" in="SourceGraphic" in2="effect1_dropShadow_6_1573" result="shape"/>
</filter>
</defs>
</svg>
