<?xml version="1.0" encoding="UTF-8"?>
<svg id="_圖層_1" data-name="圖層 1" xmlns="http://www.w3.org/2000/svg" version="1.1" viewBox="0 0 60 72">
  <defs>
    <style>
      .cls-1 {
        fill: #fff;
        stroke-width: 0px;
      }

      .cls-2 {
        fill: none;
        stroke: #fff;
        stroke-miterlimit: 10;
        stroke-width: .8px;
      }
    </style>
  </defs>
  <path class="cls-2" d="M31,63c9.9,0,17.9-8,17.9-17.9s-8-17.9-17.9-17.9-17.9,8-17.9,17.9,8,17.9,17.9,17.9Z"/>
  <path class="cls-1" d="M13.7,10.8h-.8c0-.8-.5-1.2-1.3-1.2s-1.2.3-1.2,1,.4,1,1.3,1.2c1.4.3,2.1.9,2.1,1.9s-.9,1.8-2.2,1.8-2.3-.7-2.4-1.9h.8c.2.8.8,1.3,1.6,1.3s1.3-.4,1.3-1-.4-1.1-1.5-1.4c-1.1-.3-1.9-.7-1.9-1.7s.9-1.8,2.1-1.8,2,.8,2.1,1.9h0Z"/>
  <path class="cls-1" d="M21.6,11.1h0c0,0-.8,0-.8,0h0c-.2-1-.7-1.6-1.8-1.6s-2.1,1.1-2.1,2.6.8,2.7,2,2.7,1.6-.6,1.8-1.5h0c0,0,.8,0,.8,0h0c-.1,1.2-1,2.2-2.6,2.2s-2.9-1.4-2.9-3.2,1.2-3.3,3-3.3,2.4.9,2.6,2.1Z"/>
  <path class="cls-1" d="M29.2,15.4h-.9c-.2-.4-.3-.8-.3-1.6,0-.6-.3-1.1-.9-1.1-.1,0-.3,0-.4,0h-1.2v2.7h-.8v-6.3h2.1c.3,0,.5,0,.8,0,.9.1,1.6.6,1.6,1.7s-.5,1.3-1.1,1.5c.5.2.8.8.8,1.4,0,.8.2,1.3.4,1.6h0ZM26.6,12c.3,0,.4,0,.6,0,.6,0,1-.4,1-1.1s-.3-1-.9-1.1c-.2,0-.3,0-.6,0h-1.3v2.3h1.2Z"/>
  <path class="cls-1" d="M37.4,12.2c0,1.9-1.1,3.3-3,3.3s-3-1.4-3-3.3,1.1-3.3,3-3.3,3,1.3,3,3.3ZM36.5,12.2c0-1.6-.8-2.6-2.1-2.6s-2.1,1-2.1,2.6.8,2.6,2.1,2.6,2.1-1,2.1-2.6Z"/>
  <path class="cls-1" d="M44.5,15.4h-4.2v-6.3h.8v5.7h3.4v.6h0Z"/>
  <path class="cls-1" d="M51.3,15.4h-4.2v-6.3h.8v5.7h3.4v.6h0Z"/>
</svg>