<svg width="88" height="318" viewBox="0 0 88 318" fill="none" xmlns="http://www.w3.org/2000/svg">
<g filter="url(#filter0_d_6_1533)">
<path d="M77.8041 22.5434C77.3014 23.0759 76.6562 23.0843 75.8519 22.5603C75.5168 21.5293 74.9638 20.4137 74.1762 19.2051C69.8278 20.0334 63.6781 21.0053 55.7354 22.1378C55.5176 22.5181 55.2243 22.7463 54.8557 22.8054L53.976 19.053C54.6043 19.053 55.8527 19.0445 57.7378 19.0192C58.2824 19.0023 58.7097 18.9854 59.003 18.9854C59.6481 17.7346 60.3351 16.264 61.0557 14.5737C61.9354 12.5369 62.547 10.6015 62.8738 8.76758L67.3981 10.4579C67.2641 10.8973 66.8954 11.0917 66.3089 11.0326C64.5076 13.9145 62.5219 16.5429 60.3435 18.9262C62.6141 18.8671 66.6776 18.7149 72.5341 18.4698C73.02 18.4529 73.397 18.4276 73.6484 18.4107C72.2408 16.433 70.7914 14.8273 69.3 13.5764L69.5681 13.3314C72.1319 14.2019 74.1762 15.309 75.7095 16.6612C76.983 17.7937 77.7873 18.96 78.1141 20.1686C78.4073 21.2166 78.3068 22.011 77.8041 22.5434ZM57.9054 37.3757C57.4949 37.3757 57.2854 37.1729 57.2854 36.7672C57.3608 35.6601 57.4362 34.1642 57.4949 32.2964V29.7525C57.4949 27.2086 57.3692 25.1465 57.1095 23.5576L60.4273 25.0113H72.1738L72.8189 24.1915C72.8776 24.1323 72.953 24.0393 73.0535 23.921C73.3468 23.5407 73.5562 23.3463 73.6735 23.3463C73.8662 23.3463 74.3941 23.7013 75.257 24.4027C76.12 25.1127 76.5473 25.569 76.5473 25.7972C76.3546 26.1015 75.9273 26.3297 75.2822 26.4903V29.7863C75.3408 32.5499 75.4078 34.6882 75.4916 36.1925C75.3576 36.37 75.0141 36.5644 74.4611 36.7672C73.8746 36.97 73.3635 37.0715 72.9362 37.0715C72.5424 37.0715 72.3497 36.8686 72.3497 36.463C72.3665 36.3193 72.3916 36.1165 72.4084 35.8545C72.4251 35.677 72.4503 35.5079 72.467 35.3727V34.5276H60.2514V35.1614C60.2681 35.3389 60.2849 35.5587 60.2849 35.7953C60.3016 36.015 60.3268 36.1756 60.3435 36.277C60.3016 36.4968 60.0335 36.7334 59.5224 36.97C58.9778 37.232 58.4333 37.3673 57.9054 37.3673V37.3757ZM60.2597 33.6909H72.4754V25.8902H60.2597V33.6909Z" fill="white"/>
<path d="M58.14 72.8128C57.9054 72.8128 57.7127 72.7536 57.5535 72.6353C57.3943 72.517 57.3189 72.3733 57.3189 72.2127C57.4948 69.6097 57.6038 66.9897 57.6457 64.3529V52.7744C57.6457 50.2305 57.52 48.1684 57.2603 46.5795L60.6367 48.0585H72.1486L72.7938 47.2387C72.7938 47.2387 72.8943 47.1288 72.9697 47.0274C73.3048 46.6048 73.5394 46.3936 73.6735 46.3936C73.8662 46.3936 74.3857 46.7485 75.2151 47.45C76.0446 48.1599 76.4635 48.6163 76.4635 48.8445C76.2289 49.1234 75.8351 49.3347 75.2905 49.4783V64.3867C75.3324 66.8883 75.4078 69.2547 75.5251 71.4943C75.3492 71.7141 74.9973 71.9507 74.4694 72.1874C73.8829 72.4663 73.3551 72.6099 72.8859 72.6099C72.4921 72.6099 72.2994 72.4071 72.2994 72.0014C72.3162 71.8578 72.3413 71.6465 72.3581 71.3676C72.3748 71.1647 72.4 70.9957 72.4167 70.852V69.9731H60.4021V70.5478C60.4189 70.7084 60.4357 70.9027 60.4357 71.1225C60.4524 71.3253 60.4775 71.469 60.4943 71.545C60.4524 71.8239 60.2011 72.1113 59.7319 72.3902C59.2459 72.6691 58.7097 72.8128 58.1484 72.8128H58.14ZM60.4021 58.3946H72.4167V48.929H60.4021V58.3946ZM60.4021 69.0941H72.4167V59.2651H60.4021V69.0941Z" fill="white"/>
<path d="M60.2263 108.706C59.8158 108.706 59.6063 108.503 59.6063 108.098C59.7068 107.109 59.7739 105.782 59.8158 104.109V101.81C58.1317 102.841 56.3806 103.813 54.5625 104.743C54.4452 105.148 54.2106 105.402 53.8587 105.495L52.9455 102.199C53.0795 102.182 53.3393 102.14 53.7079 102.08C54.1771 102.004 54.5625 101.937 54.8558 101.903V83.7323H54.3279C54.1101 83.7492 53.8755 83.8929 53.6241 84.1549L52.8868 82.6167C53.9677 82.735 55.2663 82.8196 56.7912 82.8618H60.4022L61.0809 81.8983C61.1228 81.8392 61.1814 81.7547 61.2568 81.6533C61.592 81.1715 61.8266 80.9264 61.9606 80.9264C62.1533 80.9264 62.6393 81.256 63.4017 81.9237C64.1641 82.5914 64.5495 83.0308 64.5495 83.2506C64.4909 83.5717 64.2395 83.7323 63.7871 83.7323H62.1701V100.694C62.212 103.196 62.2874 105.562 62.4047 107.802C62.2706 108.022 62.0193 108.225 61.6674 108.411C61.2568 108.613 60.7793 108.715 60.2263 108.715V108.706ZM57.1431 88.7187H59.8158V83.7323H57.1431V88.7187ZM57.1431 94.9136H59.8158V89.5892H57.1431V94.9136ZM57.1431 101.447C57.7128 101.328 58.6009 101.142 59.8158 100.906V95.7672H57.1431V101.455V101.447ZM63.5776 95.1249L62.4298 92.3105C63.0582 92.3105 63.9044 92.2767 64.9852 92.2176C65.0439 92.1161 65.1193 91.964 65.2198 91.7612C65.5717 91.0935 65.8231 90.578 65.9822 90.223C66.996 88.1693 67.7333 86.2424 68.1858 84.4507L71.2104 85.9888C70.9004 85.524 70.6322 85.186 70.4144 84.9578L70.7076 84.7465C71.4533 84.9662 72.0566 85.2113 72.5258 85.4733C73.2463 83.4957 73.6401 81.9068 73.6987 80.6982C75.2487 81.3406 76.2122 81.8138 76.606 82.1181C76.8825 82.3378 76.8741 82.4899 76.5725 82.5745L76.0698 82.7266C75.3493 83.7323 74.4025 84.8141 73.2547 85.9635C73.9417 86.5044 74.302 87.1129 74.3439 87.7806C74.3858 88.3891 74.1847 88.8116 73.7406 89.0652C73.2966 89.3187 72.8274 89.2342 72.3163 88.8116C72.2409 87.9834 71.9058 87.096 71.3193 86.1494C71.1014 86.4706 70.7412 86.5889 70.2301 86.5128C69.1912 88.0848 67.7501 89.9779 65.9152 92.2007C66.3844 92.1838 67.1468 92.1415 68.2025 92.0823C68.3617 92.0654 68.479 92.0485 68.5544 92.0485C68.3031 91.2456 68.0182 90.5864 67.6998 90.0793L68.0266 89.9019C69.1577 90.409 69.9871 91.0175 70.4898 91.7443C70.9003 92.3697 71.0595 92.9782 70.959 93.5613C70.8836 94.1022 70.6239 94.4572 70.1966 94.6178C69.7693 94.7953 69.3336 94.6769 68.9063 94.2544C68.9063 93.8318 68.856 93.3501 68.7555 92.8007C68.1271 93.0458 66.9458 93.4937 65.2031 94.1614C64.7925 94.3051 64.4825 94.4149 64.2647 94.491C64.1055 94.8544 63.8709 95.0657 63.5609 95.1249H63.5776ZM66.0995 89.1666C65.6722 89.4117 65.2114 89.3187 64.7171 88.8961C64.6417 88.313 64.4155 87.6453 64.0385 86.9016C63.6866 86.2593 63.2928 85.6846 62.8655 85.1775L63.1587 84.9662C63.9379 85.186 64.5579 85.4311 65.0104 85.693C65.6555 83.7746 66.0241 82.1265 66.1247 80.732C67.6747 81.3152 68.6382 81.7462 69.032 82.0336C69.3085 82.2533 69.3001 82.4139 69.0068 82.5153L68.5041 82.6928C67.7585 83.7408 66.8201 84.8986 65.689 86.1663C66.3341 86.6903 66.6776 87.2735 66.7195 87.9158C66.7363 88.4989 66.5352 88.913 66.0995 89.1581V89.1666ZM63.2844 108.732L63.0498 108.368C64.5998 107.684 65.7393 106.839 66.4849 105.824C67.1468 104.954 67.5574 103.897 67.7166 102.647H65.7812V103.162C65.7979 103.323 65.8147 103.492 65.8231 103.678C65.8314 103.855 65.8482 103.982 65.8649 104.041C65.8231 104.219 65.6136 104.405 65.2366 104.582C64.8512 104.76 64.4741 104.852 64.1055 104.852C63.7536 104.852 63.5776 104.65 63.5776 104.244C63.6195 103.838 63.6531 103.306 63.695 102.638C63.7117 102.334 63.7285 102.08 63.7285 101.886V100.373C63.7285 98.5392 63.6363 97.0095 63.4604 95.7756C64.9517 96.1982 65.8649 96.5278 66.2168 96.7729C66.4933 96.9504 66.4933 97.1363 66.2168 97.3138L65.7728 97.618V101.759H67.8004V98.404C67.8004 97.2377 67.7417 96.2235 67.6244 95.3784C69.1158 95.801 70.029 96.1306 70.3809 96.3757C70.6574 96.5532 70.6574 96.7475 70.3809 96.9504L69.9368 97.2546V101.303C69.9201 103.078 69.4844 104.506 68.6466 105.596C67.5909 106.948 65.7979 107.988 63.276 108.706L63.2844 108.732ZM78.7006 94.8967C78.2482 95.0911 77.8125 94.9558 77.3768 94.491C77.3768 94.0093 77.3098 93.4346 77.1674 92.7669C75.676 93.3501 74.2768 93.8825 72.9698 94.3727C72.8106 94.7361 72.576 94.9389 72.266 94.9812L71.0344 92.1669C71.7382 92.1669 72.3247 92.1584 72.7939 92.133C72.8944 91.9302 73.0452 91.626 73.2463 91.2287C73.4558 90.8231 73.6066 90.5273 73.6987 90.3244C74.7376 88.2116 75.4582 86.2847 75.8687 84.5521C77.3768 85.262 78.3068 85.7607 78.6587 86.0649C78.9101 86.31 78.8766 86.4706 78.5414 86.5466L77.9801 86.6988C76.782 88.4313 75.366 90.2399 73.7239 92.1077H74.1093C75.3409 92.0654 76.2793 92.0316 76.9244 91.9894C76.6144 91.1189 76.2876 90.4259 75.9525 89.9019L76.2793 89.7244C77.4941 90.2906 78.3822 90.9752 78.952 91.7781C79.4044 92.4457 79.5887 93.0965 79.5133 93.7473C79.4128 94.3304 79.1447 94.7192 78.6922 94.9136L78.7006 94.8967ZM72.2409 108.706C71.8136 108.706 71.5958 108.503 71.5958 108.098C71.6712 107.067 71.7466 105.689 71.8052 103.957V101.565C71.8052 99.021 71.6795 96.9588 71.4198 95.3699C73.0871 95.8094 74.1093 96.1559 74.5031 96.401C74.8131 96.5785 74.8131 96.7729 74.5031 96.9757L74.0004 97.3053V101.81H76.3212C76.3212 99.3928 76.2039 97.3898 75.9693 95.7925C77.4941 96.2151 78.4493 96.5362 78.8179 96.756C79.0944 96.9335 79.0944 97.1194 78.8179 97.2969L78.3487 97.6011V99.4774C78.3906 101.472 78.4493 103.052 78.5247 104.227C78.4241 104.405 78.1895 104.59 77.8209 104.768C77.4522 104.945 77.0752 105.038 76.7066 105.038C76.3714 105.038 76.2039 104.836 76.2039 104.43C76.2206 104.312 76.2458 104.134 76.2625 103.914C76.2793 103.737 76.3044 103.585 76.3212 103.458V102.638H74.0004V104.455C74.0004 104.734 74.0087 105.098 74.0255 105.545C74.0674 106.577 74.1009 107.346 74.1428 107.87C74.0674 108.047 73.8244 108.233 73.4222 108.411C73.0201 108.588 72.6263 108.681 72.2325 108.681L72.2409 108.706Z" fill="white"/>
<path d="M63.4603 144.346C63.3598 143.315 63.0498 142.596 62.5219 142.165C61.8935 141.658 60.7792 141.286 59.1706 141.05V140.627C60.8714 140.728 62.5638 140.83 64.2479 140.931C64.7589 140.931 65.0103 140.703 65.0103 140.238V133.621H57.9641C56.5733 133.638 55.1071 133.781 53.5571 134.043L52.7611 132.505C53.8335 132.623 55.1406 132.708 56.6654 132.75H65.0019V126.978H59.5979C58.2071 126.995 56.7408 127.139 55.1908 127.4L54.4535 125.888C55.526 126.006 56.833 126.091 58.3579 126.133H64.9935V120.876C61.3741 121.239 57.9557 121.417 54.7468 121.417L54.6881 120.901C58.073 120.496 61.5835 119.87 65.203 119.008C68.8225 118.155 71.6795 117.259 73.7825 116.329L76.6898 119.321C76.3798 119.642 75.7849 119.625 74.9303 119.262C72.953 119.743 70.5987 120.158 67.8841 120.504V126.124H73.4641L74.2265 125.009C74.2684 124.95 74.3354 124.848 74.436 124.704C74.8298 124.138 75.0895 123.859 75.2319 123.859C75.4246 123.859 75.986 124.248 76.9076 125.026C77.8292 125.803 78.29 126.302 78.29 126.522C78.2314 126.826 77.9633 126.978 77.4941 126.978H67.8925V132.75H74.7627L75.5838 131.635C75.6425 131.559 75.743 131.423 75.8771 131.237C76.2457 130.73 76.4971 130.485 76.6144 130.485C76.8071 130.485 77.3768 130.874 78.3152 131.652C79.2535 132.429 79.7227 132.928 79.7227 133.147C79.6473 133.469 79.3708 133.629 78.9016 133.629H67.8925V140.373C67.8925 141.607 67.6411 142.503 67.13 143.061C66.4681 143.788 65.2365 144.219 63.4603 144.363V144.346Z" fill="white"/>
<path d="M66.334 161.552C65.4962 161.552 64.7757 161.248 64.1892 160.648C63.6027 160.039 63.3094 159.304 63.3094 158.442C63.3094 157.58 63.6027 156.836 64.1892 156.236C64.7757 155.628 65.4878 155.332 66.334 155.332C67.1803 155.332 67.8924 155.636 68.4789 156.236C69.0654 156.845 69.3586 157.58 69.3586 158.442C69.3586 159.304 69.0654 160.048 68.4789 160.648C67.8924 161.256 67.1803 161.552 66.334 161.552Z" fill="#E9C468"/>
<path d="M62.0192 200.53C61.5081 200.53 61.2567 200.328 61.2567 199.922C61.374 198.232 61.4494 196.516 61.4913 194.783V191.885C59.514 193.414 57.4697 194.919 55.35 196.389C55.2494 196.829 55.04 197.108 54.7049 197.209L53.1213 193.55C54.6713 193.169 57.4613 192.282 61.4913 190.887V182.571H58.9946C57.6038 182.588 56.1376 182.732 54.5876 182.994L53.7916 181.456C54.864 181.574 56.1711 181.658 57.6959 181.701H61.483V179.554C61.483 177.01 61.3573 174.948 61.0976 173.359C62.9576 173.824 64.1222 174.179 64.5913 174.415C64.9265 174.618 64.9348 174.821 64.6248 175.024L64.1221 175.354V192.375C64.164 194.876 64.2394 197.243 64.3567 199.482C64.2394 199.744 63.9462 199.99 63.477 200.209C62.9911 200.429 62.4967 200.539 62.0108 200.539L62.0192 200.53ZM71.3024 199.525C70.0289 199.525 69.1576 199.322 68.6884 198.908C68.2192 198.494 67.9846 197.716 67.9846 196.567V179.545C67.9846 177.002 67.8589 174.939 67.5992 173.351C69.4424 173.832 70.5986 174.204 71.0678 174.466C71.403 174.644 71.4197 174.838 71.1265 175.041L70.6238 175.37V185.377C72.5592 183.382 74.394 181.024 76.1116 178.303C77.6616 179.334 78.6084 180.036 78.9603 180.416C79.2367 180.695 79.2032 180.847 78.8681 180.872H78.3067C76.1703 182.909 73.6065 184.701 70.6154 186.256V195.84C70.6154 196.203 70.6992 196.457 70.8667 196.592C71.0343 196.736 71.3611 196.803 71.847 196.803H74.193C75.0727 196.803 75.7849 196.786 76.3378 196.744C76.6143 196.702 76.8405 196.567 77.0165 196.322C77.2511 195.899 77.6365 194.479 78.1643 192.062H78.4576L78.5749 196.508C79.2786 196.812 79.6305 197.226 79.6305 197.75C79.6305 198.418 79.2367 198.882 78.4576 199.144C77.6532 199.406 76.1703 199.542 73.9919 199.542H71.2857L71.3024 199.525Z" fill="white"/>
<path d="M65.4209 235.993C65.1695 235.993 64.9601 235.933 64.8009 235.815C64.6417 235.697 64.5663 235.553 64.5663 235.393C64.7422 232.79 64.8512 230.17 64.893 227.533V218.946H59.2544V224.482C59.2963 226.983 59.3717 229.35 59.489 231.589C59.3549 231.851 59.0449 232.096 58.5758 232.316C58.0479 232.578 57.5201 232.713 56.9922 232.713C56.7995 232.713 56.632 232.654 56.5063 232.536C56.3806 232.418 56.3136 232.274 56.3136 232.113C56.4476 230.322 56.5398 228.336 56.5817 226.155V222.859C56.5817 220.315 56.456 218.253 56.1963 216.664L59.4555 218.118H64.8847V213.765H58.2155C56.8247 213.782 55.3585 213.926 53.8085 214.188L53.046 212.65C54.1185 212.768 55.4255 212.853 56.9503 212.895H64.8763C64.8763 210.917 64.7758 209.32 64.5831 208.086C66.4849 208.509 67.6663 208.855 68.1355 209.117C68.4874 209.294 68.5041 209.489 68.1941 209.692L67.6663 210.021V212.895H74.4193L75.2404 211.712C75.299 211.636 75.3912 211.509 75.5085 211.348C75.919 210.807 76.1871 210.528 76.3044 210.528C76.4971 210.528 77.0668 210.934 77.9968 211.737C78.9268 212.54 79.396 213.055 79.396 213.275C79.3374 213.596 79.0693 213.757 78.6001 213.757H67.7668L68.6214 213.85C68.5209 214.255 68.2109 214.509 67.683 214.602V218.109H73.0871L73.6485 217.323C73.6903 217.264 73.7574 217.171 73.8579 217.053C74.1344 216.706 74.3271 216.537 74.4444 216.537C74.6371 216.537 75.1566 216.867 76.0028 217.535C76.8406 218.202 77.2679 218.642 77.2679 218.862C77.0333 219.14 76.6395 219.343 76.0949 219.47V229.172C76.0949 230.279 75.8855 231.065 75.4749 231.53C74.9471 232.139 73.9082 232.511 72.3582 232.646C72.2995 231.699 72.0901 231.04 71.7382 230.677C71.269 230.195 70.473 229.874 69.3587 229.713V229.257C70.4898 229.316 71.6209 229.392 72.7352 229.468C73.1625 229.468 73.3804 229.265 73.3804 228.86V218.946H67.683V227.71C67.7249 230.212 67.8003 232.578 67.9176 234.818C67.8003 235.08 67.4903 235.342 66.9793 235.604C66.4347 235.866 65.9152 236.001 65.4209 236.001V235.993Z" fill="white"/>
<path d="M58.2321 271.886C58.0143 271.886 57.8383 271.827 57.6875 271.709C57.5367 271.59 57.4697 271.447 57.4697 271.286C57.6457 268.683 57.7546 266.063 57.7965 263.426V258.922C57.7965 256.378 57.6708 254.315 57.4111 252.727L60.7289 254.206H64.0216C64.0802 253.682 64.1557 252.752 64.2562 251.425C64.2729 251.045 64.2981 250.757 64.3148 250.58H58.1735C56.7827 250.597 55.3165 250.741 53.7665 251.003L53.004 249.49C54.0848 249.608 55.3835 249.693 56.9083 249.735L68.3029 249.701V249.667L68.3281 249.608C69.3251 247.394 69.9032 245.416 70.0624 243.684C72.0229 244.224 73.2462 244.63 73.7321 244.892C74.1008 245.095 74.1259 245.256 73.7908 245.374L73.2629 245.585C72.2073 246.937 70.8416 248.315 69.1827 249.726H74.4108L75.2319 248.577C75.2905 248.492 75.3911 248.366 75.5251 248.18C75.8938 247.673 76.1451 247.428 76.2624 247.428C76.4551 247.428 77.0248 247.816 77.9632 248.594C78.9016 249.371 79.3708 249.87 79.3708 250.09C79.3121 250.411 79.0608 250.572 78.6084 250.572H67.8924C66.7781 252.186 65.8229 253.394 65.0438 254.197H71.7716L72.3916 253.377C72.4502 253.318 72.5424 253.217 72.6597 253.073C72.9362 252.727 73.1289 252.558 73.2462 252.558C73.4389 252.558 73.95 252.896 74.7711 253.572C75.5921 254.248 76.0027 254.696 76.0027 254.916C75.7848 255.22 75.3994 255.431 74.8297 255.549V263.621C74.8716 266.122 74.947 268.489 75.0643 270.728C74.9302 270.931 74.5951 271.142 74.0673 271.362C73.4808 271.607 72.9613 271.725 72.5089 271.725C72.1402 271.725 71.9475 271.523 71.9475 271.117C71.9643 271.016 71.9894 270.889 72.0062 270.72C72.0229 270.601 72.0481 270.492 72.0648 270.39V269.697H60.5194V270.88C60.5194 271.058 60.2848 271.278 59.8156 271.514C59.3046 271.759 58.7767 271.878 58.2321 271.878V271.886ZM61.4327 249.177C61.1562 247.563 60.3351 245.915 58.9694 244.216L59.2375 244.005C60.8629 244.41 62.0862 245.01 62.9073 245.822C63.6111 246.506 63.9546 247.233 63.9378 248.002C63.9378 248.687 63.6697 249.169 63.1419 249.456C62.614 249.76 62.0443 249.667 61.4411 249.185L61.4327 249.177ZM60.5194 258.938H72.0648V255.034H60.5194V258.938ZM60.5194 263.806H72.0648V259.817H60.5194V263.806ZM60.5194 268.827H72.0648V264.685H60.5194V268.827Z" fill="white"/>
<path d="M58.7851 307.653C58.827 306.824 58.6594 306.25 58.2824 305.928C57.9138 305.548 57.1262 305.244 55.9365 305.024V304.542C57.344 304.703 58.4751 304.788 59.3129 304.788C59.7402 304.788 60.0502 304.703 60.2262 304.542C60.754 304.061 61.1394 302.218 61.374 299.007H57.964C57.9221 299.226 57.8635 299.531 57.7881 299.911C57.7713 299.996 57.7546 300.055 57.7546 300.089C57.21 300.435 56.4056 300.469 55.35 300.207C55.3667 300.122 55.4002 299.996 55.4421 299.81C55.5175 299.328 55.5929 298.964 55.6516 298.719C56.104 296.218 56.2967 294.164 56.2381 292.55L59.1454 294.029H61.4662V290.488H58.207C56.7156 291.375 55.0819 292.119 53.3057 292.727L53.0962 292.305C55.1908 291.214 57.0592 289.795 58.7013 288.045C60.31 286.313 61.5332 284.445 62.3711 282.45H60.1675C58.894 282.467 57.5451 282.611 56.1124 282.873L55.3165 281.335C56.3973 281.453 57.6959 281.538 59.2208 281.58H62.3962L63.1335 280.794C63.1335 280.794 63.2424 280.684 63.3429 280.583C63.6948 280.202 63.9378 280.008 64.0802 280.008C64.2729 280.008 64.7421 280.354 65.4878 281.047C66.2335 281.74 66.6021 282.205 66.6021 282.425C66.4094 282.645 66.024 282.788 65.4543 282.848C64.1054 285.51 62.1197 287.775 59.4889 289.651H61.8097L62.2789 288.924C62.3208 288.865 62.3794 288.772 62.4548 288.654C62.6727 288.333 62.8402 288.172 62.9575 288.172C63.1335 288.172 63.5021 288.502 64.0719 289.152C64.6416 289.812 64.9265 290.243 64.9265 290.471C64.6751 290.733 64.3232 290.902 63.8708 290.986V292.44C63.8708 292.66 63.8792 292.955 63.9043 293.319C63.9462 294.122 63.9797 294.73 64.0216 295.136C63.9211 295.28 63.6697 295.415 63.2592 295.559C62.79 295.736 62.3459 295.829 61.9354 295.829H61.4662V294.891H58.5589C58.4416 295.761 58.2824 296.843 58.0897 298.153H61.1478L61.7343 297.46C61.7929 297.401 61.8684 297.308 61.9689 297.19C62.2202 296.911 62.4129 296.767 62.5302 296.767C62.7229 296.767 63.167 297.071 63.854 297.671C64.5411 298.28 64.8846 298.686 64.8846 298.914C64.6667 299.159 64.3065 299.311 63.7954 299.37C63.544 303.52 62.8654 306.021 61.7678 306.867C61.0473 307.391 60.0586 307.653 58.8019 307.653H58.7851ZM57.6457 287.242C57.5284 286.659 57.2435 286.042 56.7911 285.4C56.3638 284.817 55.8778 284.335 55.35 283.946L55.5846 283.701C56.9921 283.743 58.0813 284.031 58.8438 284.58C59.447 285.003 59.7654 285.527 59.7821 286.152C59.7989 286.693 59.5978 287.107 59.1621 287.394C58.6929 287.673 58.1819 287.623 57.6373 287.242H57.6457ZM76.9662 307.619C74.1846 306.909 72.0229 305.912 70.4729 304.627C68.3365 306.038 65.714 307.027 62.6056 307.593L62.4548 307.171C65.1527 306.267 67.3981 304.982 69.1827 303.334C68.1605 302.184 67.3311 300.646 66.6859 298.711H66.1832C65.9654 298.728 65.7308 298.871 65.4794 299.133L64.6835 297.621C65.7559 297.739 67.0629 297.824 68.5878 297.866H72.3497L73.8494 296.387H73.0284C72.1654 296.387 71.6124 296.235 71.3527 295.93C71.1181 295.668 71.0008 295.136 71.0008 294.325V290.513H68.6548V291.417C68.6548 294.282 67.2389 296.302 64.3986 297.494L64.164 297.097C65.0438 296.328 65.6554 295.406 65.9821 294.316C66.2 293.572 66.3089 292.609 66.3089 291.443V289.871C66.3089 289.245 66.2754 288.679 66.2251 288.18L69.0402 289.659H70.7411L71.9475 288.333C69.6938 286.135 68.0684 283.312 67.0713 279.864L67.4567 279.594C68.06 281.09 68.9565 282.467 70.1294 283.735C71.4197 282.222 72.2743 280.861 72.6848 279.653C74.0589 280.583 74.8967 281.225 75.2067 281.588C75.4413 281.85 75.3994 282.002 75.0894 282.045L74.5616 282.078C73.5813 282.822 72.2911 283.574 70.6824 284.318C71.5621 285.163 72.4502 285.882 73.3551 286.465C74.4359 285.273 75.2319 283.921 75.7597 282.417C77.1338 283.38 77.98 284.048 78.3151 284.411C78.5665 284.673 78.5413 284.825 78.2313 284.867L77.7286 284.901C76.7651 285.544 75.5419 286.211 74.0589 286.896C75.8183 287.927 77.7202 288.738 79.7562 289.347L79.6975 289.676C78.5832 289.921 77.8208 290.733 77.4102 292.127C76.0362 291.46 74.8129 290.724 73.7405 289.921L74.2684 290.378C74.0756 290.581 73.7573 290.707 73.33 290.775V293.885C73.33 294.029 73.3551 294.113 73.4054 294.156C73.4556 294.198 73.5729 294.215 73.774 294.215H75.0057C75.257 294.232 75.4246 294.232 75.5084 294.215C75.7011 294.215 75.8435 294.164 75.9189 294.063C76.1116 293.784 76.3462 293.192 76.6227 292.313H76.9494L77.0667 294.063C77.36 294.206 77.5527 294.342 77.6532 294.468C77.7538 294.604 77.804 294.773 77.804 295.001C77.804 295.508 77.5611 295.863 77.0667 296.074C76.5724 296.285 75.7094 296.395 74.4527 296.395H74.0421C75.1984 297.401 75.8938 298.086 76.1284 298.449C76.3043 298.728 76.2373 298.914 75.9189 298.99L75.3575 299.108C74.6119 300.638 73.6316 301.973 72.4167 303.097C74.2181 303.824 76.4216 304.314 79.0273 304.576V304.94C77.9716 305.286 77.2846 306.182 76.9746 307.627L76.9662 307.619ZM70.3892 302.024C71.1935 301.06 71.847 299.945 72.3581 298.694H67.3394C68.0851 300.046 69.0989 301.153 70.3975 302.024H70.3892Z" fill="white"/>
<path d="M18.1751 20.566C18.0745 20.566 17.9991 20.5322 17.9405 20.4731C17.8818 20.4139 17.8483 20.3379 17.8483 20.2618C17.907 19.3237 17.9489 18.3771 17.9656 17.4221V15.8417C17.6808 16.1628 17.354 16.4671 16.977 16.7544L16.801 16.6023C17.0775 16.2051 17.3372 15.7572 17.5802 15.2501C17.8064 14.7853 18.0159 14.2528 18.2002 13.6528C18.3845 13.0358 18.4935 12.5287 18.527 12.123C19.3145 12.4273 19.8005 12.647 20.0016 12.7907C20.1524 12.9006 20.144 12.9851 19.9848 13.0527L19.7167 13.1457C19.5072 13.5598 19.3313 13.9063 19.1721 14.1937L19.3229 14.2528H20.3367C20.5462 13.5682 20.6467 12.9259 20.6467 12.3259C21.4762 12.5372 21.9872 12.7062 22.1967 12.8245C22.3559 12.9175 22.3475 12.9935 22.1799 13.0696L21.9118 13.1795C21.5516 13.5767 21.1745 13.9317 20.7891 14.2613H21.7778L22.0459 13.864C22.0459 13.864 22.0878 13.8049 22.1213 13.7542C22.2554 13.5598 22.3643 13.4668 22.4313 13.4668C22.5318 13.4668 22.7329 13.6021 23.0429 13.8725C23.3529 14.1429 23.5037 14.3373 23.5037 14.4472C23.4702 14.6078 23.3529 14.6923 23.1518 14.6923H21.3086V15.9093H21.6437L22.1883 15.1994C22.3056 15.3008 22.4229 15.4022 22.5402 15.5036C22.8083 15.7403 23.0178 15.9346 23.177 16.1121C23.311 15.8924 23.4786 15.5881 23.6797 15.2163C23.8975 14.7684 24.0902 14.2528 24.2578 13.6612C24.4253 13.0696 24.5175 12.5625 24.5343 12.14C25.3302 12.4358 25.8245 12.647 26.0256 12.7907C26.1764 12.8921 26.1681 12.9766 26.0089 13.0358L25.7408 13.1457C25.5481 13.5936 25.3721 13.9401 25.2213 14.1937L25.414 14.2697H26.4445C26.6372 13.5175 26.7378 12.8752 26.721 12.3428C27.5672 12.5541 28.0951 12.7231 28.3129 12.8414C28.4721 12.9344 28.4721 13.0104 28.3129 13.0865L28.0448 13.1964C27.6594 13.6105 27.2824 13.9739 26.9137 14.2782H28.1202L28.3967 13.8809C28.3967 13.8809 28.447 13.8133 28.4889 13.7626C28.6229 13.5682 28.7235 13.4753 28.7821 13.4753C28.8826 13.4753 29.0837 13.6105 29.4021 13.8894C29.7205 14.1683 29.8713 14.3627 29.8713 14.4725C29.8378 14.6331 29.7205 14.7176 29.5026 14.7176H27.5254V15.9346H27.9694L28.2208 15.5712C28.2208 15.5712 28.2878 15.4952 28.3213 15.436C28.4386 15.2754 28.5308 15.1909 28.5894 15.1909C28.6899 15.1909 28.8743 15.3177 29.1508 15.5797C29.4272 15.8417 29.5613 16.0192 29.5613 16.1375C29.5278 16.2981 29.4105 16.3826 29.2094 16.3826H27.5254V17.6249H27.9694L28.2208 17.2615C28.2208 17.2615 28.2878 17.1855 28.3213 17.1263C28.4386 16.9657 28.5308 16.8812 28.5894 16.8812C28.6899 16.8812 28.8743 17.008 29.1508 17.27C29.4272 17.532 29.5613 17.7095 29.5613 17.8278C29.5278 17.9883 29.4189 18.0729 29.2262 18.0729H27.5337V19.3659H28.2375L28.5308 18.9265C28.5308 18.9265 28.5978 18.8335 28.6481 18.7574C28.7737 18.5715 28.8659 18.487 28.9245 18.487C29.0251 18.487 29.2345 18.6391 29.5613 18.9434C29.8881 19.2476 30.0472 19.4504 30.0472 19.5688C30.0137 19.7209 29.8964 19.797 29.6786 19.797H25.2297V20.135C25.2297 20.2026 25.1375 20.2871 24.9616 20.3801C24.7437 20.49 24.5008 20.5491 24.241 20.5491C24.1405 20.5491 24.0651 20.5153 24.0064 20.4562C23.9478 20.397 23.9143 20.3209 23.9143 20.2449C23.9729 19.3068 24.0148 18.3602 24.0316 17.4221V15.8586C23.7551 16.1713 23.4451 16.4586 23.0848 16.7206L22.8921 16.5516L23.0429 16.3403C22.9759 16.3826 22.8921 16.3995 22.7916 16.3995H21.2918V17.6418H21.627L21.8616 17.2953C21.8616 17.2953 21.9035 17.2446 21.9202 17.2024C22.0459 17.0164 22.1464 16.9319 22.2135 16.9319C22.314 16.9319 22.4899 17.0587 22.7581 17.3038C23.0262 17.5489 23.1602 17.7348 23.1602 17.8447C23.1183 18.0053 23.001 18.0898 22.8083 18.0898H21.2918V19.3828H21.9286L22.2051 18.9772C22.2051 18.9772 22.247 18.918 22.2805 18.8673C22.4145 18.656 22.5235 18.5461 22.5905 18.5461C22.691 18.5461 22.8921 18.6898 23.2021 18.9772C23.5121 19.2645 23.6629 19.4674 23.6629 19.5772C23.6294 19.7293 23.5121 19.8054 23.311 19.8054H19.1051V20.2026C19.1051 20.2702 19.0213 20.3632 18.8537 20.4646C18.6443 20.5745 18.4097 20.6337 18.1499 20.6337L18.1751 20.566ZM17.0691 26.3722L16.977 26.1271C19.1972 25.6623 21.1075 25.003 22.6994 24.1579C21.8448 23.4902 21.1662 22.6789 20.6635 21.7154C20.3116 22.3493 19.9764 22.924 19.6581 23.4142C19.7335 23.5832 19.7083 23.7269 19.5826 23.8367L18.7699 22.6535C19.281 22.3155 19.8089 21.9183 20.3451 21.4534H19.3899C18.837 21.4619 18.2672 21.538 17.6808 21.6647L17.2953 20.8872C17.8399 20.9464 18.4935 20.9886 19.2559 21.0055H26.2016L26.6121 20.6083C26.6121 20.6083 26.6875 20.5322 26.7629 20.4731C26.9556 20.2871 27.0897 20.2026 27.1483 20.2026C27.2405 20.2026 27.4583 20.397 27.8186 20.7773C28.1789 21.1661 28.3548 21.4112 28.3548 21.5211C28.2626 21.6394 28.0448 21.707 27.6929 21.7154C26.9472 22.6197 26.0089 23.3973 24.8945 24.0565C26.3105 24.4622 28.0616 24.6988 30.1562 24.7664L30.1394 24.9523C29.5781 25.1383 29.2345 25.5862 29.1089 26.3215C26.7964 26.0341 24.9616 25.5101 23.5959 24.7411C21.7694 25.5693 19.591 26.1102 17.0608 26.3637L17.0691 26.3722ZM19.1302 15.9008H20.2026V14.6838H19.1302V15.9008ZM19.1302 17.5911H20.2026V16.3488H19.1302V17.5911ZM19.1302 19.3152H20.2026V18.0222H19.1302V19.3152ZM23.6126 23.6255C24.6516 22.9662 25.481 22.2479 26.0926 21.4534H20.8143C21.4426 22.3831 22.381 23.1099 23.6126 23.6255ZM25.2464 15.9008H26.4445V14.6838H25.2464V15.9008ZM25.2464 17.5911H26.4445V16.3488H25.2464V17.5911ZM25.2464 19.3152H26.4445V18.0222H25.2464V19.3152Z" fill="white"/>
<path d="M18.6611 49.3772C18.6611 48.9293 18.5773 48.625 18.4097 48.4645C18.1835 48.2616 17.773 48.101 17.1865 47.9827L17.2032 47.7545C18.1165 47.839 18.6946 47.8729 18.9292 47.8729C19.1638 47.8729 19.323 47.8221 19.4319 47.7207C19.8173 47.3573 20.077 45.7853 20.2111 43.0133H18.4684C18.4349 43.3344 18.4097 43.6049 18.3762 43.8162C18.0997 44.0021 17.6808 44.0443 17.1194 43.9514C17.1613 43.6809 17.2116 43.2415 17.2703 42.6499C17.3205 42.278 17.354 41.9906 17.3708 41.7963C17.4797 40.5708 17.4965 39.5651 17.4295 38.7791L18.9962 39.4299H20.1189V36.6493H19.1303C18.5438 36.6578 17.9322 36.7338 17.3038 36.8606L16.9016 36.1C17.4462 36.1592 18.0997 36.2014 18.8622 36.2183H19.9681L20.2446 35.7957C20.2446 35.7957 20.2865 35.7366 20.32 35.6859C20.454 35.4746 20.563 35.3647 20.63 35.3647C20.7305 35.3647 20.9651 35.5337 21.3505 35.8803C21.7359 36.2268 21.9286 36.455 21.9286 36.5648C21.8197 36.7169 21.627 36.8268 21.3505 36.886V37.9931C21.3673 38.9143 21.4008 39.6242 21.4427 40.1313C21.3924 40.2243 21.2416 40.3173 20.9819 40.4102C20.7222 40.5032 20.5043 40.5539 20.3032 40.5539H20.1105V39.8524H18.7365C18.6862 40.706 18.6108 41.6103 18.5019 42.5653H20.077L20.387 42.2019C20.387 42.2019 20.4289 42.1512 20.4624 42.109C20.6216 41.923 20.7305 41.8385 20.7976 41.8385C20.8981 41.8385 21.1243 41.9991 21.4762 42.3118C21.8281 42.6245 22.004 42.8358 22.004 42.9457C21.8867 43.0809 21.7024 43.1569 21.4427 43.1908C21.3505 44.8472 21.2165 46.1234 21.0322 47.0193C20.8394 47.932 20.5713 48.5405 20.2362 48.8448C19.834 49.1913 19.3062 49.3603 18.6443 49.3603L18.6611 49.3772ZM29.6954 49.242C29.444 49.4026 29.1676 49.3519 28.8659 49.0899C28.7989 48.625 28.6313 48.101 28.38 47.5263C26.9724 47.9151 25.037 48.3799 22.557 48.9377C22.4816 49.0983 22.3476 49.2082 22.1716 49.2589L21.4511 47.6193C22.2303 47.5855 23.4451 47.5179 25.104 47.408V44.5092H23.554V45.1599C23.554 45.2276 23.4535 45.3121 23.244 45.405C23.0094 45.5064 22.7832 45.5572 22.5654 45.5572C22.3894 45.5572 22.2973 45.4557 22.2973 45.2529C22.3392 44.8895 22.3643 44.4331 22.3895 43.8838V43.0471C22.3895 42.0076 22.3392 41.154 22.2386 40.4778L23.6211 41.1117H25.0957C25.0957 40.3764 25.0622 39.7595 24.9951 39.2777C25.7994 39.489 26.3022 39.658 26.4949 39.7764C26.6457 39.8693 26.654 39.9623 26.5284 40.0468L26.3105 40.1989V41.1117H27.8438L28.1119 40.7314C28.1119 40.7314 28.1789 40.6553 28.2124 40.5962C28.3297 40.4356 28.4219 40.3511 28.4805 40.3511C28.5811 40.3511 28.8073 40.5116 29.1676 40.8243C29.5278 41.1371 29.7038 41.3483 29.7038 41.4582C29.5781 41.5934 29.4022 41.6779 29.1843 41.7287V42.7766C29.2011 43.6302 29.2346 44.2979 29.2765 44.7965C29.2262 44.8895 29.0754 44.9825 28.824 45.0839C28.5727 45.1853 28.3549 45.236 28.1705 45.236H27.9611V44.4923H26.3105V47.2982L28.2124 47.146C27.9778 46.6643 27.6678 46.1234 27.2992 45.5403L27.4584 45.4473C28.3213 45.8614 28.9832 46.36 29.4357 46.9347C29.8211 47.408 30.0222 47.8898 30.0389 48.363C30.0557 48.7772 29.9467 49.0645 29.6954 49.2251V49.242ZM29.4859 39.8017C29.2513 39.9961 28.9749 39.9792 28.6565 39.7595C28.5894 39.3876 28.4219 38.965 28.1538 38.5002C26.9724 38.7537 25.1962 39.1003 22.8167 39.5313C22.7246 39.7172 22.5989 39.8186 22.4146 39.8524L21.87 38.2467C22.3224 38.2636 22.9592 38.2636 23.7719 38.2467C24.1154 37.1311 24.2913 36.1253 24.2913 35.2295C25.2884 35.483 25.9084 35.669 26.1597 35.7873C26.344 35.8887 26.3524 35.9732 26.1932 36.0493L25.9251 36.1592C25.4308 36.9367 24.9113 37.6382 24.35 38.2551C24.97 38.2467 26.0173 38.2213 27.4919 38.196C27.6846 38.1875 27.8354 38.179 27.9359 38.179C27.584 37.6635 27.1903 37.224 26.7713 36.8775L26.8886 36.7592C27.7935 36.962 28.4973 37.2916 29.0084 37.748C29.444 38.1114 29.687 38.5087 29.7457 38.9481C29.8043 39.3453 29.7205 39.6327 29.4859 39.8271V39.8017ZM23.554 44.0613H25.104V41.5596H23.554V44.0613ZM26.3105 44.0613H27.9611V41.5596H26.3105V44.0613Z" fill="white"/>
<path d="M18.5271 72.0355C18.4936 71.5284 18.4014 71.1735 18.2506 70.9706C18.016 70.7087 17.6055 70.5312 17.0274 70.4382V70.2269C17.5971 70.2607 18.1584 70.2945 18.7198 70.3368C18.9292 70.3368 19.0298 70.2269 19.0298 70.0156V60.5754H18.3511C17.9574 60.5838 17.5552 60.6599 17.1447 60.7867L16.776 60.0091C17.3206 60.0683 17.9741 60.1105 18.7365 60.1275H20.3033L21.116 58.9865C21.359 59.1978 21.6019 59.4091 21.8365 59.6204L21.803 59.5105H27.9025L28.2711 58.9781C28.2711 58.9781 28.3465 58.8766 28.4052 58.7921C28.5811 58.547 28.6984 58.4287 28.7571 58.4287C28.8576 58.4287 29.1174 58.6146 29.5447 58.9865C29.9719 59.3584 30.1898 59.595 30.1898 59.7049C30.1479 59.8655 30.0222 59.95 29.8044 59.95H26.6374C26.2184 60.6599 25.8079 61.2261 25.4141 61.6487H27.626L27.9192 61.243C27.9192 61.243 27.9695 61.167 28.0198 61.1078C28.1538 60.9134 28.2544 60.8205 28.313 60.8205C28.4136 60.8205 28.6482 60.9895 29.0168 61.336C29.3855 61.6825 29.5782 61.9107 29.5782 62.0206C29.5028 62.1558 29.3352 62.2403 29.0922 62.2826V65.2997C29.109 66.5505 29.1509 67.7422 29.2095 68.8662C29.1425 68.9677 28.9749 69.0775 28.7068 69.1874C28.4219 69.3057 28.1706 69.3733 27.9528 69.3733H27.7349V68.6888H24.0065V69.1282C24.0065 69.2212 23.8892 69.3226 23.6714 69.4325C23.4117 69.5508 23.1519 69.6184 22.8922 69.6184C22.7833 69.6184 22.6995 69.5846 22.6325 69.5255C22.5655 69.4663 22.5403 69.3902 22.5403 69.3142C22.6074 68.2915 22.6492 67.1675 22.6744 65.9336V64.0827C22.6744 62.8066 22.6074 61.767 22.4817 60.9726L24.0736 61.6741H24.9701C25.0455 61.0402 25.1041 60.474 25.1292 59.9753H22.1968C22.3728 60.1359 22.4984 60.2627 22.5822 60.3387C22.5403 60.4993 22.4063 60.5838 22.1801 60.5838H20.3955V70.0833C20.3955 70.6833 20.2865 71.1228 20.0687 71.4017C19.7838 71.7566 19.2644 71.9679 18.5187 72.0355H18.5271ZM20.8563 72.4497L20.739 72.2384C21.2501 71.9764 21.7695 71.6468 22.289 71.2495C23.2944 70.4889 23.9563 69.7452 24.2914 69.0184L25.1879 69.7198C25.5398 69.9142 25.7576 70.0579 25.833 70.1593C25.9001 70.2523 25.8665 70.2945 25.7325 70.2945H25.4979C24.9952 70.7256 24.3082 71.1481 23.4284 71.5623C22.5487 71.9764 21.6941 72.2722 20.8563 72.4497ZM24.0065 63.8292H27.7349V62.1135H24.0065V63.8292ZM24.0065 66.0181H27.7349V64.2687H24.0065V66.0181ZM24.0065 68.2577H27.7349V66.4491H24.0065V68.2577ZM29.5949 72.1792C29.3771 72.4158 29.0838 72.4412 28.7068 72.2722C28.4722 71.8158 28.0784 71.3172 27.5422 70.7678C27.0479 70.2692 26.5536 69.8466 26.0509 69.4916L26.1514 69.3564C27.2155 69.4663 28.0617 69.7198 28.6984 70.1171C29.2263 70.4382 29.5698 70.8185 29.7122 71.258C29.8379 71.6468 29.796 71.951 29.5782 72.1877L29.5949 72.1792Z" fill="white"/>
<path d="M17.0105 95.4624L16.91 95.2004C18.6192 94.5666 19.8927 93.8313 20.7305 93.0115C21.4594 92.2931 21.937 91.4142 22.1632 90.3747H19.4905C18.7951 90.3831 18.0578 90.4592 17.2786 90.586L16.8765 89.8084C17.4211 89.8676 18.0746 89.9098 18.837 89.9267H22.2386C22.3308 89.2084 22.3392 88.5914 22.2805 88.0759C23.244 88.1604 23.8473 88.2449 24.0902 88.3379C24.2662 88.397 24.283 88.4815 24.1321 88.583L23.8808 88.752C23.8221 89.276 23.7719 89.6732 23.7216 89.9352H27.6846L28.07 89.3774C28.07 89.3774 28.1202 89.2929 28.1705 89.2253C28.3632 88.9464 28.4973 88.8027 28.5727 88.8027C28.6732 88.8027 28.9413 88.9971 29.377 89.3858C29.8127 89.7746 30.0305 90.0282 30.0305 90.138C29.9886 90.2986 29.8546 90.3831 29.6284 90.3831H24.0819C25.0454 92.3016 27.0646 93.5017 30.1394 93.9665V94.1525C29.5865 94.2877 29.2262 94.7272 29.0502 95.4709C27.6678 95.023 26.5619 94.4314 25.7492 93.6792C24.8527 92.8594 24.1992 91.7607 23.7719 90.3831H23.6378C23.3697 91.617 22.8167 92.5974 21.9705 93.3242C20.94 94.2116 19.2811 94.93 16.9854 95.4624H17.0105ZM17.1865 87.1293L17.0524 86.9434C17.5467 86.5208 18.0578 85.9546 18.5857 85.2615C18.8705 84.8559 19.1302 84.3995 19.3732 83.8924C19.6162 83.3853 19.7838 82.9289 19.8843 82.5233L20.8897 83.1571C21.6102 83.4952 21.803 83.6896 21.4762 83.7656L21.2248 83.8079C20.764 84.4333 20.1943 85.0334 19.5157 85.6165C18.77 86.2504 17.9908 86.7574 17.1865 87.1209V87.1293ZM22.314 87.9237C22.2638 87.4505 22.1548 87.1378 21.9789 86.9941C21.7359 86.7828 21.317 86.6307 20.7389 86.5377V86.3264C21.3505 86.3602 21.9538 86.394 22.5654 86.4363C22.7581 86.4363 22.8586 86.3433 22.8586 86.1658V83.7656C22.8586 82.743 22.8084 81.9148 22.7078 81.2725C23.6043 81.4922 24.1657 81.6697 24.3919 81.788C24.5594 81.881 24.5762 81.9739 24.4338 82.0584L24.1992 82.2106V86.1997C24.1992 86.7574 24.0902 87.1462 23.8724 87.366C23.6043 87.6618 23.0848 87.8392 22.3057 87.9153L22.314 87.9237ZM29.2178 86.6307C28.9832 86.8842 28.6816 86.9011 28.2962 86.6729C28.1035 86.0729 27.7097 85.4306 27.1148 84.7291C26.587 84.1121 26.0089 83.5797 25.3889 83.1318L25.4894 83.0135C26.6457 83.2501 27.5757 83.622 28.2627 84.1375C28.8408 84.5685 29.2094 85.0503 29.3519 85.5658C29.4859 86.0222 29.444 86.3771 29.2094 86.6307H29.2178Z" fill="white"/>
<path d="M19.4822 118.476C19.3565 118.476 19.2476 118.442 19.1722 118.383C19.0968 118.324 19.0549 118.248 19.0549 118.172C19.1471 116.87 19.1973 115.552 19.2141 114.225V111.766C18.6276 112.983 17.8652 114.064 16.9436 115.011L16.7509 114.825C17.7646 113.194 18.5187 111.081 19.0046 108.478H18.3846C18.0327 108.487 17.6641 108.563 17.2955 108.689L16.91 107.912C17.3457 107.971 17.8652 108.013 18.4768 108.03H19.2141V107.422C19.2141 106.145 19.1471 105.106 19.0214 104.312C19.9514 104.548 20.5379 104.726 20.7641 104.861C20.9317 104.962 20.94 105.064 20.7809 105.165L20.5295 105.334V108.039H20.9149L21.2082 107.523C21.2082 107.523 21.2584 107.43 21.3087 107.371C21.4595 107.117 21.56 106.991 21.6187 106.991C21.7109 106.991 21.9287 107.168 22.2722 107.532C22.6241 107.895 22.7917 108.123 22.7917 108.233C22.7498 108.394 22.6241 108.478 22.4063 108.478H20.5211V109.83C21.2668 110.118 21.8365 110.473 22.2136 110.912C22.5403 111.267 22.6995 111.622 22.6995 111.977C22.6995 112.298 22.5822 112.526 22.356 112.645C22.1214 112.763 21.8784 112.712 21.6103 112.476C21.5014 111.808 21.1411 111.03 20.5211 110.151V114.386C20.5379 115.636 20.5798 116.828 20.6384 117.952C20.5798 118.07 20.429 118.189 20.1944 118.299C19.9514 118.409 19.7084 118.468 19.4738 118.468L19.4822 118.476ZM23.286 118.383C23.1687 118.383 23.0682 118.349 23.0011 118.29C22.9341 118.231 22.8922 118.155 22.8922 118.079C22.9844 116.777 23.0346 115.459 23.0514 114.132V108.03C23.0514 106.754 22.9844 105.714 22.8587 104.92L24.4506 105.647H27.869L28.179 105.241C28.179 105.241 28.2544 105.157 28.313 105.089C28.4471 104.92 28.5476 104.827 28.6063 104.827C28.7068 104.827 28.9498 104.996 29.3519 105.334C29.7541 105.672 29.9468 105.9 29.9468 106.01C29.8295 106.162 29.6284 106.272 29.3603 106.331V114.191C29.3771 115.442 29.419 116.634 29.4776 117.758C29.4022 117.868 29.2346 117.986 28.9749 118.104C28.6984 118.248 28.4471 118.316 28.2041 118.316C28.0282 118.316 27.936 118.214 27.936 118.011C27.9444 117.918 27.9527 117.8 27.9695 117.665C27.9779 117.555 27.9863 117.454 28.003 117.377V116.904H24.3919V117.225C24.4003 117.318 24.4087 117.42 24.4087 117.53C24.4171 117.639 24.4254 117.716 24.4422 117.758C24.4254 117.901 24.2998 118.037 24.0736 118.163C23.839 118.307 23.5792 118.375 23.2944 118.375L23.286 118.383ZM24.3919 109.188H28.003V106.078H24.3919V109.188ZM24.3919 112.771H28.003V109.627H24.3919V112.771ZM24.3919 116.473H28.003V113.211H24.3919V116.473Z" fill="white"/>
<path d="M17.6891 141.489L16.91 139.867C17.3205 139.698 17.9237 139.394 18.7197 138.971V134.416H18.1332C17.8316 134.424 17.5048 134.5 17.1613 134.627L16.8262 133.849C17.1529 133.909 17.53 133.951 17.974 133.968H18.5186L18.8286 133.486C18.8286 133.486 18.8789 133.401 18.9291 133.334C19.08 133.097 19.1805 132.987 19.2391 132.987C19.3397 132.987 19.5994 133.182 20.0351 133.562C20.4708 133.951 20.6802 134.196 20.6802 134.306C20.5546 134.458 20.32 134.559 19.9764 134.61V138.523C20.454 139.072 21.0237 139.427 21.6856 139.605C22.2554 139.757 23.2105 139.833 24.5427 139.833C26.7127 139.833 28.581 139.816 30.1478 139.774V139.968C29.6032 140.087 29.31 140.492 29.2513 141.168H24.5594C23.1937 141.168 22.1883 141.016 21.5516 140.712C20.8646 140.391 20.2781 139.749 19.8005 138.802C19.2559 139.563 18.6191 140.34 17.8818 141.143C17.8986 141.287 17.84 141.405 17.6891 141.489ZM18.9962 130.79C18.9208 130.325 18.7281 129.818 18.4181 129.269C18.1332 128.77 17.8148 128.339 17.4713 127.976L17.6054 127.866C18.4935 128.086 19.1721 128.424 19.6413 128.88C20.0351 129.252 20.2362 129.657 20.2445 130.097C20.2613 130.486 20.144 130.756 19.8927 130.917C19.6162 131.077 19.3146 131.035 18.9962 130.782V130.79ZM27.7432 139.368C27.7097 138.988 27.6175 138.709 27.4667 138.548C27.1986 138.346 26.8132 138.21 26.3021 138.143V137.931C26.8551 137.965 27.3997 137.991 27.9359 138.024C28.1454 138.024 28.2459 137.931 28.2459 137.737V134.475H25.8748V136.157L26.8635 136.123C26.7378 135.751 26.5702 135.396 26.3608 135.075L26.52 134.982C27.0981 135.269 27.517 135.599 27.7767 135.988C28.0029 136.3 28.0951 136.613 28.0448 136.917C28.0029 137.188 27.8856 137.374 27.6762 137.458C27.4667 137.543 27.2656 137.475 27.0562 137.255C27.0646 137.052 27.0394 136.799 26.964 136.478C26.0173 136.765 24.8862 137.061 23.5624 137.391C23.4954 137.56 23.3781 137.669 23.2273 137.712L22.5318 136.267C23.0513 136.267 23.7635 136.25 24.6516 136.224V134.475H22.4397V135.945C22.4732 137.171 22.5067 138.117 22.5402 138.785C22.4816 138.895 22.3391 139.005 22.1129 139.123C21.87 139.233 21.627 139.292 21.3924 139.292C21.2081 139.292 21.1159 139.191 21.1159 138.988C21.1578 138.557 21.1829 138.008 21.2081 137.348V136.359C21.2081 135.159 21.1494 134.154 21.0321 133.351L22.5318 134.035H24.6516V132.641H23.001V132.987C23.001 133.072 22.8921 133.156 22.6659 133.258C22.4229 133.368 22.1716 133.427 21.9286 133.427C21.7527 133.427 21.6605 133.325 21.6605 133.123C21.7024 132.7 21.7275 132.168 21.7527 131.525V130.57C21.7527 129.395 21.694 128.424 21.5767 127.654L23.0764 128.322H27.4835L27.76 127.942C27.76 127.942 27.8102 127.874 27.8521 127.824C27.9862 127.654 28.0867 127.562 28.1454 127.562C28.2459 127.562 28.4889 127.722 28.891 128.043C29.2932 128.364 29.4859 128.576 29.4859 128.686C29.3351 128.838 29.1424 128.939 28.8994 128.99V130.283C28.9162 131.322 28.9497 132.159 28.9916 132.776C28.9329 132.877 28.7821 132.979 28.5308 133.08C28.2627 133.199 28.0281 133.266 27.827 133.266H27.6091V132.641H25.8832V134.035H28.1118L28.38 133.613C28.38 133.613 28.4302 133.537 28.4721 133.478C28.6062 133.275 28.7067 133.173 28.7654 133.173C28.8659 133.173 29.1089 133.351 29.511 133.714C29.9132 134.078 30.1059 134.306 30.1059 134.424C30.0054 134.568 29.8127 134.669 29.5278 134.728V137.872C29.5278 138.354 29.4273 138.701 29.2345 138.903C28.9748 139.165 28.4889 139.326 27.76 139.385L27.7432 139.368ZM22.9927 130.232H24.6432V128.745H22.9927V130.232ZM22.9927 132.184H24.6432V130.655H22.9927V132.184ZM25.8664 130.232H27.5924V128.745H25.8664V130.232ZM25.8664 132.184H27.5924V130.655H25.8664V132.184Z" fill="white"/>
<path d="M27.1819 154.978L26.9473 154.539C27.9192 154.006 28.4721 153.263 28.5978 152.324C28.137 152.164 27.8019 152.003 27.5924 151.851C27.2489 151.589 27.0729 151.26 27.0729 150.862C27.0729 150.558 27.1735 150.296 27.3662 150.076C27.584 149.857 27.8605 149.738 28.1956 149.738C28.5727 149.738 28.8743 149.882 29.1005 150.161C29.3351 150.448 29.444 150.82 29.444 151.302C29.444 152.029 29.2765 152.705 28.9413 153.322C28.5475 154.049 27.961 154.598 27.1735 154.978H27.1819Z" fill="white"/>
<path d="M17.2619 178.549L16.8597 177.771C17.4043 177.83 18.0578 177.873 18.8203 177.89H24.3919C24.727 176.825 24.8946 175.827 24.8946 174.881C25.8414 175.084 26.4278 175.244 26.6624 175.354C26.8384 175.447 26.8468 175.532 26.696 175.616L26.4446 175.734C25.9838 176.461 25.4141 177.18 24.7354 177.89H27.7851L28.1538 177.357C28.1538 177.357 28.2292 177.256 28.2879 177.171C28.4638 176.926 28.5811 176.808 28.6397 176.808C28.7403 176.808 29 176.994 29.4106 177.366C29.8295 177.737 30.0389 177.974 30.0389 178.084C29.997 178.244 29.8714 178.329 29.6535 178.329H19.4654C18.77 178.337 18.0327 178.414 17.2535 178.54L17.2619 178.549ZM17.6557 170.478L17.287 169.717C17.8316 169.776 18.4851 169.818 19.2476 169.835H27.4919L27.8438 169.337C27.8438 169.337 27.9108 169.244 27.9611 169.168C28.1287 168.931 28.2376 168.821 28.2962 168.821C28.3968 168.821 28.6397 168.99 29.0419 169.337C29.4441 169.683 29.6368 169.911 29.6368 170.021C29.5949 170.182 29.4776 170.266 29.2681 170.266H19.8592C19.1638 170.275 18.4265 170.351 17.6473 170.478H17.6557ZM18.7951 169.278C18.5857 169.278 18.4851 169.176 18.4851 168.973C18.5019 168.804 18.527 168.576 18.5438 168.289C18.5522 168.153 18.5606 168.052 18.5606 167.968V167.317C18.5606 166.463 18.5187 165.796 18.4433 165.297C19.3062 165.508 19.8508 165.677 20.0687 165.796C20.2278 165.888 20.2278 165.981 20.0854 166.066L19.8508 166.218V167.934H22.8419V167.722C22.8419 166.446 22.7749 165.407 22.6492 164.612C23.5457 164.824 24.107 164.993 24.3333 165.111C24.4924 165.204 24.5008 165.297 24.3668 165.398L24.1489 165.55V167.934H26.9473C26.9473 166.835 26.897 165.948 26.7881 165.297C27.693 165.508 28.2543 165.677 28.4806 165.796C28.6481 165.888 28.6565 165.981 28.5141 166.083L28.2795 166.235V166.869C28.2795 167.021 28.2795 167.215 28.2962 167.444C28.313 167.968 28.3381 168.373 28.3549 168.644C28.313 168.745 28.1706 168.846 27.9192 168.948C27.6678 169.049 27.4249 169.1 27.1903 169.1H26.9557V168.373H19.8676V168.931C19.8676 168.99 19.7587 169.066 19.5324 169.142C19.2978 169.227 19.0633 169.261 18.8287 169.261L18.7951 169.278ZM21.1495 177.594C21.1495 176.858 20.8981 176.047 20.3954 175.177C20.3451 175.244 20.2362 175.312 20.0687 175.371C19.8592 175.456 19.633 175.489 19.3733 175.489H19.1387V173.258C19.1387 172.337 19.0968 171.568 19.0046 170.951L20.5546 171.635H26.4697L26.7462 171.213C26.7462 171.213 26.7965 171.137 26.8384 171.078C26.9724 170.875 27.073 170.773 27.1316 170.773C27.2322 170.773 27.4584 170.934 27.8103 171.255C28.1622 171.576 28.3381 171.788 28.3381 171.897C28.2795 171.999 28.1119 172.083 27.8354 172.143V173.072C27.8354 173.216 27.8354 173.402 27.8522 173.63C27.8689 174.154 27.8941 174.56 27.9108 174.83C27.8689 174.923 27.7516 175.008 27.5422 175.092C27.3076 175.185 27.0395 175.227 26.7295 175.227H26.5116V174.636H20.4122V175.151C20.4122 175.151 20.4122 175.168 20.3954 175.185L20.5295 175.109C21.25 175.379 21.7695 175.734 22.1046 176.157C22.3727 176.503 22.4816 176.85 22.4314 177.205C22.3727 177.526 22.2135 177.737 21.9622 177.839C21.6857 177.94 21.4176 177.856 21.1495 177.594ZM20.4122 174.205H26.5116V172.066H20.4122V174.205Z" fill="white"/>
<path d="M17.1865 201.317L16.8179 200.539C17.2619 200.598 17.7981 200.641 18.4433 200.657H19.2141V194.42C19.2141 193.144 19.1471 192.105 19.0214 191.31C20.01 191.547 20.63 191.716 20.8814 191.843C21.0573 191.944 21.0657 192.045 20.9149 192.147L20.6468 192.316V200.666H23.1519V190.964C23.1519 189.687 23.0849 188.648 22.9592 187.854C23.9479 188.09 24.5679 188.268 24.8192 188.403C24.9952 188.504 25.0035 188.606 24.8527 188.707L24.6014 188.876V193.609H26.7714L27.1735 193.017C27.2071 192.967 27.249 192.899 27.3244 192.823C27.5087 192.553 27.6344 192.417 27.693 192.417C27.7935 192.417 28.0784 192.62 28.5644 193.034C29.0419 193.44 29.2849 193.702 29.2849 193.812C29.243 193.972 29.109 194.057 28.8827 194.057H24.6098V200.674H27.5841L27.9946 200.049C28.0365 199.998 28.0868 199.922 28.1538 199.821C28.3298 199.559 28.4471 199.424 28.5057 199.424C28.6062 199.424 28.8995 199.635 29.3854 200.057C29.8714 200.48 30.1144 200.75 30.1144 200.86C30.0725 201.021 29.9384 201.105 29.7122 201.105H19.4068C18.7114 201.114 17.9741 201.19 17.1949 201.317H17.1865Z" fill="white"/>
<path d="M28.891 224.854C26.0424 223.367 24.3416 220.814 23.8054 217.205H23.7467C23.5121 219.014 22.9424 220.476 22.0375 221.592C20.9818 222.91 19.3229 223.975 17.0524 224.795L16.9183 224.567C18.7281 223.645 20.0602 222.547 20.9148 221.271C21.6437 220.189 22.1046 218.828 22.2973 217.205H20.1189C19.4235 217.214 18.6862 217.29 17.907 217.417L17.5383 216.639C18.0829 216.698 18.7364 216.741 19.4989 216.758H22.3475C22.4146 216.022 22.4564 214.839 22.4816 213.208V212.768H19.6329C18.9375 212.777 18.2002 212.853 17.421 212.98L17.0189 212.202C17.5635 212.261 18.217 212.304 18.9794 212.321H27.4583L27.8605 211.729C27.8605 211.729 27.9359 211.628 27.9946 211.543C28.1789 211.273 28.3046 211.129 28.3632 211.129C28.4637 211.129 28.7486 211.332 29.2178 211.737C29.687 212.143 29.9216 212.397 29.9216 212.515C29.8797 212.676 29.7456 212.76 29.5194 212.76H23.9897C23.9729 214.501 23.9059 215.828 23.797 216.749H27.0394L27.4416 216.174C27.4416 216.174 27.517 216.065 27.5924 215.98C27.7767 215.727 27.9024 215.6 27.961 215.6C28.0616 215.6 28.3381 215.794 28.7989 216.191C29.2597 216.589 29.4943 216.842 29.4943 216.952C29.4524 217.113 29.3183 217.197 29.0921 217.197H24.0483C24.6851 220.037 26.7127 222.107 30.1394 223.392L30.1059 223.561C29.3854 223.696 28.9832 224.119 28.8827 224.854H28.891Z" fill="white"/>
<path d="M17.597 246.456C17.4964 246.456 17.4127 246.423 17.3373 246.363C17.2619 246.304 17.2283 246.228 17.2283 246.152C17.3205 244.851 17.3708 243.532 17.3875 242.205V237.65C17.3875 236.374 17.3205 235.334 17.1948 234.54L18.8286 235.224H20.0854L20.3786 234.844C20.3786 234.844 20.4289 234.768 20.4791 234.709C20.6132 234.54 20.7137 234.447 20.7724 234.447C20.8729 234.447 21.1159 234.607 21.5013 234.929C21.8867 235.25 22.0878 235.47 22.0878 235.579C21.9705 235.732 21.7694 235.841 21.5013 235.901V241.664C21.5181 242.915 21.56 244.107 21.6186 245.231C21.5516 245.332 21.384 245.442 21.1327 245.552C20.8646 245.67 20.63 245.738 20.4289 245.738C20.2529 245.738 20.1608 245.637 20.1608 245.434C20.1691 245.383 20.1775 245.315 20.1943 245.222C20.2027 245.155 20.211 245.087 20.2278 245.037V244.69H18.661V245.13C18.6694 245.231 18.6778 245.349 18.6778 245.493C18.6946 245.696 18.7113 245.839 18.7197 245.932C18.6778 246.042 18.5689 246.152 18.3846 246.254C18.1583 246.389 17.8986 246.448 17.6054 246.448L17.597 246.456ZM18.661 239.687H20.2278V235.664H18.661V239.687ZM18.661 244.251H20.2278V240.126H18.661V244.251ZM21.9035 239.476L21.5181 238.715C22.0627 238.774 22.7162 238.816 23.4786 238.833H24.8778V236.619H23.9478C23.42 236.627 22.867 236.703 22.2973 236.83L21.9119 236.053C22.4564 236.112 23.11 236.154 23.8724 236.171H24.8778C24.8778 235.182 24.8275 234.379 24.727 233.754C25.6402 233.974 26.21 234.151 26.4194 234.269C26.587 234.371 26.5954 234.472 26.4362 234.574L26.1681 234.743V236.171H27.5673L27.9024 235.639C27.9024 235.639 27.9778 235.529 28.0364 235.444C28.1956 235.224 28.3046 235.106 28.3632 235.106C28.4637 235.106 28.7067 235.292 29.1005 235.655C29.4943 236.019 29.687 236.256 29.687 236.365C29.6535 236.526 29.5362 236.61 29.3351 236.61H26.1681V238.825H27.9694L28.3213 238.275C28.3213 238.275 28.3883 238.182 28.4386 238.106C28.6146 237.844 28.7319 237.709 28.7905 237.709C28.891 237.709 29.1424 237.895 29.5529 238.267C29.9635 238.639 30.1729 238.884 30.1729 238.994C30.131 239.154 30.0054 239.239 29.7875 239.239H24.0986C23.4032 239.247 22.6659 239.323 21.8867 239.45L21.9035 239.476ZM26.0424 247.851C25.9921 247.378 25.8832 247.048 25.7073 246.879C25.4727 246.659 25.037 246.49 24.4086 246.38V246.169C25.037 246.203 25.6654 246.237 26.2937 246.279C26.5116 246.279 26.6205 246.186 26.6205 245.992V241.724H24.1573C23.4619 241.732 22.7246 241.808 21.9454 241.935L21.56 241.157C22.0962 241.217 22.7497 241.259 23.5205 241.276H26.6205C26.6205 240.524 26.587 239.923 26.52 239.45C27.3662 239.67 27.894 239.847 28.1119 239.966C28.271 240.059 28.2878 240.152 28.1537 240.236L27.9359 240.388V241.267H28.3213L28.6313 240.785C28.6313 240.785 28.7067 240.684 28.7654 240.6C28.8994 240.388 29 240.278 29.0586 240.278C29.1591 240.278 29.3854 240.447 29.7456 240.785C30.1059 241.124 30.2819 241.352 30.2819 241.462C30.2483 241.622 30.1227 241.707 29.8964 241.707H27.9359V246.051C27.9359 246.625 27.827 247.04 27.6091 247.276C27.341 247.572 26.8216 247.758 26.0424 247.834V247.851ZM23.8054 244.952C23.7551 244.538 23.6127 244.073 23.3781 243.558C23.1602 243.127 22.9089 242.712 22.624 242.332L22.7581 242.239C23.5708 242.484 24.1908 242.822 24.6013 243.27C24.9448 243.634 25.1124 244.014 25.104 244.411C25.0956 244.766 24.9532 245.011 24.6935 245.138C24.4086 245.282 24.1154 245.223 23.8054 244.952Z" fill="white"/>
<path d="M17.4965 269.376L16.7927 267.66C17.1111 267.568 17.6976 267.356 18.5773 267.027V261.897H18.0746C17.7981 261.905 17.5133 261.981 17.22 262.108L16.8514 261.33C17.1781 261.389 17.5719 261.432 18.0327 261.449H18.5773V260.147C18.5773 258.871 18.5103 257.831 18.3846 257.037C19.2979 257.274 19.8676 257.443 20.0938 257.569C20.2614 257.662 20.2698 257.755 20.1106 257.857L19.8425 258.026V261.457H20.1106L20.4038 260.899C20.4038 260.899 20.4541 260.806 20.5043 260.73C20.6552 260.468 20.7557 260.333 20.8143 260.333C20.9065 260.333 21.1076 260.527 21.4343 260.908C21.7611 261.297 21.9203 261.542 21.9203 261.651C21.9119 261.812 21.7946 261.897 21.5684 261.897H19.8425V266.511C20.387 266.291 21.0322 266.012 21.7862 265.674L21.8616 265.843C21.803 265.894 21.7108 265.97 21.5935 266.072C20.1608 267.238 18.8957 268.193 17.8065 268.937C17.7562 269.156 17.6557 269.309 17.4965 269.376ZM24.3668 270.365C23.5373 270.365 22.9843 270.255 22.6827 270.044C22.3643 269.824 22.2135 269.393 22.2135 268.751V262.843L20.6635 263.452L20.3954 263.088L22.2052 262.361V260.172C22.2052 259.285 22.1633 258.533 22.0711 257.924C22.9676 258.169 23.5122 258.355 23.7216 258.482C23.8808 258.584 23.8808 258.685 23.7384 258.786L23.487 258.955V261.854L25.0203 261.246V259.032C25.0203 258.119 24.9784 257.358 24.8862 256.741C25.7576 256.978 26.3022 257.147 26.52 257.274C26.6708 257.375 26.6708 257.477 26.52 257.578L26.2687 257.747V260.756L27.7433 260.164L27.8773 260.122H27.8606L28.1706 259.716C28.1706 259.716 28.2376 259.64 28.2879 259.581C28.4387 259.387 28.5392 259.294 28.5979 259.294C28.69 259.294 28.9162 259.471 29.2765 259.826C29.6368 260.181 29.8211 260.409 29.8211 260.527C29.7206 260.646 29.5446 260.73 29.2933 260.773C29.2765 262.792 29.2179 264.204 29.1173 264.99C29.0168 265.793 28.8408 266.317 28.5727 266.587C28.246 266.925 27.7935 267.086 27.2154 267.086C27.2154 266.587 27.1652 266.283 27.0646 266.156C26.9306 265.97 26.6876 265.835 26.3608 265.75V265.505C26.7127 265.548 27.0227 265.565 27.2741 265.565C27.45 265.565 27.5673 265.522 27.626 265.429C27.7516 265.294 27.8438 264.863 27.8941 264.128C27.9527 263.426 27.9946 262.243 28.0114 260.561L26.2687 261.246V263.9C26.2854 265.15 26.3273 266.342 26.386 267.466C26.3273 267.584 26.1849 267.703 25.9587 267.813C25.7157 267.931 25.4811 267.999 25.2549 267.999C25.146 267.999 25.0538 267.965 24.9784 267.906C24.903 267.846 24.8695 267.77 24.8695 267.694C24.8695 267.635 24.8695 267.551 24.8862 267.432C24.9533 266.232 24.9952 265.032 25.0203 263.832V261.736L23.487 262.345V268.413C23.487 268.632 23.5541 268.793 23.6798 268.886C23.8306 268.979 24.0903 269.021 24.4757 269.021H26.4781C27.3746 269.021 27.9611 269.004 28.246 268.962C28.4638 268.954 28.6146 268.877 28.7068 268.734C28.866 268.48 29.0838 267.753 29.3687 266.545H29.5279L29.5698 268.793C29.9803 268.954 30.1897 269.165 30.1897 269.418C30.1897 269.782 29.9468 270.027 29.4525 270.162C28.933 270.306 27.9108 270.373 26.386 270.373H24.35L24.3668 270.365Z" fill="white"/>
<path d="M20.5881 293.895C20.4792 293.895 20.3954 293.861 20.32 293.802C20.253 293.742 20.2195 293.666 20.2195 293.59C20.2195 293.523 20.2195 293.421 20.2362 293.286C20.3032 292.086 20.3451 290.869 20.3703 289.66V287.539C19.4738 289.077 18.3259 290.379 16.9184 291.444L16.7424 291.258C17.4462 290.472 18.0997 289.508 18.6862 288.393C19.2308 287.336 19.6665 286.229 20.0016 285.071H19.0884C18.5605 285.08 17.9992 285.156 17.4043 285.283L17.0189 284.522C17.5635 284.581 18.217 284.623 18.9795 284.64H20.3619V282.046C19.2308 282.232 18.1584 282.358 17.1446 282.426L17.1027 282.198C18.1165 281.936 19.1889 281.572 20.32 281.108C21.4092 280.66 22.2889 280.229 22.9424 279.814L24.4757 281.319C24.3081 281.471 24.0149 281.471 23.6043 281.319C23.0262 281.488 22.3727 281.657 21.6605 281.801V284.64H22.6743L23.0262 284.082C23.0262 284.082 23.0932 283.973 23.1435 283.888C23.3111 283.634 23.42 283.508 23.4786 283.508C23.5708 283.508 23.8138 283.702 24.2076 284.091C24.6097 284.48 24.8024 284.733 24.8024 284.843C24.7605 284.995 24.6349 285.071 24.417 285.071H21.6438V286.161C22.4984 286.5 23.1519 286.914 23.6043 287.404C23.9897 287.81 24.1908 288.224 24.2076 288.646C24.2411 289.018 24.1322 289.28 23.8892 289.432C23.6462 289.584 23.3781 289.525 23.0849 289.272C22.9341 288.452 22.4565 287.522 21.6438 286.483V289.855C21.6605 291.106 21.7024 292.297 21.7611 293.421C21.6941 293.531 21.56 293.641 21.3589 293.742C21.1159 293.852 20.8478 293.911 20.563 293.911L20.5881 293.895ZM25.3051 290.675C25.1962 290.675 25.1124 290.641 25.0454 290.582C24.9784 290.522 24.9532 290.446 24.9532 290.37C25.0203 289.5 25.0622 288.536 25.0873 287.488V284.108C25.0873 282.832 25.0203 281.792 24.8946 280.998C25.7995 281.234 26.3608 281.412 26.5786 281.53C26.7462 281.632 26.7546 281.733 26.5954 281.834L26.3273 282.003V286.618C26.3441 287.869 26.3859 289.06 26.4446 290.184C26.3859 290.294 26.2435 290.404 26.0173 290.522C25.7743 290.632 25.5313 290.691 25.3135 290.691L25.3051 290.675ZM27.5589 293.835C27.5086 293.371 27.3997 293.032 27.2238 292.821C26.9557 292.576 26.52 292.407 25.9084 292.306V292.094C26.5368 292.137 27.1651 292.179 27.7768 292.213C28.003 292.213 28.1119 292.103 28.1119 291.892V283.102C28.1119 281.826 28.0449 280.786 27.9192 279.992C28.8408 280.229 29.4189 280.398 29.6451 280.524C29.8127 280.626 29.8211 280.727 29.6786 280.829L29.4273 280.998V292.018C29.4273 292.601 29.3268 293.024 29.1173 293.261C28.8492 293.565 28.3297 293.759 27.5505 293.835H27.5589Z" fill="white"/>
<path d="M28.2878 306.512C27.7181 306.512 27.2321 306.301 26.8216 305.887C26.411 305.473 26.21 304.974 26.21 304.383C26.21 303.791 26.411 303.292 26.8216 302.878C27.2321 302.464 27.7181 302.253 28.2878 302.253C28.8575 302.253 29.3435 302.464 29.7373 302.878C30.1394 303.292 30.3321 303.791 30.3321 304.383C30.3321 304.974 30.131 305.473 29.7373 305.887C29.3351 306.301 28.8575 306.512 28.2878 306.512ZM28.2878 305.98C28.7067 305.98 29.0754 305.819 29.3686 305.507C29.6619 305.194 29.821 304.822 29.821 304.383C29.821 303.943 29.6702 303.58 29.3686 303.267C29.067 302.954 28.7067 302.802 28.2878 302.802C27.8689 302.802 27.4919 302.954 27.1902 303.259C26.8886 303.563 26.7378 303.935 26.7378 304.374C26.7378 304.814 26.8886 305.194 27.1902 305.507C27.4919 305.819 27.8521 305.98 28.2878 305.98Z" fill="white"/>
<path d="M39.1462 9.58691V308.971" stroke="#E9C468" stroke-width="0.69" stroke-miterlimit="10"/>
<path d="M8.74951 9.58691V308.971" stroke="#E9C468" stroke-width="0.69" stroke-miterlimit="10"/>
</g>
<defs>
<filter id="filter0_d_6_1533" x="0.344541" y="0.707578" width="87.4717" height="316.323" filterUnits="userSpaceOnUse" color-interpolation-filters="sRGB">
<feFlood flood-opacity="0" result="BackgroundImageFix"/>
<feColorMatrix in="SourceAlpha" type="matrix" values="0 0 0 0 0 0 0 0 0 0 0 0 0 0 0 0 0 0 127 0" result="hardAlpha"/>
<feOffset/>
<feGaussianBlur stdDeviation="4.03"/>
<feColorMatrix type="matrix" values="0 0 0 0 0 0 0 0 0 0 0 0 0 0 0 0 0 0 0.7 0"/>
<feBlend mode="normal" in2="BackgroundImageFix" result="effect1_dropShadow_6_1533"/>
<feBlend mode="normal" in="SourceGraphic" in2="effect1_dropShadow_6_1533" result="shape"/>
</filter>
</defs>
</svg>
