<?xml version="1.0" encoding="UTF-8"?>
<svg id="_圖層_1" data-name="圖層 1" xmlns="http://www.w3.org/2000/svg" version="1.1" viewBox="0 0 739 213">
  <defs>
    <style>
      .cls-1 {
        fill: none;
        stroke: #e9c468;
        stroke-miterlimit: 10;
        stroke-width: .7px;
      }

      .cls-2 {
        fill: #e9c468;
      }

      .cls-2, .cls-3 {
        stroke-width: 0px;
      }

      .cls-3 {
        fill: #fff;
      }
    </style>
  </defs>
  <g>
    <path class="cls-3" d="M27.5,163.6c-.3,0-.5,0-.6-.2-.2-.2-.2-.3-.2-.6.2-2.5.3-5.1.3-7.6v-4.2c-.8.9-1.7,1.7-2.7,2.4l-.5-.4c.7-1.1,1.5-2.3,2.1-3.6.6-1.2,1.2-2.7,1.7-4.3.5-1.6.8-3,.9-4.1,2.1.8,3.5,1.4,4,1.8.4.3.4.5,0,.7l-.7.2c-.6,1.1-1,2-1.5,2.8l.4.2h2.8c.6-1.8.8-3.6.8-5.2,2.2.6,3.6,1,4.2,1.3.4.2.4.5,0,.6l-.7.3c-1,1.1-2,2-3,2.9h2.7l.7-1.1c0,0,.1-.2.2-.3.4-.5.7-.8.8-.8.3,0,.8.4,1.7,1.1.8.7,1.2,1.2,1.2,1.5,0,.4-.4.6-1,.6h-5v3.2h.9l1.5-1.9c.3.3.6.5,1,.8.7.6,1.3,1.2,1.7,1.6.4-.6.8-1.4,1.3-2.4.6-1.2,1.1-2.6,1.6-4.2.4-1.6.7-2.9.8-4.1,2.2.8,3.5,1.4,4,1.8.4.3.4.5,0,.6l-.7.3c-.5,1.2-1,2.1-1.4,2.8l.5.2h2.8c.5-2,.8-3.7.8-5.2,2.3.6,3.7,1,4.3,1.3.4.2.4.5,0,.6l-.7.3c-1,1.1-2.1,2.1-3.1,2.9h3.3l.8-1.1c0,0,.1-.2.2-.3.4-.5.6-.8.8-.8.3,0,.8.4,1.7,1.1.9.8,1.3,1.3,1.3,1.6,0,.4-.4.7-1,.7h-5.3v3.2h1.2l.7-1c0,0,.2-.2.3-.4.3-.4.6-.6.7-.6.3,0,.8.4,1.5,1,.7.7,1.1,1.2,1.1,1.5,0,.4-.4.6-1,.6h-4.5v3.3h1.2l.7-1c0,0,.2-.2.3-.4.3-.4.6-.7.7-.7.3,0,.8.4,1.5,1s1.1,1.2,1.1,1.5c0,.4-.4.6-.9.6h-4.6v3.5h1.9l.8-1.2c0-.1.2-.3.3-.4.3-.5.6-.7.8-.7.3,0,.8.4,1.7,1.2.9.8,1.3,1.4,1.3,1.7,0,.4-.4.6-1,.6h-12v.9c0,.2-.2.4-.7.6-.6.3-1.2.4-2,.4s-.5,0-.6-.2c-.2-.2-.2-.4-.2-.6.2-2.5.3-5,.3-7.6v-4.2c-.7.8-1.6,1.6-2.6,2.3l-.5-.4.4-.6c-.2.1-.4.2-.7.2h-4.1v3.3h.9l.6-.9s.1-.1.2-.2c.3-.5.6-.7.8-.7s.8.3,1.5,1c.7.7,1.1,1.1,1.1,1.4-.1.4-.4.7-1,.7h-4.1v3.4h1.7l.8-1.1s.1-.1.2-.3c.4-.6.7-.8.8-.8s.8.4,1.7,1.2c.8.8,1.2,1.3,1.2,1.6,0,.4-.4.6-1,.6h-11.3v1.1c0,.2-.2.4-.7.7-.6.3-1.2.4-1.9.4h0ZM24.5,179.2l-.2-.6c6-1.2,11.2-3,15.4-5.3-2.3-1.8-4.1-4-5.5-6.5-1,1.7-1.9,3.2-2.7,4.6.2.5.2.8-.2,1.1l-2.2-3.2c1.4-.9,2.8-2,4.3-3.2h-2.6c-1.5,0-3,.2-4.6.6l-1-2.1c1.5.2,3.2.3,5.3.3h18.8l1.1-1.1c0,0,.2-.2.4-.4.5-.5.9-.7,1-.7.2,0,.8.5,1.8,1.5,1,1,1.4,1.7,1.4,2-.2.3-.8.5-1.8.5-2,2.4-4.5,4.5-7.6,6.3,3.8,1.1,8.6,1.7,14.2,1.9v.5c-1.5.5-2.5,1.7-2.8,3.7-6.2-.8-11.2-2.2-14.9-4.2-4.9,2.2-10.8,3.7-17.6,4.4h0ZM30,151.1h2.9v-3.2h-2.9v3.2ZM30,155.6h2.9v-3.3h-2.9v3.3ZM30,160.3h2.9v-3.4h-2.9v3.4ZM42.1,171.8c2.8-1.8,5-3.7,6.7-5.8h-14.2c1.7,2.5,4.2,4.4,7.6,5.8ZM46.6,151.1h3.2v-3.2h-3.2v3.2ZM46.6,155.6h3.2v-3.3h-3.2v3.3ZM46.6,160.3h3.2v-3.4h-3.2v3.4Z"/>
    <path class="cls-3" d="M82.8,179.1c0-1.2-.2-2-.7-2.4-.6-.5-1.7-1-3.3-1.3v-.6c2.5.2,4.1.3,4.7.3s1.1-.1,1.3-.4c1-1,1.7-5.2,2.1-12.6h-4.7c0,.9-.2,1.6-.2,2.2-.7.5-1.9.6-3.4.4.1-.7.2-1.9.4-3.5.1-1,.2-1.8.3-2.3.3-3.3.3-6,.2-8.1l4.2,1.8h3v-7.4h-2.7c-1.6,0-3.2.2-4.9.6l-1.1-2c1.5.2,3.2.3,5.3.3h3l.8-1.1c0,0,.1-.1.2-.3.4-.6.7-.9.8-.9.3,0,.9.5,1.9,1.4s1.6,1.5,1.6,1.8c-.3.4-.8.7-1.6.9v3c0,2.5.1,4.4.2,5.7-.1.2-.5.5-1.2.8-.7.3-1.3.4-1.8.4h-.5v-1.9h-3.7c-.1,2.3-.3,4.7-.6,7.3h4.3l.8-1c0,0,.1-.1.2-.2.4-.5.7-.7.9-.7.3,0,.9.4,1.8,1.3,1,.8,1.4,1.4,1.4,1.7-.3.4-.8.6-1.5.7-.2,4.4-.6,7.8-1.1,10.2-.5,2.4-1.2,4.1-2.2,4.9-1.1.9-2.5,1.4-4.3,1.4h0ZM112.6,178.7c-.7.4-1.4.3-2.2-.4-.2-1.2-.6-2.6-1.3-4.2-3.8,1-9,2.3-15.7,3.8-.2.4-.6.7-1,.8l-2-4.4c2.1,0,5.4-.3,9.9-.6v-7.8h-4.2v1.8c0,.2-.3.4-.8.7-.6.3-1.2.4-1.8.4s-.7-.3-.7-.8c.1-1,.2-2.2.2-3.7v-2.2c0-2.8-.1-5.1-.4-6.9l3.7,1.7h4c0-2,0-3.6-.3-4.9,2.2.6,3.5,1,4.1,1.3.4.2.4.5,0,.7l-.6.4v2.4h4.1l.7-1c0,0,.2-.2.3-.4.3-.4.6-.7.7-.7.3,0,.9.4,1.8,1.3,1,.8,1.4,1.4,1.4,1.7-.3.4-.8.6-1.4.7v2.8c0,2.3.1,4.1.2,5.4-.1.2-.5.5-1.2.8-.7.3-1.3.4-1.8.4h-.6v-2h-4.5v7.5l5.1-.4c-.6-1.3-1.5-2.7-2.5-4.3l.4-.2c2.3,1.1,4.1,2.4,5.3,4,1,1.3,1.6,2.6,1.6,3.8,0,1.1-.3,1.9-.9,2.3h0ZM112,153.5c-.6.5-1.4.5-2.2-.1-.2-1-.6-2.1-1.3-3.4-3.2.7-8,1.6-14.4,2.8-.2.5-.6.8-1.1.9l-1.5-4.3c1.2,0,2.9,0,5.1,0,.9-3,1.4-5.7,1.4-8.1,2.7.7,4.4,1.2,5.1,1.5.5.3.5.5,0,.7l-.7.3c-1.3,2.1-2.8,3.9-4.3,5.6,1.7,0,4.5,0,8.5-.2.5,0,.9,0,1.2,0-1-1.4-2-2.6-3.1-3.5l.3-.3c2.4.5,4.3,1.4,5.7,2.6,1.2,1,1.8,2.1,2,3.2.2,1.1,0,1.8-.7,2.4ZM96,164.9h4.2v-6.7h-4.2v6.7ZM103.4,164.9h4.5v-6.7h-4.5v6.7Z"/>
    <path class="cls-3" d="M136.4,178.1c0-1.3-.3-2.3-.8-2.8-.6-.7-1.7-1.2-3.3-1.4v-.6c1.5,0,3.1.2,4.6.3.6,0,.8-.3.8-.9v-25.3h-1.8c-1.1,0-2.1.2-3.3.6l-1-2.1c1.5.2,3.2.3,5.3.3h4.2l2.2-3.1c.7.6,1.3,1.1,1.9,1.7v-.3c0,0,16.4,0,16.4,0l1-1.4c0-.1.2-.3.4-.5.5-.7.8-1,1-1,.3,0,1,.5,2.1,1.5,1.1,1,1.7,1.6,1.7,1.9-.1.4-.4.7-1,.7h-8.6c-1.1,1.9-2.2,3.4-3.3,4.5h6l.8-1.1c0,0,.1-.2.3-.4.4-.5.6-.8.8-.8.3,0,.9.5,1.9,1.4,1,.9,1.5,1.5,1.5,1.8-.2.4-.7.6-1.3.7v8.1c0,3.4.2,6.5.3,9.6-.2.3-.6.6-1.4.8-.8.3-1.4.5-2,.5h-.6v-1.8h-10.1v1.2c0,.2-.3.5-.9.8-.7.3-1.4.5-2.1.5s-.5,0-.7-.2c-.2-.2-.3-.4-.3-.6.2-2.7.3-5.8.4-9.1v-5c0-3.4-.2-6.2-.5-8.3l4.3,1.9h2.4c.2-1.7.4-3.2.4-4.6h-7.9c.5.4.8.8,1,1-.1.4-.5.7-1.1.7h-4.8v25.4c0,1.6-.3,2.8-.9,3.5-.8,1-2.2,1.5-4.2,1.7h0ZM142.7,179.2l-.3-.6c1.4-.7,2.8-1.6,4.2-2.6,2.7-2,4.5-4,5.4-6l2.4,1.9c1,.5,1.5.9,1.8,1.2.2.2,0,.4-.3.4h-.6c-1.3,1.2-3.2,2.3-5.6,3.4-2.4,1.1-4.7,1.9-6.9,2.4h0ZM151.2,156.1h10.1v-4.6h-10.1v4.6ZM151.2,162h10.1v-4.7h-10.1v4.7ZM151.2,168h10.1v-4.8h-10.1v4.8ZM166.3,178.5c-.6.6-1.4.7-2.4.2-.6-1.2-1.7-2.6-3.1-4-1.3-1.3-2.7-2.5-4-3.4l.3-.4c2.9.3,5.2,1,6.9,2,1.4.9,2.4,1.9,2.8,3.1.3,1,.2,1.9-.4,2.5h0Z"/>
    <path class="cls-3" d="M186.4,179.2l-.3-.7c4.6-1.7,8-3.7,10.3-5.8,2-1.9,3.2-4.3,3.9-7.1h-7.2c-1.9,0-3.9.2-6,.6l-1.1-2.1c1.5.2,3.2.3,5.3.3h9.2c.2-1.9.3-3.6.1-5,2.6.2,4.2.4,4.9.7.5.2.5.4.1.6l-.7.5c-.2,1.4-.3,2.5-.4,3.2h10.7l1-1.5c0,0,.1-.2.3-.4.5-.8.9-1.1,1.1-1.1.3,0,1,.5,2.2,1.6,1.2,1,1.8,1.7,1.8,2-.1.4-.5.7-1.1.7h-15c2.6,5.1,8,8.3,16.4,9.6v.5c-1.5.3-2.5,1.5-3,3.5-3.7-1.2-6.7-2.8-8.9-4.8-2.4-2.2-4.2-5.1-5.3-8.8h-.4c-.7,3.3-2.2,5.9-4.5,7.9-2.8,2.4-7.3,4.3-13.4,5.7h0ZM186.8,156.9l-.4-.5c1.3-1.1,2.7-2.6,4.1-4.5.8-1.1,1.5-2.3,2.1-3.7.6-1.4,1.1-2.6,1.4-3.7l2.7,1.7c1.9.9,2.5,1.4,1.6,1.6h-.7c-1.2,1.8-2.8,3.4-4.6,4.9-2,1.7-4.1,3.1-6.3,4h0ZM200.7,159c-.1-1.3-.4-2.1-.9-2.5-.7-.6-1.8-1-3.3-1.2v-.6c1.7,0,3.3.2,4.9.3.5,0,.8-.2.8-.7v-6.4c0-2.7-.1-5-.4-6.7,2.4.6,3.9,1.1,4.5,1.4.4.2.5.5.1.7l-.6.4v10.7c0,1.5-.3,2.5-.9,3.1-.7.8-2.1,1.3-4.2,1.5h0ZM219.3,155.5c-.6.7-1.4.7-2.5.1-.5-1.6-1.6-3.3-3.2-5.2-1.4-1.6-3-3.1-4.7-4.3l.3-.3c3.1.6,5.6,1.6,7.5,3,1.6,1.2,2.6,2.4,3,3.8.4,1.2.2,2.2-.4,2.8h0Z"/>
    <path class="cls-3" d="M247.1,179.1c-.3,0-.6,0-.8-.2-.2-.2-.3-.4-.3-.6.2-3.5.4-7,.4-10.6v-6.6c-1.6,3.2-3.6,6.2-6.1,8.7l-.5-.5c2.7-4.4,4.8-10,6.1-17h-1.7c-1,0-1.9.2-2.9.6l-1-2.1c1.2.2,2.6.3,4.2.3h2v-1.6c0-3.4-.2-6.2-.5-8.3,2.5.6,4.1,1.1,4.7,1.5.5.3.5.5,0,.8l-.7.5v7.2h1l.8-1.4c0-.1.2-.2.3-.4.4-.7.7-1,.8-1,.2,0,.8.5,1.8,1.4.9,1,1.4,1.6,1.4,1.9-.1.4-.4.6-1,.6h-5.1v3.6c2,.8,3.5,1.7,4.6,2.9.9.9,1.3,1.9,1.3,2.8s-.3,1.5-.9,1.8c-.6.3-1.3.2-2-.4-.3-1.8-1.3-3.9-3-6.2v11.3c0,3.4.2,6.5.3,9.6-.2.3-.6.6-1.2.9-.7.3-1.3.4-1.9.4h0ZM257.3,178.9c-.3,0-.6,0-.8-.2-.2-.2-.3-.3-.3-.6.2-3.5.4-7,.4-10.6v-16.3c0-3.4-.2-6.2-.5-8.3l4.3,1.9h9.2l.8-1.1c0,0,.2-.2.4-.4.4-.5.6-.7.8-.7.3,0,.9.4,2,1.4,1.1.9,1.6,1.5,1.6,1.8-.3.4-.9.7-1.6.9v21c0,3.4.2,6.5.3,9.6-.2.3-.7.6-1.4.9-.7.4-1.4.6-2.1.6s-.7-.3-.7-.8c0-.2,0-.6,0-.9,0-.3,0-.6,0-.8v-1.3h-9.8v.9c0,.2,0,.5,0,.8,0,.3,0,.5,0,.6,0,.4-.4.7-1,1.1-.6.4-1.3.6-2.1.6ZM260.3,154.3h9.8v-8.3h-9.8v8.3ZM260.3,163.9h9.8v-8.4h-9.8v8.4ZM260.3,173.8h9.8v-8.7h-9.8v8.7Z"/>
    <path class="cls-3" d="M296.2,179.1l-2.1-4.3c1.1-.5,2.8-1.3,4.9-2.4v-12.2h-1.6c-.8,0-1.7.2-2.6.6l-.9-2.1c.9.2,1.9.3,3.1.3h1.5l.8-1.3c0,0,.2-.2.3-.4.4-.6.7-.9.8-.9.3,0,1,.5,2.1,1.5,1.2,1,1.8,1.7,1.8,2-.4.4-1,.7-1.9.8v10.5c1.3,1.5,2.8,2.4,4.6,2.9,1.5.4,4.1.6,7.7.6,5.9,0,10.9,0,15.1-.2v.5c-1.5.3-2.3,1.4-2.4,3.2h-12.7c-3.7,0-6.4-.4-8.1-1.2-1.9-.9-3.4-2.6-4.7-5.1-1.5,2-3.2,4.1-5.2,6.3,0,.4-.1.7-.5.9h0ZM299.8,150.4c-.2-1.2-.7-2.6-1.6-4.1-.8-1.3-1.6-2.5-2.5-3.4l.4-.3c2.4.6,4.2,1.5,5.5,2.7,1.1,1,1.6,2.1,1.6,3.2,0,1-.3,1.8-1,2.2-.7.4-1.5.3-2.4-.4h0ZM323.4,173.4c0-1-.3-1.8-.8-2.2-.7-.5-1.8-.9-3.1-1.1v-.6c1.5,0,3,.2,4.4.2.6,0,.8-.3.8-.8v-8.7h-6.4v4.5h2.7c-.4-1.1-.8-2-1.4-2.9l.4-.2c1.6.8,2.7,1.7,3.4,2.7.6.8.8,1.7.7,2.5-.1.7-.4,1.2-1,1.4-.6.2-1.1,0-1.7-.6,0-.5,0-1.2-.2-2.1-2.6.8-5.6,1.6-9.2,2.4-.2.5-.5.8-.9.9l-1.9-3.9c1.4,0,3.3,0,5.7-.1v-4.7h-6v3.9c0,3.3.2,5.8.3,7.6-.2.3-.5.6-1.1.9-.7.3-1.3.4-2,.4s-.8-.3-.8-.8c.1-1.2.2-2.6.2-4.4v-2.6c0-3.2-.2-5.9-.5-8l4.1,1.8h5.7v-3.7h-4.5v.9c0,.2-.3.5-.9.7-.7.3-1.3.5-2,.5s-.7-.3-.7-.8c.1-1.1.2-2.6.2-4.3v-2.6c0-3.1-.2-5.7-.5-7.8l4.1,1.8h11.9l.8-1c0,0,.1-.2.2-.3.4-.5.6-.7.8-.7.3,0,.9.4,2,1.3,1.1.8,1.6,1.4,1.6,1.7-.4.4-.9.7-1.6.8v3.5c0,2.8.1,5,.2,6.7-.2.3-.6.5-1.2.8-.7.3-1.4.5-1.9.5h-.6v-1.7h-4.7v3.7h6l.7-1.1c0,0,.1-.2.2-.4.4-.5.6-.8.8-.8.3,0,.9.5,2,1.4,1.1,1,1.6,1.6,1.6,1.9-.3.4-.8.6-1.6.8v8.4c0,1.3-.3,2.2-.8,2.8-.7.7-2,1.1-4,1.3h0ZM310.5,148.9h4.5v-4h-4.5v4ZM310.5,154.2h4.5v-4.1h-4.5v4.1ZM318.3,148.9h4.7v-4h-4.7v4ZM318.3,154.2h4.7v-4.1h-4.7v4.1Z"/>
    <path class="cls-3" d="M345.2,184.3l-.6-1.2c2.6-1.4,4.1-3.4,4.5-6-1.2-.4-2.1-.9-2.7-1.3-.9-.7-1.4-1.6-1.4-2.6s.3-1.5.8-2.1c.6-.6,1.3-.9,2.2-.9s1.8.4,2.4,1.1c.6.8.9,1.8.9,3.1,0,1.9-.5,3.8-1.4,5.4-1.1,2-2.6,3.4-4.8,4.4h0Z"/>
    <path class="cls-3" d="M380,178.6l-1.1-2.1c1.5.2,3.2.3,5.3.3h15c.9-2.8,1.4-5.5,1.4-8,2.6.5,4.1,1,4.8,1.3.5.2.5.5,0,.7l-.7.3c-1.2,1.9-2.8,3.9-4.6,5.8h8.2l1-1.4c0-.1.2-.3.4-.5.5-.7.8-1,1-1,.3,0,1,.5,2.1,1.5,1.1,1,1.7,1.6,1.7,1.9-.1.4-.4.6-1,.6h-27.5c-1.9,0-3.9.2-6,.6h0ZM381.1,156.9l-1-2c1.5.2,3.2.3,5.3.3h22.2l1-1.3c0-.1.2-.3.3-.4.5-.6.8-.9.9-.9.3,0,.9.5,2,1.4,1.1.9,1.6,1.5,1.6,1.8-.1.4-.4.6-1,.6h-25.4c-1.9,0-3.9.2-6,.6h0ZM384.1,153.7c-.6,0-.8-.3-.8-.8,0-.5.1-1.1.2-1.8,0-.4,0-.6,0-.9v-1.8c0-2.3-.1-4.1-.3-5.4,2.3.6,3.8,1,4.4,1.3.4.2.4.5,0,.7l-.6.4v4.6h8.1v-.6c0-3.4-.2-6.2-.5-8.3,2.4.6,3.9,1,4.5,1.3.4.2.5.5,0,.8l-.6.4v6.4h7.6c0-2.9-.1-5.3-.4-7.1,2.4.6,4,1,4.6,1.3.5.2.5.5,0,.8l-.6.4v1.7c0,.4,0,.9,0,1.5,0,1.4.1,2.5.2,3.2-.1.3-.5.5-1.2.8-.7.3-1.3.4-2,.4h-.6v-1.9h-19.1v1.5c0,.2-.3.3-.9.6-.6.2-1.3.3-1.9.3h0ZM390.5,176c0-2-.7-4.1-2-6.5-.1.2-.4.4-.9.5-.6.2-1.2.3-1.9.3h-.6v-6c0-2.5-.1-4.5-.4-6.2l4.2,1.8h16l.8-1.1c0,0,.1-.2.2-.4.4-.5.6-.8.8-.8.3,0,.9.4,1.8,1.3,1,.9,1.4,1.4,1.4,1.7-.2.3-.6.5-1.4.7v2.5c0,.4,0,.9,0,1.5,0,1.4.1,2.5.2,3.2-.1.2-.4.5-1,.7-.6.2-1.4.4-2.2.4h-.6v-1.6h-16.5v1.4s0,0,0,0l.4-.2c1.9.7,3.4,1.7,4.3,2.8.7.9,1,1.9.9,2.8-.2.9-.6,1.4-1.3,1.7-.7.3-1.5,0-2.2-.6ZM388.5,166.9h16.5v-5.7h-16.5v5.7Z"/>
    <path class="cls-3" d="M433.8,177.9l-1-2.1c1.2.2,2.6.3,4.4.3h2.1v-16.7c0-3.4-.2-6.2-.5-8.3,2.7.6,4.4,1.1,5,1.4.5.3.5.5,0,.8l-.7.4v22.3h6.8v-26c0-3.4-.2-6.2-.5-8.3,2.7.6,4.4,1.1,5,1.5.5.3.5.5,0,.8l-.7.4v12.7h5.9l1.1-1.6c0-.1.2-.3.4-.5.5-.7.8-1.1,1-1.1.3,0,1.1.6,2.4,1.6,1.3,1.1,2,1.8,2,2.1-.1.4-.5.6-1.1.6h-11.5v17.7h8l1.1-1.7c.1-.1.2-.3.4-.6.5-.7.8-1.1,1-1.1.3,0,1,.6,2.4,1.7,1.3,1.1,2,1.9,2,2.1-.1.4-.5.7-1.1.7h-27.8c-1.9,0-3.9.2-6,.6h0Z"/>
    <path class="cls-3" d="M519.4,179.2c-7.7-4-12.3-10.8-13.7-20.5h-.2c-.6,4.8-2.2,8.8-4.6,11.7-2.8,3.5-7.3,6.4-13.4,8.6l-.4-.6c4.9-2.5,8.5-5.4,10.8-8.8,2-2.9,3.2-6.5,3.7-10.9h-5.9c-1.9,0-3.9.2-6,.6l-1-2.1c1.5.2,3.2.3,5.3.3h7.7c.2-2,.3-5.2.4-9.5v-1.2h-7.7c-1.9,0-3.9.2-6,.6l-1.1-2.1c1.5.2,3.2.3,5.3.3h22.9l1.1-1.6c0-.1.2-.3.4-.5.5-.7.8-1.1,1-1.1.3,0,1,.5,2.3,1.6,1.3,1.1,1.9,1.8,1.9,2.1-.1.4-.5.7-1.1.7h-14.9c0,4.7-.2,8.2-.5,10.7h8.8l1.1-1.5c0-.1.2-.3.4-.5.5-.7.8-1,1-1,.3,0,1,.5,2.3,1.6,1.2,1.1,1.9,1.7,1.9,2-.1.4-.5.6-1.1.6h-13.6c1.7,7.6,7.2,13.1,16.4,16.6v.4c-2,.4-3.1,1.5-3.4,3.4h0Z"/>
    <path class="cls-3" d="M543,175.4c-.3,0-.5,0-.7-.2-.2-.2-.3-.3-.3-.6.2-3.5.4-7,.4-10.6v-12.2c0-3.4-.2-6.2-.5-8.3l4.4,1.8h3.4l.8-1c0,0,.2-.2.3-.4.4-.5.6-.7.8-.7.3,0,.9.4,2,1.3,1,.9,1.6,1.4,1.6,1.8-.3.4-.8.7-1.6.8v15.4c0,3.4.2,6.5.3,9.6-.2.3-.6.6-1.3.9-.7.3-1.4.5-1.9.5s-.7-.3-.7-.8c0-.1,0-.3,0-.6,0-.2,0-.4,0-.5v-.9h-4.2v1.2c0,.3,0,.6,0,1,0,.5,0,.9.1,1.2-.1.3-.4.6-.9.9-.6.4-1.3.5-2.1.5ZM545.8,157.3h4.2v-10.8h-4.2v10.8ZM545.8,169.5h4.2v-11.1h-4.2v11.1ZM554.6,156.7l-1-2c1.5.2,3.2.3,5.3.3h3.8v-5.9h-2.5c-1.4,0-2.9.2-4.5.6l-1-2.1c1.5.2,3.2.3,5.3.3h2.7c0-2.6-.1-4.8-.4-6.5,2.5.6,4,1.1,4.6,1.4.4.3.5.5,0,.8l-.7.5v3.8h3.8l.9-1.4c0-.1.2-.3.4-.5.4-.6.7-.9.9-.9.3,0,.9.5,2,1.5,1.1,1,1.6,1.6,1.6,1.9,0,.4-.4.7-1,.7h-8.6v5.9h4.9l1-1.5c0-.1.2-.3.3-.4.5-.7.8-1.1,1-1.1.3,0,1,.5,2.1,1.5,1.1,1,1.7,1.6,1.7,1.9-.1.4-.5.7-1,.7h-15.4c-1.9,0-3.9.2-6,.6h0ZM565.8,179.1c-.1-1.3-.4-2.1-.9-2.6-.6-.6-1.8-1-3.5-1.3v-.6c1.7,0,3.4.2,5.1.3.6,0,.9-.3.9-.8v-11.4h-6.7c-1.9,0-3.9.2-6,.6l-1-2.1c1.5.2,3.2.3,5.3.3h8.4c0-2,0-3.6-.3-4.9,2.3.6,3.7,1.1,4.3,1.4.4.2.5.5.1.7l-.6.4v2.4h1l.8-1.3c0-.1.2-.3.4-.5.4-.6.6-.9.8-.9.3,0,.9.4,1.8,1.4,1,.9,1.5,1.5,1.5,1.8,0,.4-.4.7-1,.7h-5.3v11.6c0,1.5-.3,2.6-.9,3.3-.7.8-2.1,1.3-4.2,1.5h0ZM559.7,171.4c-.1-1.1-.5-2.4-1.1-3.7-.6-1.2-1.3-2.3-2-3.3l.4-.2c2.2.6,3.9,1.6,5,2.8.9,1,1.4,2,1.3,3.1,0,.9-.4,1.6-1.1,1.9-.8.4-1.6.2-2.4-.5h0Z"/>
    <path class="cls-3" d="M596.7,175.1l-1.9-4.6c.9-.2,2.5-.8,4.8-1.7v-13.7h-1.3c-.7,0-1.5.2-2.3.6l-1-2.1c.9.2,1.9.3,3.2.3h1.5v-3.5c0-3.4-.2-6.2-.5-8.3,2.5.6,4,1.1,4.6,1.4.5.2.5.5,0,.8l-.7.4v9.2h.7l.8-1.5c0-.1.2-.3.3-.4.4-.7.7-1.1.8-1.1.2,0,.8.5,1.7,1.5.9,1,1.3,1.7,1.3,2,0,.4-.4.7-1,.7h-4.7v12.3c1.5-.6,3.2-1.3,5.2-2.2l.2.4c-.2.1-.4.3-.7.6-3.9,3.1-7.3,5.7-10.2,7.7-.1.6-.4,1-.8,1.2h0ZM615.2,177.8c-2.2,0-3.7-.3-4.5-.9-.9-.6-1.3-1.8-1.3-3.4v-15.8l-4.2,1.6-.7-1,4.9-1.9v-5.8c0-2.4-.1-4.4-.4-6,2.4.7,3.9,1.2,4.5,1.5.4.3.4.5,0,.8l-.7.5v7.8l4.1-1.6v-5.9c0-2.4-.1-4.5-.4-6.1,2.4.6,3.8,1.1,4.4,1.4.4.3.4.5,0,.8l-.7.4v8l4-1.6h.4c0-.1,0-.1,0-.1l.8-1.1c0,0,.2-.2.3-.4.4-.5.7-.8.8-.8.2,0,.8.5,1.8,1.4,1,.9,1.5,1.6,1.5,1.9-.3.3-.7.5-1.4.6,0,5.4-.2,9.2-.5,11.3-.3,2.1-.8,3.6-1.5,4.3-.9.9-2.1,1.3-3.7,1.3,0-1.3-.1-2.2-.4-2.5-.4-.5-1-.9-1.9-1.1v-.6c1,.1,1.8.2,2.5.2s.8-.1,1-.4c.3-.4.6-1.5.7-3.5.2-1.9.3-5,.3-9.5l-4.7,1.8v7.1c0,3.4.2,6.5.3,9.6-.2.3-.5.6-1.2.9-.7.3-1.3.5-1.9.5s-.5,0-.7-.2c-.2-.2-.3-.4-.3-.6s0-.4,0-.7c.2-3.2.3-6.4.4-9.6v-5.6l-4.1,1.6v16.2c0,.6.2,1,.5,1.3.4.2,1.1.4,2.2.4h5.4c2.4,0,4,0,4.8-.2.6,0,1-.2,1.2-.6.4-.7,1-2.6,1.8-5.9h.4v6c1.2.4,1.8,1,1.8,1.7,0,1-.7,1.6-2,2-1.4.4-4.2.6-8.3.6h-5.5Z"/>
    <path class="cls-3" d="M659.1,179.1c-.3,0-.5,0-.7-.2-.2-.2-.3-.4-.3-.6s0-.5,0-.8c.2-3.2.3-6.5.4-9.7v-5.7c-2.4,4.1-5.5,7.6-9.3,10.4l-.5-.5c1.9-2.1,3.7-4.7,5.2-7.7,1.5-2.8,2.6-5.8,3.5-8.9h-2.5c-1.4,0-3,.2-4.5.6l-1-2c1.5.2,3.2.3,5.3.3h3.7v-6.9c-3,.5-5.9.8-8.7,1v-.6c2.6-.7,5.5-1.7,8.6-2.9,3-1.2,5.3-2.3,7.1-3.4l4.1,4c-.5.4-1.2.4-2.3,0-1.6.5-3.3.9-5.2,1.3v7.6h2.8l1-1.5c0-.1.2-.3.3-.5.5-.7.8-1,.9-1,.2,0,.9.5,2,1.6,1.1,1,1.6,1.7,1.6,2-.1.4-.5.6-1,.6h-7.5v2.9c2.3.9,4.1,2,5.3,3.3,1,1.1,1.6,2.2,1.6,3.3,0,1-.2,1.7-.9,2.1-.6.4-1.4.2-2.2-.4-.4-2.2-1.7-4.7-3.9-7.5v9c0,3.4.2,6.5.3,9.6-.2.3-.5.6-1.1.9-.7.3-1.4.4-2.1.4h0ZM671.8,170.5c-.3,0-.5,0-.7-.2-.2-.2-.3-.4-.3-.6.2-2.3.3-4.9.4-7.7v-9.1c0-3.4-.2-6.2-.5-8.3,2.4.6,4,1.1,4.5,1.4.5.3.5.5,0,.8l-.7.5v12.3c0,3.4.2,6.5.3,9.6-.2.3-.5.6-1.2.9-.7.3-1.3.4-1.9.4ZM677.9,178.9c-.1-1.2-.4-2.1-.9-2.7-.7-.7-1.9-1.1-3.5-1.4v-.6c1.7.1,3.4.2,5.1.3.6,0,.9-.3.9-.9v-23.5c0-3.4-.2-6.2-.5-8.3,2.5.6,4,1.1,4.7,1.4.5.3.5.5,0,.8l-.7.4v29.5c0,1.6-.3,2.7-.8,3.3-.7.8-2.1,1.3-4.2,1.5h0Z"/>
    <path class="cls-3" d="M705.6,179.1c-1.5,0-2.9-.6-4-1.7-1.1-1.1-1.7-2.5-1.7-4.1s.6-2.9,1.7-4c1.1-1.1,2.4-1.7,4-1.7s2.9.6,4,1.7c1.1,1.1,1.6,2.5,1.6,4.1s-.5,3-1.6,4.1c-1.1,1.1-2.4,1.7-4,1.7ZM705.6,177.6c1.1,0,2.1-.4,3-1.3.8-.8,1.2-1.9,1.2-3.1s-.4-2.2-1.2-3c-.8-.8-1.8-1.2-3-1.2s-2.2.4-3,1.2c-.8.8-1.2,1.8-1.2,3s.4,2.2,1.2,3.1,1.8,1.3,3,1.3Z"/>
  </g>
  <path class="cls-3" d="M73.3,42.8c-1.2,1.3-2.8,1.3-4.8,0-.8-2.5-2.2-5.2-4.1-8.2-10.7,2-25.7,4.4-45.2,7.1-.5.9-1.2,1.5-2.2,1.6l-2.2-9.1c1.5,0,4.6,0,9.2,0,1.3,0,2.4,0,3.1,0,1.6-3,3.3-6.6,5-10.7,2.2-4.9,3.6-9.6,4.5-14.1l11.1,4.1c-.3,1.1-1.2,1.5-2.7,1.4-4.4,7-9.3,13.4-14.6,19.2,5.6-.2,15.5-.5,29.9-1.1,1.2,0,2.1,0,2.7-.1-3.5-4.8-7-8.7-10.7-11.8l.7-.6c6.3,2.1,11.3,4.8,15,8.1,3.1,2.7,5.1,5.6,5.9,8.5.7,2.5.5,4.5-.8,5.8h0ZM24.5,78.9c-1,0-1.5-.5-1.5-1.5.2-2.7.4-6.3.5-10.9v-6.2c0-6.2-.3-11.2-.9-15l8.1,3.5h28.8l1.6-2c.1-.2.3-.4.6-.7.7-.9,1.2-1.4,1.5-1.4.5,0,1.8.9,3.9,2.6s3.2,2.8,3.2,3.4c-.5.7-1.5,1.3-3.1,1.7v8c.1,6.7.3,11.9.5,15.6-.3.4-1.2.9-2.5,1.4-1.4.5-2.7.7-3.7.7s-1.4-.5-1.4-1.5c0-.3,0-.8.1-1.5,0-.4,0-.8.1-1.2v-2.1h-29.9v1.5c0,.4,0,1,0,1.5,0,.5.1.9.1,1.2-.1.5-.8,1.1-2,1.7-1.3.6-2.7.9-4,.9h0ZM30.3,69.9h29.9v-18.9h-29.9v18.9Z"/>
  <path class="cls-3" d="M108.6,78.3c-.6,0-1.1-.1-1.4-.4-.4-.3-.6-.6-.6-1,.4-6.3.7-12.7.8-19.1v-28.1c0-6.2-.3-11.2-.9-15.1l8.3,3.6h28.2l1.6-2c.1-.1.2-.3.4-.5.8-1,1.4-1.5,1.7-1.5s1.7.9,3.8,2.6c2,1.7,3.1,2.8,3.1,3.4-.6.7-1.5,1.2-2.9,1.5v36.2c0,6.1.3,11.8.6,17.2-.4.5-1.3,1.1-2.6,1.7-1.4.7-2.7,1-3.9,1s-1.4-.5-1.4-1.5c0-.3,0-.9.1-1.5,0-.5,0-.9.1-1.2v-2.1h-29.4v1.4c0,.4,0,.9,0,1.4,0,.5,0,.8.1,1,0,.7-.7,1.4-1.9,2.1-1.2.7-2.5,1-3.9,1h0ZM114.1,43.3h29.4v-23h-29.4v23ZM114.1,69.2h29.4v-23.9h-29.4v23.9Z"/>
  <path class="cls-3" d="M197.1,78.8c-1,0-1.5-.5-1.5-1.5.2-2.4.4-5.6.5-9.7v-5.6c-4.1,2.5-8.4,4.9-12.9,7.1-.3,1-.9,1.6-1.7,1.8l-2.2-8c.3,0,1-.2,1.9-.3,1.2-.2,2.1-.3,2.8-.4V18.1h-1.3c-.5,0-1.1.4-1.7,1l-1.8-3.7c2.6.3,5.8.5,9.6.6h8.8l1.7-2.4c0-.1.2-.3.4-.6.8-1.2,1.4-1.8,1.7-1.8s1.7.8,3.5,2.4c1.9,1.6,2.8,2.7,2.8,3.2-.1.8-.8,1.2-1.9,1.2h-4v41.2c0,6.1.3,11.8.6,17.3-.3.5-.9,1-1.8,1.5-1,.5-2.2.7-3.5.7h0ZM189.6,30.2h6.6v-12.1h-6.6v12.1ZM189.6,45.3h6.6v-12.9h-6.6v12.9ZM189.6,61.2c1.4-.3,3.6-.7,6.6-1.3v-12.5h-6.6v13.8ZM205.3,45.8l-2.8-6.8c1.5,0,3.6,0,6.3-.2.1-.2.3-.6.6-1.1.9-1.6,1.5-2.9,1.9-3.7,2.5-5,4.3-9.7,5.4-14l7.4,3.7c-.8-1.1-1.4-2-1.9-2.5l.7-.5c1.8.5,3.3,1.1,4.5,1.8,1.8-4.8,2.7-8.7,2.9-11.6,3.8,1.6,6.2,2.7,7.1,3.4.7.5.6.9,0,1.1l-1.2.4c-1.8,2.4-4.1,5.1-6.9,7.9,1.7,1.3,2.6,2.8,2.7,4.4,0,1.5-.4,2.5-1.5,3.1-1.1.6-2.2.4-3.5-.6-.2-2-1-4.2-2.4-6.5-.5.8-1.4,1.1-2.7.9-2.5,3.8-6.1,8.4-10.6,13.8,1.2,0,3-.2,5.6-.3.4,0,.7,0,.9,0-.6-2-1.3-3.5-2.1-4.8l.8-.4c2.8,1.2,4.8,2.7,6,4.5,1,1.5,1.4,3,1.1,4.4-.2,1.3-.8,2.2-1.9,2.6-1.1.4-2.1.2-3.2-.9,0-1-.1-2.2-.4-3.5-1.5.6-4.4,1.7-8.7,3.3-1,.3-1.8.6-2.3.8-.4.9-1,1.4-1.7,1.5h0ZM211.5,31.4c-1.1.6-2.2.4-3.4-.7-.2-1.4-.7-3-1.6-4.9-.9-1.6-1.8-3-2.9-4.2l.7-.5c1.9.5,3.4,1.1,4.5,1.8,1.6-4.6,2.5-8.7,2.7-12,3.8,1.4,6.2,2.5,7.1,3.2.7.5.6.9,0,1.2l-1.2.4c-1.8,2.6-4.1,5.4-6.9,8.4,1.6,1.3,2.4,2.7,2.5,4.3,0,1.4-.5,2.4-1.5,3h0ZM204.6,78.9l-.6-.9c3.8-1.7,6.6-3.7,8.4-6.2,1.6-2.1,2.6-4.7,3-7.7h-4.8v1.2c0,.4,0,.8.1,1.2,0,.4,0,.7.1.9-.1.4-.6.9-1.6,1.3-.9.4-1.9.7-2.8.7s-1.3-.5-1.3-1.5c0-1,.2-2.3.3-3.9,0-.7,0-1.3,0-1.8v-3.7c0-4.5-.2-8.2-.7-11.2,3.6,1,5.9,1.8,6.8,2.4.7.4.7.9,0,1.3l-1.1.7v10.1h5v-8.2c0-2.8-.1-5.3-.4-7.3,3.6,1,5.9,1.8,6.8,2.4.7.4.7.9,0,1.4l-1.1.7v9.8c0,4.3-1.1,7.8-3.2,10.4-2.6,3.3-7,5.8-13.2,7.6h0ZM242.4,45.3c-1.1.5-2.2.1-3.2-1,0-1.2-.2-2.6-.5-4.2-3.6,1.4-7.1,2.7-10.3,3.9-.4.9-1,1.4-1.7,1.5l-3-6.8c1.7,0,3.2,0,4.3,0,.2-.5.6-1.2,1.1-2.2s.9-1.7,1.1-2.2c2.5-5.1,4.3-9.8,5.3-14,3.7,1.7,6,2.9,6.8,3.7.6.6.5,1-.3,1.2l-1.4.4c-2.9,4.2-6.4,8.6-10.4,13.1h.9c3-.1,5.3-.2,6.9-.3-.8-2.1-1.6-3.8-2.4-5.1l.8-.4c3,1.4,5.2,3,6.6,5,1.1,1.6,1.6,3.2,1.4,4.8-.2,1.4-.9,2.4-2,2.8h0ZM226.6,78.8c-1.1,0-1.6-.5-1.6-1.5.2-2.5.4-5.8.5-10.1v-5.8c0-6.2-.3-11.2-.9-15,4.1,1.1,6.6,1.9,7.6,2.5.8.4.8.9,0,1.4l-1.2.8v10.9h5.7c0-5.9-.3-10.7-.9-14.6,3.7,1,6.1,1.8,7,2.4.7.4.7.9,0,1.3l-1.2.7v4.5c.1,4.9.2,8.7.4,11.5-.2.4-.8.9-1.7,1.3-.9.4-1.8.7-2.7.7s-1.2-.5-1.2-1.5c0-.3.1-.7.1-1.2,0-.4.1-.8.1-1.1v-2h-5.7v4.4c0,.7,0,1.6,0,2.6.1,2.5.2,4.4.3,5.7-.2.4-.8.9-1.8,1.3-1,.4-2,.7-2.9.7Z"/>
  <path class="cls-3" d="M288.5,78.7c-.2-2.5-1-4.3-2.3-5.3-1.5-1.2-4.3-2.1-8.2-2.7v-1c4.2.2,8.3.5,12.5.7,1.2,0,1.9-.6,1.9-1.7v-16.1h-17.3c-3.4,0-7,.4-10.8,1l-1.9-3.7c2.6.3,5.8.5,9.6.6h20.4v-14h-13.2c-3.4,0-7,.4-10.8,1l-1.8-3.7c2.6.3,5.8.5,9.6.6h16.3v-12.8c-8.9.9-17.2,1.3-25.1,1.3v-1.2c8.2-1,16.7-2.5,25.6-4.6,8.9-2.1,15.9-4.3,21-6.5l7.1,7.3c-.8.8-2.2.7-4.3-.1-4.8,1.2-10.6,2.2-17.3,3v13.7h13.7l1.9-2.7c.1-.1.3-.4.5-.7,1-1.4,1.6-2.1,1.9-2.1.5,0,1.9.9,4.1,2.8,2.2,1.9,3.4,3.1,3.4,3.6-.1.7-.8,1.1-1.9,1.1h-23.5v14h16.8l2-2.7c.1-.2.4-.5.7-.9.9-1.2,1.5-1.8,1.8-1.8.5,0,1.9.9,4.2,2.8,2.3,1.9,3.5,3.1,3.5,3.6-.2.8-.9,1.2-2,1.2h-27v16.4c0,3-.6,5.2-1.9,6.5-1.6,1.8-4.6,2.8-9,3.2h0Z"/>
  <path class="cls-2" d="M371.1,52.2c-2.1,0-3.8-.7-5.2-2.2s-2.2-3.2-2.2-5.4.7-3.9,2.2-5.4c1.4-1.5,3.2-2.2,5.2-2.2s3.8.7,5.2,2.2c1.4,1.5,2.2,3.3,2.2,5.4s-.7,3.9-2.2,5.4-3.2,2.2-5.2,2.2Z"/>
  <path class="cls-3" d="M436,78.6c-1.2,0-1.9-.5-1.9-1.5.3-4.1.5-8.3.6-12.5v-7c-4.8,3.7-9.9,7.4-15,10.9-.2,1.1-.8,1.7-1.6,2l-3.9-8.9c3.8-.9,10.6-3.1,20.5-6.5v-20.2h-6.1c-3.4,0-7,.4-10.8,1l-1.9-3.7c2.6.3,5.8.5,9.6.6h9.3v-5.2c0-6.2-.3-11.2-.9-15.1,4.6,1.1,7.4,2,8.6,2.6.8.5.8,1,0,1.5l-1.2.8v41.3c0,6.1.3,11.8.6,17.2-.3.6-1,1.2-2.2,1.8-1.2.5-2.4.8-3.6.8h0ZM458.8,76.1c-3.1,0-5.2-.5-6.4-1.5-1.1-1-1.7-2.9-1.7-5.7V27.6c0-6.2-.3-11.2-.9-15.1,4.5,1.2,7.3,2.1,8.5,2.7.8.4.9.9.1,1.4l-1.2.8v24.3c4.8-4.8,9.2-10.6,13.5-17.2,3.8,2.5,6.1,4.2,7,5.1.7.7.6,1.1-.2,1.1h-1.4c-5.2,4.9-11.5,9.3-18.9,13.1v23.3c0,.9.2,1.5.6,1.8.4.3,1.2.5,2.4.5h5.8c2.2,0,3.9,0,5.2-.2.7,0,1.2-.4,1.6-1,.6-1,1.5-4.5,2.8-10.3h.7l.3,10.8c1.7.7,2.6,1.7,2.6,3s-1,2.7-2.9,3.4c-2,.6-5.6.9-10.9.9h-6.6,0Z"/>
  <path class="cls-3" d="M527.8,78c-.6,0-1.1-.2-1.5-.4-.4-.3-.6-.6-.6-1,.4-6.3.7-12.7.8-19.1v-20.8h-13.8v13.4c.1,6.1.3,11.8.6,17.2-.3.6-1.1,1.2-2.2,1.8-1.3.6-2.6,1-3.9,1s-.9-.2-1.2-.4-.5-.6-.5-1c.3-4.4.6-9.2.7-14.5v-8c0-6.2-.3-11.2-.9-15l8,3.5h13.3v-10.6h-16.3c-3.4,0-7,.4-10.8,1l-1.9-3.7c2.6.3,5.8.5,9.6.6h19.4c0-4.8-.2-8.7-.7-11.7,4.6,1,7.5,1.9,8.7,2.5.9.4.9.9.1,1.4l-1.3.8v7h16.5l2-2.9c.1-.2.4-.5.6-.9,1-1.3,1.7-2,1.9-2,.5,0,1.9,1,4.1,2.9,2.3,2,3.4,3.2,3.4,3.7-.1.8-.8,1.2-1.9,1.2h-26.5l2.1.2c-.2,1-1,1.6-2.3,1.8v8.5h13.2l1.4-1.9c0-.2.3-.4.5-.7.7-.8,1.1-1.3,1.4-1.3.5,0,1.8.8,3.8,2.4,2.1,1.6,3.1,2.7,3.1,3.2-.6.7-1.5,1.2-2.9,1.5v23.6c0,2.7-.5,4.6-1.5,5.7-1.3,1.5-3.8,2.4-7.6,2.7-.1-2.3-.7-3.9-1.5-4.8-1.2-1.2-3.1-2-5.8-2.4v-1.1c2.8.2,5.5.3,8.3.5,1,0,1.6-.5,1.6-1.5v-24.1h-14v21.3c0,6.1.3,11.8.6,17.3-.3.6-1.1,1.3-2.3,1.9-1.3.6-2.6.9-3.8.9h0Z"/>
  <path class="cls-3" d="M593.7,78.6c-.5,0-1-.1-1.3-.4-.4-.3-.5-.6-.5-1,.4-6.3.7-12.7.8-19.1v-10.9c0-6.2-.3-11.2-.9-15l8.1,3.6h8.1c.1-1.3.3-3.5.6-6.8,0-.9.1-1.6.1-2.1h-15c-3.4,0-7,.4-10.8,1l-1.9-3.7c2.6.3,5.8.5,9.6.6h27.9c0-.1,0-.3,0-.3,2.5-5.4,3.9-10.2,4.2-14.4,4.8,1.3,7.8,2.3,9,2.9.9.5,1,.9.1,1.2l-1.3.5c-2.6,3.3-5.9,6.6-10,10.1h12.8l2-2.8c.1-.2.4-.5.7-1,.9-1.2,1.5-1.8,1.8-1.8.5,0,1.9.9,4.2,2.8,2.3,1.9,3.5,3.1,3.5,3.6-.1.8-.8,1.2-1.9,1.2h-26.3c-2.7,3.9-5.1,6.8-7,8.8h16.5l1.5-2c.1-.1.4-.4.6-.7.7-.8,1.2-1.2,1.4-1.2.5,0,1.7.8,3.7,2.5,2,1.6,3,2.7,3,3.3-.5.7-1.5,1.2-2.9,1.5v19.6c.1,6.1.3,11.8.6,17.2-.3.5-1.2,1-2.5,1.5-1.4.6-2.7.9-3.8.9s-1.4-.5-1.4-1.5c0-.2.1-.6.1-.9,0-.3,0-.6.1-.8v-1.7h-28.3v2.9c0,.4-.6.9-1.7,1.5-1.2.6-2.5.9-3.9.9h0ZM601.5,23.4c-.7-3.9-2.7-7.9-6-12l.7-.5c4,1,7,2.5,9,4.4,1.7,1.7,2.6,3.4,2.5,5.3,0,1.7-.7,2.8-1.9,3.5-1.3.7-2.7.5-4.2-.7h0ZM599.3,47.1h28.3v-9.5h-28.3v9.5ZM599.3,59h28.3v-9.7h-28.3v9.7ZM599.3,71.2h28.3v-10.1h-28.3v10.1Z"/>
  <path class="cls-3" d="M678.5,78.8c.1-2-.3-3.4-1.2-4.2-.9-.9-2.8-1.7-5.8-2.2v-1.2c3.5.4,6.2.6,8.3.6s1.8-.2,2.2-.6c1.3-1.2,2.2-5.7,2.8-13.4h-8.4c0,.5-.2,1.3-.4,2.2,0,.2,0,.3,0,.4-1.3.8-3.3.9-5.9.3,0-.2.1-.5.2-1,.2-1.2.4-2.1.5-2.6,1.1-6.1,1.6-11.1,1.4-15l7.1,3.6h5.7v-8.6h-8c-3.6,2.2-7.6,4-12,5.4l-.5-1c5.1-2.6,9.7-6.1,13.7-10.4,3.9-4.2,6.9-8.7,9-13.6h-5.4c-3.1,0-6.4.4-9.9,1l-1.9-3.7c2.6.3,5.8.5,9.6.6h7.8l1.8-1.9c0,0,.3-.3.5-.5.9-.9,1.5-1.4,1.8-1.4s1.6.8,3.5,2.5c1.8,1.7,2.7,2.8,2.7,3.3-.5.5-1.4.9-2.8,1-3.3,6.5-8.2,12-14.6,16.5h5.7l1.2-1.8c0-.2.2-.4.4-.7.5-.8.9-1.2,1.2-1.2.4,0,1.3.8,2.7,2.4,1.4,1.6,2.1,2.7,2.1,3.2-.6.6-1.5,1-2.6,1.2v3.5c0,.5,0,1.2,0,2.1.1,2,.2,3.4.3,4.4-.2.3-.9.7-1.9,1-1.2.4-2.2.7-3.2.7h-1.1v-2.3h-7.1c-.3,2.1-.7,4.8-1.2,7.9h7.5l1.4-1.7c.1-.2.3-.4.6-.7.6-.7,1.1-1,1.4-1,.5,0,1.6.7,3.2,2.2,1.7,1.5,2.5,2.5,2.5,3-.5.6-1.4,1-2.7,1.1-.6,10.1-2.3,16.2-5,18.2-1.8,1.3-4.2,1.9-7.3,1.9h0ZM675.7,29.2c-.3-1.4-1-2.9-2.1-4.5-1.1-1.4-2.2-2.6-3.5-3.5l.6-.6c3.4.1,6.1.8,8,2.1,1.5,1,2.2,2.3,2.3,3.8,0,1.3-.5,2.3-1.5,3-1.1.7-2.4.6-3.7-.4ZM723,78.7c-6.8-1.7-12.1-4.1-15.9-7.3-5.2,3.4-11.7,5.8-19.3,7.2l-.4-1c6.6-2.2,12.1-5.3,16.5-9.3-2.5-2.8-4.5-6.5-6.1-11.2h-1.2c-.5,0-1.1.4-1.7,1l-1.9-3.7c2.6.3,5.8.5,9.6.6h9.2l3.7-3.6h-2c-2.1,0-3.5-.4-4.1-1.1-.6-.6-.9-1.9-.9-3.9v-9.2h-5.8v2.2c0,7-3.5,11.9-10.4,14.8l-.6-1c2.2-1.9,3.6-4.1,4.5-6.8.5-1.8.8-4.1.8-7v-3.8c0-1.5,0-2.9-.2-4.1l6.9,3.6h4.2l3-3.2c-5.5-5.3-9.5-12.2-11.9-20.6l.9-.7c1.5,3.6,3.7,7,6.5,10.1,3.2-3.7,5.2-7,6.3-9.9,3.4,2.2,5.4,3.8,6.2,4.7.6.6.5,1-.3,1.1h-1.3c-2.4,1.9-5.6,3.7-9.5,5.5,2.2,2.1,4.3,3.8,6.5,5.2,2.6-2.9,4.6-6.2,5.9-9.8,3.4,2.4,5.4,4,6.3,4.9.6.6.5,1-.2,1.1h-1.2c-2.4,1.6-5.4,3.2-9,4.9,4.3,2.5,9,4.5,14,6v.8c-2.9.6-4.7,2.6-5.8,6-3.4-1.6-6.4-3.4-9-5.4l1.3,1.1c-.5.5-1.2.8-2.3.9v7.6c0,.3,0,.6.2.7.1.1.4.2.9.2h3c.6,0,1,0,1.2,0,.5,0,.8-.1,1-.4.5-.7,1-2.1,1.7-4.3h.8l.3,4.3c.7.3,1.2.7,1.4,1s.4.8.4,1.3c0,1.2-.6,2.1-1.8,2.6-1.2.5-3.3.8-6.4.8h-1c2.8,2.5,4.5,4.1,5.1,5,.4.7.3,1.1-.5,1.3l-1.4.3c-1.8,3.7-4.2,7-7.2,9.7,4.4,1.8,9.8,3,16.2,3.6v.9c-2.6.8-4.3,3-5,6.5h0ZM706.9,65.1c2-2.4,3.6-5,4.8-8.1h-12.3c1.8,3.3,4.3,6,7.5,8.1Z"/>
  <path class="cls-1" d="M9.3,119.6h718.1"/>
  <path class="cls-1" d="M9.3,203.1h718.1"/>
</svg>