<?xml version="1.0" encoding="UTF-8"?>
<svg id="_圖層_1" data-name="圖層 1" xmlns="http://www.w3.org/2000/svg" version="1.1" viewBox="0 0 88 318">
  <defs>
    <style>
      .cls-1 {
        fill: none;
        stroke: #e9c468;
        stroke-miterlimit: 10;
        stroke-width: .7px;
      }

      .cls-2 {
        fill: #e9c468;
      }

      .cls-2, .cls-3 {
        stroke-width: 0px;
      }

      .cls-3 {
        fill: #fff;
      }
    </style>
  </defs>
  <path class="cls-3" d="M77.8,22.5c-.5.5-1.1.5-2,0-.3-1-.9-2.1-1.7-3.4-4.3.8-10.5,1.8-18.4,2.9-.2.4-.5.6-.9.7l-.9-3.8c.6,0,1.9,0,3.8,0,.5,0,1,0,1.3,0,.6-1.3,1.3-2.7,2.1-4.4.9-2,1.5-4,1.8-5.8l4.5,1.7c-.1.4-.5.6-1.1.6-1.8,2.9-3.8,5.5-6,7.9,2.3,0,6.3-.2,12.2-.5.5,0,.9,0,1.1,0-1.4-2-2.9-3.6-4.3-4.8l.3-.2c2.6.9,4.6,2,6.1,3.3,1.3,1.1,2.1,2.3,2.4,3.5.3,1,.2,1.8-.3,2.4ZM57.9,37.4c-.4,0-.6-.2-.6-.6,0-1.1.2-2.6.2-4.5v-2.5c0-2.5-.1-4.6-.4-6.2l3.3,1.5h11.7l.6-.8c0,0,.1-.2.2-.3.3-.4.5-.6.6-.6.2,0,.7.4,1.6,1.1.9.7,1.3,1.2,1.3,1.4-.2.3-.6.5-1.3.7v3.3c0,2.8.1,4.9.2,6.4-.1.2-.5.4-1,.6-.6.2-1.1.3-1.5.3s-.6-.2-.6-.6c0-.1,0-.3,0-.6,0-.2,0-.3,0-.5v-.8h-12.2v.6c0,.2,0,.4,0,.6,0,.2,0,.4,0,.5,0,.2-.3.5-.8.7-.5.3-1.1.4-1.6.4h0ZM60.3,33.7h12.2v-7.8h-12.2v7.8Z"/>
  <path class="cls-3" d="M58.1,72.8c-.2,0-.4,0-.6-.2-.2-.1-.2-.3-.2-.4.2-2.6.3-5.2.3-7.9v-11.6c0-2.5-.1-4.6-.4-6.2l3.4,1.5h11.5l.6-.8s.1-.1.2-.2c.3-.4.6-.6.7-.6.2,0,.7.4,1.5,1.1.8.7,1.2,1.2,1.2,1.4-.2.3-.6.5-1.2.6v14.9c0,2.5.1,4.9.2,7.1-.2.2-.5.5-1.1.7-.6.3-1.1.4-1.6.4s-.6-.2-.6-.6c0-.1,0-.4,0-.6,0-.2,0-.4,0-.5v-.9h-12v.6c0,.2,0,.4,0,.6,0,.2,0,.3,0,.4,0,.3-.3.6-.8.8-.5.3-1,.4-1.6.4h0ZM60.4,58.4h12v-9.5h-12v9.5ZM60.4,69.1h12v-9.8h-12v9.8Z"/>
  <path class="cls-3" d="M60.2,108.7c-.4,0-.6-.2-.6-.6.1-1,.2-2.3.2-4v-2.3c-1.7,1-3.4,2-5.3,2.9-.1.4-.4.7-.7.8l-.9-3.3c.1,0,.4,0,.8-.1.5,0,.9-.1,1.1-.2v-18.2h-.5c-.2,0-.5.2-.7.4l-.7-1.5c1.1.1,2.4.2,3.9.2h3.6l.7-1c0,0,.1-.1.2-.2.3-.5.6-.7.7-.7.2,0,.7.3,1.4,1,.8.7,1.1,1.1,1.1,1.3,0,.3-.3.5-.8.5h-1.6v17c0,2.5.1,4.9.2,7.1-.1.2-.4.4-.7.6-.4.2-.9.3-1.4.3h0ZM57.1,88.7h2.7v-5h-2.7v5ZM57.1,94.9h2.7v-5.3h-2.7v5.3ZM57.1,101.4c.6-.1,1.5-.3,2.7-.5v-5.1h-2.7v5.7h0ZM63.6,95.1l-1.1-2.8c.6,0,1.5,0,2.6,0,0-.1.1-.3.2-.5.4-.7.6-1.2.8-1.5,1-2.1,1.8-4,2.2-5.8l3,1.5c-.3-.5-.6-.8-.8-1l.3-.2c.7.2,1.3.5,1.8.7.7-2,1.1-3.6,1.2-4.8,1.6.6,2.5,1.1,2.9,1.4.3.2.3.4,0,.5l-.5.2c-.7,1-1.7,2.1-2.8,3.2.7.5,1,1.1,1.1,1.8,0,.6-.2,1-.6,1.3-.4.3-.9.2-1.4-.3,0-.8-.4-1.7-1-2.7-.2.3-.6.4-1.1.4-1,1.6-2.5,3.5-4.3,5.7.5,0,1.2,0,2.3-.1.2,0,.3,0,.4,0-.3-.8-.5-1.5-.9-2l.3-.2c1.1.5,2,1.1,2.5,1.8.4.6.6,1.2.5,1.8,0,.5-.3.9-.8,1.1-.4.2-.9,0-1.3-.4,0-.4,0-.9-.2-1.5-.6.2-1.8.7-3.6,1.4-.4.1-.7.3-.9.3-.2.4-.4.6-.7.6h0ZM66.1,89.2c-.4.2-.9.2-1.4-.3,0-.6-.3-1.3-.7-2-.4-.6-.7-1.2-1.2-1.7l.3-.2c.8.2,1.4.5,1.9.7.6-1.9,1-3.6,1.1-5,1.5.6,2.5,1,2.9,1.3.3.2.3.4,0,.5l-.5.2c-.7,1-1.7,2.2-2.8,3.5.6.5,1,1.1,1,1.7,0,.6-.2,1-.6,1.2h0ZM63.3,108.7l-.2-.4c1.5-.7,2.7-1.5,3.4-2.5.7-.9,1.1-1.9,1.2-3.2h-1.9v.5c0,.2,0,.3,0,.5,0,.2,0,.3,0,.4,0,.2-.3.4-.6.5-.4.2-.8.3-1.1.3s-.5-.2-.5-.6c0-.4,0-.9.1-1.6,0-.3,0-.6,0-.8v-1.5c0-1.8,0-3.4-.3-4.6,1.5.4,2.4.8,2.8,1,.3.2.3.4,0,.5l-.4.3v4.1h2v-3.4c0-1.2,0-2.2-.2-3,1.5.4,2.4.8,2.8,1,.3.2.3.4,0,.6l-.4.3v4c0,1.8-.5,3.2-1.3,4.3-1.1,1.4-2.8,2.4-5.4,3.1h0ZM78.7,94.9c-.5.2-.9,0-1.3-.4,0-.5,0-1.1-.2-1.7-1.5.6-2.9,1.1-4.2,1.6-.2.4-.4.6-.7.6l-1.2-2.8c.7,0,1.3,0,1.8,0,.1-.2.3-.5.5-.9.2-.4.4-.7.5-.9,1-2.1,1.8-4,2.2-5.8,1.5.7,2.4,1.2,2.8,1.5.3.2.2.4-.1.5l-.6.2c-1.2,1.7-2.6,3.5-4.3,5.4h.4c1.2,0,2.2,0,2.8-.1-.3-.9-.6-1.6-1-2.1l.3-.2c1.2.6,2.1,1.3,2.7,2.1.5.7.6,1.3.6,2-.1.6-.4,1-.8,1.2h0ZM72.2,108.7c-.4,0-.6-.2-.6-.6,0-1,.2-2.4.2-4.1v-2.4c0-2.5-.1-4.6-.4-6.2,1.7.4,2.7.8,3.1,1,.3.2.3.4,0,.6l-.5.3v4.5h2.3c0-2.4-.1-4.4-.4-6,1.5.4,2.5.7,2.8,1,.3.2.3.4,0,.5l-.5.3v1.9c0,2,.1,3.6.2,4.7-.1.2-.3.4-.7.5-.4.2-.7.3-1.1.3s-.5-.2-.5-.6c0-.1,0-.3,0-.5,0-.2,0-.3,0-.5v-.8h-2.3v1.8c0,.3,0,.6,0,1.1,0,1,0,1.8.1,2.3,0,.2-.3.4-.7.5-.4.2-.8.3-1.2.3h0Z"/>
  <path class="cls-3" d="M63.5,144.3c-.1-1-.4-1.8-.9-2.2-.6-.5-1.7-.9-3.4-1.1v-.4c1.7.1,3.4.2,5.1.3.5,0,.8-.2.8-.7v-6.6h-7c-1.4,0-2.9.2-4.4.4l-.8-1.5c1.1.1,2.4.2,3.9.2h8.3v-5.8h-5.4c-1.4,0-2.9.2-4.4.4l-.7-1.5c1.1.1,2.4.2,3.9.2h6.6v-5.3c-3.6.4-7,.5-10.2.5v-.5c3.3-.4,6.8-1,10.5-1.9,3.6-.9,6.5-1.7,8.6-2.7l2.9,3c-.3.3-.9.3-1.8,0-2,.5-4.3.9-7,1.2v5.6h5.6l.8-1.1c0,0,.1-.2.2-.3.4-.6.7-.8.8-.8s.8.4,1.7,1.2c.9.8,1.4,1.3,1.4,1.5,0,.3-.3.5-.8.5h-9.6v5.8h6.9l.8-1.1c0,0,.2-.2.3-.4.4-.5.6-.8.7-.8.2,0,.8.4,1.7,1.2.9.8,1.4,1.3,1.4,1.5,0,.3-.4.5-.8.5h-11v6.7c0,1.2-.3,2.1-.8,2.7-.7.7-1.9,1.2-3.7,1.3h0Z"/>
  <path class="cls-2" d="M66.3,161.6c-.8,0-1.6-.3-2.1-.9-.6-.6-.9-1.3-.9-2.2s.3-1.6.9-2.2c.6-.6,1.3-.9,2.1-.9s1.6.3,2.1.9c.6.6.9,1.3.9,2.2s-.3,1.6-.9,2.2c-.6.6-1.3.9-2.1.9Z"/>
  <path class="cls-3" d="M62,200.5c-.5,0-.8-.2-.8-.6.1-1.7.2-3.4.2-5.1v-2.9c-2,1.5-4,3-6.1,4.5-.1.4-.3.7-.6.8l-1.6-3.7c1.5-.4,4.3-1.3,8.4-2.7v-8.3h-2.5c-1.4,0-2.9.2-4.4.4l-.8-1.5c1.1.1,2.4.2,3.9.2h3.8v-2.1c0-2.5-.1-4.6-.4-6.2,1.9.5,3,.8,3.5,1.1.3.2.3.4,0,.6l-.5.3v17c0,2.5.1,4.9.2,7.1-.1.3-.4.5-.9.7-.5.2-1,.3-1.5.3h0ZM71.3,199.5c-1.3,0-2.1-.2-2.6-.6s-.7-1.2-.7-2.3v-17c0-2.5-.1-4.6-.4-6.2,1.8.5,3,.9,3.5,1.1.3.2.4.4,0,.6l-.5.3v10c1.9-2,3.8-4.4,5.5-7.1,1.5,1,2.5,1.7,2.8,2.1.3.3.2.4,0,.5h-.6c-2.1,2-4.7,3.8-7.7,5.4v9.6c0,.4,0,.6.3.8.2.1.5.2,1,.2h2.3c.9,0,1.6,0,2.1,0,.3,0,.5-.2.7-.4.2-.4.6-1.8,1.1-4.3h.3v4.4c.8.3,1.2.7,1.2,1.2s-.4,1.1-1.2,1.4c-.8.3-2.3.4-4.5.4h-2.7,0Z"/>
  <path class="cls-3" d="M65.4,236c-.3,0-.5,0-.6-.2-.2-.1-.2-.3-.2-.4.2-2.6.3-5.2.3-7.9v-8.6h-5.6v5.5c0,2.5.1,4.9.2,7.1-.1.3-.4.5-.9.7-.5.3-1.1.4-1.6.4s-.4,0-.5-.2c-.1-.1-.2-.3-.2-.4.1-1.8.2-3.8.3-6v-3.3c0-2.5-.1-4.6-.4-6.2l3.3,1.5h5.4v-4.4h-6.7c-1.4,0-2.9.2-4.4.4l-.8-1.5c1.1.1,2.4.2,3.9.2h7.9c0-2-.1-3.6-.3-4.8,1.9.4,3.1.8,3.6,1,.4.2.4.4,0,.6l-.5.3v2.9h6.8l.8-1.2c0,0,.2-.2.3-.4.4-.5.7-.8.8-.8.2,0,.8.4,1.7,1.2s1.4,1.3,1.4,1.5c0,.3-.3.5-.8.5h-10.8.9c-.1.5-.4.8-.9.8v3.5h5.4l.6-.8c0,0,.1-.2.2-.3.3-.3.5-.5.6-.5.2,0,.7.3,1.6,1,.8.7,1.3,1.1,1.3,1.3-.2.3-.6.5-1.2.6v9.7c0,1.1-.2,1.9-.6,2.4-.5.6-1.6,1-3.1,1.1,0-.9-.3-1.6-.6-2-.5-.5-1.3-.8-2.4-1v-.5c1.1,0,2.3.1,3.4.2.4,0,.6-.2.6-.6v-9.9h-5.7v8.8c0,2.5.1,4.9.2,7.1-.1.3-.4.5-.9.8-.5.3-1.1.4-1.6.4h0Z"/>
  <path class="cls-3" d="M58.2,271.9c-.2,0-.4,0-.5-.2-.2-.1-.2-.3-.2-.4.2-2.6.3-5.2.3-7.9v-4.5c0-2.5-.1-4.6-.4-6.2l3.3,1.5h3.3c0-.5.1-1.5.2-2.8,0-.4,0-.7,0-.8h-6.1c-1.4,0-2.9.2-4.4.4l-.8-1.5c1.1.1,2.4.2,3.9.2h11.4c0,0,0-.1,0-.1,1-2.2,1.6-4.2,1.7-5.9,2,.5,3.2.9,3.7,1.2.4.2.4.4,0,.5l-.5.2c-1.1,1.4-2.4,2.7-4.1,4.1h5.2l.8-1.1c0,0,.2-.2.3-.4.4-.5.6-.8.7-.8.2,0,.8.4,1.7,1.2.9.8,1.4,1.3,1.4,1.5,0,.3-.3.5-.8.5h-10.7c-1.1,1.6-2.1,2.8-2.8,3.6h6.7l.6-.8c0,0,.2-.2.3-.3.3-.3.5-.5.6-.5.2,0,.7.3,1.5,1,.8.7,1.2,1.1,1.2,1.3-.2.3-.6.5-1.2.6v8.1c0,2.5.1,4.9.2,7.1-.1.2-.5.4-1,.6-.6.2-1.1.4-1.6.4s-.6-.2-.6-.6c0-.1,0-.2,0-.4,0-.1,0-.2,0-.3v-.7h-11.5v1.2c0,.2-.2.4-.7.6-.5.2-1,.4-1.6.4h0ZM61.4,249.2c-.3-1.6-1.1-3.3-2.5-5l.3-.2c1.6.4,2.8,1,3.7,1.8.7.7,1,1.4,1,2.2,0,.7-.3,1.2-.8,1.5-.5.3-1.1.2-1.7-.3h0ZM60.5,258.9h11.5v-3.9h-11.5v3.9ZM60.5,263.8h11.5v-4h-11.5v4ZM60.5,268.8h11.5v-4.1h-11.5v4.1Z"/>
  <path class="cls-3" d="M58.8,307.7c0-.8-.1-1.4-.5-1.7-.4-.4-1.2-.7-2.3-.9v-.5c1.4.2,2.5.2,3.4.2s.7,0,.9-.2c.5-.5.9-2.3,1.1-5.5h-3.4c0,.2-.1.5-.2.9,0,0,0,.1,0,.2-.5.3-1.3.4-2.4.1,0,0,0-.2,0-.4,0-.5.2-.8.2-1.1.5-2.5.6-4.6.6-6.2l2.9,1.5h2.3v-3.5h-3.3c-1.5.9-3.1,1.6-4.9,2.2l-.2-.4c2.1-1.1,4-2.5,5.6-4.3,1.6-1.7,2.8-3.6,3.7-5.6h-2.2c-1.3,0-2.6.2-4.1.4l-.8-1.5c1.1.1,2.4.2,3.9.2h3.2l.7-.8s.1-.1.2-.2c.4-.4.6-.6.7-.6s.7.3,1.4,1,1.1,1.2,1.1,1.4c-.2.2-.6.4-1.1.4-1.3,2.7-3.3,4.9-6,6.8h2.3l.5-.7c0,0,.1-.2.2-.3.2-.3.4-.5.5-.5.2,0,.5.3,1.1,1,.6.7.9,1.1.9,1.3-.3.3-.6.4-1.1.5v1.5c0,.2,0,.5,0,.9,0,.8,0,1.4.1,1.8-.1.1-.4.3-.8.4-.5.2-.9.3-1.3.3h-.5v-.9h-2.9c-.1.9-.3,2-.5,3.3h3.1l.6-.7c0,0,.1-.2.2-.3.3-.3.4-.4.6-.4.2,0,.6.3,1.3.9.7.6,1,1,1,1.2-.2.2-.6.4-1.1.5-.3,4.1-.9,6.7-2,7.5-.7.5-1.7.8-3,.8h0ZM57.6,287.2c-.1-.6-.4-1.2-.9-1.8-.4-.6-.9-1.1-1.4-1.5l.2-.2c1.4,0,2.5.3,3.3.9.6.4.9.9.9,1.6,0,.5-.2,1-.6,1.2-.5.3-1,.2-1.5-.2h0ZM77,307.6c-2.8-.7-4.9-1.7-6.5-3-2.1,1.4-4.8,2.4-7.9,3l-.2-.4c2.7-.9,4.9-2.2,6.7-3.8-1-1.2-1.9-2.7-2.5-4.6h-.5c-.2,0-.5.2-.7.4l-.8-1.5c1.1.1,2.4.2,3.9.2h3.8l1.5-1.5h-.8c-.9,0-1.4-.2-1.7-.5-.2-.3-.4-.8-.4-1.6v-3.8h-2.3v.9c0,2.9-1.4,4.9-4.3,6.1l-.2-.4c.9-.8,1.5-1.7,1.8-2.8.2-.7.3-1.7.3-2.9v-1.6c0-.6,0-1.2,0-1.7l2.8,1.5h1.7l1.2-1.3c-2.3-2.2-3.9-5-4.9-8.5l.4-.3c.6,1.5,1.5,2.9,2.7,4.1,1.3-1.5,2.1-2.9,2.6-4.1,1.4.9,2.2,1.6,2.5,1.9.2.3.2.4-.1.5h-.5c-1,.8-2.3,1.5-3.9,2.3.9.8,1.8,1.6,2.7,2.1,1.1-1.2,1.9-2.5,2.4-4,1.4,1,2.2,1.6,2.6,2,.3.3.2.4,0,.5h-.5c-1,.7-2.2,1.3-3.7,2,1.8,1,3.7,1.8,5.7,2.5v.3c-1.2.2-1.9,1.1-2.3,2.5-1.4-.7-2.6-1.4-3.7-2.2l.5.5c-.2.2-.5.3-.9.4v3.1c0,.1,0,.2,0,.3,0,0,.2,0,.4,0h1.2c.3,0,.4,0,.5,0,.2,0,.3,0,.4-.2.2-.3.4-.9.7-1.8h.3v1.8c.4.1.6.3.7.4.1.1.2.3.2.5,0,.5-.2.9-.7,1.1-.5.2-1.4.3-2.6.3h-.4c1.2,1,1.9,1.7,2.1,2.1.2.3.1.5-.2.5h-.6c-.7,1.6-1.7,3-2.9,4.1,1.8.7,4,1.2,6.6,1.5v.4c-1.1.3-1.7,1.2-2.1,2.7h0ZM70.4,302c.8-1,1.5-2.1,2-3.3h-5c.7,1.4,1.8,2.5,3.1,3.3h0Z"/>
  <path class="cls-3" d="M18.2,20.6c-.1,0-.2,0-.2,0,0,0,0-.1,0-.2,0-.9.1-1.9.1-2.8v-1.6c-.3.3-.6.6-1,.9l-.2-.2c.3-.4.5-.8.8-1.4.2-.5.4-1,.6-1.6.2-.6.3-1.1.3-1.5.8.3,1.3.5,1.5.7.2.1.1.2,0,.3h-.3c-.2.5-.4.9-.5,1.1h.2c0,0,1,0,1,0,.2-.7.3-1.3.3-1.9.8.2,1.3.4,1.5.5.2,0,.2.2,0,.2h-.3c-.4.5-.7.9-1.1,1.2h1l.3-.4s0,0,0-.1c.1-.2.2-.3.3-.3.1,0,.3.1.6.4s.5.5.5.6c0,.2-.2.2-.4.2h-1.8v1.2h.3l.5-.7c.1.1.2.2.4.3.3.2.5.4.6.6.1-.2.3-.5.5-.9.2-.4.4-1,.6-1.6.2-.6.3-1.1.3-1.5.8.3,1.3.5,1.5.7.2.1.1.2,0,.2h-.3c-.2.6-.4.9-.5,1.2h.2c0,0,1,0,1,0,.2-.8.3-1.4.3-1.9.8.2,1.4.4,1.6.5.2,0,.2.2,0,.2h-.3c-.4.5-.8.9-1.1,1.2h1.2l.3-.4s0,0,0-.1c.1-.2.2-.3.3-.3.1,0,.3.1.6.4.3.3.5.5.5.6,0,.2-.2.2-.4.2h-2v1.2h.4l.3-.4s0,0,.1-.1c.1-.2.2-.2.3-.2.1,0,.3.1.6.4.3.3.4.4.4.6,0,.2-.2.2-.4.2h-1.7v1.2h.4l.3-.4s0,0,.1-.1c.1-.2.2-.2.3-.2.1,0,.3.1.6.4.3.3.4.4.4.6,0,.2-.1.2-.3.2h-1.7v1.3h.7l.3-.4s0,0,.1-.2c.1-.2.2-.3.3-.3.1,0,.3.2.6.5.3.3.5.5.5.6,0,.2-.2.2-.4.2h-4.4v.3c0,0,0,.2-.3.2-.2.1-.5.2-.7.2s-.2,0-.2,0c0,0,0-.1,0-.2,0-.9.1-1.9.1-2.8v-1.6c-.3.3-.6.6-.9.9l-.2-.2.2-.2c0,0-.2,0-.3,0h-1.5v1.2h.3l.2-.3s0,0,0,0c.1-.2.2-.3.3-.3.1,0,.3.1.5.4.3.2.4.4.4.5,0,.2-.2.2-.4.2h-1.5v1.3h.6l.3-.4s0,0,0-.1c.1-.2.2-.3.3-.3.1,0,.3.1.6.4.3.3.5.5.5.6,0,.2-.2.2-.4.2h-4.2v.4c0,0,0,.2-.3.3-.2.1-.4.2-.7.2h0ZM17.1,26.4v-.2c2.1-.5,4-1.1,5.6-2-.9-.7-1.5-1.5-2-2.4-.4.6-.7,1.2-1,1.7,0,.2,0,.3,0,.4l-.8-1.2c.5-.3,1-.7,1.6-1.2h-1c-.6,0-1.1,0-1.7.2l-.4-.8c.5,0,1.2.1,2,.1h6.9l.4-.4s0,0,.2-.1c.2-.2.3-.3.4-.3,0,0,.3.2.7.6.4.4.5.6.5.7,0,.1-.3.2-.7.2-.7.9-1.7,1.7-2.8,2.3,1.4.4,3.2.6,5.3.7v.2c-.6.2-.9.6-1,1.4-2.3-.3-4.1-.8-5.5-1.6-1.8.8-4,1.4-6.5,1.6h0ZM19.1,15.9h1.1v-1.2h-1.1v1.2ZM19.1,17.6h1.1v-1.2h-1.1v1.2ZM19.1,19.3h1.1v-1.3h-1.1v1.3ZM23.6,23.6c1-.7,1.9-1.4,2.5-2.2h-5.3c.6.9,1.6,1.7,2.8,2.2ZM25.2,15.9h1.2v-1.2h-1.2v1.2ZM25.2,17.6h1.2v-1.2h-1.2v1.2ZM25.2,19.3h1.2v-1.3h-1.2v1.3Z"/>
  <path class="cls-3" d="M18.7,49.4c0-.4,0-.8-.3-.9-.2-.2-.6-.4-1.2-.5v-.2c.9,0,1.5.1,1.7.1s.4,0,.5-.2c.4-.4.6-1.9.8-4.7h-1.7c0,.3,0,.6,0,.8-.3.2-.7.2-1.3.1,0-.3,0-.7.2-1.3,0-.4,0-.7.1-.9.1-1.2.1-2.2,0-3l1.6.7h1.1v-2.8h-1c-.6,0-1.2,0-1.8.2l-.4-.8c.5,0,1.2.1,2,.1h1.1l.3-.4s0,0,0-.1c.1-.2.2-.3.3-.3.1,0,.3.2.7.5.4.3.6.6.6.7-.1.2-.3.3-.6.3v1.1c0,.9,0,1.6,0,2.1,0,0-.2.2-.5.3-.3,0-.5.1-.7.1h-.2v-.7h-1.4c0,.9-.1,1.8-.2,2.7h1.6l.3-.4s0,0,0,0c.2-.2.3-.3.3-.3.1,0,.3.2.7.5.4.3.5.5.5.6-.1.1-.3.2-.6.2,0,1.7-.2,2.9-.4,3.8-.2.9-.5,1.5-.8,1.8-.4.3-.9.5-1.6.5h0ZM29.7,49.2c-.3.2-.5.1-.8-.2,0-.5-.2-1-.5-1.6-1.4.4-3.3.9-5.8,1.4,0,.2-.2.3-.4.3l-.7-1.6c.8,0,2-.1,3.7-.2v-2.9h-1.5v.7c0,0-.1.2-.3.2-.2.1-.5.2-.7.2s-.3-.1-.3-.3c0-.4,0-.8,0-1.4v-.8c0-1,0-1.9-.2-2.6l1.4.6h1.5c0-.7,0-1.4-.1-1.8.8.2,1.3.4,1.5.5.2,0,.2.2,0,.3l-.2.2v.9h1.5l.3-.4s0,0,.1-.1c.1-.2.2-.2.3-.2.1,0,.3.2.7.5.4.3.5.5.5.6-.1.1-.3.2-.5.3v1c0,.9,0,1.5,0,2,0,0-.2.2-.5.3-.3.1-.5.2-.7.2h-.2v-.7h-1.7v2.8l1.9-.2c-.2-.5-.5-1-.9-1.6h.2c.9.3,1.5.8,2,1.4.4.5.6,1,.6,1.4,0,.4,0,.7-.3.9h0ZM29.5,39.8c-.2.2-.5.2-.8,0,0-.4-.2-.8-.5-1.3-1.2.3-3,.6-5.3,1,0,.2-.2.3-.4.3l-.5-1.6c.5,0,1.1,0,1.9,0,.3-1.1.5-2.1.5-3,1,.3,1.6.4,1.9.6.2.1.2.2,0,.3h-.3c-.5.9-1,1.6-1.6,2.2.6,0,1.7,0,3.1,0,.2,0,.3,0,.4,0-.4-.5-.7-1-1.2-1.3h.1c.9,0,1.6.4,2.1.9.4.4.7.8.7,1.2,0,.4,0,.7-.3.9h0ZM23.6,44.1h1.5v-2.5h-1.5v2.5ZM26.3,44.1h1.7v-2.5h-1.7v2.5Z"/>
  <path class="cls-3" d="M18.5,72c0-.5-.1-.9-.3-1.1-.2-.3-.6-.4-1.2-.5v-.2c.6,0,1.1,0,1.7.1.2,0,.3-.1.3-.3v-9.4h-.7c-.4,0-.8,0-1.2.2l-.4-.8c.5,0,1.2.1,2,.1h1.6l.8-1.1c.2.2.5.4.7.6h0c0-.1,6.1-.1,6.1-.1l.4-.5s0-.1.1-.2c.2-.2.3-.4.4-.4.1,0,.4.2.8.6.4.4.6.6.6.7,0,.2-.2.2-.4.2h-3.2c-.4.7-.8,1.3-1.2,1.7h2.2l.3-.4s0,0,.1-.1c.1-.2.2-.3.3-.3.1,0,.3.2.7.5.4.3.6.6.6.7,0,.1-.2.2-.5.3v3c0,1.3,0,2.4.1,3.6,0,.1-.2.2-.5.3-.3.1-.5.2-.8.2h-.2v-.7h-3.7v.4c0,0-.1.2-.3.3-.3.1-.5.2-.8.2s-.2,0-.3,0c0,0,0-.1,0-.2,0-1,.1-2.1.1-3.4v-1.9c0-1.3,0-2.3-.2-3.1l1.6.7h.9c0-.6.1-1.2.2-1.7h-2.9c.2.2.3.3.4.4,0,.2-.2.2-.4.2h-1.8v9.5c0,.6-.1,1-.3,1.3-.3.4-.8.6-1.6.6h0ZM20.9,72.4v-.2c.4-.3.9-.6,1.4-1,1-.8,1.7-1.5,2-2.2l.9.7c.4.2.6.3.6.4,0,0,0,.1-.1.1h-.2c-.5.4-1.2.9-2.1,1.3-.9.4-1.7.7-2.6.9ZM24,63.8h3.7v-1.7h-3.7v1.7ZM24,66h3.7v-1.7h-3.7v1.7ZM24,68.3h3.7v-1.8h-3.7v1.8ZM29.6,72.2c-.2.2-.5.3-.9,0-.2-.5-.6-1-1.2-1.5-.5-.5-1-.9-1.5-1.3h.1c1.1,0,1.9.2,2.5.6.5.3.9.7,1,1.1.1.4,0,.7-.1.9h0Z"/>
  <path class="cls-3" d="M17,95.5v-.3c1.6-.6,2.9-1.4,3.7-2.2.7-.7,1.2-1.6,1.4-2.6h-2.7c-.7,0-1.4,0-2.2.2l-.4-.8c.5,0,1.2.1,2,.1h3.4c0-.7.1-1.3,0-1.9,1,0,1.6.2,1.8.3.2,0,.2.1,0,.2l-.3.2c0,.5-.1.9-.2,1.2h4l.4-.6s0,0,.1-.2c.2-.3.3-.4.4-.4s.4.2.8.6c.4.4.7.6.7.8,0,.2-.2.2-.4.2h-5.5c1,1.9,3,3.1,6.1,3.6v.2c-.6.1-.9.6-1.1,1.3-1.4-.4-2.5-1-3.3-1.8-.9-.8-1.6-1.9-2-3.3h-.1c-.3,1.2-.8,2.2-1.7,2.9-1,.9-2.7,1.6-5,2.1h0ZM17.2,87.1v-.2c.4-.4.9-1,1.4-1.7.3-.4.5-.9.8-1.4.2-.5.4-1,.5-1.4l1,.6c.7.3.9.5.6.6h-.3c-.5.7-1,1.3-1.7,1.9-.7.6-1.5,1.1-2.3,1.5h0ZM22.3,87.9c0-.5-.2-.8-.3-.9-.2-.2-.7-.4-1.2-.5v-.2c.6,0,1.2,0,1.8.1.2,0,.3,0,.3-.3v-2.4c0-1,0-1.9-.2-2.5.9.2,1.5.4,1.7.5.2,0,.2.2,0,.3l-.2.2v4c0,.6-.1.9-.3,1.2-.3.3-.8.5-1.6.5h0ZM29.2,86.6c-.2.3-.5.3-.9,0-.2-.6-.6-1.2-1.2-1.9-.5-.6-1.1-1.1-1.7-1.6h.1c1.2.1,2.1.5,2.8,1,.6.4.9.9,1.1,1.4.1.5,0,.8-.1,1.1h0Z"/>
  <path class="cls-3" d="M19.5,118.5c-.1,0-.2,0-.3,0,0,0-.1-.1-.1-.2,0-1.3.1-2.6.2-3.9v-2.5c-.6,1.2-1.3,2.3-2.3,3.2l-.2-.2c1-1.6,1.8-3.7,2.3-6.3h-.6c-.4,0-.7,0-1.1.2l-.4-.8c.4,0,1,.1,1.6.1h.7v-.6c0-1.3,0-2.3-.2-3.1.9.2,1.5.4,1.7.5.2.1.2.2,0,.3l-.3.2v2.7h.4l.3-.5s0,0,.1-.2c.2-.3.3-.4.3-.4,0,0,.3.2.7.5.4.4.5.6.5.7,0,.2-.2.2-.4.2h-1.9v1.4c.7.3,1.3.6,1.7,1.1.3.4.5.7.5,1.1s-.1.5-.3.7c-.2.1-.5,0-.7-.2-.1-.7-.5-1.4-1.1-2.3v4.2c0,1.2,0,2.4.1,3.6,0,.1-.2.2-.4.3-.2.1-.5.2-.7.2h0ZM23.3,118.4c-.1,0-.2,0-.3,0,0,0-.1-.1-.1-.2,0-1.3.1-2.6.2-3.9v-6.1c0-1.3,0-2.3-.2-3.1l1.6.7h3.4l.3-.4s0,0,.1-.2c.1-.2.2-.3.3-.3.1,0,.3.2.7.5.4.3.6.6.6.7-.1.2-.3.3-.6.3v7.9c0,1.3,0,2.4.1,3.6,0,.1-.2.2-.5.3-.3.1-.5.2-.8.2s-.3-.1-.3-.3c0,0,0-.2,0-.3,0-.1,0-.2,0-.3v-.5h-3.6v.3c0,0,0,.2,0,.3,0,.1,0,.2,0,.2,0,.1-.1.3-.4.4-.2.1-.5.2-.8.2h0ZM24.4,109.2h3.6v-3.1h-3.6v3.1ZM24.4,112.8h3.6v-3.1h-3.6v3.1ZM24.4,116.5h3.6v-3.3h-3.6v3.3Z"/>
  <path class="cls-3" d="M17.7,141.5l-.8-1.6c.4-.2,1-.5,1.8-.9v-4.6h-.6c-.3,0-.6,0-1,.2l-.3-.8c.3,0,.7.1,1.1.1h.5l.3-.5s0,0,.1-.2c.2-.2.3-.3.3-.3.1,0,.4.2.8.6.4.4.6.6.6.7-.1.2-.4.3-.7.3v3.9c.5.5,1,.9,1.7,1.1.6.2,1.5.2,2.9.2,2.2,0,4,0,5.6,0v.2c-.5.1-.8.5-.9,1.2h-4.7c-1.4,0-2.4-.2-3-.5-.7-.3-1.3-1-1.8-1.9-.5.8-1.2,1.5-1.9,2.3,0,.1,0,.3-.2.3ZM19,130.8c0-.5-.3-1-.6-1.5-.3-.5-.6-.9-.9-1.3h.1c.9.1,1.6.4,2,.9.4.4.6.8.6,1.2,0,.4-.1.7-.4.8-.3.2-.6.1-.9-.1h0ZM27.7,139.4c0-.4-.1-.7-.3-.8-.3-.2-.7-.3-1.2-.4v-.2c.6,0,1.1,0,1.6,0,.2,0,.3,0,.3-.3v-3.3h-2.4v1.7h1c-.1-.4-.3-.8-.5-1.1h.2c.6.2,1,.5,1.3.9.2.3.3.6.3.9,0,.3-.2.5-.4.5-.2,0-.4,0-.6-.2,0-.2,0-.5,0-.8-.9.3-2.1.6-3.4.9,0,.2-.2.3-.3.3l-.7-1.4c.5,0,1.2,0,2.1,0v-1.7h-2.2v1.5c0,1.2,0,2.2.1,2.8,0,.1-.2.2-.4.3-.2.1-.5.2-.7.2s-.3-.1-.3-.3c0-.4,0-1,0-1.6v-1c0-1.2,0-2.2-.2-3l1.5.7h2.1v-1.4h-1.7v.3c0,0-.1.2-.3.3-.2.1-.5.2-.7.2s-.3-.1-.3-.3c0-.4,0-1,0-1.6v-1c0-1.2,0-2.1-.2-2.9l1.5.7h4.4l.3-.4s0,0,0-.1c.1-.2.2-.3.3-.3.1,0,.3.2.7.5.4.3.6.5.6.6-.2.2-.3.3-.6.3v1.3c0,1,0,1.9,0,2.5,0,.1-.2.2-.5.3-.3.1-.5.2-.7.2h-.2v-.6h-1.7v1.4h2.2l.3-.4s0,0,0-.1c.1-.2.2-.3.3-.3.1,0,.3.2.7.5.4.4.6.6.6.7-.1.1-.3.2-.6.3v3.1c0,.5-.1.8-.3,1-.3.3-.7.4-1.5.5h0ZM23,130.2h1.7v-1.5h-1.7v1.5ZM23,132.2h1.7v-1.5h-1.7v1.5ZM25.9,130.2h1.7v-1.5h-1.7v1.5ZM25.9,132.2h1.7v-1.5h-1.7v1.5Z"/>
  <path class="cls-3" d="M27.2,155l-.2-.4c1-.5,1.5-1.3,1.7-2.2-.5-.2-.8-.3-1-.5-.3-.3-.5-.6-.5-1s.1-.6.3-.8c.2-.2.5-.3.8-.3s.7.1.9.4c.2.3.3.7.3,1.1,0,.7-.2,1.4-.5,2-.4.7-1,1.3-1.8,1.7h0Z"/>
  <path class="cls-3" d="M17.3,178.5l-.4-.8c.5,0,1.2.1,2,.1h5.6c.3-1.1.5-2.1.5-3,.9.2,1.5.4,1.8.5.2,0,.2.2,0,.3h-.3c-.5.8-1,1.6-1.7,2.3h3l.4-.5s0-.1.1-.2c.2-.2.3-.4.4-.4.1,0,.4.2.8.6.4.4.6.6.6.7,0,.2-.2.2-.4.2h-10.2c-.7,0-1.4,0-2.2.2h0ZM17.7,170.5l-.4-.8c.5,0,1.2.1,2,.1h8.2l.4-.5s0,0,.1-.2c.2-.2.3-.3.3-.3.1,0,.3.2.7.5.4.3.6.6.6.7,0,.2-.2.2-.4.2h-9.4c-.7,0-1.4,0-2.2.2h0ZM18.8,169.3c-.2,0-.3-.1-.3-.3,0-.2,0-.4,0-.7,0-.1,0-.2,0-.3v-.7c0-.9,0-1.5-.1-2,.9.2,1.4.4,1.6.5.2,0,.2.2,0,.3l-.2.2v1.7h3v-.2c0-1.3,0-2.3-.2-3.1.9.2,1.5.4,1.7.5.2,0,.2.2,0,.3l-.2.2v2.4h2.8c0-1.1,0-2-.2-2.6.9.2,1.5.4,1.7.5.2,0,.2.2,0,.3l-.2.2v.6c0,.2,0,.3,0,.6,0,.5,0,.9,0,1.2,0,.1-.2.2-.4.3-.3.1-.5.2-.7.2h-.2v-.7h-7.1v.6c0,0-.1.1-.3.2-.2,0-.5.1-.7.1h0ZM21.1,177.6c0-.7-.3-1.5-.8-2.4,0,0-.2.1-.3.2-.2,0-.4.1-.7.1h-.2v-2.2c0-.9,0-1.7-.1-2.3l1.5.7h5.9l.3-.4s0,0,0-.1c.1-.2.2-.3.3-.3.1,0,.3.2.7.5s.5.5.5.6c0,.1-.2.2-.5.2v.9c0,.1,0,.3,0,.6,0,.5,0,.9,0,1.2,0,0-.2.2-.4.3-.2,0-.5.1-.8.1h-.2v-.6h-6.1v.5s0,0,0,0h.1c.7.2,1.2.5,1.6,1,.3.3.4.7.3,1,0,.3-.2.5-.5.6-.3.1-.5,0-.8-.2ZM20.4,174.2h6.1v-2.1h-6.1v2.1Z"/>
  <path class="cls-3" d="M17.2,201.3l-.4-.8c.4,0,1,.1,1.6.1h.8v-6.2c0-1.3,0-2.3-.2-3.1,1,.2,1.6.4,1.9.5.2.1.2.2,0,.3l-.3.2v8.4h2.5v-9.7c0-1.3,0-2.3-.2-3.1,1,.2,1.6.4,1.9.5.2.1.2.2,0,.3l-.3.2v4.7h2.2l.4-.6c0,0,0-.1.2-.2.2-.3.3-.4.4-.4.1,0,.4.2.9.6.5.4.7.7.7.8,0,.2-.2.2-.4.2h-4.3v6.6h3l.4-.6c0,0,0-.1.2-.2.2-.3.3-.4.4-.4.1,0,.4.2.9.6.5.4.7.7.7.8,0,.2-.2.2-.4.2h-10.3c-.7,0-1.4,0-2.2.2h0Z"/>
  <path class="cls-3" d="M28.9,224.9c-2.8-1.5-4.5-4-5.1-7.6h0c-.2,1.8-.8,3.3-1.7,4.4-1.1,1.3-2.7,2.4-5,3.2v-.2c1.7-.9,3-2,3.9-3.3.7-1.1,1.2-2.4,1.4-4.1h-2.2c-.7,0-1.4,0-2.2.2l-.4-.8c.5,0,1.2.1,2,.1h2.8c0-.7.1-1.9.1-3.6v-.4h-2.8c-.7,0-1.4,0-2.2.2l-.4-.8c.5,0,1.2.1,2,.1h8.5l.4-.6s0-.1.1-.2c.2-.3.3-.4.4-.4.1,0,.4.2.9.6.5.4.7.7.7.8,0,.2-.2.2-.4.2h-5.5c0,1.7,0,3.1-.2,4h3.2l.4-.6s0-.1.2-.2c.2-.3.3-.4.4-.4.1,0,.4.2.8.6.5.4.7.7.7.8,0,.2-.2.2-.4.2h-5c.6,2.8,2.7,4.9,6.1,6.2v.2c-.8.1-1.2.6-1.3,1.3h0Z"/>
  <path class="cls-3" d="M17.6,246.5c-.1,0-.2,0-.3,0,0,0-.1-.1-.1-.2,0-1.3.1-2.6.2-3.9v-4.6c0-1.3,0-2.3-.2-3.1l1.6.7h1.3l.3-.4s0,0,.1-.1c.1-.2.2-.3.3-.3.1,0,.3.2.7.5.4.3.6.5.6.6-.1.2-.3.3-.6.3v5.8c0,1.3,0,2.4.1,3.6,0,.1-.2.2-.5.3-.3.1-.5.2-.7.2s-.3-.1-.3-.3c0,0,0-.1,0-.2,0,0,0-.1,0-.2v-.3h-1.6v.4c0,.1,0,.2,0,.4,0,.2,0,.3,0,.4,0,.1-.2.2-.3.3-.2.1-.5.2-.8.2h0ZM18.7,239.7h1.6v-4h-1.6v4ZM18.7,244.3h1.6v-4.1h-1.6v4.1ZM21.9,239.5l-.4-.8c.5,0,1.2.1,2,.1h1.4v-2.2h-.9c-.5,0-1.1,0-1.7.2l-.4-.8c.5,0,1.2.1,2,.1h1c0-1,0-1.8-.2-2.4.9.2,1.5.4,1.7.5.2.1.2.2,0,.3l-.3.2v1.4h1.4l.3-.5s0-.1.1-.2c.2-.2.3-.3.3-.3.1,0,.3.2.7.5.4.4.6.6.6.7,0,.2-.2.2-.4.2h-3.2v2.2h1.8l.4-.6s0,0,.1-.2c.2-.3.3-.4.4-.4.1,0,.4.2.8.6.4.4.6.6.6.7,0,.2-.2.2-.4.2h-5.7c-.7,0-1.4,0-2.2.2h0ZM26,247.9c0-.5-.2-.8-.3-1-.2-.2-.7-.4-1.3-.5v-.2c.6,0,1.3,0,1.9.1.2,0,.3,0,.3-.3v-4.3h-2.5c-.7,0-1.4,0-2.2.2l-.4-.8c.5,0,1.2.1,2,.1h3.1c0-.8,0-1.4-.1-1.8.8.2,1.4.4,1.6.5.2,0,.2.2,0,.3l-.2.2v.9h.4l.3-.5s0-.1.1-.2c.1-.2.2-.3.3-.3.1,0,.3.2.7.5.4.3.5.6.5.7,0,.2-.2.2-.4.2h-2v4.3c0,.6-.1,1-.3,1.2-.3.3-.8.5-1.6.6h0ZM23.8,245c0-.4-.2-.9-.4-1.4-.2-.4-.5-.8-.8-1.2h.1c.8.2,1.4.5,1.8.9.3.4.5.7.5,1.1,0,.4-.2.6-.4.7-.3.1-.6,0-.9-.2Z"/>
  <path class="cls-3" d="M17.5,269.4l-.7-1.7c.3,0,.9-.3,1.8-.6v-5.1h-.5c-.3,0-.6,0-.9.2l-.4-.8c.3,0,.7.1,1.2.1h.5v-1.3c0-1.3,0-2.3-.2-3.1.9.2,1.5.4,1.7.5.2,0,.2.2,0,.3l-.3.2v3.4h.3l.3-.6s0,0,.1-.2c.2-.3.3-.4.3-.4,0,0,.3.2.6.6.3.4.5.6.5.7,0,.2-.1.2-.4.2h-1.7v4.6c.5-.2,1.2-.5,1.9-.8v.2c0,0,0,.1-.2.2-1.4,1.2-2.7,2.1-3.8,2.9,0,.2-.2.4-.3.4ZM24.4,270.4c-.8,0-1.4-.1-1.7-.3-.3-.2-.5-.7-.5-1.3v-5.9l-1.5.6-.3-.4,1.8-.7v-2.2c0-.9,0-1.6-.1-2.2.9.2,1.4.4,1.7.6.2.1.2.2,0,.3l-.3.2v2.9l1.5-.6v-2.2c0-.9,0-1.7-.1-2.3.9.2,1.4.4,1.6.5.2.1.2.2,0,.3l-.3.2v3l1.5-.6h.1s0,0,0,0l.3-.4s0,0,.1-.1c.2-.2.3-.3.3-.3,0,0,.3.2.7.5.4.4.5.6.5.7-.1.1-.3.2-.5.2,0,2,0,3.4-.2,4.2-.1.8-.3,1.3-.5,1.6-.3.3-.8.5-1.4.5,0-.5,0-.8-.2-.9-.1-.2-.4-.3-.7-.4v-.2c.4,0,.7,0,.9,0s.3,0,.4-.1c.1-.1.2-.6.3-1.3,0-.7.1-1.9.1-3.6l-1.7.7v2.7c0,1.2,0,2.4.1,3.6,0,.1-.2.2-.4.3-.2.1-.5.2-.7.2s-.2,0-.3,0c0,0-.1-.1-.1-.2s0-.1,0-.3c0-1.2.1-2.4.1-3.6v-2.1l-1.5.6v6.1c0,.2,0,.4.2.5.2,0,.4.1.8.1h2c.9,0,1.5,0,1.8,0,.2,0,.4,0,.5-.2.2-.3.4-1,.7-2.2h.2v2.2c.5.2.7.4.7.6,0,.4-.2.6-.7.7-.5.1-1.5.2-3.1.2h-2,0Z"/>
  <path class="cls-3" d="M20.6,293.9c-.1,0-.2,0-.3,0,0,0-.1-.1-.1-.2s0-.2,0-.3c0-1.2.1-2.4.1-3.6v-2.1c-.9,1.5-2,2.8-3.5,3.9l-.2-.2c.7-.8,1.4-1.8,1.9-2.9.5-1.1,1-2.2,1.3-3.3h-.9c-.5,0-1.1,0-1.7.2l-.4-.8c.5,0,1.2.1,2,.1h1.4v-2.6c-1.1.2-2.2.3-3.2.4v-.2c1-.3,2-.6,3.2-1.1,1.1-.4,2-.9,2.6-1.3l1.5,1.5c-.2.2-.5.2-.9,0-.6.2-1.2.3-1.9.5v2.8h1l.4-.6s0-.1.1-.2c.2-.3.3-.4.3-.4,0,0,.3.2.7.6.4.4.6.6.6.8,0,.2-.2.2-.4.2h-2.8v1.1c.9.3,1.5.8,2,1.2.4.4.6.8.6,1.2,0,.4,0,.6-.3.8s-.5,0-.8-.2c-.2-.8-.6-1.8-1.4-2.8v3.4c0,1.3,0,2.4.1,3.6,0,.1-.2.2-.4.3-.2.1-.5.2-.8.2h0ZM25.3,290.7c-.1,0-.2,0-.3,0,0,0,0-.1,0-.2,0-.9.1-1.8.1-2.9v-3.4c0-1.3,0-2.3-.2-3.1.9.2,1.5.4,1.7.5.2.1.2.2,0,.3l-.3.2v4.6c0,1.3,0,2.4.1,3.6,0,.1-.2.2-.4.3-.2.1-.5.2-.7.2h0ZM27.6,293.8c0-.5-.2-.8-.3-1-.3-.2-.7-.4-1.3-.5v-.2c.6,0,1.3,0,1.9.1.2,0,.3-.1.3-.3v-8.8c0-1.3,0-2.3-.2-3.1.9.2,1.5.4,1.7.5.2.1.2.2,0,.3l-.3.2v11c0,.6-.1,1-.3,1.2-.3.3-.8.5-1.6.6h0Z"/>
  <path class="cls-3" d="M28.3,306.5c-.6,0-1.1-.2-1.5-.6-.4-.4-.6-.9-.6-1.5s.2-1.1.6-1.5c.4-.4.9-.6,1.5-.6s1.1.2,1.4.6c.4.4.6.9.6,1.5s-.2,1.1-.6,1.5c-.4.4-.9.6-1.4.6ZM28.3,306c.4,0,.8-.2,1.1-.5.3-.3.5-.7.5-1.1s-.2-.8-.5-1.1c-.3-.3-.7-.5-1.1-.5s-.8.2-1.1.5c-.3.3-.5.7-.5,1.1s.2.8.5,1.1c.3.3.7.5,1.1.5Z"/>
  <path class="cls-1" d="M39.1,9.6v299.4"/>
  <path class="cls-1" d="M8.7,9.6v299.4"/>
</svg>