<svg width="739" height="213" viewBox="0 0 739 213" fill="none" xmlns="http://www.w3.org/2000/svg">
<g filter="url(#filter0_d_6_1504)">
<g filter="url(#filter1_d_6_1504)">
<path d="M27.46 163.61C27.19 163.61 26.98 163.53 26.82 163.37C26.66 163.21 26.58 163.02 26.58 162.8C26.74 160.28 26.85 157.75 26.9 155.2V150.98C26.13 151.85 25.24 152.66 24.23 153.42L23.75 153.01C24.49 151.95 25.2 150.75 25.86 149.39C26.47 148.14 27.03 146.72 27.53 145.12C28.03 143.47 28.33 142.1 28.41 141.02C30.53 141.83 31.86 142.43 32.39 142.81C32.79 143.11 32.77 143.34 32.35 143.5L31.63 143.74C31.07 144.85 30.58 145.79 30.16 146.54L30.56 146.7H33.31C33.87 144.86 34.15 143.14 34.15 141.54C36.38 142.11 37.77 142.56 38.33 142.88C38.75 143.12 38.74 143.34 38.29 143.53L37.57 143.81C36.59 144.87 35.58 145.83 34.55 146.69H37.22L37.94 145.63C37.99 145.58 38.06 145.48 38.14 145.35C38.51 144.84 38.79 144.58 38.98 144.58C39.25 144.58 39.8 144.95 40.63 145.68C41.47 146.41 41.88 146.93 41.88 147.22C41.8 147.65 41.48 147.87 40.92 147.87H35.94V151.12H36.86L38.33 149.21C38.65 149.48 38.97 149.75 39.29 150.02C40.01 150.64 40.58 151.18 41 151.64C41.37 151.04 41.82 150.25 42.35 149.24C42.93 148.05 43.45 146.66 43.9 145.08C44.35 143.5 44.6 142.13 44.66 141C46.81 141.79 48.15 142.37 48.68 142.75C49.08 143.02 49.06 143.24 48.64 143.4L47.92 143.68C47.39 144.87 46.92 145.81 46.53 146.48L47.05 146.68H49.84C50.37 144.68 50.62 142.96 50.6 141.52C52.88 142.09 54.31 142.54 54.9 142.86C55.32 143.1 55.32 143.32 54.9 143.51L54.18 143.79C53.15 144.9 52.12 145.86 51.12 146.67H54.38L55.14 145.61C55.19 145.53 55.27 145.42 55.38 145.29C55.75 144.78 56.02 144.52 56.18 144.52C56.45 144.52 57 144.89 57.85 145.64C58.7 146.39 59.12 146.91 59.12 147.2C59.04 147.63 58.71 147.85 58.12 147.85H52.79V151.1H53.98L54.66 150.13C54.74 150.05 54.83 149.93 54.94 149.76C55.26 149.33 55.5 149.11 55.66 149.11C55.92 149.11 56.43 149.46 57.17 150.15C57.91 150.84 58.28 151.34 58.28 151.63C58.2 152.06 57.88 152.28 57.32 152.28H52.78V155.61H53.97L54.65 154.64C54.73 154.56 54.82 154.44 54.93 154.27C55.25 153.84 55.49 153.62 55.65 153.62C55.91 153.62 56.42 153.97 57.16 154.66C57.9 155.35 58.27 155.85 58.27 156.14C58.19 156.57 57.88 156.79 57.35 156.79H52.77V160.24H54.68L55.48 159.06C55.56 158.95 55.67 158.8 55.8 158.61C56.14 158.12 56.4 157.88 56.56 157.88C56.82 157.88 57.4 158.29 58.27 159.1C59.15 159.91 59.58 160.47 59.58 160.77C59.5 161.18 59.17 161.38 58.58 161.38H46.56V162.27C46.56 162.46 46.32 162.68 45.84 162.92C45.26 163.22 44.61 163.37 43.89 163.37C43.62 163.37 43.41 163.29 43.25 163.13C43.09 162.97 43.01 162.78 43.01 162.56C43.17 160.04 43.28 157.52 43.33 155V150.82C42.59 151.66 41.74 152.43 40.78 153.14L40.26 152.69L40.66 152.12C40.47 152.23 40.25 152.28 39.98 152.28H35.92V155.61H36.84L37.48 154.68C37.53 154.63 37.59 154.54 37.64 154.44C37.98 153.95 38.25 153.71 38.44 153.71C38.7 153.71 39.2 154.04 39.91 154.71C40.63 155.37 40.98 155.85 40.98 156.15C40.87 156.58 40.56 156.8 40.02 156.8H35.92V160.25H37.63L38.39 159.15C38.44 159.1 38.51 159 38.59 158.87C38.96 158.3 39.24 158.02 39.43 158.02C39.69 158.02 40.25 158.41 41.08 159.18C41.92 159.95 42.33 160.49 42.33 160.78C42.25 161.19 41.93 161.39 41.37 161.39H30.03V162.45C30.03 162.64 29.8 162.87 29.35 163.14C28.79 163.44 28.16 163.59 27.44 163.59L27.46 163.61ZM24.47 179.17L24.23 178.52C30.23 177.27 35.38 175.51 39.67 173.24C37.36 171.45 35.53 169.27 34.18 166.7C33.22 168.41 32.32 169.92 31.47 171.25C31.68 171.71 31.62 172.09 31.27 172.39L29.08 169.22C30.46 168.33 31.88 167.26 33.34 166.01H30.75C29.26 166.04 27.72 166.23 26.13 166.58L25.1 164.51C26.56 164.67 28.32 164.78 30.39 164.84H49.14L50.25 163.78C50.33 163.7 50.46 163.58 50.65 163.41C51.18 162.92 51.53 162.68 51.68 162.68C51.92 162.68 52.52 163.19 53.49 164.22C54.46 165.25 54.94 165.91 54.94 166.21C54.7 166.53 54.1 166.71 53.15 166.74C51.13 169.15 48.61 171.24 45.59 173C49.41 174.08 54.15 174.72 59.8 174.91L59.76 175.4C58.25 175.89 57.32 177.11 56.97 179.06C50.73 178.3 45.77 176.89 42.08 174.84C37.14 177.06 31.27 178.51 24.45 179.19L24.47 179.17ZM30.04 151.14H32.95V147.89H30.04V151.14ZM30.04 155.65H32.95V152.32H30.04V155.65ZM30.04 160.28H32.95V156.83H30.04V160.28ZM42.14 171.82C44.95 170.06 47.18 168.12 48.83 166.01H34.58C36.28 168.5 38.8 170.44 42.14 171.82ZM46.56 151.14H49.78V147.89H46.56V151.14ZM46.56 155.65H49.78V152.32H46.56V155.65ZM46.56 160.28H49.78V156.83H46.56V160.28Z" fill="white"/>
<path d="M82.78 179.09C82.78 177.9 82.55 177.09 82.1 176.65C81.49 176.11 80.39 175.67 78.8 175.35L78.84 174.74C81.31 174.96 82.86 175.06 83.5 175.06C84.14 175.06 84.56 174.92 84.85 174.65C85.88 173.67 86.59 169.48 86.96 162.06H82.26C82.18 162.93 82.1 163.64 82.02 164.21C81.28 164.7 80.15 164.82 78.64 164.58C78.75 163.85 78.88 162.68 79.04 161.09C79.17 160.09 79.27 159.33 79.32 158.82C79.61 155.54 79.66 152.85 79.48 150.74L83.7 152.49H86.72V145.06H84.05C82.46 145.09 80.81 145.28 79.11 145.63L78.04 143.6C79.5 143.76 81.26 143.87 83.33 143.92H86.32L87.08 142.78C87.13 142.73 87.2 142.63 87.28 142.5C87.65 141.93 87.93 141.65 88.12 141.65C88.39 141.65 89.04 142.11 90.07 143.03C91.1 143.95 91.62 144.56 91.62 144.86C91.33 145.27 90.81 145.55 90.07 145.71V148.68C90.12 151.14 90.2 153.05 90.31 154.41C90.18 154.65 89.77 154.9 89.08 155.16C88.39 155.42 87.78 155.55 87.25 155.55H86.73V153.68H83.03C82.9 155.95 82.68 158.38 82.39 160.95H86.65L87.49 159.98C87.54 159.93 87.61 159.84 87.69 159.74C88.11 159.25 88.42 159.01 88.61 159.01C88.88 159.01 89.49 159.43 90.44 160.27C91.4 161.11 91.87 161.68 91.87 161.98C91.55 162.33 91.05 162.55 90.36 162.63C90.12 167.07 89.75 170.48 89.25 172.87C88.72 175.31 88 176.93 87.1 177.75C86.01 178.67 84.58 179.13 82.8 179.13L82.78 179.09ZM112.58 178.72C111.9 179.15 111.15 179.02 110.33 178.31C110.14 177.06 109.71 175.67 109.02 174.13C105.23 175.16 99.98 176.42 93.3 177.91C93.09 178.34 92.74 178.63 92.26 178.76L90.31 174.37C92.41 174.29 95.7 174.1 100.18 173.8V166.04H96V167.79C96 167.98 95.72 168.2 95.16 168.44C94.52 168.71 93.91 168.85 93.33 168.85C92.85 168.85 92.61 168.58 92.61 168.04C92.72 167.06 92.8 165.85 92.85 164.38V162.15C92.85 159.36 92.72 157.07 92.45 155.28L96.19 156.99H100.17C100.17 155.01 100.08 153.37 99.89 152.07C102.07 152.64 103.42 153.09 103.95 153.41C104.35 153.65 104.37 153.9 104.03 154.14L103.43 154.55V156.99H107.57L108.29 155.97C108.37 155.89 108.46 155.77 108.57 155.6C108.89 155.17 109.13 154.95 109.29 154.95C109.56 154.95 110.17 155.37 111.14 156.21C112.11 157.05 112.59 157.62 112.59 157.92C112.24 158.27 111.78 158.52 111.2 158.65V161.45C111.25 163.73 111.33 165.53 111.44 166.85C111.31 167.09 110.9 167.35 110.23 167.62C109.55 167.89 108.96 168.03 108.46 168.03H107.9V166.04H103.44V173.56L108.57 173.15C107.93 171.85 107.11 170.41 106.1 168.84L106.54 168.6C108.87 169.71 110.65 171.04 111.87 172.58C112.9 173.85 113.45 175.13 113.5 176.4C113.55 177.51 113.24 178.28 112.56 178.72H112.58ZM112.02 153.46C111.4 153.97 110.65 153.93 109.77 153.34C109.58 152.34 109.13 151.21 108.42 149.97C105.24 150.65 100.43 151.57 94.01 152.73C93.77 153.22 93.41 153.5 92.94 153.58L91.47 149.27C92.69 149.32 94.4 149.32 96.6 149.27C97.53 146.29 97.99 143.6 97.99 141.19C100.67 141.87 102.35 142.37 103.05 142.69C103.55 142.96 103.58 143.19 103.13 143.38L102.41 143.66C101.08 145.75 99.66 147.61 98.15 149.27C99.82 149.24 102.65 149.19 106.63 149.11C107.16 149.08 107.56 149.07 107.82 149.07C106.86 147.69 105.82 146.52 104.68 145.58L105 145.25C107.44 145.79 109.35 146.67 110.73 147.89C111.9 148.87 112.56 149.94 112.72 151.1C112.88 152.16 112.65 152.94 112.02 153.46ZM96 164.87H100.18V158.17H96V164.87ZM103.44 164.87H107.9V158.17H103.44V164.87Z" fill="white"/>
<path d="M136.44 178.12C136.36 176.77 136.11 175.82 135.68 175.28C135.04 174.58 133.94 174.1 132.38 173.86V173.29C133.92 173.37 135.44 173.47 136.96 173.57C137.52 173.57 137.8 173.29 137.8 172.72V147.45H135.97C134.91 147.48 133.82 147.67 132.71 148.02L131.71 145.95C133.17 146.11 134.93 146.22 137 146.27H141.22L143.41 143.22C144.07 143.79 144.72 144.36 145.36 144.93L145.28 144.65H161.76L162.76 143.23C162.84 143.12 162.96 142.96 163.12 142.74C163.6 142.09 163.92 141.76 164.08 141.76C164.34 141.76 165.06 142.25 166.21 143.24C167.36 144.23 167.94 144.87 167.94 145.17C167.83 145.6 167.49 145.82 166.91 145.82H158.35C157.21 147.72 156.11 149.23 155.05 150.37H161.02L161.82 149.27C161.87 149.19 161.97 149.07 162.1 148.9C162.47 148.39 162.74 148.13 162.9 148.13C163.17 148.13 163.8 148.59 164.81 149.51C165.82 150.43 166.32 151.04 166.32 151.34C166.11 151.69 165.67 151.92 165.01 152.03V160.11C165.06 163.47 165.17 166.65 165.33 169.66C165.14 169.93 164.69 170.22 163.98 170.51C163.21 170.84 162.53 171 161.95 171H161.35V169.17H151.28V170.35C151.28 170.59 150.97 170.86 150.36 171.16C149.67 171.48 148.97 171.65 148.25 171.65C147.96 171.65 147.73 171.57 147.55 171.41C147.38 171.25 147.29 171.06 147.29 170.84C147.48 168.1 147.59 165.09 147.65 161.78V156.82C147.65 153.41 147.48 150.63 147.13 148.49L151.43 150.36H153.86C154.07 148.65 154.22 147.14 154.3 145.81H146.38C146.86 146.24 147.2 146.57 147.42 146.79C147.31 147.22 146.96 147.44 146.35 147.44H141.53V172.87C141.53 174.47 141.24 175.65 140.65 176.4C139.88 177.35 138.49 177.92 136.47 178.11L136.44 178.12ZM142.73 179.21L142.41 178.64C143.79 177.94 145.18 177.06 146.59 176C149.3 173.97 151.1 171.98 152 170.03L154.43 171.9C155.39 172.41 155.97 172.81 156.18 173.08C156.37 173.32 156.27 173.45 155.9 173.45H155.26C153.91 174.61 152.04 175.75 149.67 176.84C147.29 177.94 144.98 178.73 142.72 179.22L142.73 179.21ZM151.25 156.14H161.32V151.55H151.25V156.14ZM151.25 161.99H161.32V157.32H151.25V161.99ZM151.25 168H161.32V163.17H151.25V168ZM166.33 178.48C165.75 179.1 164.95 179.18 163.94 178.72C163.3 177.5 162.25 176.16 160.8 174.7C159.47 173.37 158.13 172.24 156.78 171.29L157.06 170.92C159.93 171.22 162.22 171.9 163.95 172.95C165.38 173.82 166.3 174.83 166.7 176C167.04 177.03 166.93 177.85 166.34 178.48H166.33Z" fill="white"/>
<path d="M186.35 179.17L186.07 178.48C190.69 176.77 194.12 174.82 196.38 172.63C198.34 170.71 199.63 168.35 200.24 165.56H193.04C191.16 165.59 189.16 165.78 187.07 166.13L186 164.06C187.46 164.22 189.22 164.33 191.29 164.38H200.48C200.72 162.46 200.76 160.81 200.6 159.42C203.2 159.64 204.83 159.87 205.5 160.11C205.98 160.27 206.02 160.49 205.62 160.76L204.94 161.21C204.78 162.62 204.63 163.67 204.5 164.38H215.21L216.24 162.88C216.29 162.8 216.39 162.66 216.52 162.47C217.05 161.71 217.41 161.33 217.59 161.33C217.85 161.33 218.58 161.85 219.76 162.89C220.94 163.93 221.53 164.6 221.53 164.9C221.42 165.33 221.07 165.55 220.46 165.55H205.49C208.09 170.7 213.54 173.89 221.85 175.14V175.63C220.36 175.98 219.38 177.16 218.9 179.16C215.16 177.97 212.19 176.37 209.98 174.37C207.56 172.18 205.79 169.24 204.65 165.55H204.29C203.57 168.85 202.07 171.48 199.79 173.43C197 175.81 192.52 177.72 186.34 179.16L186.35 179.17ZM186.83 156.87L186.47 156.38C187.8 155.24 189.18 153.74 190.61 151.87C191.38 150.79 192.09 149.57 192.74 148.21C193.39 146.86 193.85 145.64 194.11 144.55L196.82 146.26C198.76 147.15 199.29 147.7 198.41 147.88L197.73 148C196.48 149.68 194.94 151.29 193.11 152.83C191.09 154.54 189 155.88 186.82 156.85L186.83 156.87ZM200.68 158.98C200.55 157.71 200.24 156.88 199.76 156.5C199.1 155.93 197.98 155.52 196.42 155.28V154.71C198.07 154.79 199.71 154.89 201.36 154.99C201.89 154.99 202.16 154.75 202.16 154.26V147.84C202.16 145.1 202.03 142.88 201.76 141.18C204.17 141.78 205.69 142.24 206.3 142.56C206.75 142.8 206.79 143.05 206.42 143.29L205.78 143.7V154.38C205.78 155.87 205.49 156.91 204.9 157.51C204.18 158.3 202.78 158.78 200.68 158.97V158.98ZM219.33 155.53C218.71 156.21 217.88 156.25 216.84 155.65C216.31 154.05 215.25 152.32 213.66 150.45C212.23 148.8 210.67 147.38 209 146.18L209.28 145.85C212.41 146.47 214.91 147.47 216.76 148.86C218.33 150.02 219.31 151.3 219.71 152.68C220.08 153.9 219.96 154.85 219.33 155.52V155.53Z" fill="white"/>
<path d="M247.06 179.13C246.71 179.13 246.44 179.05 246.22 178.89C246.01 178.73 245.9 178.54 245.9 178.32C246.14 174.83 246.28 171.31 246.34 167.76V161.18C244.75 164.43 242.7 167.33 240.21 169.87L239.69 169.38C242.42 165.02 244.45 159.36 245.78 152.4H244.11C243.15 152.43 242.17 152.62 241.16 152.97L240.12 150.9C241.29 151.06 242.69 151.17 244.34 151.22H246.33V149.6C246.33 146.19 246.16 143.41 245.81 141.27C248.33 141.89 249.9 142.38 250.51 142.73C250.96 143 250.97 143.27 250.55 143.54L249.87 143.99V151.22H250.9L251.7 149.84C251.75 149.73 251.85 149.6 251.98 149.43C252.38 148.75 252.66 148.41 252.82 148.41C253.06 148.41 253.65 148.89 254.59 149.85C255.53 150.81 256 151.44 256 151.74C255.89 152.17 255.55 152.39 254.97 152.39H249.88V156.01C251.9 156.77 253.42 157.73 254.46 158.89C255.34 159.84 255.77 160.79 255.77 161.73C255.77 162.6 255.46 163.19 254.83 163.52C254.21 163.84 253.54 163.7 252.82 163.07C252.53 161.28 251.55 159.21 249.87 156.85V168.18C249.92 171.54 250.03 174.72 250.19 177.73C250.03 178.06 249.63 178.37 249 178.66C248.34 178.96 247.69 179.11 247.05 179.11L247.06 179.13ZM257.32 178.89C257 178.89 256.74 178.81 256.54 178.65C256.34 178.49 256.24 178.3 256.24 178.08C256.48 174.59 256.62 171.07 256.68 167.52V151.19C256.68 147.78 256.51 145 256.16 142.86L260.46 144.81H269.69L270.53 143.71C270.61 143.63 270.73 143.49 270.89 143.3C271.26 142.84 271.53 142.61 271.69 142.61C271.95 142.61 272.63 143.06 273.7 143.97C274.77 144.88 275.31 145.48 275.31 145.78C274.99 146.19 274.46 146.47 273.72 146.63V167.67C273.77 171.03 273.88 174.21 274.04 177.22C273.83 177.52 273.38 177.83 272.69 178.15C271.95 178.53 271.26 178.72 270.62 178.72C270.14 178.72 269.9 178.45 269.9 177.91C269.93 177.67 269.95 177.35 269.98 176.98C270.01 176.68 270.03 176.42 270.06 176.21V174.95H260.31V175.8C260.34 176.04 260.35 176.31 260.35 176.61C260.38 176.91 260.4 177.11 260.43 177.22C260.38 177.6 260.04 177.96 259.43 178.32C258.79 178.7 258.09 178.89 257.32 178.89ZM260.31 154.27H270.06V145.94H260.31V154.27ZM260.31 163.86H270.06V155.45H260.31V163.86ZM260.31 173.77H270.06V165.04H260.31V173.77Z" fill="white"/>
<path d="M296.21 179.09L294.1 174.74C295.21 174.28 296.85 173.48 299 172.34V160.15H297.41C296.59 160.18 295.71 160.37 294.78 160.72L293.86 158.65C294.74 158.81 295.77 158.92 296.96 158.97H298.43L299.27 157.67C299.32 157.59 299.42 157.45 299.55 157.26C299.95 156.64 300.23 156.33 300.39 156.33C300.65 156.33 301.37 156.84 302.54 157.87C303.71 158.9 304.29 159.56 304.29 159.86C303.94 160.27 303.31 160.54 302.38 160.67V171.15C303.68 172.61 305.22 173.57 307 174.03C308.54 174.44 311.11 174.64 314.72 174.64C320.58 174.64 325.63 174.59 329.85 174.48V175.01C328.39 175.33 327.58 176.4 327.42 178.22H314.76C311.07 178.22 308.36 177.81 306.64 177C304.78 176.13 303.2 174.43 301.9 171.88C300.44 173.91 298.72 176 296.73 178.14C296.78 178.52 296.61 178.83 296.21 179.07V179.09ZM299.76 150.45C299.55 149.2 299.03 147.85 298.21 146.39C297.44 145.06 296.59 143.91 295.66 142.94L296.02 142.66C298.41 143.26 300.24 144.16 301.51 145.38C302.57 146.38 303.12 147.47 303.14 148.63C303.19 149.66 302.87 150.39 302.18 150.82C301.44 151.25 300.63 151.13 299.75 150.45H299.76ZM323.36 173.4C323.28 172.37 323.03 171.64 322.6 171.21C321.88 170.67 320.83 170.3 319.46 170.11V169.54C320.95 169.62 322.42 169.7 323.88 169.78C324.44 169.78 324.72 169.52 324.72 169.01V160.28H318.31V164.79L320.98 164.71C320.63 163.71 320.18 162.77 319.63 161.91L320.07 161.67C321.64 162.43 322.76 163.32 323.45 164.35C324.06 165.19 324.3 166.02 324.17 166.83C324.06 167.56 323.73 168.04 323.17 168.27C322.61 168.5 322.06 168.32 321.5 167.72C321.53 167.18 321.45 166.49 321.26 165.65C318.71 166.41 315.65 167.22 312.07 168.09C311.88 168.55 311.58 168.84 311.15 168.94L309.28 165.08C310.69 165.08 312.6 165.04 315.01 164.96V160.29H309.04V164.23C309.12 167.51 309.21 170.04 309.32 171.83C309.16 172.13 308.78 172.43 308.17 172.72C307.51 173.02 306.86 173.17 306.22 173.17C305.72 173.17 305.46 172.9 305.46 172.36C305.57 171.2 305.65 169.73 305.7 167.97V165.33C305.7 162.11 305.54 159.43 305.22 157.29L309.28 159.12H315.01V155.38H310.55V156.31C310.55 156.53 310.24 156.77 309.63 157.04C308.97 157.34 308.3 157.49 307.64 157.49C307.16 157.49 306.92 157.22 306.92 156.68C307.03 155.54 307.11 154.12 307.16 152.41V149.85C307.16 146.71 307 144.11 306.68 142.05L310.74 143.84H322.64L323.4 142.82C323.45 142.74 323.53 142.63 323.64 142.49C324.01 142.03 324.28 141.8 324.44 141.8C324.71 141.8 325.38 142.23 326.45 143.08C327.52 143.93 328.06 144.51 328.06 144.81C327.66 145.22 327.13 145.49 326.47 145.62V149.07C326.52 151.86 326.6 154.08 326.71 155.73C326.55 156 326.14 156.27 325.48 156.54C324.76 156.86 324.13 157.03 323.57 157.03H322.97V155.36H318.31V159.1H324.32L325.04 157.96C325.09 157.88 325.17 157.76 325.28 157.59C325.65 157.05 325.92 156.78 326.08 156.78C326.35 156.78 327.02 157.26 328.09 158.22C329.16 159.18 329.7 159.81 329.7 160.11C329.43 160.49 328.92 160.76 328.15 160.92V169.33C328.15 170.63 327.88 171.55 327.35 172.09C326.66 172.79 325.33 173.23 323.37 173.39L323.36 173.4ZM310.54 148.95H315V144.97H310.54V148.95ZM310.54 154.19H315V150.09H310.54V154.19ZM318.3 148.95H322.96V144.97H318.3V148.95ZM318.3 154.19H322.96V150.09H318.3V154.19Z" fill="white"/>
<path d="M345.17 184.29L344.53 183.11C347.16 181.67 348.64 179.68 348.99 177.14C347.74 176.71 346.84 176.29 346.28 175.88C345.35 175.18 344.89 174.3 344.89 173.24C344.89 172.43 345.15 171.74 345.69 171.17C346.27 170.57 347.02 170.28 347.92 170.28C348.93 170.28 349.74 170.66 350.37 171.42C350.99 172.18 351.31 173.19 351.31 174.47C351.31 176.42 350.86 178.22 349.96 179.87C348.9 181.82 347.31 183.3 345.18 184.3L345.17 184.29Z" fill="white"/>
<path d="M380 178.56L378.93 176.49C380.39 176.65 382.15 176.76 384.22 176.81H399.27C400.17 173.97 400.62 171.29 400.62 168.77C403.17 169.31 404.76 169.73 405.4 170.03C405.88 170.27 405.9 170.5 405.48 170.72L404.8 171.05C403.55 173 402.01 174.92 400.18 176.82H408.42L409.42 175.4C409.5 175.29 409.62 175.13 409.78 174.91C410.26 174.26 410.58 173.94 410.74 173.94C411 173.94 411.7 174.43 412.83 175.42C413.96 176.41 414.52 177.05 414.52 177.35C414.41 177.78 414.07 178 413.48 178H385.98C384.1 178.03 382.11 178.22 380.01 178.57L380 178.56ZM381.08 156.95L380.08 154.92C381.54 155.08 383.3 155.19 385.37 155.25H407.62L408.58 153.91C408.66 153.8 408.77 153.65 408.9 153.46C409.35 152.84 409.66 152.53 409.82 152.53C410.08 152.53 410.76 152.99 411.83 153.91C412.9 154.83 413.44 155.44 413.44 155.74C413.33 156.17 413 156.39 412.44 156.39H387.04C385.16 156.42 383.17 156.61 381.07 156.96L381.08 156.95ZM384.14 153.74C383.58 153.74 383.3 153.47 383.3 152.93C383.35 152.47 383.41 151.86 383.46 151.1C383.49 150.75 383.5 150.46 383.5 150.25V148.5C383.5 146.23 383.39 144.42 383.18 143.1C385.51 143.67 386.97 144.12 387.56 144.44C387.98 144.68 388 144.93 387.6 145.17L386.96 145.58V150.17H395.04V149.6C395.04 146.19 394.87 143.41 394.52 141.27C396.93 141.84 398.45 142.29 399.06 142.61C399.48 142.85 399.51 143.11 399.14 143.38L398.54 143.79V150.17H406.1C406.1 147.22 405.95 144.86 405.66 143.1C408.1 143.67 409.63 144.12 410.24 144.44C410.69 144.68 410.72 144.94 410.32 145.21L409.68 145.62V147.33C409.68 147.74 409.69 148.25 409.72 148.87C409.77 150.28 409.83 151.35 409.88 152.08C409.77 152.35 409.38 152.62 408.71 152.89C408.03 153.16 407.38 153.3 406.74 153.3H406.1V151.35H386.95V152.85C386.95 153.01 386.64 153.2 386.03 153.42C385.39 153.64 384.76 153.74 384.12 153.74H384.14ZM390.51 176C390.51 174.02 389.83 171.87 388.48 169.54C388.35 169.73 388.06 169.91 387.6 170.07C387.04 170.29 386.42 170.39 385.73 170.39H385.09V164.42C385.09 161.96 384.97 159.9 384.73 158.24L388.91 160.07H404.87L405.63 158.93C405.68 158.85 405.76 158.73 405.87 158.56C406.24 158.02 406.51 157.75 406.67 157.75C406.93 157.75 407.55 158.18 408.5 159.03C409.46 159.88 409.93 160.46 409.93 160.76C409.77 161.03 409.32 161.25 408.58 161.41V163.89C408.58 164.27 408.59 164.77 408.62 165.39C408.67 166.8 408.73 167.87 408.78 168.6C408.67 168.84 408.34 169.07 407.78 169.29C407.14 169.53 406.41 169.66 405.59 169.66H404.99V168.08H388.51V169.46C388.51 169.46 388.5 169.51 388.47 169.54L388.83 169.34C390.77 170.07 392.19 171.01 393.09 172.14C393.81 173.06 394.1 174 393.97 174.94C393.81 175.81 393.39 176.38 392.7 176.65C391.96 176.92 391.23 176.7 390.51 176ZM388.52 166.94H405V161.21H388.52V166.94Z" fill="white"/>
<path d="M433.82 177.87L432.82 175.8C434.01 175.96 435.47 176.07 437.2 176.12H439.27V159.42C439.27 156.01 439.1 153.23 438.75 151.09C441.43 151.71 443.1 152.19 443.77 152.51C444.25 152.78 444.27 153.05 443.85 153.32L443.13 153.77V176.11H449.9V150.15C449.9 146.74 449.73 143.96 449.38 141.82C452.06 142.44 453.73 142.93 454.4 143.28C454.88 143.55 454.9 143.82 454.48 144.09L453.8 144.54V157.21H459.65L460.72 155.63C460.8 155.49 460.93 155.32 461.12 155.1C461.62 154.37 461.96 154 462.11 154C462.38 154 463.16 154.55 464.46 155.65C465.76 156.75 466.41 157.44 466.41 157.74C466.3 158.17 465.95 158.39 465.34 158.39H453.8V176.1H461.84L462.95 174.43C463.06 174.29 463.2 174.09 463.39 173.82C463.87 173.12 464.19 172.76 464.35 172.76C464.61 172.76 465.4 173.33 466.72 174.47C468.03 175.61 468.69 176.32 468.69 176.62C468.58 177.05 468.23 177.27 467.62 177.27H439.8C437.92 177.3 435.92 177.49 433.83 177.84L433.82 177.87Z" fill="white"/>
<path d="M519.44 179.21C511.74 175.23 507.17 168.4 505.71 158.74H505.55C504.91 163.59 503.37 167.5 500.93 170.48C498.09 174 493.61 176.86 487.48 179.05L487.12 178.44C492 175.98 495.6 173.04 497.91 169.62C499.87 166.72 501.12 163.09 501.65 158.73H495.76C493.88 158.76 491.89 158.95 489.79 159.3L488.79 157.23C490.25 157.39 492.01 157.5 494.08 157.55H501.76C501.95 155.57 502.06 152.4 502.12 148.04V146.86H494.44C492.56 146.89 490.57 147.08 488.47 147.43L487.4 145.36C488.86 145.52 490.62 145.63 492.69 145.68H515.58L516.65 144.1C516.73 143.99 516.85 143.83 517.01 143.61C517.51 142.88 517.85 142.51 518.01 142.51C518.27 142.51 519.04 143.05 520.32 144.13C521.59 145.21 522.23 145.9 522.23 146.2C522.12 146.63 521.77 146.85 521.16 146.85H506.23C506.18 151.51 506 155.07 505.71 157.53H514.47L515.54 155.99C515.62 155.88 515.75 155.71 515.94 155.46C516.44 154.78 516.78 154.44 516.94 154.44C517.2 154.44 517.96 154.97 519.21 156.02C520.46 157.08 521.08 157.75 521.08 158.05C520.97 158.48 520.62 158.7 520.01 158.7H506.4C508.12 166.31 513.6 171.84 522.84 175.27L522.76 175.72C520.82 176.07 519.72 177.22 519.46 179.17L519.44 179.21Z" fill="white"/>
<path d="M542.96 175.39C542.69 175.39 542.46 175.31 542.26 175.15C542.06 174.99 541.96 174.8 541.96 174.58C542.2 171.09 542.34 167.57 542.4 164.02V151.83C542.4 148.42 542.23 145.64 541.88 143.5L546.3 145.33H549.68L550.48 144.31C550.53 144.23 550.63 144.11 550.76 143.94C551.13 143.48 551.4 143.25 551.56 143.25C551.83 143.25 552.48 143.68 553.53 144.55C554.58 145.42 555.1 146 555.1 146.3C554.78 146.71 554.25 146.99 553.51 147.15V162.59C553.56 165.95 553.67 169.13 553.83 172.14C553.64 172.41 553.21 172.7 552.52 172.99C551.8 173.31 551.17 173.48 550.61 173.48C550.13 173.48 549.89 173.21 549.89 172.67C549.92 172.53 549.94 172.34 549.97 172.1C550 171.91 550.02 171.75 550.05 171.61V170.68H545.83V171.86C545.86 172.13 545.87 172.46 545.87 172.83C545.92 173.37 545.96 173.76 545.99 174.01C545.88 174.31 545.58 174.59 545.07 174.86C544.46 175.21 543.76 175.39 542.96 175.39ZM545.83 157.27H550.05V146.5H545.83V157.27ZM545.83 169.5H550.05V158.45H545.83V169.5ZM554.58 156.71L553.54 154.68C555 154.84 556.76 154.95 558.83 155H562.61V149.07H560.1C558.67 149.1 557.18 149.29 555.64 149.64L554.6 147.57C556.06 147.73 557.82 147.84 559.89 147.89H562.6C562.6 145.24 562.47 143.08 562.2 141.43C564.67 142.03 566.19 142.49 566.78 142.81C567.23 143.08 567.24 143.35 566.82 143.62L566.1 144.07V147.89H569.88L570.8 146.47C570.88 146.36 571 146.19 571.16 145.94C571.58 145.34 571.88 145.05 572.04 145.05C572.31 145.05 572.97 145.54 574.03 146.51C575.09 147.48 575.62 148.12 575.62 148.42C575.54 148.85 575.22 149.07 574.66 149.07H566.1V155H570.96L571.92 153.54C572 153.43 572.11 153.28 572.24 153.09C572.72 152.39 573.04 152.03 573.2 152.03C573.47 152.03 574.16 152.53 575.27 153.53C576.38 154.53 576.94 155.18 576.94 155.48C576.83 155.91 576.49 156.13 575.91 156.13H560.55C558.67 156.16 556.67 156.35 554.58 156.7V156.71ZM565.77 179.13C565.64 177.86 565.33 176.99 564.85 176.53C564.21 175.93 563.04 175.49 561.35 175.19V174.62C563.05 174.7 564.75 174.8 566.44 174.9C567.02 174.9 567.32 174.64 567.32 174.13V162.71H560.67C558.79 162.74 556.8 162.93 554.7 163.28L553.67 161.21C555.13 161.37 556.89 161.48 558.96 161.53H567.32C567.32 159.53 567.23 157.9 567.04 156.65C569.32 157.25 570.75 157.71 571.34 158.03C571.76 158.27 571.8 158.52 571.46 158.76L570.86 159.17V161.53H571.89L572.73 160.23C572.81 160.12 572.93 159.96 573.09 159.74C573.46 159.17 573.73 158.89 573.89 158.89C574.16 158.89 574.77 159.34 575.74 160.25C576.71 161.16 577.19 161.76 577.19 162.06C577.11 162.49 576.77 162.71 576.16 162.71H570.87V174.33C570.87 175.87 570.58 176.97 569.99 177.62C569.27 178.41 567.87 178.91 565.77 179.12V179.13ZM559.72 171.37C559.59 170.26 559.2 169.01 558.57 167.63C557.99 166.47 557.31 165.37 556.54 164.34L556.9 164.1C559.1 164.75 560.76 165.67 561.88 166.86C562.81 167.83 563.26 168.85 563.23 169.91C563.2 170.86 562.83 171.51 562.12 171.86C561.35 172.24 560.55 172.08 559.73 171.37H559.72Z" fill="white"/>
<path d="M596.7 175.11L594.79 170.52C595.64 170.28 597.24 169.71 599.61 168.81V155.08H598.26C597.52 155.11 596.75 155.3 595.95 155.65L594.95 153.58C595.83 153.74 596.89 153.85 598.13 153.9H599.6V150.41C599.6 147 599.43 144.22 599.08 142.08C601.55 142.7 603.09 143.18 603.7 143.5C604.15 143.74 604.16 144 603.74 144.27L603.02 144.72V153.9H603.74L604.54 152.4C604.59 152.29 604.69 152.14 604.82 151.95C605.22 151.25 605.5 150.89 605.66 150.89C605.9 150.89 606.46 151.4 607.33 152.43C608.21 153.46 608.64 154.12 608.64 154.42C608.61 154.85 608.29 155.07 607.68 155.07H603.02V167.42C604.48 166.82 606.23 166.08 608.27 165.19L608.47 165.64C608.31 165.78 608.07 165.98 607.75 166.25C603.88 169.36 600.47 171.92 597.52 173.93C597.39 174.53 597.11 174.92 596.68 175.11H596.7ZM615.24 177.75C613.01 177.75 611.5 177.47 610.7 176.9C609.85 176.3 609.43 175.15 609.43 173.45V157.65L605.25 159.27L604.53 158.29L609.43 156.34V150.49C609.43 148.11 609.31 146.1 609.07 144.48C611.48 145.13 612.97 145.63 613.53 145.98C613.95 146.25 613.97 146.52 613.57 146.79L612.89 147.24V155L617.03 153.38V147.45C617.03 145.01 616.91 142.97 616.67 141.32C619.03 141.94 620.5 142.42 621.09 142.74C621.49 143.01 621.49 143.28 621.09 143.55L620.41 144V152.04L624.39 150.46L624.75 150.34H624.71L625.55 149.24C625.63 149.16 625.74 149.04 625.87 148.87C626.27 148.36 626.55 148.1 626.71 148.1C626.95 148.1 627.56 148.57 628.54 149.52C629.52 150.47 630.01 151.09 630.01 151.39C629.74 151.71 629.27 151.93 628.58 152.04C628.53 157.46 628.37 161.22 628.1 163.33C627.83 165.47 627.34 166.89 626.63 167.6C625.75 168.49 624.53 168.94 622.97 168.94C622.97 167.61 622.84 166.79 622.57 166.46C622.2 165.97 621.56 165.61 620.66 165.36V164.71C621.62 164.82 622.44 164.87 623.13 164.87C623.61 164.87 623.93 164.75 624.09 164.5C624.43 164.15 624.67 162.98 624.81 161.01C624.97 159.14 625.07 155.96 625.13 151.46L620.43 153.29V160.4C620.48 163.76 620.59 166.94 620.75 169.95C620.59 170.27 620.21 170.59 619.6 170.88C618.94 171.2 618.3 171.37 617.69 171.37C617.4 171.37 617.15 171.29 616.95 171.13C616.75 170.97 616.65 170.78 616.65 170.56C616.65 170.4 616.66 170.17 616.69 169.87C616.88 166.65 616.99 163.44 617.05 160.24V154.63L612.91 156.25V172.5C612.91 173.1 613.08 173.52 613.43 173.76C613.83 174 614.54 174.13 615.58 174.13H620.99C623.4 174.13 625 174.08 625.77 173.97C626.35 173.94 626.77 173.74 627 173.36C627.42 172.68 628.02 170.73 628.79 167.51H629.23L629.35 173.52C630.46 173.95 631.02 174.51 631.02 175.19C631.02 176.17 630.36 176.83 629.03 177.18C627.62 177.56 624.86 177.75 620.75 177.75H615.26H615.24Z" fill="white"/>
<path d="M659.07 179.09C658.78 179.09 658.54 179.01 658.35 178.85C658.16 178.69 658.07 178.5 658.07 178.28C658.07 178.09 658.08 177.82 658.11 177.47C658.3 174.25 658.41 171.01 658.47 167.76V162.07C656.05 166.19 652.95 169.67 649.16 172.51L648.68 172.02C650.59 169.91 652.34 167.35 653.93 164.34C655.39 161.52 656.57 158.56 657.47 155.44H655C653.57 155.47 652.05 155.66 650.46 156.01L649.42 153.98C650.88 154.14 652.64 154.25 654.71 154.3H658.45V147.35C655.4 147.84 652.51 148.18 649.77 148.37L649.65 147.76C652.38 147.06 655.28 146.08 658.33 144.83C661.28 143.64 663.64 142.49 665.42 141.38L669.56 145.4C669.11 145.81 668.33 145.81 667.21 145.4C665.64 145.86 663.89 146.29 661.96 146.7V154.3H664.71L665.67 152.8C665.75 152.69 665.86 152.52 665.99 152.27C666.44 151.59 666.75 151.25 666.91 151.25C667.15 151.25 667.81 151.77 668.88 152.81C669.95 153.85 670.49 154.52 670.49 154.82C670.38 155.23 670.04 155.43 669.46 155.43H661.98V158.36C664.29 159.25 666.05 160.36 667.27 161.69C668.31 162.77 668.85 163.88 668.9 165.02C668.98 166.02 668.69 166.72 668.04 167.11C667.39 167.5 666.67 167.36 665.87 166.68C665.47 164.49 664.17 161.99 661.97 159.21V168.23C662.02 171.59 662.13 174.77 662.29 177.78C662.1 178.08 661.75 178.36 661.22 178.63C660.56 178.93 659.84 179.08 659.07 179.08V179.09ZM671.81 170.48C671.52 170.48 671.29 170.4 671.11 170.24C670.94 170.08 670.85 169.89 670.85 169.67C671.04 167.34 671.15 164.77 671.21 161.95V152.89C671.21 149.48 671.04 146.7 670.69 144.56C673.13 145.18 674.64 145.66 675.23 145.98C675.68 146.25 675.69 146.52 675.27 146.79L674.55 147.24V159.59C674.6 162.95 674.71 166.13 674.87 169.14C674.71 169.44 674.33 169.74 673.72 170.03C673.06 170.33 672.42 170.48 671.81 170.48ZM677.9 178.93C677.77 177.68 677.46 176.78 676.98 176.21C676.26 175.56 675.08 175.1 673.44 174.83V174.26C675.14 174.37 676.82 174.48 678.5 174.58C679.11 174.58 679.42 174.3 679.42 173.73V150.21C679.42 146.8 679.25 144.02 678.9 141.88C681.39 142.5 682.95 142.98 683.56 143.3C684.01 143.57 684.04 143.84 683.64 144.11L682.96 144.56V174.05C682.96 175.62 682.68 176.73 682.12 177.38C681.4 178.19 680 178.71 677.9 178.92V178.93Z" fill="white"/>
<path d="M705.56 179.05C704.02 179.05 702.69 178.48 701.58 177.34C700.47 176.2 699.91 174.85 699.91 173.28C699.91 171.71 700.46 170.36 701.56 169.24C702.66 168.12 703.99 167.55 705.56 167.55C707.13 167.55 708.45 168.11 709.54 169.22C710.63 170.33 711.17 171.68 711.17 173.28C711.17 174.88 710.62 176.24 709.52 177.36C708.42 178.48 707.1 179.05 705.56 179.05ZM705.56 177.59C706.7 177.59 707.68 177.17 708.51 176.33C709.33 175.49 709.74 174.48 709.74 173.28C709.74 172.08 709.34 171.08 708.53 170.25C707.72 169.42 706.73 169.01 705.56 169.01C704.39 169.01 703.4 169.42 702.57 170.25C701.75 171.08 701.34 172.08 701.34 173.28C701.34 174.48 701.75 175.49 702.57 176.33C703.39 177.17 704.39 177.59 705.56 177.59Z" fill="white"/>
</g>
<path d="M73.28 42.8499C72.06 44.1499 70.46 44.1599 68.5 42.8899C67.68 40.3899 66.32 37.6799 64.4 34.7399C53.75 36.7499 38.69 39.1199 19.22 41.8599C18.69 42.7899 17.97 43.3299 17.06 43.4799L14.9 34.3799C16.43 34.3799 19.5 34.3599 24.11 34.3099C25.45 34.2599 26.48 34.2399 27.2 34.2399C28.78 31.2099 30.46 27.6299 32.24 23.5199C34.4 18.5799 35.88 13.8799 36.7 9.41992L47.78 13.5299C47.44 14.6099 46.56 15.0699 45.12 14.9299C40.71 21.9299 35.84 28.3199 30.52 34.0899C36.08 33.9399 46.03 33.5799 60.38 32.9899C61.58 32.9399 62.49 32.8899 63.11 32.8399C59.66 28.0399 56.11 24.1299 52.46 21.0899L53.11 20.4999C59.39 22.6099 64.4 25.2999 68.15 28.5799C71.27 31.3199 73.23 34.1599 74.05 37.0999C74.77 39.6499 74.52 41.5699 73.29 42.8599L73.28 42.8499ZM24.54 78.8599C23.53 78.8599 23.03 78.3699 23.03 77.3899C23.22 74.6999 23.39 71.0799 23.53 66.5199V60.3499C23.53 54.1799 23.22 49.1699 22.59 45.2999L30.72 48.8199H59.5L61.08 46.8399C61.22 46.6899 61.41 46.4699 61.66 46.1799C62.38 45.2499 62.88 44.7799 63.17 44.7799C63.65 44.7799 64.94 45.6399 67.05 47.3499C69.16 49.0599 70.22 50.1899 70.22 50.7299C69.74 51.4599 68.71 52.0299 67.13 52.4199V60.4199C67.27 67.1299 67.44 72.3199 67.63 75.9899C67.29 76.4299 66.45 76.8999 65.11 77.3899C63.67 77.8799 62.42 78.1199 61.37 78.1199C60.41 78.1199 59.93 77.6299 59.93 76.6499C59.98 76.3099 60.03 75.8199 60.07 75.1799C60.12 74.7399 60.17 74.3499 60.21 74.0099V71.9499H30.28V73.4899C30.33 73.9299 30.35 74.4399 30.35 75.0299C30.4 75.5699 30.45 75.9599 30.49 76.1999C30.39 76.7399 29.72 77.2999 28.48 77.8899C27.14 78.5299 25.82 78.8399 24.52 78.8399L24.54 78.8599ZM30.3 69.8999H60.23V50.9599H30.3V69.8999Z" fill="white"/>
<path d="M108.57 78.2703C107.99 78.2703 107.51 78.1204 107.13 77.8304C106.75 77.5404 106.55 77.1904 106.55 76.8004C106.98 70.4904 107.24 64.1203 107.34 57.7104V29.5904C107.34 23.4204 107.03 18.4104 106.4 14.5404L114.67 18.1404H142.87L144.45 16.1604C144.55 16.0604 144.69 15.8904 144.88 15.6504C145.69 14.6204 146.27 14.1104 146.61 14.1104C147.09 14.1104 148.35 14.9704 150.39 16.6804C152.43 18.3904 153.45 19.5204 153.45 20.0604C152.87 20.7504 151.91 21.2604 150.57 21.6004V57.8004C150.67 63.8703 150.86 69.6204 151.15 75.0504C150.72 75.5904 149.86 76.1503 148.56 76.7403C147.12 77.4203 145.83 77.7703 144.68 77.7703C143.72 77.7703 143.24 77.2804 143.24 76.3004C143.29 75.9604 143.34 75.4404 143.38 74.7604C143.43 74.2704 143.48 73.8504 143.52 73.5104V71.3803H114.1V72.7803C114.15 73.1703 114.17 73.6404 114.17 74.1804C114.22 74.6704 114.27 75.0103 114.31 75.2104C114.21 75.8904 113.59 76.5803 112.44 77.2703C111.24 77.9503 109.95 78.3004 108.55 78.3004L108.57 78.2703ZM114.11 43.2504H143.53V20.2704H114.11V43.2504ZM114.11 69.2403H143.53V45.3804H114.11V69.2403Z" fill="white"/>
<path d="M197.13 78.7898C196.12 78.7898 195.62 78.2998 195.62 77.3198C195.86 74.9198 196.03 71.6898 196.12 67.6298V62.0498C191.99 64.5498 187.7 66.9198 183.24 69.1698C182.95 70.1498 182.38 70.7598 181.51 71.0098L179.28 63.0098C179.61 62.9598 180.24 62.8598 181.15 62.7198C182.3 62.5198 183.24 62.3798 183.96 62.2798V18.1398H182.67C182.14 18.1898 181.57 18.5298 180.94 19.1698L179.14 15.4298C181.78 15.7198 184.97 15.9198 188.71 16.0198H197.56L199.21 13.6698C199.31 13.5198 199.45 13.3298 199.64 13.0798C200.45 11.9098 201.03 11.3198 201.37 11.3198C201.85 11.3198 203.02 12.1298 204.9 13.7398C206.77 15.3598 207.71 16.4298 207.71 16.9698C207.57 17.7498 206.94 18.1398 205.84 18.1398H201.88V59.3298C201.98 65.3998 202.17 71.1498 202.46 76.5798C202.12 77.1198 201.52 77.6098 200.66 78.0498C199.65 78.5398 198.48 78.7798 197.13 78.7798V78.7898ZM189.58 30.2498H196.13V18.1398H189.58V30.2498ZM189.58 45.3098H196.13V32.3898H189.58V45.3098ZM189.58 61.1698C190.97 60.8798 193.15 60.4398 196.13 59.8498V47.3698H189.58V61.1698ZM205.33 45.8198L202.52 38.9898C204.05 38.9898 206.14 38.9198 208.78 38.7698C208.92 38.5298 209.11 38.1598 209.36 37.6698C210.22 36.0498 210.85 34.8098 211.23 33.9298C213.72 28.9398 215.52 24.2598 216.63 19.9098L224.04 23.6498C223.27 22.5198 222.62 21.6898 222.1 21.1498L222.82 20.6398C224.64 21.1798 226.13 21.7698 227.28 22.3998C229.05 17.5998 230.01 13.7398 230.16 10.7998C233.95 12.3698 236.32 13.5198 237.28 14.2498C237.95 14.7898 237.93 15.1598 237.21 15.3498L235.99 15.7198C234.22 18.1698 231.91 20.7898 229.08 23.5798C230.76 24.8998 231.64 26.3698 231.74 27.9898C231.84 29.4598 231.34 30.4998 230.27 31.1098C229.19 31.7198 228.03 31.5098 226.78 30.4898C226.59 28.4798 225.77 26.3298 224.33 24.0298C223.8 24.8098 222.91 25.1098 221.67 24.9098C219.13 28.7298 215.6 33.3298 211.09 38.7098C212.24 38.6598 214.11 38.5598 216.7 38.4198C217.08 38.3698 217.37 38.3498 217.56 38.3498C216.94 36.3898 216.24 34.7998 215.47 33.5798L216.26 33.1398C219.04 34.3598 221.06 35.8598 222.3 37.6198C223.31 39.1398 223.69 40.6098 223.45 42.0298C223.26 43.3498 222.63 44.2098 221.58 44.5998C220.52 45.0398 219.47 44.7498 218.41 43.7198C218.41 42.6898 218.29 41.5198 218.05 40.1998C216.51 40.7898 213.61 41.8898 209.35 43.4998C208.34 43.8398 207.58 44.1098 207.05 44.3098C206.67 45.1898 206.09 45.7098 205.32 45.8498L205.33 45.8198ZM211.52 31.3598C210.46 31.9498 209.34 31.7298 208.14 30.6998C207.95 29.2798 207.4 27.6698 206.49 25.8498C205.63 24.2798 204.67 22.8898 203.61 21.6598L204.33 21.1498C206.25 21.6898 207.76 22.2798 208.86 22.9098C210.44 18.2598 211.35 14.2498 211.59 10.8698C215.38 12.2898 217.75 13.3398 218.71 14.0298C219.38 14.5698 219.36 14.9598 218.64 15.1998L217.42 15.6398C215.6 18.1898 213.3 20.9998 210.51 24.0798C212.09 25.3498 212.93 26.7698 213.03 28.3398C213.08 29.7598 212.57 30.7598 211.52 31.3498V31.3598ZM204.61 78.8598L204.03 77.9798C207.82 76.3198 210.62 74.2598 212.45 71.8098C214.08 69.7098 215.09 67.1398 215.47 64.0998H210.72V65.3498C210.77 65.7398 210.8 66.1598 210.83 66.5998C210.85 67.0398 210.89 67.3298 210.94 67.4798C210.84 67.9198 210.33 68.3598 209.39 68.7998C208.45 69.2398 207.53 69.4598 206.62 69.4598C205.76 69.4598 205.33 68.9698 205.33 67.9898C205.43 67.0098 205.52 65.7098 205.62 64.0998C205.67 63.3698 205.69 62.7498 205.69 62.2598V58.5898C205.69 54.1398 205.47 50.4198 205.04 47.4298C208.68 48.4598 210.94 49.2698 211.8 49.8498C212.47 50.2898 212.47 50.7298 211.8 51.1698L210.72 51.8998V61.9598H215.68V53.8098C215.68 50.9698 215.54 48.5198 215.25 46.4698C218.89 47.4998 221.15 48.3098 222.01 48.8898C222.68 49.3298 222.68 49.7998 222.01 50.2898L220.93 51.0198V60.8598C220.88 65.1698 219.83 68.6398 217.76 71.2898C215.17 74.5698 210.78 77.0898 204.59 78.8498L204.61 78.8598ZM242.38 45.2698C241.28 45.7398 240.2 45.4098 239.14 44.2798C239.14 43.1098 238.97 41.7098 238.64 40.0898C234.99 41.5098 231.56 42.8098 228.35 43.9798C227.97 44.8598 227.39 45.3498 226.62 45.4498L223.6 38.6198C225.33 38.6198 226.77 38.5998 227.92 38.5498C228.16 38.0598 228.53 37.3298 229.03 36.3498C229.53 35.3698 229.9 34.6398 230.15 34.1498C232.69 29.0098 234.47 24.3398 235.47 20.1298C239.16 21.8398 241.44 23.0698 242.3 23.7998C242.92 24.3898 242.83 24.7798 242.01 24.9698L240.64 25.3398C237.71 29.5498 234.24 33.9298 230.21 38.4798H231.15C234.17 38.3798 236.47 38.2798 238.06 38.1898C237.29 36.0898 236.5 34.3998 235.69 33.1198L236.48 32.6798C239.45 34.0498 241.63 35.7198 243.03 37.6698C244.13 39.2898 244.59 40.8798 244.4 42.4398C244.16 43.8598 243.49 44.7998 242.39 45.2698H242.38ZM226.55 78.7898C225.49 78.7898 224.97 78.2998 224.97 77.3198C225.16 74.8198 225.33 71.4698 225.47 67.2598V61.4598C225.47 55.2898 225.16 50.2798 224.53 46.4098C228.61 47.4898 231.12 48.3198 232.08 48.9098C232.85 49.3498 232.85 49.8198 232.08 50.3098L230.86 51.1198V62.0598H236.54C236.54 56.1898 236.25 51.3198 235.68 47.4498C239.42 48.4798 241.75 49.2598 242.66 49.7998C243.33 50.2398 243.33 50.6798 242.66 51.1198L241.51 51.8498V56.3998C241.61 61.2498 241.75 65.0898 241.94 67.9298C241.7 68.3698 241.12 68.8098 240.21 69.2498C239.3 69.6898 238.39 69.9098 237.48 69.9098C236.66 69.9098 236.26 69.4198 236.26 68.4398C236.31 68.1498 236.36 67.7298 236.4 67.1898C236.45 66.7498 236.5 66.3798 236.54 66.0898V64.1098H230.86V68.5198C230.86 69.2098 230.88 70.0898 230.93 71.1598C231.03 73.6598 231.12 75.5398 231.22 76.8098C231.03 77.2498 230.44 77.6898 229.46 78.1298C228.48 78.5698 227.51 78.7898 226.55 78.7898Z" fill="white"/>
<path d="M288.5 78.7096C288.26 76.2096 287.49 74.4496 286.2 73.4196C284.66 72.1996 281.93 71.2896 278 70.6996V69.6696C282.17 69.9196 286.32 70.1596 290.45 70.3997C291.7 70.3997 292.32 69.8396 292.32 68.7096V52.6297H275.05C271.64 52.6796 268.05 53.0196 264.26 53.6596L262.32 49.9196C264.96 50.2096 268.15 50.4096 271.89 50.5096H292.32V36.4897H279.08C275.67 36.5396 272.08 36.8797 268.29 37.5196L266.49 33.8496C269.13 34.1396 272.32 34.3396 276.06 34.4396H292.32V21.6596C283.45 22.5396 275.08 22.9796 267.21 22.9796L267.07 21.7296C275.37 20.7496 283.95 19.2196 292.83 17.1396C301.7 15.0596 308.7 12.8896 313.84 10.6396L320.96 17.9096C320.19 18.6896 318.75 18.6396 316.64 17.7596C311.8 18.9296 306.04 19.9396 299.37 20.7696V34.4296H313.04L314.91 31.7096C315.01 31.5596 315.17 31.3196 315.41 30.9796C316.37 29.6096 317.02 28.9196 317.35 28.9196C317.83 28.9196 319.2 29.8596 321.45 31.7496C323.7 33.6296 324.83 34.8496 324.83 35.3797C324.69 36.1096 324.04 36.4796 322.89 36.4796H299.37V50.4996H316.2L318.21 47.7796C318.35 47.5896 318.59 47.2696 318.93 46.8297C319.84 45.6096 320.44 44.9897 320.73 44.9897C321.21 44.9897 322.6 45.9296 324.9 47.8196C327.2 49.7096 328.35 50.9197 328.35 51.4496C328.16 52.2296 327.49 52.6196 326.34 52.6196H299.36V68.9896C299.36 71.9796 298.74 74.1496 297.49 75.5196C295.86 77.2796 292.86 78.3297 288.5 78.6796V78.7096Z" fill="white"/>
<path d="M371.09 52.2098C369.03 52.2098 367.28 51.4798 365.84 50.0098C364.4 48.5398 363.68 46.7598 363.68 44.6498C363.68 42.5398 364.4 40.7598 365.84 39.2898C367.28 37.8198 369.03 37.0898 371.09 37.0898C373.15 37.0898 374.9 37.8198 376.34 39.2898C377.78 40.7598 378.5 42.5498 378.5 44.6498C378.5 46.7498 377.78 48.5398 376.34 50.0098C374.9 51.4798 373.15 52.2098 371.09 52.2098Z" fill="#E9C468"/>
<path d="M436.05 78.5696C434.8 78.5696 434.18 78.0796 434.18 77.0996C434.47 72.9896 434.66 68.8296 434.76 64.6196V57.5696C429.92 61.2896 424.9 64.9396 419.72 68.5096C419.48 69.5896 418.95 70.2496 418.14 70.4896L414.26 61.6096C418.05 60.6796 424.88 58.5296 434.76 55.1496V34.9596H428.64C425.23 35.0096 421.64 35.3496 417.85 35.9896L415.91 32.2496C418.55 32.5396 421.74 32.7396 425.48 32.8396H434.76V27.6296C434.76 21.4596 434.45 16.4496 433.82 12.5796C438.38 13.7096 441.23 14.5596 442.38 15.1496C443.19 15.6396 443.22 16.1296 442.45 16.6196L441.23 17.4296V58.7696C441.33 64.8396 441.52 70.5896 441.81 76.0196C441.52 76.6596 440.8 77.2396 439.65 77.7796C438.45 78.3196 437.25 78.5896 436.05 78.5896V78.5696ZM458.78 76.1396C455.66 76.1396 453.53 75.6396 452.38 74.6296C451.23 73.6296 450.65 71.7296 450.65 68.9396V27.6096C450.65 21.4396 450.34 16.4296 449.71 12.5596C454.22 13.7296 457.05 14.6396 458.2 15.2796C459.01 15.7196 459.06 16.1896 458.34 16.6796L457.12 17.4896V41.7896C461.87 36.9396 466.35 31.2196 470.57 24.6096C474.36 27.1096 476.68 28.8196 477.55 29.7496C478.22 30.4396 478.15 30.7996 477.33 30.8496H475.96C470.73 35.7896 464.45 40.1496 457.11 43.9196V67.1996C457.11 68.0796 457.31 68.6896 457.72 69.0396C458.13 69.3796 458.93 69.5496 460.13 69.5496H465.89C468.05 69.5496 469.8 69.4996 471.14 69.3996C471.81 69.2996 472.36 68.9596 472.79 68.3696C473.37 67.3396 474.3 63.8896 475.6 58.0196H476.32L476.61 68.8096C478.34 69.5396 479.2 70.5496 479.2 71.8196C479.2 73.4396 478.24 74.5596 476.32 75.1996C474.35 75.8396 470.71 76.1496 465.38 76.1496H458.76L458.78 76.1396Z" fill="white"/>
<path d="M527.85 78.0497C527.23 78.0497 526.72 77.8997 526.34 77.6097C525.96 77.3197 525.76 76.9697 525.76 76.5797C526.19 70.2697 526.45 63.8997 526.55 57.4897V36.6397H512.74V50.0797C512.84 56.1497 513.03 61.8997 513.32 67.3297C512.98 67.9697 512.24 68.5497 511.09 69.0897C509.8 69.7297 508.5 70.0397 507.21 70.0397C506.73 70.0397 506.33 69.8897 506.02 69.5997C505.71 69.3097 505.55 68.9597 505.55 68.5697C505.88 64.2097 506.1 59.3897 506.2 54.1097V46.1097C506.2 39.9397 505.89 34.9297 505.26 31.0597L513.25 34.5797H526.56V24.0097H510.23C506.82 24.0597 503.23 24.3997 499.44 25.0397L497.57 21.2997C500.21 21.5897 503.4 21.7897 507.14 21.8897H526.56C526.56 17.0897 526.32 13.1997 525.84 10.2197C530.49 11.2497 533.39 12.0797 534.54 12.7197C535.4 13.1597 535.45 13.6297 534.68 14.1197L533.39 14.9297V21.9097H549.94L551.95 19.0497C552.09 18.8497 552.31 18.5597 552.6 18.1697C553.61 16.8497 554.25 16.1897 554.54 16.1897C555.02 16.1897 556.4 17.1697 558.68 19.1297C560.96 21.0897 562.1 22.3397 562.1 22.8697C561.96 23.6497 561.31 24.0397 560.16 24.0397H533.61L535.7 24.2597C535.46 25.2397 534.69 25.8497 533.4 26.0997V34.6197H546.64L548.01 32.7097C548.11 32.5597 548.27 32.3397 548.51 32.0497C549.18 31.2197 549.66 30.7997 549.95 30.7997C550.43 30.7997 551.7 31.6097 553.76 33.2197C555.82 34.8397 556.85 35.9097 556.85 36.4497C556.27 37.1397 555.31 37.6197 553.97 37.9197V61.4897C553.97 64.1797 553.47 66.0897 552.46 67.2197C551.17 68.6897 548.62 69.5997 544.83 69.9397C544.69 67.6397 544.18 66.0497 543.32 65.1697C542.17 63.9997 540.23 63.2097 537.49 62.8197V61.7197C540.27 61.8697 543.03 62.0397 545.76 62.2297C546.81 62.2297 547.34 61.7397 547.34 60.7597V36.6797H533.38V57.9697C533.48 64.0397 533.67 69.7897 533.96 75.2197C533.67 75.8597 532.9 76.4897 531.66 77.1297C530.32 77.7697 529.05 78.0797 527.85 78.0797V78.0497Z" fill="white"/>
<path d="M593.67 78.5703C593.14 78.5703 592.7 78.4203 592.34 78.1303C591.98 77.8403 591.8 77.4903 591.8 77.1003C592.23 70.7903 592.49 64.4203 592.59 58.0103V47.0703C592.59 40.9003 592.28 35.8903 591.65 32.0203L599.78 35.6203H607.84C607.98 34.3503 608.17 32.1003 608.42 28.8603C608.47 27.9303 608.52 27.2403 608.56 26.8003H593.52C590.11 26.8503 586.52 27.1903 582.73 27.8303L580.86 24.1603C583.5 24.4503 586.69 24.6503 590.43 24.7503L618.34 24.6803V24.6103L618.41 24.4603C620.86 19.0803 622.27 14.2803 622.65 10.0703C627.45 11.3903 630.44 12.3703 631.64 13.0103C632.55 13.5003 632.6 13.8903 631.78 14.1803L630.49 14.6903C627.9 17.9703 624.57 21.3203 620.49 24.7503H633.3L635.31 21.9603C635.45 21.7603 635.69 21.4503 636.03 21.0103C636.94 19.7903 637.54 19.1703 637.83 19.1703C638.31 19.1703 639.7 20.1103 642 22.0003C644.3 23.8903 645.45 25.1003 645.45 25.6303C645.31 26.4103 644.68 26.8003 643.58 26.8003H617.32C614.59 30.7203 612.26 33.6503 610.34 35.6103H626.81L628.32 33.6303C628.46 33.4803 628.68 33.2403 628.97 32.9003C629.64 32.0703 630.12 31.6503 630.41 31.6503C630.89 31.6503 632.14 32.4703 634.15 34.1103C636.16 35.7503 637.17 36.8403 637.17 37.3803C636.64 38.1103 635.68 38.6303 634.29 38.9203V58.5203C634.39 64.5903 634.58 70.3403 634.87 75.7703C634.53 76.2603 633.72 76.7703 632.42 77.3103C630.98 77.9003 629.71 78.1903 628.61 78.1903C627.7 78.1903 627.24 77.7003 627.24 76.7203C627.29 76.4703 627.34 76.1603 627.38 75.7703C627.43 75.4803 627.48 75.2103 627.52 74.9603V73.2703H599.25V76.1303C599.25 76.5703 598.67 77.0803 597.52 77.6703C596.27 78.2603 594.98 78.5503 593.63 78.5503L593.67 78.5703ZM601.51 23.4303C600.84 19.5103 598.82 15.5003 595.47 11.3903L596.12 10.8803C600.1 11.8603 603.1 13.3303 605.11 15.2903C606.84 16.9503 607.67 18.7203 607.63 20.5803C607.63 22.2403 606.98 23.4203 605.69 24.1003C604.4 24.8303 603 24.6103 601.52 23.4403L601.51 23.4303ZM599.28 47.1403H627.55V37.6703H599.28V47.1403ZM599.28 58.9603H627.55V49.2703H599.28V58.9603ZM599.28 71.1503H627.55V61.0903H599.28V71.1503Z" fill="white"/>
<path d="M678.49 78.7902C678.59 76.7802 678.18 75.3902 677.27 74.6002C676.36 73.6702 674.44 72.9402 671.51 72.4002V71.2302C674.96 71.6202 677.72 71.8202 679.78 71.8202C680.83 71.8202 681.58 71.6202 682.01 71.2302C683.3 70.0602 684.24 65.5802 684.82 57.7902H676.47C676.37 58.3302 676.23 59.0602 676.04 59.9902C675.99 60.1902 675.97 60.3302 675.97 60.4302C674.63 61.2602 672.66 61.3602 670.07 60.7202C670.12 60.5202 670.19 60.2102 670.29 59.7702C670.48 58.6002 670.65 57.7102 670.79 57.1302C671.89 51.0602 672.37 46.0702 672.23 42.1502L679.35 45.7502H685.03V37.1602H677.04C673.39 39.3102 669.39 41.1202 665.03 42.5902L664.53 41.5602C669.66 38.9202 674.24 35.4702 678.27 31.2102C682.2 27.0002 685.2 22.4702 687.26 17.6302H681.86C678.74 17.6802 675.43 18.0202 671.93 18.6602L669.99 14.9202C672.63 15.2102 675.82 15.4102 679.56 15.5102H687.33L689.13 13.6002C689.23 13.5002 689.39 13.3302 689.63 13.0902C690.49 12.1602 691.09 11.6902 691.43 11.6902C691.91 11.6902 693.06 12.5302 694.88 14.2202C696.7 15.9102 697.61 17.0202 697.61 17.5602C697.13 18.1002 696.19 18.4402 694.8 18.5902C691.49 25.0502 686.62 30.5602 680.2 35.1102H685.88L687.03 33.3502C687.13 33.2002 687.27 32.9802 687.46 32.6902C687.99 31.9102 688.4 31.5202 688.68 31.5202C689.11 31.5202 690.02 32.3202 691.41 33.9102C692.8 35.5002 693.5 36.5702 693.5 37.1002C692.88 37.7402 692.01 38.1502 690.91 38.3502V41.8702C690.91 42.4102 690.93 43.1202 690.98 44.0002C691.08 45.9602 691.17 47.4302 691.27 48.4102C691.03 48.7502 690.41 49.1002 689.4 49.4402C688.25 49.8802 687.17 50.1002 686.16 50.1002H685.01V47.8202H677.89C677.6 49.9302 677.22 52.5702 676.74 55.7502H684.22L685.66 54.0602C685.8 53.9102 685.99 53.6902 686.24 53.4002C686.86 52.7202 687.32 52.3702 687.61 52.3702C688.09 52.3702 689.17 53.1002 690.85 54.5702C692.53 56.0402 693.37 57.0402 693.37 57.5802C692.84 58.1702 691.95 58.5302 690.71 58.6802C690.09 68.7602 688.43 74.8302 685.75 76.8902C683.98 78.1601 681.55 78.8002 678.48 78.8002L678.49 78.7902ZM675.69 29.2302C675.4 27.8102 674.71 26.3202 673.6 24.7502C672.54 23.3302 671.37 22.1602 670.07 21.2302L670.65 20.6402C674.1 20.7402 676.77 21.4502 678.64 22.7702C680.13 23.8002 680.89 25.0702 680.94 26.5902C680.99 27.9102 680.48 28.9202 679.43 29.6002C678.28 30.2902 677.03 30.1602 675.69 29.2302ZM723.02 78.7102C716.21 77.0002 710.91 74.5702 707.12 71.4402C701.89 74.8702 695.47 77.2602 687.84 78.6402L687.48 77.6102C694.1 75.4102 699.59 72.3002 703.95 68.2902C701.46 65.5002 699.42 61.7602 697.83 57.0602H696.61C696.08 57.1102 695.51 57.4502 694.88 58.0902L692.94 54.4202C695.58 54.7102 698.77 54.9102 702.51 55.0102H711.72L715.39 51.4102H713.38C711.27 51.4102 709.9 51.0402 709.28 50.3102C708.7 49.6702 708.42 48.3802 708.42 46.4202V37.1702H702.66V39.3702C702.66 46.3202 699.18 51.2402 692.23 54.1302L691.65 53.1802C693.81 51.3202 695.29 49.0702 696.11 46.4202C696.64 44.6102 696.9 42.2802 696.9 39.4402V35.6202C696.9 34.1002 696.83 32.7302 696.68 31.5102L703.59 35.1102H707.76L710.71 31.8802C705.19 26.5502 701.21 19.6902 698.77 11.3202L699.71 10.6602C701.2 14.2802 703.38 17.6402 706.26 20.7202C709.43 17.0502 711.51 13.7402 712.52 10.8102C715.88 13.0602 717.94 14.6302 718.71 15.5102C719.29 16.1502 719.19 16.5102 718.42 16.6102L717.13 16.6802C714.73 18.4902 711.57 20.3002 707.63 22.1102C709.79 24.1702 711.97 25.9002 714.18 27.3202C716.82 24.4302 718.78 21.1502 720.08 17.4802C723.44 19.8302 725.52 21.4402 726.34 22.3302C726.96 22.9702 726.89 23.3302 726.12 23.4302L724.9 23.5002C722.55 25.0702 719.55 26.6802 715.91 28.3502C720.23 30.8502 724.88 32.8302 729.87 34.3002L729.73 35.1102C727 35.7002 725.13 37.6802 724.12 41.0602C720.76 39.4402 717.76 37.6602 715.13 35.7002L716.42 36.8002C715.94 37.2902 715.17 37.6102 714.12 37.7502V45.3102C714.12 45.6502 714.18 45.8702 714.3 45.9702C714.42 46.0702 714.72 46.1202 715.2 46.1202H718.22C718.84 46.1702 719.25 46.1702 719.44 46.1202C719.92 46.1202 720.25 46.0002 720.45 45.7502C720.93 45.0702 721.5 43.6502 722.18 41.4902H722.97L723.26 45.7502C723.98 46.0902 724.46 46.4202 724.7 46.7402C724.94 47.0602 725.06 47.4902 725.06 48.0202C725.06 49.2402 724.46 50.1102 723.26 50.6302C722.06 51.1402 719.93 51.4002 716.86 51.4002H715.85C718.68 53.8502 720.38 55.5102 720.96 56.3902C721.39 57.0802 721.22 57.5202 720.46 57.7102L719.09 58.0002C717.27 61.7202 714.87 64.9502 711.9 67.6902C716.31 69.4502 721.71 70.6502 728.09 71.2902V72.1702C725.5 73.0002 723.82 75.1802 723.05 78.7001L723.02 78.7102ZM706.91 65.1302C708.88 62.7802 710.48 60.0902 711.73 57.0502H699.43C701.25 60.3302 703.75 63.0202 706.91 65.1302Z" fill="white"/>
<path d="M9.26001 119.61H727.37" stroke="#E9C468" stroke-width="0.68" stroke-miterlimit="10"/>
<path d="M9.26001 203.14H727.37" stroke="#E9C468" stroke-width="0.68" stroke-miterlimit="10"/>
</g>
<defs>
<filter id="filter0_d_6_1504" x="0.44001" y="0.599922" width="738.25" height="211.7" filterUnits="userSpaceOnUse" color-interpolation-filters="sRGB">
<feFlood flood-opacity="0" result="BackgroundImageFix"/>
<feColorMatrix in="SourceAlpha" type="matrix" values="0 0 0 0 0 0 0 0 0 0 0 0 0 0 0 0 0 0 127 0" result="hardAlpha"/>
<feOffset/>
<feGaussianBlur stdDeviation="4.41"/>
<feColorMatrix type="matrix" values="0 0 0 0 0 0 0 0 0 0 0 0 0 0 0 0 0 0 0.4 0"/>
<feBlend mode="normal" in2="BackgroundImageFix" result="effect1_dropShadow_6_1504"/>
<feBlend mode="normal" in="SourceGraphic" in2="effect1_dropShadow_6_1504" result="shape"/>
</filter>
<filter id="filter1_d_6_1504" x="14.25" y="131.5" width="706.42" height="62.2998" filterUnits="userSpaceOnUse" color-interpolation-filters="sRGB">
<feFlood flood-opacity="0" result="BackgroundImageFix"/>
<feColorMatrix in="SourceAlpha" type="matrix" values="0 0 0 0 0 0 0 0 0 0 0 0 0 0 0 0 0 0 127 0" result="hardAlpha"/>
<feOffset/>
<feGaussianBlur stdDeviation="4.75"/>
<feColorMatrix type="matrix" values="0 0 0 0 0 0 0 0 0 0 0 0 0 0 0 0 0 0 0.7 0"/>
<feBlend mode="normal" in2="BackgroundImageFix" result="effect1_dropShadow_6_1504"/>
<feBlend mode="normal" in="SourceGraphic" in2="effect1_dropShadow_6_1504" result="shape"/>
</filter>
</defs>
</svg>
