<svg width="270" height="65" viewBox="0 0 270 65" fill="none" xmlns="http://www.w3.org/2000/svg">
<g clip-path="url(#clip0_190_224)">
<path d="M24.0931 25.1145H20.6279C22.955 26.0288 25.9934 27.4364 27.6498 28.5254L24.5098 31.0528C22.9448 29.9227 19.6219 28.2172 17.1526 27.1795L19.8048 25.1042H16.614V27.724C16.614 30.8987 15.1914 31.3199 9.67349 31.3199C9.49057 30.3747 9.07394 29.183 8.61666 28.2686C6.89931 29.2754 4.81613 30.2823 2.94635 30.9809C2.22486 30.1898 0.863176 28.7823 -0.0107422 28.0836C2.36713 27.4158 4.96856 26.224 6.59445 25.0939H4.75516V17.7788H24.083V25.0939L24.0931 25.1145ZM16.5226 13.7103H28.1884V17.0905H0.507511V13.7103H12.031V12.4569H4.19626V3.26172H24.4285V12.4672H16.2584V12.498L17.4676 12.5288C17.4371 12.8987 17.1628 13.1042 16.5327 13.1967V13.7103H16.5226ZM11.401 26.8199C11.2791 26.974 11.0657 27.0973 10.8015 27.0973C10.71 27.0973 10.6185 27.0973 10.5271 27.0665C10.1003 27.3747 9.62268 27.6727 9.14507 27.9809C10.1409 28.0117 11.3197 28.0117 11.6449 28.0117C12.0615 27.9809 12.2139 27.8884 12.2139 27.5597V25.1247H7.60047L11.401 26.8302V26.8199ZM8.38293 5.9124V6.61103H20.0182V5.9124H8.38293ZM8.38293 9.08706V9.81651H20.0182V9.08706H8.38293ZM19.6626 22.1658V20.7686H8.96216V22.1658H19.6626Z" fill="white"/>
<path d="M40.6978 27.3441H44.8235C46.3275 25.916 46.7238 24.0461 46.9067 22.1968L51.0121 22.6489C50.9511 22.8954 50.7072 23.0804 50.2906 23.142C49.8333 25.8543 49.1423 29.142 45.7686 31.3098C45.5857 30.9708 45.3418 30.5804 45.0776 30.1489V30.2413H35.6067V31.4023H32.1415V23.4811C31.8977 23.7585 31.6944 24.0256 31.4505 24.2722C31.1152 23.5735 30.2413 22.1043 29.7637 21.4365C31.0949 20.0085 32.3549 17.6249 33.1374 15.19H30.9628V9.06667H37.4765V15.19H35.4848L36.9583 15.6831C36.8363 15.8989 36.5924 16.053 36.2063 16.0222L35.81 17.0598H37.6188C37.9236 16.2996 38.1675 15.4776 38.3098 14.7996V9.06667H44.915V15.19H39.7934L42.1408 15.8269C42.0493 16.0735 41.8054 16.1968 41.3583 16.1968L40.9417 17.0496H45.0471V19.916H40.708V20.7071H44.3866V23.2037H40.708V24.0256H44.3866V26.5222H40.708V27.3441H40.6978ZM32.7716 8.3475V7.18654H30.1498V4.28928H32.7716V2.42969L37.2326 2.67626C37.2021 2.98448 36.9583 3.15914 36.4197 3.25161V4.28928H39.1634V2.42969L43.6244 2.67626C43.5939 2.98448 43.35 3.15914 42.8115 3.25161V4.28928H45.2198V7.18654H42.8115V8.3475H39.1634V7.18654H36.4197V8.3475H32.7716ZM33.676 11.553V12.6831H34.6109V11.553H33.676ZM37.1717 20.6968V19.9057H35.6067V20.6968H37.1717ZM37.1717 24.0153V23.1934H35.6067V24.0153H37.1717ZM35.6067 26.5119V27.3338H37.1717V26.5119H35.6067ZM41.0331 11.5427V12.6728H42.0595V11.5427H41.0331ZM54.9955 26.5735C54.9955 27.4263 55.026 27.5187 55.2394 27.5187H55.5138C55.8186 27.5187 55.9304 27.118 56.0015 24.2002C56.6621 24.8064 58.2371 25.392 59.2025 25.6591C58.8977 29.8304 57.9933 30.9605 55.9406 30.9605H54.5585C51.9063 30.9605 51.3677 29.8612 51.3677 26.6043V21.4571H46.0023V3.44681H57.6173V21.4674H55.026V26.5838L54.9955 26.5735ZM49.691 7.18654V8.47078H53.705V7.18654H49.691ZM49.691 11.7893V13.0735H53.705V11.7893H49.691ZM49.691 16.392V17.6763H53.705V16.392H49.691Z" fill="white"/>
<path d="M75.3397 28.5049H60.7168V25.1556L63.369 22.2583C67.322 18.0768 69.6999 15.3645 69.6999 12.5597C69.6999 10.7926 68.643 9.32341 66.4481 9.32341C64.9035 9.32341 63.3995 10.1145 62.3427 10.8748L60.9607 6.97067C62.3732 5.933 64.8832 4.98779 67.5049 4.98779C72.6671 4.98779 74.984 8.183 74.984 12.0563C74.984 15.9296 72.3318 19.2789 69.5271 22.0837L67.5964 23.9433V24.0049H75.3397V28.4844V28.5049Z" fill="white"/>
<path d="M78.0732 17.2549H86.1824V20.9124H78.0732V17.2549Z" fill="white"/>
<path d="M98.2137 16.0631C100.714 16.6693 102.736 18.7446 102.736 21.796C102.736 25.7001 99.5449 28.8337 94.1083 28.8337C91.6085 28.8337 89.4034 28.2275 88.2246 27.4878L89.3424 23.4296C90.2163 23.9741 92.0251 24.6213 93.651 24.6213C95.9984 24.6213 97.3296 23.2549 97.3296 21.5083C97.3296 19.1864 95.2769 18.159 93.082 18.159H91.578V14.409H92.9397C94.6266 14.409 96.7097 13.5871 96.7097 11.635C96.7097 10.2378 95.7139 9.23092 93.8136 9.23092C92.3402 9.23092 90.8565 9.83709 89.9826 10.3611L88.9563 6.51859C90.1554 5.75832 92.6044 4.99805 95.1042 4.99805C99.6262 4.99805 102.045 7.61791 102.045 10.7309C102.045 13.1042 100.632 15.0254 98.2137 16.0015V16.0631Z" fill="white"/>
<path d="M133.547 21.0049H121.698C121.607 21.4364 121.546 21.8577 121.454 22.2892H127.338L128.273 22.1967L130.742 22.5666C130.712 22.9056 130.651 23.296 130.559 23.6659C130.011 31.2275 129.32 31.5563 122.958 31.4433C122.897 30.3132 122.45 28.7926 121.84 27.8166C122.958 27.909 124.015 27.9399 124.523 27.9399C125.58 27.9399 125.824 27.5392 126.068 25.618H120.397C119.28 27.9912 117.166 29.9741 112.796 31.3817C112.461 30.4981 111.648 29.2138 110.866 28.3303C110.358 29.368 109.717 30.344 108.965 31.1967C108.183 30.4673 106.283 29.2138 105.195 28.7618C108.63 25.0118 108.904 19.4638 108.904 15.4364V8.55289H130.823V16.2686H124.279C124.157 16.4844 123.924 16.6077 123.466 16.7001V17.707H133.537V21.0255L133.547 21.0049ZM133.394 3.72412V7.65905H106.222V3.72412H133.394ZM112.918 21.0049C112.613 23.2652 112.075 25.6077 111.17 27.683C115.875 26.2858 116.932 24.0255 117.349 21.0049H112.918ZM119.127 17.6864V16.2584H113.243C113.243 16.7207 113.213 17.2036 113.183 17.6864H119.127ZM126.515 11.7378H113.254V13.0221H126.515V11.7378Z" fill="white"/>
<path d="M151.371 14.1625C152.702 12.683 154.714 11.7583 157.173 11.7583C161.929 11.7583 165.73 15.4262 165.73 21.8885C165.73 27.9193 161.766 33.4056 155.171 33.4056C147.743 33.4056 143.861 27.4981 143.861 19.7309C143.861 8.75834 150.121 1.37135 159.592 0.662451C160.76 0.487793 161.258 0.487793 162.64 0.487793V6.13848C161.848 6.13848 161.014 6.22067 159.968 6.34396C154.582 6.98094 152.042 10.4844 151.208 14.1522H151.371V14.1625ZM158.423 22.094C158.423 19.5666 157.295 16.8234 154.755 16.8234C153.332 16.8234 152.123 17.8816 151.503 19.2686C151.34 19.6899 151.168 20.5323 151.168 21.7138C151.249 25.0837 152.55 28.1248 155.09 28.1248C157.631 28.1248 158.423 25.0837 158.423 22.094Z" fill="#F6E761"/>
<path d="M185.555 0.868164V6.99145H175.119L174.53 12.0565C175.028 12.0154 175.495 11.9743 175.993 11.9743C180.921 11.9743 186.632 14.7175 186.632 22.0634C186.632 28.1353 181.999 33.4161 174.072 33.4161C170.902 33.4161 167.975 32.6558 166.431 31.8545L167.721 26.2449C169.052 26.8819 171.227 27.5908 173.564 27.5908C176.532 27.5908 179.245 25.8134 179.245 22.6079C179.245 19.0223 176.41 17.2449 171.359 17.2449C170.069 17.2449 169.063 17.286 168.067 17.4504L169.906 0.868164H185.555Z" fill="#F6E761"/>
<path d="M193.411 16.1866C190.616 14.5427 189.112 11.8818 189.112 9.26192C189.112 3.81672 193.624 0.405762 199.335 0.405762C205.676 0.405762 208.938 4.33042 208.938 8.55302C208.938 10.9982 207.607 13.8236 204.518 15.601V15.6832C207.394 17.029 209.944 19.7311 209.944 23.7379C209.944 29.7277 205.351 33.3955 198.888 33.3955C191.917 33.3955 188.208 29.3064 188.208 24.488C188.208 20.6455 190.423 17.8612 193.421 16.2585V16.1763L193.411 16.1866ZM202.638 24.2927C202.638 21.5496 200.758 19.5667 198.543 18.8064C196.663 19.6078 195.494 21.5907 195.494 23.8715C195.494 26.1523 196.825 28.4743 199.081 28.4743C201.459 28.4743 202.628 26.4092 202.628 24.2927H202.638ZM196.002 8.93316C196.002 10.9571 197.465 12.6421 199.589 13.4948C200.971 12.9914 202.181 11.0496 202.181 9.2311C202.181 7.28932 201.388 5.26535 199.132 5.26535C196.581 5.26535 196.002 7.41261 196.002 8.93316Z" fill="#F6E761"/>
<path d="M234.098 4.81337H239.972V8.32707H234.098V9.20036H229.993V8.32707H223.825V9.20036H219.719V8.32707H214.049V4.81337H219.719V3.11816L224.668 3.38529C224.637 3.70378 224.404 3.90926 223.825 4.00173V4.82364H229.993V3.12844L234.972 3.39556C234.942 3.71405 234.708 3.91953 234.108 4.012V4.83392L234.098 4.81337ZM238.752 19.762V27.2826C238.752 30.036 237.97 30.9401 234.007 30.9401C233.895 30.2415 233.661 29.3887 233.366 28.6284L230.765 29.2449C230.765 28.8956 230.704 28.5154 230.623 28.0736C227.178 28.3613 223.764 28.6593 221.426 28.7723C221.345 29.0599 221.111 29.2141 220.878 29.2346L219.638 25.1661C221.06 25.1661 222.879 25.1353 224.902 25.0839V23.2141H219.465V30.9606H215.471V19.7517H224.902V19.0531H217.788V9.51885H236.506V19.0531H228.895V19.7517H238.762L238.752 19.762ZM221.711 12.2106V13.0325H224.892V12.2106H221.711ZM221.711 16.3613H224.892V15.5394H221.711V16.3613ZM232.391 13.0223V12.2004H228.885V13.0223H232.391ZM232.391 16.3613V15.5394H228.885V16.3613H232.391ZM228.885 24.9915L229.84 24.9606C229.729 24.5805 229.576 24.1695 229.434 23.8202L232.127 23.2038H228.885V24.9915ZM232.533 23.2038C233.173 24.5805 233.692 26.2141 233.956 27.5599C234.596 27.5599 234.677 27.5599 234.677 27.2106V23.2038H232.533Z" fill="white"/>
<path d="M251.678 21.6319V25.5566C253.497 26.1114 255.357 26.1114 260.356 26.1114C263.568 26.1114 267.795 26.0806 269.99 25.9675C269.35 26.9333 268.659 28.8956 268.395 30.1799H257.115C252.054 30.1799 248.609 29.5326 246.262 26.5223C245.978 28.3614 245.602 30.0052 245.043 31.3203C244.291 30.7963 242.726 30.0669 241.771 29.6867C242.959 26.8511 243.213 21.6422 243.274 16.7004L247.675 17.286C247.614 17.5737 247.39 17.7586 246.953 17.7792L246.862 20.3477C247.126 21.2004 247.441 21.9299 247.817 22.5669V15.3751H242.38V11.6353H247.735V9.46754H243.224V5.81001H247.735V3.0874L252.512 3.35453C252.481 3.67302 252.247 3.84768 251.668 3.94014V5.81001H255.194V9.46754H251.668V11.6353H255.946V15.3751H251.668V17.9744H255.459V21.6319H251.668H251.678ZM263.832 11.7997V7.8237H256.17V4.08398H267.856V16.3717H263.832V15.4675H260.936V19.9984C260.936 21.0771 261.078 21.2004 262.094 21.2004H264.635C265.559 21.2004 265.732 20.7073 265.854 17.5737C266.697 18.221 268.425 18.8888 269.502 19.1559C269.065 23.7175 268.029 24.9812 265.021 24.9812H261.495C257.968 24.9812 256.891 23.8717 256.891 20.0703V11.8203H263.832V11.7997Z" fill="white"/>
</g>
<g clip-path="url(#clip1_190_224)">
<path d="M149.701 63.279H136.521V60.3165L138.911 57.7513C142.468 54.0589 144.619 51.6546 144.619 49.1752C144.619 47.6081 143.668 46.3201 141.689 46.3201C140.306 46.3201 138.943 47.0178 137.992 47.694L136.738 44.2378C138.013 43.3148 140.273 42.4883 142.63 42.4883C147.279 42.4883 149.365 45.3219 149.365 48.7459C149.365 52.1699 146.976 55.143 144.446 57.6225L142.706 59.2647V59.3183H149.69V63.279H149.701Z" fill="white"/>
<path d="M156.955 51.279C157.82 50.3345 159.128 49.7441 160.728 49.7441C163.831 49.7441 166.296 52.0948 166.296 56.2164C166.296 60.0697 163.712 63.5796 159.42 63.5796C154.587 63.5796 152.058 59.8014 152.058 54.8425C152.058 47.8336 156.134 43.1109 162.296 42.6493C163.053 42.542 163.377 42.542 164.275 42.542V46.1592C163.756 46.1592 163.215 46.2128 162.534 46.2987C159.031 46.7066 157.366 48.9391 156.825 51.2898H156.934L156.955 51.279ZM161.55 56.3452C161.55 54.7245 160.815 52.9749 159.161 52.9749C158.242 52.9749 157.453 53.6511 157.042 54.542C156.934 54.8103 156.825 55.347 156.825 56.1091C156.88 58.2665 157.723 60.2093 159.377 60.2093C161.031 60.2093 161.55 58.2665 161.55 56.3559V56.3452Z" fill="white"/>
<path d="M172.74 51.279C173.605 50.3345 174.913 49.7441 176.514 49.7441C179.616 49.7441 182.081 52.0948 182.081 56.2164C182.081 60.0697 179.498 63.5796 175.205 63.5796C170.373 63.5796 167.843 59.8014 167.843 54.8425C167.843 47.8336 171.919 43.1109 178.081 42.6493C178.838 42.542 179.162 42.542 180.06 42.542V46.1592C179.541 46.1592 179 46.2128 178.319 46.2987C174.816 46.7066 173.151 48.9391 172.611 51.2898H172.719L172.74 51.279ZM177.335 56.3452C177.335 54.7245 176.6 52.9749 174.946 52.9749C174.027 52.9749 173.238 53.6511 172.827 54.542C172.719 54.8103 172.611 55.347 172.611 56.1091C172.665 58.2665 173.508 60.2093 175.162 60.2093C176.816 60.2093 177.335 58.2665 177.335 56.3559V56.3452Z" fill="white"/>
<path d="M192.741 52.2772C195.001 52.8139 196.817 54.6493 196.817 57.3541C196.817 60.8103 193.941 63.5795 189.044 63.5795C186.784 63.5795 184.806 63.0428 183.746 62.3881L184.752 58.8031C185.541 59.2861 187.173 59.855 188.633 59.855C190.752 59.855 191.952 58.6421 191.952 57.1072C191.952 55.0571 190.103 54.1448 188.125 54.1448H186.763V50.8282H187.984C189.509 50.8282 191.379 50.0983 191.379 48.3702C191.379 47.1251 190.482 46.2342 188.773 46.2342C187.444 46.2342 186.114 46.7709 185.325 47.2325L184.406 43.83C185.487 43.1537 187.692 42.4775 189.952 42.4775C194.028 42.4775 196.201 44.796 196.201 47.5437C196.201 49.6475 194.925 51.3434 192.752 52.2128V52.2664L192.741 52.2772Z" fill="white"/>
<path d="M199.541 53.3291H206.85V56.5706H199.541V53.3291Z" fill="white"/>
<path d="M208.645 53.0822C208.645 47.3076 210.796 42.4775 215.737 42.4775C221.067 42.4775 222.667 47.8443 222.667 52.9427C222.667 59.6296 220.061 63.5688 215.65 63.5688C210.374 63.5688 208.645 58.2235 208.645 53.0715V53.0822ZM217.878 53.0285C217.878 48.6278 217.196 46.2557 215.704 46.2557C214.288 46.2557 213.423 48.3595 213.423 53.0285C213.423 57.6976 214.212 59.8013 215.704 59.8013C216.84 59.8013 217.878 58.6099 217.878 53.0285Z" fill="white"/>
<path d="M233.586 54.7029C232.83 55.4865 231.629 56.0554 230.051 56.0554C226.981 56.0554 224.375 53.7369 224.375 49.7978C224.375 45.8586 227.089 42.4883 231.413 42.4883C236.116 42.4883 238.419 46.3201 238.419 51.1502C238.419 58.8353 234.235 63.558 227.251 63.558C226.84 63.558 226.462 63.558 226.137 63.5258V59.855C226.764 59.9087 227.089 59.8765 228.116 59.7691C230.613 59.5223 232.873 58.1484 233.662 54.7244L233.576 54.6922L233.586 54.7029ZM229.1 49.3899C229.1 51.4722 229.997 52.8997 231.381 52.8997C232.365 52.8997 233.067 52.2557 233.359 51.7083C233.521 51.3326 233.554 50.7638 233.554 49.8192C233.554 47.6833 232.819 45.8049 231.273 45.8049C229.91 45.8049 229.1 47.3935 229.1 49.3899Z" fill="white"/>
<path d="M249.372 54.7029C248.615 55.4865 247.415 56.0554 245.836 56.0554C242.766 56.0554 240.16 53.7369 240.16 49.7978C240.16 45.8586 242.874 42.4883 247.198 42.4883C251.901 42.4883 254.204 46.3201 254.204 51.1502C254.204 58.8353 250.02 63.558 243.036 63.558C242.625 63.558 242.247 63.558 241.922 63.5258V59.855C242.549 59.9087 242.874 59.8765 243.901 59.7691C246.398 59.5223 248.658 58.1484 249.447 54.7244L249.361 54.6922L249.372 54.7029ZM244.885 49.3899C244.885 51.4722 245.782 52.8997 247.166 52.8997C248.15 52.8997 248.853 52.2557 249.144 51.7083C249.307 51.3326 249.339 50.7638 249.339 49.8192C249.339 47.6833 248.604 45.8049 247.058 45.8049C245.696 45.8049 244.885 47.3935 244.885 49.3899Z" fill="white"/>
<path d="M265.167 54.7029C264.411 55.4865 263.211 56.0554 261.632 56.0554C258.562 56.0554 255.956 53.7369 255.956 49.7978C255.956 45.8586 258.67 42.4883 262.994 42.4883C267.697 42.4883 270 46.3201 270 51.1502C270 58.8353 265.816 63.558 258.832 63.558C258.421 63.558 258.043 63.558 257.718 63.5258V59.855C258.345 59.9087 258.67 59.8765 259.697 59.7691C262.194 59.5223 264.454 58.1484 265.243 54.7244L265.157 54.6922L265.167 54.7029ZM260.681 49.3899C260.681 51.4722 261.578 52.8997 262.962 52.8997C263.946 52.8997 264.648 52.2557 264.94 51.7083C265.103 51.3326 265.135 50.7638 265.135 49.8192C265.135 47.6833 264.4 45.8049 262.854 45.8049C261.492 45.8049 260.681 47.3935 260.681 49.3899Z" fill="white"/>
<path d="M22.3413 49.2713C21.8872 48.8527 21.4115 48.4341 20.9682 48.0691L22.6981 46.7382C24.2225 47.9081 26.1361 49.5933 26.9686 50.8813L25.0658 52.4162C24.8712 52.0727 24.5793 51.6756 24.2225 51.2677C20.2114 51.4609 16.049 51.6326 13.3245 51.7185C13.2813 51.8902 13.1299 51.9654 12.9786 51.9761L12.2109 49.5181L14.8706 49.4752C15.7895 48.1121 16.7518 46.3196 17.3139 44.8169L20.0601 45.8151C19.9844 45.9654 19.7898 46.0405 19.5303 46.0405C19.0113 47.1031 18.2654 48.3267 17.5194 49.4108L22.3629 49.2713H22.3413ZM14.4597 59.3715V52.706H24.6766V59.3178H22.3413V58.9206H16.6869V59.3715H14.4597ZM22.3413 54.8097H16.6869V56.7847H22.3413V54.8097Z" fill="white"/>
<path d="M28.6767 49.1211C29.4443 49.4646 30.4606 50.0442 30.9687 50.5057L29.6822 52.1909C29.2389 51.7401 28.2334 51.0746 27.4658 50.656L28.6767 49.1211ZM29.001 45.1819C29.7687 45.5576 30.7741 46.1801 31.2606 46.6631L29.9308 48.3161C29.4984 47.8116 28.5145 47.1139 27.7469 46.6631L29.001 45.1819ZM27.855 58.1157C28.4172 56.9136 29.1848 55.0245 29.7795 53.1998L31.5309 54.3268C31.0444 55.9476 30.4606 57.5576 29.9741 58.7383C30.0822 58.8456 30.1471 58.9637 30.1471 59.0817C30.1471 59.1569 30.1146 59.232 30.0822 59.3071L27.855 58.105V58.1157ZM40.6342 50.3984L41.4883 50.13C41.7802 50.7311 42.0721 51.5254 42.191 52.0406L41.0775 52.4163C41.0018 52.0191 40.8288 51.4503 40.6342 50.9351V52.749H39.2611V51.2141C39.0881 51.7401 38.8611 52.3089 38.5692 52.6846C38.407 52.5343 38.1151 52.3197 37.8664 52.1587V52.6631H34.9041V51.783L33.9311 52.0513C33.8878 51.7079 33.7797 51.1819 33.6608 50.7311V52.749H32.3202V51.3429C32.1364 51.8152 31.9093 52.2875 31.639 52.6309C31.412 52.4163 30.9795 52.1157 30.7093 51.9547C31.0336 51.5147 31.2715 50.8062 31.412 50.1408L32.331 50.3984V49.8939L31.4769 49.9368C31.4444 50.0549 31.3363 50.1193 31.2282 50.13L30.8282 48.6596H31.7255C31.8445 48.5093 31.985 48.359 32.1256 48.2088C31.8012 47.876 31.3904 47.5111 31.012 47.2427L31.6823 46.1801L31.8445 46.2875C32.1039 45.8474 32.3526 45.3322 32.504 44.935L33.8662 45.6971C33.8013 45.783 33.6716 45.8367 33.4986 45.8152C33.3148 46.1372 33.0445 46.5773 32.7526 46.9637L32.9472 47.1461C33.1743 46.8241 33.3905 46.5129 33.5635 46.2338L34.5149 46.8241V46.4592H38.1584V46.7919L38.5584 46.1694L38.7206 46.2767C38.9908 45.8367 39.2503 45.3215 39.4233 44.9243L40.7855 45.6864C40.7207 45.7723 40.5909 45.8259 40.418 45.8045C40.2233 46.1265 39.9314 46.5665 39.6395 46.9529L39.8558 47.1461C40.1152 46.8134 40.3639 46.4807 40.5477 46.1801L41.8775 47.0173C41.8018 47.1247 41.6505 47.1354 41.4991 47.1247C41.1315 47.5647 40.6234 48.1444 40.1044 48.6596H40.7639C40.7207 48.5093 40.6558 48.359 40.5909 48.2195L41.618 47.8116C41.8883 48.3912 42.1478 49.1748 42.2235 49.6792L41.1423 50.13C41.1315 50.0227 41.1099 49.9046 41.0775 49.7758L40.645 49.808V50.3984H40.6342ZM39.8233 56.1408L40.245 56.0764L41.4775 56.4091C41.445 56.5594 41.4018 56.7096 41.3261 56.8277C40.9261 59.2105 40.3963 59.3608 38.0935 59.3608C37.7151 59.3608 37.2718 59.3608 36.8069 59.3501C36.7961 58.8671 36.5583 58.2123 36.2772 57.7723C36.8934 57.8367 37.5421 57.8474 37.9746 57.8474C38.7854 57.8474 38.9043 57.8474 39.0881 57.4503H33.7797L33.6716 57.8259L31.6823 57.5791C31.9526 56.7418 32.2445 55.5612 32.4283 54.5737H38.4178V54.2732H31.9418V53.0495H40.4612V55.808H34.1906L34.1149 56.13H39.8233V56.1408ZM37.8664 51.5791C38.0502 51.1497 38.1908 50.6238 38.2773 50.1193L39.2503 50.3876V49.8724L38.4395 49.9154C38.407 50.0334 38.2989 50.0978 38.1908 50.1086L37.8448 48.7884H34.8933V47.8331H37.8556V48.6381H38.5692C38.7097 48.4986 38.8395 48.3483 38.98 48.1873C38.7206 47.9297 38.4286 47.6613 38.1259 47.4252V47.5325H34.4825V47.1569C34.1473 47.5862 33.6716 48.1229 33.1635 48.6381H33.7473L33.6067 48.198L34.5041 47.876C34.6663 48.2732 34.796 48.7454 34.8825 49.1533V49.0889H37.8448V50.0442H34.8825V49.7758L33.9959 50.0978C33.9959 49.9905 33.9851 49.8832 33.9635 49.7651L33.6284 49.7973V50.3769L34.5257 50.1515C34.6663 50.5701 34.796 51.0961 34.8825 51.4825V50.3554H37.8448V51.5683L37.8664 51.5791ZM37.7475 45.1819V46.1479H35.0555V45.1819H37.7475ZM36.5691 51.7401V51.2678H36.1474V51.7401H36.5691Z" fill="white"/>
<path d="M44.2669 54.4985C45.294 55.3357 46.7968 56.8599 47.4887 57.6649L45.5967 59.3608C44.9588 58.5128 43.4128 56.7955 42.5479 55.9798L44.2777 54.4985H44.2669Z" fill="white"/>
<path d="M58.8299 47.5648H64.1924V55.4431H61.8571V54.7347H58.8299V59.3716H56.4946V54.7347H53.6188V55.5183H51.3916V47.5648H56.4946V44.9673L59.3164 45.1176C59.3056 45.2893 59.165 45.3859 58.8299 45.4503V47.554V47.5648ZM53.6188 52.5666H56.4946V49.7329H53.6188V52.5666ZM58.8299 52.5666H61.8571V49.7329H58.8299V52.5666Z" fill="white"/>
<path d="M80.042 52.8242H77.3067V53.4145H79.0582V55.207H74.0633V55.7329H79.8474V57.6113H74.0633V59.3716H71.8685V57.6113H66.2466V55.7329H71.8685V55.207H67.0899V53.4145H68.6792V52.8242H66.0195V50.9888H68.6792V50.4306H67.2304V48.6381H78.9176V50.4306H77.3175V50.9888H80.0528V52.8242H80.042ZM69.2413 48.3269V47.9297H66.2033V45.987H69.2413V44.9673L71.8577 45.1068C71.8469 45.2786 71.7172 45.3752 71.4144 45.4288V45.987H74.5498V44.9673L77.177 45.1068C77.1661 45.2786 77.0364 45.3752 76.7229 45.4288V45.987H79.9015V47.9297H76.7229V48.3269H74.5498V47.9297H71.4144V48.3269H69.2413ZM70.7225 50.4306V50.9888H71.8685V50.4306H70.7225ZM70.7225 53.4145H71.8685V52.8242H70.7225V53.4145ZM75.2525 50.9888V50.4306H74.0633V50.9888H75.2525ZM75.2525 53.4145V52.8242H74.0633V53.4145H75.2525Z" fill="white"/>
<path d="M95.1561 51.182H89.8909C90.7775 54.08 92.4532 56.2589 95.5453 57.2356C95.0156 57.7186 94.2804 58.7168 93.9452 59.3716C91.1234 58.2982 89.4693 56.4306 88.3665 53.8224C87.5016 56.0657 85.8583 58.0192 82.777 59.3716C82.4526 58.749 81.7823 57.9333 81.1553 57.4288C84.7231 56.0013 86.1177 53.8009 86.6475 51.182H81.4688V48.8957H86.9178C86.9935 47.6399 86.9827 46.3197 86.9935 44.9673L89.8909 45.1498C89.8585 45.3322 89.7071 45.4503 89.4152 45.4932C89.4044 46.6202 89.372 47.7687 89.3071 48.885H95.1453V51.1712L95.1561 51.182Z" fill="white"/>
<path d="M100.303 50.8385V55.5934C101.157 56.9995 102.822 56.9995 105.449 56.9995C107.255 56.9995 109.406 56.9351 110.941 56.8063C110.693 57.3322 110.347 58.3948 110.239 59.0496C109.093 59.114 107.547 59.1569 106.087 59.1569C102.303 59.1569 100.714 59.0818 99.3191 57.4717C98.6921 58.0192 98.0542 58.5666 97.5028 58.9852C97.5028 59.1784 97.4379 59.275 97.2541 59.3286L96.1514 56.9029C96.7784 56.5487 97.4812 56.1301 98.1191 55.6685V52.8456H96.5514V50.817H100.292L100.303 50.8385ZM98.1515 45.3215C99.0272 45.944 100.141 46.8671 100.66 47.5755L98.8867 49.0353C98.4434 48.3376 97.3731 47.3179 96.5081 46.6417L98.1515 45.3215ZM101.827 49.1748H104C104.044 49.0138 104.076 48.8313 104.119 48.6596H100.671V46.8993H102.638C102.422 46.4914 102.163 46.0514 101.892 45.6864L103.6 44.978C104.055 45.5254 104.552 46.266 104.736 46.792L104.487 46.8993H106.217L106.098 46.8564C106.433 46.2982 106.801 45.5361 106.995 44.9565L109.449 45.622C109.385 45.7616 109.255 45.8045 109.006 45.8152C108.779 46.1372 108.455 46.5236 108.152 46.8886H110.509V48.6489H106.401C106.314 48.8099 106.228 48.9923 106.13 49.1641H109.309V56.6667H107.114V56.4199H103.936V56.6667H101.849V49.1641L101.827 49.1748ZM107.093 51.1927V50.7741H103.914V51.1927H107.093ZM103.914 52.588V53.0281H107.093V52.588H103.914ZM103.914 54.8743H107.093V54.4234H103.914V54.8743Z" fill="white"/>
<path d="M124.964 40.7812H1.37793V64.0299H124.964V40.7812Z" stroke="white" stroke-width="0.71" stroke-miterlimit="10"/>
</g>
<defs>
<clipPath id="clip0_190_224">
<rect width="270" height="33" fill="white" transform="translate(0 0.405762)"/>
</clipPath>
<clipPath id="clip1_190_224">
<rect width="269" height="24" fill="white" transform="translate(1 40.4058)"/>
</clipPath>
</defs>
</svg>
