<?xml version="1.0" encoding="UTF-8"?>
<svg id="_圖層_1" data-name="圖層 1" xmlns="http://www.w3.org/2000/svg" version="1.1" viewBox="0 0 161 36">
  <defs>
    <style>
      .cls-1 {
        fill: #fff;
        stroke-width: 0px;
      }
    </style>
  </defs>
  <path class="cls-1" d="M20.1,28.7H6.8V7h.7v21h12.6v.6h0Z"/>
  <path class="cls-1" d="M41.8,17.8c0,6.5-3.9,11.3-9.7,11.3s-9.7-4.8-9.7-11.3,3.9-11.3,9.7-11.3,9.7,4.8,9.7,11.3ZM41.1,17.8c0-6.8-4.2-10.6-8.9-10.6s-8.9,3.8-8.9,10.6,4.2,10.6,8.9,10.6,8.9-3.8,8.9-10.6Z"/>
  <path class="cls-1" d="M64.3,13.5v.3c0,0-.6,0-.6,0v-.3c-.8-3.5-3.3-6.2-7.6-6.2s-8.9,3.7-8.9,10.6,4,10.6,8.6,10.6,7.1-2.9,7.8-6.6v-.3h.7v.3c-.9,4-3.5,7.2-8.6,7.2s-9.3-4.1-9.3-11.2,4.2-11.3,9.7-11.3,7.3,3,8.1,6.9h0Z"/>
  <path class="cls-1" d="M72.2,20.2l-3.2,8.4h-.7l8.3-21.6h.9l8.3,21.6h-.7l-3.2-8.4h-9.6ZM81.6,19.6l-4.5-11.9-4.6,11.9h9.1Z"/>
  <path class="cls-1" d="M95.5,7.7v21h-.7V7.7h-8.2v-.6h17.1v.6h-8.2Z"/>
  <path class="cls-1" d="M108.5,28.7V7h.7v21.6h-.7Z"/>
  <path class="cls-1" d="M134.2,17.8c0,6.5-3.9,11.3-9.7,11.3s-9.7-4.8-9.7-11.3,3.9-11.3,9.7-11.3,9.7,4.8,9.7,11.3ZM133.4,17.8c0-6.8-4.2-10.6-8.9-10.6s-8.9,3.8-8.9,10.6,4.2,10.6,8.9,10.6,8.9-3.8,8.9-10.6Z"/>
  <path class="cls-1" d="M153.7,28.7l-12.9-21c0,2.9,0,6.3,0,9.2v11.8h-.7V7h1l13,21c0-2.9,0-6.3,0-9.2V7h.7v21.6h-1.1Z"/>
</svg>