<svg width="74" height="503" viewBox="0 0 74 503" fill="none" xmlns="http://www.w3.org/2000/svg">
<path d="M1.42999 43.96V0H72.13V2.25H3.47999V43.95H1.42999V43.96Z" fill="#E9C468"/>
<path d="M36.78 117.63C15.68 117.63 0 104.92 0 85.6604C0 66.4004 15.68 53.6904 36.78 53.6904C57.88 53.6904 73.56 66.4004 73.56 85.6604C73.56 104.92 57.99 117.63 36.78 117.63ZM36.78 115.17C59.01 115.17 71.41 101.44 71.41 85.6604C71.41 69.8804 59.01 56.1504 36.78 56.1504C14.55 56.1504 2.15 69.8804 2.15 85.6604C2.15 101.44 14.65 115.17 36.78 115.17Z" fill="#E9C468"/>
<path d="M51.03 193.66L50.01 193.87V191.62L51.03 191.41C62.61 189.05 71.42 180.65 71.42 166.61C71.42 151.86 59.33 137.41 36.69 137.41C14.05 137.41 2.15 150.63 2.15 165.79C2.15 180.95 11.58 189.15 23.67 191.61L24.69 191.81V194.06L23.67 193.85C10.45 191.19 0 182.48 0 165.57C0 148.66 13.53 134.93 36.58 134.93C59.63 134.93 73.57 148.87 73.57 167C73.57 182.47 63.73 191.08 51.03 193.64V193.66Z" fill="#E9C468"/>
<path d="M29 222.05L1.43999 211.5V209.14L72.14 236.5V239.47L1.42999 266.82V264.36L28.99 253.7V222.04L29 222.05ZM31.15 252.79L70.19 237.93L31.15 222.87V252.79Z" fill="#E9C468"/>
<path d="M70.08 300.74H1.42999V298.49H70.08V271.44H72.13V327.79H70.08V300.74Z" fill="#E9C468"/>
<path d="M1.42999 345.62H72.13V347.87H1.42999V345.62Z" fill="#E9C468"/>
<path d="M36.78 432.51C15.67 432.51 0 419.8 0 400.54C0 381.28 15.68 368.57 36.78 368.57C57.88 368.57 73.56 381.28 73.56 400.54C73.56 419.8 57.99 432.51 36.78 432.51ZM36.78 430.05C59.01 430.05 71.41 416.32 71.41 400.54C71.41 384.76 59.01 371.03 36.78 371.03C14.55 371.03 2.15 384.76 2.15 400.54C2.15 416.32 14.65 430.05 36.78 430.05Z" fill="#E9C468"/>
<path d="M1.42999 499.11L70.08 456.49C60.55 456.7 49.38 456.7 39.85 456.7H1.42999V454.45H72.13V457.83L3.47999 500.55C13.01 500.34 24.18 500.34 33.71 500.34H72.13V502.59H1.42999V499.11Z" fill="#E9C468"/>
</svg>
