<svg viewBox="0 0 375 667" fill="#fff" xmlns="http://www.w3.org/2000/svg">
<line stroke="#fff" x1="42.5" y1="339" x2="332.5" y2="339"/>
<path d="M149,320.5l0.1,0.3h10.5c0.2,0,0.3-0.1,0.3-0.2c-0.5-0.4-1.3-1.1-1.3-1.1l-0.7,0.9H149z M152.4,323.6l0.1,0.3
	h6.2c0.2,0,0.3-0.1,0.3-0.2c-0.5-0.4-1.3-1-1.3-1l-0.7,0.9H152.4z M150.9,328.2l0.1,0.3h8.7c0.2,0,0.3-0.1,0.3-0.2
	c-0.5-0.5-1.4-1.1-1.4-1.1l-0.7,0.9H150.9z M152.9,317.9c-0.3,3.4-1.3,7.7-4,10.5l0.1,0.1c3.5-2.5,4.6-6.7,5.2-10
	c0.4,0,0.5-0.1,0.5-0.3L152.9,317.9z M154.7,323.6v4.7h1.2v-4.7H154.7z M162.1,320.6l0.1,0.3H173c0.2,0,0.3-0.1,0.3-0.2
	c-0.5-0.4-1.4-1.1-1.4-1.1l-0.7,0.9H162.1z M166.4,317.9c-0.5,2.8-1.7,6.2-4.3,8.3l0.1,0.1c3.2-1.8,4.7-5,5.4-7.8
	c0.3,0,0.4-0.1,0.5-0.3L166.4,317.9z M164.9,323.7v5.3h0.2c0.6,0,1-0.2,1-0.3v-4.6h4.6v4.8h0.2c0.6,0,1-0.2,1-0.3v-4.5
	c0.3,0,0.4-0.1,0.5-0.2l-1.1-0.9l-0.6,0.7h-4.4l-1.3-0.5V323.7z M165.6,327.6v0.3h5.7v-0.3H165.6z M180.5,324.4l0,0.2
	c1.2,0.1,2.3,0.5,2.8,0.7C184.3,325.4,184.2,323.6,180.5,324.4z M180.6,326.2l0.5,1.2c0.1,0,0.2-0.1,0.3-0.3c1.3-0.6,2.2-1,2.9-1.3
	l0-0.2C182.7,325.9,181.3,326.2,180.6,326.2z M184.4,323.2h-3.9v0.3h3.9V323.2z M179.7,323.1v1.5c0,1.4-0.1,3-1.2,4.4l0.1,0.1
	c1.9-1.2,2.1-3.2,2.1-4.5v-1.4h0.2l-1.3-0.5V323.1z M181.9,319.5v2.4h0.9V320h0.2L181.9,319.5z M184.3,320h-2v0.3h2V320z
	 M185.1,321.8h0.1c-0.1,0.4-0.2,1.1-0.3,1.4l0.2,0.1c0.3-0.2,0.8-0.7,1.1-1c0.2,0,0.4,0,0.5-0.1l-1-1L185.1,321.8z M179.3,321.2
	l-0.2,0c-0.1,0.8-0.4,1.3-0.8,1.5C177.4,323.9,180.2,324.4,179.3,321.2z M179.9,318.1v3.8h1v-3h3v3h1V319c0.3,0,0.4-0.1,0.5-0.2
	l-1.2-0.9l-0.5,0.6H181L179.9,318.1z M183.8,323.2h0.1v4.3c0,0.2-0.1,0.2-0.3,0.2c-0.2,0-1.4-0.1-1.4-0.1v0.2c0.5,0.1,0.8,0.2,1,0.4
	c0.2,0.2,0.2,0.4,0.2,0.8c1.3-0.1,1.5-0.6,1.5-1.4v-3.9c0.2,0,0.4-0.1,0.5-0.2l-1.2-0.9L183.8,323.2z M185.5,321.8h-6.3v0.3h6.3
	V321.8z M175.9,325.5c-0.1,0-0.5,0-0.5,0v0.3c0.3,0,0.4,0.1,0.6,0.2c0.3,0.2,0.3,1.2,0.1,2.5c0.1,0.4,0.3,0.6,0.5,0.6
	c0.5,0,0.8-0.4,0.8-0.9c0-1-0.4-1.5-0.4-2.1c0-0.3,0.1-0.7,0.2-1.1c0.2-0.6,1-3.4,1.5-4.8l-0.2-0.1c-2.1,4.8-2.1,4.8-2.3,5.2
	C176.1,325.5,176.1,325.5,175.9,325.5z M175.4,320.8l-0.1,0.1c0.4,0.3,0.9,0.9,1,1.5C177.3,323.1,178.2,321.1,175.4,320.8z
	 M176.1,317.9L176,318c0.5,0.4,1,1.1,1.2,1.7C178.2,320.4,179.1,318.3,176.1,317.9z M188.5,320.2l0.1,0.3h6c0.2,0,0.3-0.1,0.3-0.2
	c-0.4-0.4-1.1-0.9-1.1-0.9l-0.6,0.8H188.5z M188.7,325.8l0.1,0.3h5.5c0.2,0,0.3-0.1,0.3-0.2c-0.4-0.4-1.1-0.9-1.1-0.9l-0.6,0.7
	H188.7z M188.5,327.5l0.5,1.4c0.1,0,0.3-0.1,0.3-0.3c2.4-0.6,4-1.2,5.2-1.6l0-0.2C192,327.2,189.6,327.4,188.5,327.5z M189.5,322.9
	v0.3h4.2v-0.3H189.5z M189.5,324.3v0.3h4.2v-0.3H189.5z M193.5,317.8c-1.1,0.4-3.3,1-5,1.3l0,0.2c1.8,0,3.9-0.2,5.3-0.4
	c0.3,0.1,0.6,0.1,0.7,0L193.5,317.8z M191.1,318.9v8.8h0.2c0.5,0,0.8-0.2,0.8-0.3v-8.7L191.1,318.9z M189,321.4v3.8h0.2
	c0.5,0,0.8-0.2,0.8-0.3v-3.2h3.3v3.2h0.2c0.5,0,0.9-0.2,0.9-0.3v-2.9c0.3,0,0.4-0.1,0.4-0.2l-1-0.8l-0.5,0.6h-3.1L189,321V321.4z
	 M194.5,320.8l0.1,0.3h4v-0.3H194.5z M195.8,318c0,5.1,0.3,8.5-2.5,10.8l0.1,0.2c3.7-2.1,3.4-5.6,3.5-10.5c0.3,0,0.4-0.2,0.4-0.3
	L195.8,318z M198.2,320.8c-0.1,4.2-0.2,6.3-0.6,6.6c-0.1,0.1-0.2,0.1-0.4,0.1c-0.2,0-0.8,0-1.2-0.1v0.2c0.4,0.1,0.7,0.2,0.9,0.4
	c0.1,0.2,0.2,0.4,0.2,0.8c0.5,0,1-0.2,1.4-0.6c0.6-0.6,0.7-2.4,0.8-7c0.3,0,0.4-0.1,0.5-0.2l-1.1-0.9l-0.6,0.6H198.2z M203.8,319
	h-2.1l0.1,0.3h2V319z M207.3,318.4l-0.5,0.6h-1.4l0.1,0.3h2.3c0.2,0,0.3-0.1,0.3-0.2C207.8,318.8,207.3,318.4,207.3,318.4z
	 M206.6,317.9l-1.4-0.1v2.3h0.2c0.4,0,0.8-0.2,0.8-0.3v-1.7C206.5,318.2,206.6,318.1,206.6,317.9z M204.7,318l-1.4-0.1v2.3h0.2
	c0.4,0,0.8-0.2,0.8-0.3v-1.7C204.6,318.2,204.7,318.1,204.7,318z M204.6,322.5l-0.1,0.1c0.2,0.3,0.4,0.7,0.4,1.1
	C205.6,324.3,206.7,323,204.6,322.5z M206.6,320.6L206.6,320.6l0.1,2.1h0.1c0.3,0,0.7-0.2,0.7-0.2V321c0.2,0,0.3-0.1,0.4-0.2
	l-0.9-0.7L206.6,320.6z M205.1,320.2v2.6h0.1c0.4,0,0.7-0.2,0.7-0.3v-1.9h0.2L205.1,320.2z M207,322h-1.6v0.3h1.6V322z M207,320.6
	h-1.6v0.3h1.6V320.6z M203.6,320.6L203.6,320.6l0.1,2.1h0.1c0.3,0,0.7-0.2,0.7-0.2V321c0.2,0,0.3-0.1,0.4-0.2l-0.9-0.7L203.6,320.6z
	 M202.2,320.2v2.7h0.1c0.4,0,0.7-0.2,0.7-0.3v-2h0.2L202.2,320.2z M204.3,323l-1.3-0.4c-0.3,1.3-0.8,2.5-1.3,3.4l0.2,0.1
	c0.8-0.7,1.5-1.7,2-2.8C204.1,323.3,204.2,323.2,204.3,323z M205.7,323.9h-1v4.1h1V323.9z M203.6,328.7v-4.9h0.2l-0.5-0.2l-0.6,0.9
	v4.5h0.2C203.3,329,203.6,328.8,203.6,328.7z M206.9,327.1l-0.5,0.7H203v0.3h4.6c0.2,0,0.3-0.1,0.3-0.2
	C207.5,327.5,206.9,327.1,206.9,327.1z M206.7,325.8l-0.5,0.6H203v0.3h4.3c0.2,0,0.3-0.1,0.3-0.2
	C207.2,326.2,206.7,325.8,206.7,325.8z M206.7,324.5l-0.5,0.6H203v0.3h4.2c0.2,0,0.3-0.1,0.3-0.2
	C207.2,324.9,206.7,324.5,206.7,324.5z M206.9,323.2l-0.5,0.6H203v0.3h4.5c0.2,0,0.3-0.1,0.3-0.2
	C207.4,323.6,206.9,323.2,206.9,323.2z M204.1,322h-1.6v0.3h1.6V322z M204.1,320.6h-1.6v0.3h1.6V320.6z M209.8,324.6h-1
	c0,2-0.3,3.2-2,4.2l0.1,0.2C209.1,328.2,209.7,326.9,209.8,324.6z M211.3,324.6h-1v3.3c0,0.6,0.1,0.8,0.9,0.8h0.5
	c1,0,1.4-0.2,1.4-0.6c0-0.2,0-0.3-0.3-0.4l0-1.3h-0.1c-0.1,0.6-0.3,1.1-0.4,1.3c0,0.1-0.1,0.1-0.2,0.1c-0.1,0-0.2,0-0.3,0h-0.3
	c-0.2,0-0.2,0-0.2-0.2V325C211.3,324.9,211.3,324.7,211.3,324.6z M208,318.1v7.4h0.2c0.5,0,0.9-0.2,0.9-0.3v-6.3h2.1v6.3h0.2
	c0.5,0,0.9-0.2,0.9-0.3v-6c0.3,0,0.4-0.1,0.5-0.2l-1.1-0.8l-0.5,0.6h-1.9L208,318.1z M211.7,324.5h-3.2v0.3h3.2V324.5z M211.7,322.6
	h-3.2v0.3h3.2V322.6z M211.7,320.7h-3.2v0.3h3.2V320.7z M215,322l0.1,0.3h10.6c0.2,0,0.3-0.1,0.3-0.2c-0.5-0.4-1.3-1-1.3-1l-0.7,0.9
	H215z M215.9,320.5l0.1,0.3h8.9c0.2,0,0.3-0.1,0.3-0.2c-0.5-0.4-1.2-1-1.2-1l-0.7,0.8H215.9z M219,323.4h0.2l-0.9-0.3l-0.4,0.6v5.3
	h0.2c0.6,0,0.9-0.3,0.9-0.4V323.4z M218.4,324.8v0.3h5.4v-0.3H218.4z M218.4,326.3v0.3h5.4v-0.3H218.4z M218.4,327.8v0.3h5.4v-0.3
	H218.4z M224,317.9c-1.9,0.6-5.5,1.2-8.4,1.4l0,0.2c3,0,6.5-0.3,8.7-0.6c0.3,0.2,0.6,0.2,0.7,0L224,317.9z M219.4,319.1
	c-0.6,2.8-2.1,5.4-4.5,7l0.1,0.1c3.1-1.5,4.8-4,5.6-7v-0.2H219.4z M218.4,323.4v0.3h5.4v-0.3H218.4z M223.3,323.4v5.6h0.2
	c0.4,0,1-0.2,1-0.3v-4.8c0.2,0,0.4-0.1,0.4-0.2l-1.1-0.9l-0.6,0.6H223.3z"/>
</svg>
