<?xml version="1.0" encoding="utf-8"?>
<!-- Generator: Adobe Illustrator 28.1.0, SVG Export Plug-In . SVG Version: 6.00 Build 0)  -->
<svg version="1.1" id="圖層_1" xmlns="http://www.w3.org/2000/svg" xmlns:xlink="http://www.w3.org/1999/xlink" x="0px" y="0px"
	 viewBox="0 0 610 423" style="enable-background:new 0 0 610 423;" xml:space="preserve">
<style type="text/css">
	.st0{fill:#173868;}
	.st1{fill:#FFFFFF;stroke:#000000;stroke-miterlimit:10;}
</style>
<g>
	<path class="st0" d="M28.5,7.5l-1.6,1.2l-2.5-2L26,5.5l-6.8-5.3l-1.6,1.3L16,0.2L9.2,5.5l1.6,1.2L8.1,8.9L6.6,7.6L0,12.8L1.6,14
		L0,15.3l6.8,5.4l1.6-1.2l2.5,2l-1.6,1.2l6.7,5.2l1.6-1.2l1.6,1.2l6.6-5.2l-1.6-1.3l2.7-2.1l1.6,1.2l6.8-5.3L33.5,14l1.6-1.2
		L28.5,7.5L28.5,7.5z M17.5,16.2l-2.5-2l2.6-2.1l2.5,2L17.5,16.2L17.5,16.2z"/>
	<path class="st0" d="M202.1,14V5.1h2.8V3.4h-2.8v-3H200v3h-2.8v1.7h2.8V14h-3.6v1.7h8.7V14H202.1z"/>
	<path class="st0" d="M197,11.6V9.4c-0.9-0.6-1.5-1.2-1.8-1.6c0.8-1.4,1.5-3,1.7-5.1h-2.1V0.4h-1.9v2.3H191v1.9h3.5
		c0,0-0.8,3.2-3.9,5.4v2.4c0,0,1.1-0.6,2.4-1.8v5.5h1.9V9.8C195.7,10.9,197,11.6,197,11.6L197,11.6z"/>
	<path class="st0" d="M182.8,0h-2.2c0,0-2.7,2.9-6.1,4.2v1.9c0,0,0.9-0.3,2.1-1v1.3h10.2V5.3c0.7,0.3,1.5,0.6,2.2,0.9v-2
		C189.1,4.2,185.5,2.9,182.8,0z M177.6,4.6c1.3-0.7,2.8-1.7,4-3c0,0,1.6,1.6,4,3H177.6z"/>
	<path class="st0" d="M174.6,9.9h3.5l-1.6,3.5h-1.6v1.7h4.6c0,0,5.2-0.2,6.6-0.8l0.5,1.1h2.3l-2.6-4.5h-2.2l1,1.8c0,0-2,0.8-6.4,0.8
		l1.4-3.5h8.9V8.1h-14.5L174.6,9.9L174.6,9.9z"/>
	<path class="st0" d="M173.2,0.4h-2.3V2h2.3V0.4z"/>
	<path class="st0" d="M169.8,0.4h-2.2v2.2H159v1.8h8.7c0,0-0.3,2.6,0.8,5.9c0,0,1.4,4.4,4.8,5.8v-2.4c0,0-2.4-1.4-3.1-5.4
		c0,0-0.3-0.7-0.3-4h3.4V2.6h-3.4L169.8,0.4L169.8,0.4z"/>
	<path class="st0" d="M164.2,8.7h2.9V6.9h-7.6v1.9h2.6v4.6c0,0-1.1,0.2-3.1,0.6v1.8c0,0,6.4-1.1,8.7-2.1v-1.8c0,0-1.6,0.6-3.4,1
		L164.2,8.7L164.2,8.7z"/>
	<path class="st0" d="M153.6,4.4h3.3V2.6h-3.3V0.4h-1.9v2.2h-1.4c0,0,0.4-1.3,0.4-2H149c0,0-0.3,2-1.2,3.2V6c0,0,0.9-0.4,1.7-1.7
		h2.2v2.1h-3.9v1.9h2.6c0,0-0.9,2.4-3.2,4.7v2.3c0,0,2.6-1.7,4.4-5.2v6h1.9v-5.7c0,0,1.5,3.1,3.6,4.8v-2.6c0,0-1.6-1.8-2.6-4.2h2.6
		v-2h-3.6v-2H153.6z"/>
	<path class="st0" d="M147.3,6.5c0,0-1.1-1.2-1.6-2.1h1.6V2.6h-1.6V0.4h-1.9v2.2h-1.7v1.8h1.7c0,0-0.5,1.6-2.1,4.7v2.5
		c0,0,1.4-1.5,2.1-2.8v7.3h1.9V7.4c0,0,0.9,0.8,1.6,1.5V6.5z"/>
	<path class="st0" d="M138.6,1h-2L136,2.6h-1.1V0.4h-1.8v2.2h-1V0.4h-1.8v2.2h-1L128.8,1h-2l0.6,1.6H125v1.8h4.1l0.3,1.1H126
		l0.3,1.7h5.4v0.6h-5.4v1.7h5.4v0.6h-6.3v1.7h4.8c-0.8,0.6-2.4,1.7-4.8,2.3v1.8c0,0,4.6-1.2,6.3-3v3.5h2.1v-3.5c1.7,1.8,6.3,3,6.3,3
		v-1.8c-2.3-0.6-3.9-1.7-4.8-2.3h4.8V9.9h-6.3V9.3h5.4V7.7h-5.4V7.1h5.4l0.3-1.7h-3.3l0.3-1.1h4.1V2.6H138L138.6,1L138.6,1z
		 M134.2,5.5h-2.9L131,4.4h3.4L134.2,5.5z"/>
	<path class="st0" d="M117.5,3.8h5.9V2h-13.3v1.8h5.5v9.4h-6.2V15h14.4v-1.8h-6.3V3.8z"/>
	<path class="st0" d="M102.6,7.5l2.3,4.9c-3.5,0.8-7.7,0.6-7.7,0.6c2.2-5.4,3.5-11.5,3.5-11.5h-2.1c-1.5,6.1-3.9,11.7-3.9,11.7
		l-1.4,0.1v2c4.8-0.1,9.2-0.5,9.2-0.5c1.4-0.1,3.2-0.6,3.2-0.6l0.7,1.5h2.2l-4.1-8.1L102.6,7.5L102.6,7.5z"/>
	<path class="st0" d="M94,0.7h-1.5v2.9H94V0.7z"/>
	<path class="st0" d="M79.6,4.3h10v9h-10v1.8h12.2V2.5H79.6V4.3z"/>
	<path class="st0" d="M76.6,6.1h-7.4c0.1-0.4,0.1-1,0.2-1.8H78V2.5h-8.5c0-0.6,0-1.3,0-2.1h-2c0,0,0,0.9,0,2.1h-4.3v1.8h4.2
		c-0.1,1.2-0.3,2.5-0.7,3.8c0,0-0.9,3.9-3.4,5.5v2.5c0,0,2.1-0.9,3.4-3.1c0,0,1.2-1.6,2-4.4c0.3,1,1.1,2.4,2.4,3.7
		c-1.8,1.1-4,1.5-4,1.5v2c2.8-0.4,4.7-1.5,5.6-2.1c0.9,0.7,2.9,1.9,5.4,2.2V14c0,0-2-0.3-3.9-1.6C76.3,9.9,76.6,6.2,76.6,6.1
		L76.6,6.1z M70.6,8h3.5c-0.1,1.2-0.9,2.3-1.5,3C71.9,10.3,70.9,9.1,70.6,8z"/>
	<path class="st0" d="M56.1,0.4h-2l1.5,2.8h-4.3V5h4.4v3.3h-4v1.8h4v3.7h-4.4v1.8h10.5v-1.8h-4.3v-3.7h4V8.3h-4V5h4.3V3.2h-4.2
		L56.1,0.4z"/>
	<path class="st0" d="M49.6,0.4c0,0-0.6,3.7-3.1,6.5V10c0,0,1.4-1.1,2-2.1v8.2h1.9V4.6c0,0,0.9-2.7,1.2-4.2L49.6,0.4L49.6,0.4z"/>
	<path class="st0" d="M96,0.7h-1.5v2.9H96V0.7z"/>
	<path class="st0" d="M46.6,26.6l-0.1,1c0.5,0.3,1.6,0.3,1.6,0.3c1.2,0,1.8-0.4,1.8-0.4c0.7-0.4,0.9-1.2,0.9-1.2
		c0.2-1.1-0.3-1.7-0.3-1.7c-0.4-0.5-1.4-0.9-1.4-0.9c-0.8-0.2-1.1-0.5-1.1-0.5c-0.4-0.3-0.2-0.7-0.2-0.7c0-0.3,0.5-0.6,0.5-0.6
		c0.5-0.2,1.1-0.1,1.1-0.1c0.5,0,0.9,0.2,0.9,0.2l0.1-1c-0.4-0.2-1.3-0.3-1.3-0.3c-1.1,0-1.7,0.3-1.7,0.3c-0.8,0.4-0.9,1.2-0.9,1.2
		c-0.2,0.8,0.2,1.4,0.2,1.4c0.3,0.5,1,0.8,1,0.8c0.6,0.3,1,0.4,1,0.4c0.7,0.3,0.8,0.7,0.8,0.7c0.1,0.8-0.7,1-0.7,1
		C47.6,26.9,46.6,26.5,46.6,26.6L46.6,26.6z"/>
	<path class="st0" d="M51.5,20.9h1.4v4.4c0,0.8,0.5,1.1,0.5,1.1c0.5,0.5,1.1,0.4,1.1,0.4c0.8,0,1.1-0.4,1.1-0.4
		C56,26,56,25.2,56,25.2v-4.4h1.3v4.8c0,1-0.6,1.5-0.6,1.5c-1,0.9-2.4,0.9-2.4,0.9c-1.4,0-2-0.5-2-0.5c-1-0.7-0.9-1.8-0.9-1.8
		L51.5,20.9L51.5,20.9z"/>
	<path class="st0" d="M59.3,27.8H58v-6.9h2.2l1.8,4.9l1.7-4.9h2.2v6.9h-1.3v-5.7l-2,5.7h-1.2l-2-5.5L59.3,27.8L59.3,27.8z"/>
	<path class="st0" d="M68.2,20.9h-1.4v6.9h1.4V20.9z"/>
	<path class="st0" d="M72,27.8v-5.7h2v-1.2h-5.3v1.2h2v5.7H72z"/>
	<path class="st0" d="M75.4,24.3c0-1.4,0.8-2.6,2-2.6s2,1.1,2,2.6s-0.7,2.6-2,2.6C76.2,26.8,75.4,25.7,75.4,24.3z M77.4,27.9
		c2.3,0,3.4-1.6,3.4-3.6s-1.1-3.6-3.4-3.6S74,22.3,74,24.3S75.1,27.9,77.4,27.9z"/>
	<path class="st0" d="M82.8,27.8h-1.3v-6.9h2.2l1.8,4.9l1.7-4.9h2.2v6.9h-1.3v-5.7l-2,5.7h-1.2l-2-5.5L82.8,27.8L82.8,27.8z"/>
	<path class="st0" d="M91.7,24.3c0-1.4,0.8-2.6,2-2.6s2,1.1,2,2.6s-0.7,2.6-2,2.6C92.4,26.8,91.7,25.7,91.7,24.3z M93.6,27.9
		c2.3,0,3.4-1.6,3.4-3.6s-1.1-3.6-3.4-3.6s-3.4,1.6-3.4,3.6S91.3,27.9,93.6,27.9z"/>
	<path class="st0" d="M106.3,20.9h1.4v4.4c0,0.8,0.5,1.1,0.5,1.1c0.5,0.5,1.1,0.4,1.1,0.4c0.8,0,1.1-0.4,1.1-0.4
		c0.4-0.4,0.4-1.2,0.4-1.2v-4.4h1.3v4.8c0,1-0.6,1.5-0.6,1.5c-0.8,0.8-2.2,0.7-2.2,0.7c-1.4,0-2-0.5-2-0.5c-1-0.7-0.9-1.8-0.9-1.8
		L106.3,20.9L106.3,20.9z"/>
	<path class="st0" d="M100.7,27.8v-6.9h2.8c1,0,1.4,0.5,1.4,0.5c0.6,0.6,0.5,1.3,0.5,1.3c0,0.6-0.4,1.1-0.4,1.1
		c-0.4,0.4-0.9,0.6-0.9,0.6c0.4,0.2,0.6,0.8,0.6,0.8l1.1,2.6h-1.5l-0.9-2.2c-0.3-0.6-0.8-0.6-0.8-0.6h-0.7v2.8L100.7,27.8
		L100.7,27.8z M103,23.8c0,0,0.4,0,0.6-0.2c0,0,0.4-0.3,0.4-0.7c0,0,0-0.4-0.2-0.6c0,0-0.3-0.3-0.9-0.3h-0.8v1.8L103,23.8L103,23.8z
		"/>
	<path class="st0" d="M115.5,27.8h-2.8v-6.9h2.8c1,0,1.4,0.5,1.4,0.5c0.6,0.6,0.5,1.3,0.5,1.3c0,0.6-0.4,1.1-0.4,1.1
		c-0.4,0.4-0.7,0.4-0.7,0.4c0.4,0.2,0.8,0.5,0.8,0.5c0.5,0.5,0.4,1.2,0.4,1.2c0,0.9-0.6,1.4-0.6,1.4
		C116.3,27.8,115.5,27.8,115.5,27.8z M115,23.7c0,0,0.4,0,0.6-0.2c0,0,0.4-0.3,0.4-0.7c0,0,0-0.3-0.2-0.6c0,0-0.3-0.3-0.9-0.3h-0.8
		v1.7h0.9V23.7z M115.1,26.7c0,0,0.5,0,0.7-0.2c0,0,0.4-0.3,0.4-0.8c0,0,0-0.4-0.2-0.6c0,0-0.3-0.4-1-0.4h-0.9v2H115.1L115.1,26.7z"
		/>
	<path class="st0" d="M121,27.8h-2.8v-6.9h2.8c1,0,1.4,0.5,1.4,0.5c0.6,0.6,0.5,1.3,0.5,1.3c0,0.6-0.4,1.1-0.4,1.1
		c-0.4,0.4-0.7,0.4-0.7,0.4c0.5,0.2,0.8,0.5,0.8,0.5c0.5,0.5,0.5,1.2,0.5,1.2c0,0.9-0.6,1.4-0.6,1.4C121.9,27.8,121,27.8,121,27.8z
		 M120.5,23.7c0,0,0.4,0,0.6-0.2c0,0,0.4-0.3,0.4-0.7c0,0,0-0.3-0.2-0.6c0,0-0.3-0.3-0.9-0.3h-0.8v1.7h0.9V23.7z M120.6,26.7
		c0,0,0.5,0,0.7-0.2c0,0,0.4-0.3,0.4-0.8c0,0,0-0.4-0.2-0.6c0,0-0.3-0.4-1-0.4h-0.9v2H120.6L120.6,26.7z"/>
	<path class="st0" d="M125.2,21.9h2.7v-1.1h-4.2v6.9h4.2v-1h-2.7v-2h2.4v-1.1h-2.4V21.9z"/>
	<path class="st0" d="M128.6,27.8v-6.9h2.8c1,0,1.4,0.5,1.4,0.5c0.6,0.6,0.5,1.3,0.5,1.3c0,0.6-0.4,1.1-0.4,1.1
		c-0.4,0.4-0.9,0.6-0.9,0.6c0.4,0.2,0.6,0.8,0.6,0.8l1.1,2.6h-1.5l-0.9-2.2c-0.3-0.6-0.8-0.6-0.8-0.6H130v2.8L128.6,27.8L128.6,27.8
		z M130.9,23.8c0,0,0.4,0,0.6-0.2c0,0,0.4-0.3,0.4-0.7c0,0,0-0.4-0.2-0.6c0,0-0.3-0.3-0.9-0.3H130v1.8L130.9,23.8L130.9,23.8z"/>
	<path class="st0" d="M152.7,20.9h1.4v4.4c0,0.8,0.5,1.1,0.5,1.1c0.5,0.5,1.1,0.4,1.1,0.4c0.8,0,1.1-0.4,1.1-0.4
		c0.4-0.4,0.4-1.2,0.4-1.2v-4.4h1.3v4.8c0,1-0.6,1.5-0.6,1.5c-0.8,0.8-2.2,0.7-2.2,0.7c-1.4,0-2-0.5-2-0.5c-0.9-0.7-0.9-1.8-0.9-1.8
		L152.7,20.9L152.7,20.9z"/>
	<path class="st0" d="M159.3,26.4l-0.1,1c0.4,0.3,1.6,0.3,1.6,0.3c1.2,0,1.8-0.4,1.8-0.4c0.7-0.4,0.9-1.2,0.9-1.2
		c0.2-1.1-0.3-1.7-0.3-1.7c-0.4-0.6-1.4-0.9-1.4-0.9c-0.8-0.2-1.1-0.5-1.1-0.5c-0.4-0.3-0.2-0.7-0.2-0.7c0-0.3,0.5-0.6,0.5-0.6
		c0.5-0.2,1.1-0.1,1.1-0.1c0.5,0,0.9,0.2,0.9,0.2l0.1-1c-0.4-0.2-1.3-0.3-1.3-0.3c-1.1,0-1.7,0.3-1.7,0.3c-0.8,0.4-0.9,1.2-0.9,1.2
		c-0.2,0.8,0.2,1.4,0.2,1.4c0.3,0.5,1,0.8,1,0.8c0.6,0.3,1,0.4,1,0.4c0.7,0.3,0.8,0.7,0.8,0.7c0.1,0.8-0.7,1-0.7,1
		C160.3,26.8,159.3,26.4,159.3,26.4L159.3,26.4z"/>
	<path class="st0" d="M167,27.8v-5.7h2v-1.2h-5.3v1.2h2v5.7H167z"/>
	<path class="st0" d="M169.6,27.8v-6.9h2.9c1,0,1.4,0.5,1.4,0.5c0.6,0.6,0.5,1.3,0.5,1.3c0,0.6-0.4,1.1-0.4,1.1
		c-0.4,0.4-0.9,0.6-0.9,0.6c0.4,0.2,0.6,0.8,0.6,0.8l1.1,2.6h-1.5l-0.9-2.2c-0.3-0.6-0.8-0.6-0.8-0.6H171v2.8L169.6,27.8L169.6,27.8
		z M171.9,23.8c0,0,0.4,0,0.6-0.2c0,0,0.4-0.3,0.4-0.7c0,0,0-0.4-0.2-0.6c0,0-0.3-0.3-0.9-0.3H171v1.8L171.9,23.8L171.9,23.8z"/>
	<path class="st0" d="M176.6,20.9h-1.4v6.9h1.4V20.9z"/>
	<path class="st0" d="M178.8,21.9h2.7v-1.1h-4.2v6.9h4.2v-1h-2.7v-2h2.4v-1.1h-2.4V21.9z"/>
	<path class="st0" d="M182.4,26.4l-0.1,1c0.5,0.3,1.6,0.3,1.6,0.3c1.2,0,1.8-0.4,1.8-0.4c0.7-0.4,0.9-1.2,0.9-1.2
		c0.2-1.1-0.3-1.7-0.3-1.7c-0.4-0.6-1.4-0.9-1.4-0.9c-0.8-0.2-1.1-0.5-1.1-0.5c-0.4-0.3-0.2-0.7-0.2-0.7c0-0.3,0.5-0.6,0.5-0.6
		c0.5-0.2,1.1-0.1,1.1-0.1c0.5,0,0.9,0.2,0.9,0.2l0.1-1c-0.4-0.2-1.3-0.3-1.3-0.3c-1.1,0-1.7,0.3-1.7,0.3c-0.8,0.4-0.9,1.2-0.9,1.2
		c-0.2,0.8,0.2,1.4,0.2,1.4c0.3,0.5,1,0.8,1,0.8c0.6,0.3,1,0.4,1,0.4c0.7,0.3,0.8,0.7,0.8,0.7c0.1,0.8-0.7,1-0.7,1
		C183.3,26.8,182.3,26.4,182.4,26.4L182.4,26.4z"/>
	<path class="st0" d="M141,27.8h-1.4v-6.9h1.7l2.7,4.8v-4.8h1.4v6.9h-1.7L141,23V27.8z"/>
	<path class="st0" d="M138.9,20.9h-1.4v6.9h1.4V20.9z"/>
	<path class="st0" d="M146.1,27.8v-6.9h1.8c2,0,2.9,0.7,2.9,0.7c1.4,1,1.3,2.8,1.3,2.8c0,1.6-1,2.5-1,2.5c-0.9,0.9-2.6,0.9-2.6,0.9
		H146.1L146.1,27.8z M149.6,26.3c0,0,1-0.6,1-1.9c0,0,0.1-1.4-1-2.1c0,0-0.4-0.4-2.1-0.4v4.7C147.6,26.7,149.1,26.9,149.6,26.3
		L149.6,26.3z"/>
	<path class="st0" d="M187.2,26.3h1.3l-0.9,2.4h-1L187.2,26.3z"/>
	<path class="st0" d="M197,27.7V22h2v-1.2h-5.4V22h2v5.7H197z"/>
	<path class="st0" d="M199.5,27.7v-6.9h1.8c2,0,2.9,0.7,2.9,0.7c1.4,1,1.3,2.8,1.3,2.8c0,1.6-1,2.5-1,2.5c-0.9,0.9-2.6,0.9-2.6,0.9
		H199.5L199.5,27.7z M203,26.3c0,0,1-0.5,1-1.9c0,0,0.1-1.4-1.1-2.1c0,0-0.4-0.4-2.1-0.4v4.7C200.9,26.7,202.5,26.9,203,26.3
		L203,26.3z"/>
	<path class="st0" d="M190.9,27.7v-6.9h1.4v5.7h2.7v1.1h-4.1V27.7z"/>
	<path class="st0" d="M207.1,26.4h-1.3v1.3h1.3V26.4z"/>
	<path class="st0" d="M69.3,51.5v12.6h-1v-0.9h-7.7v1h-1V51.5H69.3z M60.5,52.5v4.3h7.7v-4.3H60.5z M68.3,62.2v-4.4h-7.7v4.4H68.3z"
		/>
	<path class="st0" d="M81.4,54.7c1.1,2.6,3.1,5.1,5.3,6.3c-0.2,0.2-0.6,0.6-0.8,0.8c-2.3-1.4-4.3-4.1-5.5-7.1h-0.2v5.7h3.6v1h-3.6
		v2.9h-1.1v-2.9h-3.6v-1h3.6v-5.7h-0.3c-1.2,3-3.2,5.7-5.4,7.2c-0.2-0.2-0.5-0.6-0.7-0.8c2-1.2,4-3.8,5.1-6.4H73v-1h6v-3.2h1.1v3.2
		h6.1v1H81.4z"/>
	<path class="st0" d="M92.7,50.8c-0.4,1.1-1,2.2-1.6,3.3v10.2h-1v-8.7c-0.5,0.7-1.1,1.4-1.6,2c-0.1-0.2-0.4-0.8-0.6-1
		c1.5-1.5,3-3.8,3.8-6.1L92.7,50.8L92.7,50.8z M101.9,62.9v1H92v-1h4.5v-4h-3.6v-1h3.6v-3.5h-4.1v-1h9.2v1h-4.1v3.5h3.7v1h-3.7v4
		H101.9L101.9,62.9z M96.9,53.3c-0.2-0.7-0.8-1.7-1.3-2.5l0.9-0.3c0.5,0.8,1.1,1.8,1.4,2.5L96.9,53.3z"/>
	<path class="st0" d="M115,56.4c-0.6,2.2-1.7,3.8-3.1,5.1c1.4,0.9,3.1,1.6,5.1,2c-0.2,0.2-0.5,0.6-0.7,0.9c-2.1-0.4-3.8-1.2-5.2-2.2
		c-1.4,1-3,1.8-4.7,2.3c-0.1-0.3-0.3-0.7-0.6-0.9c1.6-0.4,3.2-1.1,4.5-2c-1.1-1-2.1-2.3-2.7-3.8c-0.7,2.3-1.8,4.6-3.7,6.2
		c-0.2-0.2-0.6-0.5-0.9-0.7c2.8-2.2,3.8-6.2,4.3-9.2h-3.8v-1h3.9c0.2-1.2,0.2-2.2,0.2-2.6h1c0,0.5-0.1,1.4-0.2,2.6h8.1v1h-8.3
		c-0.1,0.7-0.2,1.4-0.4,2.1h6.1l0.2-0.1L115,56.4L115,56.4z M108.4,57.1c0.6,1.5,1.6,2.8,2.8,3.8c1.1-1,2-2.2,2.6-3.8H108.4z"/>
	<path class="st0" d="M123.2,55.3h3.8v0.9h-3.8v1.6h3.2V62c0,0.5-0.1,0.8-0.4,0.9c-0.3,0.2-0.9,0.2-1.8,0.2c0-0.3-0.2-0.6-0.3-0.9
		c0.7,0,1.2,0,1.4,0c0.2,0,0.2-0.1,0.2-0.2v-3.3h-2.2v5.6h-1v-5.6h-2.1V63h-0.9v-5.2h3v-1.6h-3.8v-0.9h3.8v-1.7h-2.1
		c-0.2,0.6-0.5,1.2-0.8,1.6c-0.2-0.1-0.6-0.3-0.9-0.4c0.7-1,1.2-2.6,1.6-4L121,51c-0.1,0.6-0.3,1.1-0.5,1.7h1.8v-2.2h1v2.2h3.1v0.9
		h-3.1L123.2,55.3L123.2,55.3z M129.1,60.2h-1v-8.4h1V60.2z M131.8,50.6v12.3c0,0.7-0.2,1-0.6,1.2c-0.5,0.2-1.3,0.2-2.4,0.2
		c-0.1-0.3-0.2-0.8-0.3-1.1c0.9,0,1.8,0,2,0s0.3-0.1,0.3-0.4V50.6H131.8L131.8,50.6z"/>
	<path class="st0" d="M138.4,60.8v2.4l3.7-0.5c-0.1,0.2-0.1,0.6-0.1,0.8c-4.1,0.7-4.6,0.7-4.8,0.9c-0.1-0.2-0.3-0.6-0.4-0.8
		c0.3-0.1,0.7-0.3,0.7-1v-1.7H136c-0.2,1.2-0.6,2.6-1.7,3.6c-0.1-0.2-0.5-0.5-0.8-0.6c1.4-1.3,1.6-3.1,1.6-4.5v-2.2h11.7V58H136v0.7
		h9.8v0.7H136l0,0c0,0.2,0,0.5,0,0.8h11.3v0.7h-5.7c0.4,0.5,1.1,1,1.8,1.4c0.8-0.4,1.7-0.9,2.2-1.3l0.8,0.4
		c-0.7,0.5-1.5,0.9-2.2,1.2c1,0.4,2.1,0.6,3.4,0.8c-0.2,0.2-0.4,0.5-0.5,0.8c-2.9-0.4-5.2-1.5-6.3-3.3L138.4,60.8L138.4,60.8z
		 M135.2,55.3h-1v-2.6h5.8v-0.9h-5V51h11.1v0.8H141v0.9h5.9v2.6h-1v-1.9H141v3.3h-1v-3.3h-4.9L135.2,55.3L135.2,55.3z M135.6,55.9
		c0.9-0.1,2.3-0.3,3.6-0.5v0.7c-1.2,0.3-2.3,0.5-3.3,0.7L135.6,55.9z M136.2,53.7c1,0.2,2.3,0.5,3,0.8l-0.3,0.6
		c-0.7-0.3-2-0.7-3.1-0.8L136.2,53.7z M145.4,56.8c-0.8-0.3-2.4-0.6-3.6-0.8l0.3-0.6c1.2,0.1,2.7,0.5,3.5,0.8L145.4,56.8z
		 M145.4,54.2c-0.9,0.3-2.1,0.6-3,0.8l-0.4-0.5c0.9-0.2,2.2-0.6,2.9-0.9L145.4,54.2z"/>
</g>
<g>
	<path class="st0" d="M310.6,29.6c-1-0.1-2.1-0.2-3.1-0.4c-2.2-0.4-4.3-1-6.1-2.5c-2.6-2.2-4-5-4.5-8.3c-0.4-2.8-0.3-5.5,0.8-8.2
		c1.5-3.9,4.3-6.5,8.5-7.5c3.7-0.9,7.4-0.9,11.2,0.1c3.6,0.9,6.1,3.1,7.6,6.4c2,4.5,2,9.1-0.2,13.5c-1.8,3.6-4.7,5.7-8.7,6.4
		c-1.1,0.2-2.2,0.3-3.2,0.4c-0.1,0-0.3,0-0.4,0.1H310.6L310.6,29.6z M319.1,15.2c-0.1-0.8-0.2-2.1-0.4-3.4c-0.3-1.4-0.7-2.8-1.7-4
		c-3.1-3.9-10.2-3.3-12.1,1.9c-1.3,3.8-1.4,7.6-0.3,11.4c0.9,3.1,3,4.8,6.2,5.2c2.7,0.3,5.9-1.1,7.1-4.2
		C318.8,20,319,17.9,319.1,15.2L319.1,15.2z"/>
	<path class="st0" d="M372.4,29.6c-1-0.1-2.1-0.2-3.1-0.4c-1.9-0.3-3.8-0.8-5.4-2c-2.5-1.8-4.1-4.3-4.9-7.3c-0.9-3.7-0.7-7.4,1-10.8
		c1.6-3.3,4.2-5.5,7.9-6.4c3.8-0.9,7.5-0.9,11.3,0.1c4.1,1.1,6.7,3.7,8,7.6c0.4,1.2,0.6,2.4,0.8,3.7c0,0.1,0.1,0.3,0.1,0.4v2.6
		c-0.1,0.4-0.1,0.9-0.2,1.3c-0.5,3.4-2,6.2-4.6,8.4c-1.7,1.4-3.8,2-6,2.4c-1,0.2-2.1,0.3-3.1,0.4C374.2,29.6,372.4,29.6,372.4,29.6z
		 M380.8,15.8c0-2.1-0.3-4.1-1-6c-1.1-2.8-3.5-4.5-6.6-4.5s-5.6,1.6-6.6,4.5c-1.3,3.7-1.3,7.5-0.2,11.3c0.9,3.1,3,4.8,6.2,5.1
		c2.7,0.3,6-1,7.2-4.3C380.5,19.9,380.8,17.9,380.8,15.8L380.8,15.8z"/>
	<path class="st0" d="M328.7,12.9V3.2h27.6v9.7h-3.4c0-0.6,0-1.3-0.2-1.9c-0.1-0.6-0.3-1.3-0.6-1.9c-0.8-1.8-2.2-2.7-4.2-2.8
		c-0.7,0-1.4,0-2.2,0c0,0.2,0,0.4,0,0.6c0,5.6,0,11.2,0,16.8c0,1.2,0.5,1.7,1.7,1.7c1.1,0,2.2,0,3.3,0h0.1v3H334v-3.1
		c0.3,0,0.7,0,1,0c0.9,0,1.9,0,2.8,0s1.4-0.6,1.4-1.5c0-5.8,0-11.6,0-17.4c0-0.1,0-0.1,0-0.3c-1.9-0.1-3.9-0.2-5.4,1.3
		c-1.5,1.4-1.7,3.3-1.7,5.3h-3.4V12.9z"/>
	<path class="st0" d="M294.6,3.2v9.7h-3.4c-0.1-0.9-0.2-1.7-0.3-2.6c-0.6-2.6-2.4-4-5.1-4c-0.6,0-1.1,0-1.8,0v0.6
		c0,5.6,0,11.2,0,16.8c0,1.2,0.5,1.7,1.7,1.7s2.3,0,3.5,0v3.1h-16.9v-3.1c0.4,0,0.8,0,1.1,0c0.9,0,1.8,0,2.6,0c1,0,1.5-0.6,1.5-1.5
		c0-5.8,0-11.5,0-17.3c0-0.1,0-0.2,0-0.3c-1.9,0-3.9-0.2-5.4,1.3c-1.5,1.4-1.7,3.3-1.7,5.3H267V3.2H294.6z"/>
	<path class="st0" d="M296.4,54.5H293v-1.1h8.1v1.1h-3.4v10.1h-1.3L296.4,54.5L296.4,54.5z"/>
	<path class="st0" d="M302.1,58.9c0-3.6,2-5.7,4.7-5.7c2.8,0,4.7,2.2,4.7,5.7c0,3.6-2,5.8-4.7,5.8S302.1,62.5,302.1,58.9z
		 M310.2,58.9c0-2.9-1.4-4.6-3.4-4.6c-2.1,0-3.4,1.8-3.4,4.6s1.4,4.7,3.4,4.7S310.2,61.8,310.2,58.9z"/>
	<path class="st0" d="M315.9,54.5h-3.4v-1.1h8.1v1.1h-3.4v10.1h-1.3L315.9,54.5L315.9,54.5z"/>
	<path class="st0" d="M321.6,58.9c0-3.6,1.9-5.7,4.7-5.7s4.7,2.2,4.7,5.7c0,3.6-2,5.8-4.7,5.8S321.6,62.5,321.6,58.9z M329.8,58.9
		c0-2.9-1.4-4.6-3.4-4.6s-3.4,1.8-3.4,4.6s1.4,4.7,3.4,4.7S329.8,61.8,329.8,58.9z"/>
	<path class="st0" d="M336.3,55.1c-0.3,0.6-0.7,1.3-1.1,1.9v8.6h-0.9v-7.3c-0.4,0.6-0.9,1.2-1.4,1.7c-0.1-0.2-0.4-0.7-0.6-0.9
		c1.1-1.1,2.3-2.8,3.1-4.4L336.3,55.1z M336,52.2c-0.7,1.2-1.9,2.6-3,3.5c-0.1-0.2-0.4-0.6-0.6-0.8c1-0.8,2.1-2,2.6-3L336,52.2z
		 M340.4,63.8v1.9h-0.9v-1.9h-3.1c0.1-0.6,0.3-1.5,0.4-2.3h-0.7v-0.8h3.4v-0.9h-2.6v-3h5.2v3h-1.7v0.9h2.1v0.8h-2.1V63h2.5v0.8
		L340.4,63.8L340.4,63.8z M342.8,56h-6.5v-0.8h1.6c0.1-0.4,0.2-0.9,0.3-1.4h-1.4V53h1.6c0.1-0.4,0.1-0.8,0.2-1.2l0.9,0.1
		c-0.1,0.4-0.1,0.8-0.2,1.1h2.5v2.2h1V56L342.8,56z M339.5,63.1v-1.5h-1.9c-0.1,0.5-0.1,1-0.2,1.5H339.5L339.5,63.1z M337.6,59.1
		h3.6v-1.5h-3.6V59.1z M339.1,53.8c-0.1,0.5-0.2,1-0.3,1.4h2.1v-1.4H339.1z M346.6,57.8h-1.4v6.6c0,0.6-0.1,0.9-0.5,1
		c-0.4,0.2-1.1,0.2-2.1,0.2c-0.1-0.3-0.2-0.7-0.3-1c0.8,0,1.5,0,1.7,0s0.3-0.1,0.3-0.3v-6.6h-1.7v-0.9h4.1v1H346.6z M346.3,53.7
		h-3.5v-0.9h3.5V53.7z"/>
	<path class="st0" d="M350.5,58.5c-0.6-0.5-1.7-1.1-2.6-1.6l0.6-0.7c0.9,0.4,2,1.1,2.6,1.5L350.5,58.5L350.5,58.5z M348.4,64.8
		c0.6-1,1.6-2.8,2.2-4.3l0.8,0.6c-0.6,1.4-1.4,3.1-2.1,4.4L348.4,64.8z M351.5,54.6c-0.6-0.5-1.9-1.4-2.8-1.9l0.6-0.7
		c1,0.5,2.2,1.3,2.8,1.8L351.5,54.6L351.5,54.6z M357.2,54.8c-0.1,0.2-0.1,0.3-0.2,0.5c1.3,2.2,3,3.6,5,4.6
		c-0.3,0.2-0.5,0.5-0.7,0.8c-0.4-0.2-0.8-0.5-1.1-0.7v5.6h-1v-0.5H354v0.6h-1V60c-0.4,0.3-0.7,0.5-1.1,0.7c-0.1-0.3-0.4-0.6-0.7-0.8
		c2.2-1.1,4.1-3.2,5.1-5.5L357.2,54.8L357.2,54.8z M355.8,52.3c-0.8,1.5-2.1,3-3.2,3.9c-0.2-0.2-0.6-0.5-0.9-0.6
		c1.2-0.9,2.4-2.3,3.1-3.7L355.8,52.3L355.8,52.3z M360.1,60c-1.4-1-2.6-2.2-3.7-3.8c-0.9,1.5-2.1,2.8-3.5,3.8H360.1z M359.1,64.2
		V61h-5.2v3.2H359.1z M360.7,56c-0.7-0.9-2.1-2.4-3.2-3.5l0.8-0.5c1.1,1,2.5,2.5,3.2,3.4L360.7,56L360.7,56z"/>
</g>
<g>
	<path class="st0" d="M609.4,28.3c-1.5-3.3-2.9-6.6-4.4-10c-2.3-5.3-4.7-10.6-7-15.9c-0.2-0.4-0.4-0.5-0.8-0.5c-1.6,0-3.3,0-4.9,0
		c-0.4,0-0.6,0.1-0.8,0.5c-0.8,1.8-1.6,3.6-2.3,5.3c-2.8,6.4-5.6,12.8-8.5,19.2c0,0.1-0.1,0.2-0.2,0.4c-0.1-0.1-0.2-0.2-0.3-0.3
		c-2-2.6-4-5.3-6-7.9c-0.3-0.4-0.2-0.4,0.2-0.5c1.5-0.4,2.7-1.2,3.8-2.2c2.6-2.6,3.2-6.6,1.4-9.9c-1.5-2.7-3.8-4.4-7-4.5
		c-5.5-0.1-11,0-16.5,0c-0.5,0-0.6,0-0.6,0.6c0,1.5,0,3,0,4.5v21.1c0,0.5,0.2,0.7,0.7,0.7c1.4,0,2.8,0,4.1,0c0.5,0,0.8-0.3,0.8-0.8
		c0-6.7,0-13.3,0-20c0-0.6,0-0.6,0.5-0.6c3.4,0,6.8,0,10.3,0c1.6,0,2.8,1.3,2.8,3c0,1.3-1.2,2.9-2.9,2.9c-2.9-0.1-5.8,0-8.7,0
		c-0.2,0-0.4,0-0.6,0.1c0.2,0.2,0.3,0.4,0.4,0.6c3.7,4.8,7.5,9.7,11.2,14.5c0.2,0.3,0.5,0.4,0.8,0.4c3.4,0,6.7,0,10.1,0
		c0.4,0,0.6-0.1,0.7-0.5c0.8-1.8,1.6-3.6,2.3-5.5c0.1-0.4,0.3-0.5,0.7-0.5c3.8,0,7.7,0,11.5,0c0.4,0,0.6,0.1,0.8,0.5
		c0.8,1.8,1.5,3.6,2.3,5.4c0.2,0.4,0.4,0.6,0.8,0.5c1.5,0,3.1,0,4.6,0C609.6,28.9,609.6,28.8,609.4,28.3L609.4,28.3z M598.1,17.2
		c-2.2,0-4.5,0-6.7,0c-0.1,0-0.3,0-0.5,0c1.3-3,2.6-5.9,3.9-9c0.1,0.2,0.2,0.3,0.2,0.4c1.2,2.7,2.3,5.3,3.5,8
		C598.7,17.1,598.7,17.1,598.1,17.2L598.1,17.2z"/>
	<path class="st0" d="M452.8,28.9c-2.7,0-5.3,0-8,0c-0.7,0-0.7,0-0.7-0.7c0-1.3,0-2.7,0-4c0-0.6,0-0.6,0.6-0.6c5,0,9.9,0,14.9,0
		c1.3,0,2.3-0.7,2.8-2c0.6-1.7-0.7-3.6-2.6-3.6c-2.8,0-5.5,0-8.3,0c-0.5,0-0.9,0-1.4-0.1c-3.9-0.4-6.8-3.4-7.2-7.2
		c-0.4-3.5,2.2-8,6.9-8.6c0.3,0,0.6,0,0.9,0c5.1,0,10.1,0,15.2,0c0.7,0,0.7,0,0.7,0.7c0,1.3,0,2.7,0,4c0,0.7,0,0.7-0.7,0.7
		c-4.9,0-9.8,0-14.6,0c-1.2,0-2.1,0.6-2.5,1.8c-0.4,1,0,2.2,0.8,2.9c0.5,0.4,1.1,0.6,1.8,0.6c2.8,0,5.6,0,8.4,0c2,0,3.8,0.4,5.4,1.6
		c2,1.5,3,3.4,3.1,5.9c0.1,1.7-0.2,3.4-1.1,4.9c-1.4,2.4-3.7,3.7-6.4,3.8C458.2,29,455.5,28.9,452.8,28.9L452.8,28.9z"/>
	<path class="st0" d="M498.7,28.3c-3.8-8.6-7.6-17.2-11.4-25.9c-0.1-0.3-0.3-0.5-0.7-0.5c-1.6,0-3.3,0-4.9,0c-0.4,0-0.6,0.1-0.8,0.5
		c-3.8,8.6-7.6,17.2-11.4,25.8c-0.1,0.1-0.1,0.3-0.2,0.5c0.2,0,0.4,0,0.5,0c1.6,0,3.1,0,4.7,0c0.4,0,0.6-0.1,0.8-0.5
		c0.8-1.8,1.5-3.6,2.3-5.4c0.1-0.3,0.4-0.5,0.7-0.5c3.9,0,7.7,0,11.6,0c0.4,0,0.6,0.1,0.7,0.5c0.8,1.8,1.6,3.6,2.3,5.5
		c0.1,0.4,0.4,0.5,0.7,0.5c1.6,0,3.2,0,4.7,0C498.9,28.9,498.9,28.8,498.7,28.3L498.7,28.3z M487.5,17.2c-2.2,0-4.5,0-6.7,0
		c-0.5,0-0.5-0.1-0.4-0.5c1.1-2.7,2.3-5.4,3.5-8.1c0-0.1,0.1-0.2,0.2-0.4c0.1,0.2,0.2,0.3,0.2,0.4c1.2,2.7,2.3,5.4,3.5,8.1
		C488,17.1,488,17.2,487.5,17.2L487.5,17.2z"/>
	<path class="st0" d="M525.3,11.3c0-2.9,0-5.7,0-8.6c0-0.6,0-0.7,0.7-0.7c1.5,0,2.9,0,4.4,0c0.6,0,0.6,0,0.6,0.6
		c0,5.6,0,11.2,0,16.9c0,1.4,0.5,2.5,1.6,3.3c0.6,0.5,1.3,0.7,2,0.7c2.4,0,4.7,0,7.1,0c2,0,3.6-1.8,3.6-3.8c0-2.9,0-5.8,0-8.7
		c0-2.8,0-5.5,0-8.3c0-0.6,0-0.6,0.6-0.6c1.5,0,3,0,4.5,0c0.5,0,0.6,0,0.6,0.6c0,5.6,0,11.3,0,16.9c0,2.3-1,4.3-2.4,6
		c-1.9,2.2-4.3,3.3-7.2,3.3c-2.1,0-4.2,0-6.3,0c-6.1,0.1-9.1-4.7-9.7-8.6c0-0.2,0-0.5,0-0.7C525.3,16.8,525.3,14.1,525.3,11.3
		L525.3,11.3z"/>
	<path class="st0" d="M506.5,16.8c0,0.2,0,0.4,0,0.5c0,3.6,0,7.2,0,10.9c0,0.7,0,0.7-0.7,0.7c-1.5,0-2.9,0-4.4,0
		c-0.5,0-0.6-0.1-0.6-0.6c0-8.6,0-17.1,0-25.7c0-0.5,0.1-0.6,0.6-0.6c1.5,0,3,0,4.5,0c0.5,0,0.6,0,0.6,0.6c0,3.1,0,6.2,0,9.4
		c0,0.2,0,0.3,0,0.6c0.1-0.1,0.2-0.2,0.3-0.2c2.9-3.2,5.8-6.5,8.7-9.7c0.4-0.4,0.7-0.6,1.3-0.6c1.9,0,3.8,0,5.6,0c0.2,0,0.4,0,0.6,0
		c-0.1,0.2-0.2,0.3-0.2,0.4c-3.4,3.9-6.9,7.9-10.3,11.8c-0.4,0.5-0.4,0.5,0,1c3.8,4.4,7.6,8.8,11.3,13.2c0.1,0.1,0.1,0.2,0.3,0.4
		c-0.2,0-0.4,0-0.5,0c-2,0-4,0-6.1,0c-0.3,0-0.6-0.1-0.8-0.4c-2.8-3.3-5.6-6.6-8.4-9.9c-0.5-0.6-0.9-1.1-1.4-1.7
		c-0.1-0.1-0.1-0.2-0.2-0.3C506.6,16.7,506.6,16.7,506.5,16.8L506.5,16.8z"/>
	<path class="st0" d="M463,63.4l0.8-0.9c0.8,0.9,1.9,1.4,3.1,1.4c1.5,0,2.5-0.8,2.5-1.9c0-1.2-0.8-1.6-1.9-2.1l-1.6-0.7
		c-1-0.4-2.3-1.2-2.3-2.8s1.5-2.9,3.4-2.9c1.3,0,2.5,0.6,3.2,1.4l-0.7,0.8c-0.7-0.7-1.5-1.1-2.6-1.1c-1.3,0-2.2,0.7-2.2,1.7
		c0,1.1,1,1.6,1.9,1.9l1.6,0.7c1.3,0.6,2.3,1.3,2.3,3c0,1.8-1.4,3.1-3.8,3.1C465.3,65,464,64.4,463,63.4L463,63.4z"/>
	<path class="st0" d="M477.9,61.3h-4.2l-1.1,3.5h-1.3l3.8-11.2h1.4l3.8,11.2H479L477.9,61.3z M477.6,60.3l-0.6-1.8
		c-0.4-1.3-0.8-2.5-1.2-3.8h-0.1c-0.4,1.3-0.7,2.5-1.1,3.8l-0.6,1.8H477.6z"/>
	<path class="st0" d="M482,53.6h1.3v5.8l0,0l4.8-5.8h1.5l-3.5,4.2l4,6.9h-1.4l-3.4-5.9l-2,2.3v3.6H482V53.6z"/>
	<path class="st0" d="M491.5,60.3v-6.6h1.3v6.7c0,2.8,1.2,3.6,2.7,3.6s2.8-0.8,2.8-3.6v-6.7h1.2v6.6c0,3.6-1.8,4.7-4,4.7
		S491.5,63.8,491.5,60.3L491.5,60.3z"/>
	<path class="st0" d="M508.6,64.8l-2.8-4.8h-2.1v4.8h-1.3V53.6h3.4c2.3,0,3.9,0.8,3.9,3.1c0,1.8-1,2.8-2.6,3.1l2.9,4.9h-1.4V64.8z
		 M503.7,59h2c1.8,0,2.8-0.7,2.8-2.2s-1-2.1-2.8-2.1h-2V59z"/>
	<path class="st0" d="M517.1,61.3h-4.2l-1.1,3.5h-1.3l3.8-11.2h1.4l3.8,11.2h-1.3L517.1,61.3z M516.7,60.3l-0.6-1.8
		c-0.4-1.3-0.8-2.5-1.2-3.8h-0.1c-0.4,1.3-0.7,2.5-1.1,3.8l-0.6,1.8H516.7z"/>
	<path class="st0" d="M524.3,59.9c-0.2-0.5-0.7-1.3-1-2v8h-0.9v-7.4c-0.5,1.7-1.1,3.3-1.7,4.3c-0.1-0.3-0.3-0.7-0.5-1
		c0.9-1.3,1.7-3.8,2.1-5.9h-1.8v-1h1.9v-3h0.9v3h1.7v1h-1.7v0.8c0.4,0.5,1.4,2,1.6,2.4L524.3,59.9L524.3,59.9z M526.8,58.3
		c-0.3,0.6-0.8,1.4-1.3,1.9l-0.6-0.5c0.5-0.4,1-1.2,1.3-1.7L526.8,58.3z M533.2,66c-0.8-0.4-2-0.9-3.4-1.3c-1.1,0.7-2.6,1.1-4.5,1.4
		c-0.1-0.3-0.3-0.6-0.4-0.8c1.6-0.2,2.8-0.5,3.8-0.9c-0.9-0.3-1.8-0.5-2.7-0.7c0.3-0.4,0.6-0.9,0.9-1.5h-2v-0.8h2.5
		c0.3-0.6,0.6-1.2,0.8-1.8l0.9,0.2c-0.2,0.5-0.4,1.1-0.7,1.6h3.1c0.1-0.2,0.1-0.5,0.2-0.7l0.9,0.2c-0.1,0.2-0.1,0.4-0.1,0.5h1.5v0.8
		h-1.8c-0.3,0.8-0.8,1.5-1.5,2c1.3,0.4,2.5,0.9,3.4,1.3L533.2,66L533.2,66z M528.9,57.8h-3.6v-5.3h3.6V57.8z M528.1,53.2h-2v0.9h2
		V53.2z M528.1,54.8h-2v0.9h2V54.8z M528.1,56.3h-2v0.9h2V56.3z M528,62.1c-0.2,0.4-0.4,0.8-0.6,1.1c0.7,0.2,1.5,0.4,2.3,0.6
		c0.7-0.5,1.1-1,1.5-1.7C531.2,62.1,528,62.1,528,62.1z M528.1,58c0.4,0.3,0.8,0.8,1.1,1.1l-0.6,0.4c-0.2-0.3-0.7-0.8-1.1-1.2
		L528.1,58z M531.2,58.3c-0.3,0.6-0.8,1.4-1.3,1.9l-0.6-0.6c0.5-0.4,1-1.1,1.3-1.7L531.2,58.3L531.2,58.3z M533.5,57.8h-3.7v-5.3
		h3.7V57.8z M532.7,53.2h-2.1v0.9h2.1V53.2z M532.7,54.8h-2.1v0.9h2.1V54.8z M532.7,56.3h-2.1v0.9h2.1V56.3z M532.6,58
		c0.5,0.5,1.1,1.2,1.4,1.6l-0.6,0.5c-0.3-0.5-0.9-1.2-1.4-1.8L532.6,58z"/>
	<path class="st0" d="M540.5,56.4c-0.4,0.8-0.8,1.5-1.3,2.2V66h-1v-6c-0.6,0.7-1.2,1.4-1.9,1.9c-0.2-0.2-0.6-0.5-0.8-0.7
		c1.6-1.2,3.1-3.1,4-5L540.5,56.4z M540.5,53.6h1.6v1h-1.6V56h-1v-1.5h-3.7v-1h3.7v-1.6h1V53.6z M544.5,54.6h-1.7v-1h1.7V52h1v1.6
		h3.6v1h-3.6v1.6h-1V54.6z M547.5,64.8c0.7,0,0.8-0.4,0.9-2.4c0.2,0.2,0.6,0.3,0.9,0.4c-0.2,2.2-0.4,2.9-1.8,2.9h-2.9
		c-1.4,0-1.9-0.4-1.9-1.7v-7.8h1v2.6h5.3v1h-5.3V64c0,0.6,0.1,0.8,0.9,0.8H547.5z"/>
	<path class="st0" d="M564.7,53.5v0.9h-11.9v3.8c0,2.3-0.2,5.6-1.3,7.9c-0.2-0.2-0.6-0.5-0.8-0.6c1.1-2.2,1.2-5.1,1.2-7.3v-4.7h6
		c-0.2-0.4-0.5-1-0.8-1.3l0.8-0.4c0.5,0.5,0.9,1.1,1,1.7H564.7L564.7,53.5z M558.2,62.5c-0.2,0.6-0.5,1.3-0.8,1.8
		c0.6-0.1,1.2-0.2,1.8-0.2v0.8c-2.1,0.3-4.4,0.6-6,0.8l-0.2-0.9c0.9-0.1,2.2-0.2,3.5-0.4c0.3-0.6,0.7-1.5,0.8-2.1L558.2,62.5
		L558.2,62.5z M556.7,55.8h2.6v0.8h-2.6v1.1h2.2v0.8h-5.3v-0.8h2.2v-1.1h-2.5v-0.8h2.5v-1h0.9L556.7,55.8L556.7,55.8z M558.6,62
		h-4.8v-2.7h4.8V62z M554.7,64.3c-0.1-0.5-0.4-1.2-0.8-1.8l0.8-0.2c0.4,0.5,0.7,1.2,0.8,1.7L554.7,64.3z M557.7,60h-3v1.3h3V60z
		 M563.2,57.3h1.4v0.9h-1.4v6.6c0,0.6-0.1,0.9-0.6,1c-0.4,0.2-1.1,0.2-2.2,0.2c0-0.3-0.2-0.7-0.3-0.9c0.9,0,1.7,0,1.9,0
		s0.3-0.1,0.3-0.3v-6.6h-2.9v-0.9h2.9v-2.5h0.9L563.2,57.3L563.2,57.3z M560.7,62.6c-0.2-0.9-0.7-2.3-1.3-3.3l0.8-0.3
		c0.6,1,1.1,2.4,1.3,3.3L560.7,62.6z"/>
	<path class="st0" d="M571.4,63.4c-1.2,1-3,2-4.6,2.6c-0.1-0.2-0.5-0.6-0.7-0.8c1.6-0.6,3.5-1.6,4.4-2.4L571.4,63.4L571.4,63.4z
		 M579.8,62.6h-13.6v-0.9h2.3v-8.9h9.1v8.9h2.2V62.6z M569.5,53.7V55h7v-1.4h-7V53.7z M576.5,55.8h-7v1.4h7V55.8z M569.5,58v1.4h7
		V58H569.5z M569.5,61.7h7v-1.5h-7V61.7z M575.3,62.8c1.7,0.7,3.5,1.7,4.6,2.4l-0.8,0.8c-1-0.7-2.8-1.7-4.4-2.5L575.3,62.8z"/>
</g>
<g>
	<path class="st0" d="M49,177.2h111.7v3.6H160c-24.7,0-49.4,0-74.1,0c-12.1,0-24.2,0-36.3,0c-0.4,0-0.7-0.2-0.7-0.7
		C49,179.2,49,178.3,49,177.2z"/>
	<path class="st0" d="M93,161.1c0.1-0.2,0.1-0.3,0.2-0.5c0.5-0.8,0.8-1.7,1.4-2.4c1.6-1.9,4.4-1.5,5.6,0.8c0.6,1.1,0.7,2.3,0.7,3.5
		c0,2.6,0,5.3,0,7.9c0,0.3,0,0.6,0.1,0.9c0.1,0.7,0.4,0.9,1.1,1c0.1,0,0.2,0,0.4,0v1.2h-6.7v-1.2c1.4-0.1,1.5-0.6,1.5-1.8
		c0-2.7,0-5.4,0-8.1c0-0.6-0.1-1.2-0.3-1.8c-0.3-1-1.5-1.3-2.2-0.5c-0.4,0.4-0.7,1-0.9,1.6c-0.5,1.2-0.6,2.4-0.6,3.7
		c0,1.7,0,3.4,0,5.1c0,1.6,0.3,1.7,1.5,1.8v1.1H88v-1.1l0.1-0.1c1.1-0.1,1.4-0.4,1.4-1.4c0-3.1,0-6.2-0.1-9.3c0-0.3-0.1-0.7-0.2-1
		c-0.4-1-1.5-1.2-2.2-0.5c-0.6,0.6-0.9,1.5-1.1,2.3s-0.3,1.6-0.3,2.3c-0.1,2,0,4,0,6.1c0,0.3,0.1,0.5,0.1,0.8
		c0.2,0.6,0.8,0.6,1.3,0.7v1.2h-6.9v-1.2c0.1,0,0.1,0,0.2,0c1.2-0.1,1.5-0.4,1.5-1.5c0-3.5,0-7,0-10.5c0-0.2,0-0.3,0-0.5
		c-0.1-0.7-0.4-1-1.1-1c-0.2,0-0.4,0-0.6-0.1v-1.2c1.7-0.1,3.5-0.2,5.3-0.3c-0.1,1.3-0.1,2.6-0.2,3.9h0.1c0.1-0.1,0.1-0.2,0.2-0.3
		c0.4-1,0.8-1.9,1.6-2.6c0.8-0.7,1.7-1.1,2.7-1c1.6,0.2,2.5,1.1,2.9,3C92.8,160.4,92.8,160.8,93,161.1
		C92.9,161.1,92.9,161.1,93,161.1L93,161.1z"/>
	<path class="st0" d="M64.5,173.5H49v-1.2c0.3,0,0.7,0,1,0c1-0.1,1.4-0.4,1.5-1.4c0-0.3,0-0.5,0-0.8c0-5.5,0-11,0-16.6
		c0-0.4,0-0.7-0.1-1c-0.1-0.9-0.5-1.2-1.4-1.3c-0.3,0-0.7,0-1,0V150h9.6v1.2c-0.3,0-0.7,0-1,0c-1.2,0-1.7,0.4-1.8,1.6
		c0,0.4,0,0.8,0,1.2c0,5.4,0,10.8,0,16.2c0,1.8,0.4,2.2,2.2,2.1c0.7,0,1.4-0.1,2-0.2c1.1-0.3,1.9-1.1,2.4-2.2
		c0.8-1.5,1.1-3.1,1.4-4.8c0.1-0.4,0.2-0.8,0.2-1.2s0.2-0.6,0.6-0.5c0.1,0,0.3,0,0.5,0C64.8,166.8,64.7,170.2,64.5,173.5z"/>
	<path class="st0" d="M79.2,171.6c0.2,0.2,0.3,0.4,0.4,0.6c-0.8,1.2-2.1,1.8-3.4,1.6c-0.8-0.1-1.4-0.5-1.7-1.2
		c-0.3-0.6-0.4-1.4-0.7-2.1c-0.1,0.1-0.1,0.2-0.2,0.3c-0.4,0.9-1,1.7-1.7,2.3c-1.3,1.1-3.2,1.1-4.4,0.2c-0.8-0.6-1.1-1.5-1.2-2.4
		c-0.2-2.1,0.5-3.8,2.3-5c1.5-0.9,3.2-1.5,4.8-1.9c0.4-0.1,0.6-0.3,0.6-0.8c-0.1-1-0.1-2-0.3-2.9c-0.4-1.9-2.2-2.6-3.8-1.6
		c-0.5,0.3-0.5,0.6,0,0.9c1.2,0.8,1.3,2.8,0.3,3.8c-0.9,0.9-2.4,0.7-2.9-0.6c-0.6-1.3-0.3-2.5,0.4-3.7c0.5-0.9,1.3-1.4,2.3-1.7
		c1.2-0.4,2.4-0.5,3.6-0.3c2.2,0.4,3.5,1.8,3.9,4c0.1,0.6,0.2,1.3,0.2,2c0,2.6,0,5.2,0,7.7c0,0.3,0,0.6,0.1,0.8
		c0.2,0.7,0.7,0.8,1.2,0.4C79,171.8,79.1,171.7,79.2,171.6L79.2,171.6z M73.9,164.9c-0.1,0-0.1,0-0.2,0c-2.6,0.8-4,2.3-3.8,5
		c0.1,0.7,0.2,1.3,0.9,1.6c0.7,0.2,1.3-0.2,1.7-0.7C74.1,169.1,73.9,167,73.9,164.9z"/>
	<path class="st0" d="M114.8,165.9h-8.2c0,1.2,0.1,2.3,0.4,3.4c0,0.2,0.1,0.3,0.1,0.5c0.8,2.2,2.8,2.9,4.8,1.7
		c0.9-0.5,1.4-1.4,2-2.2c0.1-0.1,0.2-0.2,0.2-0.3c0.5,0.3,0.6,0.7,0.4,1.2c-0.6,1.2-1.3,2.3-2.4,3c-2.5,1.7-6,1-7.8-1.6
		c-1.6-2.3-1.9-4.8-1.6-7.5c0.2-1.9,0.8-3.6,2-5.1c1.2-1.4,2.7-2.3,4.6-2.2c2.1,0.1,3.5,1.3,4.4,3c0.7,1.3,1,2.7,1.1,4.1
		C114.9,164.6,114.8,165.2,114.8,165.9L114.8,165.9z M106.6,164.6c1.2,0,2.3,0,3.5,0c0.5,0,0.9-0.4,0.9-1c0-1.1,0-2.2-0.2-3.3
		c-0.1-0.6-0.4-1.2-0.7-1.7c-0.5-0.8-1.5-0.8-2.2-0.1c-0.2,0.2-0.3,0.4-0.4,0.6C106.7,160.9,106.6,162.7,106.6,164.6L106.6,164.6z"
		/>
	<path class="st0" d="M117.2,158.8h-2c0-0.3,0-0.6,0-0.8c0-0.1,0.1-0.3,0.2-0.3c2.5-0.7,3.7-2.6,4.2-5c0.1-0.5,0.2-1,0.3-1.5h1v6.2
		h3.5v1.3h-3.5c0,0.2,0,0.3,0,0.4c0,3.2,0,6.4,0,9.6c0,0.6,0.1,1.3,0.2,1.9c0.2,0.7,0.6,1,1.1,1c0.6,0,1.1-0.3,1.3-0.9
		c0.2-0.7,0.4-1.5,0.5-2.2c0.1-0.8,0.1-0.8,1-0.8c0,0.6,0,1.2-0.1,1.8c-0.2,0.8-0.3,1.6-0.7,2.4c-0.6,1.4-1.8,2.1-3.4,1.9
		c-1.6-0.1-2.8-0.9-3.2-2.4c-0.2-0.8-0.3-1.6-0.4-2.5c0-3.3,0-6.5,0-9.8V158.8L117.2,158.8z"/>
	<path class="st0" d="M127.7,158.8h-2v-1.1c3.4-0.8,4.2-3.5,4.7-6.4h1v6.2h3.5v1.3h-3.5c0,0.2,0,0.3,0,0.5c0,3.3,0,6.5,0,9.8
		c0,0.6,0.1,1.3,0.3,1.9c0.1,0.5,0.4,0.8,1,0.9c0.6,0,1.1-0.2,1.2-0.7c0.2-0.7,0.4-1.5,0.5-2.2c0.1-0.3,0.1-0.6,0.1-0.9h0.9
		c-0.1,0.8-0.1,1.6-0.2,2.3c-0.2,0.8-0.4,1.6-0.8,2.3c-0.7,1.2-1.9,1.6-3.2,1.5c-1.4-0.1-2.4-0.8-2.9-2.1c-0.4-0.9-0.5-1.8-0.5-2.7
		c0-3.3,0-6.5,0-9.8v-0.8H127.7z"/>
	<path class="st0" d="M160,172.3c0.3,0,0.5,0,0.8,0.1v1.1H138v-1.1c-0.9-0.2-0.9-0.2-0.8-1.3h0.1c0.7-0.1,0.7-0.1,0.7-0.8
		c0-0.4,0.1-0.5,0.5-0.5c7.3,0,14.5,0,21.8,0h0.5v1.1c-0.2,0-0.5,0-0.8,0.1V172.3L160,172.3z"/>
	<path class="st0" d="M93.6,190.4c-0.3-0.2-0.5-0.3-0.6-0.4c-0.8-1.1-1.7-2.2-2.6-3.4v3.7h-0.5v-4.7c0.3,0.1,0.5,0.2,0.6,0.4
		c0.8,1,1.5,2,2.3,2.9c0.1,0.1,0.2,0.2,0.3,0.4v-3.6h0.5C93.6,185.7,93.6,190.4,93.6,190.4z"/>
	<path class="st0" d="M136.3,185.7c0.8,0,1.4,0,2.1,0c0.6,0,0.9,0.4,1.1,0.9c0.2,0.5,0.1,1.1-0.4,1.4c-0.1,0.1-0.3,0.2-0.5,0.3
		c0.3,0.6,0.7,1.2,1,1.8c-0.3,0.1-0.5,0.1-0.7-0.2c-0.1-0.2-0.2-0.4-0.4-0.7c-0.4-0.7-1-1-1.8-0.9c0,0.5,0,1,0,1.5
		c0,0.1-0.2,0.2-0.2,0.3c-0.1-0.1-0.2-0.2-0.2-0.3C136.3,188.6,136.3,187.2,136.3,185.7L136.3,185.7z M136.8,188c0.5,0,1,0,1.5,0
		c0.4,0,0.7-0.4,0.8-0.9c0-0.5-0.2-0.9-0.7-0.9c-0.5-0.1-1,0-1.6,0V188L136.8,188z"/>
	<path class="st0" d="M104.5,190.4c-1.3,0-2.3-1-2.4-2.3c0-1.3,1-2.4,2.4-2.4c1.3,0,2.4,1.1,2.4,2.4
		C106.9,189.3,105.8,190.4,104.5,190.4z M106.3,188c0-1.1-0.8-1.9-1.9-1.9s-1.9,0.8-1.9,1.9c0,1.1,0.8,1.9,1.9,1.9
		S106.3,189.1,106.3,188L106.3,188z"/>
	<path class="st0" d="M128.6,188c0,1.3-1,2.4-2.4,2.4c-1.3,0-2.4-1-2.4-2.4c0-1.3,1-2.3,2.4-2.3C127.6,185.6,128.6,186.7,128.6,188z
		 M126.2,186.1c-1.1,0-1.9,0.9-1.9,1.9c0,1.1,0.8,1.9,1.9,1.9s1.9-0.8,1.9-1.9C128.1,186.9,127.3,186.1,126.2,186.1L126.2,186.1z"/>
	<path class="st0" d="M134.7,188c0,1.3-1.1,2.4-2.4,2.4c-1.3,0-2.4-1.1-2.4-2.4c0-1.3,1.1-2.3,2.4-2.3
		C133.7,185.6,134.7,186.7,134.7,188z M132.3,189.9c1.1,0,1.9-0.8,1.9-1.9c0-1.1-0.8-1.9-1.9-1.9c-1.1,0-1.9,0.8-1.9,1.9
		C130.4,189.1,131.3,189.9,132.3,189.9L132.3,189.9z"/>
	<path class="st0" d="M88.2,188c0,1.3-1.1,2.3-2.4,2.3s-2.3-1.1-2.3-2.4c0-1.3,1.1-2.4,2.4-2.4C87.2,185.6,88.2,186.7,88.2,188z
		 M85.8,189.9c1.1,0,1.9-0.8,1.9-1.9c0-1.1-0.8-1.9-1.8-1.9c-1.1,0-1.9,0.8-1.9,1.9C84,189.1,84.8,189.9,85.8,189.9z"/>
	<path class="st0" d="M108.5,185.7c0.7,0,1.4,0,2.1,0c0.6,0,1,0.5,1.1,1c0.1,0.6,0,1.1-0.5,1.4c-0.1,0.1-0.2,0.1-0.4,0.2
		c0.3,0.6,0.7,1.2,1,1.8c-0.3,0.1-0.5,0.1-0.7-0.2c-0.2-0.4-0.5-0.8-0.6-1.1c-0.2-0.4-0.4-0.5-0.8-0.4c-0.2,0-0.5,0-0.8,0v1.8
		c-0.2,0-0.3,0-0.5,0L108.5,185.7L108.5,185.7z M109,186.2v1.8c0.5,0,1,0,1.6,0c0.4,0,0.7-0.4,0.7-0.9s-0.3-0.8-0.7-0.9
		C110.1,186.2,109.5,186.2,109,186.2L109,186.2z"/>
	<path class="st0" d="M67.2,190.2c0.6-1.5,1.2-2.9,1.8-4.3c0-0.1,0.2-0.2,0.3-0.2c0.1,0,0.3,0.1,0.3,0.3c0.4,1,0.8,1.9,1.2,2.9
		c0.2,0.4,0.4,0.9,0.5,1.3c-0.3,0.2-0.5,0.1-0.6-0.2c-0.2-0.9-0.8-1.1-1.6-1c-1,0.1-1,0-1.3,0.9C67.7,190.2,67.6,190.4,67.2,190.2
		L67.2,190.2z M69.3,186.4c-0.3,0.8-0.6,1.4-0.9,2.1h1.7C69.9,187.8,69.6,187.1,69.3,186.4L69.3,186.4z"/>
	<path class="st0" d="M63.3,185.7c0.7,0,1.4,0,2,0c0.8,0.1,1.3,0.7,1.2,1.5s-0.6,1.4-1.4,1.4c-0.4,0-0.8,0-1.3,0c0,0.5,0,0.9,0,1.4
		c0,0.1-0.2,0.2-0.2,0.3c-0.1-0.1-0.2-0.2-0.2-0.3C63.2,188.6,63.3,187.2,63.3,185.7L63.3,185.7z M63.8,188.1c0.6,0,1.1,0,1.6-0.1
		c0.4-0.1,0.7-0.5,0.7-0.9c0-0.5-0.3-0.9-0.7-0.9c-0.5-0.1-1,0-1.5,0c0,0.1,0,0.2,0,0.3C63.8,187,63.8,187.5,63.8,188.1L63.8,188.1z
		"/>
	<path class="st0" d="M75.4,186.2c-0.1,0.1-0.2,0.2-0.3,0.3v-0.1c-0.4-0.1-0.8-0.2-1.3-0.3c-0.4,0-0.7,0.2-0.8,0.7
		c-0.1,0.4,0.2,0.6,0.6,0.8c0.4,0.1,0.8,0.2,1.2,0.4c0.6,0.2,0.8,0.6,0.8,1.2c0,0.6-0.4,1-0.9,1.1c-0.8,0.2-1.5,0.1-2.1-0.6
		c0-0.1,0.1-0.1,0.1-0.2c0-0.1,0.1-0.1,0.1-0.1s0.1,0,0.1,0.1c0.4,0.4,0.9,0.5,1.4,0.4c0.4-0.1,0.8-0.3,0.8-0.7s-0.2-0.6-0.6-0.8
		c-0.4-0.1-0.7-0.2-1.1-0.4c-0.6-0.2-0.9-0.6-0.8-1.2c0-0.5,0.4-1,0.9-1.1C74.2,185.5,74.8,185.7,75.4,186.2L75.4,186.2z"/>
	<path class="st0" d="M76.7,189.7c0.1-0.1,0.2-0.2,0.3-0.3c0.1,0,0.1,0,0.1,0.1c0.4,0.4,0.9,0.5,1.5,0.4c0.4-0.1,0.7-0.3,0.7-0.7
		s-0.2-0.6-0.5-0.8c-0.4-0.2-0.8-0.3-1.2-0.4c-0.6-0.2-0.8-0.6-0.8-1.1s0.4-1,0.9-1.1c0.7-0.2,1.3,0,1.9,0.5
		c-0.1,0.1-0.2,0.2-0.3,0.3v-0.1c-0.4-0.1-0.8-0.2-1.3-0.3c-0.4,0-0.7,0.2-0.8,0.7c0,0.4,0.2,0.6,0.6,0.8c0.4,0.1,0.7,0.2,1.1,0.4
		c0.6,0.2,0.9,0.7,0.8,1.3s-0.5,1-1.1,1.1C78,190.5,77.3,190.3,76.7,189.7L76.7,189.7z"/>
	<path class="st0" d="M143.8,186.2c-0.1,0.1-0.2,0.2-0.3,0.3v-0.1c-0.4-0.1-0.8-0.2-1.3-0.3c-0.4,0-0.7,0.2-0.8,0.7
		c-0.1,0.4,0.2,0.6,0.6,0.8c0.3,0.1,0.7,0.2,1.1,0.4c0.6,0.2,0.9,0.6,0.9,1.3c-0.1,0.6-0.5,1-1.1,1.1s-1.2,0-1.7-0.4
		c-0.3-0.2-0.3-0.4,0-0.6c0.4,0.4,0.9,0.6,1.5,0.5c0.5-0.1,0.8-0.3,0.8-0.7c0.1-0.4-0.2-0.7-0.6-0.8c-0.4-0.1-0.8-0.2-1.1-0.4
		c-0.6-0.2-0.9-0.6-0.8-1.2c0-0.5,0.4-0.9,0.9-1.1C142.6,185.5,143.3,185.7,143.8,186.2L143.8,186.2z"/>
	<path class="st0" d="M98,185.7h3c0.1,0.3,0,0.4-0.3,0.4c-0.7,0-1.5,0-2.2,0v1.6c0.6,0,1.2,0,1.7,0c0.3,0,0.4,0.1,0.3,0.5h-2.1
		c0,0.6,0,1.2,0,1.8c0,0.1-0.1,0.3-0.2,0.4c-0.3,0.1-0.2-0.2-0.2-0.4c0-1.3,0-2.6,0-3.9C97.9,185.9,98,185.9,98,185.7z"/>
	<path class="st0" d="M118.7,185.7c0.1,0.3,0,0.4-0.3,0.4c-0.7,0-1.5,0-2.2,0v1.6h2v0.5h-2v2.1c-0.2,0.1-0.5,0.2-0.5-0.2
		c0-1.4,0-2.9,0-4.4L118.7,185.7L118.7,185.7z"/>
	<path class="st0" d="M136.1,150.8c1.1,0,2,0.9,2,2s-0.9,2-2.1,2c-1.1,0-2-0.9-2-2C134.1,151.6,135,150.8,136.1,150.8z M136.1,154.5
		c1,0,1.7-0.7,1.7-1.7s-0.7-1.7-1.6-1.7c-0.9,0-1.7,0.7-1.7,1.7C134.4,153.7,135.1,154.4,136.1,154.5z"/>
	<path class="st0" d="M120.7,189.8h2.3c0,0.2,0,0.3,0,0.4h-2.8v-4.6h0.5V189.8L120.7,189.8z"/>
	<path class="st0" d="M81.4,190.3v-4.6h0.5v4.5C81.7,190.3,81.6,190.3,81.4,190.3z"/>
	<path class="st0" d="M146,189.1c0-0.1,0-0.3,0-0.4c0-1,0-2,0-3h0.4c0,1.1,0,2.1,0,3.2c0,0.1-0.2,0.2-0.3,0.3
		C146.1,189.2,146.1,189.1,146,189.1L146,189.1z"/>
	<path class="st0" d="M146.2,189.6c0.1,0.2,0.3,0.4,0.3,0.5s-0.2,0.2-0.3,0.3c-0.1-0.1-0.3-0.2-0.3-0.4
		C145.9,189.9,146.1,189.8,146.2,189.6z"/>
	<path class="st0" d="M136.5,153.8c-0.2-0.6-0.4-0.9-0.6-1c0.1,0.3,0.1,0.6,0.2,1h-0.9c0.3-0.5,0.3-1.8,0-2.3c0.5,0.1,1.1,0,1.6,0.2
		c0.5,0.1,0.4,0.6-0.1,1c0.2,0.4,0.4,0.7,0.6,1.1H136.5L136.5,153.8z M135.9,152.6c0.4,0,0.6-0.4,0.4-0.7c-0.1-0.1-0.2-0.1-0.3-0.1
		s-0.2,0.1-0.2,0.2C135.9,152.2,135.9,152.4,135.9,152.6L135.9,152.6z"/>
	<path class="st0" d="M50.5,208h1.3v10.1h4.9v1.1h-6.2V208z"/>
	<path class="st0" d="M58,217c0-1.8,1.6-2.7,5.1-3.1c0-1.1-0.3-2.2-1.8-2.2c-1,0-1.9,0.5-2.5,0.9l-0.5-0.9c0.7-0.5,1.9-1.1,3.2-1.1
		c2,0,2.8,1.4,2.8,3.3v5.1h-1l-0.1-1l0,0c-0.8,0.7-1.7,1.2-2.8,1.2C59,219.3,58,218.5,58,217L58,217z M63.1,217.2v-2.4
		c-2.9,0.3-3.9,1-3.9,2.2c0,1,0.7,1.4,1.5,1.4S62.3,217.9,63.1,217.2L63.1,217.2z"/>
	<path class="st0" d="M67.1,210.9h1l0.1,1.2h0.1c0.7-0.8,1.6-1.4,2.6-1.4c1.3,0,1.9,0.6,2.3,1.6c0.9-1,1.8-1.6,2.8-1.6
		c1.7,0,2.5,1.1,2.5,3.2v5.2h-1.2V214c0-1.6-0.5-2.3-1.6-2.3c-0.7,0-1.4,0.4-2.2,1.3v6h-1.2v-5.1c0-1.6-0.5-2.3-1.6-2.3
		c-0.6,0-1.4,0.4-2.2,1.3v6H67L67.1,210.9L67.1,210.9z"/>
	<path class="st0" d="M80.4,215c0-2.7,1.8-4.4,3.7-4.4c2.1,0,3.2,1.5,3.2,3.9c0,0.3,0,0.6-0.1,0.8h-5.6c0.1,1.8,1.2,3.1,2.8,3.1
		c0.8,0,1.5-0.3,2.1-0.7l0.5,0.8c-0.7,0.5-1.6,0.8-2.7,0.8C82.2,219.3,80.4,217.7,80.4,215z M86.3,214.4c0-1.8-0.8-2.7-2.1-2.7
		c-1.2,0-2.3,1-2.5,2.7H86.3z"/>
	<path class="st0" d="M89.5,216.6v-4.7h-1.2V211l1.3-0.1l0.1-2.3h1.1v2.3H93v1h-2.3v4.8c0,1,0.3,1.6,1.3,1.6c0.3,0,0.7-0.1,1-0.2
		l0.2,0.9c-0.5,0.2-1,0.3-1.5,0.3C90.1,219.3,89.5,218.3,89.5,216.6L89.5,216.6z"/>
	<path class="st0" d="M94.8,216.6v-4.7h-1.2V211l1.3-0.1l0.1-2.3h1v2.3h2.3v1H96v4.8c0,1,0.3,1.6,1.3,1.6c0.3,0,0.7-0.1,1-0.2
		l0.2,0.9c-0.5,0.2-1,0.3-1.5,0.3C95.4,219.3,94.8,218.3,94.8,216.6L94.8,216.6z"/>
	<path class="st0" d="M105,216.7c-1.1,1.3-3.2,2.5-5,3.1c-0.1-0.3-0.4-0.6-0.7-0.8c1.8-0.5,3.8-1.5,4.8-2.6L105,216.7L105,216.7z
		 M113.1,214.9v0.9h-6.3v4.5h-1v-4.5h-6.3v-0.9h6.3V214h1v0.9H113.1z M103.4,214c0-0.2-0.1-0.5-0.1-0.8c-2.5,0.4-2.9,0.4-3.1,0.6
		c0-0.2-0.2-0.6-0.3-0.8c0.3-0.1,0.5-0.4,0.9-0.8c0.2-0.2,0.7-0.9,1.2-1.7c-1.4,0.2-1.7,0.2-1.8,0.3c-0.1-0.2-0.2-0.6-0.3-0.8
		c0.2,0,0.4-0.3,0.6-0.6s1-1.7,1.4-2.9l0.8,0.3c-0.4,1.1-1,2.2-1.6,3.1l1.4-0.1c0.3-0.5,0.6-1,0.8-1.5l0.8,0.4
		c-0.8,1.5-1.9,3-2.9,4.2l2-0.2c-0.1-0.4-0.2-0.8-0.3-1.1l0.7-0.2c0.3,0.8,0.5,1.8,0.6,2.5L103.4,214L103.4,214z M108.3,213.6h-3.9
		v-5.7h1.2c0.1-0.5,0.3-1.1,0.3-1.5l1,0.2c-0.2,0.4-0.3,0.9-0.5,1.3h1.9V213.6L108.3,213.6z M107.4,208.7h-2.1v1.7h2.1V208.7z
		 M107.4,211.1h-2.1v1.7h2.1V211.1z M108.5,216.2c1.6,0.8,3.6,2,4.6,2.9l-0.6,0.8c-1-0.9-3-2.1-4.6-3L108.5,216.2z M112.4,214.1
		c0-0.2-0.1-0.4-0.2-0.7c-2.5,0.3-2.9,0.4-3.2,0.5c0-0.2-0.2-0.6-0.3-0.8c0.3-0.1,0.6-0.4,0.9-0.8c0.2-0.3,0.7-0.9,1.2-1.7
		c-1.6,0.2-1.9,0.3-2.1,0.4c-0.1-0.2-0.2-0.6-0.3-0.8c0.2,0,0.4-0.3,0.6-0.6c0.2-0.4,1-1.7,1.4-3l0.8,0.3c-0.5,1.2-1,2.4-1.6,3.2
		l1.6-0.2c0.3-0.5,0.5-0.9,0.8-1.4l0.8,0.4c-0.8,1.5-1.9,3-2.9,4.2l1.9-0.2c-0.1-0.3-0.2-0.7-0.3-1l0.7-0.2c0.3,0.8,0.6,1.7,0.7,2.3
		L112.4,214.1L112.4,214.1z"/>
	<path class="st0" d="M118.3,213.7c-0.3,1.3-0.7,2.8-1.3,3.9c0.3,0.2,0.7,0.5,1.3,0.8c1.1,0.7,2.5,0.8,4.3,0.8c2,0,4.4-0.1,6.1-0.3
		c-0.1,0.3-0.3,0.8-0.3,1.1c-1.1,0.1-4,0.2-5.9,0.2c-2,0-3.3-0.2-4.5-0.9c-0.6-0.4-1.2-0.9-1.5-0.9s-0.8,1-1.3,1.9l-0.7-0.9
		c0.5-0.8,1-1.4,1.5-1.7c0.4-0.9,0.8-2.1,1.1-3.3h-1.9c0.4-0.9,1-2.2,1.4-3.4h-1.8v-0.9h3.1c-0.4,1.1-0.9,2.4-1.4,3.4h1.1h0.2
		L118.3,213.7L118.3,213.7z M116.3,209.2c-0.2-0.7-0.5-1.7-0.8-2.5l0.8-0.2c0.3,0.8,0.6,1.8,0.8,2.4L116.3,209.2L116.3,209.2z
		 M118.9,214.6h-0.4v-0.7h0.4v-0.4h0.9v0.4h3.1V213h-3.3v-3.8h7.7v3.8h-3.5v0.8h4.1v3.7c0,0.4-0.1,0.6-0.4,0.8
		c-0.3,0.1-0.8,0.1-1.7,0.1c0-0.2-0.2-0.5-0.3-0.7c0.6,0,1.1,0,1.2,0c0.2,0,0.2-0.1,0.2-0.2v-3h-3.2v1.3l1.5-0.1
		c-0.1-0.3-0.3-0.5-0.5-0.8l0.6-0.2c0.5,0.6,0.9,1.5,1.1,2.1l-0.6,0.2c0-0.2-0.1-0.4-0.2-0.7c-1.8,0.2-3.6,0.3-5,0.4l-0.1-0.8
		c0.7,0,1.5-0.1,2.4-0.1v-1.3h-3.1v3.7h-0.9L118.9,214.6L118.9,214.6z M120.8,208.1h-2.1v-0.8h2.1v-0.9h0.9v0.9h1.4v0.8h-1.4v0.9
		h-0.9V208.1z M120.6,210.8h2.4v-0.9h-2.4V210.8z M122.9,212.4v-0.9h-2.4v0.9H122.9z M124.9,208.1h-1.3v-0.8h1.3v-0.9h1v0.9h2.4v0.8
		h-2.4v0.9h-1V208.1z M126.3,209.9h-2.5v0.9h2.5V209.9z M126.3,211.4h-2.5v1h2.5V211.4z"/>
	<path class="st0" d="M134.7,214.7l0.2,0.9c-1.6,0.7-3.3,1.5-4.6,2.1l-0.4-1c0.6-0.2,1.3-0.5,2.1-0.8V211h-1.9v-1h1.9v-3.5h0.9v3.5
		h1.7v1h-1.7v4.5L134.7,214.7L134.7,214.7z M141.8,219c0.9,0,1.1-0.4,1.2-2.2c0.2,0.2,0.6,0.3,0.9,0.4c-0.2,2.1-0.5,2.7-2,2.7H138
		c-1.7,0-2.2-0.4-2.2-1.9v-5l-1.3,0.6l-0.4-0.9l1.7-0.7v-4.2h1v3.8l2.2-0.9v-4.3h1v3.9l2.4-1l0.8,0.3l-0.1,0.2
		c-0.2,2.1-0.4,5-0.8,6.7l-0.8-0.2c0.3-1.4,0.5-3.8,0.6-5.7l-2.1,0.9v5.6h-1v-5.2l-2.2,0.9v5.4c0,0.8,0.2,1,1.2,1h3.8V219z"/>
	<path class="st0" d="M150.1,215.4c-0.3-0.5-0.9-1.5-1.5-2.2v7h-1v-7.5c-0.6,1.8-1.3,3.5-2.1,4.6c-0.1-0.3-0.4-0.7-0.6-0.9
		c1-1.3,2.1-3.7,2.6-5.9h-2.2v-0.9h2.3v-3.3h1v3.3h2v0.9h-2v1.4c0.5,0.6,1.8,2.2,2.1,2.6L150.1,215.4L150.1,215.4z M158.7,211.4
		c-0.5,2.4-1.4,4.3-2.5,5.8c0.9,1,1.9,1.7,3.1,2.2c-0.2,0.2-0.5,0.6-0.7,0.8c-1.2-0.5-2.2-1.3-3.1-2.3c-0.9,1-2,1.8-3.1,2.3
		c-0.1-0.2-0.4-0.6-0.6-0.8c1.1-0.5,2.2-1.2,3.2-2.2c-1-1.4-1.8-3.1-2.3-5h-0.2c-0.1,2.5-0.4,5.8-2.1,8.1c-0.1-0.2-0.6-0.5-0.8-0.6
		c1.8-2.3,1.9-5.6,1.9-8.1v-4.2h7.4v0.9h-6.4v3h5.4l0.2-0.1L158.7,211.4L158.7,211.4z M153.6,212.2c0.4,1.6,1.1,3.1,2,4.3
		c0.9-1.2,1.6-2.6,2-4.3H153.6z"/>
</g>
<g>
	<path class="st0" d="M271.5,208.3h3.1c2.5,0,4.1,0.8,4.1,3.2s-1.6,3.4-4.1,3.4h-1.9v4.5h-1.3L271.5,208.3L271.5,208.3z
		 M274.4,213.9c2,0,3-0.7,3-2.4s-1-2.2-3.1-2.2h-1.6v4.6L274.4,213.9L274.4,213.9z"/>
	<path class="st0" d="M280.9,207.3h1.2v3.4l-0.1,1.7c0.8-0.8,1.6-1.4,2.8-1.4c1.7,0,2.5,1.1,2.5,3.2v5.2h-1.2v-5.1
		c0-1.6-0.5-2.3-1.6-2.3c-0.9,0-1.5,0.5-2.3,1.3v6H281L280.9,207.3L280.9,207.3z"/>
	<path class="st0" d="M289.8,208.6c0-0.5,0.4-0.9,0.9-0.9s0.9,0.3,0.9,0.9c0,0.5-0.4,0.8-0.9,0.8
		C290.2,209.5,289.8,209.1,289.8,208.6z M290.1,211.2h1.2v8.2h-1.2V211.2z"/>
	<path class="st0" d="M294.2,218v-10.6h1.2v10.7c0,0.4,0.2,0.6,0.4,0.6c0.1,0,0.1,0,0.3,0l0.2,1c-0.2,0.1-0.4,0.1-0.8,0.1
		C294.6,219.7,294.2,219.1,294.2,218L294.2,218z"/>
	<path class="st0" d="M298.2,208.6c0-0.5,0.4-0.9,0.9-0.9s0.9,0.3,0.9,0.9c0,0.5-0.4,0.8-0.9,0.8
		C298.5,209.5,298.2,209.1,298.2,208.6z M298.5,211.2h1.2v8.2h-1.2V211.2z"/>
	<path class="st0" d="M302.5,211.2h1l0.1,1h0.1c0.8-0.6,1.7-1.2,2.7-1.2c2.1,0,3.3,1.7,3.3,4.2c0,2.8-1.7,4.5-3.6,4.5
		c-0.8,0-1.5-0.3-2.3-1v1.4v2.8h-1.2L302.5,211.2L302.5,211.2z M308.4,215.2c0-1.9-0.6-3.2-2.3-3.2c-0.7,0-1.5,0.4-2.3,1.2v4.5
		c0.8,0.7,1.5,0.9,2.1,0.9C307.3,218.6,308.4,217.3,308.4,215.2L308.4,215.2z"/>
	<path class="st0" d="M311,218.6l0.6-0.8c0.7,0.6,1.4,1,2.5,1s1.7-0.6,1.7-1.4c0-0.9-1-1.3-1.9-1.6c-1.2-0.4-2.5-1-2.5-2.4
		c0-1.3,1-2.3,2.8-2.3c1,0,1.9,0.4,2.5,0.9l-0.6,0.8c-0.6-0.4-1.2-0.7-1.9-0.7c-1.1,0-1.6,0.6-1.6,1.2c0,0.8,0.9,1.1,1.9,1.5
		c1.2,0.5,2.5,0.9,2.5,2.5c0,1.3-1,2.4-2.9,2.4C312.9,219.7,311.8,219.2,311,218.6L311,218.6z"/>
	<path class="st0" d="M324.4,214c-0.4-0.4-1.6-1.2-2.4-1.8c-0.5,0.9-1.4,1.8-3.1,2.5c-0.1-0.2-0.4-0.6-0.7-0.7
		c2-0.8,2.8-1.9,3.1-2.8h-3v-0.8h3.2c0-0.2,0-0.4,0-0.6v-0.9h-1.4c-0.3,0.5-0.6,1-1,1.4c-0.2-0.2-0.6-0.4-0.8-0.5
		c0.8-0.8,1.4-1.9,1.7-3.1l0.9,0.2c-0.1,0.4-0.3,0.8-0.4,1.1h4.2v0.8h-2.3v0.9c0,0.2,0,0.4,0,0.6h2.7v0.8h-2.9
		c0,0.1-0.1,0.2-0.1,0.3c0.6,0.3,2.4,1.4,2.8,1.7L324.4,214L324.4,214z M320.6,214.4h9.2v6.2h-1v-0.5h-7.2v0.6h-1V214.4L320.6,214.4
		z M321.6,215.3v1.5h7.2v-1.5H321.6z M328.8,219.2v-1.6h-7.2v1.6H328.8z M331.1,208v5.2h-5.2V208H331.1z M330.1,208.9h-3.3v3.3h3.3
		V208.9z"/>
	<path class="st0" d="M344.6,214.7h-10.8V214h10.8v-1h-9.5v-0.7h10.5v1.7h1.6v0.7h-1.6v1.7H335v-0.7h9.6V214.7L344.6,214.7z
		 M333.8,219.7c0.8-0.6,1.4-1.7,1.8-2.5l0.9,0.4c-0.4,0.9-1,2-1.8,2.7L333.8,219.7L333.8,219.7z M336.5,211.2h-2.6v-0.7h2.6v-0.8
		h-2.1V209h2.1v-0.8H334v-0.7h2.5v-0.8h1v0.8h2.4v0.7h-2.4v0.8h2.2v0.7h-2.2v0.8h2.6v0.7h-2.6v0.9h-1V211.2z M342.3,219.6
		c0.7,0,0.8-0.2,0.9-1.4c0.2,0.2,0.6,0.3,0.9,0.4c-0.1,1.6-0.4,2-1.7,2h-3.1c-1.6,0-2-0.3-2-1.3v-2h1v2c0,0.3,0.2,0.4,1,0.4
		L342.3,219.6L342.3,219.6z M341.4,218.7c-0.5-0.4-1.4-1.2-2.1-1.7l0.7-0.5c0.7,0.5,1.6,1.2,2.1,1.6L341.4,218.7L341.4,218.7z
		 M343.1,211.2h-2.7v-0.7h2.7v-0.8h-2.2V209h2.2v-0.8h-2.5v-0.7h2.5v-0.8h1v0.8h2.7v0.7H344v0.8h2.5v0.7H344v0.8h3v0.7h-3v0.8h-1
		v-0.8H343.1z M344.7,217.1c1,0.8,2.1,1.9,2.6,2.6l-0.8,0.5c-0.5-0.7-1.6-1.8-2.6-2.6L344.7,217.1L344.7,217.1z"/>
	<path class="st0" d="M354.7,218.9c-1.9,0.4-4,0.9-5.5,1.2l-0.2-0.9c0.7-0.1,1.6-0.3,2.6-0.5v-4.5h-2.4v-0.9h2.4v-1.8h-1.5v-0.8
		c-0.3,0.3-0.6,0.6-1,0.8c-0.1-0.2-0.3-0.8-0.5-1c1.3-0.9,2.6-2.3,3.4-3.8l0.8,0.3c-0.1,0.2-0.2,0.4-0.4,0.7c1,0.7,2,1.5,2.6,2.1
		l-0.5,0.8c-0.6-0.7-1.6-1.5-2.6-2.2c-0.6,0.8-1.2,1.6-1.9,2.2h4.1v0.9h-1.7v1.8h2.1v0.9h-2.1v4.4l2.2-0.5L354.7,218.9L354.7,218.9z
		 M350.1,215c0.3,0.9,0.6,2.1,0.7,2.8L350,218c-0.1-0.8-0.3-1.9-0.6-2.8L350.1,215L350.1,215z M353,217.6c0.3-0.8,0.6-2,0.8-2.8
		l0.8,0.3c-0.3,0.9-0.6,2.1-0.9,2.8L353,217.6z M358,218.2c-0.8,1-2,1.9-3.1,2.4c-0.1-0.2-0.5-0.5-0.7-0.7c1.1-0.5,2.3-1.2,3-2.1
		L358,218.2L358,218.2z M356.2,210.3c-0.2-0.7-0.8-1.8-1.3-2.7l0.8-0.3c0.5,0.8,1.1,1.9,1.4,2.7L356.2,210.3L356.2,210.3z
		 M358,210.6v-3.8h0.9v3.8h2.9v7.1h-6.5v-7.1H358z M360.8,211.4h-4.6v1.3h4.6V211.4z M360.8,213.5h-4.6v1.3h4.6V213.5z M360.8,215.6
		h-4.6v1.3h4.6V215.6z M359.8,217.9c1.1,0.7,2.2,1.6,2.9,2.2l-1,0.4c-0.6-0.6-1.7-1.5-2.7-2.2L359.8,217.9L359.8,217.9z M362,207.6
		c-0.4,1-1,2.1-1.5,2.8c-0.2-0.1-0.6-0.3-0.8-0.4c0.6-0.7,1.1-1.7,1.5-2.6L362,207.6z"/>
	<path class="st0" d="M357,157c0.3,0,0.7,0.1,1,0.1c2,0.1,4,0.4,5.8,1.1c2,0.7,3.6,1.9,4.6,3.7c0.6,1.1,1,2.3,1.1,3.6
		c0.2,1.7,0.1,3.4-0.3,5.1c-0.9,3.1-2.9,5.1-5.9,6.3c-1.5,0.6-3.1,0.9-4.7,1c-1.3,0-2.6,0-3.9,0c-0.3,0-0.4,0.1-0.4,0.4
		c0,1.9,0,3.8,0,5.6c0,0.3-0.1,0.4-0.3,0.4c-2.5,0-5,0-7.4,0c-0.2,0-0.3-0.1-0.3-0.3c0-8.7,0-17.3,0-26c0-0.3,0.1-0.4,0.3-0.4
		c1.3-0.1,2.6-0.2,4-0.3c1.3-0.1,2.6-0.1,3.9-0.2c0.3,0,0.5,0,0.8-0.1L357,157L357,157z M354.3,167.6c0,1.8,0,3.5,0,5.3
		c0,0.2,0.1,0.3,0.3,0.3c0.9-0.1,1.9,0,2.8-0.2c1.9-0.3,3.2-1.3,3.8-3.1c0.4-1.1,0.5-2.3,0.3-3.5c-0.2-2.2-1.5-3.6-3.6-4.1
		c-1.1-0.3-2.2-0.3-3.4-0.2c-0.3,0-0.4,0.1-0.4,0.4C354.4,164.1,354.3,165.9,354.3,167.6L354.3,167.6z"/>
	<path class="st0" d="M251.8,157c0.3,0,0.7,0.1,1,0.1c2,0.1,3.9,0.4,5.8,1.1c2,0.7,3.6,1.9,4.7,3.7c0.6,1.1,1,2.3,1.1,3.6
		c0.2,1.7,0.1,3.4-0.3,5.1c-0.9,3.1-2.9,5.1-5.8,6.3c-1.5,0.6-3.1,0.9-4.8,1c-1.3,0-2.6,0-3.9,0c-0.3,0-0.4,0.1-0.4,0.4
		c0,1.9,0,3.7,0,5.6c0,0.3-0.1,0.4-0.4,0.4c-2.4,0-4.9,0-7.3,0c-0.1,0-0.3,0-0.4,0v-26.7c0.6-0.1,1.2-0.1,1.7-0.2
		c1.4-0.1,2.8-0.2,4.2-0.3c0.9-0.1,1.8-0.1,2.7-0.1c0.1,0,0.2,0,0.3,0L251.8,157L251.8,157z M249.1,167.6c0,1.8,0,3.5,0,5.2
		c0,0.2,0,0.3,0.3,0.3c0.9-0.1,1.9,0,2.8-0.2c1.7-0.3,3-1.1,3.7-2.8c0.5-1.2,0.6-2.5,0.5-3.9c-0.2-2.1-1.5-3.6-3.5-4.1
		c-1.1-0.3-2.2-0.3-3.3-0.3c-0.5,0-0.4-0.1-0.4,0.5C249.1,164.2,249.1,165.9,249.1,167.6L249.1,167.6z"/>
	<path class="st0" d="M384,157c0.2,0,0.5,0.1,0.7,0.1c1.9,0,3.8,0.3,5.7,0.7c0.2,0,0.4,0.2,0.4,0.4c0.2,1.5,0.3,2.9,0.5,4.4
		c0,0.3,0.1,0.6,0.1,1c-0.5-0.2-0.9-0.3-1.3-0.4c-1.6-0.5-3.2-0.7-4.8-0.8c-1.1-0.1-2.1-0.1-3.1,0.2c-0.3,0.1-0.6,0.2-0.9,0.4
		c-1,0.6-1.3,1.9-0.5,2.8c0.5,0.6,1.1,0.9,1.7,1.2c1.2,0.5,2.4,0.9,3.7,1.4c1.2,0.4,2.3,0.9,3.4,1.5c2,1.2,3.4,2.9,3.6,5.3
		c0.2,2.2-0.2,4.3-1.6,6.1c-1.1,1.3-2.5,2.2-4.1,2.7c-1.4,0.5-2.8,0.8-4.3,0.8c-1.4,0.1-2.7,0.1-4.1,0c-2.2-0.1-4.3-0.5-6.4-1.2
		c-0.2-0.1-0.3-0.2-0.4-0.4c-0.2-1.6-0.5-3.2-0.7-4.8c0-0.3-0.1-0.6-0.1-0.9c0.4,0.2,0.8,0.4,1.2,0.5c1.9,0.7,3.8,1.2,5.8,1.4
		c0.9,0.1,1.8,0.2,2.7,0.2c0.8,0,1.6-0.1,2.3-0.4c0.8-0.3,1.3-0.8,1.5-1.7c0.2-1-0.2-1.7-0.9-2.3c-0.9-0.6-1.8-1-2.8-1.4
		c-1.6-0.6-3.2-1.1-4.7-1.9c-1.1-0.6-2.2-1.4-2.9-2.4c-1.1-1.5-1.4-3.3-1.3-5.1c0.1-1.9,0.9-3.5,2.3-4.8c1-0.9,2.2-1.4,3.4-1.8
		c1.3-0.4,2.7-0.6,4.1-0.7c0.2,0,0.3-0.1,0.5-0.1H384L384,157z"/>
	<path class="st0" d="M267.8,170.9V158c0-0.3,0.1-0.4,0.4-0.4c2.4,0,4.9,0,7.3,0c0.3,0,0.4,0.1,0.4,0.4c0,3.3,0,6.5,0,9.8
		c0,0.3,0.1,0.4,0.4,0.4c2.6,0,5.2,0,7.7,0c0.4,0,0.4,0,0.4-0.4c0-3.3,0-6.5,0-9.8c0-0.3,0.1-0.4,0.4-0.4c2.5,0,4.9,0,7.4,0
		c0.3,0,0.4,0.1,0.4,0.4c0,8.6,0,17.3,0,25.9c0,0.3-0.1,0.4-0.4,0.4c-2.5,0-4.9,0-7.4,0c-0.3,0-0.3-0.1-0.3-0.4c0-3.2,0-6.5,0-9.7
		c0-0.3-0.2-0.5-0.5-0.5c-2.6,0-5.2,0-7.8,0c-0.4,0-0.4,0-0.4,0.4c0,3.2,0,6.5,0,9.7c0,0.3-0.1,0.4-0.4,0.4c-2.4,0-4.9,0-7.3,0
		c-0.3,0-0.4-0.1-0.4-0.4C267.8,179.5,267.8,175.2,267.8,170.9L267.8,170.9z"/>
	<path class="st0" d="M313,170.9c0-4.3,0-8.6,0-12.9c0-0.3,0.1-0.4,0.4-0.4c2.4,0,4.9,0,7.4,0c0.3,0,0.4,0.1,0.4,0.4
		c0,6.8,0,13.7,0,20.6c0,0.3,0.2,0.4,0.5,0.4c2.3,0,4.6,0,7,0c0.4,0,0.4,0,0.3,0.4c-0.4,1.5-0.7,3.1-1.1,4.6c0,0.2-0.1,0.3-0.3,0.3
		c-4.7,0-9.4,0-14.2,0c-0.3,0-0.3-0.1-0.3-0.3C313,179.6,313,175.3,313,170.9L313,170.9z"/>
	<path class="st0" d="M298.7,170.9c0-4.3,0-8.6,0-12.9c0-0.3,0.1-0.4,0.4-0.4c2.4,0,4.9,0,7.3,0c0.3,0,0.4,0.1,0.4,0.4
		c0,8.6,0,17.3,0,25.9c0,0.3-0.1,0.4-0.4,0.4c-2.5,0-4.9,0-7.4,0c-0.3,0-0.3-0.1-0.3-0.4C298.7,179.6,298.7,175.3,298.7,170.9
		L298.7,170.9z"/>
	<path class="st0" d="M331.9,170.9c0-4.3,0-8.6,0-12.9c0-0.3,0.1-0.4,0.4-0.4c2.5,0,4.9,0,7.4,0c0.3,0,0.4,0.1,0.4,0.4
		c0,8.6,0,17.3,0,25.9c0,0.3-0.1,0.4-0.4,0.4c-2.5,0-4.9,0-7.4,0c-0.3,0-0.4-0.1-0.4-0.4C331.9,179.6,331.9,175.2,331.9,170.9
		L331.9,170.9z"/>
</g>
<g>
	<path class="st0" d="M540.4,182.8c-1.3-5.5-2.7-11-4-16.5l0,0v16.4H529v-5l0,0c0,0,0,0,0,0.1c-0.4,1.1-1.1,2.1-2.1,2.9
		c-1.1,0.9-2.3,1.6-3.7,2c-1,0.3-2,0.5-3,0.6c-1.1,0.1-2.3,0.1-3.5,0.1c-1.1-0.1-2.2-0.2-3.2-0.5c-1.2-0.3-2.3-0.8-3.3-1.5
		c-1.6-1.1-2.7-2.5-3.4-4.3c-0.3-0.9-0.6-1.8-0.7-2.8c-0.1-0.6-0.1-1.1-0.1-1.7v-0.1h7.6v0.1c0,0.8,0.1,1.7,0.5,2.4
		c0.5,1.2,1.4,1.9,2.7,2.2c0.9,0.2,1.7,0.2,2.6-0.2c1-0.4,1.5-1.1,1.7-2.2c0.1-0.5,0-1-0.1-1.5c-0.3-0.7-0.8-1.1-1.4-1.4
		c-0.5-0.2-1-0.3-1.6-0.3c-0.7,0-1.4,0-2.1,0h-0.1v-5.1h0.1c0.8,0,1.6,0,2.5,0c0.6,0,1.2-0.1,1.8-0.3c1-0.4,1.4-1.2,1.3-2.1
		c-0.1-1-0.6-1.6-1.5-2c-0.6-0.2-1.3-0.3-2-0.3c-0.8,0-1.6,0.2-2.2,0.7c-0.8,0.5-1.2,1.3-1.4,2.2c0,0.1,0,0.2,0,0.4H507
		c0-0.2,0-0.3,0-0.5c0.1-0.8,0.2-1.6,0.4-2.4c0.6-1.9,1.8-3.4,3.4-4.5c1.1-0.7,2.3-1.2,3.6-1.5c1.5-0.4,3-0.5,4.5-0.4
		c0.9,0,1.8,0.1,2.7,0.3c1.4,0.3,2.7,0.7,3.9,1.4c1.7,1,2.7,2.5,3.3,4.4v0.1l0,0v-5.6h0.1c3.6,0,7.1,0,10.7,0c0.1,0,0.1,0,0.1,0.1
		c1.2,5,2.5,10,3.7,15.1c0,0,0,0.1,0.1,0.1c0.1-0.2,0.1-0.5,0.2-0.7c0.8-3.3,1.6-6.6,2.4-9.9c0.4-1.6,0.8-3.1,1.1-4.6
		c0-0.1,0-0.1,0.1-0.1c3.6,0,7.2,0,10.9,0h0.1v26.2H551v-16.5l0,0v0.1c-0.5,2.2-1.1,4.3-1.6,6.5c-0.7,2.9-1.5,5.9-2.2,8.8
		c-0.1,0.3-0.1,0.6-0.2,0.9c0,0.1-0.1,0.1-0.2,0.1c-2,0-3.9,0-5.9,0L540.4,182.8L540.4,182.8z M529,171.9v-6.4l-0.1,0.1
		c-0.2,0.6-0.5,1.2-0.9,1.8c-0.5,0.7-1.1,1.1-1.9,1.5c0,0-0.1,0-0.1,0.1C527.4,169.4,528.3,170.5,529,171.9z"/>
	<path class="st0" d="M507.1,217.5l0.6-0.8c0.7,0.7,1.5,1.3,2.8,1.3s2.3-0.8,2.3-2.2s-0.9-2.3-3.5-2.3v-1c2.3,0,3.1-1,3.1-2.2
		c0-1.1-0.8-1.9-2-1.9c-0.9,0-1.7,0.5-2.4,1.1l-0.7-0.8c0.8-0.8,1.8-1.3,3.1-1.3c1.8,0,3.2,1,3.2,2.8c0,1.4-0.8,2.3-2,2.7v0.1
		c1.3,0.3,2.4,1.3,2.4,2.8c0,2-1.6,3.2-3.5,3.2C508.9,219,507.8,218.2,507.1,217.5L507.1,217.5z"/>
	<path class="st0" d="M516.6,207.6h1.6l2.2,6.1c0.3,0.8,0.5,1.6,0.8,2.4h0.1c0.3-0.8,0.5-1.6,0.8-2.4l2.2-6.1h1.6v11.2h-1.2v-6.5
		c0-0.9,0.1-2.3,0.1-3.2h-0.1l-0.9,2.5l-2.2,6h-0.9l-2.2-6l-0.9-2.5h-0.1c0.1,1,0.2,2.3,0.2,3.2v6.5h-1.1L516.6,207.6L516.6,207.6z"
		/>
	<path class="st0" d="M530.5,212.8c-0.6-0.5-1.7-1.2-2.7-1.6l0.5-0.8c1,0.4,2.1,1,2.7,1.6L530.5,212.8z M528.2,219.1
		c0.8-1.1,1.9-3.1,2.7-4.7l0.7,0.7c-0.8,1.6-1.8,3.4-2.6,4.8L528.2,219.1L528.2,219.1z M531.3,208.8c-0.6-0.6-1.7-1.3-2.6-1.8
		l0.5-0.7c1,0.4,2.1,1.1,2.7,1.7L531.3,208.8L531.3,208.8z M541.9,214h-1.3v2.3H537v2.2c0,0.6-0.1,0.9-0.6,1.1
		c-0.4,0.2-1.2,0.2-2.3,0.2c0-0.3-0.2-0.7-0.3-0.9c0.9,0,1.7,0,2,0c0.2,0,0.3-0.1,0.3-0.3v-2.2h-3.5v-0.8h3.5V214h-4.4v-0.9h4.4
		v-1.5h-3.5v-0.9h8v2.3h1.3V214L541.9,214z M540.7,206.9c-2.2,0.6-5.5,1-8.4,1.2c0-0.2-0.1-0.6-0.2-0.8c2.8-0.2,6.1-0.6,7.9-1.2
		L540.7,206.9L540.7,206.9z M533.5,210.6c-0.1-0.5-0.4-1.3-0.8-1.9l0.7-0.3c0.4,0.6,0.7,1.3,0.8,1.9L533.5,210.6z M536.4,210.5
		c-0.1-0.6-0.4-1.5-0.8-2.1l0.8-0.2c0.3,0.6,0.7,1.5,0.8,2.1L536.4,210.5z M537,213.1h2.7v-1.5H537V213.1z M539.7,214H537v1.5h2.7
		V214z M538.5,210.1c0.4-0.6,0.9-1.7,1.2-2.4l0.9,0.3c-0.4,0.8-0.9,1.8-1.3,2.4L538.5,210.1L538.5,210.1z"/>
	<path class="st0" d="M548.8,210.2c-0.8,4-2.5,6.7-4.7,8.2c-0.2-0.2-0.6-0.6-0.8-0.8c2-1.3,3.6-3.6,4.3-6.7h-3.8v-1h4.2h0.2
		L548.8,210.2L548.8,210.2z M555.9,209.6c-1,1.2-2.3,2.6-3.4,3.5c1.3,1.9,3,3.5,4.8,4.3c-0.3,0.2-0.6,0.6-0.8,0.9
		c-2.4-1.3-4.5-3.8-5.9-6.6v6.8c0,0.7-0.2,1-0.6,1.2c-0.4,0.2-1.2,0.2-2.3,0.2c0-0.3-0.2-0.8-0.4-1.1c0.9,0,1.7,0,1.9,0
		c0.3,0,0.3-0.1,0.3-0.4V206h1.1v3.6c0.4,0.9,0.8,1.8,1.3,2.6c1-1,2.2-2.3,3-3.4L555.9,209.6z"/>
</g>
<g>
	<path class="st0" d="M91,383.2C91,383.2,91,383.3,91,383.2l5.3,0.1c-1.6,0-3.2-0.1-4.8-0.1C91.3,383.2,91.1,383.2,91,383.2z"/>
	<path class="st0" d="M165.9,350.1c-1.4-6-5.2-8.7-12.1-8.7c-8.7,0-17.3,0-26,0c-0.3,0-0.7,0-1,0v41.9h12.3v-33.1
		c4.2,0,8.2,0,12.3,0c1.8,0,3,1,3.1,2.5c0.2,2.2,0.3,4.5,0.1,6.8c-0.3,2.8-1.2,3.4-4.4,3.7h-7.7c0,2.7,0,5.7,0,8.4
		c3.2,0,6.5,0,9.7,0c1.3,0,3.3,0,4.2-0.1c4.3-0.6,7.2-2.5,8.7-6.1C167.1,360.5,167.1,355.3,165.9,350.1L165.9,350.1z"/>
	<path class="st0" d="M110.6,310L110.6,310L110.6,310L110.6,310z"/>
	<path class="st0" d="M127.7,328.5c0.1,2.9,0.1,5.9,0.1,8.8h8c0-4,0.2-8-0.1-11.9c-0.1-2.2-2.5-3.8-5-4.1c-0.9-0.1-1.7-0.1-2.7-0.1
		c2.9-3.8,5.7-7.4,8.6-11.2h-9.8c-2.6,3.6-5.2,7.2-8,11v-11h-0.1c-2.8,0-5.5,0-8.3,0l0,0h-9.1c-2.2,3.7-4.4,7.4-6.7,11.2
		c-2.3-3.8-4.5-7.5-6.7-11.2h-9c3.6,5.4,7.2,10.8,10.6,16.2c0.7,1.1,1,2.4,1.1,3.6c0.2,2.5,0.1,4.9,0.1,7.5H99c0-2,0.1-4.1,0-6.1
		s0.3-3.8,1.6-5.6c1.4-1.9,2.5-3.9,3.7-5.8c2-3.1,4-6.3,6.2-9.7v27h0.1h8.3V327c2.5,0,4.9-0.1,7.3,0.1
		C126.8,327.1,127.7,328,127.7,328.5L127.7,328.5z"/>
	<path class="st0" d="M147.6,327c2.4,0,4.8,0,7.1,0c1.4,0,1.9,0.4,1.8,1.6c-0.1,2.9,0,5.8,0,8.6h8.1c0-3.8,0.1-7.5-0.1-11.2
		c-0.1-1.1-0.7-2.5-1.7-3.1c-1.7-1-3.8-1.5-5.7-2.2c2.5-3.3,5.4-6.9,8.3-10.7h-9.8c-2.6,3.6-5.3,7.2-8.1,11.1V310h-8.3v27.2h8.3
		L147.6,327L147.6,327z"/>
	<path class="st0" d="M159.9,383.6c-2.7,0-4.8-1.9-4.8-4.3s2.2-4.3,4.8-4.3c2.7,0,4.8,1.9,4.8,4.3
		C164.7,381.6,162.5,383.6,159.9,383.6z M159.9,375.6c-2.3,0-4.2,1.7-4.2,3.7s1.9,3.7,4.2,3.7s4.2-1.7,4.2-3.7
		S162.2,375.6,159.9,375.6z"/>
	<path class="st0" d="M161.7,381.8c0,0-0.1-0.1-0.2-0.2c-0.1-0.1-0.2-0.2-0.4-0.4c-0.2-0.2-0.4-0.4-0.7-0.7s-0.6-0.6-1-1l0,0
		c0.1,0,0.1,0,0.2-0.1c0.1,0,0.2-0.1,0.2-0.1c0.1,0,0.1-0.1,0.2-0.1c0.1,0,0.1-0.1,0.2-0.1c0.1-0.1,0.2-0.2,0.3-0.3
		c0.1-0.1,0.1-0.3,0.1-0.5s-0.1-0.4-0.2-0.5s-0.3-0.2-0.4-0.3c-0.2-0.1-0.3-0.1-0.5-0.1s-0.3,0-0.5,0c-0.1,0-0.2,0-0.2,0h-0.1
		c0,0.5,0,0.9,0,1.2c0,0.4,0,0.6,0,0.7v0.6c0,0.2,0,0.5,0,0.8s0,0.5,0,0.7v0.4H158c0-0.1,0-0.4,0-0.8s0-0.9,0-1.6v-0.7
		c0-0.2,0-0.4,0-0.7s0-0.7,0-1.1h0.1c0.1,0,0.2,0,0.3,0s0.2,0,0.3,0h0.3c0.2,0,0.5,0,0.7,0s0.4,0.1,0.6,0.2c0.3,0.1,0.5,0.2,0.6,0.5
		c0.2,0.2,0.2,0.4,0.2,0.7c0,0.4-0.1,0.6-0.4,0.9c-0.1,0.1-0.2,0.2-0.3,0.3c-0.1,0.1-0.2,0.1-0.3,0.2l0,0c0.2,0.2,0.4,0.4,0.6,0.6
		c0.2,0.2,0.4,0.4,0.6,0.6c0.4,0.4,0.7,0.6,0.7,0.7L161.7,381.8L161.7,381.8z"/>
	<path class="st0" d="M121.7,351.6c0-0.4-0.1-1.2-0.2-1.6c-0.1-4.1-3.2-7.3-8.3-8.5c-7-1.7-14-1.2-21.1-0.4
		c-9.1,1.1-10.8,6.1-10.5,13h12.1c0.6-3.2,1.2-4,4.2-4.2c2.7-0.2,5.5-0.1,8.2,0c2.2,0.1,3,1.2,3,3.1c0,6.9,0,13.7,0,20.6
		c0,0.2,0,0.5,0,0.8c-4,0-8,0-11.9,0c-2.8,0-4.2-1.1-4.4-3.5c-0.2-2.6,1-4.2,3.8-4.4c3.2-0.2,6.4,0,9.7,0v-8.3
		c-5.9-0.8-11.7-0.9-17.4,0.5c-4.5,1.1-7.5,3.7-8.3,7.8c-0.8,3.9-0.5,7.8,1,11.6c1.2,3,3.6,5,7.1,5.1c0.7,0,1.4,0,2.1,0l0.3,0.1
		l10.9,0.1c6.5,0,13.1,0.1,19.6,0.1c0,0,0.1,0,0.2-0.1c0-0.1,0-0.2,0-0.4C121.6,372.6,121.6,362.1,121.7,351.6L121.7,351.6z"/>
	<path class="st0" d="M90.1,416.8l-3.4-6.8H88l1.5,3.2c0.4,0.8,0.7,1.6,1.1,2.4h0.1c0.4-0.8,0.8-1.6,1.1-2.4l1.5-3.2h1.3l-3.4,6.8
		v4.4H90L90.1,416.8L90.1,416.8z"/>
	<path class="st0" d="M96.3,410h1.3v5.8l0,0l4.8-5.8h1.4l-3.5,4.2l4,6.9h-1.4l-3.4-5.9l-2,2.4v3.6h-1.3L96.3,410L96.3,410z"/>
	<path class="st0" d="M106,410h1.3v5.8l0,0l4.8-5.8h1.4l-3.5,4.2l4,6.9h-1.4l-3.4-5.9l-2,2.4v3.6H106V410z"/>
	<path class="st0" d="M118.3,410.7c-0.8,1.2-1.7,2.2-2.6,3c-0.2-0.2-0.5-0.6-0.8-0.8c1.4-1.1,2.7-2.7,3.4-4.5l1,0.3
		c-0.2,0.4-0.3,0.8-0.6,1.2h9.5v0.8H118.3L118.3,410.7z M119.1,419.1c-0.7,1.2-2,2.5-3.2,3.1c-0.1-0.2-0.4-0.5-0.6-0.7
		c1.1-0.5,2.4-1.6,3.1-2.7L119.1,419.1z M120.6,418.3v4h-1v-4h-4.2v-0.8h4.2v-2.7h1v2.7h4.1v0.8H120.6z M126.3,413.6
		c0,4.8,0.1,7.8,1.4,7.8c0.3,0,0.4-0.9,0.4-2.2c0.2,0.2,0.5,0.5,0.7,0.6c-0.1,2-0.3,2.7-1.2,2.7c-2.1,0-2.3-2.9-2.3-7.9h-8.8v-0.8
		L126.3,413.6L126.3,413.6z M117.3,414.9c0.5,0.6,1,1.4,1.2,1.9l-0.8,0.4c-0.2-0.5-0.7-1.4-1.2-2L117.3,414.9L117.3,414.9z
		 M118,412.5v-0.8h9.1v0.8H118z M121.9,418.9c1,0.7,2.3,1.8,2.9,2.5l-0.6,0.6c-0.6-0.7-1.8-1.8-2.8-2.6L121.9,418.9L121.9,418.9z
		 M123.8,415.3c-0.5,0.7-1.2,1.5-1.7,2.1l-0.7-0.3c0.5-0.6,1.1-1.5,1.5-2.1L123.8,415.3L123.8,415.3z"/>
	<path class="st0" d="M136.1,416.9c-0.9,0-1.5-0.1-1.7-0.4c-1.2,0.5-2.4,0.9-3.6,1.3c-0.1-0.2-0.4-0.6-0.6-0.8
		c1.4-0.4,2.8-0.8,4-1.3v-3h0.9v2.6c2-0.9,3.8-2.1,4.9-3.6l0.9,0.4c-1.4,1.7-3.3,3-5.5,4c0.2,0,0.4,0.1,0.7,0.1h3.2
		c0.7,0,0.9-0.2,0.9-1.7c0.2,0.2,0.6,0.3,0.9,0.4c-0.1,1.8-0.4,2.2-1.7,2.2L136.1,416.9L136.1,416.9z M133.1,413.2
		c-0.5,1-1.2,2.1-2.1,2.9l-0.8-0.5c0.9-0.7,1.6-1.8,2.1-2.7L133.1,413.2L133.1,413.2z M131.7,412.7h-1v-2.9h6
		c-0.1-0.4-0.2-0.9-0.4-1.3l1-0.1c0.2,0.4,0.4,1,0.5,1.5h5.8v2.9h-1v-2h-10.8L131.7,412.7L131.7,412.7z M141.3,418.1h1v4.3h-1v-0.7
		H132v-3.5h1v2.5h3.6v-3.3h1v3.3h3.7V418.1L141.3,418.1z M137.5,413.3c-0.6-0.6-1.7-1.3-2.6-1.7l0.5-0.6c0.9,0.4,2.1,1.1,2.6,1.6
		L137.5,413.3L137.5,413.3z M141.3,412.9c1,0.8,2.1,2,2.6,2.8l-0.8,0.6c-0.5-0.8-1.6-2-2.6-2.9L141.3,412.9L141.3,412.9z"/>
	<path class="st0" d="M158,411.8v-1.4h-3.8v1.5c0,0.3,0.1,0.5,0.4,0.5h2.4c0.3,0,0.9,0,1.2-0.1c0,0.3,0.1,0.5,0.1,0.7
		c-0.2,0.1-0.7,0.1-1.2,0.1h-2.7c-1,0-1.2-0.4-1.2-1.2v-1.5h-2.1c-0.4,1.8-1.5,2.6-4.6,3.1c-0.1-0.2-0.3-0.6-0.5-0.8
		c2.8-0.3,3.8-0.9,4.1-2.3h-3.2v1.5h-1v-2.3h6.1c-0.1-0.3-0.3-0.7-0.4-1l1-0.1c0.2,0.3,0.4,0.8,0.5,1.2h5.9v2.2h-1V411.8z
		 M152.4,412.8c-0.3,0.4-0.6,0.8-0.9,1.2h6.1v8.4h-1v-0.6h-8.3v0.7h-1V414h3.2c0.3-0.4,0.7-1,0.9-1.4L152.4,412.8L152.4,412.8z
		 M156.6,414.8h-8.3v6.1h8.3V414.8z M155.2,420.4c-0.4-0.5-1.1-1.1-1.8-1.7c-1.1,0.7-2.4,1.4-3.9,1.9c-0.1-0.2-0.4-0.5-0.6-0.6
		c1.5-0.5,2.8-1.1,3.9-1.8c-0.4-0.3-0.9-0.6-1.3-0.9c-0.6,0.4-1.3,0.7-2,1c-0.1-0.2-0.4-0.5-0.6-0.6c0.7-0.3,1.3-0.5,1.9-0.9
		c-0.5-0.3-1-0.6-1.5-0.9l0.6-0.5c0.5,0.3,1.1,0.6,1.6,0.9c0.7-0.4,1.2-0.8,1.6-1.3l1,0.2c-0.5,0.5-1.1,1-1.9,1.5
		c0.4,0.3,0.9,0.6,1.3,0.9c0.8-0.6,1.5-1.2,1.9-1.8l1,0.2c-0.6,0.7-1.3,1.4-2.3,2.1c0.7,0.6,1.3,1.1,1.8,1.6L155.2,420.4
		L155.2,420.4z"/>
</g>
<g>
	<path class="st0" d="M298.5,308v79h35v-79H298.5z M301.2,353.8c-0.9,0-1.6-0.7-1.6-1.6s0.7-1.6,1.6-1.6s1.6,0.7,1.6,1.6
		S302.1,353.8,301.2,353.8z M314.3,348.9h-12.4v-17.1h12.4V348.9z M314.3,328.6h-12.4v-17h12.4V328.6L314.3,328.6z M330.1,348.9
		h-12.4v-17.1h12.4V348.9z M330.1,328.6h-12.4v-17h12.4V328.6L330.1,328.6z"/>
	<path class="st0" d="M336.4,305v82h-2v-80h-36.9v80h-2v-82H336.4z"/>
	<path class="st0" d="M333.5,308v79h-0.1L333.5,308l-34.9,0.1v79h-0.1v-79h35V308z"/>
	<path class="st0" d="M299.4,411.5c-0.6-0.7-1.6-1.6-2.6-2.3c-0.5,0.8-1.1,1.5-1.7,2.1h3.8v0.9h-1.6v1.8h2.1v0.9h-2.1v4.7l2.2-0.5
		l0.1,0.8c-1.8,0.4-3.7,0.8-5.1,1.1l-0.2-0.9c0.6-0.1,1.3-0.2,2.1-0.4v-4.9h-2.1v-0.9h2.1v-1.8H295v-0.8c-0.2,0.2-0.5,0.4-0.7,0.6
		c-0.1-0.2-0.3-0.7-0.4-0.9c1.1-0.8,2.2-2.1,2.8-3.5l0.8,0.3c-0.1,0.2-0.2,0.4-0.3,0.6c1,0.7,2,1.6,2.6,2.3L299.4,411.5L299.4,411.5
		z M295.4,415.7c0.3,0.9,0.6,2.1,0.6,2.9l-0.7,0.2c0-0.8-0.3-2-0.6-2.9L295.4,415.7L295.4,415.7z M297.8,418.3
		c0.2-0.8,0.5-2,0.6-2.8l0.8,0.2c-0.2,1-0.5,2.1-0.7,2.8L297.8,418.3z M307.8,420.2c0,0.6-0.1,0.9-0.6,1.1c-0.4,0.2-1.1,0.2-2.3,0.2
		c-0.1-0.2-0.2-0.7-0.3-0.9c0.9,0,1.7,0,1.9,0c0.2,0,0.3-0.1,0.3-0.3v-11.1h-6v12.3H300v-13.2h7.7L307.8,420.2L307.8,420.2z
		 M301.9,414.2h0.6v3.6h1v-4.6h-2.1v-0.8h2.9c0.3-0.8,0.6-2,0.7-2.9l0.8,0.2c-0.3,0.8-0.5,1.9-0.8,2.7h1.2v0.8h-2.1v4.6h1.1v-3.6
		h0.6v4.4h-4L301.9,414.2L301.9,414.2z M302.5,409.6c0.4,0.7,0.7,1.7,0.8,2.3l-0.7,0.2c-0.1-0.6-0.4-1.6-0.8-2.4L302.5,409.6
		L302.5,409.6z"/>
	<path class="st0" d="M317.5,412.4c1.4,2.6,3.8,5.3,6.1,6.6c-0.2,0.2-0.6,0.6-0.8,0.9c-2.1-1.3-4.3-3.8-5.8-6.4v8.1h-1v-8.1
		c-1.5,2.6-3.6,5.1-5.8,6.4c-0.2-0.3-0.5-0.6-0.8-0.8c2.4-1.3,4.7-3.9,6.1-6.6H310v-1h6v-3.8h1v3.8h6.1v1L317.5,412.4L317.5,412.4z"
		/>
	<path class="st0" d="M331,413.8h-4.4v7.6h-1v-13.1h5.4V413.8L331,413.8z M326.6,409.2v1.4h3.4v-1.4H326.6z M330,413v-1.6h-3.4v1.6
		H330z M338,420c0,0.7-0.2,1.1-0.7,1.2s-1.4,0.2-2.8,0.2c-0.1-0.3-0.2-0.8-0.4-1c1,0.1,2.1,0,2.4,0s0.4-0.1,0.4-0.4v-6.2h-4.6v-5.5
		h5.6L338,420L338,420z M333.4,409.2v1.4h3.6v-1.4H333.4z M337,413v-1.6h-3.6v1.6H337z"/>
</g>
<g>
	<path class="st0" d="M472.8,411.3H468v2.5h-1v-3.2h5.8v-1h-5.2v-0.8H479v0.8h-5.3v1h6v3.2h-1v-2.5h-5v3.5h-1L472.8,411.3
		L472.8,411.3z M478.4,421.1c0.8,0,1-0.3,1.1-1.8c0.2,0.2,0.6,0.3,0.9,0.3c-0.1,1.8-0.5,2.3-1.9,2.3h-3.6c-1.6,0-2.1-0.3-2.1-1.4
		V420h-3.5v0.8h-1v-5.3h10.2v4.5h-4.8v0.5c0,0.5,0.2,0.6,1.2,0.6H478.4L478.4,421.1z M468.3,414.1c1-0.1,2.2-0.3,3.6-0.5v0.7
		c-1.2,0.2-2.3,0.5-3.3,0.7L468.3,414.1L468.3,414.1z M469,411.7c1,0.2,2.3,0.5,3,0.8l-0.3,0.6c-0.7-0.3-2-0.7-3-0.9L469,411.7z
		 M469.3,416.2v1.1h3.5v-1.1H469.3z M472.8,419.1V418h-3.5v1.1H472.8z M477.6,416.2h-3.8v1.1h3.8V416.2z M477.6,419.1V418h-3.8v1.1
		H477.6z M478.1,414.9c-0.8-0.3-2.4-0.7-3.6-0.8l0.3-0.6c1.2,0.1,2.7,0.5,3.6,0.8L478.1,414.9L478.1,414.9z M478.1,412.2
		c-0.9,0.4-2.1,0.7-3,0.9l-0.4-0.5c0.9-0.2,2.2-0.7,2.9-0.9L478.1,412.2L478.1,412.2z"/>
	<path class="st0" d="M495.3,412.3c-0.2,6.4-0.3,8.5-0.8,9.2c-0.2,0.4-0.6,0.5-1,0.5c-0.4,0.1-1.1,0.1-1.9,0c0-0.3-0.1-0.7-0.3-1
		c0.8,0.1,1.5,0.1,1.8,0.1s0.4,0,0.5-0.2c0.4-0.5,0.6-2.5,0.7-8.2H492c-0.2,4.1-0.9,7.4-3.6,9.5c-0.1-0.2-0.5-0.6-0.8-0.7
		c0.3-0.2,0.6-0.4,0.8-0.7c-2.4,0.3-4.8,0.6-6.5,0.8l-0.1-0.9c0.9-0.1,2.1-0.2,3.3-0.3V419h-2.9v-0.8h2.9v-1h-2.9v-4.5h2.9v-1h-3.4
		v-0.8h3.4v-1.1c-1,0.1-2,0.1-2.9,0.2c-0.1-0.2-0.1-0.6-0.3-0.8c2.3-0.1,5-0.4,6.6-0.8l0.5,0.8c-0.8,0.2-1.9,0.3-3,0.5v1.2h3.3v0.8
		H486v1h3v4.5h-3v1h3v0.8h-3v1.3c1-0.1,2.1-0.2,3.1-0.3v0.1c1.4-1.9,1.8-4.4,1.9-7.3h-1.9v-1h1.9c0-1.1,0-2.2,0-3.4h1
		c0,1.2,0,2.3,0,3.4h3.3V412.3L495.3,412.3z M483,414.5h2v-1.2h-2V414.5z M485.1,416.4v-1.2h-2v1.2H485.1z M486,413.3v1.2h2.1v-1.2
		H486z M488.1,415.2H486v1.2h2.1V415.2z"/>
	<path class="st0" d="M510.7,419.8h-6.4v2.3h-1v-2.3h-6.2v-0.9h6.2v-1.3h-4.6v-5.9h4.6v-1.2h-5.8v-0.9h5.8v-1.4h1v1.4h5.8v0.9h-5.8
		v1.2h4.8v5.9h-4.8v1.3h6.4V419.8z M499.7,414.2h3.6v-1.7h-3.6V414.2z M503.4,416.7V415h-3.6v1.7H503.4z M504.4,412.6v1.7h3.7v-1.7
		H504.4z M508.1,415.1h-3.7v1.7h3.7V415.1z"/>
	<path class="st0" d="M524.4,420.8c0.6,0,0.7-0.4,0.8-2.4c0.2,0.2,0.7,0.4,0.9,0.4c-0.1,2.3-0.4,2.9-1.7,2.9H522
		c-1.3,0-1.7-0.3-1.7-1.5v-5l-2.4,0.1c-0.3,3.4-1.1,5.5-4.8,6.6c-0.1-0.3-0.4-0.6-0.6-0.8c3.5-1,4.1-2.8,4.4-5.8
		c-2.2,0.1-2.7,0.2-3,0.3c-0.1-0.2-0.2-0.8-0.4-1c0.4-0.1,0.8-0.5,1.3-1.2c0.3-0.3,1-1.2,1.8-2.3h-4v-1h4.6c0.4-0.7,0.8-1.3,1.2-2
		l1.1,0.4c-0.3,0.5-0.7,1.1-1,1.6h7.2v1h-7.9c-0.9,1.2-1.8,2.4-2.6,3.3l7.5-0.4c-0.7-0.7-1.4-1.3-2.1-1.9l0.8-0.5
		c1.4,1.1,3.1,2.6,3.8,3.7l-0.9,0.6c-0.2-0.3-0.5-0.6-0.8-1l-2.2,0.1v5.1c0,0.5,0.1,0.6,0.8,0.6L524.4,420.8L524.4,420.8z"/>
	<path class="st0" d="M533.9,411.3H529v2.5h-1v-3.2h5.8v-1h-5.2v-0.8H540v0.8h-5.3v1h6v3.2h-1v-2.5h-5v3.5h-1v-3.5H533.9z
		 M539.5,421.1c0.8,0,1-0.3,1-1.8c0.2,0.2,0.6,0.3,0.9,0.3c-0.2,1.8-0.5,2.3-1.9,2.3h-3.6c-1.6,0-2.1-0.3-2.1-1.4V420h-3.5v0.8h-1
		v-5.3h10.2v4.5h-4.8v0.5c0,0.5,0.2,0.6,1.2,0.6H539.5L539.5,421.1z M529.4,414.1c1-0.1,2.2-0.3,3.6-0.5v0.7
		c-1.2,0.2-2.3,0.5-3.3,0.7L529.4,414.1L529.4,414.1z M530,411.7c1,0.2,2.3,0.5,3,0.8l-0.3,0.6c-0.7-0.3-2-0.7-3-0.9L530,411.7z
		 M530.3,416.2v1.1h3.5v-1.1H530.3z M533.9,419.1V418h-3.5v1.1H533.9z M538.6,416.2h-3.8v1.1h3.8V416.2z M538.6,419.1V418h-3.8v1.1
		H538.6z M539.2,414.9c-0.8-0.3-2.4-0.7-3.6-0.8l0.3-0.6c1.2,0.1,2.7,0.5,3.6,0.8L539.2,414.9L539.2,414.9z M539.2,412.2
		c-0.9,0.4-2.1,0.7-3,0.9l-0.4-0.5c0.9-0.2,2.2-0.7,2.9-0.9L539.2,412.2L539.2,412.2z"/>
	<path class="st0" d="M546.8,416.1c-0.2-0.4-0.6-1.2-1-1.9v8H545v-7.6c-0.5,1.7-1.1,3.4-1.8,4.4c-0.1-0.3-0.3-0.7-0.5-0.9
		c0.9-1.3,1.8-3.8,2.2-5.9H543v-1h1.9v-3h0.9v3h1.3v1h-1.3v0.8c0.4,0.5,1.4,2.1,1.6,2.5L546.8,416.1L546.8,416.1z M554,414.6
		c0.8,1,1.9,2,2.9,2.5c-0.2,0.2-0.5,0.5-0.6,0.8c-0.4-0.2-0.8-0.5-1.2-0.9v5.1h-0.9v-0.5h-4.8v0.6h-0.9V417
		c-0.3,0.3-0.7,0.7-1.1,0.9c-0.1-0.2-0.5-0.6-0.7-0.7c1.1-0.7,1.9-1.6,2.6-2.6h-1.8v-0.9h2.3c0.2-0.4,0.4-0.8,0.5-1.2H548v-0.8h2.5
		c0.1-0.4,0.2-0.8,0.3-1.2h-3.2v-0.9h3.4c0.1-0.5,0.1-1,0.2-1.5l0.9,0.1c0,0.5-0.1,0.9-0.2,1.4h3.9v0.9h-4.1
		c-0.1,0.4-0.2,0.8-0.3,1.2h3.9v0.8h-4.2c-0.1,0.4-0.3,0.8-0.5,1.2h5.5v0.9L554,414.6L554,414.6z M554.2,420.6v-1.5h-2v-0.8h2v-1.4
		h-2v-0.8h2.1c-0.4-0.5-0.8-1-1.2-1.5h-2.6c-0.4,0.6-0.8,1.2-1.3,1.8c0.7-0.2,1.4-0.6,1.9-0.8l0.5,0.6c-0.6,0.3-1.4,0.6-2.1,0.8v1.3
		h1.8v0.8h-1.8v1.5H554.2z"/>
	<path class="st0" d="M546.8,335.4c-1.7,0-3.4,0-5.2,0c-0.8,0-1.5,0.1-2,0.8c-0.1-0.2-0.3-0.4-0.3-0.5c-1.6-2.6-3.2-5.3-4.8-7.9
		c-1.5-2.4-3.5-4.2-6.3-4.7c-1.4-0.2-2.8-0.4-4.1-0.4c-2.2,0-4.4,0-6.6,0c-0.9,0-1.7,0-2.6,0c-4.8,0-9.5,0-14.3,0
		c-0.9,0-1.9,0-2.8,0.1c-3.6,0.2-6.5,1.8-8.4,5c-0.8,1.3-1.5,2.5-2.3,3.8c-1,1.5-1.9,3.1-2.9,4.7c-0.5-0.7-1.2-0.8-2-0.8
		c-1.7,0-3.4,0-5.1,0c-0.3,0-0.6,0-0.8,0.1c-0.8,0.2-1.2,0.6-1.3,1.4c0,0.8,0,1.6,0,2.4c0.1,1,0.6,1.5,1.6,1.5c1.3,0,2.7,0,4,0
		c0.2,0,0.4,0,0.7,0c-0.2,0.4-0.4,0.7-0.6,1c-2.7,4.2-4,8.9-3.9,13.9c0.1,5.8,0,11.7,0,17.6c0,0.4,0,0.8,0,1.2
		c0.1,1.1,0.8,1.8,1.9,1.8c2.6,0,5.2,0,7.8,0c1.1,0,1.8-0.8,1.9-1.9c0-1.2,0-2.4,0-3.6c0-0.2,0-0.5,0-0.7h47.1v0.8
		c0,1.2,0,2.3,0,3.5c0,1.3,0.8,2,2.1,2h7.2c1.6,0,2.3-0.7,2.3-2.3c0-6.3,0-12.5,0-18.8c0-4.7-1.2-9.1-3.7-13.1
		c-0.3-0.4-0.5-0.8-0.8-1.4c1.7,0,3.2,0,4.7,0c1,0,1.6-0.6,1.6-1.6c0-0.6,0-1.2,0-1.8C548.8,335.9,548.3,335.4,546.8,335.4
		L546.8,335.4z M491.1,356.9c-0.9,0-1.8,0-2.7,0c-0.8,0-1.6,0-2.4,0c-1.9,0.1-3.6-0.6-5.1-1.7c-0.6-0.4-0.9-1-0.8-1.7
		c0.1-0.9,0.1-1.8,0.4-2.6c0.3-1.2,0.9-1.6,2.1-1.3c4.5,1,9,2,13.5,3c0.3,0.1,0.6,0.3,0.7,0.5s-0.2,0.6-0.4,0.8
		c-0.8,0.7-1.6,1.3-2.4,2C493.2,356.6,492.2,356.9,491.1,356.9L491.1,356.9z M495.8,368.3l13.4-20.7l-10-5.8l0.2-0.2h-13
		c-1.6,0-2-0.7-1.2-2.1c2.1-3.5,4.3-6.9,6.5-10.4c0.2-0.3,0.5-0.6,0.7-0.9c1.5-2,3.4-2.9,6-2.9c4.7,0,9.5,0.1,14.2,0.1h2.7
		c0.4,0,0.8,0,1.2,0c3.3,0,6.5,0,9.8,0c1.8,0,3.2,0.6,4.4,1.9c0.7,0.8,1.4,1.6,2,2.5c2,3.1,3.9,6.3,5.9,9.4c0.2,0.4,0.5,0.8,0.6,1.3
		c0.2,0.6-0.1,1-0.7,1.1c-0.4,0.1-0.8,0-1.1,0h-21.8l6,4.2L495.8,368.3L495.8,368.3z M543.1,350.2c0.6,1.2,0.7,2.6,0.5,3.9
		c-0.1,0.4-0.4,0.8-0.7,1c-1.5,1.1-3.1,1.8-5,1.8c-0.8,0-1.6,0-2.4,0v-0.1c-1.2,0-2.4,0.1-3.6,0c-0.8-0.1-1.5-0.5-2.2-0.9
		c-0.8-0.5-1.5-1.2-2.2-1.8c-0.2-0.2-0.5-0.6-0.4-0.8s0.5-0.5,0.8-0.6c3.3-0.8,6.6-1.5,9.9-2.2c1.3-0.3,2.5-0.5,3.8-0.8
		C542.3,349.3,542.8,349.5,543.1,350.2L543.1,350.2z M501,341.6l9.8,5.6l-9.6,14.8l18.5-16.1l-6.1-4.3H501z"/>
	<path class="st0" d="M514.8,322.6l-2.3,2.8l-13.2,16.2h1.6l-0.1-0.1l13.2-16.2l2.1-2.6l-0.9,2.6l-4.9,13.9l3.2,2.3h1.8l-3.7-2.6
		l4.8-13.6l1-2.8l2-5.6L514.8,322.6L514.8,322.6z"/>
</g>
<line class="st1" x1="0" y1="117" x2="610" y2="117"/>
<line class="st1" x1="0" y1="267" x2="610" y2="267"/>
</svg>
