<svg width="375" height="607" viewBox="0 0 375 607" fill="none" xmlns="http://www.w3.org/2000/svg">
<g clip-path="url(#clip0_53_19181)">
<rect width="375" height="544" fill="url(#paint0_linear_53_19181)"/>
<rect width="375" height="711.5" fill="#005BB8" fill-opacity="0.3"/>
<line x1="42.5" y1="299" x2="332.5" y2="299" stroke="white"/>
<path d="M149.04 280.524L149.148 280.872H159.684C159.852 280.872 159.984 280.812 160.008 280.68C159.504 280.236 158.664 279.588 158.664 279.588L157.92 280.524H149.04ZM152.448 283.632L152.544 283.98H158.784C158.952 283.98 159.084 283.92 159.108 283.788C158.628 283.356 157.824 282.756 157.824 282.756L157.116 283.632H152.448ZM150.936 288.18L151.032 288.516H159.708C159.876 288.516 160.008 288.456 160.044 288.336C159.528 287.88 158.676 287.256 158.676 287.256L157.932 288.18H150.936ZM152.856 277.872C152.532 281.316 151.524 285.6 148.836 288.324L148.98 288.432C152.436 285.924 153.588 281.748 154.14 278.4C154.512 278.364 154.608 278.268 154.644 278.1L152.856 277.872ZM154.716 283.632V288.3H155.916V283.632H154.716ZM162.108 280.608L162.216 280.956H172.956C173.136 280.956 173.256 280.896 173.292 280.764C172.776 280.32 171.924 279.672 171.924 279.672L171.18 280.608H162.108ZM166.368 277.86C165.888 280.704 164.652 284.1 162.072 286.176L162.192 286.296C165.42 284.484 166.872 281.28 167.604 278.532C167.94 278.52 168.036 278.424 168.084 278.268L166.368 277.86ZM164.928 283.728V289.008H165.132C165.72 289.008 166.092 288.792 166.092 288.72V284.076H170.652V288.924H170.856C171.456 288.924 171.852 288.696 171.852 288.624V284.16C172.128 284.112 172.248 284.04 172.32 283.932L171.192 283.056L170.604 283.728H166.224L164.928 283.212V283.728ZM165.552 287.592V287.928H171.264V287.592H165.552ZM180.528 284.448L180.516 284.64C181.716 284.76 182.832 285.096 183.336 285.348C184.284 285.396 184.188 283.572 180.528 284.448ZM180.612 286.224L181.116 287.376C181.236 287.352 181.344 287.244 181.404 287.088C182.676 286.536 183.624 286.08 184.272 285.768L184.248 285.6C182.748 285.9 181.26 286.152 180.612 286.224ZM184.356 283.188H180.432V283.536H184.356V283.188ZM179.664 283.068V284.568C179.664 285.972 179.556 287.604 178.512 288.924L178.632 289.056C180.576 287.82 180.756 285.876 180.756 284.568V283.188H180.936L179.664 282.696V283.068ZM181.884 279.54V281.916H182.784V279.972H182.94L181.884 279.54ZM184.284 279.972H182.304V280.32H184.284V279.972ZM185.088 281.76H185.22C185.16 282.132 185.004 282.852 184.932 283.2L185.088 283.272C185.4 283.032 185.928 282.576 186.204 282.3C186.444 282.288 186.576 282.264 186.66 282.168L185.652 281.196L185.088 281.76ZM179.28 281.16L179.112 281.148C179.04 281.916 178.74 282.432 178.332 282.648C177.408 283.86 180.24 284.4 179.28 281.16ZM179.868 278.1V281.904H180.864V278.904H183.912V281.904H184.944V279.012C185.244 278.964 185.388 278.916 185.484 278.784L184.272 277.932L183.78 278.556H180.996L179.868 278.1ZM183.84 283.188H183.96V287.496C183.96 287.664 183.9 287.736 183.696 287.736C183.468 287.736 182.34 287.652 182.34 287.652V287.832C182.868 287.916 183.132 288.036 183.312 288.216C183.468 288.384 183.528 288.648 183.552 288.996C184.872 288.876 185.028 288.408 185.028 287.628V283.704C185.268 283.656 185.436 283.572 185.508 283.476L184.344 282.6L183.84 283.188ZM185.472 281.76H179.22V282.108H185.472V281.76ZM175.908 285.504C175.776 285.504 175.38 285.504 175.38 285.504V285.756C175.632 285.78 175.824 285.816 175.98 285.936C176.256 286.116 176.316 287.172 176.124 288.42C176.184 288.828 176.4 289.032 176.628 289.032C177.12 289.032 177.444 288.672 177.468 288.108C177.504 287.076 177.084 286.572 177.072 285.972C177.06 285.684 177.144 285.288 177.24 284.904C177.408 284.292 178.284 281.544 178.752 280.08L178.56 280.02C176.46 284.832 176.46 284.832 176.232 285.252C176.112 285.504 176.064 285.504 175.908 285.504ZM175.38 280.776L175.272 280.872C175.68 281.22 176.16 281.82 176.28 282.372C177.312 283.068 178.188 281.076 175.38 280.776ZM176.1 277.932L175.992 278.028C176.448 278.424 176.988 279.096 177.144 279.708C178.224 280.416 179.112 278.34 176.1 277.932ZM188.52 280.152L188.616 280.5H194.616C194.784 280.5 194.904 280.44 194.94 280.308C194.508 279.912 193.812 279.396 193.812 279.396L193.2 280.152H188.52ZM188.7 285.792L188.796 286.14H194.28C194.448 286.14 194.556 286.08 194.592 285.948C194.184 285.588 193.536 285.084 193.536 285.084L192.972 285.792H188.7ZM188.544 287.496L189.072 288.9C189.204 288.876 189.336 288.78 189.408 288.624C191.784 287.976 193.44 287.436 194.604 287.028L194.58 286.848C192.036 287.16 189.576 287.436 188.544 287.496ZM189.492 282.864V283.212H193.692V282.864H189.492ZM189.492 284.34V284.676H193.692V284.34H189.492ZM193.548 277.848C192.42 278.28 190.26 278.856 188.568 279.12L188.604 279.324C190.428 279.3 192.552 279.096 193.932 278.892C194.232 279.024 194.484 279.024 194.604 278.916L193.548 277.848ZM191.064 278.94V287.712H191.232C191.736 287.712 192.072 287.484 192.072 287.4V278.736L191.064 278.94ZM188.952 281.4V285.18H189.12C189.624 285.18 189.936 284.988 189.936 284.916V281.748H193.248V284.964H193.428C193.932 284.964 194.28 284.76 194.28 284.7V281.82C194.532 281.772 194.652 281.7 194.724 281.604L193.704 280.836L193.212 281.4H190.068L188.952 280.956V281.4ZM194.508 280.848L194.616 281.196H198.612V280.848H194.508ZM195.804 278.016C195.804 283.08 196.08 286.476 193.272 288.864L193.416 289.056C197.1 286.908 196.86 283.5 196.908 278.508C197.196 278.46 197.316 278.352 197.352 278.172L195.804 278.016ZM198.216 280.848C198.156 285.048 198.024 287.112 197.652 287.496C197.532 287.604 197.436 287.64 197.232 287.64C197.004 287.64 196.404 287.592 196.02 287.556V287.748C196.416 287.832 196.764 287.976 196.92 288.132C197.064 288.3 197.1 288.564 197.1 288.924C197.64 288.924 198.132 288.756 198.48 288.372C199.044 287.748 199.212 285.936 199.284 281.364C199.548 281.34 199.704 281.256 199.776 281.16L198.684 280.212L198.084 280.848H198.216ZM203.808 278.976H201.696L201.804 279.324H203.808V278.976ZM207.3 278.352L206.844 278.976H205.488L205.584 279.324H207.84C208.008 279.324 208.128 279.264 208.152 279.132C207.84 278.796 207.3 278.352 207.3 278.352ZM206.616 277.944L205.248 277.812V280.14H205.428C205.8 280.14 206.244 279.96 206.244 279.876V278.22C206.496 278.196 206.592 278.088 206.616 277.944ZM204.732 277.956L203.364 277.824V280.164H203.544C203.916 280.164 204.348 279.996 204.348 279.912V278.232C204.612 278.196 204.708 278.1 204.732 277.956ZM204.612 282.504L204.492 282.564C204.66 282.84 204.864 283.308 204.888 283.692C205.644 284.34 206.652 282.96 204.612 282.504ZM206.568 280.596H206.664V282.696H206.796C207.048 282.696 207.456 282.528 207.468 282.456V281.016C207.648 280.992 207.804 280.908 207.864 280.836L206.976 280.164L206.568 280.596ZM205.092 280.188V282.768H205.224C205.632 282.768 205.884 282.564 205.884 282.504V280.596H206.04L205.092 280.188ZM207.048 282.024H205.452V282.372H207.048V282.024ZM207.048 280.596H205.452V280.944H207.048V280.596ZM203.64 280.596H203.736V282.744H203.868C204.12 282.744 204.528 282.576 204.528 282.504V281.016C204.708 280.992 204.864 280.908 204.912 280.836L204.048 280.176L203.64 280.596ZM202.164 280.2V282.888H202.296C202.704 282.888 202.956 282.696 202.956 282.636V280.596H203.112L202.164 280.2ZM204.288 283.02L202.992 282.6C202.704 283.86 202.188 285.144 201.672 285.96L201.84 286.08C202.62 285.42 203.328 284.388 203.832 283.248C204.096 283.26 204.24 283.152 204.288 283.02ZM205.728 283.896H204.768V287.952H205.728V283.896ZM203.604 288.672V283.788H203.76L203.268 283.596L202.62 284.532V288.984H202.788C203.292 288.984 203.604 288.756 203.604 288.672ZM206.928 287.088L206.4 287.748H202.98V288.096H207.612C207.78 288.096 207.888 288.036 207.924 287.904C207.54 287.544 206.928 287.088 206.928 287.088ZM206.652 285.804L206.184 286.392H202.98V286.74H207.24C207.396 286.74 207.516 286.68 207.528 286.548C207.192 286.224 206.652 285.804 206.652 285.804ZM206.652 284.484L206.184 285.072H202.98V285.42H207.228C207.396 285.42 207.504 285.36 207.528 285.228C207.192 284.904 206.652 284.484 206.652 284.484ZM206.88 283.164L206.364 283.788H203.004V284.136H207.504C207.672 284.136 207.792 284.076 207.816 283.944C207.444 283.608 206.88 283.164 206.88 283.164ZM204.12 282.024H202.56V282.372H204.12V282.024ZM204.12 280.596H202.56V280.944H204.12V280.596ZM209.808 284.616H208.764C208.74 286.572 208.464 287.82 206.736 288.852L206.808 289.032C209.052 288.228 209.724 286.92 209.808 284.616ZM211.26 284.604H210.252V287.868C210.252 288.468 210.36 288.708 211.116 288.708H211.632C212.676 288.708 213.024 288.528 213.024 288.156C213.024 287.976 212.976 287.868 212.724 287.736L212.676 286.44H212.544C212.4 286.992 212.268 287.556 212.184 287.7C212.136 287.796 212.1 287.808 212.016 287.82C211.956 287.82 211.86 287.82 211.728 287.82H211.44C211.284 287.82 211.26 287.784 211.26 287.652V284.964C211.26 284.88 211.26 284.736 211.26 284.604ZM208.02 278.052V285.432H208.188C208.716 285.432 209.04 285.216 209.04 285.132V278.856H211.092V285.204H211.272C211.788 285.204 212.16 284.988 212.16 284.928V278.94C212.424 278.904 212.556 278.832 212.64 278.724L211.572 277.884L211.044 278.508H209.184L208.02 278.052ZM211.716 284.52H208.476V284.868H211.716V284.52ZM211.716 282.576H208.476V282.924H211.716V282.576ZM211.716 280.656H208.476V281.004H211.716V280.656ZM215.028 282.036L215.124 282.372H225.72C225.888 282.372 226.02 282.312 226.044 282.18C225.564 281.76 224.784 281.184 224.784 281.184L224.1 282.036H215.028ZM215.916 280.548L216.012 280.884H224.88C225.048 280.884 225.168 280.824 225.204 280.692C224.736 280.284 223.968 279.708 223.968 279.708L223.296 280.548H215.916ZM218.952 283.356H219.108L218.256 283.032L217.824 283.68V289.02H218.028C218.592 289.02 218.952 288.756 218.952 288.66V283.356ZM218.388 284.796V285.144H223.812V284.796H218.388ZM218.4 286.296V286.644H223.824V286.296H218.4ZM218.4 287.832V288.18H223.824V287.832H218.4ZM223.956 277.884C222.084 278.46 218.484 279.096 215.592 279.312L215.616 279.528C218.64 279.564 222.072 279.264 224.316 278.904C224.652 279.06 224.904 279.06 225.024 278.952L223.956 277.884ZM219.408 279.06C218.808 281.82 217.32 284.424 214.896 286.08L215.028 286.224C218.1 284.676 219.876 282.24 220.644 279.252V279.06H219.408ZM218.376 283.356V283.692H223.812V283.356H218.376ZM223.284 283.356V288.996H223.464C223.848 288.996 224.424 288.756 224.436 288.672V283.86C224.64 283.824 224.796 283.728 224.868 283.644L223.728 282.756L223.176 283.356H223.284Z" fill="white"/>
</g>
<defs>
<linearGradient id="paint0_linear_53_19181" x1="187.5" y1="0" x2="187.5" y2="544" gradientUnits="userSpaceOnUse">
<stop offset="0.415" stop-color="#005BB8"/>
<stop offset="0.7" stop-color="#005BB8" stop-opacity="0"/>
</linearGradient>
<clipPath id="clip0_53_19181">
<rect width="375" height="607" fill="white"/>
</clipPath>
</defs>
</svg>
