<svg width="235" height="65" viewBox="0 0 235 65" fill="none" xmlns="http://www.w3.org/2000/svg">
<g filter="url(#filter0_d_6_1872)">
<path d="M19.9867 26.3018H19.3753V17.0963H7.10658V26.3018H6.49524V6.94727H7.10658V16.5098H19.3753V6.94727H19.9867V26.3018Z" fill="white"/>
<path d="M42.2629 16.6204C42.2629 22.4004 38.8377 26.6929 33.6371 26.6929C28.4365 26.6929 25.0114 22.4004 25.0114 16.6204C25.0114 10.8404 28.4365 6.54785 33.6371 6.54785C38.8377 6.54785 42.2629 10.8149 42.2629 16.6204ZM41.6014 16.6204C41.6014 10.5344 37.8998 7.13435 33.6371 7.13435C29.3745 7.13435 25.6729 10.5259 25.6729 16.6204C25.6729 22.7149 29.3745 26.1063 33.6371 26.1063C37.8998 26.1063 41.6014 22.6809 41.6014 16.6204Z" fill="white"/>
<path d="M59.6737 26.3015L48.1754 7.50798C48.234 10.1175 48.234 13.1775 48.234 15.787V26.31H47.6227V6.94698H48.5355L60.0589 25.7405C60.0003 23.131 60.0003 20.071 60.0003 17.4615V6.93848H60.6116V26.293H59.6737V26.3015Z" fill="white"/>
<path d="M81.7574 17.691V26.3015H81.146V21.142L80.5933 22.9695C79.0189 25.664 76.4479 26.701 73.9858 26.701C69.1788 26.701 65.6364 22.995 65.6364 16.688C65.6364 10.381 69.4803 6.56445 74.5636 6.56445C78.7342 6.56445 81.0623 9.25895 81.749 12.7355L81.8076 13.016H81.1963L81.1377 12.7355C80.5012 9.56495 78.2317 7.15095 74.4464 7.15095C70.2759 7.15095 66.2896 10.4575 66.2896 16.6625C66.2896 22.8675 69.8571 26.1145 74.0277 26.1145C76.9336 26.1145 81.1293 24.2105 81.1293 18.2605H74.6892V17.6995H81.7406L81.7574 17.691Z" fill="white"/>
<path d="M85.953 18.7027V18.1162H91.7566V18.7027H85.953Z" fill="white"/>
<path d="M108.531 12.1663C108.531 15.5323 106.487 17.1898 103.916 17.5213C103.029 17.6318 102.149 17.6658 101.178 17.6658H97.5602V26.3103H96.9489V6.94727H101.178C102.149 6.94727 103.029 6.97277 103.916 7.09177C106.487 7.43177 108.531 8.88527 108.531 12.1663ZM107.869 12.1663C107.869 9.27627 106.127 7.95877 103.808 7.67827C102.92 7.56777 102.175 7.54227 101.178 7.54227H97.5602V17.0793H101.178C102.175 17.0793 102.92 17.0538 103.808 16.9348C106.127 16.6543 107.869 15.2263 107.869 12.1663Z" fill="white"/>
<path d="M125.112 19.7653C125.112 20.1903 125.087 20.7768 125.029 21.6438C124.836 24.6188 122.793 26.6928 118.974 26.6928C115.155 26.6928 113.112 24.6188 112.919 21.6438C112.86 20.7768 112.835 20.1818 112.835 19.7653V6.94727H113.447V19.8843C113.447 20.5303 113.472 21.0318 113.53 21.6268C113.748 24.0663 115.356 26.1148 118.974 26.1148C122.592 26.1148 124.2 24.0663 124.417 21.6268C124.476 21.0403 124.501 20.5303 124.501 19.8843V6.94727H125.112V19.7653Z" fill="white"/>
<path d="M140.086 13.4417C139.391 12.4557 139.065 11.5632 139.065 10.7727C139.065 9.5402 139.508 8.5882 140.388 7.8572C141.192 7.1857 142.213 6.8457 143.428 6.8457C144.784 6.8457 145.856 7.2112 146.66 7.9932C147.38 8.6987 147.766 9.5912 147.766 10.6622C147.766 11.5292 147.489 12.3452 146.995 13.0762C146.526 13.7222 145.865 14.3087 145.036 14.8697C144.399 15.2097 143.763 15.5412 143.126 15.9067L149.759 22.9447C150.889 20.9812 151.526 18.5162 151.693 15.5412H152.33C152.162 18.6862 151.476 21.3212 150.228 23.4207L153.846 27.2627H152.908L149.843 24.0072C148.184 26.4212 145.948 27.6537 143.101 27.6537C141.225 27.6537 139.676 27.1182 138.428 26.0812C137.189 25.0187 136.577 23.6417 136.577 22.0097C136.577 20.1057 137.49 18.5332 139.316 17.2667C140.203 16.7652 141.116 16.2552 142.054 15.7537C141.116 14.7422 140.455 13.9857 140.095 13.4247L140.086 13.4417ZM149.407 23.5397L142.523 16.2467L139.977 17.6492C138.152 18.8307 137.239 20.2842 137.239 22.0267C137.239 23.4547 137.792 24.6362 138.897 25.5882C140.002 26.5147 141.384 26.9907 143.101 26.9907C145.756 26.9907 147.858 25.8432 149.399 23.5397H149.407ZM140.781 8.4182C140.061 8.9792 139.734 9.7612 139.734 10.7727C139.734 11.5037 140.095 12.3452 140.815 13.2972C141.15 13.7137 141.753 14.4192 142.666 15.4307L144.382 14.4787C146.208 13.3822 147.121 12.1242 147.121 10.6622C147.121 9.7612 146.819 9.0642 146.233 8.5032C145.538 7.8317 144.6 7.5172 143.444 7.5172C142.364 7.5172 141.485 7.7977 140.79 8.4182H140.781Z" fill="white"/>
<path d="M23.8306 58.5H23.2527V47.28C23.2527 44.815 23.2276 42.061 23.2778 39.6215C22.3399 42.061 21.2344 44.8405 20.2127 47.28L15.5397 58.5H14.7693L10.1298 47.28C9.1332 44.8405 8.00263 42.061 7.06468 39.6215C7.12331 42.061 7.12331 44.815 7.12331 47.28V58.5H6.51196V39.1455H7.48341L15.1964 57.9135L22.9596 39.1455H23.8473V58.5H23.8306Z" fill="white"/>
<path d="M30.1031 58.5V39.1455H30.7145V58.5H30.1031Z" fill="white"/>
<path d="M43.1171 39.7065V58.5H42.5058V39.7065H35.2115V39.1455H50.4114V39.7065H43.1171Z" fill="white"/>
<path d="M65.695 44.0756H65.0837C64.5896 41.1006 62.5127 39.3326 59.8328 39.3326C57.4042 39.3326 54.6322 40.7606 54.6322 43.5401C54.6322 46.3196 56.3155 47.1866 60.1343 48.3086C64.0871 49.4561 66.0216 50.7736 66.0216 53.8081C66.0216 56.6726 63.392 58.8826 59.8328 58.8826C56.4914 58.8826 53.4765 57.1741 53.0913 53.4426H53.7027C54.0628 56.6131 56.7677 58.2961 59.8663 58.2961C62.9649 58.2961 65.3684 56.4686 65.3684 53.8676C65.3684 51.0881 63.7354 50.0511 59.8663 48.9291C55.7795 47.7476 53.979 46.5746 53.979 43.5996C53.979 40.6246 56.7175 38.7461 59.8663 38.7461C63.4339 38.7461 65.3349 41.1856 65.695 44.0756Z" fill="white"/>
<path d="M83.9097 51.9635C83.9097 52.3885 83.8845 52.975 83.8259 53.842C83.6333 56.817 81.5899 58.891 77.7711 58.891C73.9523 58.891 71.9089 56.817 71.7163 53.842C71.6577 52.975 71.6326 52.38 71.6326 51.9635V39.1455H72.2439V52.0825C72.2439 52.7285 72.269 53.23 72.3277 53.825C72.5454 56.2645 74.1533 58.313 77.7711 58.313C81.3889 58.313 82.9968 56.2645 83.2146 53.825C83.2732 53.2385 83.2983 52.7285 83.2983 52.0825V39.1455H83.9097V51.9635Z" fill="white"/>
<path d="M90.0398 58.5V39.1455H90.6511V58.5H90.0398Z" fill="white"/>
<path d="M104.277 48.538H114.418V49.099H104.277V58.5H103.665V39.1455H115.247V39.7065H104.277V48.5465V48.538Z" fill="white"/>
<path d="M132.105 51.9635C132.105 52.3885 132.08 52.975 132.021 53.842C131.829 56.817 129.785 58.891 125.967 58.891C122.148 58.891 120.104 56.817 119.912 53.842C119.853 52.975 119.828 52.38 119.828 51.9635V39.1455H120.439V52.0825C120.439 52.7285 120.465 53.23 120.523 53.825C120.741 56.2645 122.349 58.313 125.967 58.313C129.584 58.313 131.192 56.2645 131.41 53.825C131.469 53.2385 131.494 52.7285 131.494 52.0825V39.1455H132.105V51.9635Z" fill="white"/>
<path d="M153.301 48.7332C153.301 55.5502 148.737 58.0747 146.166 58.3807C145.203 58.4912 144.617 58.4912 143.737 58.4912H138.235V39.1367H143.737C144.625 39.1367 145.061 39.1367 145.756 39.1962C148.687 39.4172 153.301 41.8907 153.301 48.7332ZM152.64 48.7332C152.64 42.6472 148.745 40.0632 145.731 39.7827C145.119 39.7232 144.734 39.7232 143.737 39.7232H138.847V57.9047H143.737C144.592 57.9047 145.178 57.9047 146.091 57.7942C149.106 57.4287 152.64 54.5387 152.64 48.7332Z" fill="white"/>
<path d="M174.665 48.8186C174.665 54.5986 171.24 58.8911 166.039 58.8911C160.838 58.8911 157.413 54.5986 157.413 48.8186C157.413 43.0386 160.838 38.7461 166.039 38.7461C171.24 38.7461 174.665 43.0131 174.665 48.8186ZM174.003 48.8186C174.003 42.7326 170.302 39.3326 166.039 39.3326C161.776 39.3326 158.075 42.7241 158.075 48.8186C158.075 54.9131 161.776 58.3046 166.039 58.3046C170.302 58.3046 174.003 54.8791 174.003 48.8186Z" fill="white"/>
<path d="M191.054 44.0756H190.442C189.948 41.1006 187.871 39.3326 185.192 39.3326C182.763 39.3326 179.991 40.7606 179.991 43.5401C179.991 46.3196 181.674 47.1866 185.493 48.3086C189.446 49.4561 191.38 50.7736 191.38 53.8081C191.38 56.6726 188.751 58.8826 185.192 58.8826C181.85 58.8826 178.835 57.1741 178.45 53.4426H179.061C179.422 56.6131 182.127 58.2961 185.225 58.2961C188.324 58.2961 190.727 56.4686 190.727 53.8676C190.727 51.0881 189.094 50.0511 185.225 48.9291C181.138 47.7476 179.338 46.5746 179.338 43.5996C179.338 40.6246 182.076 38.7461 185.225 38.7461C188.793 38.7461 190.694 41.1856 191.054 44.0756Z" fill="white"/>
<path d="M198.675 50.952L195.827 58.5H195.191L202.569 39.1455H203.373L210.751 58.5H210.089L207.217 50.952H198.675ZM206.974 50.3655L202.962 39.681L198.901 50.3655H206.974Z" fill="white"/>
<path d="M227.592 58.5L216.094 39.7065C216.152 42.316 216.152 45.376 216.152 47.9855V58.5085H215.541V39.154H216.454L227.977 57.9475C227.919 55.338 227.919 52.278 227.919 49.6685V39.1455H228.53V58.5H227.592Z" fill="white"/>
</g>
<defs>
<filter id="filter0_d_6_1872" x="0.855239" y="0.907852" width="233.315" height="63.6228" filterUnits="userSpaceOnUse" color-interpolation-filters="sRGB">
<feFlood flood-opacity="0" result="BackgroundImageFix"/>
<feColorMatrix in="SourceAlpha" type="matrix" values="0 0 0 0 0 0 0 0 0 0 0 0 0 0 0 0 0 0 127 0" result="hardAlpha"/>
<feOffset/>
<feGaussianBlur stdDeviation="2.82"/>
<feColorMatrix type="matrix" values="0 0 0 0 0 0 0 0 0 0 0 0 0 0 0 0 0 0 0.9 0"/>
<feBlend mode="normal" in2="BackgroundImageFix" result="effect1_dropShadow_6_1872"/>
<feBlend mode="normal" in="SourceGraphic" in2="effect1_dropShadow_6_1872" result="shape"/>
</filter>
</defs>
</svg>
