<?xml version="1.0" encoding="UTF-8"?>
<svg id="_圖層_1" data-name="圖層 1" xmlns="http://www.w3.org/2000/svg" version="1.1" viewBox="0 0 235 65">
  <defs>
    <style>
      .cls-1 {
        fill: #fff;
        stroke-width: 0px;
      }
    </style>
  </defs>
  <path class="cls-1" d="M20,26.3h-.6v-9.2H7.1v9.2h-.6V6.9h.6v9.6h12.3V6.9h.6v19.4Z"/>
  <path class="cls-1" d="M42.3,16.6c0,5.8-3.4,10.1-8.6,10.1s-8.6-4.3-8.6-10.1,3.4-10.1,8.6-10.1,8.6,4.3,8.6,10.1ZM41.6,16.6c0-6.1-3.7-9.5-8-9.5s-8,3.4-8,9.5,3.7,9.5,8,9.5,8-3.4,8-9.5Z"/>
  <path class="cls-1" d="M59.7,26.3l-11.5-18.8c0,2.6,0,5.7,0,8.3v10.5h-.6V6.9h.9l11.5,18.8c0-2.6,0-5.7,0-8.3V6.9h.6v19.4h-.9Z"/>
  <path class="cls-1" d="M81.8,17.7v8.6h-.6v-5.2l-.6,1.8c-1.6,2.7-4.1,3.7-6.6,3.7-4.8,0-8.3-3.7-8.3-10s3.8-10.1,8.9-10.1,6.5,2.7,7.2,6.2v.3c0,0-.6,0-.6,0v-.3c-.7-3.2-3-5.6-6.7-5.6s-8.2,3.3-8.2,9.5,3.6,9.5,7.7,9.5,7.1-1.9,7.1-7.9h-6.4v-.6h7.1Z"/>
  <path class="cls-1" d="M86,18.7v-.6h5.8v.6h-5.8Z"/>
  <path class="cls-1" d="M108.5,12.2c0,3.4-2,5-4.6,5.4-.9.1-1.8.1-2.7.1h-3.6v8.6h-.6V6.9h4.2c1,0,1.9,0,2.7.1,2.6.3,4.6,1.8,4.6,5.1ZM107.9,12.2c0-2.9-1.7-4.2-4.1-4.5-.9-.1-1.6-.1-2.6-.1h-3.6v9.5h3.6c1,0,1.7,0,2.6-.1,2.3-.3,4.1-1.7,4.1-4.8Z"/>
  <path class="cls-1" d="M125.1,19.8c0,.4,0,1,0,1.9-.2,3-2.2,5-6.1,5s-5.9-2.1-6.1-5c0-.9,0-1.5,0-1.9V6.9h.6v12.9c0,.6,0,1.1,0,1.7.2,2.4,1.8,4.5,5.4,4.5s5.2-2,5.4-4.5c0-.6,0-1.1,0-1.7V6.9h.6v12.8Z"/>
  <path class="cls-1" d="M140.1,13.4c-.7-1-1-1.9-1-2.7,0-1.2.4-2.2,1.3-2.9.8-.7,1.8-1,3-1s2.4.4,3.2,1.1c.7.7,1.1,1.6,1.1,2.7s-.3,1.7-.8,2.4c-.5.6-1.1,1.2-2,1.8-.6.3-1.3.7-1.9,1l6.6,7c1.1-2,1.8-4.4,1.9-7.4h.6c-.2,3.1-.9,5.8-2.1,7.9l3.6,3.8h-.9l-3.1-3.3c-1.7,2.4-3.9,3.6-6.7,3.6s-3.4-.5-4.7-1.6c-1.2-1.1-1.9-2.4-1.9-4.1s.9-3.5,2.7-4.7c.9-.5,1.8-1,2.7-1.5-.9-1-1.6-1.8-2-2.3h0ZM149.4,23.5l-6.9-7.3-2.5,1.4c-1.8,1.2-2.7,2.6-2.7,4.4s.6,2.6,1.7,3.6c1.1.9,2.5,1.4,4.2,1.4,2.7,0,4.8-1.1,6.3-3.5h0ZM140.8,8.4c-.7.6-1,1.3-1,2.4s.4,1.6,1.1,2.5c.3.4.9,1.1,1.9,2.1l1.7-1c1.8-1.1,2.7-2.4,2.7-3.8s-.3-1.6-.9-2.2c-.7-.7-1.6-1-2.8-1s-2,.3-2.7.9h0Z"/>
  <path class="cls-1" d="M23.8,58.5h-.6v-11.2c0-2.5,0-5.2,0-7.7-.9,2.4-2,5.2-3.1,7.7l-4.7,11.2h-.8l-4.6-11.2c-1-2.4-2.1-5.2-3.1-7.7,0,2.4,0,5.2,0,7.7v11.2h-.6v-19.4h1l7.7,18.8,7.8-18.8h.9v19.4h0Z"/>
  <path class="cls-1" d="M30.1,58.5v-19.4h.6v19.4h-.6Z"/>
  <path class="cls-1" d="M43.1,39.7v18.8h-.6v-18.8h-7.3v-.6h15.2v.6h-7.3Z"/>
  <path class="cls-1" d="M65.7,44.1h-.6c-.5-3-2.6-4.7-5.3-4.7s-5.2,1.4-5.2,4.2,1.7,3.6,5.5,4.8c4,1.1,5.9,2.5,5.9,5.5s-2.6,5.1-6.2,5.1-6.4-1.7-6.7-5.4h.6c.4,3.2,3.1,4.9,6.2,4.9s5.5-1.8,5.5-4.4-1.6-3.8-5.5-4.9c-4.1-1.2-5.9-2.4-5.9-5.3s2.7-4.9,5.9-4.9,5.5,2.4,5.8,5.3Z"/>
  <path class="cls-1" d="M83.9,52c0,.4,0,1,0,1.9-.2,3-2.2,5-6.1,5s-5.9-2.1-6.1-5c0-.9,0-1.5,0-1.9v-12.8h.6v12.9c0,.6,0,1.1,0,1.7.2,2.4,1.8,4.5,5.4,4.5s5.2-2,5.4-4.5c0-.6,0-1.1,0-1.7v-12.9h.6v12.8Z"/>
  <path class="cls-1" d="M90,58.5v-19.4h.6v19.4h-.6Z"/>
  <path class="cls-1" d="M104.3,48.5h10.1v.6h-10.1v9.4h-.6v-19.4h11.6v.6h-11v8.8h0Z"/>
  <path class="cls-1" d="M132.1,52c0,.4,0,1,0,1.9-.2,3-2.2,5-6.1,5s-5.9-2.1-6.1-5c0-.9,0-1.5,0-1.9v-12.8h.6v12.9c0,.6,0,1.1,0,1.7.2,2.4,1.8,4.5,5.4,4.5s5.2-2,5.4-4.5c0-.6,0-1.1,0-1.7v-12.9h.6v12.8Z"/>
  <path class="cls-1" d="M153.3,48.7c0,6.8-4.6,9.3-7.1,9.6-1,.1-1.5.1-2.4.1h-5.5v-19.4h5.5c.9,0,1.3,0,2,0,2.9.2,7.5,2.7,7.5,9.5ZM152.6,48.7c0-6.1-3.9-8.7-6.9-9-.6,0-1,0-2,0h-4.9v18.2h4.9c.9,0,1.4,0,2.4-.1,3-.4,6.5-3.3,6.5-9.1Z"/>
  <path class="cls-1" d="M174.7,48.8c0,5.8-3.4,10.1-8.6,10.1s-8.6-4.3-8.6-10.1,3.4-10.1,8.6-10.1,8.6,4.3,8.6,10.1ZM174,48.8c0-6.1-3.7-9.5-8-9.5s-8,3.4-8,9.5,3.7,9.5,8,9.5,8-3.4,8-9.5Z"/>
  <path class="cls-1" d="M191.1,44.1h-.6c-.5-3-2.6-4.7-5.2-4.7s-5.2,1.4-5.2,4.2,1.7,3.6,5.5,4.8c4,1.1,5.9,2.5,5.9,5.5s-2.6,5.1-6.2,5.1-6.4-1.7-6.7-5.4h.6c.4,3.2,3.1,4.9,6.2,4.9s5.5-1.8,5.5-4.4-1.6-3.8-5.5-4.9c-4.1-1.2-5.9-2.4-5.9-5.3s2.7-4.9,5.9-4.9,5.5,2.4,5.8,5.3Z"/>
  <path class="cls-1" d="M198.7,51l-2.8,7.5h-.6l7.4-19.4h.8l7.4,19.4h-.7l-2.9-7.5h-8.5ZM207,50.4l-4-10.7-4.1,10.7h8.1Z"/>
  <path class="cls-1" d="M227.6,58.5l-11.5-18.8c0,2.6,0,5.7,0,8.3v10.5h-.6v-19.4h.9l11.5,18.8c0-2.6,0-5.7,0-8.3v-10.5h.6v19.4h-.9Z"/>
</svg>