<svg width="185" height="770" viewBox="0 0 185 770" fill="none" xmlns="http://www.w3.org/2000/svg">
<path d="M110.05 50V47.75H143.66V2.25H110.05V0H180.75V2.25H145.81V47.74H180.75V49.99H110.05V50Z" fill="white"/>
<path d="M145.4 128.49C124.29 128.49 108.62 115.78 108.62 96.5198C108.62 77.2598 124.3 64.5498 145.4 64.5498C166.5 64.5498 182.18 77.2598 182.18 96.5198C182.18 115.78 166.61 128.49 145.4 128.49ZM145.4 126.03C167.63 126.03 180.03 112.3 180.03 96.5198C180.03 80.7398 167.63 67.0098 145.4 67.0098C123.17 67.0098 110.77 80.7398 110.77 96.5198C110.77 112.3 123.27 126.03 145.4 126.03Z" fill="white"/>
<path d="M110.05 188.95L178.7 146.33C169.17 146.54 158 146.54 148.47 146.54H110.05V144.29H180.75V147.67L112.1 190.4C121.63 190.19 132.8 190.19 142.33 190.19H180.75V192.44H110.05V188.96V188.95Z" fill="white"/>
<path d="M141.5 266.72H110.04V264.47H128.89L122.23 262.42C112.39 256.58 108.6 247.05 108.6 237.93C108.6 220.1 122.13 206.99 145.18 206.99C168.23 206.99 182.17 221.23 182.17 240.09C182.17 255.56 172.33 264.17 159.63 266.73L158.61 266.94V264.69L159.63 264.48C171.21 262.12 180.02 253.72 180.02 239.68C180.02 224.21 167.93 209.45 145.29 209.45C122.65 209.45 110.76 222.67 110.76 238.14C110.76 248.9 117.73 264.47 139.45 264.47V240.6H141.5V266.73V266.72Z" fill="white"/>
<path d="M137.81 278.2H139.96V299.72H137.81V278.2Z" fill="white"/>
<path d="M161.69 357.81C149.39 357.81 143.35 350.23 142.12 340.7C141.71 337.42 141.61 334.14 141.61 330.56V317.14H110.05V314.89H180.75V330.57C180.75 334.16 180.65 337.44 180.24 340.71C179.01 350.24 173.68 357.82 161.69 357.82V357.81ZM161.69 355.35C172.24 355.35 177.06 348.89 178.08 340.29C178.49 337.01 178.59 334.25 178.59 330.56V317.14H143.75V330.56C143.75 334.25 143.85 337.02 144.26 340.29C145.28 348.9 150.51 355.35 161.68 355.35H161.69Z" fill="white"/>
<path d="M133.92 415.19C132.38 415.19 130.23 415.09 127.05 414.88C116.19 414.16 108.61 406.58 108.61 392.44C108.61 378.3 116.19 370.72 127.05 370C130.23 369.8 132.38 369.69 133.92 369.69H180.75V371.94H133.51C131.15 371.94 129.31 372.04 127.16 372.25C118.25 373.07 110.77 379.01 110.77 392.43C110.77 405.85 118.25 411.8 127.16 412.62C129.31 412.83 131.16 412.93 133.51 412.93H180.75V415.18H133.92V415.19Z" fill="white"/>
<path d="M160.56 462.53C164.15 459.97 167.42 458.74 170.29 458.74C174.8 458.74 178.28 460.38 180.95 463.66C183.41 466.63 184.64 470.42 184.64 474.93C184.64 479.95 183.31 483.95 180.44 486.92C177.88 489.58 174.6 491.02 170.71 491.02C167.53 491.02 164.56 489.99 161.9 488.15C159.54 486.41 157.39 483.95 155.34 480.87C154.11 478.51 152.88 476.16 151.55 473.8L125.83 498.39C133 502.59 142.02 504.95 152.88 505.56V507.92C141.4 507.3 131.77 504.74 124.09 500.13L110.05 513.55V510.07L121.94 498.7C113.13 492.55 108.62 484.25 108.62 473.7C108.62 466.73 110.57 460.99 114.36 456.38C118.25 451.77 123.27 449.51 129.22 449.51C136.19 449.51 141.93 452.89 146.54 459.65C148.38 462.93 150.23 466.31 152.07 469.79C155.76 466.31 158.53 463.85 160.57 462.51L160.56 462.53ZM123.67 497.06L150.31 471.55L145.19 462.12C140.89 455.36 135.56 451.98 129.21 451.98C123.98 451.98 119.68 454.03 116.2 458.13C112.82 462.23 111.08 467.35 111.08 473.7C111.08 483.54 115.28 491.32 123.68 497.06H123.67ZM178.9 465.09C176.85 462.43 173.98 461.2 170.29 461.2C167.63 461.2 164.55 462.53 161.07 465.2C159.53 466.43 156.97 468.68 153.28 472.07L156.76 478.42C160.76 485.18 165.37 488.56 170.7 488.56C173.98 488.56 176.54 487.43 178.59 485.28C181.05 482.72 182.18 479.24 182.18 474.93C182.18 470.93 181.16 467.65 178.9 465.09Z" fill="white"/>
<path d="M1.42999 64.24V62.09H42.41C51.43 62.09 61.47 61.99 70.38 62.19C61.47 58.71 51.32 54.61 42.41 50.82L1.42999 33.51V30.64L42.42 13.42C51.33 9.73 61.48 5.53 70.39 2.05C61.48 2.26 51.43 2.26 42.42 2.26H1.42999V0H72.13V3.59L3.58999 32.17L72.14 60.96V64.24H1.42999Z" fill="#AFAFAF"/>
<path d="M1.42999 83.4102H72.13V85.6602H1.42999V83.4102Z" fill="#AFAFAF"/>
<path d="M70.08 127.57H1.42999V125.32H70.08V98.2695H72.13V154.62H70.08V127.57Z" fill="#AFAFAF"/>
<path d="M54.1 207.19V204.94C64.96 203.1 71.42 195.41 71.42 185.47C71.42 176.45 66.19 166.21 56.05 166.21C45.91 166.21 42.73 172.46 38.63 186.6C34.43 201.25 29.61 208.43 18.55 208.43C8.1 208.43 0 198.7 0 185.48C0 173.08 6.25 161.91 19.88 160.48V162.73C8.3 164.06 2.15 174.1 2.15 185.58C2.15 197.06 8.81 205.97 18.34 205.97C28.48 205.97 32.28 199.92 36.37 185.58C40.67 170.42 44.98 163.76 55.84 163.76C66.7 163.76 73.57 173.9 73.57 185.58C73.57 198.8 64.66 205.87 54.1 207.2V207.19Z" fill="#AFAFAF"/>
<path d="M25.31 270.61C23.77 270.61 21.62 270.51 18.44 270.3C7.58 269.58 0 262 0 247.86C0 233.72 7.58 226.14 18.44 225.42C21.62 225.22 23.77 225.11 25.31 225.11H72.14V227.36H24.9C22.54 227.36 20.7 227.46 18.55 227.67C9.64 228.49 2.16 234.43 2.16 247.85C2.16 261.27 9.64 267.22 18.55 268.04C20.7 268.25 22.55 268.35 24.9 268.35H72.14V270.6H25.31V270.61Z" fill="#AFAFAF"/>
<path d="M1.42999 289.26H72.13V291.51H1.42999V289.26Z" fill="#AFAFAF"/>
<path d="M37.81 333.83V371.43H35.76V333.83H1.42999V331.58H72.13V374.51H70.08V333.83H37.8H37.81Z" fill="#AFAFAF"/>
<path d="M25.31 432.92C23.77 432.92 21.62 432.82 18.44 432.61C7.58 431.89 0 424.31 0 410.17C0 396.03 7.58 388.45 18.44 387.73C21.62 387.52 23.77 387.42 25.31 387.42H72.14V389.67H24.9C22.54 389.67 20.7 389.77 18.55 389.98C9.64 390.8 2.16 396.74 2.16 410.17C2.16 423.6 9.64 429.54 18.55 430.35C20.7 430.56 22.55 430.66 24.9 430.66H72.14V432.91H25.31V432.92Z" fill="#AFAFAF"/>
<path d="M37.09 507.41C12.19 507.41 2.96999 490.5 1.83999 480.97C1.42999 477.38 1.42999 475.23 1.42999 471.95V451.56H72.13V471.95C72.13 475.23 72.13 476.87 71.93 479.43C71.11 490.29 62.09 507.4 37.09 507.4V507.41ZM37.09 504.95C59.32 504.95 68.75 490.5 69.78 479.33C69.98 477.08 69.98 475.64 69.98 471.95V453.81H3.58999V471.95C3.58999 475.13 3.58999 477.28 3.99999 480.66C5.32999 491.83 15.89 504.94 37.1 504.94L37.09 504.95Z" fill="#AFAFAF"/>
<path d="M36.78 582.52C15.67 582.52 0 569.81 0 550.55C0 531.29 15.68 518.58 36.78 518.58C57.88 518.58 73.56 531.29 73.56 550.55C73.56 569.81 57.99 582.52 36.78 582.52ZM36.78 580.06C59.01 580.06 71.41 566.33 71.41 550.55C71.41 534.77 59.01 521.04 36.78 521.04C14.55 521.04 2.15 534.77 2.15 550.55C2.15 566.33 14.65 580.06 36.78 580.06Z" fill="#AFAFAF"/>
<path d="M54.1 639.18V636.93C64.96 635.09 71.42 627.4 71.42 617.46C71.42 608.44 66.19 598.2 56.05 598.2C45.91 598.2 42.73 604.45 38.63 618.59C34.43 633.24 29.61 640.41 18.55 640.41C8.1 640.41 0 630.68 0 617.46C0 605.06 6.25 593.89 19.88 592.46V594.71C8.3 596.04 2.15 606.08 2.15 617.56C2.15 629.04 8.81 637.95 18.34 637.95C28.48 637.95 32.28 631.91 36.37 617.56C40.67 602.39 44.98 595.73 55.84 595.73C66.7 595.73 73.57 605.87 73.57 617.56C73.57 630.78 64.66 637.85 54.1 639.18Z" fill="#AFAFAF"/>
<path d="M29 663.37L1.43999 652.82V650.46L72.14 677.82V680.79L1.42999 708.14V705.68L28.99 695.02V663.36L29 663.37ZM31.15 694.11L70.19 679.25L31.15 664.19V694.11Z" fill="#AFAFAF"/>
<path d="M1.42999 766.45L70.08 723.83C60.55 724.04 49.38 724.04 39.85 724.04H1.42999V721.79H72.13V725.17L3.47999 767.88C13.01 767.67 24.18 767.67 33.71 767.67H72.13V769.92H1.42999V766.44V766.45Z" fill="#AFAFAF"/>
</svg>
