<svg width="86" height="114" viewBox="0 0 86 114" fill="none" xmlns="http://www.w3.org/2000/svg">
<path d="M75.56 18.34L59.41 2.19C58.01 0.79 56.11 0 54.13 0H31.28C29.3 0 27.4 0.79 26 2.19L9.84001 18.34C8.44001 19.74 7.65001 21.64 7.65001 23.62V46.47C7.65001 48.45 8.44001 50.35 9.84001 51.75L26 67.91C27.4 69.31 29.3 70.1 31.28 70.1H54.13C56.11 70.1 58.01 69.31 59.41 67.91L75.57 51.75C76.97 50.35 77.76 48.45 77.76 46.47V23.62C77.76 21.64 76.97 19.74 75.57 18.34H75.56ZM74.64 40.53C74.64 45.49 72.67 50.25 69.16 53.76L61.41 61.51C57.9 65.02 53.14 66.99 48.18 66.99H37.22C32.26 66.99 27.5 65.02 23.99 61.51L16.24 53.76C12.73 50.25 10.76 45.49 10.76 40.53V29.57C10.76 24.61 12.73 19.85 16.24 16.34L23.99 8.59C27.5 5.08 32.26 3.11 37.22 3.11H48.18C53.14 3.11 57.9 5.08 61.41 8.59L69.16 16.34C72.67 19.85 74.64 24.61 74.64 29.57V40.53Z" fill="#C9A063"/>
<path d="M55.78 23.21C55.2 22.95 54.32 22.43 53.78 21.51C53.17 20.47 53.08 19.09 53.53 17.39L51.71 15.03H33.7L31.88 17.39C32.33 19.08 32.24 20.47 31.63 21.51C31.09 22.43 30.22 22.95 29.64 23.21L26.13 21.28L24.32 24.58L28.57 26.91L29.9 27.09C30.23 27.01 33.17 26.26 34.85 23.48C35.67 22.12 36.03 20.55 35.93 18.79H49.51C49.41 20.55 49.77 22.12 50.59 23.48C52.27 26.27 55.21 27.02 55.54 27.09L56.87 26.91L61.12 24.58L59.31 21.28L55.8 23.21H55.78Z" fill="#C9A063"/>
<path d="M32.61 35.9H53.16L54.07 35.66L58.12 33.43L56.29 30.13L52.67 32.13H33L28.88 30.33L27.37 33.78L31.86 35.74L32.61 35.9Z" fill="#C9A063"/>
<path d="M55.01 41.32H30.75L25.93 39.59L24.66 43.14L29.79 44.98H29.86V54.44L31.74 56.32H53.67L55.55 54.44V45.06L56.2 44.92L60.83 42.81L59.27 39.38L55.01 41.32ZM33.62 52.55V45.09H51.78V52.55H33.62Z" fill="#C9A063"/>
<path d="M7.58001 94.14C7.22001 94.34 6.31001 94.58 5.17001 94.58C1.58001 94.58 0.0100098 92.11 0.0100098 89.28C0.0100098 85.54 2.49001 83.63 5.35001 83.63C6.45001 83.63 7.35001 83.86 7.75001 84.1L7.25001 86.34C6.83001 86.15 6.24001 85.96 5.48001 85.96C4.00001 85.96 2.73001 86.92 2.73001 89.1C2.73001 91.02 3.77001 92.22 5.53001 92.22C6.15001 92.22 6.85001 92.09 7.25001 91.92L7.61001 94.14H7.58001Z" fill="#C9A063"/>
<path d="M18.57 89C18.57 92.41 16.72 94.59 13.76 94.59C10.8 94.59 9.16 92.12 9.16 89.17C9.16 86.22 10.99 83.63 13.92 83.63C17 83.63 18.57 86.16 18.57 89ZM11.88 89.12C11.88 91.12 12.67 92.34 13.89 92.34C15.11 92.34 15.86 91.01 15.86 89.1C15.86 87.19 15.12 85.89 13.88 85.89C12.64 85.89 11.88 87.18 11.88 89.13V89.12Z" fill="#C9A063"/>
<path d="M23.56 83.8V89.82C23.56 91.42 24.06 92.33 25.08 92.33C26.1 92.33 26.6 91.51 26.6 89.82V83.8H29.17V89.65C29.17 92.93 27.7 94.58 25 94.58C22.3 94.58 21 92.99 21 89.58V83.79H23.57L23.56 83.8Z" fill="#C9A063"/>
<path d="M31.99 94.41V83.8H35.02L36.54 87.06C37.06 88.11 37.62 89.54 38.04 90.78H38.08C37.94 89.38 37.89 87.9 37.89 86.31V83.8H40.24V94.41H37.53L35.91 90.88C35.38 89.75 34.75 88.33 34.3 87.05H34.25C34.31 88.48 34.35 90.08 34.35 91.8V94.41H32H31.99Z" fill="#C9A063"/>
<path d="M44.95 86.18H42.51V83.79H50.01V86.18H47.52V94.41H44.95V86.18Z" fill="#C9A063"/>
<path d="M52.26 83.8H54.83V92.03H58.52V94.41H52.26V83.8Z" fill="#C9A063"/>
<path d="M66.85 90.13H63.4V92.09H67.25V94.41H60.83V83.8H67.05V86.12H63.4V87.83H66.85V90.13Z" fill="#C9A063"/>
<path d="M69.93 91.58C70.51 91.9 71.45 92.24 72.41 92.24C73.29 92.24 73.72 91.9 73.72 91.37C73.72 90.84 73.29 90.56 72.21 90.15C70.6 89.52 69.52 88.53 69.52 86.95C69.52 85.07 70.95 83.63 73.37 83.63C74.51 83.63 75.33 83.87 75.96 84.17L75.42 86.44C75.01 86.24 74.3 85.94 73.34 85.94C72.56 85.94 72.13 86.26 72.13 86.72C72.13 87.26 72.64 87.48 73.85 87.98C75.58 88.68 76.35 89.7 76.35 91.18C76.35 93.01 75.06 94.57 72.27 94.57C71.11 94.57 69.99 94.24 69.45 93.92L69.94 91.57L69.93 91.58Z" fill="#C9A063"/>
<path d="M78.97 91.58C79.55 91.9 80.49 92.24 81.45 92.24C82.33 92.24 82.76 91.9 82.76 91.37C82.76 90.84 82.33 90.56 81.25 90.15C79.64 89.52 78.56 88.53 78.56 86.95C78.56 85.07 79.99 83.63 82.41 83.63C83.55 83.63 84.37 83.87 85 84.17L84.46 86.44C84.05 86.24 83.34 85.94 82.38 85.94C81.6 85.94 81.17 86.26 81.17 86.72C81.17 87.26 81.68 87.48 82.89 87.98C84.62 88.68 85.39 89.7 85.39 91.18C85.39 93.01 84.1 94.57 81.31 94.57C80.15 94.57 79.03 94.24 78.49 93.92L78.98 91.57L78.97 91.58Z" fill="#C9A063"/>
<path d="M5.83002 102.64C6.53002 102.51 7.53002 102.41 8.99002 102.41C10.37 102.41 11.36 102.69 12.03 103.26C12.68 103.8 13.12 104.73 13.12 105.81C13.12 106.89 12.8 107.83 12.19 108.43C11.42 109.2 10.29 109.54 9.00002 109.54C8.75002 109.54 8.53002 109.52 8.37002 109.5V113.1H5.83002V102.63V102.64ZM8.38002 107.32C8.52002 107.35 8.69002 107.36 8.97002 107.36C9.97002 107.36 10.59 106.79 10.59 105.88C10.59 105.09 10.12 104.55 9.14002 104.55C8.76002 104.55 8.51002 104.58 8.38002 104.62V107.32Z" fill="#C9A063"/>
<path d="M15.46 102.49H18.03V110.72H21.72V113.1H15.46V102.49Z" fill="#C9A063"/>
<path d="M30.05 108.83H26.6V110.79H30.45V113.11H24.03V102.5H30.25V104.82H26.6V106.53H30.05V108.83Z" fill="#C9A063"/>
<path d="M35.47 110.65L34.93 113.11H32.27L35.05 102.5H38.47L41.33 113.11H38.56L37.95 110.65H35.47ZM37.59 108.55L37.15 106.64C37 106.04 36.82 105.18 36.67 104.55H36.64C36.5 105.18 36.36 106.05 36.22 106.65L35.81 108.55H37.59Z" fill="#C9A063"/>
<path d="M43.8 110.28C44.38 110.6 45.32 110.94 46.28 110.94C47.16 110.94 47.59 110.6 47.59 110.07C47.59 109.54 47.16 109.26 46.08 108.85C44.47 108.22 43.39 107.23 43.39 105.65C43.39 103.77 44.82 102.33 47.24 102.33C48.38 102.33 49.2 102.57 49.83 102.87L49.29 105.14C48.88 104.94 48.17 104.64 47.21 104.64C46.43 104.64 46 104.96 46 105.42C46 105.96 46.51 106.18 47.72 106.68C49.45 107.38 50.22 108.4 50.22 109.88C50.22 111.71 48.93 113.27 46.14 113.27C44.98 113.27 43.86 112.94 43.32 112.62L43.81 110.27L43.8 110.28Z" fill="#C9A063"/>
<path d="M55.22 102.49V108.51C55.22 110.11 55.72 111.02 56.74 111.02C57.76 111.02 58.26 110.2 58.26 108.51V102.49H60.83V108.34C60.83 111.62 59.36 113.27 56.66 113.27C53.96 113.27 52.66 111.68 52.66 108.27V102.48H55.23L55.22 102.49Z" fill="#C9A063"/>
<path d="M63.65 102.64C64.38 102.51 65.46 102.41 66.75 102.41C68.22 102.41 69.27 102.63 69.99 103.24C70.6 103.76 70.94 104.52 70.94 105.55C70.94 106.87 70.04 107.81 69.3 108.12V108.18C69.94 108.48 70.28 109.16 70.53 110.08C70.82 111.16 71.13 112.7 71.32 113.11H68.7C68.55 112.8 68.31 111.97 68.03 110.67C67.77 109.4 67.42 109.13 66.63 109.13H66.21V113.11H63.67V102.64H63.65ZM66.19 107.09H66.86C67.83 107.09 68.39 106.57 68.39 105.77C68.39 104.97 67.92 104.52 67.06 104.51C66.58 104.51 66.32 104.54 66.19 104.57V107.08V107.09Z" fill="#C9A063"/>
<path d="M79.51 108.83H76.06V110.79H79.91V113.11H73.49V102.5H79.71V104.82H76.06V106.53H79.51V108.83Z" fill="#C9A063"/>
</svg>
