<svg width="295" height="24" viewBox="0 0 295 24" fill="none" xmlns="http://www.w3.org/2000/svg">
<path d="M139.643 7.0417L137.227 9.45703L139.643 11.8724L142.058 9.45703L139.643 7.0417Z" fill="black"/>
<path d="M134.516 5.84798C134.516 5.50835 134.594 5.16386 134.764 4.84363L136.462 1.59766C136.093 2.30119 136.132 3.10662 136.486 3.75678C135.477 3.99453 134.696 4.81937 134.511 5.84798H134.516ZM144.759 5.84798C144.759 5.50835 144.681 5.16386 144.511 4.84363L142.813 1.59766C143.182 2.30119 143.143 3.10662 142.789 3.75678C143.798 3.99453 144.579 4.81937 144.763 5.84798H144.759Z" fill="#A20000"/>
<path d="M139.635 7.03154L137.219 9.44782L135.147 7.37603C134.739 6.96846 134.511 6.41534 134.511 5.8428C134.691 4.81419 135.477 3.98935 136.486 3.7516C136.588 3.93598 136.714 4.11065 136.869 4.26106L139.635 7.02669V7.03154ZM142.784 3.75646C142.682 3.94083 142.556 4.1155 142.401 4.26591L139.635 7.03154L142.051 9.44782L144.123 7.37603C144.531 6.96846 144.759 6.41534 144.759 5.84766C144.579 4.81904 143.793 3.9942 142.784 3.75646ZM142.813 1.59733C142.444 0.893791 141.755 0.461965 141.023 0.384334C140.566 0.340666 140.106 0.316406 139.64 0.316406C139.174 0.316406 138.713 0.340666 138.257 0.384334C137.519 0.457113 136.83 0.888939 136.462 1.59733C136.093 2.30086 136.132 3.10629 136.486 3.75646C136.68 3.70794 136.884 3.68368 137.092 3.68368H142.177C142.386 3.68368 142.59 3.70794 142.784 3.75646C143.143 3.11114 143.177 2.30086 142.808 1.59733H142.813Z" fill="#E40012"/>
<path d="M149.305 16.6968L146.889 19.1131L144.472 16.6968L146.889 14.2805L149.305 16.6968ZM139.64 21.5294C138.306 22.8637 136.142 22.8637 134.807 21.5294C137.476 24.198 141.804 24.198 144.472 21.5294C143.138 22.8637 140.974 22.8637 139.64 21.5294ZM134.802 11.8643C132.134 14.5328 132.134 18.8608 134.802 21.5294C133.468 20.1951 133.468 18.0311 134.802 16.6968C133.468 15.3625 133.468 13.1986 134.802 11.8643Z" fill="#002063"/>
<path d="M149.305 16.6971L146.889 14.2808L149.975 11.195L152.391 13.6112L149.305 16.6971ZM142.056 9.44824L139.64 11.8645L144.472 16.6971L146.889 14.2808L142.056 9.44824ZM154.802 22.1992L149.3 16.6971L146.884 19.1134L149.97 22.1992H154.802ZM134.802 21.5297C136.137 22.864 138.301 22.864 139.635 21.5297L134.802 16.6971C133.468 18.0314 133.468 20.1954 134.802 21.5297ZM144.472 16.6971L139.64 21.5297C140.974 22.864 143.138 22.864 144.472 21.5297L146.889 19.1134L144.472 16.6971ZM137.219 9.44824L134.802 11.8645C133.468 13.1988 133.468 15.3628 134.802 16.6971L139.635 11.8645L137.219 9.44824Z" fill="#004096"/>
<path d="M271.793 15.1442C273.181 15.1442 273.913 15.1685 274.796 15.217V14.0331C273.913 14.0865 273.181 14.1059 271.793 14.1059H267.222V12.7667H271.051C272.438 12.7667 273.171 12.791 274.054 12.8395V11.6556C273.171 11.709 272.438 11.7284 271.051 11.7284H267.504V10.5009H269.741C271.128 10.5009 271.861 10.5251 272.744 10.5736V9.38975C271.861 9.44312 271.128 9.46253 269.741 9.46253H267.504V8.31261H269.741C271.128 8.31261 271.861 8.33687 272.744 8.38539V7.20151C271.861 7.25488 271.128 7.27429 269.741 7.27429H267.504V6.88613C267.504 6.61442 267.504 6.36697 267.504 6.12437H270.687C272.074 6.12437 272.807 6.14863 273.69 6.19715V5.01327C272.807 5.06664 272.074 5.08605 270.687 5.08605H267.514C267.528 4.29033 267.552 3.63531 267.596 2.96574H265.408C265.447 3.63531 265.476 4.29033 265.49 5.08605H262.021C262.516 4.51352 262.996 3.90217 263.433 3.27141L261.497 2.64551C261.497 2.64551 260.022 6.21656 256.917 8.60858L257.562 9.33153C257.562 9.33153 258.528 8.59403 259.775 7.41985C259.78 7.85653 259.784 8.33687 259.784 8.89C259.784 10.6367 259.755 11.6944 259.692 12.8055L259.76 12.7861L259.692 12.8249C260.575 12.7716 261.308 12.7522 262.696 12.7522H265.223V14.0913H260.624C259.236 14.0913 258.503 14.0671 257.62 14.0185V15.2024C258.503 15.149 259.236 15.1296 260.624 15.1296H263.671C262.773 16.1825 260.677 18.2495 257.436 19.1374L257.97 20.0689C257.97 20.0689 262.23 18.7832 265.228 16.2068V16.5513C265.228 18.298 265.199 19.3557 265.136 20.4668H267.324C267.256 19.3557 267.232 18.298 267.232 16.5513V15.7847C270.706 19.1374 274.044 19.8991 274.044 19.8991L275.054 18.1524C270.9 17.2985 268.78 15.8041 268.004 15.1345H271.808L271.793 15.1442ZM265.505 9.47709H261.788V8.32717H265.505V9.47709ZM265.505 6.90069V7.28885H261.788V6.13893H265.505C265.505 6.38153 265.505 6.62898 265.505 6.90069ZM261.783 11.7381V10.5106H265.5V11.7381H261.783ZM190.377 7.87594C191.634 7.88564 192.526 7.91475 193.448 7.96812V6.43975C192.526 6.49312 191.634 6.52223 190.377 6.53194C190.387 5.19279 190.416 4.26607 190.469 3.30538H188.126C188.184 4.26607 188.213 5.19279 188.218 6.53679H182.919C182.929 5.19279 182.958 4.26607 183.012 3.30538H180.668C180.726 4.26607 180.755 5.19279 180.76 6.53679C179.242 6.53194 178.242 6.50283 177.209 6.43975V7.96812C178.242 7.90505 179.237 7.87594 180.755 7.87108C180.731 9.20052 180.658 12.2282 180.571 13.6013H180.464C178.674 13.6013 177.587 13.5722 176.452 13.5042V15.0326C177.573 14.9647 178.645 14.9356 180.392 14.9356C179.931 17.2499 178.756 18.56 176.67 19.3557L177.388 20.4668C178.601 19.7778 180.12 18.9724 181.095 17.8031C181.784 16.9734 182.235 15.9351 182.488 14.9356H188.213V16.2601C188.213 18.0505 188.184 19.1374 188.116 20.2727H190.459C190.391 19.1374 190.362 18.0505 190.362 16.2601V14.9356C191.973 14.9356 193.002 14.9695 194.074 15.0326V13.5042C193.002 13.5673 191.973 13.5964 190.362 13.6013V7.87594H190.377ZM182.73 13.6061C182.856 12.2524 182.91 9.90891 182.919 7.87594H188.223V13.6061H182.725H182.73ZM163.118 5.91574C161.328 5.91574 160.241 5.94485 159.106 6.01278V4.26607C160.241 4.33399 161.328 4.36311 163.118 4.36311H169.242C171.032 4.36311 172.119 4.33399 173.254 4.26607V6.01278C172.119 5.94485 171.032 5.91574 169.242 5.91574H163.118ZM170.299 17.9147C172.09 17.9147 173.177 17.8856 174.312 17.8176V19.5643C173.177 19.4964 172.09 19.4673 170.299 19.4673H162.056C160.266 19.4673 159.179 19.4964 158.043 19.5643V17.8176C159.179 17.8856 160.266 17.9147 162.056 17.9147H170.299ZM212.808 13.5188C212.167 14.1981 211.881 14.6881 211.42 15.4402C208.596 13.3393 206.83 11.3597 205.816 8.79781C206.291 8.49699 206.602 8.26895 207.005 7.86623C208.227 10.1903 210.168 12.1893 212.808 13.5188ZM209.11 3.99436C210.901 3.99436 211.988 3.96524 213.123 3.89732V5.42569C211.988 5.35776 210.901 5.32865 209.11 5.32865H205.51C205.5 5.90118 205.491 6.53679 205.491 7.31796V16.265C205.491 18.0554 205.52 19.1422 205.588 20.2776H203.346C203.414 19.1422 203.443 18.0554 203.443 16.265V9.99625C202.148 12.1457 200.091 13.9361 196.893 15.4402C196.694 15.0229 196.519 14.7075 196.291 14.3097C200.367 12.4077 202.245 9.22964 202.939 5.32865H200.226C198.436 5.32865 197.349 5.35776 196.214 5.42569V3.89732C197.349 3.96524 198.436 3.99436 200.226 3.99436H209.11ZM230.018 3.30538H227.674C227.732 4.26121 227.761 5.18309 227.766 6.50768C227.058 6.49797 226.495 6.47371 225.908 6.43975V7.65274C226.495 7.61878 227.058 7.59452 227.766 7.58482C227.752 8.85603 227.645 13.1888 227.533 14.1253C227.31 15.9933 226.708 17.2791 225.67 18.1961L225.593 17.6333C224.069 17.7885 222.9 17.9098 221.789 18.0166V16.8618H222.264C223.686 16.8618 224.438 16.8861 225.34 16.9394V15.7264C224.438 15.7798 223.686 15.8041 222.264 15.8041H221.789V14.562H222.104C223.526 14.562 224.443 14.5862 225.345 14.6396C225.297 13.7856 225.297 12.2476 225.297 11.6896C225.297 10.3456 225.297 9.59353 225.345 8.73959C224.443 8.79296 223.526 8.81722 222.104 8.81722H221.789V7.58482H222.38C223.802 7.58482 224.554 7.60908 225.457 7.66245V6.44946C224.554 6.50283 223.802 6.52709 222.38 6.52709H221.789V5.0812C223.069 4.94534 224.302 4.75612 225.35 4.48926L224.802 2.91237C222.555 3.84395 218.916 4.40192 216.204 4.47955L216.252 5.35776C217.383 5.35776 218.654 5.3238 219.94 5.24131V6.53194H219.382C217.96 6.53194 217.102 6.50768 216.199 6.45431V7.6673C217.102 7.61393 217.96 7.58967 219.382 7.58967H219.94V8.82207H219.659C218.237 8.82207 217.262 8.79781 216.359 8.74444C216.408 9.59839 216.408 10.3504 216.408 11.6944C216.408 12.2524 216.408 13.7905 216.359 14.6444C217.262 14.5911 218.237 14.5668 219.659 14.5668H219.94V15.8089H219.479C218.057 15.8089 217.199 15.7847 216.296 15.7313V16.9443C217.199 16.8909 218.057 16.8666 219.479 16.8666H219.94V18.2009C218.824 18.3028 217.616 18.4096 216.024 18.5406L216.291 20.1223C219.867 19.5013 221.696 19.215 225.117 18.6279C224.695 18.9142 224.215 19.1568 223.671 19.3654L224.389 20.4765C225.602 19.7875 227.121 18.9821 228.096 17.8128C228.936 16.8084 229.435 15.4838 229.634 14.3097C229.823 13.1986 229.906 10.0933 229.911 7.57997H231.818C231.793 11.3742 231.677 15.7264 231.376 17.5653C231.143 18.9821 231.09 19.0258 229.925 18.8123C229.561 18.7444 229.202 18.6716 228.945 18.6134C228.863 19.0549 228.805 19.3411 228.707 19.6953C229.421 19.8991 231.051 20.3115 231.798 20.2727C232.453 20.2388 232.934 19.8749 233.137 18.7977C233.535 16.6726 233.71 9.69057 233.71 6.51738H229.916C229.925 5.18794 229.954 4.26121 230.008 3.30538H230.018ZM221.793 13.5624V12.1748H222.109C222.667 12.1748 223.147 12.1748 223.589 12.1845C223.589 12.7425 223.589 13.2422 223.579 13.5479C223.142 13.5576 222.662 13.5576 222.109 13.5576H221.793V13.5624ZM222.109 9.80702C222.657 9.80702 223.142 9.80702 223.574 9.81672C223.579 10.1806 223.584 10.6658 223.584 11.1753C223.147 11.185 222.662 11.185 222.109 11.185H221.793V9.80702H222.109ZM219.95 9.80702V11.185H219.668C219.101 11.185 218.591 11.185 218.135 11.1753C218.135 10.6658 218.14 10.1855 218.145 9.82158C218.601 9.81187 219.11 9.81187 219.668 9.81187H219.95V9.80702ZM219.668 13.5624C219.11 13.5624 218.596 13.5624 218.14 13.5527C218.135 13.2471 218.13 12.7473 218.13 12.1893C218.591 12.1796 219.096 12.1796 219.668 12.1796H219.95V13.5673H219.668V13.5624ZM168.145 10.855C169.936 10.855 171.022 10.8259 172.158 10.758V12.5047C171.022 12.4368 169.936 12.4077 168.145 12.4077H164.205C162.415 12.4077 161.328 12.4368 160.193 12.5047V10.758C161.328 10.8259 162.415 10.855 164.205 10.855H168.145ZM285.592 7.50233C285.592 7.70126 285.602 7.9099 285.602 8.13309H285.403C283.656 8.13309 282.598 8.10398 281.487 8.0409C281.555 8.61344 281.579 9.16171 281.579 10.0642C281.579 10.9666 281.55 11.5149 281.487 12.0874C282.598 12.0195 283.656 11.9953 285.403 11.9953H285.607V12.8395C282.298 12.8977 280.842 12.7376 280.842 12.7376L281.162 14.1689C284.782 13.9797 287.407 13.8196 290.405 13.4654C290.924 14.0331 291.274 14.5425 291.274 14.5425L292.506 13.5382C291.458 12.7134 290.628 12.2476 290.206 12.0341C290.662 12.0486 291.089 12.068 291.516 12.0923C291.448 11.5198 291.424 10.9715 291.424 10.069C291.424 9.16656 291.453 8.61829 291.516 8.04575C290.405 8.11368 289.347 8.13794 287.601 8.13794H287.348C287.348 7.9196 287.353 7.71097 287.358 7.50718H288.532C290.279 7.50718 291.337 7.5363 292.448 7.59937V6.4446C291.337 6.51253 290.279 6.53679 288.532 6.53679H287.387C287.402 6.17774 287.416 5.83811 287.436 5.49362H285.514C285.534 5.83811 285.553 6.1826 285.563 6.53679H284.641C282.894 6.53679 281.837 6.50768 280.725 6.4446V7.59937C281.837 7.53145 282.894 7.50718 284.641 7.50718H285.592V7.50233ZM285.611 9.021C285.611 9.14715 285.611 9.2733 285.611 9.40431V9.58383H283.239V9.021H285.611ZM283.239 11.0976V10.4814H285.611V11.0976H283.239ZM289.77 11.0976H287.344V10.4814H289.77V11.0976ZM289.653 12.7425C289.197 12.757 288.45 12.7764 287.344 12.8007V11.9904H287.601C288.43 11.9904 289.1 11.9953 289.697 12.0098L289.139 12.3689C289.313 12.4805 289.483 12.6066 289.648 12.7425H289.653ZM289.77 9.021V9.58383H287.344V9.40431C287.344 9.26845 287.344 9.14715 287.344 9.021H289.77ZM292.618 15.8623C291.754 15.8089 290.919 15.7847 289.77 15.7749V17.5653C289.77 18.3028 289.585 18.8754 288.95 18.9045C288.222 18.9433 287.441 18.7589 285.81 18.526L285.636 17.5896L286.878 17.7303C287.897 17.837 288.037 17.74 288.037 17.3955V15.7701H284.51C284.025 15.7701 283.598 15.7701 283.205 15.7749C284.602 16.299 285.839 17.0171 285.839 17.0171L284.719 18.2931C283.525 16.9055 282.249 16.3184 282.249 16.3184L282.739 15.7798C281.934 15.7944 281.274 15.8186 280.594 15.8623V14.7075C281.706 14.7754 282.763 14.7997 284.51 14.7997H288.023C288.008 14.4892 287.984 14.2272 287.945 13.9603H289.867C289.828 14.2223 289.804 14.4843 289.789 14.7949C290.929 14.7851 291.759 14.756 292.618 14.7075V15.8623ZM295 20.3698C294.932 19.2587 294.908 18.1767 294.908 16.43V7.96327C294.908 6.21656 294.937 4.97931 295 3.87306C293.889 3.94098 292.831 3.96524 291.084 3.96524H282.074C280.328 3.96524 279.27 3.93613 278.159 3.87306C278.227 4.98416 278.251 6.21656 278.251 7.96327V16.43C278.251 18.1767 278.222 19.2635 278.159 20.3698C279.27 20.3018 280.328 20.2776 282.074 20.2776H291.084C292.831 20.2776 293.889 20.3067 295 20.3698ZM280.294 19.118C280.265 18.3902 280.25 17.609 280.25 16.43V7.96327C280.25 6.76483 280.265 5.90603 280.294 5.12487H292.904V19.1131H280.294V19.118ZM249.294 18.5357C249.906 18.5357 253.089 18.5066 254.224 18.4387V19.7633C253.089 19.6953 249.906 19.6662 249.294 19.6662H244.418C243.807 19.6662 240.624 19.6953 239.489 19.7633V18.4387C240.624 18.5066 243.807 18.5357 244.418 18.5357H245.777V16.7162C244.898 16.7162 242.439 16.7502 241.395 16.8133V15.4887C242.439 15.5518 244.903 15.5809 245.777 15.5857V13.7662C245.209 13.7662 243.443 13.7856 242.201 13.8293C241.827 14.5134 241.342 15.183 240.706 15.8817L239.814 15.3431C240.789 14.0768 241.279 12.3009 241.352 10.855H243.108C243.04 11.481 242.914 12.0486 242.735 12.5872C243.904 12.6163 245.277 12.6309 245.772 12.6357C245.762 11.6556 245.733 11.8109 245.68 10.855H248.038C247.979 11.806 247.95 11.6556 247.946 12.6357C248.683 12.6357 251.677 12.6066 252.783 12.5387V13.8633C251.677 13.8002 248.678 13.7662 247.946 13.7662V15.5857C248.824 15.5857 251.284 15.5518 252.327 15.5032V16.8133C251.284 16.7405 248.819 16.7211 247.946 16.7162V18.5357H249.304H249.294ZM241.653 10.2291H250.09C251.88 10.2291 252.967 10.2583 254.103 10.3262V9.07922C253.249 9.12774 252.424 9.15686 251.303 9.17141L251.88 8.50669C251.036 8.03605 250.124 7.63334 249.197 7.28399C250.26 6.83761 251.143 6.39608 251.939 6.01763L251.652 5.72651C252.487 5.74107 253.166 5.77018 253.865 5.80899V4.56204C252.73 4.62996 251.643 4.65908 249.852 4.65908H247.009C247.024 4.08654 247.048 3.57223 247.077 3.04822H244.734C244.763 3.57223 244.787 4.08169 244.801 4.65908H242.036C240.245 4.65908 239.159 4.62996 238.023 4.56204V5.80899C238.979 5.75077 239.901 5.72166 241.23 5.71681L240.803 6.36212C240.803 6.36212 242.696 6.61442 245.131 7.28885C243.365 7.72067 241.667 7.99238 240.158 8.23983L240.677 9.17626C239.459 9.16656 238.625 9.13745 237.708 9.08408C237.819 12.2912 237.844 17.0316 235.728 19.7293L236.611 20.4765C239.154 17.6963 239.789 15.6342 239.809 10.2485C240.342 10.2388 240.939 10.234 241.643 10.234L241.653 10.2291ZM243.356 5.71196H249.809C248.989 6.08556 248.159 6.39123 247.339 6.66294C245.84 6.21171 244.428 5.91089 243.356 5.71196ZM250.168 9.17626C250.143 9.17626 250.119 9.17626 250.095 9.17626H242.099C244.219 8.87544 245.922 8.44847 247.334 7.98268C248.28 8.31746 249.241 8.71047 250.163 9.17626H250.168Z" fill="black"/>
<path d="M3.47887 12.0727C3.47887 9.16155 5.01694 6.60942 7.32163 5.18294V0.316406H0V23.5331H7.32648V18.9625C5.01694 17.5361 3.48372 14.9839 3.48372 12.0727H3.47887Z" fill="#1226AA"/>
<path d="M15.832 0.316406V5.18294C18.1416 6.60942 19.6796 9.16155 19.6796 12.0727C19.6796 14.9839 18.1416 17.5361 15.832 18.9625V23.5331H23.1585V0.316406H15.832Z" fill="#1226AA"/>
<path d="M11.5817 3.97461C10.0194 3.97461 8.56376 4.41614 7.32651 5.18275V18.9624C7.32651 18.9624 7.34106 18.9721 7.35077 18.9769L7.32166 19.006L11.6011 23.2321L14.0125 20.6848L8.99073 15.4253C8.08342 14.6781 7.50118 13.5476 7.50118 12.2763C7.50118 10.025 9.32552 8.20068 11.5768 8.20068C13.8282 8.20068 15.6573 10.025 15.6573 12.2763C15.6573 14.5277 13.833 16.352 11.5768 16.352C11.1159 16.352 10.6744 16.2695 10.262 16.1288L13.8136 19.8503L14.2988 20.3597L15.6768 19.0448C15.7253 19.0157 15.7738 18.9915 15.8223 18.9624V5.18275C14.5851 4.41614 13.1295 3.97461 11.572 3.97461H11.5817Z" fill="#1226AA"/>
<path d="M34.124 10.2727H40.7906C41.1982 9.27321 41.5184 8.23489 41.7513 7.1626L43.4786 7.73999C43.6824 7.79336 43.7843 7.87584 43.7843 7.99229C43.7843 8.133 43.6387 8.28826 43.3427 8.45323C43.1632 9.10824 42.9691 9.71474 42.7653 10.2776H51.7949V11.8933H42.1297C41.6688 12.9413 41.1836 13.8195 40.6693 14.523C39.5291 16.1873 37.7727 17.7836 35.4049 19.3071L33.8862 18.0601C35.1526 17.3323 36.2152 16.59 37.074 15.8331C38.1608 14.8869 39.0778 13.737 39.8202 12.393C39.9075 12.2135 39.9949 12.0485 40.0676 11.8933H34.1143V10.2776L34.124 10.2727ZM42.0375 3.0918L43.7843 3.24706C44.1045 3.26162 44.2646 3.34895 44.2646 3.51392C44.2646 3.61581 44.1385 3.77107 43.8813 3.97486V5.28004H51.2175V8.92872H49.4514V6.89089H36.3899V8.92872H34.6237V5.28004H42.0375V3.0918ZM43.726 12.6162L45.4339 13.2906C45.6765 13.3683 45.7978 13.4653 45.7978 13.5769C45.7978 13.6691 45.6426 13.8098 45.3369 13.999C44.6431 15.2557 43.76 16.6288 42.6877 18.1281C44.5169 17.9243 46.3073 17.7011 48.0491 17.4536C47.5251 16.7355 46.9817 16.0854 46.414 15.4934L47.6998 14.4551C49.1069 15.8137 50.4994 17.5458 51.8676 19.6613L50.2325 20.7578C49.8735 20.1416 49.5144 19.5545 49.1554 18.9917C46.8604 19.375 43.4931 19.8748 39.0487 20.491C38.908 20.7239 38.7625 20.8355 38.6072 20.8355C38.4519 20.8355 38.3695 20.7384 38.3598 20.5492L37.8794 18.5308C38.777 18.4677 39.6698 18.3949 40.5674 18.3173C41.0914 17.5749 41.5329 16.8957 41.892 16.2795C42.6343 15.0374 43.2408 13.8147 43.7163 12.6114L43.726 12.6162Z" fill="#222222"/>
<path d="M59.1747 3.24221C59.854 3.66433 60.5187 4.20775 61.1737 4.87732L60.2324 5.51293H64.1916L65.7297 3.0918L67.1125 3.80019C67.3066 3.90208 67.3988 3.99426 67.3988 4.06704C67.3988 4.22231 67.2726 4.35331 67.0155 4.46976L66.1906 5.50808H70.1693V6.96852H65.327V11.0005H66.5351L67.8791 7.92921L69.1843 8.58423C69.3784 8.68612 69.4706 8.77831 69.4706 8.85109C69.4706 9.00635 69.3493 9.1325 69.1067 9.2344L68.2236 11.0005H71.261V12.5386H54.182V11.0005H56.8506C56.5837 10.1563 56.2538 9.3654 55.8705 8.6376L57.656 8.31252C58.0151 9.15676 58.3353 10.0544 58.6167 11.0005H59.7133V6.96852H55.2543V5.50808H59.2863C58.8496 5.02288 58.4032 4.60076 57.9423 4.24171L59.1698 3.24221H59.1747ZM56.9428 13.3877H68.6215V20.7627H66.933V20.1853H58.6361V20.7627H56.9476V13.3877H56.9428ZM58.6361 16.1533H66.933V14.9258H58.6361V16.1533ZM58.6361 18.7297H66.933V17.5361H58.6361V18.7297ZM61.4212 11.0054H63.6288V6.97338H61.4212V11.0054Z" fill="#222222"/>
<path d="M80.0769 4.24218H83.7256V3.16504L85.3947 3.30089C85.7003 3.32515 85.8556 3.41734 85.8556 3.56775C85.8556 3.66964 85.7343 3.82006 85.4917 4.00928V4.24218H89.6013V6.85739H91.3675V8.39547H89.6013V11.0058H85.4917V12.2334H89.8342V13.7715H85.4917V14.9602H90.2952V16.5759H85.4917V18.7641C86.5397 18.803 87.7188 18.8224 89.0288 18.8224C89.645 18.8224 90.4262 18.803 91.3723 18.7641L90.5281 20.6855C87.0832 20.6855 84.4243 20.5836 82.5563 20.3798C81.0473 20.2246 79.81 19.9771 78.8494 19.6326C78.1167 19.39 77.4714 19.0795 76.9086 18.7108C76.2681 19.6084 75.4821 20.3459 74.5457 20.9184L73.2405 19.5162C74.1478 19.0553 74.9047 18.4148 75.5063 17.5948C74.8901 16.9543 74.2303 15.9888 73.5267 14.6933L74.9678 14.1548C75.4918 14.9359 75.9721 15.5618 76.4088 16.0373C76.8843 14.9505 77.1851 13.4367 77.3113 11.5056H75.7926L75.1182 12.8496L73.5413 12.2916L76.5398 5.96948H73.6189V4.35377H76.8843L77.3841 4.1791C77.549 4.1791 77.7091 4.23733 77.8644 4.35377L78.8251 5.0282C78.9416 5.12038 78.9998 5.20772 78.9998 5.29506C78.9998 5.46002 78.8639 5.62984 78.5971 5.79481L76.598 9.88502H78.9998C78.8979 13.0485 78.534 15.392 77.9032 16.9155C77.8644 17.0077 77.8207 17.0902 77.7674 17.1678C78.6019 17.7064 79.5675 18.0849 80.6688 18.3032C81.3481 18.4682 82.367 18.5992 83.7256 18.6865V16.571H78.9998V14.9553H83.7256V13.7666H79.616V12.2285H83.7256V11.001H80.0769V9.4629H83.7256V8.38576H78.4612V6.84769H83.7256V5.78996H80.0769V4.23247V4.24218ZM85.4917 5.79966V6.85739H87.9128V5.79966H85.4917ZM85.4917 8.39061V9.46775H87.9128V8.39061H85.4917Z" fill="#222222"/>
<path d="M93.2161 6.0857H100.285V7.62378H93.2161V6.0857ZM93.6382 14.3486H99.8633V20.6125H98.2476V19.6518H95.249V20.7678H93.6333V14.3535L93.6382 14.3486ZM93.905 8.89014H99.5139V10.3506H93.905V8.89014ZM93.905 11.5054H99.5139V12.9658H93.905V11.5054ZM93.9827 3.43652H99.4411V4.89697H93.9827V3.43652ZM95.2539 18.1914H98.2524V15.8091H95.2539V18.1914ZM101.974 3.51416H107.66V7.70141C107.66 8.31761 107.748 8.62328 107.927 8.62328H108.966C109.067 8.62328 109.16 8.56021 109.232 8.4292C109.31 8.27394 109.397 7.6723 109.499 6.62427L111.115 7.22106C110.834 8.5408 110.523 9.36078 110.193 9.68101C109.834 10.0012 109.32 10.1614 108.655 10.1614H107.772C106.569 10.1614 105.967 9.47723 105.967 8.10412V4.9746H103.624C103.56 6.38167 103.381 7.4297 103.085 8.10412C102.74 8.92411 102.158 9.7635 101.338 10.6223L99.9749 9.52575C100.756 8.84647 101.28 8.19631 101.552 7.56555C101.833 7.02698 101.974 5.67814 101.974 3.51416ZM101.44 11.3889H107.801C108.044 11.2239 108.18 11.1366 108.204 11.1366C108.345 11.1366 108.471 11.1997 108.587 11.3307L109.509 12.1943C109.611 12.2962 109.664 12.4127 109.664 12.5388C109.664 12.665 109.49 12.8251 109.145 13.0192C108.412 15.1589 107.597 16.7212 106.685 17.7062C107.762 18.2302 109.189 18.6814 110.969 19.0502L109.834 20.7581C107.99 20.2729 106.486 19.6615 105.322 18.9337C104.274 19.6615 102.939 20.2729 101.324 20.7581L100.13 19.1812C101.295 18.924 102.231 18.6378 102.935 18.3175C103.279 18.1623 103.59 17.9924 103.856 17.7984C102.983 16.9784 102.076 15.7994 101.13 14.2613L102.357 13.4558C103.265 14.9017 104.206 16.0031 105.181 16.76C105.322 16.6048 105.448 16.4447 105.564 16.2797C106.151 15.5373 106.7 14.4165 107.199 12.9173H101.435V11.3792L101.44 11.3889Z" fill="#222222"/>
</svg>
