<svg width="386" height="369" viewBox="0 0 386 369" fill="none" xmlns="http://www.w3.org/2000/svg">
<mask id="mask0_3_311" style="mask-type:alpha" maskUnits="userSpaceOnUse" x="0" y="0" width="386" height="369">
<rect width="386" height="369" fill="#D9D9D9"/>
</mask>
<g mask="url(#mask0_3_311)">
<path opacity="0.94" d="M410.57 413.69L4.37 393.29L6.5 365.7L411 408.04L410.57 413.69Z" fill="url(#paint0_linear_3_311)"/>
<path opacity="0.94" d="M410.42 413.67L5.84 372.05L9.41 344.61L411.15 408.06L410.42 413.67Z" fill="url(#paint1_linear_3_311)"/>
<path opacity="0.94" d="M410.27 413.65L8.42001 350.91L13.43 323.69L411.29 408.08L410.27 413.65Z" fill="url(#paint2_linear_3_311)"/>
<path opacity="0.94" d="M410.12 413.62L12.11 329.93L18.53 303.01L411.43 408.11L410.12 413.62Z" fill="url(#paint3_linear_3_311)"/>
<path opacity="0.94" d="M409.97 413.58L16.89 309.17L24.71 282.63L411.57 408.15L409.97 413.58Z" fill="url(#paint4_linear_3_311)"/>
<path opacity="0.94" d="M409.82 413.53L22.74 288.7L31.94 262.6L411.71 408.19L409.82 413.53Z" fill="url(#paint5_linear_3_311)"/>
<path opacity="0.94" d="M409.68 413.48L29.67 268.56L40.22 242.98L411.84 408.24L409.68 413.48Z" fill="url(#paint6_linear_3_311)"/>
<path opacity="0.94" d="M409.54 413.41L37.63 248.8L49.51 223.81L411.97 408.3L409.54 413.41Z" fill="url(#paint7_linear_3_311)"/>
<path opacity="0.94" d="M409.41 413.34L46.62 229.5L59.79 205.16L412.1 408.37L409.41 413.34Z" fill="url(#paint8_linear_3_311)"/>
<path opacity="0.94" d="M409.28 413.27L56.61 210.69L71.03 187.07L412.23 408.44L409.28 413.27Z" fill="url(#paint9_linear_3_311)"/>
<path opacity="0.94" d="M409.15 413.19L67.57 192.42L83.21 169.6L412.35 408.52L409.15 413.19Z" fill="url(#paint10_linear_3_311)"/>
<path opacity="0.94" d="M409.03 413.1L79.46 174.76L96.28 152.78L412.47 408.6L409.03 413.1Z" fill="url(#paint11_linear_3_311)"/>
<path opacity="0.94" d="M408.91 413L92.27 157.74L110.21 136.68L412.58 408.69L408.91 413Z" fill="url(#paint12_linear_3_311)"/>
<path opacity="0.94" d="M408.79 412.9L105.95 141.42L124.97 121.32L412.69 408.79L408.79 412.9Z" fill="url(#paint13_linear_3_311)"/>
<path opacity="0.94" d="M408.69 412.79L120.47 125.84L140.51 106.76L412.79 408.89L408.69 412.79Z" fill="url(#paint14_linear_3_311)"/>
<path opacity="0.94" d="M408.58 412.68L135.78 111.03L156.79 93.0303L412.88 409L408.58 412.68Z" fill="url(#paint15_linear_3_311)"/>
<path opacity="0.94" d="M408.49 412.56L151.84 97.0499L173.77 80.1699L412.98 409.11L408.49 412.56Z" fill="url(#paint16_linear_3_311)"/>
<path opacity="0.94" d="M408.4 412.44L168.62 83.9297L191.4 68.2197L413.06 409.23L408.4 412.44Z" fill="url(#paint17_linear_3_311)"/>
<path opacity="0.94" d="M408.32 412.31L186.06 71.7L209.63 57.21L413.14 409.35L408.32 412.31Z" fill="url(#paint18_linear_3_311)"/>
<path opacity="0.94" d="M408.24 412.18L204.11 60.3999L228.41 47.1699L413.21 409.47L408.24 412.18Z" fill="url(#paint19_linear_3_311)"/>
<path opacity="0.94" d="M408.17 412.04L222.73 50.0701L247.69 38.1201L413.28 409.6L408.17 412.04Z" fill="url(#paint20_linear_3_311)"/>
<path opacity="0.94" d="M408.11 411.91L241.87 40.7198L267.42 30.0898L413.34 409.73L408.11 411.91Z" fill="url(#paint21_linear_3_311)"/>
<path opacity="0.94" d="M408.05 411.76L261.47 32.3904L287.54 23.1104L413.39 409.87L408.05 411.76Z" fill="url(#paint22_linear_3_311)"/>
<path opacity="0.94" d="M408.01 411.62L281.48 25.0904L308 17.1904L413.43 410L408.01 411.62Z" fill="url(#paint23_linear_3_311)"/>
<path opacity="0.94" d="M407.97 411.47L301.84 18.8496L328.74 12.3496L413.47 410.14L407.97 411.47Z" fill="url(#paint24_linear_3_311)"/>
<path opacity="0.94" d="M407.94 411.32L322.5 13.6896L349.7 8.59961L413.5 410.28L407.94 411.32Z" fill="url(#paint25_linear_3_311)"/>
<path opacity="0.94" d="M407.91 411.17L343.41 9.60996L370.83 5.95996L413.52 410.43L407.91 411.17Z" fill="url(#paint26_linear_3_311)"/>
<path opacity="0.94" d="M407.9 411.02L364.49 6.62992L392.08 4.41992L413.54 410.57L407.9 411.02Z" fill="url(#paint27_linear_3_311)"/>
<path opacity="0.94" d="M407.89 410.87L385.71 4.76L413.37 4L413.55 410.71L407.89 410.87Z" fill="url(#paint28_linear_3_311)"/>
</g>
<defs>
<linearGradient id="paint0_linear_3_311" x1="203.722" y1="349.88" x2="210.128" y2="429.731" gradientUnits="userSpaceOnUse">
<stop offset="0.22" stop-color="#EBF5CF" stop-opacity="0.9"/>
<stop offset="0.9" stop-color="#E43E0B" stop-opacity="0.9"/>
</linearGradient>
<linearGradient id="paint1_linear_3_311" x1="207.2" y1="339.125" x2="209.409" y2="419.191" gradientUnits="userSpaceOnUse">
<stop offset="0.22" stop-color="#EBF5CF" stop-opacity="0.9"/>
<stop offset="0.9" stop-color="#E43E0B" stop-opacity="0.9"/>
</linearGradient>
<linearGradient id="paint2_linear_3_311" x1="211.244" y1="328.564" x2="209.257" y2="408.645" gradientUnits="userSpaceOnUse">
<stop offset="0.22" stop-color="#EBF5CF" stop-opacity="0.9"/>
<stop offset="0.9" stop-color="#E43E0B" stop-opacity="0.9"/>
</linearGradient>
<linearGradient id="paint3_linear_3_311" x1="215.81" y1="318.225" x2="209.635" y2="398.093" gradientUnits="userSpaceOnUse">
<stop offset="0.22" stop-color="#EBF5CF" stop-opacity="0.9"/>
<stop offset="0.9" stop-color="#E43E0B" stop-opacity="0.9"/>
</linearGradient>
<linearGradient id="paint4_linear_3_311" x1="220.926" y1="308.158" x2="210.583" y2="387.583" gradientUnits="userSpaceOnUse">
<stop offset="0.22" stop-color="#EBF5CF" stop-opacity="0.9"/>
<stop offset="0.9" stop-color="#E43E0B" stop-opacity="0.9"/>
</linearGradient>
<linearGradient id="paint5_linear_3_311" x1="226.569" y1="298.348" x2="212.08" y2="377.132" gradientUnits="userSpaceOnUse">
<stop offset="0.22" stop-color="#EBF5CF" stop-opacity="0.9"/>
<stop offset="0.9" stop-color="#E43E0B" stop-opacity="0.9"/>
</linearGradient>
<linearGradient id="paint6_linear_3_311" x1="232.71" y1="288.862" x2="214.117" y2="366.781" gradientUnits="userSpaceOnUse">
<stop offset="0.22" stop-color="#EBF5CF" stop-opacity="0.9"/>
<stop offset="0.9" stop-color="#E43E0B" stop-opacity="0.9"/>
</linearGradient>
<linearGradient id="paint7_linear_3_311" x1="239.336" y1="279.711" x2="216.695" y2="356.54" gradientUnits="userSpaceOnUse">
<stop offset="0.22" stop-color="#EBF5CF" stop-opacity="0.9"/>
<stop offset="0.9" stop-color="#E43E0B" stop-opacity="0.9"/>
</linearGradient>
<linearGradient id="paint8_linear_3_311" x1="246.437" y1="270.904" x2="219.801" y2="346.452" gradientUnits="userSpaceOnUse">
<stop offset="0.22" stop-color="#EBF5CF" stop-opacity="0.9"/>
<stop offset="0.9" stop-color="#E43E0B" stop-opacity="0.9"/>
</linearGradient>
<linearGradient id="paint9_linear_3_311" x1="253.976" y1="262.5" x2="223.428" y2="336.542" gradientUnits="userSpaceOnUse">
<stop offset="0.22" stop-color="#EBF5CF" stop-opacity="0.9"/>
<stop offset="0.9" stop-color="#E43E0B" stop-opacity="0.9"/>
</linearGradient>
<linearGradient id="paint10_linear_3_311" x1="261.961" y1="254.492" x2="227.58" y2="326.834" gradientUnits="userSpaceOnUse">
<stop offset="0.22" stop-color="#EBF5CF" stop-opacity="0.9"/>
<stop offset="0.9" stop-color="#E43E0B" stop-opacity="0.9"/>
</linearGradient>
<linearGradient id="paint11_linear_3_311" x1="270.352" y1="246.904" x2="232.225" y2="317.356" gradientUnits="userSpaceOnUse">
<stop offset="0.22" stop-color="#EBF5CF" stop-opacity="0.9"/>
<stop offset="0.9" stop-color="#E43E0B" stop-opacity="0.9"/>
</linearGradient>
<linearGradient id="paint12_linear_3_311" x1="279.11" y1="239.775" x2="237.355" y2="308.127" gradientUnits="userSpaceOnUse">
<stop offset="0.22" stop-color="#EBF5CF" stop-opacity="0.9"/>
<stop offset="0.9" stop-color="#E43E0B" stop-opacity="0.9"/>
</linearGradient>
<linearGradient id="paint13_linear_3_311" x1="288.247" y1="233.119" x2="242.972" y2="299.192" gradientUnits="userSpaceOnUse">
<stop offset="0.22" stop-color="#EBF5CF" stop-opacity="0.9"/>
<stop offset="0.9" stop-color="#E43E0B" stop-opacity="0.9"/>
</linearGradient>
<linearGradient id="paint14_linear_3_311" x1="297.72" y1="226.954" x2="249.049" y2="290.567" gradientUnits="userSpaceOnUse">
<stop offset="0.22" stop-color="#EBF5CF" stop-opacity="0.9"/>
<stop offset="0.9" stop-color="#E43E0B" stop-opacity="0.9"/>
</linearGradient>
<linearGradient id="paint15_linear_3_311" x1="307.491" y1="221.271" x2="255.557" y2="282.264" gradientUnits="userSpaceOnUse">
<stop offset="0.22" stop-color="#EBF5CF" stop-opacity="0.9"/>
<stop offset="0.9" stop-color="#E43E0B" stop-opacity="0.9"/>
</linearGradient>
<linearGradient id="paint16_linear_3_311" x1="317.562" y1="216.129" x2="262.501" y2="274.312" gradientUnits="userSpaceOnUse">
<stop offset="0.22" stop-color="#EBF5CF" stop-opacity="0.9"/>
<stop offset="0.9" stop-color="#E43E0B" stop-opacity="0.9"/>
</linearGradient>
<linearGradient id="paint17_linear_3_311" x1="327.881" y1="211.52" x2="269.851" y2="266.742" gradientUnits="userSpaceOnUse">
<stop offset="0.22" stop-color="#EBF5CF" stop-opacity="0.9"/>
<stop offset="0.9" stop-color="#E43E0B" stop-opacity="0.9"/>
</linearGradient>
<linearGradient id="paint18_linear_3_311" x1="338.424" y1="207.445" x2="277.582" y2="259.553" gradientUnits="userSpaceOnUse">
<stop offset="0.22" stop-color="#EBF5CF" stop-opacity="0.9"/>
<stop offset="0.9" stop-color="#E43E0B" stop-opacity="0.9"/>
</linearGradient>
<linearGradient id="paint19_linear_3_311" x1="349.172" y1="203.928" x2="285.687" y2="252.781" gradientUnits="userSpaceOnUse">
<stop offset="0.22" stop-color="#EBF5CF" stop-opacity="0.9"/>
<stop offset="0.9" stop-color="#E43E0B" stop-opacity="0.9"/>
</linearGradient>
<linearGradient id="paint20_linear_3_311" x1="360.074" y1="200.989" x2="294.129" y2="246.448" gradientUnits="userSpaceOnUse">
<stop offset="0.22" stop-color="#EBF5CF" stop-opacity="0.9"/>
<stop offset="0.9" stop-color="#E43E0B" stop-opacity="0.9"/>
</linearGradient>
<linearGradient id="paint21_linear_3_311" x1="371.136" y1="198.616" x2="302.892" y2="240.566" gradientUnits="userSpaceOnUse">
<stop offset="0.22" stop-color="#EBF5CF" stop-opacity="0.9"/>
<stop offset="0.9" stop-color="#E43E0B" stop-opacity="0.9"/>
</linearGradient>
<linearGradient id="paint22_linear_3_311" x1="382.297" y1="196.828" x2="311.951" y2="235.148" gradientUnits="userSpaceOnUse">
<stop offset="0.22" stop-color="#EBF5CF" stop-opacity="0.9"/>
<stop offset="0.9" stop-color="#E43E0B" stop-opacity="0.9"/>
</linearGradient>
<linearGradient id="paint23_linear_3_311" x1="393.529" y1="195.62" x2="321.277" y2="230.216" gradientUnits="userSpaceOnUse">
<stop offset="0.22" stop-color="#EBF5CF" stop-opacity="0.9"/>
<stop offset="0.9" stop-color="#E43E0B" stop-opacity="0.9"/>
</linearGradient>
<linearGradient id="paint24_linear_3_311" x1="404.819" y1="195.018" x2="330.853" y2="225.775" gradientUnits="userSpaceOnUse">
<stop offset="0.22" stop-color="#EBF5CF" stop-opacity="0.9"/>
<stop offset="0.9" stop-color="#E43E0B" stop-opacity="0.9"/>
</linearGradient>
<linearGradient id="paint25_linear_3_311" x1="416.128" y1="194.995" x2="340.654" y2="221.839" gradientUnits="userSpaceOnUse">
<stop offset="0.22" stop-color="#EBF5CF" stop-opacity="0.9"/>
<stop offset="0.9" stop-color="#E43E0B" stop-opacity="0.9"/>
</linearGradient>
<linearGradient id="paint26_linear_3_311" x1="427.42" y1="195.57" x2="350.644" y2="218.428" gradientUnits="userSpaceOnUse">
<stop offset="0.22" stop-color="#EBF5CF" stop-opacity="0.9"/>
<stop offset="0.9" stop-color="#E43E0B" stop-opacity="0.9"/>
</linearGradient>
<linearGradient id="paint27_linear_3_311" x1="438.658" y1="196.729" x2="360.791" y2="215.537" gradientUnits="userSpaceOnUse">
<stop offset="0.22" stop-color="#EBF5CF" stop-opacity="0.9"/>
<stop offset="0.9" stop-color="#E43E0B" stop-opacity="0.9"/>
</linearGradient>
<linearGradient id="paint28_linear_3_311" x1="449.831" y1="198.483" x2="371.087" y2="213.19" gradientUnits="userSpaceOnUse">
<stop offset="0.22" stop-color="#EBF5CF" stop-opacity="0.9"/>
<stop offset="0.9" stop-color="#E43E0B" stop-opacity="0.9"/>
</linearGradient>
</defs>
</svg>
