<svg width="473" height="285" viewBox="0 0 473 285" fill="none" xmlns="http://www.w3.org/2000/svg">
<mask id="mask0_3_378" style="mask-type:alpha" maskUnits="userSpaceOnUse" x="0" y="0" width="473" height="285">
<rect width="473" height="285" fill="#D9D9D9"/>
</mask>
<g mask="url(#mask0_3_378)">
<g style="mix-blend-mode:multiply" opacity="0.59">
<path d="M128.97 369.25L467.92 305.53L462.96 282.59L127.95 364.56L128.97 369.25Z" fill="url(#paint0_linear_3_378)"/>
<path d="M129.09 369.22L464.24 287.85L458.09 265.2L127.83 364.59L129.09 369.22Z" fill="url(#paint1_linear_3_378)"/>
<path d="M129.21 369.18L459.64 270.38L452.32 248.09L127.71 364.62L129.21 369.18Z" fill="url(#paint2_linear_3_378)"/>
<path d="M129.32 369.14L454.14 253.18L445.65 231.3L127.59 364.67L129.32 369.14Z" fill="url(#paint3_linear_3_378)"/>
<path d="M129.44 369.09L447.74 236.29L438.12 214.89L127.47 364.71L129.44 369.09Z" fill="url(#paint4_linear_3_378)"/>
<path d="M129.55 369.04L440.46 219.76L429.74 198.89L127.36 364.77L129.55 369.04Z" fill="url(#paint5_linear_3_378)"/>
<path d="M129.66 368.98L432.33 203.64L420.53 183.36L127.25 364.83L129.66 368.98Z" fill="url(#paint6_linear_3_378)"/>
<path d="M129.77 368.92L423.37 187.96L410.52 168.32L127.14 364.9L129.77 368.92Z" fill="url(#paint7_linear_3_378)"/>
<path d="M129.87 368.84L413.6 172.77L399.74 153.83L127.03 364.97L129.87 368.84Z" fill="url(#paint8_linear_3_378)"/>
<path d="M129.97 368.77L403.05 158.11L388.22 139.93L126.93 365.05L129.97 368.77Z" fill="url(#paint9_linear_3_378)"/>
<path d="M130.06 368.69L391.74 144.03L375.98 126.64L126.84 365.13L130.06 368.69Z" fill="url(#paint10_linear_3_378)"/>
<path d="M130.15 368.6L379.72 130.55L363.07 114.02L126.74 365.22L130.15 368.6Z" fill="url(#paint11_linear_3_378)"/>
<path d="M130.24 368.51L367 117.73L349.51 102.09L126.66 365.31L130.24 368.51Z" fill="url(#paint12_linear_3_378)"/>
<path d="M130.32 368.42L353.63 105.59L335.35 90.8799L126.58 365.41L130.32 368.42Z" fill="url(#paint13_linear_3_378)"/>
<path d="M130.39 368.32L339.64 94.1597L320.62 80.4297L126.5 365.51L130.39 368.32Z" fill="url(#paint14_linear_3_378)"/>
<path d="M130.46 368.21L325.08 83.4795L305.36 70.7695L126.43 365.61L130.46 368.21Z" fill="url(#paint15_linear_3_378)"/>
<path d="M130.53 368.11L309.98 73.5799L289.62 61.9199L126.36 365.72L130.53 368.11Z" fill="url(#paint16_linear_3_378)"/>
<path d="M130.58 368L294.37 64.4804L273.43 53.9004L126.3 365.83L130.58 368Z" fill="url(#paint17_linear_3_378)"/>
<path d="M130.64 367.89L278.32 56.2102L256.85 46.7402L126.25 365.95L130.64 367.89Z" fill="url(#paint18_linear_3_378)"/>
<path d="M130.69 367.77L261.85 48.8L239.92 40.46L126.2 366.07L130.69 367.77Z" fill="url(#paint19_linear_3_378)"/>
<path d="M130.73 367.65L245.02 42.2501L222.68 35.0801L126.16 366.19L130.73 367.65Z" fill="url(#paint20_linear_3_378)"/>
<path d="M130.76 367.53L227.87 36.5996L205.18 30.5996L126.12 366.31L130.76 367.53Z" fill="url(#paint21_linear_3_378)"/>
<path d="M130.79 367.41L210.44 31.8498L187.48 27.0498L126.09 366.43L130.79 367.41Z" fill="url(#paint22_linear_3_378)"/>
<path d="M130.81 367.29L192.79 28.0199L169.61 24.4199L126.07 366.56L130.81 367.29Z" fill="url(#paint23_linear_3_378)"/>
<path d="M130.83 367.17L174.97 25.1202L151.62 22.7402L126.05 366.68L130.83 367.17Z" fill="url(#paint24_linear_3_378)"/>
<path d="M130.84 367.04L157.02 23.15L133.58 22L126.04 366.81L130.84 367.04Z" fill="url(#paint25_linear_3_378)"/>
<path d="M130.84 366.92L138.98 22.1299L115.52 22.2099L126.04 366.94L130.84 366.92Z" fill="url(#paint26_linear_3_378)"/>
<path d="M130.84 366.8L120.92 22.0498L97.5 23.3598L126.04 367.06L130.84 366.8Z" fill="url(#paint27_linear_3_378)"/>
<path d="M130.83 366.67L102.89 22.9199L79.56 25.4499L126.05 367.19L130.83 366.67Z" fill="url(#paint28_linear_3_378)"/>
<path d="M130.81 366.55L84.92 24.7305L61.75 28.4705L126.07 367.32L130.81 366.55Z" fill="url(#paint29_linear_3_378)"/>
<path d="M130.79 366.43L67.07 27.4697L44.13 32.4297L126.09 367.44L130.79 366.43Z" fill="url(#paint30_linear_3_378)"/>
<path d="M130.76 366.31L49.39 31.1504L26.74 37.3004L126.12 367.56L130.76 366.31Z" fill="url(#paint31_linear_3_378)"/>
<path d="M130.72 366.19L31.92 35.75L9.63 43.08L126.16 367.69L130.72 366.19Z" fill="url(#paint32_linear_3_378)"/>
<path d="M130.68 366.07L14.72 41.2598L-7.16003 49.7398L126.2 367.8L130.68 366.07Z" fill="url(#paint33_linear_3_378)"/>
<path d="M130.63 365.95L-2.17006 47.6602L-23.5701 57.2702L126.25 367.92L130.63 365.95Z" fill="url(#paint34_linear_3_378)"/>
<path d="M130.58 365.84L-18.7001 54.9297L-39.5701 65.6497L126.31 368.04L130.58 365.84Z" fill="url(#paint35_linear_3_378)"/>
<path d="M130.52 365.73L-34.83 63.0596L-55.11 74.8596L126.37 368.15L130.52 365.73Z" fill="url(#paint36_linear_3_378)"/>
<path d="M130.45 365.63L-50.5 72.0195L-70.14 84.8695L126.44 368.26L130.45 365.63Z" fill="url(#paint37_linear_3_378)"/>
<path d="M130.38 365.53L-65.69 81.79L-84.63 95.65L126.51 368.36L130.38 365.53Z" fill="url(#paint38_linear_3_378)"/>
<path d="M130.31 365.43L-80.35 92.3496L-98.54 107.17L126.59 368.46L130.31 365.43Z" fill="url(#paint39_linear_3_378)"/>
<path d="M130.22 365.33L-94.4299 103.65L-111.82 119.41L126.67 368.56L130.22 365.33Z" fill="url(#paint40_linear_3_378)"/>
<path d="M130.14 365.24L-107.91 115.68L-124.44 132.33L126.76 368.65L130.14 365.24Z" fill="url(#paint41_linear_3_378)"/>
<path d="M130.05 365.16L-120.73 128.39L-136.38 145.88L126.85 368.74L130.05 365.16Z" fill="url(#paint42_linear_3_378)"/>
<path d="M129.95 365.08L-132.88 141.76L-147.58 160.05L126.95 368.82L129.95 365.08Z" fill="url(#paint43_linear_3_378)"/>
<path d="M129.85 365L-144.3 155.75L-158.03 174.78L127.05 368.9L129.85 365Z" fill="url(#paint44_linear_3_378)"/>
<path d="M129.75 364.93L-154.98 170.31L-167.69 190.04L127.15 368.97L129.75 364.93Z" fill="url(#paint45_linear_3_378)"/>
<path d="M129.65 364.87L-164.88 185.42L-176.55 205.78L127.26 369.03L129.65 364.87Z" fill="url(#paint46_linear_3_378)"/>
<path d="M129.54 364.81L-173.98 201.02L-184.56 221.96L127.37 369.09L129.54 364.81Z" fill="url(#paint47_linear_3_378)"/>
<path d="M129.42 364.76L-182.25 217.07L-191.72 238.54L127.49 369.15L129.42 364.76Z" fill="url(#paint48_linear_3_378)"/>
<path d="M129.31 364.71L-189.66 233.54L-198 255.48L127.6 369.2L129.31 364.71Z" fill="url(#paint49_linear_3_378)"/>
</g>
</g>
<defs>
<linearGradient id="paint0_linear_3_378" x1="299.748" y1="341.914" x2="294.792" y2="318.973" gradientUnits="userSpaceOnUse">
<stop offset="0.1" stop-color="#A9211E" stop-opacity="0.5"/>
<stop offset="0.53" stop-color="#A1181E" stop-opacity="0.9"/>
</linearGradient>
<linearGradient id="paint1_linear_3_378" x1="298.205" y1="332.99" x2="292.058" y2="310.35" gradientUnits="userSpaceOnUse">
<stop offset="0.1" stop-color="#A9211E" stop-opacity="0.5"/>
<stop offset="0.53" stop-color="#A1181E" stop-opacity="0.9"/>
</linearGradient>
<linearGradient id="paint2_linear_3_378" x1="296.204" y1="324.167" x2="288.88" y2="301.879" gradientUnits="userSpaceOnUse">
<stop offset="0.1" stop-color="#A9211E" stop-opacity="0.5"/>
<stop offset="0.53" stop-color="#A1181E" stop-opacity="0.9"/>
</linearGradient>
<linearGradient id="paint3_linear_3_378" x1="293.742" y1="315.455" x2="285.262" y2="293.581" gradientUnits="userSpaceOnUse">
<stop offset="0.1" stop-color="#A9211E" stop-opacity="0.5"/>
<stop offset="0.53" stop-color="#A1181E" stop-opacity="0.9"/>
</linearGradient>
<linearGradient id="paint4_linear_3_378" x1="290.823" y1="306.898" x2="281.206" y2="285.488" gradientUnits="userSpaceOnUse">
<stop offset="0.1" stop-color="#A9211E" stop-opacity="0.5"/>
<stop offset="0.53" stop-color="#A1181E" stop-opacity="0.9"/>
</linearGradient>
<linearGradient id="paint5_linear_3_378" x1="287.468" y1="298.495" x2="276.744" y2="277.619" gradientUnits="userSpaceOnUse">
<stop offset="0.1" stop-color="#A9211E" stop-opacity="0.5"/>
<stop offset="0.53" stop-color="#A1181E" stop-opacity="0.9"/>
</linearGradient>
<linearGradient id="paint6_linear_3_378" x1="283.666" y1="290.273" x2="271.869" y2="269.995" gradientUnits="userSpaceOnUse">
<stop offset="0.1" stop-color="#A9211E" stop-opacity="0.5"/>
<stop offset="0.53" stop-color="#A1181E" stop-opacity="0.9"/>
</linearGradient>
<linearGradient id="paint7_linear_3_378" x1="279.449" y1="282.266" x2="266.607" y2="262.634" gradientUnits="userSpaceOnUse">
<stop offset="0.1" stop-color="#A9211E" stop-opacity="0.5"/>
<stop offset="0.53" stop-color="#A1181E" stop-opacity="0.9"/>
</linearGradient>
<linearGradient id="paint8_linear_3_378" x1="274.811" y1="274.495" x2="260.959" y2="255.561" gradientUnits="userSpaceOnUse">
<stop offset="0.1" stop-color="#A9211E" stop-opacity="0.5"/>
<stop offset="0.53" stop-color="#A1181E" stop-opacity="0.9"/>
</linearGradient>
<linearGradient id="paint9_linear_3_378" x1="269.771" y1="266.97" x2="254.947" y2="248.787" gradientUnits="userSpaceOnUse">
<stop offset="0.1" stop-color="#A9211E" stop-opacity="0.5"/>
<stop offset="0.53" stop-color="#A1181E" stop-opacity="0.9"/>
</linearGradient>
<linearGradient id="paint10_linear_3_378" x1="264.37" y1="259.75" x2="248.615" y2="242.368" gradientUnits="userSpaceOnUse">
<stop offset="0.1" stop-color="#A9211E" stop-opacity="0.5"/>
<stop offset="0.53" stop-color="#A1181E" stop-opacity="0.9"/>
</linearGradient>
<linearGradient id="paint11_linear_3_378" x1="258.568" y1="252.781" x2="241.917" y2="236.24" gradientUnits="userSpaceOnUse">
<stop offset="0.1" stop-color="#A9211E" stop-opacity="0.5"/>
<stop offset="0.53" stop-color="#A1181E" stop-opacity="0.9"/>
</linearGradient>
<linearGradient id="paint12_linear_3_378" x1="252.412" y1="246.139" x2="234.925" y2="230.499" gradientUnits="userSpaceOnUse">
<stop offset="0.1" stop-color="#A9211E" stop-opacity="0.5"/>
<stop offset="0.53" stop-color="#A1181E" stop-opacity="0.9"/>
</linearGradient>
<linearGradient id="paint13_linear_3_378" x1="245.93" y1="239.822" x2="227.649" y2="225.119" gradientUnits="userSpaceOnUse">
<stop offset="0.1" stop-color="#A9211E" stop-opacity="0.5"/>
<stop offset="0.53" stop-color="#A1181E" stop-opacity="0.9"/>
</linearGradient>
<linearGradient id="paint14_linear_3_378" x1="239.117" y1="233.871" x2="220.092" y2="220.144" gradientUnits="userSpaceOnUse">
<stop offset="0.1" stop-color="#A9211E" stop-opacity="0.5"/>
<stop offset="0.53" stop-color="#A1181E" stop-opacity="0.9"/>
</linearGradient>
<linearGradient id="paint15_linear_3_378" x1="232.005" y1="228.267" x2="212.287" y2="215.555" gradientUnits="userSpaceOnUse">
<stop offset="0.1" stop-color="#A9211E" stop-opacity="0.5"/>
<stop offset="0.53" stop-color="#A1181E" stop-opacity="0.9"/>
</linearGradient>
<linearGradient id="paint16_linear_3_378" x1="224.622" y1="223.055" x2="204.257" y2="211.387" gradientUnits="userSpaceOnUse">
<stop offset="0.1" stop-color="#A9211E" stop-opacity="0.5"/>
<stop offset="0.53" stop-color="#A1181E" stop-opacity="0.9"/>
</linearGradient>
<linearGradient id="paint17_linear_3_378" x1="216.955" y1="218.229" x2="196.017" y2="207.648" gradientUnits="userSpaceOnUse">
<stop offset="0.1" stop-color="#A9211E" stop-opacity="0.5"/>
<stop offset="0.53" stop-color="#A1181E" stop-opacity="0.9"/>
</linearGradient>
<linearGradient id="paint18_linear_3_378" x1="209.056" y1="213.81" x2="187.592" y2="204.34" gradientUnits="userSpaceOnUse">
<stop offset="0.1" stop-color="#A9211E" stop-opacity="0.5"/>
<stop offset="0.53" stop-color="#A1181E" stop-opacity="0.9"/>
</linearGradient>
<linearGradient id="paint19_linear_3_378" x1="200.938" y1="209.826" x2="178.999" y2="201.488" gradientUnits="userSpaceOnUse">
<stop offset="0.1" stop-color="#A9211E" stop-opacity="0.5"/>
<stop offset="0.53" stop-color="#A1181E" stop-opacity="0.9"/>
</linearGradient>
<linearGradient id="paint20_linear_3_378" x1="192.619" y1="206.254" x2="170.283" y2="199.078" gradientUnits="userSpaceOnUse">
<stop offset="0.1" stop-color="#A9211E" stop-opacity="0.5"/>
<stop offset="0.53" stop-color="#A1181E" stop-opacity="0.9"/>
</linearGradient>
<linearGradient id="paint21_linear_3_378" x1="184.129" y1="203.127" x2="161.449" y2="197.13" gradientUnits="userSpaceOnUse">
<stop offset="0.1" stop-color="#A9211E" stop-opacity="0.5"/>
<stop offset="0.53" stop-color="#A1181E" stop-opacity="0.9"/>
</linearGradient>
<linearGradient id="paint22_linear_3_378" x1="175.48" y1="200.445" x2="152.516" y2="195.644" gradientUnits="userSpaceOnUse">
<stop offset="0.1" stop-color="#A9211E" stop-opacity="0.5"/>
<stop offset="0.53" stop-color="#A1181E" stop-opacity="0.9"/>
</linearGradient>
<linearGradient id="paint23_linear_3_378" x1="166.709" y1="198.233" x2="143.516" y2="194.638" gradientUnits="userSpaceOnUse">
<stop offset="0.1" stop-color="#A9211E" stop-opacity="0.5"/>
<stop offset="0.53" stop-color="#A1181E" stop-opacity="0.9"/>
</linearGradient>
<linearGradient id="paint24_linear_3_378" x1="157.839" y1="196.469" x2="134.489" y2="194.093" gradientUnits="userSpaceOnUse">
<stop offset="0.1" stop-color="#A9211E" stop-opacity="0.5"/>
<stop offset="0.53" stop-color="#A1181E" stop-opacity="0.9"/>
</linearGradient>
<linearGradient id="paint25_linear_3_378" x1="148.872" y1="195.183" x2="125.44" y2="194.032" gradientUnits="userSpaceOnUse">
<stop offset="0.1" stop-color="#A9211E" stop-opacity="0.5"/>
<stop offset="0.53" stop-color="#A1181E" stop-opacity="0.9"/>
</linearGradient>
<linearGradient id="paint26_linear_3_378" x1="139.861" y1="194.351" x2="116.401" y2="194.429" gradientUnits="userSpaceOnUse">
<stop offset="0.1" stop-color="#A9211E" stop-opacity="0.5"/>
<stop offset="0.53" stop-color="#A1181E" stop-opacity="0.9"/>
</linearGradient>
<linearGradient id="paint27_linear_3_378" x1="130.823" y1="194.01" x2="107.389" y2="195.316" gradientUnits="userSpaceOnUse">
<stop offset="0.1" stop-color="#A9211E" stop-opacity="0.5"/>
<stop offset="0.53" stop-color="#A1181E" stop-opacity="0.9"/>
</linearGradient>
<linearGradient id="paint28_linear_3_378" x1="121.771" y1="194.141" x2="98.4379" y2="196.671" gradientUnits="userSpaceOnUse">
<stop offset="0.1" stop-color="#A9211E" stop-opacity="0.5"/>
<stop offset="0.53" stop-color="#A1181E" stop-opacity="0.9"/>
</linearGradient>
<linearGradient id="paint29_linear_3_378" x1="112.741" y1="194.739" x2="89.5726" y2="198.487" gradientUnits="userSpaceOnUse">
<stop offset="0.1" stop-color="#A9211E" stop-opacity="0.5"/>
<stop offset="0.53" stop-color="#A1181E" stop-opacity="0.9"/>
</linearGradient>
<linearGradient id="paint30_linear_3_378" x1="103.758" y1="195.807" x2="80.817" y2="200.762" gradientUnits="userSpaceOnUse">
<stop offset="0.1" stop-color="#A9211E" stop-opacity="0.5"/>
<stop offset="0.53" stop-color="#A1181E" stop-opacity="0.9"/>
</linearGradient>
<linearGradient id="paint31_linear_3_378" x1="94.8396" y1="197.352" x2="72.1895" y2="203.502" gradientUnits="userSpaceOnUse">
<stop offset="0.1" stop-color="#A9211E" stop-opacity="0.5"/>
<stop offset="0.53" stop-color="#A1181E" stop-opacity="0.9"/>
</linearGradient>
<linearGradient id="paint32_linear_3_378" x1="86.0061" y1="199.343" x2="63.7185" y2="206.666" gradientUnits="userSpaceOnUse">
<stop offset="0.1" stop-color="#A9211E" stop-opacity="0.5"/>
<stop offset="0.53" stop-color="#A1181E" stop-opacity="0.9"/>
</linearGradient>
<linearGradient id="paint33_linear_3_378" x1="77.2991" y1="201.817" x2="55.4253" y2="210.297" gradientUnits="userSpaceOnUse">
<stop offset="0.1" stop-color="#A9211E" stop-opacity="0.5"/>
<stop offset="0.53" stop-color="#A1181E" stop-opacity="0.9"/>
</linearGradient>
<linearGradient id="paint34_linear_3_378" x1="68.7357" y1="204.733" x2="47.3266" y2="214.35" gradientUnits="userSpaceOnUse">
<stop offset="0.1" stop-color="#A9211E" stop-opacity="0.5"/>
<stop offset="0.53" stop-color="#A1181E" stop-opacity="0.9"/>
</linearGradient>
<linearGradient id="paint35_linear_3_378" x1="60.3327" y1="208.091" x2="39.4651" y2="218.811" gradientUnits="userSpaceOnUse">
<stop offset="0.1" stop-color="#A9211E" stop-opacity="0.5"/>
<stop offset="0.53" stop-color="#A1181E" stop-opacity="0.9"/>
</linearGradient>
<linearGradient id="paint36_linear_3_378" x1="52.1122" y1="211.88" x2="31.8343" y2="223.677" gradientUnits="userSpaceOnUse">
<stop offset="0.1" stop-color="#A9211E" stop-opacity="0.5"/>
<stop offset="0.53" stop-color="#A1181E" stop-opacity="0.9"/>
</linearGradient>
<linearGradient id="paint37_linear_3_378" x1="44.1097" y1="216.102" x2="24.4686" y2="228.95" gradientUnits="userSpaceOnUse">
<stop offset="0.1" stop-color="#A9211E" stop-opacity="0.5"/>
<stop offset="0.53" stop-color="#A1181E" stop-opacity="0.9"/>
</linearGradient>
<linearGradient id="paint38_linear_3_378" x1="36.3418" y1="220.741" x2="17.4" y2="234.599" gradientUnits="userSpaceOnUse">
<stop offset="0.1" stop-color="#A9211E" stop-opacity="0.5"/>
<stop offset="0.53" stop-color="#A1181E" stop-opacity="0.9"/>
</linearGradient>
<linearGradient id="paint39_linear_3_378" x1="28.8163" y1="225.77" x2="10.6258" y2="240.601" gradientUnits="userSpaceOnUse">
<stop offset="0.1" stop-color="#A9211E" stop-opacity="0.5"/>
<stop offset="0.53" stop-color="#A1181E" stop-opacity="0.9"/>
</linearGradient>
<linearGradient id="paint40_linear_3_378" x1="21.5729" y1="231.192" x2="4.19087" y2="246.948" gradientUnits="userSpaceOnUse">
<stop offset="0.1" stop-color="#A9211E" stop-opacity="0.5"/>
<stop offset="0.53" stop-color="#A1181E" stop-opacity="0.9"/>
</linearGradient>
<linearGradient id="paint41_linear_3_378" x1="14.6104" y1="236.984" x2="-1.9232" y2="253.627" gradientUnits="userSpaceOnUse">
<stop offset="0.1" stop-color="#A9211E" stop-opacity="0.5"/>
<stop offset="0.53" stop-color="#A1181E" stop-opacity="0.9"/>
</linearGradient>
<linearGradient id="paint42_linear_3_378" x1="7.98229" y1="243.139" x2="-7.65761" y2="260.625" gradientUnits="userSpaceOnUse">
<stop offset="0.1" stop-color="#A9211E" stop-opacity="0.5"/>
<stop offset="0.53" stop-color="#A1181E" stop-opacity="0.9"/>
</linearGradient>
<linearGradient id="paint43_linear_3_378" x1="1.66582" y1="249.621" x2="-13.0375" y2="267.902" gradientUnits="userSpaceOnUse">
<stop offset="0.1" stop-color="#A9211E" stop-opacity="0.5"/>
<stop offset="0.53" stop-color="#A1181E" stop-opacity="0.9"/>
</linearGradient>
<linearGradient id="paint44_linear_3_378" x1="-4.29421" y1="256.438" x2="-18.0265" y2="275.471" gradientUnits="userSpaceOnUse">
<stop offset="0.1" stop-color="#A9211E" stop-opacity="0.5"/>
<stop offset="0.53" stop-color="#A1181E" stop-opacity="0.9"/>
</linearGradient>
<linearGradient id="paint45_linear_3_378" x1="-9.89035" y1="263.546" x2="-22.6023" y2="283.264" gradientUnits="userSpaceOnUse">
<stop offset="0.1" stop-color="#A9211E" stop-opacity="0.5"/>
<stop offset="0.53" stop-color="#A1181E" stop-opacity="0.9"/>
</linearGradient>
<linearGradient id="paint46_linear_3_378" x1="-15.1024" y1="270.932" x2="-26.7699" y2="291.297" gradientUnits="userSpaceOnUse">
<stop offset="0.1" stop-color="#A9211E" stop-opacity="0.5"/>
<stop offset="0.53" stop-color="#A1181E" stop-opacity="0.9"/>
</linearGradient>
<linearGradient id="paint47_linear_3_378" x1="-19.9222" y1="278.596" x2="-30.508" y2="299.543" gradientUnits="userSpaceOnUse">
<stop offset="0.1" stop-color="#A9211E" stop-opacity="0.5"/>
<stop offset="0.53" stop-color="#A1181E" stop-opacity="0.9"/>
</linearGradient>
<linearGradient id="paint48_linear_3_378" x1="-24.3455" y1="286.497" x2="-33.8205" y2="307.969" gradientUnits="userSpaceOnUse">
<stop offset="0.1" stop-color="#A9211E" stop-opacity="0.5"/>
<stop offset="0.53" stop-color="#A1181E" stop-opacity="0.9"/>
</linearGradient>
<linearGradient id="paint49_linear_3_378" x1="-28.3466" y1="294.611" x2="-36.6812" y2="316.54" gradientUnits="userSpaceOnUse">
<stop offset="0.1" stop-color="#A9211E" stop-opacity="0.5"/>
<stop offset="0.53" stop-color="#A1181E" stop-opacity="0.9"/>
</linearGradient>
</defs>
</svg>
