<svg width="40" height="51" viewBox="0 0 40 51" fill="none" xmlns="http://www.w3.org/2000/svg">
<path opacity="0.69" d="M25.3263 50.9841C24.3912 50.8255 23.4404 50.7145 22.5211 50.5083C19.488 49.8183 16.9107 48.2877 14.7184 46.0909C10.2474 41.5942 5.7764 37.0896 1.32111 32.577C-0.556868 30.6736 -0.415432 27.8979 1.63542 26.3197C2.74335 25.4632 4.02414 25.3363 5.33637 25.6614C5.91784 25.8042 6.49931 26.0263 7.04149 26.288C8.73874 27.1128 10.4281 27.9772 12.1175 28.8337C12.259 28.9051 12.4083 28.9685 12.6283 29.0716V28.4213C12.6283 20.4906 12.6283 12.5599 12.6283 4.62132C12.6283 3.09069 13.0997 1.78213 14.357 0.854237C15.6456 -0.0895156 17.0679 -0.25606 18.5058 0.378395C19.9438 1.01285 20.8945 2.15487 20.9731 3.7648C21.0831 6.01712 21.036 8.27736 21.0596 10.5297C21.0596 10.7279 21.0596 10.9183 21.0596 11.1245C24.2498 10.1966 25.4834 10.6645 27.1571 13.4323C29.9387 12.1079 31.6045 12.663 33.4904 15.5657C34.3861 15.0185 35.3526 14.8202 36.4056 14.9391C38.1107 15.1295 39.7844 16.8029 39.9258 18.5238C39.9729 19.0552 39.9965 19.5865 39.9965 20.11C39.9965 25.6694 40.0044 31.2288 39.9965 36.7882C39.9965 38.525 39.7922 40.2301 39.1636 41.8638C37.4271 46.4081 34.229 49.3187 29.5694 50.5797C28.8308 50.7779 28.0529 50.8572 27.2985 51H25.3263V50.9841ZM14.742 17.3739C14.742 21.704 14.742 26.0342 14.742 30.3643C14.742 31.7443 14.0662 32.1805 12.8562 31.5698C10.6403 30.4516 8.43229 29.3096 6.20072 28.231C5.58782 27.9375 4.9042 27.7314 4.2363 27.652C2.9555 27.4934 1.93401 28.5641 2.16974 29.8409C2.25617 30.3088 2.56262 30.7926 2.9005 31.1415C7.29293 35.6065 11.7011 40.0477 16.1092 44.4889C16.5493 44.933 17.0129 45.3613 17.5 45.7499C19.9359 47.6929 22.7018 48.7239 25.8134 48.8349C28.8779 48.9459 31.581 48.0181 33.8832 45.9878C36.602 43.5848 37.8907 40.5236 37.8907 36.8834C37.8828 31.0781 37.8907 25.2649 37.8907 19.4596C37.8907 19.2614 37.8907 19.0631 37.8671 18.8648C37.7728 17.9052 36.9635 17.1042 36.0205 17.0249C34.7397 16.9139 33.734 17.7942 33.7104 19.0948C33.6789 20.7682 33.7182 22.4495 33.6789 24.1229C33.6711 24.4877 33.5218 24.908 33.3096 25.2015C33.0582 25.5345 32.626 25.5742 32.2253 25.3918C31.7224 25.1618 31.581 24.7177 31.581 24.2101C31.581 21.9737 31.581 19.7293 31.581 17.4928C31.581 17.2946 31.581 17.0963 31.5731 16.898C31.4945 15.6053 30.3944 14.7171 29.1294 14.9312C28.0843 15.1057 27.4007 15.9463 27.3928 17.1359C27.385 19.4438 27.3928 21.7516 27.3928 24.0515C27.3928 24.9873 27.0157 25.4949 26.332 25.4949C25.6484 25.4949 25.2713 24.9794 25.2713 24.0436C25.2713 21.1409 25.2713 18.2383 25.2713 15.3357C25.2713 15.1216 25.2713 14.9074 25.2555 14.6854C25.1534 13.3847 23.8883 12.4886 22.6389 12.8375C21.6332 13.1151 21.0753 13.8923 21.0753 15.0819C21.0753 18.0559 21.0753 21.022 21.0753 23.996C21.0753 24.2418 21.0596 24.4956 21.0045 24.7335C20.9024 25.1697 20.4702 25.4949 20.0223 25.4949C19.5823 25.4949 19.1344 25.1777 19.0401 24.7415C18.9851 24.4877 18.9694 24.2181 18.9694 23.9563C18.9694 17.5483 18.9694 11.1483 18.9694 4.74028C18.9694 4.49442 18.9694 4.24064 18.9458 3.99479C18.8358 2.88449 17.7908 2.04384 16.6985 2.1628C15.4885 2.28969 14.7813 3.15414 14.7734 4.50235C14.7734 8.80079 14.7734 13.0992 14.7734 17.3977L14.742 17.3739Z" fill="white"/>
</svg>
