<svg width="46" height="43" viewBox="0 0 46 43" fill="none" xmlns="http://www.w3.org/2000/svg">
<path d="M1.16714 37.5981V38.0224H2.05871V38.5609H1.16714V42.3303H0.461994V38.5609H0V38.0224H0.461994V37.6634C0.461994 37.5002 0.470099 37.2881 0.48631 37.1412C0.559256 36.5129 0.988829 36.1621 1.62914 36.1621C1.80745 36.1621 1.97766 36.1784 2.13166 36.2029V36.7822C1.59672 36.6843 1.24819 36.8067 1.19146 37.1575C1.17525 37.2717 1.16714 37.4757 1.16714 37.5981Z" fill="white"/>
<path d="M6.76784 41.7101L6.53279 42.1751C6.24101 42.3791 5.86006 42.4444 5.4467 42.4444C4.6605 42.4444 4.05261 42.012 4.05261 41.2042C4.05261 40.2251 4.79018 39.7111 6.48416 39.7111H6.75974V39.5969C6.75974 39.4092 6.75974 39.2379 6.74352 39.0747C6.7111 38.6749 6.48416 38.4138 5.90059 38.4138C5.31702 38.4138 5.01713 38.732 4.9685 39.3276H4.23093C4.29577 38.4057 4.94418 37.8672 5.90059 37.8672C6.92994 37.8672 7.35952 38.2996 7.44057 39.0176C7.45678 39.1889 7.46488 39.4011 7.46488 39.5887V41.2205C7.46488 41.5469 7.48109 41.8406 7.54594 42.3302H6.84079L6.76784 41.7101ZM6.75974 40.682V40.2415C5.56828 40.1517 4.8145 40.4046 4.8145 41.1471C4.8145 41.6693 5.14681 41.8977 5.68175 41.8977C6.33827 41.8977 6.75974 41.4653 6.75974 40.6739V40.682Z" fill="white"/>
<path d="M13.7545 39.4503H13.0169C12.8629 38.7568 12.482 38.4141 11.9065 38.4141C11.2257 38.4141 10.6583 38.9445 10.6583 40.1193C10.6583 41.384 11.2176 41.9062 11.8579 41.9062C12.4333 41.9062 12.8305 41.5798 12.9764 40.9516H13.7139C13.5032 41.9633 12.7818 42.4528 11.8173 42.4528C10.7231 42.4528 9.88831 41.7675 9.88831 40.1765C9.88831 38.7078 10.8366 37.8838 11.9227 37.8838C13.0088 37.8838 13.6248 38.5039 13.7545 39.4585V39.4503Z" fill="white"/>
<path d="M19.6631 40.3723H16.5264C16.5913 41.5227 17.1343 41.9062 17.7665 41.9062C18.3339 41.9062 18.7877 41.5553 18.885 40.9352H19.6226C19.4524 41.9878 18.6256 42.4528 17.7341 42.4528C16.6075 42.4528 15.7645 41.7185 15.7645 40.1846C15.7645 38.7731 16.6399 37.8838 17.8232 37.8838C19.0066 37.8838 19.6793 38.7731 19.6793 40.0459C19.6793 40.1112 19.6793 40.2254 19.6631 40.3804V40.3723ZM16.5345 39.8338H18.9661C18.9012 38.9363 18.5203 38.4141 17.807 38.4141C17.0938 38.4141 16.6156 38.9037 16.5345 39.8338Z" fill="white"/>
<path d="M26.3095 40.0944C26.3095 41.7017 25.3125 42.4442 24.194 42.4442C23.8374 42.4442 23.3754 42.3381 23.1566 42.1586L22.8729 41.7343V42.3299H22.1677V36.3086H22.8729V38.6829L23.1971 38.2178C23.4402 38.0138 23.9022 37.8751 24.3399 37.8751C25.6043 37.8751 26.3095 38.8216 26.3095 40.0944ZM25.5395 40.176C25.5395 39.1969 25.1018 38.4136 24.2345 38.4136C23.5132 38.4136 22.8729 38.8705 22.8729 40.1188V40.3555C22.8729 41.4814 23.578 41.9057 24.194 41.9057C24.9559 41.9057 25.5395 41.3182 25.5395 40.176Z" fill="white"/>
<path d="M32.6557 40.1605C32.6557 41.3843 31.9749 42.445 30.5079 42.445C29.0408 42.445 28.36 41.3762 28.36 40.1605C28.36 38.9448 29.0408 37.876 30.5079 37.876C31.9749 37.876 32.6557 38.9366 32.6557 40.1605ZM31.8857 40.1605C31.8857 39.1325 31.3751 38.4145 30.5079 38.4145C29.6406 38.4145 29.13 39.1325 29.13 40.1605C29.13 41.1885 29.6406 41.9065 30.5079 41.9065C31.3751 41.9065 31.8857 41.1804 31.8857 40.1605Z" fill="white"/>
<path d="M38.994 40.1605C38.994 41.3843 38.3131 42.445 36.8461 42.445C35.3791 42.445 34.6982 41.3762 34.6982 40.1605C34.6982 38.9448 35.3791 37.876 36.8461 37.876C38.3131 37.876 38.994 38.9366 38.994 40.1605ZM38.224 40.1605C38.224 39.1325 37.7134 38.4145 36.8461 38.4145C35.9789 38.4145 35.4682 39.1325 35.4682 40.1605C35.4682 41.1885 35.9789 41.9065 36.8461 41.9065C37.7134 41.9065 38.224 41.1804 38.224 40.1605Z" fill="white"/>
<path d="M42.5117 40.4942L42.1064 40.9429V42.3299H41.4012V36.3086H42.1064V40.176L44.1246 37.9893H45.0242L43.0061 40.0373L45.0486 42.3299H44.0922L42.5117 40.4942Z" fill="white"/>
<path d="M27.3629 26.7876C27.1117 26.7876 27.1117 26.7876 27.1117 26.5428C27.1117 23.4016 27.1117 20.2686 27.1117 17.1274C27.1117 16.8826 27.1117 16.8826 27.3629 16.8826C28.3112 16.8826 29.2595 16.8826 30.2159 16.8826C30.378 16.8826 30.4591 16.85 30.4753 16.6623C30.6131 15.4874 30.7671 14.3125 30.9292 13.1458C30.9535 12.9744 30.9049 12.9255 30.7347 12.9255C29.5999 12.9255 28.4733 12.9255 27.3386 12.9255C27.1603 12.9255 27.1036 12.8765 27.1036 12.697C27.1198 11.8322 27.1117 10.9673 27.1198 10.1025C27.1198 9.88217 27.1765 9.67004 27.2576 9.46607C27.5088 8.8623 28.0194 8.69096 28.603 8.64201C29.3406 8.5849 30.0782 8.62569 30.8157 8.61753C31.0832 8.61753 31.0832 8.61753 31.0832 8.34828C31.0832 7.35289 31.0832 6.35749 31.0832 5.3621C31.0832 5.09285 31.0832 5.08469 30.8238 5.06837C29.7864 4.97862 28.757 4.90519 27.7196 4.95415C26.4308 5.01126 25.2799 5.40289 24.364 6.35749C23.667 7.08364 23.3022 7.98113 23.1401 8.96837C23.0753 9.38448 23.051 9.80058 23.0591 10.2249C23.0591 11.0571 23.0591 11.8893 23.0591 12.7215C23.0591 12.901 23.0023 12.9418 22.8321 12.9418C21.8676 12.9418 20.9031 12.9418 19.9467 12.9418C19.7603 12.9418 19.6954 12.9989 19.7035 13.1866C19.7035 14.3451 19.7035 15.5037 19.7035 16.6623C19.7035 16.8418 19.7522 16.8989 19.9386 16.8989C20.895 16.8989 21.8514 16.8989 22.8078 16.8989C22.9753 16.8989 23.0591 16.9805 23.0591 17.1437C23.0591 20.2849 23.0591 23.4343 23.0591 26.5755C23.0591 26.755 23.0105 26.8121 22.8321 26.8121" stroke="#F0DAAA" stroke-miterlimit="10"/>
<path d="M22.9133 26.7957H9.37769V0.654297H35.2088V26.7957H27.363" stroke="#F0DAAA" stroke-miterlimit="10"/>
</svg>
