<svg width="31" height="43" viewBox="0 0 31 43" fill="none" xmlns="http://www.w3.org/2000/svg">
<path d="M30.2494 7.98107L15.3197 0.654297L0.390015 7.98107V26.6896H11.9723V20.8723C11.9723 19.0773 13.4717 17.6168 15.3197 17.6168C17.1677 17.6168 18.6671 19.0773 18.6671 20.8723V26.6896H30.2494V7.98107Z" stroke="#F0DAAA" stroke-width="0.78" stroke-miterlimit="10"/>
<path d="M4.71812 39.8908V42.3303H3.99676V39.9398C3.99676 39.7195 3.99676 39.54 3.98055 39.3197C3.94002 38.8138 3.64824 38.4222 2.9593 38.4385C2.26225 38.4548 1.67058 38.9444 1.67058 40.4293V42.3385H0.949219V36.2764H1.67058V38.7404L1.94615 38.2427C2.3271 37.9571 2.6513 37.8837 3.1133 37.8837C4.09402 37.8837 4.63707 38.3895 4.71001 39.1565C4.72622 39.3768 4.72622 39.5481 4.72622 39.899L4.71812 39.8908Z" fill="white"/>
<path d="M12.7503 40.1605C12.7503 41.3843 12.0533 42.445 10.5295 42.445C9.00576 42.445 8.30872 41.3762 8.30872 40.1605C8.30872 38.9448 9.00576 37.876 10.5295 37.876C12.0533 37.876 12.7503 38.9366 12.7503 40.1605ZM11.956 40.1605C11.956 39.1325 11.4373 38.4145 10.5295 38.4145C9.62175 38.4145 9.10302 39.1325 9.10302 40.1605C9.10302 41.1885 9.62986 41.9065 10.5295 41.9065C11.4292 41.9065 11.956 41.1804 11.956 40.1605Z" fill="white"/>
<path d="M22.355 39.6784V42.3301H21.6336V40.0048C21.6336 39.6213 21.6255 39.3847 21.6012 39.1644C21.5363 38.6749 21.2121 38.4383 20.7096 38.4383C20.1423 38.4383 19.7289 38.8707 19.7289 40.1924V42.3383H19.0075V40.0129C19.0075 39.6295 19.0075 39.3929 18.9751 39.1726C18.9103 38.683 18.5861 38.4464 18.0836 38.4464C17.5162 38.4464 17.1028 38.8788 17.1028 40.2006V42.3464H16.3815V38.0058H17.1028V38.6341L17.3865 38.1445C17.6135 37.965 17.9377 37.8916 18.3348 37.8916C19.0156 37.8916 19.4533 38.2261 19.6235 38.6993L20.0207 38.1445C20.2476 37.965 20.5718 37.8916 20.9609 37.8916C21.7633 37.8916 22.2172 38.3485 22.3226 38.9523C22.355 39.1726 22.3631 39.3439 22.3631 39.6947L22.355 39.6784Z" fill="white"/>
<path d="M29.9657 40.3723H26.7318C26.7966 41.5227 27.3559 41.9062 28.0124 41.9062C28.5959 41.9062 29.066 41.5553 29.1633 40.9352H29.9252C29.7469 41.9878 28.8958 42.4528 27.98 42.4528C26.8128 42.4528 25.9456 41.7185 25.9456 40.1846C25.9456 38.7731 26.8452 37.8838 28.0691 37.8838C29.293 37.8838 29.9819 38.7731 29.9819 40.0459C29.9819 40.1112 29.9819 40.2254 29.9657 40.3804V40.3723ZM26.7399 39.8338H29.2525C29.1876 38.9363 28.7905 38.4141 28.0529 38.4141C27.3153 38.4141 26.8209 38.9037 26.7399 39.8338Z" fill="white"/>
</svg>
