<svg width="45" height="44" viewBox="0 0 45 44" fill="none" xmlns="http://www.w3.org/2000/svg">
<path d="M32.9094 17.8443C31.314 17.8443 29.7516 17.5896 28.2772 17.1022C27.551 16.8585 26.6598 17.0801 26.2196 17.5342L23.2928 19.7494C19.9039 17.9329 17.8134 15.8285 16.0309 12.4392L18.1765 9.57051C18.7376 9.0167 18.9357 8.19708 18.6936 7.43283C18.1985 5.93757 17.9564 4.36477 17.9564 2.75874C17.9564 1.59576 17.0212 0.654297 15.8658 0.654297H11.0906C9.93525 0.654297 9 1.59576 9 2.75874C9 16.0278 19.7279 26.827 32.9094 26.827C34.0648 26.827 35 25.8855 35 24.7225V19.9266C35 18.7636 34.0648 17.8222 32.9094 17.8222V17.8443Z" stroke="#F0DAAA" stroke-miterlimit="10"/>
<path d="M3.85007 40.0509H3.12061C2.96661 39.3574 2.59377 39.0147 2.0102 39.0147C1.33747 39.0147 0.762007 39.545 0.762007 40.7199C0.762007 41.9846 1.31316 42.5068 1.96157 42.5068C2.52893 42.5068 2.92608 42.1804 3.08008 41.5522H3.80955C3.59881 42.5639 2.88556 43.0534 1.92104 43.0534C0.826848 43.0534 0.00012207 42.3681 0.00012207 40.7771C0.00012207 39.3084 0.94032 38.4844 2.02641 38.4844C3.1125 38.4844 3.72039 39.1045 3.85007 40.0591V40.0509Z" fill="white"/>
<path d="M9.24009 40.7601C9.24009 41.9839 8.56737 43.0446 7.10033 43.0446C5.6333 43.0446 4.96057 41.9758 4.96057 40.7601C4.96057 39.5444 5.6333 38.4756 7.10033 38.4756C8.56737 38.4756 9.24009 39.5363 9.24009 40.7601ZM8.4701 40.7601C8.4701 39.7321 7.96759 39.0141 7.09223 39.0141C6.21687 39.0141 5.71435 39.7321 5.71435 40.7601C5.71435 41.7881 6.21687 42.5061 7.09223 42.5061C7.96759 42.5061 8.4701 41.78 8.4701 40.7601Z" fill="white"/>
<path d="M14.3787 40.4915V42.931H13.6817V40.5404C13.6817 40.3201 13.6817 40.1407 13.6655 39.9204C13.6249 39.4145 13.3494 39.0392 12.6847 39.0392C12.0201 39.0392 11.4365 39.545 11.4365 41.03V42.9392H10.7395V38.5986H11.4365V39.3411L11.704 38.8434C12.0687 38.5578 12.3848 38.4844 12.8306 38.4844C13.7708 38.4844 14.3058 38.9902 14.3706 39.7572C14.3868 39.9775 14.3868 40.1488 14.3868 40.4996L14.3787 40.4915Z" fill="white"/>
<path d="M17.0452 41.666C17.0452 41.8129 17.0452 41.8863 17.0533 42.0005C17.0857 42.4166 17.2559 42.5064 17.799 42.4411V42.9551C17.5964 42.9878 17.4018 42.9959 17.2073 42.9959C16.6724 42.9959 16.3968 42.7756 16.3563 42.2371C16.3482 42.1229 16.3482 41.9434 16.3482 41.6986V39.1693H15.7727V38.6309H16.3482V37.6191H17.0452V38.6309H17.8476V39.1693H17.0452V41.666Z" fill="white"/>
<path d="M21.8112 42.3107L21.5761 42.7757C21.2843 42.9797 20.9115 43.045 20.49 43.045C19.7119 43.045 19.0959 42.6125 19.0959 41.8048C19.0959 40.8257 19.8254 40.3117 21.5194 40.3117H21.795V40.1975C21.795 40.0098 21.795 39.8385 21.7788 39.6753C21.7463 39.2755 21.5194 39.0144 20.9439 39.0144C20.3685 39.0144 20.0686 39.3326 20.0199 39.9282H19.2905C19.3553 39.0063 19.9956 38.4678 20.952 38.4678C21.9814 38.4678 22.411 38.9002 22.4839 39.6182C22.5001 39.7895 22.5082 40.0017 22.5082 40.1893V41.8211C22.5082 42.1475 22.5244 42.4412 22.5893 42.9307H21.8922L21.8193 42.3107H21.8112ZM21.8031 41.2826V40.842C20.6116 40.7523 19.8659 41.0052 19.8659 41.7477C19.8659 42.2699 20.1982 42.4983 20.7251 42.4983C21.3735 42.4983 21.8031 42.0659 21.8031 41.2745V41.2826Z" fill="white"/>
<path d="M27.8736 40.0509H27.1442C26.9902 39.3574 26.6173 39.0147 26.0338 39.0147C25.361 39.0147 24.7856 39.545 24.7856 40.7199C24.7856 41.9846 25.3367 42.5068 25.9851 42.5068C26.5525 42.5068 26.9496 42.1804 27.1036 41.5522H27.8331C27.6224 42.5639 26.9091 43.0534 25.9446 43.0534C24.8504 43.0534 24.0237 42.3681 24.0237 40.7771C24.0237 39.3084 24.9639 38.4844 26.05 38.4844C27.1361 38.4844 27.7439 39.1045 27.8736 40.0591V40.0509Z" fill="white"/>
<path d="M30.1756 41.666C30.1756 41.8129 30.1756 41.8863 30.1837 42.0005C30.2161 42.4166 30.3863 42.5064 30.9294 42.4411V42.9551C30.7267 42.9878 30.5322 42.9959 30.3377 42.9959C29.8027 42.9959 29.5272 42.7756 29.4866 42.2371C29.4785 42.1229 29.4785 41.9434 29.4785 41.6986V39.1693H28.9031V38.6309H29.4785V37.6191H30.1756V38.6309H30.978V39.1693H30.1756V41.666Z" fill="white"/>
<path d="M39.7803 42.9308H39.0832V42.1965L38.8157 42.7023C38.451 42.9716 38.1349 43.045 37.6891 43.045C36.7976 43.045 36.2707 42.5391 36.1735 41.9354C36.141 41.7151 36.1329 41.5437 36.1329 41.1929V38.5902H36.83V41.0624C36.83 41.2011 36.8381 41.4377 36.8624 41.658C36.9272 42.1475 37.2758 42.482 37.8674 42.482C38.5402 42.482 39.0832 41.9762 39.0832 40.4912V38.582H39.7803V42.9226V42.9308Z" fill="white"/>
<path d="M44.5055 39.83H43.776C43.6788 39.3241 43.3708 39.0222 42.8682 39.0222C42.3657 39.0222 42.155 39.2915 42.155 39.6668C42.155 40.0992 42.5116 40.2706 43.0952 40.4256C44.0921 40.6867 44.5622 41.0783 44.5622 41.8208C44.5622 42.6367 43.8733 43.0528 42.9574 43.0528C42.0415 43.0528 41.3931 42.6448 41.2634 41.6576H41.9929C42.1064 42.2858 42.5035 42.5061 42.9979 42.5061C43.4599 42.5061 43.8328 42.294 43.8328 41.8779C43.8328 41.4618 43.541 41.2415 42.8115 41.0457C42.0415 40.8335 41.4174 40.5153 41.4174 39.7484C41.4174 38.9814 42.0172 38.4756 42.9088 38.4756C43.8733 38.4756 44.4082 39.0304 44.4974 39.83H44.5055Z" fill="white"/>
</svg>
