<svg width="39" height="43" viewBox="0 0 39 43" fill="none" xmlns="http://www.w3.org/2000/svg">
<path d="M0.713254 41.0826C0.713254 41.2131 0.713254 41.3518 0.721359 41.4905C0.737569 41.7679 0.867252 41.8577 1.2644 41.8169V42.3227C1.1023 42.3472 0.923988 42.3554 0.75378 42.3554C0.340417 42.3554 0.0324206 42.2248 0.00810516 41.6782C0 41.5313 0 41.3437 0 41.1071V36.3096H0.713254V41.0826Z" fill="white"/>
<path d="M7.40816 40.1605C7.40816 41.3843 6.71922 42.445 5.21976 42.445C3.72031 42.445 3.03137 41.3762 3.03137 40.1605C3.03137 38.9448 3.72031 37.876 5.21976 37.876C6.71922 37.876 7.40816 38.9366 7.40816 40.1605ZM6.62196 40.1605C6.62196 39.1325 6.10323 38.4145 5.21166 38.4145C4.32009 38.4145 3.80136 39.1325 3.80136 40.1605C3.80136 41.1885 4.32009 41.9065 5.21166 41.9065C6.10323 41.9065 6.62196 41.1804 6.62196 40.1605Z" fill="white"/>
<path d="M13.1467 39.4425H12.401C12.2389 38.749 11.858 38.4063 11.2663 38.4063C10.5774 38.4063 9.99379 38.9366 9.99379 40.1115C9.99379 41.3762 10.5612 41.8984 11.2177 41.8984C11.8012 41.8984 12.2065 41.572 12.3605 40.9438H13.1062C12.8873 41.9555 12.1579 42.445 11.1771 42.445C10.0586 42.445 9.2157 41.7597 9.2157 40.1687C9.2157 38.7 10.1802 37.876 11.2906 37.876C12.401 37.876 13.0251 38.4961 13.1548 39.4507L13.1467 39.4425Z" fill="white"/>
<path d="M17.7342 41.7023L17.491 42.1673C17.1911 42.3713 16.8102 42.4366 16.3806 42.4366C15.5782 42.4366 14.9541 42.0041 14.9541 41.1964C14.9541 40.2173 15.6998 39.7033 17.4343 39.7033H17.718V39.5891C17.718 39.4014 17.718 39.2301 17.7017 39.0669C17.6693 38.6671 17.4343 38.406 16.8426 38.406C16.2509 38.406 15.9429 38.7242 15.8943 39.3198H15.1486C15.2135 38.3979 15.87 37.8594 16.8507 37.8594C17.8963 37.8594 18.3421 38.2918 18.415 39.0098C18.4312 39.1811 18.4393 39.3933 18.4393 39.5809V41.2127C18.4393 41.5391 18.4555 41.8328 18.5204 42.3223H17.8071L17.7342 41.7023ZM17.7261 40.6824V40.2418C16.5103 40.152 15.7403 40.405 15.7403 41.1474C15.7403 41.6696 16.0807 41.8981 16.6238 41.8981C17.2884 41.8981 17.7261 41.4656 17.7261 40.6742V40.6824Z" fill="white"/>
<path d="M21.8597 41.0576C21.8597 41.2045 21.8597 41.2779 21.8678 41.3921C21.9003 41.8082 22.0786 41.898 22.6378 41.8327V42.3467C22.4271 42.3794 22.2326 42.3875 22.0299 42.3875C21.4788 42.3875 21.1951 42.1672 21.1546 41.6287C21.1465 41.5145 21.1465 41.335 21.1465 41.0902V38.5609H20.5548V38.0225H21.1465V37.0107H21.8597V38.0225H22.6865V38.5609H21.8597V41.0576Z" fill="white"/>
<path d="M25.7259 37.0112C25.7259 37.2642 25.5233 37.46 25.2639 37.46C25.0046 37.46 24.8101 37.2642 24.8101 37.0112C24.8101 36.7583 25.0127 36.5625 25.2639 36.5625C25.5152 36.5625 25.7259 36.7583 25.7259 37.0112ZM24.9154 42.3309V37.9903H25.6287V42.3309H24.9154Z" fill="white"/>
<path d="M32.21 40.1605C32.21 41.3843 31.5211 42.445 30.0216 42.445C28.5222 42.445 27.8333 41.3762 27.8333 40.1605C27.8333 38.9448 28.5222 37.876 30.0216 37.876C31.5211 37.876 32.21 38.9366 32.21 40.1605ZM31.4319 40.1605C31.4319 39.1325 30.9132 38.4145 30.0216 38.4145C29.1301 38.4145 28.6113 39.1325 28.6113 40.1605C28.6113 41.1885 29.1301 41.9065 30.0216 41.9065C30.9132 41.9065 31.4319 41.1804 31.4319 40.1605Z" fill="white"/>
<path d="M38.1105 39.8919V42.3314H37.3973V39.9408C37.3973 39.7205 37.3973 39.541 37.3811 39.3207C37.3405 38.8149 37.0569 38.4396 36.376 38.4396C35.6952 38.4396 35.1035 38.9454 35.1035 40.4304V42.3396H34.3903V37.999H35.1035V38.7415L35.3791 38.2438C35.7519 37.9582 36.0761 37.8848 36.53 37.8848C37.4945 37.8848 38.0376 38.3906 38.1024 39.1576C38.1186 39.3779 38.1186 39.5492 38.1186 39.9L38.1105 39.8919Z" fill="white"/>
<path d="M19.0633 0.654297C13.8841 0.654297 9.67749 4.79906 9.67749 9.89027C9.67749 16.2869 19.0714 27.22 19.0714 27.22C19.0714 27.22 28.449 15.9769 28.449 9.89027C28.449 4.7909 24.2344 0.654297 19.0633 0.654297ZM21.892 12.5909C21.1139 13.3578 20.0845 13.7413 19.0633 13.7413C18.042 13.7413 17.0127 13.3578 16.2346 12.5909C14.6703 11.057 14.6703 8.5522 16.2346 7.01831C16.9883 6.27584 17.9934 5.86789 19.0633 5.86789C20.1331 5.86789 21.1382 6.27584 21.892 7.01831C23.4563 8.5522 23.4563 11.057 21.892 12.5909Z" stroke="#F0DAAA" stroke-width="0.78" stroke-miterlimit="10"/>
</svg>
