<svg width="265" height="249" viewBox="0 0 265 249" fill="none" xmlns="http://www.w3.org/2000/svg">
<path d="M8.08748 56.9821H0V51.2891H22.417V56.9821H14.3296V80.5064H8.08748V56.9821Z" fill="#A32424"/>
<path d="M27.2614 65.8958C27.2614 63.5567 27.6397 61.4391 28.4009 59.5383C29.1621 57.6376 30.2232 56.0228 31.5842 54.6895C32.9452 53.3562 34.5599 52.332 36.4284 51.6169C38.2969 50.9018 40.336 50.542 42.5551 50.542C44.7742 50.542 46.8134 50.9018 48.6819 51.6169C50.5503 52.332 52.1651 53.3562 53.5261 54.6895C54.887 56.0228 55.9482 57.6422 56.7094 59.5383C57.4706 61.4345 57.8489 63.5567 57.8489 65.8958C57.8489 68.2348 57.4706 70.3524 56.7094 72.2532C55.9482 74.1493 54.887 75.7687 53.5261 77.102C52.1651 78.4353 50.5503 79.4595 48.6819 80.1746C46.8134 80.8897 44.7742 81.2495 42.5551 81.2495C40.336 81.2495 38.2969 80.8897 36.4284 80.1746C34.5599 79.4595 32.9452 78.4353 31.5842 77.102C30.2232 75.7687 29.1621 74.1493 28.4009 72.2532C27.6397 70.3524 27.2614 68.2348 27.2614 65.8958ZM33.7433 65.8958C33.7433 67.2706 33.9509 68.5301 34.3662 69.6696C34.7814 70.8091 35.3719 71.801 36.147 72.6407C36.922 73.4804 37.8494 74.1355 38.9289 74.6014C40.0085 75.0674 41.2172 75.3027 42.5505 75.3027C43.8838 75.3027 45.0926 75.0674 46.1721 74.6014C47.2517 74.1355 48.179 73.4804 48.9541 72.6407C49.7291 71.801 50.3197 70.8091 50.7349 69.6696C51.1501 68.5301 51.3531 67.2706 51.3531 65.8958C51.3531 64.5209 51.1455 63.2937 50.7349 62.1404C50.3243 60.987 49.7291 59.9858 48.9541 59.1462C48.179 58.3065 47.2517 57.656 46.1721 57.1854C45.0926 56.7195 43.8838 56.4842 42.5505 56.4842C41.2172 56.4842 40.0085 56.7195 38.9289 57.1854C37.8494 57.6514 36.922 58.3065 36.147 59.1462C35.3719 59.9858 34.7768 60.9824 34.3662 62.1404C33.9509 63.2937 33.7433 64.5486 33.7433 65.8958Z" fill="#A32424"/>
<path d="M65.5302 51.2842H71.7769V63.4177L82.7848 51.2842H90.9507L78.342 64.8617L92.0302 80.5015H83.3015L71.7723 66.6333V80.5015H65.5256V51.2842H65.5302Z" fill="#A32424"/>
<path d="M104.358 68.0404L93.7097 51.2842H101.474L107.476 62.2182L113.843 51.2842H121.248L110.6 68.0404V80.5015H104.353V68.0404H104.358Z" fill="#A32424"/>
<path d="M125.012 65.8958C125.012 63.5567 125.391 61.4391 126.152 59.5383C126.913 57.6376 127.974 56.0228 129.335 54.6895C130.696 53.3562 132.311 52.332 134.179 51.6169C136.048 50.9018 138.087 50.542 140.306 50.542C142.525 50.542 144.565 50.9018 146.433 51.6169C148.301 52.332 149.916 53.3562 151.277 54.6895C152.638 56.0228 153.699 57.6422 154.46 59.5383C155.222 61.4345 155.6 63.5567 155.6 65.8958C155.6 68.2348 155.222 70.3524 154.46 72.2532C153.699 74.1493 152.638 75.7687 151.277 77.102C149.916 78.4353 148.301 79.4595 146.433 80.1746C144.565 80.8897 142.525 81.2495 140.306 81.2495C138.087 81.2495 136.048 80.8897 134.179 80.1746C132.311 79.4595 130.696 78.4353 129.335 77.102C127.974 75.7687 126.913 74.1493 126.152 72.2532C125.391 70.3524 125.012 68.2348 125.012 65.8958ZM131.499 65.8958C131.499 67.2706 131.707 68.5301 132.122 69.6696C132.537 70.8091 133.128 71.801 133.903 72.6407C134.678 73.4804 135.605 74.1355 136.685 74.6014C137.764 75.0674 138.973 75.3027 140.306 75.3027C141.64 75.3027 142.848 75.0674 143.928 74.6014C145.007 74.1355 145.935 73.4804 146.71 72.6407C147.485 71.801 148.075 70.8091 148.491 69.6696C148.906 68.5301 149.109 67.2706 149.109 65.8958C149.109 64.5209 148.901 63.2937 148.491 62.1404C148.075 60.987 147.485 59.9858 146.71 59.1462C145.935 58.3065 145.007 57.656 143.928 57.1854C142.848 56.7195 141.64 56.4842 140.306 56.4842C138.973 56.4842 137.764 56.7195 136.685 57.1854C135.605 57.6514 134.678 58.3065 133.903 59.1462C133.128 59.9858 132.532 60.9824 132.122 62.1404C131.707 63.2937 131.499 64.5486 131.499 65.8958Z" fill="#A32424"/>
<path d="M178.335 51.2842H184.582V74.5593H196.153V80.5015H178.34V51.2842H178.335Z" fill="#A32424"/>
<path d="M203.511 51.2842H209.758V80.5015H203.511V51.2842Z" fill="#A32424"/>
<path d="M219.682 51.2842H238.694V57.2264H225.924V63.1686H237.734V69.1108H225.924V80.5015H219.677V51.2842H219.682Z" fill="#A32424"/>
<path d="M245.024 51.2842H264.28V57.2264H251.27V62.6749H263.561V68.6171H251.27V74.5593H265V80.5015H245.024V51.2842Z" fill="#A32424"/>
<path d="M19 0.507812H23.1798L34.0723 25.5915L44.9694 0.507812H48.9371V30.4034H46.1505V4.0556H46.0675L34.6675 30.4034H33.4403L21.8696 4.0556H21.7866V30.4034H19V0.507812Z" fill="black"/>
<path d="M60.2124 0.507812H78.4957V3.04063H62.999V13.6794H77.5269V16.2122H62.999V27.8659H79.1693V30.3987H60.2124V0.507812Z" fill="black"/>
<path d="M88.6272 0.507812H106.911V3.04063H91.4138V13.6794H105.942V16.2122H91.4138V27.8659H107.584V30.3987H88.6272V0.507812Z" fill="black"/>
<path d="M123.676 3.04063H113.457V0.507812H136.681V3.04063H126.463V30.4034H123.676V3.04063Z" fill="black"/>
<path d="M159.394 24.152C159.956 25.5868 160.722 26.694 161.696 27.4645C162.669 28.2396 163.998 28.6271 165.686 28.6271C166.784 28.6271 167.758 28.4564 168.598 28.1196C169.442 27.7828 170.138 27.3169 170.687 26.7263C171.236 26.1358 171.652 25.4438 171.933 24.6595C172.215 23.8706 172.358 23.0263 172.358 22.1267C172.358 21.0286 172.127 20.0875 171.661 19.2986C171.195 18.5097 170.591 17.8684 169.843 17.3794C169.096 16.8857 168.252 16.5305 167.31 16.3044C166.369 16.0784 165.414 15.9676 164.459 15.9676H163.361V13.4348H164.63C165.419 13.4348 166.212 13.3287 167.015 13.1165C167.818 12.9043 168.533 12.5767 169.17 12.1246C169.802 11.6724 170.318 11.0911 170.711 10.3714C171.103 9.65173 171.301 8.789 171.301 7.77403C171.301 6.16853 170.798 4.85368 169.802 3.82487C168.801 2.79606 167.458 2.28396 165.769 2.28396C164.528 2.28396 163.417 2.60229 162.434 3.23434C161.447 3.86639 160.672 4.71989 160.113 5.79022L157.705 4.43847C158.522 2.89294 159.643 1.76263 161.064 1.06138C162.485 0.360123 164.053 0.00488281 165.774 0.00488281C166.9 0.00488281 167.97 0.166356 168.985 0.489301C170 0.812247 170.886 1.29205 171.647 1.9241C172.408 2.55615 173.003 3.35429 173.442 4.30929C173.88 5.2689 174.097 6.39459 174.097 7.68638C174.097 9.31956 173.645 10.7636 172.745 12.0138C171.845 13.2687 170.521 14.1314 168.777 14.6113V14.6943C169.732 14.865 170.6 15.1787 171.375 15.6447C172.15 16.1106 172.819 16.6781 173.382 17.3563C173.945 18.0299 174.383 18.7911 174.692 19.6354C175.001 20.4796 175.158 21.3793 175.158 22.3389C175.158 23.5199 174.969 24.6318 174.59 25.6745C174.212 26.7171 173.631 27.626 172.86 28.3964C172.085 29.1715 171.121 29.7851 169.968 30.2326C168.814 30.6847 167.463 30.9062 165.912 30.9062C163.661 30.9062 161.751 30.4356 160.192 29.4898C158.628 28.5487 157.456 27.0631 156.667 25.0332L159.412 24.1474L159.394 24.152Z" fill="black"/>
<path d="M187.347 13.6791H187.43C187.937 13.2593 188.62 12.941 189.478 12.7287C190.336 12.5165 191.13 12.4104 191.864 12.4104C193.188 12.4104 194.41 12.6503 195.536 13.1301C196.662 13.6099 197.63 14.265 198.447 15.0955C199.264 15.9259 199.896 16.8993 200.348 18.0066C200.8 19.1184 201.026 20.3226 201.026 21.619C201.026 22.9154 200.781 24.2164 200.288 25.3559C199.794 26.4954 199.111 27.4735 198.239 28.2901C197.367 29.1067 196.329 29.748 195.135 30.2093C193.94 30.6753 192.639 30.906 191.231 30.906C189.824 30.906 188.523 30.6753 187.324 30.2093C186.129 29.7434 185.091 29.1067 184.219 28.2901C183.347 27.4735 182.664 26.4954 182.171 25.3559C181.677 24.2164 181.432 22.9707 181.432 21.619C181.432 20.8301 181.515 20.0827 181.686 19.3814C181.857 18.6802 182.078 18.0066 182.364 17.3745C182.646 16.7425 182.941 16.1427 183.25 15.5799C183.559 15.017 183.868 14.4819 184.177 13.9744L192.283 0.50293H195.494L187.347 13.6745V13.6791ZM191.231 14.611C190.244 14.611 189.331 14.7956 188.486 15.16C187.642 15.5245 186.904 16.0274 186.272 16.6594C185.64 17.2915 185.137 18.0389 184.773 18.897C184.408 19.7551 184.224 20.664 184.224 21.619C184.224 22.6616 184.394 23.612 184.731 24.4701C185.068 25.3282 185.548 26.0664 186.166 26.6846C186.784 27.3028 187.522 27.7826 188.38 28.1194C189.238 28.4562 190.189 28.6269 191.231 28.6269C192.274 28.6269 193.225 28.4562 194.083 28.1194C194.941 27.7826 195.679 27.3028 196.302 26.6846C196.925 26.0664 197.4 25.3282 197.737 24.4701C198.073 23.612 198.244 22.6616 198.244 21.619C198.244 20.664 198.059 19.7551 197.695 18.897C197.331 18.0389 196.828 17.2915 196.196 16.6594C195.564 16.0274 194.816 15.5245 193.958 15.16C193.1 14.7956 192.191 14.611 191.236 14.611H191.231Z" fill="black"/>
<path d="M206.687 15.4553C206.687 14.3849 206.738 13.2546 206.835 12.0551C206.932 10.8602 207.116 9.68837 207.384 8.54883C207.651 7.4093 208.016 6.32512 208.482 5.29631C208.948 4.2675 209.543 3.36325 210.276 2.57434C211.01 1.78543 211.886 1.15799 212.915 0.69664C213.944 0.230675 215.157 0 216.569 0C217.981 0 219.194 0.230675 220.223 0.69664C221.252 1.1626 222.128 1.79004 222.862 2.57434C223.596 3.36325 224.191 4.27211 224.657 5.29631C225.123 6.32512 225.487 7.4093 225.755 8.54883C226.022 9.68837 226.207 10.8556 226.304 12.0551C226.401 13.25 226.451 14.3849 226.451 15.4553C226.451 16.5256 226.401 17.6928 226.304 18.8739C226.207 20.0549 226.022 21.2175 225.755 22.3571C225.487 23.4966 225.123 24.5808 224.657 25.6096C224.191 26.6384 223.596 27.5473 222.862 28.3316C222.128 29.1205 221.252 29.7479 220.223 30.2093C219.194 30.6752 217.976 30.9059 216.569 30.9059C215.162 30.9059 213.944 30.6752 212.915 30.2093C211.886 29.7433 211.01 29.1205 210.276 28.3316C209.543 27.5427 208.948 26.6338 208.482 25.6096C208.016 24.5808 207.651 23.4966 207.384 22.3571C207.116 21.2175 206.932 20.0549 206.835 18.8739C206.738 17.6928 206.687 16.5533 206.687 15.4553ZM209.474 15.4553C209.474 16.2442 209.501 17.1115 209.557 18.0527C209.612 18.9938 209.727 19.9534 209.893 20.9223C210.059 21.8957 210.309 22.8415 210.632 23.7734C210.955 24.7007 211.379 25.5265 211.9 26.2416C212.422 26.9567 213.063 27.538 213.819 27.9717C214.581 28.41 215.494 28.6268 216.565 28.6268C217.635 28.6268 218.511 28.41 219.287 27.9717C220.062 27.5334 220.707 26.9567 221.229 26.2416C221.75 25.5219 222.17 24.7007 222.498 23.7734C222.82 22.8461 223.07 21.8957 223.236 20.9223C223.406 19.9488 223.517 18.9938 223.572 18.0527C223.628 17.1115 223.655 16.2442 223.655 15.4553C223.655 14.6663 223.628 13.8359 223.572 12.8809C223.517 11.9259 223.402 10.9617 223.236 9.98825C223.065 9.0148 222.82 8.06903 222.498 7.1371C222.175 6.20978 221.75 5.38397 221.229 4.66887C220.707 3.94916 220.062 3.37248 219.287 2.93881C218.511 2.50052 217.603 2.28369 216.565 2.28369C215.526 2.28369 214.613 2.50052 213.843 2.93881C213.067 3.37709 212.422 3.95378 211.9 4.66887C211.379 5.38397 210.959 6.20978 210.632 7.1371C210.309 8.06441 210.059 9.0148 209.893 9.98825C209.723 10.9571 209.612 11.9259 209.557 12.8809C209.501 13.8405 209.474 14.6986 209.474 15.4553Z" fill="black"/>
<path d="M239.369 12.1612C238.525 12.1612 237.731 11.9997 236.984 11.6768C236.236 11.3538 235.59 10.9156 235.041 10.3666C234.492 9.81755 234.063 9.17166 233.754 8.42427C233.445 7.67688 233.288 6.88336 233.288 6.03908C233.288 5.19481 233.441 4.4059 233.754 3.67235C234.063 2.93881 234.492 2.30214 235.041 1.75313C235.59 1.20413 236.236 0.77507 236.984 0.465964C237.731 0.156859 238.525 0 239.369 0C240.213 0 241.002 0.156859 241.736 0.465964C242.469 0.77507 243.106 1.20413 243.655 1.75313C244.204 2.30214 244.638 2.94342 244.965 3.67235C245.288 4.4059 245.45 5.1902 245.45 6.03908C245.45 6.88797 245.288 7.67688 244.965 8.42427C244.642 9.17166 244.204 9.81755 243.655 10.3666C243.106 10.9156 242.465 11.3538 241.736 11.6768C241.002 11.9997 240.218 12.1612 239.369 12.1612ZM239.369 10.1359C240.495 10.1359 241.454 9.74373 242.239 8.95482C243.027 8.16591 243.42 7.21092 243.42 6.08522C243.42 4.95952 243.023 4.00453 242.239 3.21562C241.45 2.42671 240.495 2.03456 239.369 2.03456C238.243 2.03456 237.284 2.43132 236.499 3.21562C235.71 4.00453 235.318 4.95952 235.318 6.08522C235.318 7.21092 235.71 8.17053 236.499 8.95482C237.288 9.74373 238.243 10.1359 239.369 10.1359Z" fill="black"/>
<line y1="109.345" x2="265" y2="109.345" stroke="#A32424"/>
<path d="M244.232 138.725C248.298 139.276 246.607 142.183 245.049 141.005C244.973 140.245 244.479 139.352 244.061 138.839L244.232 138.725ZM244.023 131.809C248.279 132.037 246.835 135.267 245.182 134.184C245.068 133.386 244.441 132.436 243.852 131.942L244.023 131.809ZM238.95 137.186C239.425 138.82 239.102 140.017 238.494 140.53C238.076 140.872 237.202 140.834 236.955 140.245C236.765 139.713 237.05 139.219 237.544 138.934C238.019 138.63 238.646 137.832 238.646 137.167L238.95 137.186ZM244.821 141.594C244.536 144.653 243.776 147.541 237.316 149.479L237.126 149.194C242.256 146.933 242.56 144.235 242.674 141.594H244.821ZM248.83 143.703L249.78 142.772L251.547 144.235C251.433 144.387 251.186 144.482 250.806 144.539C250.654 147.066 250.255 148.529 249.457 149.099C248.944 149.441 248.279 149.612 247.329 149.612C247.329 149.118 247.253 148.681 246.949 148.396C246.664 148.13 245.98 147.902 245.239 147.769V147.503C245.999 147.56 247.291 147.655 247.652 147.655C247.956 147.655 248.108 147.617 248.26 147.522C248.621 147.218 248.887 145.85 249.02 143.703H248.83ZM241.496 135.096C245.467 136.008 243.776 138.858 242.275 137.623C242.218 136.787 241.743 135.799 241.306 135.21L241.496 135.096ZM250.635 135.818C250.54 136.027 250.312 136.179 249.913 136.122C249.305 136.768 248.355 137.623 247.462 138.269H247.158C247.5 137.357 247.861 135.951 248.051 135.001L250.635 135.818ZM251.49 138.003L252.516 137.015L254.264 138.706C254.112 138.839 253.903 138.877 253.523 138.896C252.839 139.333 251.661 140.055 250.92 140.416L250.711 140.302C250.996 139.713 251.471 138.592 251.699 138.003H251.49ZM249.742 143.703V144.254H243.472L243.757 143.703H249.742ZM251.813 133.025C251.813 133.025 253.067 133.994 253.808 134.678C253.77 134.887 253.58 134.982 253.295 134.982H237.658L237.506 134.431H250.711L251.813 133.025ZM251.851 140.112C251.851 140.112 252.991 140.967 253.694 141.594C253.637 141.803 253.447 141.898 253.181 141.898H237.639L237.487 141.347H250.844L251.851 140.112ZM252.63 138.003V138.554H238.532V138.003H252.63Z" fill="black"/>
<path d="M222.724 142.885C229.412 144.348 228.291 147.502 226.771 146.666C226.182 145.792 224.605 144.31 222.591 143.151L222.724 142.885ZM221.527 142.828V144.329H220.045V143.569L221.527 142.828ZM219.874 145.754C220.615 145.583 222.363 145.127 224.092 144.614L224.168 144.88C223.427 145.317 221.888 146.248 220.33 147.065L219.874 145.754ZM221.166 143.759L221.527 143.987V145.811L220.254 146.305L220.691 145.792C220.938 146.609 220.577 147.122 220.292 147.293L219.38 146.001C219.95 145.621 220.045 145.488 220.045 145.222V143.759H221.166ZM228.177 143.246C228.082 143.379 227.911 143.417 227.569 143.284C226.942 143.588 225.764 144.006 225.004 144.31L224.814 144.101C225.422 143.569 226.315 142.581 226.809 141.973L228.177 143.246ZM223.427 141.878C222.059 143.36 219.817 144.405 217.347 145.07L217.176 144.747C219.095 143.968 220.767 142.828 221.812 141.574H223.427V141.878ZM227.056 136.425C227.056 136.425 228.063 137.166 228.69 137.736C228.633 137.945 228.443 138.04 228.177 138.04H217.67L217.518 137.489H226.182L227.056 136.425ZM226.22 134.582C226.22 134.582 227.189 135.304 227.797 135.855C227.759 136.064 227.569 136.159 227.303 136.159H218.487L218.335 135.608H225.384L226.22 134.582ZM224.206 134.164C224.168 134.373 224.035 134.525 223.655 134.601V137.736H222.021V133.955L224.206 134.164ZM220.425 142.258C220.425 142.391 219.741 142.714 219.133 142.714H218.905V138.515L220.52 139.18H226.144V139.731H220.425V142.258ZM225.289 139.18L226.03 138.439L227.569 139.598C227.493 139.712 227.284 139.826 226.999 139.883V142.011C226.98 142.144 226.201 142.448 225.707 142.448H225.441V139.18H225.289ZM226.087 141.498V142.049H219.703V141.498H226.087ZM217.1 148.737C217.1 148.984 216.416 149.459 215.637 149.459H215.314V132.093L217.271 132.929H229.488V133.48H217.1V148.737ZM228.766 132.929L229.697 131.903L231.578 133.404C231.445 133.575 231.16 133.708 230.761 133.803V148.699C230.742 148.851 229.906 149.307 229.241 149.307H228.956V132.929H228.766ZM229.545 147.445V147.996H216.321V147.445H229.545Z" fill="black"/>
<path d="M201.311 139.465C201.197 139.731 200.817 139.921 200.171 139.731L200.722 139.541C199.487 141.916 196.637 145.526 194.395 147.483L194.357 147.255H195.402C195.269 148.471 194.851 149.174 194.319 149.345L193.483 146.932C193.483 146.932 193.996 146.818 194.167 146.647C195.725 145.032 197.91 140.776 198.594 138.382L201.311 139.465ZM193.844 147.046C196.124 146.97 201.235 146.457 206.156 145.811L206.194 146.115C203.591 146.913 199.601 147.958 194.566 148.889L193.844 147.046ZM201.919 132.701L202.603 131.656L204.465 132.91C204.218 133.195 203.648 133.328 202.926 133.366C203.781 136.159 206.004 138.686 209.291 139.902L209.234 140.13C208.455 140.377 207.809 141.08 207.6 141.821C204.655 139.94 203.002 136.919 202.356 133.005V132.701H201.919ZM202.812 132.701V133.252H200.304L200.133 132.701H202.812ZM199.05 133.955C198.955 134.164 198.708 134.335 198.271 134.278C196.637 137.831 194.338 140.263 191.583 141.783L191.374 141.612C193.388 139.693 195.402 136.463 196.447 132.929L199.05 133.955ZM202.603 142.258C209.386 145.716 207.923 150.751 205.757 149.022C205.377 146.818 203.838 144.158 202.356 142.391L202.603 142.258Z" fill="black"/>
<path d="M169.296 133.461H177.048L178.074 132.131C178.074 132.131 179.252 133.062 179.974 133.708C179.917 133.917 179.727 134.012 179.442 134.012H169.448L169.296 133.461ZM168.878 139.237H177.599L178.625 137.85C178.625 137.85 179.746 138.819 180.411 139.484C180.354 139.693 180.164 139.788 179.898 139.788H169.03L168.878 139.237ZM175.49 133.461H177.257V148.756C177.238 148.87 176.706 149.288 175.794 149.288H175.49V133.461ZM171.31 133.461H173.058V139.218C173.058 142.695 172.792 146.799 169.049 149.497L168.84 149.326C171.101 146.4 171.31 142.714 171.31 139.237V133.461ZM184.173 132.093L186.434 133.442C186.301 133.651 186.13 133.689 185.693 133.613C183.964 135.399 181.684 136.938 179.309 137.964L179.138 137.679C181.114 136.273 182.843 134.316 184.173 132.093ZM184.192 136.957L186.529 138.287C186.396 138.496 186.206 138.553 185.769 138.477C183.831 140.624 181.342 142.201 178.549 143.227L178.397 142.942C180.734 141.517 182.691 139.522 184.192 136.957ZM184.458 141.821L186.909 143.037C186.776 143.246 186.586 143.322 186.149 143.246C183.964 146.362 181.171 148.224 177.599 149.402L177.466 149.117C180.449 147.502 182.767 145.26 184.458 141.821Z" fill="black"/>
<path d="M159.112 147.142C159.112 148.339 158.808 149.137 156.794 149.327C156.756 148.814 156.661 148.415 156.395 148.168C156.129 147.902 155.692 147.712 154.818 147.579V147.332C154.818 147.332 156.661 147.446 157.041 147.446C157.364 147.446 157.44 147.351 157.44 147.104V139.523H159.112V147.142ZM163.862 141.898C163.767 142.031 163.482 142.145 163.121 141.993C162.494 142.468 161.24 143.228 160.176 143.76L160.005 143.589C160.708 142.677 161.639 141.195 162.019 140.435L163.862 141.898ZM159.663 132.379C159.587 132.645 159.321 132.778 158.922 132.778C158.485 133.253 157.782 133.956 157.307 134.412H156.756C156.87 133.747 157.022 132.55 157.117 131.771L159.663 132.379ZM155.369 141.632L156.281 140.739L157.839 142.088C157.725 142.259 157.516 142.316 157.117 142.335C156.262 144.976 154.514 147.275 151.303 148.586L151.151 148.339C153.678 146.8 155.046 144.311 155.559 141.632H155.369ZM156.072 141.632V142.183H153.013L152.842 141.632H156.072ZM158.96 139.998C159.796 143.798 162.038 145.584 164.242 146.629L164.204 146.838C163.539 146.971 163.064 147.56 162.836 148.339C160.708 146.553 159.397 144.406 158.77 140.074L158.96 139.998ZM161.43 139.295V139.846H155.027V139.295H161.43ZM161.411 136.768V137.319H155.027V136.768H161.411ZM154.001 133.519L155.806 134.241H160.765L161.563 133.31L163.178 134.564C163.064 134.716 162.874 134.83 162.475 134.906V140.359C162.475 140.454 161.924 140.758 161.107 140.758H160.822V134.792H155.578V140.587C155.578 140.701 155.084 141.024 154.267 141.024H154.001V133.519ZM153.621 136.084C153.507 136.312 153.108 136.464 152.519 136.179L153.07 136.046C151.968 137.832 149.403 140.682 147.313 142.259L147.275 142.031H148.13C147.997 143.076 147.617 143.646 147.161 143.779L146.458 141.765C146.458 141.765 146.914 141.689 147.085 141.556C148.662 140.169 150.828 136.749 151.607 134.849L153.621 136.084ZM151.759 132.911C151.664 133.158 151.303 133.329 150.676 133.101L151.246 132.968C150.41 134.393 148.738 136.521 147.351 137.699L147.332 137.471H148.206C148.111 138.459 147.769 139.029 147.37 139.2L146.572 137.224C146.572 137.224 146.933 137.148 147.066 137.034C147.997 136.008 149.194 133.291 149.574 131.847L151.759 132.911ZM148.187 144.045C148.757 146.116 148.377 147.655 147.788 148.358C147.408 148.852 146.534 148.947 146.23 148.415C145.964 147.959 146.211 147.465 146.648 147.123C147.218 146.591 147.883 145.261 147.864 144.026L148.187 144.045ZM150.885 143.152C154.343 144.672 153.013 147.275 151.778 146.211C151.74 145.242 151.189 144.007 150.657 143.247L150.885 143.152ZM149.46 143.627C152.177 146.287 150.486 148.985 149.384 147.617C149.612 146.344 149.46 144.786 149.194 143.703L149.46 143.627ZM150.866 139.333C154.4 141.404 153.013 144.121 151.759 142.962C151.702 141.822 151.151 140.378 150.619 139.447L150.866 139.333ZM146.914 141.746C147.902 141.708 150.182 141.518 152.462 141.309L152.481 141.594C151.474 141.974 149.517 142.715 147.446 143.361L146.914 141.746ZM146.914 137.281C147.75 137.319 149.555 137.319 151.284 137.281L151.303 137.566C150.6 137.851 149.099 138.421 147.541 138.915L146.914 137.281Z" fill="black"/>
<path d="M132.55 141.916C131.752 141.916 131.201 141.308 131.201 140.605C131.201 139.845 131.752 139.218 132.55 139.218C133.329 139.218 133.88 139.845 133.88 140.605C133.88 141.308 133.329 141.916 132.55 141.916Z" fill="#931F1C"/>
<path d="M105.095 133.081V132.283L107.014 133.081H113.854V133.613H106.9V139.56C106.9 139.731 106.121 140.149 105.361 140.149H105.095V133.081ZM112.98 133.081H112.79L113.683 132.093L115.583 133.537C115.469 133.689 115.184 133.86 114.804 133.936V139.484C114.785 139.617 113.892 140.016 113.265 140.016H112.98V133.081ZM106.026 138.002H113.93V138.534H106.026V138.002ZM102.093 141.384V140.624L103.936 141.384H108.116V141.935H103.841V148.737C103.841 148.908 103.1 149.307 102.359 149.307H102.093V141.384ZM107.128 141.384H106.938L107.812 140.434L109.674 141.859C109.541 142.011 109.275 142.163 108.895 142.239V148.414C108.876 148.566 108.021 148.965 107.413 148.965H107.128V141.384ZM102.758 146.951H107.964V147.483H102.758V146.951ZM110.89 141.384V140.624L112.733 141.384H117.16V141.935H112.638V148.775C112.638 148.946 111.897 149.345 111.156 149.345H110.89V141.384ZM116.058 141.384H115.868L116.761 140.415L118.642 141.859C118.528 142.011 118.243 142.163 117.844 142.239V148.585C117.825 148.718 116.951 149.079 116.343 149.079H116.058V141.384ZM111.441 146.951H116.894V147.483H111.441V146.951Z" fill="black"/>
<path d="M79.977 132.188C84.29 132.739 82.865 135.817 81.231 134.753C81.022 133.917 80.357 132.891 79.787 132.302L79.977 132.188ZM83.264 147.141V147.692H80.034V147.141H83.264ZM82.409 142.733L83.169 141.916L84.803 143.17C84.689 143.303 84.423 143.436 84.1 143.493V148.053C84.081 148.186 83.34 148.547 82.827 148.547H82.58V142.733H82.409ZM80.756 148.832C80.756 148.984 80.11 149.326 79.445 149.326H79.217V142.049L80.832 142.733H83.302V143.284H80.756V148.832ZM83.815 134.468C83.815 134.468 84.727 135.209 85.297 135.76C85.24 135.969 85.069 136.064 84.803 136.064H78.609L78.457 135.513H82.998L83.815 134.468ZM83.15 139.408C83.15 139.408 84.005 140.092 84.518 140.605C84.48 140.814 84.29 140.909 84.043 140.909H79.255L79.103 140.358H82.409L83.15 139.408ZM83.207 136.957C83.207 136.957 84.043 137.641 84.556 138.154C84.518 138.363 84.347 138.458 84.081 138.458H79.255L79.103 137.907H82.428L83.207 136.957ZM95.918 138.724C95.842 138.952 95.671 139.047 95.177 139.047C93.828 144.082 91.738 147.293 87.653 149.383L87.482 149.06C90.902 146.628 92.707 143.322 93.752 138.04L95.918 138.724ZM88.375 139.218L89.154 138.401L90.655 139.655C90.541 139.807 90.313 139.902 89.952 139.959C89.876 143.854 89.781 145.45 89.135 146.058C88.793 146.362 88.356 146.457 87.881 146.495C87.881 146.21 87.805 145.849 87.634 145.659C87.482 145.469 87.121 145.298 86.741 145.203V144.918C87.102 144.937 87.653 144.975 87.881 144.975C88.014 144.975 88.071 144.937 88.128 144.861C88.413 144.481 88.508 142.942 88.565 139.218H88.375ZM85.449 135.646V135.114L87.273 135.836H86.988V139.845C86.988 142.733 86.836 146.761 84.062 149.459L83.815 149.288C85.335 146.457 85.449 142.942 85.449 139.845V135.646ZM92.707 132.245C92.688 132.492 92.517 132.72 92.023 132.777C91.928 138.306 92.194 143.892 94.626 146.647C94.873 146.97 94.949 146.951 95.12 146.59C95.367 146.096 95.728 145.184 95.975 144.424L96.203 144.462L95.842 147.502C96.336 148.471 96.431 148.946 96.165 149.174C95.481 149.782 94.284 149.041 93.638 148.243C90.712 144.728 90.351 138.819 90.332 131.979L92.707 132.245ZM94.531 134.601C94.531 134.601 95.633 135.456 96.298 136.083C96.241 136.292 96.051 136.387 95.785 136.387H86.437V135.836H93.562L94.531 134.601ZM92.992 132.416C96.944 132.739 95.671 135.551 94.208 134.582C94.018 133.879 93.372 133.043 92.821 132.568L92.992 132.416ZM89.287 139.218V139.769H86.285V139.218H89.287Z" fill="black"/>
<path d="M64.7198 141.916C63.9218 141.916 63.3708 141.308 63.3708 140.605C63.3708 139.845 63.9218 139.218 64.7198 139.218C65.4988 139.218 66.0499 139.845 66.0499 140.605C66.0499 141.308 65.4988 141.916 64.7198 141.916Z" fill="#931F1C"/>
<path d="M39.2029 139.238C39.1459 139.485 39.0129 139.656 38.5949 139.713V147.028C38.5949 147.028 38.0059 147.028 37.4549 147.028H37.0369V139.01L39.2029 139.238ZM36.7329 140.264C36.6569 140.53 36.4479 140.701 36.0109 140.72C35.7829 143.589 35.2319 147.161 33.3509 149.403L33.1229 149.213C34.1869 146.724 34.5289 142.791 34.4339 139.808L36.7329 140.264ZM40.0199 140.796C40.0199 140.796 40.9889 141.632 41.5589 142.221C41.5019 142.43 41.3309 142.525 41.0839 142.525H37.7019V141.974H39.1649L40.0199 140.796ZM40.0959 136.863C40.0959 136.863 41.1409 137.68 41.7679 138.288C41.7109 138.497 41.5399 138.592 41.2739 138.592H33.5789L33.4269 138.041H39.2029L40.0959 136.863ZM39.7919 133.557C39.7919 133.557 40.7799 134.355 41.3879 134.925C41.3309 135.134 41.1409 135.229 40.8749 135.229H34.0919L33.9399 134.678H38.9179L39.7919 133.557ZM38.9559 132.037C38.9179 132.284 38.7469 132.455 38.3099 132.512V138.345H36.6759V131.809L38.9559 132.037ZM35.2129 143C36.5999 146.857 38.8419 147.351 43.4019 147.351C45.1309 147.351 49.2729 147.351 51.0969 147.294V147.541C50.3939 147.693 50.0519 148.282 50.0139 148.985C48.5509 148.985 44.9219 148.985 43.3259 148.985C38.5379 148.985 36.2769 147.997 34.9659 143.114L35.2129 143ZM41.3119 143.931C42.0339 143.608 43.8009 142.772 45.5299 141.879L45.6629 142.107C44.9599 142.734 43.5539 144.102 42.0339 145.394L41.3119 143.931ZM41.6919 134.336L43.5539 135.286H43.2689V136.426C43.2689 136.426 42.7559 136.426 41.6919 136.426V134.336ZM42.8699 135.571L43.2689 135.799V143.855L41.7109 144.482L42.2429 143.893C42.6039 144.805 42.1859 145.432 41.8819 145.622L40.7989 144.14C41.5779 143.646 41.6919 143.513 41.6919 143.152V135.571H42.8699ZM50.7739 137.471C50.6979 137.699 50.4699 137.87 50.0519 137.851C48.8739 141.936 46.4419 145.014 42.7939 146.572L42.5659 146.344C45.6439 144.558 47.7909 141.176 48.6269 136.863L50.7739 137.471ZM47.2399 132.075C47.2209 132.303 47.0499 132.512 46.6129 132.588C46.6129 136.673 47.0309 142.335 49.2159 144.007C49.4439 144.216 49.5579 144.197 49.6909 143.969C49.8999 143.589 50.2229 142.734 50.4319 142.107L50.6409 142.164L50.3179 144.748C50.7359 145.375 50.9449 145.926 50.6599 146.192C50.1659 146.724 49.1779 146.325 48.4559 145.736C45.5489 143.57 45.0359 137.186 44.9029 131.828L47.2399 132.075ZM47.3919 132.303C50.8689 133.006 49.5389 135.419 48.2659 134.45C48.1709 133.766 47.6769 132.93 47.2019 132.436L47.3919 132.303ZM49.2349 134.089C49.2349 134.089 50.2989 134.925 50.9449 135.533C50.9069 135.742 50.7169 135.837 50.4509 135.837H42.5469V135.286H48.3039L49.2349 134.089Z" fill="black"/>
<path d="M25.257 132.568C25.257 132.568 26.644 133.613 27.48 134.335C27.442 134.544 27.233 134.639 26.948 134.639H11.881L11.71 134.088H24.041L25.257 132.568ZM23.661 138.838C23.661 138.838 24.991 139.845 25.808 140.567C25.77 140.776 25.561 140.871 25.295 140.871H13.192L13.04 140.32H22.464L23.661 138.838ZM26.207 145.602C26.207 145.602 27.632 146.666 28.487 147.426C28.43 147.635 28.24 147.73 27.955 147.73H10.836L10.684 147.179H24.953L26.207 145.602Z" fill="black"/>
<path d="M254.6 180.885H253.92V163.885H254.6V180.885Z" fill="#931F1C"/>
<path d="M239.929 179.695C239.929 179.797 239.436 180.171 238.586 180.171H238.314V170.294H239.929V179.695ZM241.85 166.061C241.663 166.231 241.306 166.231 240.83 166.061C239.402 166.367 237.124 166.707 235.152 166.843L235.101 166.622C236.784 166.061 238.943 165.092 240.031 164.429L241.85 166.061ZM236.58 166.299C236.529 166.418 236.376 166.469 236.155 166.503V170.532C236.155 173.728 235.764 177.74 231.718 180.307L231.514 180.103C234.166 177.332 234.591 173.864 234.591 170.498V165.636L236.58 166.299ZM240.439 168.985C240.439 168.985 241.459 169.818 242.088 170.396C242.037 170.583 241.867 170.668 241.629 170.668H235.322V170.175H239.538L240.439 168.985ZM233.911 165.891C233.724 166.061 233.401 166.061 232.942 165.908C231.684 166.265 229.644 166.724 227.927 166.962L227.842 166.707C229.321 166.129 231.242 165.109 232.194 164.446L233.911 165.891ZM229.287 166.52C229.236 166.639 229.1 166.707 228.879 166.724V171.28C228.879 174.119 228.777 177.825 226.261 180.341L226.023 180.171C227.298 177.536 227.349 174.221 227.349 171.229V165.891L229.287 166.52ZM231.463 168.883L232.245 168.05L233.877 169.308C233.775 169.444 233.52 169.58 233.163 169.648V174.408C233.146 174.527 232.381 174.833 231.888 174.833H231.633V168.883H231.463ZM232.568 173.32V173.813H227.876V173.32H232.568ZM232.568 168.883V169.376H227.876V168.883H232.568Z" fill="black"/>
<path d="M209.176 179.831C209.176 179.933 208.683 180.341 207.884 180.341H207.612V174.748H209.176V179.831ZM207.612 173.575L209.448 174.442H209.176V175.445C209.176 175.445 208.683 175.445 207.612 175.445V173.575ZM219.495 174.442V174.935H206.711L206.558 174.442H219.495ZM218.271 174.442L219.002 173.609L220.702 174.867C220.583 174.986 220.328 175.139 219.988 175.19V178.454C219.988 179.457 219.733 180.052 217.829 180.222C217.778 179.797 217.693 179.457 217.455 179.253C217.2 179.049 216.826 178.879 216.027 178.76V178.522C216.027 178.522 217.693 178.641 218.067 178.641C218.356 178.641 218.441 178.539 218.441 178.301V174.442H218.271ZM215.415 175.326C219.053 176.38 217.88 178.998 216.639 178.012C216.588 177.128 215.891 176.057 215.245 175.462L215.415 175.326ZM209.652 176.754C210.944 176.754 213.919 176.618 216.979 176.448L216.996 176.703C215.619 177.094 213.63 177.57 210.808 178.199C210.689 178.403 210.519 178.522 210.349 178.556L209.652 176.754ZM214.514 168.39V176.992L212.967 177.06V168.39H214.514ZM216.843 168.39L217.608 167.574L219.223 168.781C219.121 168.9 218.883 169.036 218.594 169.087V173.15C218.577 173.286 217.812 173.643 217.285 173.643H217.013V168.39H216.843ZM210.536 173.303C210.536 173.456 209.856 173.796 209.193 173.796H208.972V167.71L210.638 168.39H217.591V168.883H210.536V173.303ZM217.608 170.447V170.94H209.839V170.447H217.608ZM217.608 172.504V172.997H209.839V172.504H217.608ZM212.508 164.378C216.282 164.633 214.633 167.506 213.154 166.316C213.171 165.653 212.831 164.888 212.372 164.48L212.508 164.378ZM219.325 166.52L220.209 165.653L221.773 167.132C221.637 167.251 221.45 167.285 221.11 167.319C220.668 167.812 219.92 168.475 219.325 168.866L219.138 168.747C219.291 168.135 219.444 167.098 219.512 166.52H219.325ZM207.935 165.687C208.649 167.625 208.139 168.934 207.408 169.427C206.915 169.784 206.167 169.699 205.946 169.172C205.759 168.662 206.065 168.254 206.507 167.999C207.136 167.642 207.748 166.707 207.663 165.687H207.935ZM220.107 166.52V167.013H207.918V166.52H220.107Z" fill="black"/>
<path d="M185.767 168.288H198.534L199.554 167.03C199.554 167.03 200.71 167.914 201.424 168.509C201.39 168.696 201.203 168.781 200.948 168.781H185.92L185.767 168.288ZM186.413 171.739H191.768L192.72 170.549C192.72 170.549 193.774 171.382 194.437 171.96C194.386 172.147 194.216 172.232 193.978 172.232H186.549L186.413 171.739ZM194.267 164.582L196.596 164.82C196.562 165.024 196.426 165.228 195.984 165.296C195.916 170.294 196.494 175.292 199.554 177.655C199.809 177.893 199.928 177.893 200.098 177.587C200.353 177.145 200.761 176.261 201.016 175.547L201.22 175.598L200.863 178.352C201.424 179.219 201.509 179.661 201.271 179.899C200.625 180.579 199.367 179.95 198.602 179.287C194.998 176.193 194.284 170.77 194.267 164.582ZM197.021 165.041C201.067 165.092 200.234 167.914 198.721 167.183C198.398 166.486 197.548 165.636 196.868 165.177L197.021 165.041ZM189.473 171.756H191.088V177.808L189.473 178.012V171.756ZM185.954 178.114C187.467 177.859 191.054 177.094 194.811 176.244L194.862 176.482C193.196 177.247 190.85 178.233 187.433 179.491C187.348 179.712 187.195 179.865 187.025 179.916L185.954 178.114Z" fill="black"/>
<path d="M172.252 164.445C176.672 165.04 175.397 168.168 173.765 167.131C173.51 166.247 172.762 165.193 172.116 164.564L172.252 164.445ZM167.135 167.131V166.57L169.022 167.301H168.767V171.483C168.767 174.271 168.563 177.909 165.554 180.34L165.35 180.187C166.982 177.637 167.135 174.458 167.135 171.483V167.131ZM179.545 166.026C179.545 166.026 180.633 166.893 181.279 167.522C181.228 167.709 181.058 167.794 180.82 167.794H167.832V167.301H178.593L179.545 166.026ZM178.933 169.443C178.933 169.443 180.038 170.327 180.701 170.956C180.65 171.143 180.48 171.228 180.242 171.228H174.513V170.735H177.947L178.933 169.443ZM175.907 168.185C175.873 168.423 175.72 168.593 175.278 168.661V174.424H173.663V167.981L175.907 168.185ZM178.44 178.266V178.759H170.484V178.266H178.44ZM169.838 173.438L171.555 174.118H177.539L178.304 173.234L179.834 174.424C179.732 174.56 179.562 174.662 179.188 174.73V179.779C179.188 179.864 178.661 180.17 177.879 180.17H177.607V174.611H171.368V179.864C171.368 179.983 170.909 180.272 170.11 180.272H169.838V173.438Z" fill="black"/>
<path d="M154.453 169.019H153.008V165.908H154.453V169.019ZM157.156 165.857V169.053H155.728V165.857H157.156ZM156.357 174.816C156.357 174.816 157.241 175.53 157.768 176.04C157.717 176.227 157.564 176.312 157.326 176.312H152.668L152.532 175.819H155.592L156.357 174.816ZM146.31 175.309C146.531 175.309 146.599 175.309 146.769 174.952C147.075 174.323 147.075 174.323 149.914 167.234L150.203 167.302C149.591 169.478 148.435 173.473 148.231 174.374C148.095 174.952 147.993 175.53 148.01 175.972C148.027 176.822 148.639 177.519 148.588 178.981C148.554 179.78 148.095 180.307 147.364 180.307C147.024 180.307 146.684 180.035 146.599 179.44C146.888 177.689 146.803 176.176 146.412 175.921C146.191 175.751 145.919 175.7 145.579 175.666V175.309C145.579 175.309 146.123 175.309 146.31 175.309ZM145.324 168.56C149.387 168.968 148.248 171.926 146.718 170.957C146.497 170.141 145.8 169.223 145.171 168.679L145.324 168.56ZM146.616 164.701C150.798 165.262 149.642 168.254 148.112 167.268C147.891 166.401 147.109 165.415 146.463 164.82L146.616 164.701ZM150.356 168.067L152.022 168.713H158.363L159.128 167.812L160.658 169.019C160.539 169.172 160.335 169.308 159.961 169.359V179.661C159.961 179.746 159.417 180.103 158.686 180.103H158.448V169.206H151.818V179.78C151.818 179.882 151.359 180.205 150.611 180.205H150.356V168.067ZM154.453 170.515C154.436 171.858 154.215 173.677 151.835 174.816L151.648 174.595C153.059 173.354 153.195 171.824 153.195 170.515V168.934H154.453V170.515ZM156.969 169.019C156.969 169.206 156.969 169.376 156.969 169.512V172.487C156.969 172.674 157.003 172.725 157.224 172.725H157.717C157.904 172.725 158.091 172.725 158.176 172.725C158.261 172.725 158.38 172.725 158.431 172.708C158.516 172.708 158.652 172.674 158.754 172.657H158.89L158.958 172.674C159.315 172.793 159.451 172.912 159.451 173.167C159.451 173.643 159.009 173.83 157.581 173.83H156.833C155.864 173.83 155.728 173.541 155.728 172.776V169.019H156.969ZM159.213 178.199V178.692H151.121V178.199H159.213ZM159.349 164.497C159.349 164.497 160.403 165.296 161.015 165.874C160.964 166.061 160.794 166.146 160.573 166.146H149.88L149.744 165.653H158.465L159.349 164.497Z" fill="black"/>
<path d="M133.22 180.885H132.54V163.885H133.22V180.885Z" fill="#931F1C"/>
<path d="M118.855 167.421C118.855 167.421 119.875 168.237 120.47 168.832C120.436 169.019 120.266 169.104 120.028 169.104H115.455V168.611H117.954L118.855 167.421ZM111.817 171.943L113.568 172.623H117.529L118.311 171.705L119.892 172.929C119.773 173.065 119.603 173.167 119.229 173.235V179.712C119.229 179.797 118.668 180.12 117.886 180.12H117.597V173.116H113.364V179.848C113.364 179.984 112.888 180.273 112.089 180.273H111.817V171.943ZM116.917 164.701C116.883 164.939 116.73 165.109 116.288 165.177V172.878H114.707V164.497L116.917 164.701ZM118.09 178.437V178.93H112.786V178.437H118.09ZM106.768 164.531C110.695 166.18 109.08 169.104 107.652 167.812C107.567 166.758 107.04 165.5 106.581 164.616L106.768 164.531ZM111.579 170.192C111.511 170.396 111.341 170.549 110.933 170.549C110.423 172.402 109.454 175.275 108.519 177.468H108.23C108.655 175.139 109.131 171.858 109.386 169.58L111.579 170.192ZM105.68 169.801C109.42 173.847 107.244 177.145 106.309 175.564C106.326 174.187 106.207 171.688 105.442 169.903L105.68 169.801ZM104.643 177.553C105.816 177.349 108.672 176.686 111.545 175.972L111.596 176.193C110.338 176.856 108.519 177.825 105.935 178.981C105.867 179.185 105.714 179.355 105.527 179.406L104.643 177.553ZM110.729 167.183C110.729 167.183 111.766 168.101 112.327 168.713C112.276 168.9 112.123 168.985 111.885 168.985H104.813L104.677 168.492H109.845L110.729 167.183Z" fill="black"/>
<path d="M86.9121 168.917L87.3371 169.172V178.641H87.4561L86.8611 179.44L85.0081 178.454C85.2291 178.216 85.6541 177.927 85.9431 177.825L85.6371 178.437V168.917H86.9121ZM87.9661 168.628C87.9321 168.883 87.7621 169.053 87.3371 169.121V169.699H85.6371V168.39L87.9661 168.628ZM99.7471 168.611C99.7131 168.849 99.5771 169.019 99.1181 169.087V179.746C99.1181 179.933 98.3871 180.29 97.7411 180.29H97.4181V168.373L99.7471 168.611ZM93.8141 165.075C93.7801 165.33 93.6441 165.483 93.2021 165.551V178.403H91.4681V164.854L93.8141 165.075ZM98.2511 178.148V178.641H86.3681V178.148H98.2511Z" fill="black"/>
<path d="M77.817 173.184V173.677H66.155V173.184H77.817ZM77.12 168.169L77.953 167.268L79.704 168.611C79.602 168.747 79.347 168.883 79.007 168.951V174.646C78.99 174.765 78.14 175.105 77.579 175.105H77.29V168.169H77.12ZM67.005 174.765C67.005 174.935 66.291 175.326 65.577 175.326H65.322V167.421L67.158 168.169H77.715V168.662H67.005V174.765ZM73.618 164.735C73.584 164.973 73.448 165.143 73.006 165.211V179.661C73.006 179.865 72.275 180.29 71.612 180.29H71.289V164.497L73.618 164.735Z" fill="black"/>
<path d="M48.951 170.498H58.267L58.93 169.495C58.93 169.495 59.695 170.209 60.12 170.719C60.086 170.906 59.933 170.991 59.712 170.991H49.087L48.951 170.498ZM49.189 166.435H57.06L57.995 165.194C57.995 165.194 59.049 166.044 59.695 166.656C59.644 166.843 59.474 166.928 59.236 166.928H49.3251L49.189 166.435ZM53.184 164.565L55.3601 164.786C55.326 165.024 55.19 165.194 54.765 165.245V179.185L53.184 178.556V164.565ZM50.056 168.339H57.23V168.832H50.209L50.056 168.339ZM49.937 172.776H57.3321V173.269H50.09L49.937 172.776ZM56.669 168.339H56.4991L57.2471 167.574L58.7771 168.73C58.6751 168.849 58.454 168.985 58.1651 169.036V173.422C58.148 173.541 57.417 173.881 56.907 173.881H56.669V168.339ZM54 175.326H56.295L57.196 174.17C57.196 174.17 58.2161 174.969 58.8451 175.547C58.7941 175.734 58.624 175.819 58.386 175.819H54V175.326ZM50.056 174L52.266 174.391C52.215 174.629 52.0281 174.782 51.6371 174.799C51.0761 177.587 49.869 179.304 47.9991 180.307L47.778 180.12C49.104 178.675 49.937 176.618 50.056 174ZM51.008 175.785C52.011 177.927 53.66 178.335 56.618 178.335C57.4 178.335 59.202 178.335 60.086 178.318V178.522C59.593 178.641 59.355 179.185 59.355 179.831C58.726 179.831 57.213 179.831 56.5331 179.831C53.4051 179.831 51.7561 179.066 50.8041 175.87L51.008 175.785ZM44.055 168.458H47.914L48.6791 167.234C48.6791 167.234 49.546 168.101 50.022 168.679C49.971 168.866 49.818 168.951 49.58 168.951H44.191L44.055 168.458ZM46.197 164.497L48.373 164.701C48.322 164.956 48.152 165.126 47.744 165.177V178.284C47.744 179.457 47.523 180.12 45.704 180.307C45.653 179.797 45.5851 179.406 45.3811 179.168C45.1431 178.913 44.82 178.743 44.14 178.624V178.369C44.14 178.369 45.551 178.471 45.84 178.471C46.112 178.471 46.197 178.403 46.197 178.165V164.497ZM43.8 173.082C44.752 172.861 47.2341 172.164 49.6311 171.416L49.699 171.637C48.645 172.317 47.0641 173.337 44.9221 174.527C44.8711 174.748 44.718 174.918 44.531 174.986L43.8 173.082Z" fill="black"/>
<path d="M27.684 174.374C29.843 177.128 34.807 178.199 39.737 178.42L39.72 178.624C39.023 178.811 38.598 179.355 38.445 180.154C33.566 179.525 29.503 178.012 27.463 174.578L27.684 174.374ZM34.824 174.289L35.912 173.405L37.425 174.867C37.289 175.037 37.102 175.071 36.626 175.088C33.923 178.097 29.367 179.746 23.893 180.256L23.808 179.984C28.619 179.032 33.022 177.145 35.045 174.289H34.824ZM35.963 174.289V174.782H24.556L24.403 174.289H35.963ZM34.705 164.463C37.952 164.973 36.728 167.353 35.538 166.418C35.47 165.772 35.011 165.007 34.535 164.582L34.705 164.463ZM27.446 164.48C30.693 164.973 29.486 167.353 28.279 166.435C28.228 165.789 27.752 165.024 27.276 164.599L27.446 164.48ZM27.752 165.143C27.667 165.33 27.463 165.483 27.106 165.449C26.307 167.132 25.168 168.56 23.961 169.461L23.723 169.291C24.573 168.152 25.406 166.333 25.916 164.48L27.752 165.143ZM34.756 165.092C34.705 165.296 34.501 165.432 34.127 165.415C33.413 167.081 32.393 168.475 31.203 169.359L30.982 169.189C31.764 168.05 32.495 166.299 32.886 164.48L34.756 165.092ZM36.473 166.792V172.725H35.13V166.792H36.473ZM33.651 173.354C33.651 173.456 33.209 173.813 32.495 173.813H32.257V167.506L33.124 166.248L33.872 166.554H33.651V173.354ZM38.139 171.552C38.139 171.552 38.989 172.198 39.499 172.708C39.448 172.895 39.295 172.98 39.057 172.98H32.971V172.487H37.425L38.139 171.552ZM37.714 169.716C37.714 169.716 38.445 170.294 38.887 170.753C38.853 170.94 38.683 171.025 38.462 171.025H32.971V170.532H37.068L37.714 169.716ZM37.714 167.71C37.714 167.71 38.428 168.288 38.87 168.747C38.836 168.934 38.683 169.019 38.445 169.019H32.971V168.526H37.068L37.714 167.71ZM37.901 165.704C37.901 165.704 38.7 166.299 39.21 166.775C39.176 166.962 39.006 167.047 38.785 167.047H32.954V166.554H37.187L37.901 165.704ZM29.18 166.792V172.725H27.871V166.792H29.18ZM26.528 173.422C26.528 173.524 26.086 173.864 25.389 173.864H25.151V167.574L26.035 166.265L26.732 166.554H26.528V173.422ZM30.642 171.586C30.642 171.586 31.458 172.215 31.951 172.708C31.9 172.895 31.747 172.98 31.509 172.98H25.848V172.487H29.928L30.642 171.586ZM30.285 169.699C30.285 169.699 30.999 170.26 31.424 170.702C31.373 170.889 31.237 170.974 31.016 170.974H25.848V170.481H29.656L30.285 169.699ZM30.285 167.71C30.285 167.71 30.982 168.271 31.424 168.713C31.373 168.9 31.22 168.985 30.999 168.985H25.848V168.492H29.656L30.285 167.71ZM30.404 165.704C30.404 165.704 31.203 166.316 31.713 166.775C31.662 166.962 31.509 167.047 31.271 167.047H25.797V166.554H29.707L30.404 165.704Z" fill="black"/>
<path d="M11.84 180.885H11.16V163.885H11.84V180.885Z" fill="#931F1C"/>
<path d="M126.452 234.449L124.436 236.466L126.452 238.482L128.468 236.466L126.452 234.449Z" fill="black"/>
<path d="M122.173 233.458C122.173 233.177 122.241 232.888 122.377 232.62L123.794 229.913C123.488 230.5 123.518 231.173 123.816 231.713C122.973 231.913 122.322 232.599 122.168 233.458H122.173ZM130.715 233.458C130.715 233.177 130.647 232.888 130.51 232.62L129.093 229.913C129.4 230.5 129.37 231.173 129.072 231.713C129.914 231.913 130.566 232.599 130.719 233.458H130.715Z" fill="#A20000"/>
<path d="M126.442 234.446L124.424 236.463L122.696 234.735C122.356 234.395 122.168 233.931 122.168 233.458C122.317 232.599 122.973 231.913 123.816 231.713C123.901 231.867 124.007 232.011 124.135 232.139L126.442 234.446ZM129.068 231.713C128.982 231.867 128.876 232.011 128.748 232.139L126.442 234.446L128.459 236.463L130.187 234.735C130.527 234.395 130.715 233.931 130.715 233.458C130.566 232.599 129.91 231.913 129.068 231.713ZM129.089 229.913C128.782 229.326 128.208 228.964 127.595 228.904C127.216 228.866 126.833 228.845 126.442 228.845C126.05 228.845 125.667 228.866 125.288 228.904C124.675 228.964 124.101 229.326 123.794 229.913C123.488 230.5 123.518 231.173 123.816 231.713C123.977 231.675 124.148 231.654 124.322 231.654H128.561C128.736 231.654 128.906 231.675 129.068 231.713C129.365 231.173 129.395 230.5 129.089 229.913Z" fill="#E40012"/>
<path d="M134.502 242.506L132.485 244.523L130.468 242.51L132.485 240.493L134.498 242.506H134.502ZM126.441 246.537C125.331 247.647 123.526 247.652 122.411 246.537C124.637 248.762 128.246 248.762 130.472 246.537C129.361 247.647 127.556 247.647 126.441 246.537ZM122.411 238.476C120.185 240.702 120.185 244.311 122.411 246.537C121.3 245.421 121.3 243.617 122.411 242.506C121.3 241.395 121.3 239.591 122.411 238.476Z" fill="#002063"/>
<path d="M134.502 242.506L132.489 240.493L135.06 237.922L137.073 239.94L134.502 242.51V242.506ZM128.459 236.458L126.446 238.471L130.476 242.502L132.494 240.485L128.463 236.454L128.459 236.458ZM139.09 247.09L134.502 242.502L132.485 244.519L135.056 247.09H139.086H139.09ZM122.411 246.537C123.522 247.648 125.326 247.648 126.441 246.537L122.411 242.506C121.3 243.617 121.3 245.422 122.411 246.537ZM130.472 242.506L126.441 246.537C127.552 247.648 129.357 247.648 130.472 246.537L132.485 244.524L130.472 242.506ZM124.428 236.458L122.415 238.471C121.304 239.587 121.304 241.387 122.415 242.502L126.446 238.471L124.428 236.458Z" fill="#004096"/>
<path d="M236.648 241.213C237.805 241.213 238.414 241.23 239.15 241.276V240.289C238.414 240.332 237.805 240.353 236.648 240.353H232.834V239.234H236.026C237.184 239.234 237.797 239.251 238.529 239.297V238.31C237.793 238.353 237.184 238.374 236.026 238.374H233.068V237.352H234.932C236.09 237.352 236.699 237.369 237.435 237.416V236.429C236.699 236.471 236.09 236.493 234.932 236.493H233.068V235.535H234.932C236.09 235.535 236.699 235.552 237.435 235.599V234.611C236.699 234.654 236.09 234.675 234.932 234.675H233.068V234.352C233.068 234.126 233.068 233.918 233.068 233.718H235.724C236.882 233.718 237.49 233.735 238.227 233.782V232.794C237.49 232.837 236.882 232.858 235.724 232.858H233.077C233.09 232.194 233.111 231.649 233.145 231.092H231.319C231.353 231.649 231.374 232.198 231.387 232.858H228.493C228.906 232.381 229.306 231.871 229.672 231.343L228.055 230.819C228.055 230.819 226.825 233.799 224.237 235.795L224.778 236.395C224.778 236.395 225.582 235.778 226.625 234.799C226.629 235.165 226.633 235.565 226.633 236.024C226.633 237.48 226.608 238.365 226.557 239.289L226.616 239.272L226.557 239.306C227.293 239.263 227.901 239.242 229.059 239.242H231.166V240.361H227.331C226.174 240.361 225.561 240.344 224.829 240.298V241.285C225.565 241.242 226.174 241.221 227.331 241.221H229.872C229.123 242.098 227.378 243.822 224.671 244.562L225.114 245.337C225.114 245.337 228.663 244.264 231.166 242.115V242.404C231.166 243.86 231.14 244.745 231.089 245.669H232.915C232.86 244.745 232.839 243.86 232.839 242.404V241.762C235.733 244.554 238.52 245.192 238.52 245.192L239.359 243.736C235.899 243.026 234.128 241.779 233.477 241.217H236.648V241.213ZM231.404 236.484H228.302V235.527H231.404V236.484ZM231.404 234.335V234.658H228.302V233.701H231.4C231.4 233.901 231.4 234.109 231.4 234.335H231.404ZM228.302 238.37V237.348H231.404V238.37H228.302ZM168.755 235.148C169.802 235.156 170.547 235.182 171.317 235.224V233.948C170.547 233.994 169.802 234.016 168.755 234.024C168.764 232.905 168.785 232.134 168.832 231.334H166.878C166.925 232.134 166.951 232.909 166.955 234.028H162.537C162.545 232.909 162.567 232.134 162.614 231.334H160.66C160.707 232.134 160.732 232.909 160.737 234.028C159.468 234.028 158.638 233.999 157.774 233.948V235.224C158.638 235.173 159.468 235.148 160.732 235.143C160.715 236.25 160.652 238.778 160.579 239.923H160.49C158.996 239.923 158.094 239.898 157.145 239.842V241.119C158.081 241.064 158.975 241.038 160.43 241.038C160.047 242.97 159.068 244.064 157.328 244.724L157.928 245.652C158.936 245.077 160.205 244.405 161.018 243.43C161.592 242.741 161.967 241.872 162.179 241.042H166.955V242.145C166.955 243.639 166.929 244.541 166.874 245.49H168.827C168.772 244.541 168.747 243.639 168.747 242.145V241.042C170.087 241.042 170.947 241.068 171.841 241.123V239.846C170.947 239.898 170.087 239.923 168.747 239.927V235.152L168.755 235.148ZM162.38 239.923C162.482 238.795 162.528 236.842 162.537 235.143H166.959V239.923H162.375H162.38ZM146.023 233.513C144.53 233.513 143.627 233.539 142.678 233.594V232.134C143.627 232.19 144.53 232.215 146.023 232.215H151.126C152.62 232.215 153.523 232.19 154.472 232.134V233.594C153.523 233.539 152.62 233.513 151.126 233.513H146.023ZM152.012 243.519C153.506 243.519 154.408 243.494 155.357 243.439V244.898C154.408 244.843 153.506 244.818 152.012 244.818H145.138C143.644 244.818 142.742 244.843 141.793 244.898V243.439C142.742 243.494 143.644 243.519 145.138 243.519H152.012ZM187.46 239.851C186.928 240.417 186.686 240.825 186.303 241.455C183.945 239.702 182.477 238.055 181.63 235.914C182.025 235.663 182.285 235.475 182.621 235.135C183.643 237.071 185.26 238.74 187.46 239.851ZM184.379 231.913C185.873 231.913 186.775 231.888 187.724 231.832V233.109C186.775 233.054 185.873 233.028 184.379 233.028H181.379C181.37 233.505 181.362 234.037 181.362 234.684V242.145C181.362 243.639 181.387 244.541 181.442 245.49H179.574C179.629 244.541 179.655 243.639 179.655 242.145V236.918C178.574 238.71 176.863 240.204 174.194 241.459C174.028 241.11 173.884 240.851 173.692 240.519C177.093 238.936 178.655 236.284 179.233 233.028H176.974C175.48 233.028 174.577 233.054 173.628 233.109V231.832C174.577 231.888 175.48 231.913 176.974 231.913H184.379ZM201.812 231.339H199.858C199.905 232.134 199.931 232.901 199.935 234.007C199.343 233.999 198.875 233.982 198.386 233.952V234.965C198.875 234.935 199.343 234.918 199.935 234.909C199.922 235.969 199.833 239.583 199.739 240.361C199.556 241.919 199.054 242.992 198.186 243.758L198.122 243.285C196.849 243.413 195.875 243.515 194.951 243.609V242.647H195.347C196.53 242.647 197.16 242.668 197.913 242.711V241.698C197.16 241.74 196.534 241.762 195.347 241.762H194.951V240.727H195.215C196.398 240.727 197.164 240.749 197.918 240.791C197.875 240.081 197.879 238.795 197.879 238.331C197.879 237.208 197.879 236.582 197.918 235.871C197.164 235.914 196.398 235.935 195.215 235.935H194.951V234.905H195.445C196.628 234.905 197.258 234.926 198.011 234.969V233.956C197.258 233.999 196.632 234.02 195.445 234.02H194.951V232.815C196.019 232.705 197.045 232.543 197.922 232.322L197.462 231.007C195.59 231.785 192.555 232.249 190.295 232.313L190.338 233.045C191.278 233.045 192.338 233.015 193.41 232.947V234.024H192.942C191.759 234.024 191.04 234.003 190.286 233.96V234.973C191.04 234.931 191.755 234.909 192.942 234.909H193.41V235.939H193.176C191.993 235.939 191.176 235.918 190.423 235.876C190.465 236.586 190.461 237.216 190.461 238.336C190.461 238.799 190.461 240.085 190.423 240.796C191.176 240.753 191.989 240.732 193.176 240.732H193.41V241.766H193.023C191.84 241.766 191.121 241.745 190.367 241.702V242.715C191.121 242.672 191.836 242.651 193.023 242.651H193.41V243.762C192.483 243.847 191.47 243.936 190.146 244.043L190.367 245.362C193.347 244.843 194.874 244.605 197.726 244.115C197.373 244.354 196.973 244.558 196.522 244.728L197.122 245.656C198.13 245.081 199.399 244.409 200.212 243.434C200.914 242.596 201.327 241.489 201.497 240.515C201.654 239.587 201.722 236.999 201.727 234.905H203.314C203.293 238.072 203.199 241.698 202.944 243.23C202.748 244.409 202.706 244.451 201.735 244.273C201.433 244.217 201.131 244.154 200.918 244.107C200.85 244.473 200.799 244.715 200.722 245.009C201.318 245.179 202.676 245.524 203.297 245.49C203.842 245.46 204.242 245.158 204.412 244.26C204.744 242.489 204.889 236.663 204.889 234.02H201.727C201.735 232.909 201.757 232.139 201.803 231.343L201.812 231.339ZM194.951 239.889V238.736H195.215C195.679 238.736 196.083 238.736 196.449 238.744C196.449 239.212 196.449 239.625 196.441 239.88C196.079 239.885 195.675 239.889 195.215 239.889H194.951ZM195.215 236.757C195.67 236.757 196.075 236.757 196.436 236.765C196.441 237.067 196.445 237.472 196.445 237.897C196.079 237.901 195.675 237.906 195.215 237.906H194.951V236.757H195.215ZM193.415 236.757V237.906H193.181C192.708 237.906 192.283 237.906 191.9 237.897C191.9 237.472 191.904 237.071 191.908 236.765C192.287 236.761 192.712 236.757 193.181 236.757H193.415ZM193.181 239.889C192.717 239.889 192.287 239.889 191.908 239.88C191.904 239.625 191.9 239.212 191.9 238.744C192.283 238.736 192.708 238.736 193.181 238.736H193.415V239.889H193.181ZM150.216 237.633C151.71 237.633 152.612 237.608 153.561 237.552V239.012C152.612 238.957 151.71 238.931 150.216 238.931H146.93C145.436 238.931 144.534 238.957 143.585 239.012V237.552C144.534 237.608 145.436 237.633 146.93 237.633H150.216ZM248.156 234.837C248.156 235.003 248.16 235.178 248.165 235.361H247.999C246.543 235.361 245.658 235.335 244.734 235.284C244.79 235.761 244.811 236.216 244.811 236.969C244.811 237.723 244.785 238.178 244.734 238.655C245.658 238.599 246.543 238.578 247.999 238.578H248.169V239.28C245.407 239.327 244.194 239.195 244.194 239.195L244.462 240.387C247.479 240.229 249.667 240.098 252.17 239.8C252.604 240.272 252.893 240.698 252.893 240.698L253.923 239.859C253.051 239.17 252.357 238.782 252.004 238.604C252.387 238.616 252.74 238.633 253.097 238.655C253.042 238.178 253.021 237.723 253.021 236.969C253.021 236.216 253.046 235.761 253.097 235.284C252.174 235.339 251.289 235.361 249.833 235.361H249.62C249.62 235.178 249.624 235.003 249.629 234.837H250.608C252.063 234.837 252.948 234.863 253.872 234.914V233.952C252.948 234.007 252.063 234.028 250.608 234.028H249.65C249.663 233.73 249.675 233.445 249.692 233.156H248.092C248.109 233.445 248.122 233.73 248.135 234.028H247.364C245.909 234.028 245.024 234.003 244.1 233.952V234.914C245.024 234.858 245.909 234.837 247.364 234.837H248.156ZM248.169 236.105C248.169 236.212 248.169 236.314 248.169 236.425V236.574H246.19V236.101H248.169V236.105ZM246.19 237.833V237.318H248.169V237.833H246.19ZM251.637 237.833H249.612V237.318H251.637V237.833ZM251.54 239.204C251.161 239.217 250.535 239.229 249.616 239.251V238.574H249.833C250.522 238.574 251.084 238.578 251.582 238.591L251.118 238.889C251.263 238.978 251.403 239.089 251.544 239.2L251.54 239.204ZM251.637 236.105V236.578H249.612V236.429C249.612 236.318 249.612 236.212 249.612 236.11H251.633L251.637 236.105ZM254.017 241.808C253.297 241.766 252.599 241.74 251.642 241.732V243.226C251.642 243.839 251.489 244.315 250.957 244.345C250.348 244.375 249.697 244.222 248.339 244.03L248.194 243.251L249.229 243.366C250.076 243.456 250.195 243.375 250.195 243.085V241.728H247.254C246.849 241.728 246.492 241.728 246.164 241.732C247.33 242.166 248.36 242.77 248.36 242.77L247.424 243.834C246.428 242.677 245.364 242.187 245.364 242.187L245.773 241.74C245.1 241.753 244.551 241.774 243.985 241.808V240.847C244.909 240.902 245.794 240.923 247.25 240.923H250.178C250.165 240.664 250.144 240.447 250.114 240.225H251.714C251.684 240.447 251.663 240.664 251.65 240.919C252.599 240.91 253.293 240.885 254.012 240.842V241.804L254.017 241.808ZM256 245.567C255.945 244.643 255.923 243.736 255.923 242.281V235.22C255.923 233.765 255.949 232.735 256 231.807C255.076 231.862 254.191 231.883 252.736 231.883H245.224C243.768 231.883 242.883 231.858 241.959 231.807C242.015 232.73 242.036 233.76 242.036 235.22V242.281C242.036 243.736 242.01 244.643 241.959 245.567C242.883 245.511 243.768 245.49 245.224 245.49H252.736C254.191 245.49 255.076 245.515 256 245.567ZM243.738 244.52C243.713 243.915 243.704 243.26 243.704 242.281V235.22C243.704 234.224 243.717 233.505 243.738 232.854H254.255V244.52H243.738ZM217.887 244.039C218.398 244.039 221.049 244.013 221.998 243.958V245.06C221.049 245.005 218.398 244.979 217.887 244.979H213.818C213.307 244.979 210.656 245.005 209.707 245.06V243.958C210.656 244.013 213.307 244.039 213.818 244.039H214.95V242.519C214.218 242.519 212.167 242.549 211.294 242.6V241.498C212.163 241.549 214.218 241.574 214.95 241.579V240.059C214.474 240.059 213.005 240.076 211.967 240.11C211.656 240.681 211.248 241.238 210.724 241.821L209.979 241.37C210.792 240.315 211.201 238.833 211.26 237.629H212.724C212.669 238.148 212.563 238.625 212.414 239.076C213.388 239.102 214.533 239.114 214.946 239.114C214.938 238.297 214.916 238.425 214.869 237.629H216.836C216.789 238.425 216.763 238.297 216.759 239.114C217.376 239.114 219.87 239.089 220.794 239.034V240.136C219.875 240.081 217.372 240.055 216.759 240.055V241.574C217.491 241.574 219.543 241.549 220.415 241.506V242.6C219.547 242.541 217.491 242.523 216.759 242.519V244.039H217.891H217.887ZM211.516 237.11H218.555C220.049 237.11 220.951 237.135 221.9 237.191V236.152C221.185 236.195 220.5 236.22 219.564 236.229L220.045 235.675C219.343 235.284 218.576 234.948 217.806 234.658C218.696 234.288 219.432 233.918 220.092 233.603L219.853 233.36C220.547 233.373 221.117 233.394 221.696 233.428V232.39C220.747 232.445 219.845 232.471 218.351 232.471H215.98C215.993 231.99 216.014 231.564 216.04 231.126H214.086C214.112 231.56 214.133 231.99 214.146 232.471H211.839C210.345 232.471 209.443 232.445 208.494 232.39V233.428C209.29 233.381 210.06 233.356 211.167 233.352L210.809 233.892C210.809 233.892 212.388 234.101 214.418 234.667C212.946 235.029 211.528 235.254 210.273 235.458L210.707 236.237C209.69 236.229 208.992 236.203 208.234 236.161C208.328 238.838 208.345 242.787 206.583 245.039L207.319 245.66C209.443 243.345 209.971 241.621 209.983 237.131C210.43 237.123 210.924 237.118 211.516 237.118V237.11ZM212.937 233.343H218.317C217.632 233.654 216.942 233.909 216.257 234.135C215.006 233.76 213.827 233.505 212.937 233.343ZM218.615 236.233C218.615 236.233 218.576 236.233 218.555 236.233H211.89C213.661 235.982 215.078 235.624 216.257 235.237C217.044 235.518 217.849 235.846 218.619 236.233H218.615Z" fill="black"/>
<path d="M12.9026 238.651C12.9026 236.22 14.1837 234.097 16.1074 232.905V228.845H10V248.206H16.1074V244.396C14.1837 243.205 12.9026 241.077 12.9026 238.651Z" fill="#1226AA"/>
<path d="M23.2023 228.845V232.905C25.126 234.092 26.4113 236.22 26.4113 238.651C26.4113 241.081 25.1303 243.205 23.2023 244.396V248.206H29.3097V228.845H23.2023Z" fill="#1226AA"/>
<path d="M19.657 231.896C18.3546 231.896 17.1416 232.267 16.1074 232.905V244.397C16.1074 244.397 16.1202 244.405 16.1287 244.409L16.1031 244.435L19.674 247.959L21.6871 245.835L17.4991 241.447C16.7416 240.826 16.2564 239.881 16.2564 238.821C16.2564 236.944 17.7758 235.42 19.6527 235.42C21.5296 235.42 23.0533 236.94 23.0533 238.821C23.0533 240.702 21.5296 242.222 19.6527 242.222C19.2697 242.222 18.9036 242.154 18.5589 242.039L21.5211 245.141L21.9254 245.567L23.0746 244.469C23.1171 244.448 23.1554 244.426 23.198 244.401V232.905C22.168 232.267 20.9508 231.896 19.6527 231.896H19.657Z" fill="#1226AA"/>
<path d="M38.456 237.148H44.0145C44.3549 236.314 44.6231 235.45 44.8146 234.552L46.2574 235.033C46.4276 235.075 46.5128 235.143 46.5128 235.241C46.5128 235.36 46.3893 235.488 46.1425 235.624C45.9935 236.169 45.8318 236.675 45.6615 237.148H53.1905V238.493H45.1338C44.7508 239.369 44.3422 240.102 43.9166 240.689C42.9675 242.076 41.5034 243.408 39.5286 244.677L38.2645 243.634C39.32 243.025 40.2095 242.408 40.9246 241.774C41.8311 240.983 42.5972 240.029 43.2143 238.906C43.2867 238.757 43.359 238.616 43.4229 238.488H38.456V237.144V237.148ZM45.0529 231.155L46.5128 231.283C46.7809 231.296 46.9128 231.368 46.9128 231.509C46.9128 231.594 46.8064 231.721 46.5936 231.892V232.981H52.7138V236.024H51.2412V234.326H40.3457V236.024H38.8731V232.981H45.0572V231.155H45.0529ZM46.4659 239.101L47.8917 239.663C48.096 239.727 48.1982 239.808 48.1982 239.901C48.1982 239.978 48.0705 240.093 47.8151 240.255C47.2405 241.302 46.5 242.451 45.6062 243.698C47.1341 243.528 48.6238 243.34 50.0751 243.136C49.6367 242.54 49.1813 241.995 48.7131 241.502L49.7857 240.638C50.9603 241.77 52.118 243.217 53.2629 244.979L51.9009 245.894C51.603 245.383 51.3008 244.89 51.0029 244.421C49.0919 244.741 46.2829 245.158 42.5759 245.673C42.4567 245.864 42.3376 245.962 42.2056 245.962C42.0737 245.962 42.0099 245.881 41.9971 245.724L41.597 244.043C42.3461 243.987 43.0909 243.932 43.84 243.868C44.2783 243.251 44.6444 242.681 44.9465 242.17C45.5637 241.136 46.0744 240.114 46.4702 239.11L46.4659 239.101Z" fill="#222222"/>
<path d="M59.3447 231.283C59.9107 231.636 60.464 232.092 61.0088 232.645L60.2257 233.173H63.5241L64.8052 231.155L65.9586 231.747C66.1203 231.832 66.2012 231.909 66.2012 231.972C66.2012 232.1 66.0948 232.211 65.882 232.309L65.1925 233.173H68.5079V234.39H64.4689V237.752H65.4776L66.6012 235.19L67.6908 235.735C67.8525 235.82 67.9291 235.897 67.9291 235.96C67.9291 236.088 67.827 236.194 67.6227 236.28L66.8864 237.752H69.4187V239.033H55.178V237.752H57.4039C57.1783 237.046 56.9059 236.39 56.5867 235.782L58.0764 235.509C58.3743 236.216 58.6424 236.961 58.8765 237.752H59.7915V234.39H56.076V233.173H59.4383C59.0765 232.768 58.702 232.415 58.3189 232.117L59.3447 231.283ZM57.4848 239.744H67.2269V245.894H65.8181V245.413H58.8978V245.894H57.489V239.744H57.4848ZM58.8978 242.051H65.8181V241.025H58.8978V242.051ZM58.8978 244.196H65.8181V243.204H58.8978V244.196ZM61.2173 237.756H63.0602V234.394H61.2173V237.756Z" fill="#222222"/>
<path d="M76.7732 232.117H79.8163V231.219L81.208 231.329C81.4634 231.351 81.591 231.427 81.591 231.555C81.591 231.64 81.4889 231.764 81.2889 231.925V232.117H84.7192V234.296H86.1918V235.577H84.7192V237.756H81.2889V238.782H84.9108V240.063H81.2889V241.054H85.2938V242.399H81.2889V244.225C82.1656 244.259 83.1487 244.272 84.2383 244.272C84.749 244.272 85.4002 244.255 86.1918 244.225L85.4853 245.826C82.6125 245.826 80.3951 245.74 78.8374 245.57C77.5776 245.442 76.5476 245.234 75.7475 244.945C75.1389 244.74 74.5983 244.485 74.1302 244.174C73.5939 244.923 72.9385 245.536 72.1596 246.017L71.0701 244.847C71.8276 244.464 72.4575 243.927 72.9598 243.246C72.449 242.714 71.8957 241.906 71.3084 240.829L72.5086 240.382C72.947 241.033 73.3471 241.557 73.7088 241.953C74.1046 241.046 74.3557 239.786 74.4621 238.173H73.1981L72.6363 239.292L71.3212 238.829L73.8195 233.56H71.385V232.215H74.1089L74.526 232.07C74.6664 232.07 74.7984 232.117 74.9261 232.215L75.7262 232.776C75.8241 232.853 75.8709 232.925 75.8709 233.002C75.8709 233.142 75.7602 233.279 75.5347 233.419L73.8706 236.832H75.8752C75.79 239.471 75.4836 241.425 74.9601 242.697C74.9261 242.774 74.892 242.842 74.8494 242.906C75.5432 243.353 76.3476 243.668 77.2669 243.851C77.8329 243.991 78.6799 244.098 79.812 244.17V242.408H75.8709V241.063H79.812V240.071H76.3859V238.79H79.812V237.765H76.7689V236.483H79.812V235.585H75.424V234.304H79.812V233.423H76.7689V232.125L76.7732 232.117ZM81.2931 233.415V234.296H83.3105V233.415H81.2931ZM81.2931 235.577V236.475H83.3105V235.577H81.2931Z" fill="#222222"/>
<path d="M87.7327 233.657H93.6273V234.939H87.7327V233.657ZM88.0859 240.544H93.2783V245.766H91.9334V244.966H89.4351V245.894H88.0902V240.544H88.0859ZM88.3072 235.994H92.9846V237.211H88.3072V235.994ZM88.3072 238.173H92.9846V239.39H88.3072V238.173ZM88.3711 231.444H92.9208V232.662H88.3711V231.444ZM89.4308 243.749H91.9291V241.761H89.4308V243.749ZM95.0361 231.508H99.7773V235.002C99.7773 235.513 99.8497 235.773 100.003 235.773H100.867C100.952 235.773 101.029 235.717 101.092 235.611C101.156 235.483 101.233 234.981 101.318 234.104L102.663 234.602C102.429 235.705 102.169 236.386 101.893 236.654C101.595 236.922 101.165 237.054 100.611 237.054H99.8752C98.8708 237.054 98.3686 236.484 98.3686 235.339V232.725H96.415C96.3597 233.9 96.2107 234.773 95.9681 235.339C95.6787 236.024 95.1935 236.722 94.5126 237.437L93.3762 236.522C94.0274 235.956 94.4657 235.411 94.6913 234.887C94.9254 234.441 95.0446 233.313 95.0446 231.508H95.0361ZM94.5892 238.075H99.8922C100.097 237.935 100.207 237.867 100.228 237.867C100.348 237.867 100.454 237.922 100.548 238.028L101.318 238.748C101.403 238.833 101.446 238.931 101.446 239.037C101.446 239.144 101.301 239.275 101.012 239.437C100.403 241.22 99.7177 242.523 98.9601 243.344C99.8582 243.783 101.05 244.157 102.531 244.464L101.586 245.889C100.05 245.485 98.7942 244.974 97.8195 244.366C96.9428 244.974 95.8319 245.481 94.487 245.889L93.4954 244.574C94.4657 244.361 95.2446 244.119 95.8362 243.855C96.1256 243.727 96.381 243.583 96.6065 243.421C95.8788 242.736 95.1212 241.757 94.3296 240.471L95.3553 239.799C96.1128 241.008 96.9002 241.923 97.7089 242.553C97.828 242.425 97.9344 242.289 98.0281 242.153C98.5175 241.531 98.9729 240.599 99.39 239.348H94.5849V238.067L94.5892 238.075Z" fill="#222222"/>
</svg>
