<svg width="283" height="130" viewBox="0 0 283 130" fill="none" xmlns="http://www.w3.org/2000/svg">
<path d="M49.7947 26.799C49.581 26.799 49.4101 26.7397 49.2904 26.6297C49.1623 26.5113 49.1024 26.3843 49.1024 26.232C49.2392 24.3789 49.3246 22.3226 49.3674 20.0633V16.6785C48.4614 17.3132 47.4358 17.914 46.2991 18.4894L46.0085 18.1763C47.2222 17.3555 48.3418 16.467 49.3674 15.5108V14.1653C49.3674 13.6492 49.3417 13.1584 49.2819 12.7014L51.3075 13.6238C52.3501 12.4983 53.1621 11.5421 53.7432 10.7552H51.1622C49.7862 10.7721 48.3418 10.9075 46.8119 11.1529L46.0598 9.71436C47.0427 9.83283 48.2392 9.90899 49.658 9.94284H51.3929V5.77957H50.034C49.2648 5.79649 48.4529 5.93188 47.5982 6.17728L46.8718 4.71337C47.7179 4.83183 48.7435 4.90799 49.94 4.94184H51.3929C51.3929 3.08868 51.2989 1.574 51.1023 0.40625C52.8373 0.829346 53.9227 1.1509 54.3501 1.37937C54.6748 1.574 54.6919 1.76016 54.3757 1.95478L53.88 2.26787V4.93338H54.8372L56.1107 3.07176C56.632 3.55408 57.1533 4.03641 57.6747 4.53567C58.3157 3.36792 58.7259 2.23403 58.9225 1.11705C60.4267 1.8617 61.3668 2.38634 61.7343 2.69943C62.0078 2.9279 61.9736 3.07176 61.6489 3.13099L61.0677 3.21561C59.8883 5.5511 58.4439 7.78505 56.7175 9.92591H58.1704L58.7772 8.97818C58.8199 8.91894 58.8798 8.82586 58.9823 8.69047C59.2729 8.25045 59.478 8.03044 59.5891 8.03044C59.7857 8.03044 60.2387 8.35199 60.948 8.9951C61.666 9.63821 62.0164 10.0613 62.0164 10.2729C61.9395 10.5775 61.6916 10.7298 61.2643 10.7298H56.0508C54.9654 11.9737 53.9227 13.023 52.9228 13.8861H56.4867L57.0337 13.0822C57.0679 13.023 57.1363 12.9384 57.2388 12.8199C57.5123 12.456 57.7003 12.2783 57.82 12.2783C58.0166 12.2783 58.4952 12.6083 59.2558 13.2684C60.0165 13.9284 60.4011 14.36 60.4011 14.5715C60.1703 14.8423 59.7943 15.0285 59.2729 15.1469V18.8194C59.3071 21.1887 59.3926 23.4396 59.5037 25.5635C59.3669 25.7328 59.0507 25.9189 58.5464 26.1051C58.0251 26.3167 57.5636 26.4182 57.1533 26.4182C56.8286 26.4182 56.6576 26.2236 56.6576 25.8428C56.6747 25.7243 56.6918 25.5635 56.7175 25.352C56.7346 25.1997 56.7517 25.0643 56.7773 24.9543V24.2096H51.7946V24.8104C51.8117 24.9797 51.8203 25.1828 51.8203 25.4112C51.8373 25.6228 51.8544 25.7751 51.8801 25.8682C51.8203 26.0797 51.6151 26.2828 51.2733 26.469C50.8459 26.6805 50.3588 26.7821 49.7947 26.7821V26.799ZM51.7946 18.5909H56.7773V14.69H52.0254L51.7946 14.8592V18.5909ZM51.7946 23.3888H56.7773V19.4286H51.7946V23.3888ZM53.88 9.92591H54.3415C55.4013 8.47046 56.2901 7.08271 57.0081 5.76265H53.88V9.92591ZM62.7514 26.9682C62.5377 26.9682 62.3582 26.909 62.2129 26.799C62.0677 26.6805 61.9993 26.5536 61.9993 26.4013C62.1702 23.9304 62.2813 21.451 62.3155 18.9379V7.03193C62.3155 4.62029 62.1873 2.65712 61.9395 1.1509L65.2128 2.72482H68.5204L69.187 2.00555C69.2468 1.94632 69.3237 1.8617 69.4178 1.74323C69.7425 1.42168 69.9647 1.25244 70.0844 1.25244C70.2553 1.25244 70.7425 1.64169 71.5373 2.42865C72.3322 3.21561 72.7253 3.7064 72.7253 3.91795C72.5116 4.14642 72.0843 4.26489 71.4519 4.26489C69.8451 7.40426 68.4434 9.78206 67.2469 11.4067C68.8109 12.456 69.9989 13.6661 70.8109 15.02C71.5031 16.2216 71.8535 17.4655 71.8535 18.7517C71.8535 20.241 71.5373 21.341 70.8963 22.0518C70.2211 22.8134 69.1015 23.2281 67.5375 23.2873C67.5375 22.2126 67.4178 21.5103 67.1871 21.1633C66.9392 20.8926 66.4264 20.6979 65.6487 20.5625V20.131H67.9135C68.187 20.131 68.4178 20.0718 68.6058 19.9618C69.1101 19.6571 69.3579 19.0309 69.3579 18.1001C69.3579 15.6885 68.4178 13.4799 66.5461 11.4744C67.2811 9.15588 67.9819 6.52422 68.6657 3.55408H64.8368V19.2509C64.871 21.6203 64.9564 23.8712 65.0675 25.9951C64.9137 26.2236 64.6658 26.4351 64.3154 26.6297C63.8283 26.8582 63.3069 26.9767 62.7514 26.9767V26.9682Z" fill="#B72724"/>
<path d="M78.5883 20.3251C78.0156 20.3928 77.5798 20.2151 77.2721 19.792C76.9986 19.4281 76.9217 19.0389 77.0413 18.6158C77.161 18.2519 77.4003 17.8965 77.7678 17.558C78.6139 16.8895 79.3233 15.8487 79.8873 14.4271C80.5027 12.8786 80.7933 11.237 80.7591 9.49381H81.1608C81.93 11.8124 82.1437 13.9194 81.8018 15.8318C81.5283 17.3634 80.9728 18.565 80.1181 19.445C79.6737 19.9612 79.1694 20.2574 78.5968 20.3166L78.5883 20.3251ZM88.3741 26.0538C86.887 26.0538 85.8871 25.8592 85.3914 25.4784C84.8529 25.0976 84.5794 24.3276 84.5794 23.1852V12.5655C84.5794 10.1538 84.4512 8.19067 84.2034 6.68445C86.0409 7.12447 87.1862 7.47141 87.6562 7.7168C87.981 7.88604 88.0066 8.0722 87.7161 8.25837L87.2204 8.57146V22.4321C87.2204 22.779 87.3229 23.0075 87.5366 23.1344C87.7502 23.2614 88.1605 23.3206 88.7844 23.3206H92.1176C93.6047 23.3206 94.5875 23.2952 95.0747 23.236C95.4593 23.219 95.7328 23.0583 95.8866 22.7452C96.1772 22.1867 96.6045 20.6382 97.1601 18.0996H97.4763L97.5618 22.9483C97.9891 23.1175 98.2797 23.2952 98.4335 23.4644C98.5874 23.6337 98.6643 23.8622 98.6643 24.1499C98.6643 24.8607 98.2284 25.343 97.3567 25.6138C96.3909 25.9015 94.5704 26.0453 91.9039 26.0453H88.3656L88.3741 26.0538ZM93.3996 7.24294C92.8868 7.73373 92.2629 7.76757 91.5279 7.34448C91.0663 6.40521 90.2971 5.42362 89.2374 4.39127C87.981 3.18968 86.5452 2.17424 84.9213 1.35344L84.9811 1.15035L85.0666 0.947266C87.7331 1.23497 89.8527 1.82731 91.4167 2.72427C92.6902 3.45199 93.485 4.30665 93.7927 5.27977C94.0406 6.10058 93.9124 6.76061 93.3996 7.24294ZM102.074 19.5127C101.416 19.9527 100.792 19.775 100.194 18.9712C100.194 17.4057 99.9463 15.8318 99.442 14.2663C98.8267 12.3116 97.9036 10.7208 96.69 9.47688L96.8951 9.18918C99.1343 10.2977 100.801 11.6431 101.878 13.234C102.75 14.5117 103.16 15.8149 103.126 17.1349C103.083 18.2857 102.741 19.0727 102.083 19.5127H102.074Z" fill="#B72724"/>
<path d="M117.8 18.5059C117.561 19.0813 117.074 19.2844 116.339 19.1067C115.877 18.5482 115.168 17.939 114.219 17.2705C113.33 16.6612 112.484 16.1704 111.672 15.8065L111.877 15.4935C113.852 15.3411 115.373 15.5527 116.458 16.1281C116.903 15.5696 117.33 14.9942 117.732 14.3765C117.381 14.4949 116.792 14.5711 115.963 14.605C115.963 14.1311 115.86 13.7757 115.646 13.5472C115.399 13.3018 114.903 13.1072 114.168 12.9718V12.5149C115.057 12.591 115.783 12.6333 116.339 12.6333C116.664 12.6333 116.911 12.5572 117.065 12.4049C117.202 12.2864 117.33 12.0833 117.441 11.7702H111.561C111.544 11.8887 111.51 12.0579 111.476 12.2864C111.416 12.591 111.373 12.8195 111.33 12.9718C110.792 13.2595 110.057 13.2764 109.125 13.031C109.416 11.7871 109.715 10.3909 110.023 8.84239H109.356C109.048 8.85931 108.741 8.9947 108.433 9.24856L107.707 7.78465C108.168 7.90311 108.732 7.97927 109.39 8.01312H110.177C110.296 7.40386 110.459 6.54074 110.672 5.43223C110.732 5.16145 110.766 4.96683 110.792 4.83144C110.074 5.40685 109.339 5.88071 108.587 6.26996L108.237 5.95687C108.296 5.89764 108.382 5.79609 108.502 5.64378C108.561 5.56762 108.604 5.50839 108.647 5.47454C109.228 4.74682 109.749 3.84985 110.211 2.77519C110.655 1.77668 110.954 0.862794 111.108 0.0166016C112.655 0.549703 113.612 0.955875 113.98 1.21819C114.27 1.41282 114.262 1.56513 113.954 1.67514L113.433 1.87822C113.339 2.04746 113.168 2.29286 112.937 2.59749C112.877 2.69057 112.835 2.75826 112.792 2.80057H118.561L119.142 1.97131C119.185 1.91207 119.228 1.83591 119.287 1.74283C119.595 1.31974 119.817 1.10819 119.954 1.10819C120.151 1.10819 120.569 1.39589 121.227 1.97977C121.886 2.56364 122.21 2.96135 122.21 3.1729C122.133 3.47753 121.894 3.62984 121.484 3.62984H112.065C111.835 3.85831 111.604 4.08679 111.373 4.31526L113.202 5.09375H118.014L118.51 4.51834C118.569 4.45911 118.638 4.38295 118.715 4.28987C118.945 4.04448 119.116 3.91755 119.236 3.91755C119.433 3.91755 119.817 4.17141 120.407 4.67912C120.997 5.18684 121.287 5.54224 121.287 5.75378C121.091 5.99918 120.749 6.15996 120.245 6.21073C120.202 7.03154 120.168 7.63233 120.125 8.02158H120.501L120.937 7.33616C120.971 7.27693 121.031 7.20077 121.108 7.10769C121.321 6.80306 121.484 6.65075 121.603 6.65075C121.8 6.65075 122.15 6.88768 122.672 7.37001C123.193 7.85234 123.458 8.19082 123.458 8.40237C123.398 8.707 123.168 8.85931 122.766 8.85931H120.074C119.997 9.62088 119.911 10.3232 119.809 10.9579H119.98L120.441 10.2725C120.484 10.2132 120.535 10.1371 120.612 10.044C120.826 9.73935 120.988 9.58703 121.108 9.58703C121.279 9.58703 121.629 9.82397 122.15 10.3063C122.672 10.7886 122.937 11.1271 122.937 11.3387C122.86 11.6433 122.621 11.7956 122.21 11.7956H119.629C119.398 12.6756 119.116 13.3272 118.792 13.7503C120.723 14.7996 121.373 15.3327 120.732 15.3327H120.33C119.792 15.6542 118.792 16.145 117.347 16.7966C117.911 17.3889 118.065 17.9728 117.826 18.5482L117.8 18.5059ZM108.69 26.6293L108.425 26.257C109.664 25.7239 110.954 25.0131 112.305 24.1331C113.621 23.2953 114.664 22.5084 115.433 21.7807L116.706 22.7284L117.98 23.6507C117.783 23.8961 117.45 23.9554 116.963 23.82C115.997 24.3954 114.749 24.9454 113.211 25.4701C111.672 25.9947 110.16 26.3839 108.672 26.6293H108.69ZM119.817 27.0017C119.39 27.0017 119.176 26.807 119.176 26.4263C119.253 25.5462 119.313 24.4208 119.347 23.0415V21.0614C119.27 21.0614 119.151 21.0699 118.997 21.0868C115.501 21.3576 112.715 21.5691 110.647 21.7214C110.416 22.0684 110.151 22.2545 109.86 22.2968L108.527 19.5975C109.784 19.6398 112.604 19.6398 116.988 19.5975H117.715C117.852 19.479 118.074 19.3182 118.381 19.1067C118.945 18.709 119.356 18.3874 119.629 18.159C121.467 16.7204 122.817 15.3665 123.689 14.0888C125.005 14.9519 125.817 15.5442 126.125 15.8658C126.355 16.1112 126.321 16.255 126.005 16.2973L125.484 16.3227C123.903 17.4143 121.92 18.4974 119.544 19.5636H120.21C123.689 19.5298 126.355 19.4875 128.21 19.4452C127.244 18.6836 126.347 18.1082 125.518 17.7274L125.749 17.4143C127.586 17.5074 129.09 17.8543 130.27 18.4467C131.218 18.929 131.851 19.5213 132.184 20.2237C132.458 20.8329 132.432 21.3491 132.116 21.7553C131.8 22.1699 131.321 22.2545 130.68 22.0261C130.295 21.4168 129.757 20.7906 129.056 20.1644C128.09 20.2829 126.407 20.4437 124.014 20.6552C123.108 20.7483 122.415 20.816 121.954 20.8583V22.7199C121.954 23.0246 121.962 23.4054 121.98 23.8708C122.014 24.9454 122.056 25.7578 122.099 26.3078C122.005 26.4601 121.774 26.604 121.407 26.7394C120.945 26.9086 120.416 27.0017 119.809 27.0017H119.817ZM111.732 10.9325H113.672C113.766 10.3994 113.886 9.69704 114.023 8.83392H112.142C112.048 9.39241 111.912 10.0863 111.741 10.9325H111.732ZM112.279 8.00466H114.159C114.253 7.12462 114.339 6.42228 114.424 5.9061H112.63C112.612 6.10072 112.553 6.42228 112.459 6.87922C112.382 7.36155 112.322 7.73387 112.288 7.99619L112.279 8.00466ZM115.552 10.9325H117.698C117.715 10.8732 117.74 10.7802 117.757 10.6448C117.877 9.91705 117.963 9.31625 118.022 8.83392H115.903C115.86 9.0624 115.809 9.40933 115.732 9.86628C115.655 10.3655 115.595 10.7209 115.561 10.924L115.552 10.9325ZM116.048 8.00466H118.074C118.134 7.33616 118.193 6.63382 118.245 5.9061H116.33C116.313 6.04149 116.279 6.25304 116.245 6.54074C116.168 7.19231 116.099 7.6831 116.04 8.00466H116.048ZM132.338 15.1804C130.022 14.3765 128.219 13.1834 126.945 11.5925C125.321 12.8195 123.321 13.7926 120.945 14.5203L120.774 14.148C122.92 13.1157 124.68 11.8379 126.048 10.3063C125.33 9.13855 124.663 7.54771 124.048 5.54224C123.39 6.22765 122.774 6.74383 122.193 7.09077L121.817 6.82845C121.817 6.82845 121.868 6.76075 121.903 6.6846C122.116 6.37997 122.27 6.14303 122.364 5.96533C122.809 5.16145 123.193 4.18833 123.526 3.03751C123.817 1.94592 123.979 0.989723 124.022 0.168916C125.646 0.685093 126.646 1.07434 127.039 1.34512C127.347 1.53975 127.338 1.69206 127.013 1.80207L126.492 2.00515C126.142 2.71595 125.749 3.39291 125.304 4.04448H129.911L130.518 3.15597C130.577 3.07982 130.654 2.97827 130.748 2.84288C131.039 2.44517 131.244 2.24209 131.355 2.24209C131.552 2.24209 132.005 2.55518 132.714 3.1729C133.432 3.79062 133.782 4.21371 133.782 4.42526C133.723 4.72989 133.475 4.88221 133.03 4.88221H131.577C130.919 7.04 129.825 8.8847 128.304 10.3909C129.774 11.4402 131.654 12.2272 133.953 12.7433L133.894 13.031C132.988 13.3526 132.466 14.0719 132.329 15.1804H132.338ZM131.492 26.367C131.184 26.807 130.723 26.9255 130.099 26.714C129.518 26.0624 128.697 25.3939 127.637 24.7085C126.381 23.8877 125.039 23.2107 123.612 22.6692L123.732 22.2968C125.937 22.2968 127.731 22.5676 129.125 23.1007C130.261 23.5407 131.039 24.1162 131.441 24.8185C131.791 25.4108 131.808 25.927 131.5 26.367H131.492ZM126.885 9.15548C127.731 7.97081 128.372 6.54074 128.8 4.88221H124.689L124.484 5.11068C125.022 6.67613 125.826 8.03004 126.885 9.15548Z" fill="#B72724"/>
<path d="M150.594 27.0014C150.192 27.0014 149.987 26.8067 149.987 26.426C150.064 25.7405 150.124 24.8774 150.158 23.8451V22.2627H144.073C142.697 22.2796 141.252 22.415 139.722 22.6689L138.97 21.205C140.03 21.3234 141.321 21.3996 142.825 21.4334H150.158V18.0148H144.739C143.363 18.0317 141.919 18.1671 140.389 18.421L139.637 16.9571C140.483 17.0755 141.509 17.1517 142.705 17.1855H144.184V13.2H142.414C141.372 13.2169 140.286 13.3523 139.167 13.6061L138.415 12.1422C139.474 12.2607 140.765 12.3369 142.269 12.3707H144.184V8.55438H142.91C142.192 8.57131 141.457 8.7067 140.705 8.95209L139.919 7.48818C140.979 7.60665 142.269 7.6828 143.773 7.71665H159.311L159.952 6.85354C160.012 6.7943 160.089 6.70122 160.183 6.56583C160.474 6.18504 160.679 5.99042 160.79 5.99042C160.986 5.99042 161.448 6.28659 162.191 6.87892C162.935 7.47126 163.311 7.87743 163.311 8.08051C163.234 8.38514 162.986 8.53746 162.559 8.53746H158.85V12.3538H160.448L161.14 11.406C161.2 11.3299 161.285 11.2114 161.405 11.0591C161.713 10.6614 161.926 10.4583 162.046 10.4583C162.243 10.4583 162.721 10.7799 163.499 11.4314C164.268 12.083 164.661 12.5146 164.661 12.7261C164.584 13.0307 164.337 13.1831 163.909 13.1831H158.867V17.1686H159.995L160.602 16.2801C160.662 16.204 160.738 16.1024 160.832 15.967C161.123 15.5609 161.328 15.3662 161.439 15.3662C161.636 15.3662 162.089 15.6793 162.798 16.297C163.516 16.9148 163.867 17.3379 163.867 17.5494C163.79 17.854 163.559 18.0063 163.174 18.0063H152.739V21.425H159.516L160.209 20.4518C160.268 20.3757 160.345 20.2741 160.439 20.1388C160.79 19.6818 161.021 19.4533 161.132 19.4533C161.328 19.4533 161.832 19.7918 162.653 20.4688C163.473 21.1457 163.884 21.5942 163.884 21.8057C163.807 22.1104 163.567 22.2627 163.157 22.2627H152.722V23.6081C152.722 23.8197 152.73 24.0905 152.747 24.412C152.79 25.1736 152.824 25.749 152.867 26.1298C152.773 26.3244 152.542 26.5021 152.175 26.6714C151.713 26.8829 151.183 26.9844 150.585 26.9844L150.594 27.0014ZM146.56 7.20048C146.209 7.20048 146.038 7.00585 146.038 6.62506C146.055 6.45583 146.072 6.22735 146.098 5.93965C146.115 5.71118 146.132 5.51655 146.158 5.36424V4.45035H143.491C142.115 4.46727 140.671 4.60266 139.141 4.84806L138.474 3.38415C139.534 3.50261 140.825 3.57877 142.329 3.61262H146.158C146.158 2.19948 146.09 1.04866 145.953 0.168618C147.671 0.591714 148.756 0.913267 149.201 1.14174C149.508 1.31098 149.517 1.49714 149.226 1.6833L148.73 1.97101V3.60416H154.183C154.183 2.19102 154.115 1.0402 153.978 0.160156C155.739 0.557867 156.824 0.879419 157.251 1.10789C157.576 1.27713 157.602 1.46329 157.311 1.64945L156.816 1.96255V3.5957H160.234L160.901 2.58873C160.961 2.51257 161.046 2.38564 161.166 2.2164C161.473 1.79331 161.687 1.58176 161.807 1.58176C162.003 1.58176 162.491 1.9287 163.268 2.61411C164.046 3.29953 164.439 3.75647 164.439 3.95956C164.379 4.26419 164.131 4.4165 163.687 4.4165H156.816V5.07653C156.833 5.21192 156.841 5.38116 156.841 5.59271C156.884 5.89734 156.91 6.11735 156.927 6.25274C156.867 6.44736 156.628 6.62506 156.2 6.7943C155.739 6.96354 155.217 7.05662 154.636 7.05662C154.252 7.05662 154.055 6.862 154.055 6.48121C154.072 6.3289 154.089 6.10889 154.115 5.82118C154.132 5.62656 154.158 5.45732 154.175 5.305V4.4165H148.722V5.13577C148.739 5.28808 148.748 5.47424 148.748 5.67733C148.782 5.99888 148.816 6.24428 148.833 6.39659C148.773 6.60814 148.517 6.78584 148.064 6.93816C147.611 7.09047 147.107 7.16663 146.543 7.16663L146.56 7.20048ZM146.739 12.3622H150.158V8.54592H146.739V12.3622ZM146.739 17.1855H150.158V13.2H146.739V17.1855ZM152.739 12.3622H156.243V8.54592H152.739V12.3622ZM152.739 17.1855H156.243V13.2H152.739V17.1855Z" fill="#B72724"/>
<path d="M176.533 27.0268L176.302 26.5952C178.772 25.7152 180.661 24.6913 181.951 23.5235C183.071 22.5081 183.849 21.298 184.267 19.8764H182.037C180.72 19.8934 179.37 20.0288 177.977 20.2826L177.225 18.8187C178.285 18.9372 179.575 19.0133 181.079 19.0472H184.472C184.626 18.2433 184.72 17.1432 184.763 15.747H182.361V16.6609C182.361 16.8132 182.139 16.9825 181.695 17.1771C181.191 17.4056 180.703 17.524 180.216 17.524C180.045 17.524 179.9 17.4648 179.78 17.3548C179.661 17.2363 179.609 17.1094 179.609 16.9571C179.746 15.1801 179.832 13.2254 179.874 11.1014V7.8859C179.721 7.97899 179.533 8.02976 179.327 8.02976H175.875V10.873C177.165 11.4653 178.139 12.1507 178.772 12.9377C179.293 13.5892 179.533 14.2239 179.498 14.8331C179.456 15.3916 179.225 15.7555 178.806 15.9417C178.379 16.1278 177.934 16.0009 177.473 15.5863C177.319 14.4777 176.789 13.1408 175.875 11.5668V19.2587C175.909 21.6281 175.994 23.8789 176.105 26.0029C175.986 26.2313 175.695 26.4514 175.234 26.6629C174.746 26.8745 174.276 26.976 173.815 26.976C173.567 26.976 173.362 26.9168 173.225 26.8068C173.08 26.6883 173.011 26.5614 173.011 26.409C173.011 26.2737 173.02 26.0875 173.037 25.8336C173.174 23.5574 173.259 21.2811 173.302 19.0049V15.0193C172.242 17.0502 170.935 18.8779 169.388 20.5026L168.986 20.1557C170.9 17.1517 172.242 13.1154 173.011 8.04668H171.823C171.165 8.06361 170.49 8.199 169.798 8.44439L169.071 6.98048C169.866 7.09895 170.832 7.1751 171.969 7.20895H173.302V6.11736C173.302 3.70572 173.174 1.74255 172.926 0.236328C174.763 0.676348 175.9 1.02329 176.345 1.26868C176.669 1.46331 176.686 1.64947 176.37 1.84409L175.875 2.15718V7.20895H176.336L177.669 5.25425C178.404 5.96505 179.139 6.66739 179.874 7.37819V6.65893L182.541 7.80975H190.105L190.652 7.12433C190.652 7.12433 190.737 7.03125 190.797 6.95509C191.07 6.60815 191.267 6.43892 191.404 6.43892C191.6 6.43892 192.07 6.72662 192.823 7.30203C193.575 7.87744 193.951 8.26669 193.951 8.47824C193.737 8.72364 193.387 8.9098 192.908 9.0198V11.3976C192.951 13.3523 193.002 14.8924 193.079 16.0178C192.959 16.2124 192.66 16.4155 192.182 16.6525C191.66 16.8809 191.19 16.9994 190.763 16.9994H190.327V15.764H187.575C187.498 17.2533 187.378 18.3533 187.224 19.0641H191.019L191.746 18.0317C191.805 17.9556 191.882 17.854 191.976 17.7187C192.327 17.2194 192.558 16.974 192.669 16.974C192.865 16.974 193.352 17.3294 194.147 18.0487C194.942 18.7679 195.335 19.2333 195.335 19.4364C195.258 19.7411 195.01 19.8934 194.583 19.8934H187.746C188.789 21.9412 191.498 23.3289 195.857 24.0566L195.831 24.4036C195.113 24.5728 194.592 24.8351 194.267 25.1821C193.916 25.5882 193.72 26.1806 193.66 26.9591C190.165 25.8675 188.011 23.5151 187.199 19.9018H187.028C186.541 21.6619 185.575 23.0666 184.131 24.1159C182.473 25.3598 179.934 26.3329 176.541 27.0437L176.533 27.0268ZM182.678 6.97202C182.353 6.97202 182.182 6.77739 182.182 6.39661C182.199 6.26122 182.225 6.07505 182.242 5.8212C182.259 5.65196 182.276 5.49964 182.302 5.36425V4.56037H181.028C180.31 4.57729 179.575 4.71268 178.823 4.95808L178.097 3.49417C178.866 3.61263 179.815 3.68879 180.934 3.72264H182.293C182.293 2.34335 182.225 1.21791 182.088 0.337871C183.746 0.744043 184.78 1.05713 185.19 1.28561C185.498 1.45484 185.507 1.64101 185.216 1.82717L184.72 2.14026V3.72264H187.994C187.994 2.34335 187.925 1.21791 187.789 0.337871C189.429 0.744043 190.455 1.05713 190.857 1.28561C191.164 1.45484 191.173 1.64101 190.882 1.82717L190.387 2.14026V3.72264H191.344L191.951 2.80875C192.011 2.73259 192.087 2.63105 192.182 2.49566C192.472 2.09795 192.677 1.89486 192.788 1.89486C192.985 1.89486 193.421 2.20796 194.104 2.8426C194.788 3.47724 195.13 3.89188 195.13 4.10343C195.113 4.40805 194.882 4.56037 194.438 4.56037H190.378V5.07655C190.395 5.22886 190.404 5.3981 190.404 5.59272C190.421 5.76196 190.438 5.88043 190.464 5.93966C190.421 6.13429 190.173 6.32891 189.712 6.532C189.25 6.73508 188.789 6.83663 188.318 6.83663C188.011 6.83663 187.857 6.642 187.857 6.26122C187.874 6.14275 187.891 5.98197 187.917 5.77042C187.934 5.60119 187.951 5.45733 187.977 5.33887V4.56037H184.703V5.13578C184.72 5.30502 184.729 5.49964 184.729 5.71119C184.746 5.90582 184.763 6.03274 184.789 6.1089C184.746 6.30353 184.498 6.48969 184.037 6.68431C183.575 6.87894 183.114 6.97202 182.643 6.97202H182.678ZM182.353 11.3638H190.327V8.63902H182.353V11.3638ZM182.353 14.9178H190.327V12.193H182.353V14.9178Z" fill="#B72724"/>
<path d="M204.412 26.9682C204.164 26.9682 203.959 26.9089 203.813 26.7989C203.668 26.6889 203.6 26.5535 203.6 26.4012C203.6 26.2827 203.608 26.122 203.625 25.9104C203.762 23.6342 203.848 21.3664 203.89 19.107V15.1469C202.907 17.0762 201.685 18.8109 200.241 20.3425L199.891 19.9701C201.651 17.0085 202.899 13.0568 203.625 8.12346H202.437C201.796 8.14038 201.147 8.27577 200.463 8.52963L199.737 7.06572C200.506 7.18419 201.455 7.26034 202.574 7.29419H203.882V6.14337C203.882 3.73172 203.754 1.76856 203.506 0.262334C205.283 0.702354 206.395 1.04083 206.839 1.2693C207.164 1.46393 207.189 1.65009 206.899 1.84471L206.403 2.1578V7.29419H206.924L207.531 6.34646C207.591 6.2703 207.668 6.16876 207.762 6.03336C208.053 5.59334 208.258 5.37333 208.369 5.37333C208.54 5.37333 208.959 5.70335 209.634 6.36338C210.3 7.02341 210.634 7.45497 210.634 7.66652C210.574 7.97114 210.326 8.12346 209.882 8.12346H206.403V11.449C207.719 12.0244 208.694 12.7014 209.326 13.4883C209.864 14.1568 210.112 14.8084 210.052 15.443C210.01 16.0184 209.77 16.3908 209.326 16.5769C208.882 16.7631 208.429 16.6277 207.967 16.1877C207.813 15.003 207.292 13.6406 206.403 12.109V19.2847C206.446 21.6541 206.523 23.9049 206.634 26.0289C206.514 26.2574 206.241 26.4689 205.796 26.6635C205.309 26.8751 204.848 26.9766 204.403 26.9766L204.412 26.9682ZM207.796 26.2574L207.565 25.8596C208.762 25.0727 209.779 24.0826 210.608 22.8726C211.42 21.7218 212.01 20.4609 212.377 19.0816H211.215C210.617 19.0986 209.976 19.234 209.3 19.4794L208.514 18.0408C209.206 18.1593 210.061 18.2355 211.061 18.2693H212.275L212.881 17.6093C212.881 17.6093 212.967 17.5162 213.027 17.44C213.334 17.0931 213.557 16.9239 213.693 16.9239C213.89 16.9239 214.317 17.2031 215.001 17.77C215.676 18.337 216.018 18.7178 216.018 18.9293C215.864 19.1578 215.505 19.2847 214.95 19.3017C213.77 22.5003 211.386 24.8104 207.788 26.2489L207.796 26.2574ZM209.711 11.8213L208.958 10.3574C210.018 10.4759 211.309 10.552 212.813 10.5859H216.086V8.23346H214.403C213.42 8.25039 212.394 8.38578 211.334 8.63117L210.582 7.16726C211.608 7.28573 212.839 7.36189 214.292 7.39573H216.086V5.24641H214.086C212.89 5.26333 211.651 5.39872 210.377 5.64412L209.651 4.1802C210.582 4.29867 211.676 4.37483 212.958 4.40868H214.463L214.403 4.38329C214.266 4.30713 214.172 4.2479 214.112 4.21405C214.018 3.62172 213.762 2.97015 213.36 2.25935C212.975 1.6247 212.548 1.08314 212.087 0.626197L212.377 0.423111C213.728 0.634659 214.745 1.03237 215.42 1.6247C216.001 2.12396 216.283 2.66552 216.257 3.25785C216.24 3.81634 216.009 4.19713 215.565 4.40868H218.403C219.018 2.91938 219.394 1.47239 219.531 0.0761719C221.249 0.516192 222.334 0.86313 222.778 1.10853C223.086 1.27776 223.086 1.43008 222.778 1.56547L222.257 1.76856C221.368 2.66552 220.394 3.54556 219.334 4.40868H221.736L222.377 3.54556C222.437 3.4694 222.522 3.36786 222.642 3.23247C222.915 2.85168 223.103 2.65706 223.223 2.65706C223.419 2.65706 223.881 2.96169 224.616 3.56248C225.351 4.16328 225.718 4.56945 225.718 4.781C225.642 5.08563 225.402 5.23794 224.992 5.23794H218.642V7.38727H220.958L221.599 6.52416C221.659 6.46492 221.736 6.37184 221.83 6.23645C222.12 5.85566 222.325 5.66104 222.437 5.66104C222.633 5.66104 223.078 5.95721 223.787 6.54954C224.496 7.14188 224.847 7.54805 224.847 7.75113C224.787 8.05576 224.556 8.20808 224.154 8.20808H218.65V10.5605H221.924L222.59 9.61276C222.65 9.5366 222.736 9.41813 222.855 9.26582C223.163 8.85965 223.377 8.66502 223.496 8.66502C223.693 8.66502 224.171 8.98658 224.932 9.63814C225.693 10.2897 226.077 10.7213 226.077 10.9328C226 11.2374 225.753 11.3898 225.325 11.3898H214.078C212.702 11.4067 211.258 11.5421 209.728 11.7875L209.711 11.8213ZM215.223 27.0274C215.129 26.1643 214.915 25.6058 214.582 25.335C214.138 24.9373 213.377 24.6581 212.292 24.5057V24.0742C213.411 24.1334 214.522 24.2011 215.625 24.2773C215.839 24.2773 215.984 24.235 216.061 24.1503C216.138 24.0657 216.18 23.9134 216.18 23.7019V16.2131H214.642C213.77 16.23 212.847 16.3654 211.856 16.6108L211.189 15.1469C212.112 15.2653 213.215 15.3415 214.497 15.3753H216.086L216.522 14.6899C216.556 14.6307 216.616 14.5461 216.693 14.4276C216.907 14.123 217.069 13.9706 217.189 13.9706C217.385 13.9706 217.881 14.3007 218.685 14.9607C219.488 15.6207 219.89 16.0523 219.89 16.2638C219.616 16.5685 219.223 16.7715 218.702 16.8646C219.009 17.6262 219.471 18.4301 220.095 19.2763C221.445 17.44 222.385 15.883 222.907 14.5968C224.3 15.5953 225.171 16.2723 225.513 16.6362C225.761 16.9069 225.736 17.0508 225.428 17.0677L224.907 17.0931C223.513 17.9731 222.018 18.8363 220.411 19.674C222.018 21.5525 224.001 22.8303 226.385 23.5157L226.359 23.8288C225.334 24.0996 224.676 24.9204 224.385 26.2997C221.702 24.7088 219.804 22.111 218.702 18.4978V23.9811C218.702 24.9373 218.497 25.6227 218.095 26.0458C217.591 26.562 216.633 26.8835 215.223 27.0189V27.0274ZM220.129 14.893C219.89 15.2907 219.496 15.4261 218.958 15.2907C218.497 14.8168 217.804 14.326 216.898 13.8268C215.873 13.2683 214.77 12.8283 213.591 12.5067L213.676 12.0752C215.454 11.8806 216.915 11.9567 218.052 12.3036C219.001 12.5744 219.659 12.9891 220.026 13.5645C220.334 14.0468 220.368 14.4784 220.129 14.8845V14.893Z" fill="#B72724"/>
<path d="M230.932 30.6488L230.47 29.8196C232.385 28.8041 233.462 27.3994 233.718 25.6055C232.812 25.3009 232.154 25.0047 231.744 24.717C231.069 24.2178 230.727 23.6 230.727 22.8554C230.727 22.28 230.923 21.7977 231.308 21.3915C231.735 20.9684 232.274 20.7568 232.932 20.7568C233.667 20.7568 234.256 21.0276 234.718 21.5607C235.171 22.0938 235.402 22.8131 235.402 23.71C235.402 25.0893 235.077 26.3586 234.419 27.5264C233.65 28.9057 232.487 29.9465 230.94 30.6573L230.932 30.6488Z" fill="#B72724"/>
<path d="M53.9484 66.5184C51.6493 66.5184 49.8374 66.0107 48.5298 64.9868C47.2136 63.9629 46.5641 62.5497 46.5641 60.7473C46.5641 58.1665 48.3076 56.1187 51.8032 54.5871C48.7606 52.9793 47.2478 50.7115 47.2478 47.7837C47.2478 45.9813 47.923 44.5174 49.2648 43.4004C50.5895 42.3004 52.239 41.7588 54.2133 41.7588C56.1876 41.7588 57.7944 42.3004 58.9652 43.3666C60.0934 44.3735 60.6575 45.6851 60.6575 47.3014C60.6575 49.6453 59.1618 51.5915 56.1619 53.1401C58.0678 54.0455 59.4609 55.044 60.3327 56.1356C61.2216 57.2526 61.666 58.5896 61.666 60.1296C61.666 62.042 60.9566 63.5821 59.5293 64.7583C58.1106 65.926 56.2474 66.5184 53.9484 66.5184ZM54.1449 65.2575C55.4269 65.2575 56.444 64.8683 57.2046 64.0813C57.9653 63.2944 58.3413 62.2451 58.3413 60.942C58.3413 59.7573 57.9482 58.7419 57.1704 57.8788C56.3243 56.9564 54.8543 56.0171 52.7775 55.0779C51.7177 55.831 50.94 56.5925 50.4613 57.371C49.9656 58.2088 49.7092 59.2073 49.7092 60.3666C49.7092 61.8728 50.1109 63.0659 50.9143 63.9459C51.7177 64.826 52.7946 65.266 54.1364 65.266L54.1449 65.2575ZM55.1534 52.6831C56.085 51.8877 56.7517 51.0584 57.1363 50.2038C57.5294 49.3661 57.726 48.376 57.726 47.2337C57.726 46.0321 57.4183 45.0505 56.8115 44.2974C56.1363 43.485 55.2475 43.0704 54.1449 43.0704C53.1023 43.0704 52.2134 43.4173 51.4784 44.1027C50.7177 44.8305 50.3417 45.7613 50.3417 46.8952C50.3417 48.0291 50.6579 49.0191 51.2818 49.8738C52.0425 50.9061 53.333 51.8369 55.1534 52.6747V52.6831Z" fill="#B72724"/>
<path d="M69.9989 66.4847C69.3066 66.4847 68.7084 66.2393 68.2041 65.757C67.7084 65.2747 67.452 64.6908 67.452 64.0138C67.452 63.3369 67.6999 62.753 68.2041 62.2707C68.6998 61.7884 69.2981 61.543 69.9989 61.543C70.6997 61.543 71.2809 61.7884 71.7766 62.2707C72.2638 62.753 72.5116 63.3369 72.5116 64.0308C72.5116 64.7246 72.2638 65.3001 71.7766 65.7739C71.2895 66.2478 70.6997 66.4847 69.9989 66.4847Z" fill="#B72724"/>
<path d="M77.1952 66.0364V63.8786C78.2122 62.7193 79.6737 61.0438 81.5625 58.8522C82.1693 58.1668 82.6138 57.6591 82.8958 57.3375C84.759 55.1628 86.0324 53.4789 86.7076 52.2773C87.4853 50.8811 87.8785 49.4595 87.8785 48.0209C87.8785 46.6924 87.4939 45.6178 86.7247 44.797C85.9555 43.9761 84.9213 43.57 83.6137 43.57C82.4172 43.57 81.3318 43.8831 80.3575 44.5008C79.5284 45.0424 78.6652 45.8885 77.7507 47.0478L77.161 46.6247C77.5969 45.1016 78.4943 43.9085 79.8617 43.0453C81.2036 42.233 82.7932 41.8184 84.6137 41.8184C86.87 41.8184 88.6049 42.4022 89.8271 43.5615C90.9809 44.6785 91.5535 46.2016 91.5535 48.1394C91.5535 49.6033 90.9467 51.118 89.7331 52.6835C88.7759 53.8851 86.8272 55.8567 83.8701 58.5814C82.6309 59.7661 81.1096 61.2808 79.3148 63.1255H92.4082V66.0279H77.2037L77.1952 66.0364Z" fill="#B72724"/>
<path d="M111.57 67.9659C111.356 67.9659 111.185 67.9067 111.048 67.7967C110.912 67.6782 110.843 67.5513 110.843 67.399C110.843 67.2636 110.852 67.0859 110.869 66.8574C111.006 64.7758 111.091 62.6857 111.134 60.6041V56.9062C109.937 59.1655 108.407 61.1541 106.553 62.8719L106.177 62.5249C108.202 59.5802 109.681 55.7469 110.612 51.0167H109.339C108.647 51.0336 107.929 51.169 107.194 51.4144L106.442 49.9505C107.313 50.069 108.373 50.1451 109.63 50.179H111.134V45.6434C109.322 46.0411 107.775 46.3288 106.493 46.5065L106.373 46.1088C107.903 45.5503 109.518 44.7972 111.245 43.841C112.886 42.944 114.185 42.0978 115.125 41.3193L118.287 43.841C117.997 44.1456 117.45 44.1795 116.638 43.9256C115.809 44.2725 114.826 44.611 113.681 44.958V50.179H114.552L115.159 49.2058C115.193 49.1466 115.245 49.062 115.305 48.9435C115.612 48.4697 115.834 48.2243 115.971 48.2243C116.142 48.2243 116.595 48.5627 117.322 49.2312C118.048 49.8997 118.407 50.3397 118.407 50.5513C118.33 50.8559 118.082 51.0082 117.655 51.0082H113.681V53.4791C115.134 54.0122 116.219 54.6807 116.954 55.4846C117.552 56.1531 117.851 56.8216 117.851 57.4901C117.834 58.0993 117.595 58.5224 117.142 58.7509C116.689 58.9794 116.202 58.8778 115.681 58.4378C115.544 57.16 114.877 55.6961 113.681 54.0461V60.274C113.723 62.6434 113.8 64.8942 113.911 67.0182C113.758 67.2467 113.493 67.4498 113.125 67.619C112.664 67.8475 112.142 67.9659 111.561 67.9659H111.57ZM115.775 67.9405L115.655 67.509C120.133 66.0705 123.578 63.735 125.971 60.4771C126.535 59.7325 127.073 58.7424 127.612 57.5239C128.142 56.2969 128.475 55.29 128.612 54.4861L130.552 55.6031C131.979 56.1954 132.347 56.5593 131.654 56.6946L131.107 56.7793C129.654 60.1302 127.578 62.728 124.877 64.5812C122.441 66.2651 119.407 67.3821 115.775 67.9405ZM117.51 55.5692L117.074 55.3069C117.501 54.4269 117.911 53.3183 118.322 51.9814C118.595 51.0675 118.817 50.0182 118.988 48.8504C119.142 47.6489 119.193 46.6503 119.133 45.8634L121.253 46.5826C122.706 46.8873 123.108 47.1834 122.467 47.4711L121.945 47.6742C120.843 51.1521 119.364 53.7837 117.51 55.5692ZM122.646 59.4786C122.603 58.6578 122.424 58.0824 122.099 57.7608C121.715 57.3631 120.997 57.0839 119.954 56.9316V56.5C120.98 56.5593 121.988 56.6185 122.997 56.6693C123.347 56.6693 123.518 56.5085 123.518 56.1785V47.4288C123.518 45.0172 123.39 43.054 123.142 41.5478C124.902 41.9709 126.005 42.2925 126.449 42.5209C126.774 42.6902 126.8 42.8763 126.509 43.0625L126.013 43.3502V56.2885C126.013 57.3377 125.834 58.0739 125.466 58.497C124.979 59.0301 124.048 59.3601 122.655 59.4702L122.646 59.4786ZM131.629 54.6299C131.124 54.9346 130.577 54.7907 129.979 54.1984C129.919 51.846 129.107 49.1297 127.543 46.0495L127.919 45.9057C129.5 47.0565 130.68 48.3004 131.458 49.6374C132.116 50.7459 132.432 51.8121 132.415 52.8191C132.398 53.716 132.133 54.3168 131.629 54.6299Z" fill="#B72724"/>
<path d="M137.885 47.1662L137.133 45.7023C138.192 45.8207 139.483 45.8969 140.987 45.9307H143.107C143.107 44.0014 143.013 42.419 142.816 41.2005C144.534 41.5982 145.619 41.9198 146.064 42.1483C146.372 42.3175 146.406 42.5037 146.149 42.6898L145.714 42.9775V45.9307H147.773L148.466 44.8984C148.525 44.8222 148.602 44.7207 148.696 44.5853C149.047 44.086 149.277 43.8406 149.389 43.8406C149.585 43.8406 150.081 44.196 150.884 44.9153C151.688 45.6346 152.089 46.1 152.089 46.3031C152.029 46.6077 151.782 46.76 151.337 46.76H142.235C140.859 46.7769 139.415 46.9123 137.885 47.1577V47.1662ZM137.509 65.0124L137.158 64.75C137.406 64.3693 137.663 63.9123 137.91 63.3708C138.321 62.5076 138.663 61.5091 138.953 60.3583C139.244 59.2075 139.406 58.2344 139.449 57.4305L141.423 58.2344C142.833 58.5813 143.209 58.8775 142.551 59.1229L142.056 59.326C140.893 61.7715 139.38 63.6669 137.509 65.0039V65.0124ZM142.406 67.9656C142.329 67.0686 142.184 66.4678 141.97 66.1547C141.645 65.7316 140.987 65.4439 139.996 65.2916V64.8939C140.868 64.9531 141.731 65.0124 142.603 65.0631C142.953 65.0631 143.124 64.8939 143.124 64.547V55.3912H141.526V56.0258C141.526 56.1612 141.303 56.3135 140.859 56.4827C140.372 56.6943 139.902 56.7958 139.44 56.7958C139.133 56.7958 138.979 56.6012 138.979 56.2204C139.013 55.8396 139.056 55.3235 139.098 54.6719C139.116 54.3842 139.124 54.1473 139.124 53.9526V52.5141C139.124 50.771 139.039 49.2986 138.859 48.097L141.645 49.3324H147.004L148.218 47.987L150.303 49.5947L150.277 49.5101H153.961C153.978 48.9939 153.987 48.2155 153.987 47.1831C153.987 44.6953 153.858 42.6983 153.611 41.1836C155.508 41.3782 156.696 41.5559 157.175 41.7252C157.525 41.8436 157.542 42.0044 157.234 42.2159L156.739 42.529C156.739 42.9098 156.73 43.4937 156.713 44.2807C156.696 46.65 156.662 48.3932 156.628 49.5017H158.978L159.67 48.5285C159.73 48.4524 159.815 48.3255 159.935 48.1562C160.243 47.7331 160.456 47.5216 160.576 47.5216C160.773 47.5216 161.26 47.8601 162.038 48.537C162.824 49.214 163.208 49.6624 163.208 49.874C163.132 50.1786 162.884 50.3309 162.456 50.3309H156.602C156.585 50.5256 156.559 50.8217 156.542 51.2194C156.499 51.6425 156.474 51.9472 156.457 52.1333C157.619 52.4549 158.328 52.7172 158.602 52.9118C158.815 53.0811 158.798 53.2588 158.542 53.428L158.106 53.7157V64.3016C158.106 64.5131 158.14 64.657 158.226 64.7331C158.303 64.8093 158.457 64.8516 158.687 64.8516H159.73C160.311 64.8516 160.662 64.8431 160.773 64.8262C160.944 64.8262 161.089 64.6993 161.209 64.4539C161.362 64.1069 161.679 62.7023 162.166 60.2398C162.183 60.1468 162.2 60.0706 162.226 60.0114H162.542L162.627 64.6316C163.149 64.9024 163.414 65.2831 163.414 65.7824C163.414 66.3409 163.132 66.7386 162.576 66.984C161.961 67.2717 160.952 67.4156 159.559 67.4156H157.935C156.952 67.4156 156.294 67.2463 155.961 66.8994C155.67 66.5778 155.525 65.9516 155.525 65.0378V57.6928C154.91 59.876 153.978 61.7715 152.739 63.3708C151.346 65.1308 149.5 66.6624 147.201 67.9656L146.884 67.534C149.431 65.427 151.26 62.88 152.363 59.876C153.252 57.4474 153.773 54.2742 153.927 50.3479H150.508V50.3225C150.312 50.4409 150.072 50.5256 149.782 50.5848V52.3364C149.782 52.6072 149.79 52.9541 149.807 53.3941C149.842 54.3927 149.884 55.1458 149.927 55.6619C149.833 55.8312 149.534 56.0089 149.03 56.195C148.525 56.3812 148.072 56.4658 147.671 56.4658H147.269V55.4081H145.671V64.6231C145.671 65.6724 145.491 66.4424 145.124 66.9163C144.637 67.5086 143.731 67.864 142.397 67.974L142.406 67.9656ZM141.534 54.5957H147.269V50.1786H141.534V54.5957ZM148.004 62.6853C148.004 61.9407 147.85 61.1199 147.542 60.2145C147.252 59.4106 146.893 58.6744 146.474 58.0059L146.79 57.8367C148.141 58.4121 149.141 59.1059 149.773 59.9352C150.294 60.6037 150.508 61.2722 150.414 61.9407C150.32 62.5499 150.03 62.9561 149.542 63.1423C149.021 63.3369 148.508 63.1846 148.004 62.6853ZM159.533 47.0816C159.414 46.4469 159.157 45.7361 158.747 44.9322C158.38 44.2468 157.961 43.6206 157.499 43.0706L157.764 42.8675C159.174 43.2145 160.226 43.7306 160.927 44.4161C161.525 44.9745 161.807 45.5669 161.764 46.1931C161.747 46.7685 161.499 47.1577 161.038 47.3693C160.55 47.5977 160.055 47.5047 159.533 47.0816Z" fill="#B72724"/>
<path d="M191.874 68.0001C187.395 67.3654 183.934 66.2654 181.498 64.6999C178.062 66.4431 173.721 67.5347 168.482 67.9747L168.311 67.5178C172.969 66.6716 176.832 65.343 179.9 63.5322C178.738 62.5168 177.815 61.3829 177.114 60.1136C174.644 62.1191 171.909 63.5914 168.909 64.5307L168.704 64.133C170.422 63.236 172.08 62.0514 173.678 60.5874C175.268 59.1235 176.516 57.6596 177.404 56.1788C176.96 56.0603 176.661 55.8657 176.507 55.578C176.37 55.3072 176.302 54.8926 176.302 54.3172V52.2778C176.302 51.3978 176.259 50.6785 176.182 50.1285C177.575 50.5347 178.456 50.8478 178.823 51.0762C179.097 51.2455 179.114 51.4147 178.883 51.567L178.507 51.8294V53.8941C178.507 54.0633 178.558 54.1733 178.652 54.2241C178.746 54.2749 179.003 54.2918 179.404 54.2918H181.84C183.096 54.2918 183.831 54.2833 184.045 54.2664C184.336 54.2241 184.524 54.1479 184.626 54.0379C184.823 53.7502 185.079 53.0986 185.413 52.0832H185.729L185.814 54.0633C186.378 54.2579 186.652 54.5541 186.652 54.9518C186.652 55.4511 186.327 55.798 185.669 55.9842C184.977 56.1957 183.626 56.2972 181.644 56.2972H179.122C179.917 56.6188 180.396 56.8811 180.575 57.0757C180.712 57.2281 180.635 57.3211 180.344 57.3635L179.883 57.4227C179.498 57.8796 179.199 58.2266 178.986 58.455H185.011L185.763 57.7358C185.823 57.6765 185.908 57.6004 186.028 57.5073C186.395 57.1858 186.635 57.0165 186.754 57.0165C186.925 57.0165 187.353 57.355 188.028 58.0319C188.703 58.7089 189.045 59.1574 189.045 59.3689C188.891 59.5636 188.472 59.682 187.797 59.7412C186.66 61.2136 185.233 62.4829 183.541 63.5576C186.284 64.4715 189.72 65.013 193.857 65.1653V65.5123C192.814 65.8169 192.156 66.6462 191.882 68.0086L191.874 68.0001ZM190.729 55.4764C190.276 55.8657 189.72 55.8572 189.062 55.4341C188.848 54.6726 188.395 53.8264 187.703 52.9125C187.062 52.1086 186.37 51.4232 185.618 50.8478L185.883 50.6193C187.045 50.8139 188.045 51.1101 188.9 51.5078C189.267 50.8224 189.626 50.0185 189.968 49.0962H172.294C172.276 49.8831 172.123 50.577 171.832 51.1947C171.541 51.7278 171.182 52.134 170.764 52.3963C170.362 52.6417 169.935 52.7348 169.49 52.6586C169.029 52.5825 168.73 52.3371 168.593 51.914C168.345 51.2032 168.644 50.6193 169.49 50.1624C170.029 49.8747 170.499 49.4346 170.883 48.8423C171.311 48.1738 171.507 47.4715 171.49 46.7437H171.926C172.097 47.3022 172.217 47.8015 172.276 48.2669H175.439C175.225 48.2077 175.003 48.0892 174.772 47.8946C174.755 47.3784 174.601 46.803 174.311 46.1768C174.037 45.6014 173.729 45.1021 173.387 44.6875L173.652 44.5183C172.593 44.5352 171.55 44.5352 170.524 44.5183L170.439 43.9767C173.567 43.7651 176.934 43.3928 180.524 42.8597C184.062 42.3435 186.9 41.8104 189.045 41.252C190.13 42.3435 190.763 43.0459 190.959 43.3759C191.096 43.6636 190.951 43.7736 190.523 43.7228L189.737 43.579C186.763 43.9428 183.413 44.2136 179.678 44.3829C180.738 44.7467 181.49 45.2375 181.943 45.8468C182.327 46.346 182.447 46.8453 182.293 47.3361C182.156 47.8099 181.866 48.1146 181.421 48.2246C180.96 48.36 180.507 48.2246 180.062 47.8269C180.062 46.7353 179.686 45.6014 178.934 44.4082C176.618 44.4844 174.875 44.5267 173.721 44.5267C174.977 44.8144 175.883 45.2544 176.447 45.8468C176.909 46.3291 177.097 46.8284 176.994 47.3699C176.875 47.8523 176.601 48.1569 176.157 48.2838H184.737C185.609 46.7184 186.19 45.2206 186.472 43.8075C188.096 44.4759 189.113 44.9583 189.515 45.246C189.823 45.4745 189.814 45.6268 189.489 45.7029L188.968 45.8214C188.156 46.6253 187.105 47.4461 185.806 48.2923H190.011L190.677 47.573C190.737 47.5138 190.814 47.4376 190.908 47.3445C191.216 47.023 191.429 46.8537 191.549 46.8537C191.72 46.8537 192.164 47.2091 192.865 47.9115C193.566 48.6138 193.925 49.0792 193.925 49.2908C193.771 49.46 193.412 49.57 192.857 49.6039C191.874 50.4247 190.686 51.1355 189.293 51.7278C190.318 52.3032 190.942 52.9971 191.173 53.8264C191.37 54.5541 191.233 55.1126 190.78 55.5018L190.729 55.4764ZM171.695 55.9503C171.242 55.8572 170.96 55.6118 170.841 55.231C170.627 54.4864 170.943 53.9025 171.798 53.4794C172.396 53.2679 172.926 52.9125 173.396 52.4217C173.9 51.8463 174.182 51.237 174.234 50.5855L174.669 50.6108C174.994 51.8886 174.96 53.0225 174.55 53.9956C174.199 54.8333 173.678 55.4172 172.986 55.7472C172.584 55.9757 172.148 56.0434 171.695 55.9503ZM181.302 62.6352C182.755 61.6198 183.908 60.5028 184.78 59.2758H178.114C178.02 59.3689 177.866 59.5128 177.652 59.7074L177.567 59.7666C178.473 60.8751 179.721 61.8313 181.302 62.6352ZM181.678 52.904C181.481 52.3709 181.114 51.8124 180.575 51.237C180.071 50.7039 179.541 50.2639 178.986 49.917L179.216 49.6546C180.609 49.6377 181.695 49.8577 182.49 50.3147C183.131 50.6785 183.498 51.1355 183.592 51.694C183.669 52.2101 183.515 52.5994 183.131 52.8702C182.72 53.1748 182.242 53.1833 181.678 52.8956V52.904Z" fill="#B72724"/>
<path d="M199.241 66.8825L198.515 65.4186C199.574 65.5371 200.865 65.6132 202.369 65.6471H209.352V47.3947C209.352 44.9831 209.223 43.0199 208.976 41.5137C210.924 41.9706 212.146 42.326 212.625 42.5714C212.993 42.766 213.018 42.9522 212.71 43.1468L212.215 43.4599V52.328H217.574L218.385 51.211C218.445 51.1518 218.522 51.0587 218.616 50.9233C219.018 50.3479 219.291 50.0602 219.428 50.0602C219.625 50.0602 220.18 50.4495 221.095 51.2195C222.009 51.998 222.471 52.4888 222.471 52.7003C222.411 53.005 222.172 53.1573 221.744 53.1573H212.206V65.6386H219.625L220.437 64.4878C220.496 64.3947 220.59 64.2678 220.727 64.1155C221.095 63.5993 221.334 63.337 221.454 63.337C221.65 63.337 222.223 63.7262 223.18 64.5132C224.137 65.3001 224.616 65.7909 224.616 66.0025C224.539 66.3071 224.274 66.4594 223.83 66.4594H203.574C202.198 66.4763 200.754 66.6117 199.224 66.8571L199.241 66.8825Z" fill="#B72724"/>
<path d="M232.915 67.9148C231.795 67.9148 230.829 67.5171 230.017 66.7132C229.206 65.9093 228.804 64.9531 228.804 63.8446C228.804 62.7361 229.206 61.7799 230.009 60.9929C230.812 60.1975 231.778 59.7998 232.923 59.7998C234.069 59.7998 235.026 60.1891 235.821 60.976C236.615 61.763 237.009 62.7192 237.009 63.8446C237.009 64.97 236.607 65.9347 235.804 66.7301C235 67.5255 234.043 67.9232 232.923 67.9232L232.915 67.9148ZM232.915 66.8824C233.744 66.8824 234.462 66.5863 235.06 65.9939C235.658 65.4016 235.957 64.6823 235.957 63.8446C235.957 63.0069 235.667 62.2876 235.077 61.7037C234.487 61.1199 233.769 60.8322 232.915 60.8322C232.06 60.8322 231.342 61.1199 230.744 61.7037C230.146 62.2876 229.847 62.9984 229.847 63.8446C229.847 64.6908 230.146 65.4016 230.744 65.9939C231.342 66.5863 232.069 66.8824 232.915 66.8824Z" fill="#B72724"/>
<path d="M2.7236 106.08V111.075H2.01809V106.08H0V105.516H4.74169V106.08H2.7236Z" fill="black"/>
<path d="M8.99932 108.674V111.075H8.2938V108.723C8.2938 108.505 8.2938 108.328 8.2774 108.11C8.23638 107.611 7.95746 107.224 7.28476 107.24C6.60386 107.256 6.02961 107.74 6.02961 109.198V111.075H5.3241V105.113H6.02961V107.538L6.30033 107.047C6.66949 106.765 6.98943 106.692 7.43243 106.692C8.38404 106.692 8.91728 107.192 8.98291 107.941C8.99931 108.159 8.99932 108.328 8.99932 108.674Z" fill="black"/>
<path d="M13.9051 109.15H10.7549C10.8205 110.278 11.3619 110.656 12.0018 110.656C12.5679 110.656 13.0273 110.31 13.1257 109.698H13.864C13.6918 110.729 12.8632 111.188 11.969 111.188C10.8369 111.188 9.99194 110.463 9.99194 108.956C9.99194 107.571 10.8697 106.692 12.0593 106.692C13.2488 106.692 13.9215 107.571 13.9215 108.819C13.9215 108.884 13.9215 108.997 13.9051 109.15ZM10.7631 108.618H13.2078C13.1421 107.732 12.7566 107.224 12.0428 107.224C11.3291 107.224 10.8451 107.708 10.7631 108.618Z" fill="black"/>
<path d="M17.0224 106.764V107.288C16.2841 107.24 15.7263 107.667 15.7263 108.642V111.075H15.0208V106.805H15.7263V107.473L16.12 106.901C16.3005 106.781 16.522 106.708 16.7271 106.708C16.842 106.708 16.9404 106.724 17.0224 106.764Z" fill="black"/>
<path d="M21.3457 109.15H18.1956C18.2612 110.278 18.8026 110.656 19.4425 110.656C20.0086 110.656 20.468 110.31 20.5664 109.698H21.3047C21.1324 110.729 20.3039 111.188 19.4097 111.188C18.2776 111.188 17.4326 110.463 17.4326 108.956C17.4326 107.571 18.3104 106.692 19.4999 106.692C20.6895 106.692 21.3621 107.571 21.3621 108.819C21.3621 108.884 21.3621 108.997 21.3457 109.15ZM18.2038 108.618H20.6484C20.5828 107.732 20.1972 107.224 19.4835 107.224C18.7698 107.224 18.2858 107.708 18.2038 108.618Z" fill="black"/>
<path d="M28.0728 108.674V111.075H27.3673V108.723C27.3673 108.505 27.3673 108.328 27.3509 108.11C27.3099 107.611 27.0309 107.224 26.3582 107.24C25.6773 107.256 25.1031 107.74 25.1031 109.198V111.075H24.3976V105.113H25.1031V107.538L25.3738 107.047C25.743 106.765 26.0629 106.692 26.5059 106.692C27.4575 106.692 27.9908 107.192 28.0564 107.941C28.0728 108.159 28.0728 108.328 28.0728 108.674Z" fill="black"/>
<path d="M31.8464 110.463L31.6085 110.922C31.3132 111.124 30.9358 111.188 30.5174 111.188C29.7299 111.188 29.1146 110.761 29.1146 109.971C29.1146 109.005 29.8529 108.505 31.5593 108.505H31.8382V108.392C31.8382 108.207 31.8382 108.038 31.8218 107.877C31.789 107.482 31.5593 107.224 30.9768 107.224C30.3944 107.224 30.0909 107.538 30.0416 108.126H29.3033C29.3689 107.216 30.017 106.692 30.9768 106.692C32.0105 106.692 32.4453 107.119 32.5191 107.82C32.5355 107.99 32.5437 108.199 32.5437 108.384V109.988C32.5437 110.31 32.5601 110.6 32.6258 111.075H31.9203L31.8464 110.463ZM31.8382 109.456V109.021C30.6405 108.932 29.8858 109.182 29.8858 109.915C29.8858 110.431 30.2221 110.656 30.7553 110.656C31.4116 110.656 31.8382 110.229 31.8382 109.456Z" fill="black"/>
<path d="M36.8096 108.022H36.0713C35.9728 107.522 35.6611 107.224 35.1525 107.224C34.6439 107.224 34.4306 107.49 34.4306 107.861C34.4306 108.288 34.7915 108.457 35.3822 108.61C36.383 108.868 36.8588 109.254 36.8588 109.98C36.8588 110.785 36.1615 111.188 35.2427 111.188C34.3239 111.188 33.6676 110.785 33.5364 109.818H34.2747C34.3896 110.439 34.7915 110.656 35.2919 110.656C35.7596 110.656 36.1369 110.447 36.1369 110.036C36.1369 109.625 35.8416 109.407 35.1115 109.214C34.3321 109.005 33.7087 108.69 33.7087 107.941C33.7087 107.192 34.3157 106.692 35.2099 106.692C36.1861 106.692 36.7194 107.24 36.8096 108.022Z" fill="black"/>
<path d="M42.2322 110.463L41.9943 110.922C41.6989 111.124 41.3216 111.188 40.9032 111.188C40.1156 111.188 39.5004 110.761 39.5004 109.971C39.5004 109.005 40.2387 108.505 41.945 108.505H42.224V108.392C42.224 108.207 42.224 108.038 42.2076 107.877C42.1747 107.482 41.945 107.224 41.3626 107.224C40.7801 107.224 40.4766 107.538 40.4274 108.126H39.689C39.7547 107.216 40.4028 106.692 41.3626 106.692C42.3962 106.692 42.831 107.119 42.9049 107.82C42.9213 107.99 42.9295 108.199 42.9295 108.384V109.988C42.9295 110.31 42.9459 110.6 43.0115 111.075H42.306L42.2322 110.463ZM42.224 109.456V109.021C41.0262 108.932 40.2715 109.182 40.2715 109.915C40.2715 110.431 40.6079 110.656 41.1411 110.656C41.7974 110.656 42.224 110.229 42.224 109.456Z" fill="black"/>
<path d="M45.005 109.85C45.005 109.979 45.005 110.116 45.0133 110.253C45.0297 110.527 45.1609 110.616 45.5465 110.575V111.075C45.3906 111.099 45.2101 111.107 45.0461 111.107C44.6359 111.107 44.3324 110.978 44.3077 110.439C44.3077 110.294 44.3077 110.108 44.3077 109.875V105.153H45.0133V109.85H45.005Z" fill="black"/>
<path d="M50.9116 111.075H50.0749L49.1069 107.481L48.1388 111.075H47.3021L45.9156 106.805H46.7278L47.7368 110.414L48.6885 106.805H49.5663L50.5343 110.39L51.5433 106.805H52.2981L50.9116 111.075Z" fill="black"/>
<path d="M55.5466 110.463L55.3087 110.922C55.0134 111.124 54.636 111.188 54.2176 111.188C53.4301 111.188 52.8148 110.761 52.8148 109.971C52.8148 109.005 53.5531 108.505 55.2595 108.505H55.5384V108.392C55.5384 108.207 55.5384 108.038 55.522 107.877C55.4892 107.482 55.2595 107.224 54.677 107.224C54.0946 107.224 53.7911 107.538 53.7418 108.126H53.0035C53.0691 107.216 53.7172 106.692 54.677 106.692C55.7107 106.692 56.1455 107.119 56.2193 107.82C56.2357 107.99 56.2439 108.199 56.2439 108.384V109.988C56.2439 110.31 56.2603 110.6 56.326 111.075H55.6205L55.5466 110.463ZM55.5384 109.456V109.021C54.3407 108.932 53.586 109.182 53.586 109.915C53.586 110.431 53.9223 110.656 54.4555 110.656C55.1118 110.656 55.5384 110.229 55.5384 109.456Z" fill="black"/>
<path d="M59.4106 111.438C59.0579 112.34 58.5902 112.767 57.8847 112.767C57.7289 112.767 57.6304 112.767 57.5238 112.751V112.187C57.6304 112.187 57.7043 112.187 57.7781 112.187C58.2129 112.187 58.5 112.002 58.7215 111.438L58.7789 111.284L57.048 106.797H57.8437L59.1399 110.551L60.4279 106.797H61.199L59.4106 111.429V111.438Z" fill="black"/>
<path d="M64.8824 108.022H64.1441C64.0456 107.522 63.7339 107.224 63.2252 107.224C62.7166 107.224 62.5033 107.49 62.5033 107.861C62.5033 108.288 62.8643 108.457 63.4549 108.61C64.4558 108.868 64.9316 109.254 64.9316 109.98C64.9316 110.785 64.2343 111.188 63.3155 111.188C62.3967 111.188 61.7404 110.785 61.6091 109.818H62.3475C62.4623 110.439 62.8643 110.656 63.3647 110.656C63.8323 110.656 64.2097 110.447 64.2097 110.036C64.2097 109.625 63.9143 109.407 63.1842 109.214C62.4049 109.005 61.7814 108.69 61.7814 107.941C61.7814 107.192 62.3885 106.692 63.2827 106.692C64.2589 106.692 64.7921 107.24 64.8824 108.022Z" fill="black"/>
<path d="M72.0359 108.876C72.0359 110.455 71.0351 111.188 69.9112 111.188C69.5502 111.188 69.0908 111.083 68.8693 110.906L68.5822 110.487V111.075H67.8767V105.153H68.5822V107.49L68.9104 107.031C69.1565 106.829 69.6159 106.692 70.0589 106.692C71.3304 106.692 72.0359 107.627 72.0359 108.876ZM71.2648 108.956C71.2648 107.989 70.8218 107.224 69.9522 107.224C69.2303 107.224 68.5822 107.675 68.5822 108.9V109.133C68.5822 110.237 69.2877 110.656 69.9112 110.656C70.6741 110.656 71.2648 110.076 71.2648 108.956Z" fill="black"/>
<path d="M76.6054 109.15H73.4552C73.5208 110.278 74.0623 110.656 74.7021 110.656C75.2682 110.656 75.7276 110.31 75.826 109.698H76.5644C76.3921 110.729 75.5635 111.188 74.6693 111.188C73.5372 111.188 72.6923 110.463 72.6923 108.956C72.6923 107.571 73.57 106.692 74.7596 106.692C75.9491 106.692 76.6218 107.571 76.6218 108.819C76.6218 108.884 76.6218 108.997 76.6054 109.15ZM73.4716 108.618H75.9163C75.8507 107.732 75.4651 107.224 74.7514 107.224C74.0377 107.224 73.5536 107.708 73.4716 108.618Z" fill="black"/>
<path d="M81.2732 109.15H78.123C78.1887 110.278 78.7301 110.656 79.37 110.656C79.936 110.656 80.3954 110.31 80.4939 109.698H81.2322C81.0599 110.729 80.2314 111.188 79.3372 111.188C78.2051 111.188 77.3601 110.463 77.3601 108.956C77.3601 107.571 78.2379 106.692 79.4274 106.692C80.6169 106.692 81.2896 107.571 81.2896 108.819C81.2896 108.884 81.2896 108.997 81.2732 109.15ZM78.1394 108.618H80.5841C80.5185 107.732 80.1329 107.224 79.4192 107.224C78.7055 107.224 78.2215 107.708 78.1394 108.618Z" fill="black"/>
<path d="M86.0641 108.674V111.075H85.3586V108.723C85.3586 108.505 85.3586 108.328 85.3422 108.11C85.3012 107.611 85.0223 107.24 84.3496 107.24C83.6769 107.24 83.0944 107.74 83.0944 109.198V111.075H82.3889V106.805H83.0944V107.538L83.3651 107.047C83.7343 106.765 84.0542 106.692 84.4972 106.692C85.4489 106.692 85.9821 107.192 86.0477 107.941C86.0641 108.159 86.0641 108.328 86.0641 108.674Z" fill="black"/>
<path d="M91.7738 110.463L91.5359 110.922C91.2406 111.124 90.8632 111.188 90.4448 111.188C89.6573 111.188 89.042 110.761 89.042 109.971C89.042 109.005 89.7803 108.505 91.4867 108.505H91.7656V108.392C91.7656 108.207 91.7656 108.038 91.7492 107.877C91.7164 107.482 91.4867 107.224 90.9042 107.224C90.3218 107.224 90.0182 107.538 89.969 108.126H89.2307C89.2963 107.216 89.9444 106.692 90.9042 106.692C91.9379 106.692 92.3727 107.119 92.4465 107.82C92.4629 107.99 92.4711 108.199 92.4711 108.384V109.988C92.4711 110.31 92.4875 110.6 92.5531 111.075H91.8476L91.7738 110.463ZM91.7656 109.456V109.021C90.5679 108.932 89.8131 109.182 89.8131 109.915C89.8131 110.431 90.1495 110.656 90.6827 110.656C91.339 110.656 91.7656 110.229 91.7656 109.456Z" fill="black"/>
<path d="M99.3293 108.239H98.591C98.4351 107.554 98.0577 107.224 97.4753 107.224C96.7944 107.224 96.2201 107.748 96.2201 108.9C96.2201 110.141 96.778 110.656 97.426 110.656C98.0003 110.656 98.4023 110.334 98.5499 109.714H99.2883C99.075 110.705 98.3531 111.188 97.385 111.188C96.2857 111.188 95.449 110.511 95.449 108.948C95.449 107.506 96.4006 106.692 97.4917 106.692C98.5828 106.692 99.198 107.305 99.3293 108.239Z" fill="black"/>
<path d="M104.268 108.94C104.268 110.141 103.587 111.188 102.11 111.188C100.634 111.188 99.9528 110.141 99.9528 108.94C99.9528 107.74 100.634 106.692 102.11 106.692C103.587 106.692 104.268 107.732 104.268 108.94ZM103.497 108.94C103.497 107.933 102.988 107.224 102.11 107.224C101.233 107.224 100.724 107.933 100.724 108.94C100.724 109.947 101.233 110.656 102.11 110.656C102.988 110.656 103.497 109.939 103.497 108.94Z" fill="black"/>
<path d="M108.96 108.674V111.075H108.255V108.723C108.255 108.505 108.255 108.328 108.238 108.11C108.197 107.611 107.919 107.24 107.246 107.24C106.573 107.24 105.991 107.74 105.991 109.198V111.075H105.285V106.805H105.991V107.538L106.261 107.047C106.631 106.765 106.95 106.692 107.393 106.692C108.345 106.692 108.878 107.192 108.944 107.941C108.96 108.159 108.96 108.328 108.96 108.674Z" fill="black"/>
<path d="M113.177 108.022H112.439C112.34 107.522 112.029 107.224 111.52 107.224C111.011 107.224 110.798 107.49 110.798 107.861C110.798 108.288 111.159 108.457 111.75 108.61C112.75 108.868 113.226 109.254 113.226 109.98C113.226 110.785 112.529 111.188 111.61 111.188C110.691 111.188 110.035 110.785 109.904 109.818H110.642C110.757 110.439 111.159 110.656 111.659 110.656C112.127 110.656 112.504 110.447 112.504 110.036C112.504 109.625 112.209 109.407 111.479 109.214C110.7 109.005 110.076 108.69 110.076 107.941C110.076 107.192 110.683 106.692 111.577 106.692C112.554 106.692 113.087 107.24 113.177 108.022Z" fill="black"/>
<path d="M115.047 105.846C115.047 106.096 114.851 106.29 114.596 106.29C114.342 106.29 114.145 106.096 114.145 105.846C114.145 105.597 114.342 105.403 114.596 105.403C114.851 105.403 115.047 105.597 115.047 105.846ZM114.252 111.075V106.805H114.957V111.075H114.252Z" fill="black"/>
<path d="M119.223 108.022H118.485C118.386 107.522 118.075 107.224 117.566 107.224C117.057 107.224 116.844 107.49 116.844 107.861C116.844 108.288 117.205 108.457 117.796 108.61C118.796 108.868 119.272 109.254 119.272 109.98C119.272 110.785 118.575 111.188 117.656 111.188C116.737 111.188 116.081 110.785 115.95 109.818H116.688C116.803 110.439 117.205 110.656 117.705 110.656C118.173 110.656 118.55 110.447 118.55 110.036C118.55 109.625 118.255 109.407 117.525 109.214C116.746 109.005 116.122 108.69 116.122 107.941C116.122 107.192 116.729 106.692 117.623 106.692C118.6 106.692 119.133 107.24 119.223 108.022Z" fill="black"/>
<path d="M121.135 109.826C121.135 109.971 121.135 110.043 121.135 110.156C121.167 110.567 121.34 110.656 121.889 110.591V111.099C121.684 111.131 121.487 111.139 121.29 111.139C120.749 111.139 120.47 110.921 120.429 110.39C120.429 110.277 120.429 110.1 120.429 109.858V107.368H119.847V106.837H120.429V105.846H121.135V106.837H121.947V107.368H121.135V109.826Z" fill="black"/>
<path d="M126.467 109.15H123.317C123.382 110.278 123.924 110.656 124.564 110.656C125.13 110.656 125.589 110.31 125.687 109.698H126.426C126.254 110.729 125.425 111.188 124.531 111.188C123.399 111.188 122.554 110.463 122.554 108.956C122.554 107.571 123.432 106.692 124.621 106.692C125.811 106.692 126.483 107.571 126.483 108.819C126.483 108.884 126.483 108.997 126.467 109.15ZM123.325 108.618H125.77C125.704 107.732 125.318 107.224 124.605 107.224C123.891 107.224 123.407 107.708 123.325 108.618Z" fill="black"/>
<path d="M131.258 108.674V111.075H130.552V108.723C130.552 108.505 130.552 108.328 130.536 108.11C130.495 107.611 130.216 107.24 129.543 107.24C128.87 107.24 128.288 107.74 128.288 109.198V111.075H127.583V106.805H128.288V107.538L128.559 107.047C128.928 106.765 129.248 106.692 129.691 106.692C130.642 106.692 131.176 107.192 131.241 107.941C131.258 108.159 131.258 108.328 131.258 108.674Z" fill="black"/>
<path d="M133.456 109.826C133.456 109.971 133.456 110.043 133.456 110.156C133.489 110.567 133.662 110.656 134.211 110.591V111.099C134.006 111.131 133.809 111.139 133.612 111.139C133.071 111.139 132.792 110.921 132.751 110.39C132.751 110.277 132.751 110.1 132.751 109.858V107.368H132.168V106.837H132.751V105.846H133.456V106.837H134.269V107.368H133.456V109.826Z" fill="black"/>
<path d="M138.124 109.826C138.124 109.971 138.124 110.043 138.124 110.156C138.157 110.567 138.329 110.656 138.879 110.591V111.099C138.674 111.131 138.477 111.139 138.28 111.139C137.739 111.139 137.46 110.921 137.419 110.39C137.419 110.277 137.419 110.1 137.419 109.858V107.368H136.836V106.837H137.419V105.846H138.124V106.837H138.936V107.368H138.124V109.826Z" fill="black"/>
<path d="M143.686 108.674V111.075H142.981V108.723C142.981 108.505 142.981 108.328 142.964 108.11C142.923 107.611 142.644 107.224 141.972 107.24C141.291 107.256 140.716 107.74 140.716 109.198V111.075H140.011V105.113H140.716V107.538L140.987 107.047C141.356 106.765 141.676 106.692 142.119 106.692C143.071 106.692 143.604 107.192 143.67 107.941C143.686 108.159 143.686 108.328 143.686 108.674Z" fill="black"/>
<path d="M147.041 106.764V107.288C146.303 107.24 145.745 107.667 145.745 108.642V111.075H145.04V106.805H145.745V107.473L146.139 106.901C146.32 106.781 146.541 106.708 146.746 106.708C146.861 106.708 146.959 106.724 147.041 106.764Z" fill="black"/>
<path d="M151.365 109.15H148.215C148.28 110.278 148.822 110.656 149.462 110.656C150.028 110.656 150.487 110.31 150.585 109.698H151.324C151.151 110.729 150.323 111.188 149.429 111.188C148.297 111.188 147.452 110.463 147.452 108.956C147.452 107.571 148.329 106.692 149.519 106.692C150.708 106.692 151.381 107.571 151.381 108.819C151.381 108.884 151.381 108.997 151.365 109.15ZM148.223 108.618H150.667C150.602 107.732 150.216 107.224 149.503 107.224C148.789 107.224 148.305 107.708 148.223 108.618Z" fill="black"/>
<path d="M154.901 110.463L154.663 110.922C154.367 111.124 153.99 111.188 153.572 111.188C152.784 111.188 152.169 110.761 152.169 109.971C152.169 109.005 152.907 108.505 154.613 108.505H154.892V108.392C154.892 108.207 154.892 108.038 154.876 107.877C154.843 107.482 154.613 107.224 154.031 107.224C153.449 107.224 153.145 107.538 153.096 108.126H152.358C152.423 107.216 153.071 106.692 154.031 106.692C155.065 106.692 155.499 107.119 155.573 107.82C155.59 107.99 155.598 108.199 155.598 108.384V109.988C155.598 110.31 155.614 110.6 155.68 111.075H154.974L154.901 110.463ZM154.892 109.456V109.021C153.695 108.932 152.94 109.182 152.94 109.915C152.94 110.431 153.276 110.656 153.81 110.656C154.466 110.656 154.892 110.229 154.892 109.456Z" fill="black"/>
<path d="M160.799 111.075H160.093V110.39L159.765 110.849C159.519 111.051 159.06 111.188 158.617 111.188C157.345 111.188 156.64 110.253 156.64 109.004C156.64 107.425 157.641 106.692 158.765 106.692C159.125 106.692 159.585 106.797 159.806 106.974L160.093 107.393V105.153H160.799V111.075ZM160.093 108.98V108.747C160.093 107.643 159.388 107.224 158.765 107.224C158.002 107.224 157.411 107.804 157.411 108.924C157.411 109.891 157.854 110.656 158.723 110.656C159.445 110.656 160.093 110.205 160.093 108.98Z" fill="black"/>
<path d="M166.566 110.463L166.328 110.922C166.033 111.124 165.656 111.188 165.237 111.188C164.45 111.188 163.834 110.761 163.834 109.971C163.834 109.005 164.573 108.505 166.279 108.505H166.558V108.392C166.558 108.207 166.558 108.038 166.542 107.877C166.509 107.482 166.279 107.224 165.697 107.224C165.114 107.224 164.811 107.538 164.761 108.126H164.023C164.089 107.216 164.737 106.692 165.697 106.692C166.73 106.692 167.165 107.119 167.239 107.82C167.255 107.99 167.263 108.199 167.263 108.384V109.988C167.263 110.31 167.28 110.6 167.345 111.075H166.64L166.566 110.463ZM166.558 109.456V109.021C165.36 108.932 164.605 109.182 164.605 109.915C164.605 110.431 164.942 110.656 165.475 110.656C166.131 110.656 166.558 110.229 166.558 109.456Z" fill="black"/>
<path d="M172.341 108.674V111.075H171.636V108.723C171.636 108.505 171.636 108.328 171.62 108.11C171.579 107.611 171.3 107.24 170.627 107.24C169.954 107.24 169.372 107.74 169.372 109.198V111.075H168.666V106.805H169.372V107.538L169.642 107.047C170.012 106.765 170.332 106.692 170.775 106.692C171.726 106.692 172.259 107.192 172.325 107.941C172.341 108.159 172.341 108.328 172.341 108.674Z" fill="black"/>
<path d="M177.493 111.075H176.788V110.39L176.46 110.849C176.214 111.051 175.754 111.188 175.311 111.188C174.04 111.188 173.334 110.253 173.334 109.004C173.334 107.425 174.335 106.692 175.459 106.692C175.82 106.692 176.279 106.797 176.501 106.974L176.788 107.393V105.153H177.493V111.075ZM176.788 108.98V108.747C176.788 107.643 176.082 107.224 175.459 107.224C174.696 107.224 174.105 107.804 174.105 108.924C174.105 109.891 174.548 110.656 175.418 110.656C176.14 110.656 176.788 110.205 176.788 108.98Z" fill="black"/>
<path d="M181.644 105.846C181.644 106.096 181.447 106.29 181.193 106.29C180.939 106.29 180.742 106.096 180.742 105.846C180.742 105.597 180.939 105.403 181.193 105.403C181.447 105.403 181.644 105.597 181.644 105.846ZM180.84 111.075V106.805H181.546V111.075H180.84Z" fill="black"/>
<path d="M183.802 109.826C183.802 109.971 183.802 110.043 183.802 110.156C183.835 110.567 184.007 110.656 184.557 110.591V111.099C184.352 111.131 184.155 111.139 183.958 111.139C183.416 111.139 183.137 110.921 183.096 110.39C183.096 110.277 183.096 110.1 183.096 109.858V107.368H182.514V106.837H183.096V105.846H183.802V106.837H184.614V107.368H183.802V109.826Z" fill="black"/>
<path d="M191.784 108.876C191.784 110.455 190.783 111.188 189.659 111.188C189.298 111.188 188.839 111.083 188.617 110.906L188.33 110.487V112.654H187.625V106.805H188.33V107.49L188.658 107.031C188.905 106.829 189.364 106.692 189.807 106.692C191.078 106.692 191.784 107.627 191.784 108.876ZM191.013 108.956C191.013 107.99 190.57 107.224 189.7 107.224C188.978 107.224 188.33 107.675 188.33 108.9V109.134C188.33 110.237 189.036 110.656 189.659 110.656C190.422 110.656 191.013 110.076 191.013 108.956Z" fill="black"/>
<path d="M194.803 106.764V107.288C194.065 107.24 193.507 107.667 193.507 108.642V111.075H192.801V106.805H193.507V107.473L193.901 106.901C194.081 106.781 194.303 106.708 194.508 106.708C194.622 106.708 194.721 106.724 194.803 106.764Z" fill="black"/>
<path d="M199.528 108.94C199.528 110.141 198.847 111.188 197.371 111.188C195.894 111.188 195.213 110.141 195.213 108.94C195.213 107.74 195.894 106.692 197.371 106.692C198.847 106.692 199.528 107.732 199.528 108.94ZM198.757 108.94C198.757 107.933 198.248 107.224 197.371 107.224C196.493 107.224 195.984 107.933 195.984 108.94C195.984 109.947 196.493 110.656 197.371 110.656C198.248 110.656 198.757 109.939 198.757 108.94Z" fill="black"/>
<path d="M204.705 108.876C204.705 110.455 203.704 111.188 202.58 111.188C202.219 111.188 201.76 111.083 201.538 110.906L201.251 110.487V112.654H200.546V106.805H201.251V107.49L201.579 107.031C201.825 106.829 202.285 106.692 202.728 106.692C203.999 106.692 204.705 107.627 204.705 108.876ZM203.934 108.956C203.934 107.99 203.491 107.224 202.621 107.224C201.899 107.224 201.251 107.675 201.251 108.9V109.134C201.251 110.237 201.957 110.656 202.58 110.656C203.343 110.656 203.934 110.076 203.934 108.956Z" fill="black"/>
<path d="M209.274 109.15H206.124C206.19 110.278 206.731 110.656 207.371 110.656C207.937 110.656 208.396 110.31 208.495 109.698H209.233C209.061 110.729 208.232 111.188 207.338 111.188C206.206 111.188 205.361 110.463 205.361 108.956C205.361 107.571 206.239 106.692 207.428 106.692C208.618 106.692 209.291 107.571 209.291 108.819C209.291 108.884 209.291 108.997 209.274 109.15ZM206.132 108.618H208.577C208.511 107.732 208.126 107.224 207.412 107.224C206.698 107.224 206.214 107.708 206.132 108.618Z" fill="black"/>
<path d="M211.063 109.85C211.063 109.979 211.063 110.116 211.071 110.253C211.087 110.527 211.218 110.616 211.604 110.575V111.075C211.448 111.099 211.268 111.107 211.104 111.107C210.693 111.107 210.39 110.978 210.365 110.439C210.365 110.294 210.365 110.108 210.365 109.875V105.153H211.071V109.85H211.063Z" fill="black"/>
<path d="M215.443 108.022H214.705C214.607 107.522 214.295 107.224 213.786 107.224C213.278 107.224 213.064 107.49 213.064 107.861C213.064 108.288 213.425 108.457 214.016 108.61C215.017 108.868 215.492 109.254 215.492 109.98C215.492 110.785 214.795 111.188 213.876 111.188C212.958 111.188 212.301 110.785 212.17 109.818H212.908C213.023 110.439 213.425 110.656 213.926 110.656C214.393 110.656 214.771 110.447 214.771 110.036C214.771 109.625 214.475 109.407 213.745 109.214C212.966 109.005 212.342 108.69 212.342 107.941C212.342 107.192 212.949 106.692 213.844 106.692C214.82 106.692 215.353 107.24 215.443 108.022Z" fill="black"/>
<path d="M222.055 111.075H221.35V110.35L221.079 110.849C220.71 111.115 220.39 111.188 219.947 111.188C219.045 111.188 218.52 110.688 218.421 110.1C218.388 109.882 218.38 109.713 218.38 109.367V106.805H219.086V109.238C219.086 109.375 219.094 109.608 219.118 109.826C219.184 110.309 219.537 110.64 220.127 110.64C220.808 110.64 221.35 110.14 221.35 108.682V106.805H222.055V111.075Z" fill="black"/>
<path d="M226.329 108.022H225.591C225.493 107.522 225.181 107.224 224.672 107.224C224.164 107.224 223.95 107.49 223.95 107.861C223.95 108.288 224.311 108.457 224.902 108.61C225.903 108.868 226.379 109.254 226.379 109.98C226.379 110.785 225.681 111.188 224.763 111.188C223.844 111.188 223.187 110.785 223.056 109.818H223.794C223.909 110.439 224.311 110.656 224.812 110.656C225.279 110.656 225.657 110.447 225.657 110.036C225.657 109.625 225.361 109.407 224.631 109.214C223.852 109.005 223.228 108.69 223.228 107.941C223.228 107.192 223.836 106.692 224.73 106.692C225.706 106.692 226.239 107.24 226.329 108.022Z" fill="black"/>
<path d="M230.07 106.418V106.837H230.965V107.369H230.07V111.075H229.365V107.369H228.897V106.837H229.365V106.482C229.365 106.321 229.365 106.112 229.389 105.967C229.463 105.346 229.89 105 230.538 105C230.718 105 230.891 105.016 231.038 105.04V105.612C230.505 105.516 230.152 105.636 230.095 105.983C230.079 106.096 230.07 106.297 230.07 106.418Z" fill="black"/>
<path d="M235.829 108.94C235.829 110.141 235.148 111.188 233.672 111.188C232.195 111.188 231.514 110.141 231.514 108.94C231.514 107.74 232.195 106.692 233.672 106.692C235.148 106.692 235.829 107.732 235.829 108.94ZM235.058 108.94C235.058 107.933 234.55 107.224 233.672 107.224C232.794 107.224 232.285 107.933 232.285 108.94C232.285 109.947 232.794 110.656 233.672 110.656C234.55 110.656 235.058 109.939 235.058 108.94Z" fill="black"/>
<path d="M238.848 106.764V107.288C238.11 107.24 237.552 107.667 237.552 108.642V111.075H236.846V106.805H237.552V107.473L237.946 106.901C238.126 106.781 238.348 106.708 238.553 106.708C238.668 106.708 238.766 106.724 238.848 106.764Z" fill="black"/>
<path d="M244.115 111.075H243.278L242.31 107.481L241.342 111.075H240.505L239.119 106.805H239.931L240.94 110.414L241.892 106.805H242.769L243.738 110.39L244.747 106.805H245.501L244.115 111.075Z" fill="black"/>
<path d="M248.742 110.463L248.504 110.922C248.208 111.124 247.831 111.188 247.413 111.188C246.625 111.188 246.01 110.761 246.01 109.971C246.01 109.005 246.748 108.505 248.455 108.505H248.733V108.392C248.733 108.207 248.733 108.038 248.717 107.877C248.684 107.482 248.455 107.224 247.872 107.224C247.29 107.224 246.986 107.538 246.937 108.126H246.199C246.264 107.216 246.912 106.692 247.872 106.692C248.906 106.692 249.341 107.119 249.414 107.82C249.431 107.99 249.439 108.199 249.439 108.384V109.988C249.439 110.31 249.455 110.6 249.521 111.075H248.816L248.742 110.463ZM248.733 109.456V109.021C247.536 108.932 246.781 109.182 246.781 109.915C246.781 110.431 247.117 110.656 247.651 110.656C248.307 110.656 248.733 110.229 248.733 109.456Z" fill="black"/>
<path d="M252.843 106.764V107.288C252.105 107.24 251.547 107.667 251.547 108.642V111.075H250.842V106.805H251.547V107.473L251.941 106.901C252.122 106.781 252.343 106.708 252.548 106.708C252.663 106.708 252.761 106.724 252.843 106.764Z" fill="black"/>
<path d="M257.413 111.075H256.707V110.39L256.379 110.849C256.133 111.051 255.674 111.188 255.231 111.188C253.959 111.188 253.254 110.253 253.254 109.004C253.254 107.425 254.254 106.692 255.378 106.692C255.739 106.692 256.199 106.797 256.42 106.974L256.707 107.393V105.153H257.413V111.075ZM256.707 108.98V108.747C256.707 107.643 256.002 107.224 255.378 107.224C254.615 107.224 254.025 107.804 254.025 108.924C254.025 109.891 254.468 110.656 255.337 110.656C256.059 110.656 256.707 110.205 256.707 108.98Z" fill="black"/>
<path d="M261.605 109.826C261.605 109.971 261.605 110.043 261.605 110.156C261.638 110.567 261.81 110.656 262.36 110.591V111.099C262.155 111.131 261.958 111.139 261.761 111.139C261.219 111.139 260.94 110.921 260.899 110.39C260.899 110.277 260.899 110.1 260.899 109.858V107.368H260.317V106.837H260.899V105.846H261.605V106.837H262.417V107.368H261.605V109.826Z" fill="black"/>
<path d="M267.339 108.94C267.339 110.141 266.658 111.188 265.182 111.188C263.705 111.188 263.024 110.141 263.024 108.94C263.024 107.74 263.705 106.692 265.182 106.692C266.658 106.692 267.339 107.732 267.339 108.94ZM266.568 108.94C266.568 107.933 266.06 107.224 265.182 107.224C264.304 107.224 263.795 107.933 263.795 108.94C263.795 109.947 264.304 110.656 265.182 110.656C266.06 110.656 266.568 109.939 266.568 108.94Z" fill="black"/>
<path d="M272.155 111.075H271.449V110.39L271.121 110.849C270.875 111.051 270.416 111.188 269.973 111.188C268.701 111.188 267.996 110.253 267.996 109.004C267.996 107.425 268.996 106.692 270.12 106.692C270.481 106.692 270.941 106.797 271.162 106.974L271.449 107.393V105.153H272.155V111.075ZM271.449 108.98V108.747C271.449 107.643 270.744 107.224 270.12 107.224C269.357 107.224 268.767 107.804 268.767 108.924C268.767 109.891 269.21 110.656 270.079 110.656C270.801 110.656 271.449 110.205 271.449 108.98Z" fill="black"/>
<path d="M275.986 110.463L275.748 110.922C275.453 111.124 275.075 111.188 274.657 111.188C273.869 111.188 273.254 110.761 273.254 109.971C273.254 109.005 273.992 108.505 275.699 108.505H275.978V108.392C275.978 108.207 275.978 108.038 275.961 107.877C275.929 107.482 275.699 107.224 275.116 107.224C274.534 107.224 274.23 107.538 274.181 108.126H273.443C273.508 107.216 274.157 106.692 275.116 106.692C276.15 106.692 276.585 107.119 276.659 107.82C276.675 107.99 276.683 108.199 276.683 108.384V109.988C276.683 110.31 276.7 110.6 276.765 111.075H276.06L275.986 110.463ZM275.978 109.456V109.021C274.78 108.932 274.025 109.182 274.025 109.915C274.025 110.431 274.362 110.656 274.895 110.656C275.551 110.656 275.978 110.229 275.978 109.456Z" fill="black"/>
<path d="M279.85 111.438C279.497 112.34 279.029 112.767 278.324 112.767C278.168 112.767 278.07 112.767 277.963 112.751V112.187C278.07 112.187 278.143 112.187 278.217 112.187C278.652 112.187 278.939 112.002 279.161 111.438L279.218 111.284L277.487 106.797H278.283L279.579 110.551L280.867 106.797H281.638L279.85 111.429V111.438Z" fill="black"/>
<path d="M282.262 112.033H281.597L282.237 110.261H283V110.341L282.262 112.033Z" fill="black"/>
<path d="M47.6876 127.695L47.4497 128.155C47.1544 128.356 46.777 128.42 46.3586 128.42C45.5711 128.42 44.9558 127.993 44.9558 127.204C44.9558 126.237 45.6941 125.738 47.4005 125.738H47.6794V125.625C47.6794 125.439 47.6794 125.27 47.663 125.109C47.6302 124.714 47.4005 124.457 46.818 124.457C46.2356 124.457 45.932 124.771 45.8828 125.359H45.1445C45.2101 124.448 45.8582 123.925 46.818 123.925C47.8517 123.925 48.2865 124.352 48.3603 125.053C48.3767 125.222 48.3849 125.431 48.3849 125.617V127.22C48.3849 127.542 48.4013 127.832 48.467 128.308H47.7614L47.6876 127.695ZM47.6794 126.688V126.253C46.4817 126.165 45.727 126.414 45.727 127.147C45.727 127.663 46.0633 127.889 46.5965 127.889C47.2528 127.889 47.6794 127.462 47.6794 126.688Z" fill="black"/>
<path d="M52.6508 125.254H51.9125C51.814 124.755 51.5023 124.457 50.9937 124.457C50.4851 124.457 50.2718 124.722 50.2718 125.093C50.2718 125.52 50.6327 125.689 51.2234 125.842C52.2242 126.1 52.7 126.487 52.7 127.212C52.7 128.018 52.0027 128.42 51.0839 128.42C50.1651 128.42 49.5088 128.018 49.3776 127.051H50.1159C50.2307 127.671 50.6327 127.889 51.1331 127.889C51.6007 127.889 51.9781 127.679 51.9781 127.268C51.9781 126.857 51.6828 126.64 50.9527 126.447C50.1733 126.237 49.5498 125.923 49.5498 125.174C49.5498 124.424 50.1569 123.925 51.0511 123.925C52.0273 123.925 52.5606 124.473 52.6508 125.254Z" fill="black"/>
<path d="M60.0504 128.308H59.2137L58.2456 124.715L57.2776 128.308H56.4409L55.0544 124.038H55.8666L56.8756 127.647L57.8273 124.038H58.705L59.6731 127.623L60.6821 124.038H61.4369L60.0504 128.308Z" fill="black"/>
<path d="M65.8094 126.382H62.6592C62.7248 127.51 63.2662 127.889 63.9061 127.889C64.4722 127.889 64.9316 127.542 65.03 126.93H65.7683C65.5961 127.961 64.7675 128.42 63.8733 128.42C62.7412 128.42 61.8962 127.695 61.8962 126.189C61.8962 124.803 62.774 123.925 63.9636 123.925C65.1531 123.925 65.8258 124.803 65.8258 126.052C65.8258 126.116 65.8258 126.229 65.8094 126.382ZM62.6674 125.85H65.1121C65.0464 124.964 64.6609 124.457 63.9471 124.457C63.2334 124.457 62.7494 124.94 62.6674 125.85Z" fill="black"/>
<path d="M72.3804 125.472H71.6421C71.4862 124.787 71.1089 124.457 70.5264 124.457C69.8455 124.457 69.2713 124.98 69.2713 126.132C69.2713 127.373 69.8291 127.889 70.4772 127.889C71.0514 127.889 71.4534 127.566 71.6011 126.946H72.3394C72.1261 127.937 71.4042 128.42 70.4362 128.42C69.3369 128.42 68.5001 127.744 68.5001 126.181C68.5001 124.739 69.4517 123.925 70.5428 123.925C71.6339 123.925 72.2492 124.537 72.3804 125.472Z" fill="black"/>
<path d="M77.319 126.173C77.319 127.373 76.6381 128.42 75.1615 128.42C73.6848 128.42 73.0039 127.373 73.0039 126.173C73.0039 124.972 73.6848 123.925 75.1615 123.925C76.6381 123.925 77.319 124.964 77.319 126.173ZM76.5479 126.173C76.5479 125.166 76.0392 124.457 75.1615 124.457C74.2837 124.457 73.775 125.166 73.775 126.173C73.775 127.18 74.2837 127.889 75.1615 127.889C76.0392 127.889 76.5479 127.172 76.5479 126.173Z" fill="black"/>
<path d="M82.0115 125.907V128.308H81.306V125.955C81.306 125.738 81.306 125.56 81.2896 125.343C81.2486 124.843 80.9697 124.473 80.297 124.473C79.6243 124.473 79.0418 124.972 79.0418 126.43V128.308H78.3363V124.038H79.0418V124.771L79.3125 124.279C79.6817 123.997 80.0016 123.925 80.4446 123.925C81.3963 123.925 81.9295 124.424 81.9951 125.174C82.0115 125.391 82.0115 125.56 82.0115 125.907Z" fill="black"/>
<path d="M84.2101 127.059C84.2101 127.204 84.2101 127.277 84.2101 127.389C84.2429 127.8 84.4152 127.889 84.9648 127.825V128.332C84.7597 128.364 84.5628 128.372 84.366 128.372C83.8245 128.372 83.5456 128.155 83.5046 127.623C83.5046 127.51 83.5046 127.333 83.5046 127.091V124.602H82.9221V124.07H83.5046V123.079H84.2101V124.07H85.0222V124.602H84.2101V127.059Z" fill="black"/>
<path d="M86.9008 123.079C86.9008 123.329 86.7039 123.522 86.4496 123.522C86.1953 123.522 85.9984 123.329 85.9984 123.079C85.9984 122.829 86.1953 122.636 86.4496 122.636C86.7039 122.636 86.9008 122.829 86.9008 123.079ZM86.0969 128.308V124.038H86.8024V128.308H86.0969Z" fill="black"/>
<path d="M91.8886 125.907V128.308H91.1831V125.955C91.1831 125.738 91.1831 125.56 91.1667 125.343C91.1257 124.843 90.8467 124.473 90.174 124.473C89.5013 124.473 88.9189 124.972 88.9189 126.43V128.308H88.2134V124.038H88.9189V124.771L89.1896 124.279C89.5588 123.997 89.8787 123.925 90.3217 123.925C91.2733 123.925 91.8066 124.424 91.8722 125.174C91.8886 125.391 91.8886 125.56 91.8886 125.907Z" fill="black"/>
<path d="M96.8519 128.308H96.1463V127.583L95.8756 128.083C95.5065 128.348 95.1865 128.421 94.7435 128.421C93.8411 128.421 93.3161 127.921 93.2177 127.333C93.1848 127.116 93.1766 126.947 93.1766 126.6V124.038H93.8821V126.471C93.8821 126.608 93.8904 126.842 93.915 127.059C93.9806 127.543 94.3333 127.873 94.924 127.873C95.6049 127.873 96.1463 127.374 96.1463 125.915V124.038H96.8519V128.308Z" fill="black"/>
<path d="M101.815 126.382H98.6648C98.7304 127.51 99.2719 127.889 99.9117 127.889C100.478 127.889 100.937 127.542 101.036 126.93H101.774C101.602 127.961 100.773 128.42 99.8789 128.42C98.7468 128.42 97.9019 127.695 97.9019 126.189C97.9019 124.803 98.7796 123.925 99.9692 123.925C101.159 123.925 101.831 124.803 101.831 126.052C101.831 126.116 101.831 126.229 101.815 126.382ZM98.673 125.85H101.118C101.052 124.964 100.666 124.457 99.9528 124.457C99.239 124.457 98.755 124.94 98.673 125.85Z" fill="black"/>
<path d="M105.712 127.059C105.712 127.204 105.712 127.277 105.712 127.389C105.745 127.8 105.917 127.889 106.467 127.825V128.332C106.261 128.364 106.065 128.372 105.868 128.372C105.326 128.372 105.047 128.155 105.006 127.623C105.006 127.51 105.006 127.333 105.006 127.091V124.602H104.424V124.07H105.006V123.079H105.712V124.07H106.524V124.602H105.712V127.059Z" fill="black"/>
<path d="M111.446 126.173C111.446 127.373 110.765 128.42 109.289 128.42C107.812 128.42 107.131 127.373 107.131 126.173C107.131 124.972 107.812 123.925 109.289 123.925C110.765 123.925 111.446 124.964 111.446 126.173ZM110.675 126.173C110.675 125.166 110.166 124.457 109.289 124.457C108.411 124.457 107.902 125.166 107.902 126.173C107.902 127.18 108.411 127.889 109.289 127.889C110.166 127.889 110.675 127.172 110.675 126.173Z" fill="black"/>
<path d="M118.198 127.26C118.198 127.526 118.198 127.856 118.189 128.09C118.148 129.339 117.377 130 116.122 130C114.867 130 114.268 129.492 114.178 128.59V128.509H114.883V128.582C114.949 129.105 115.376 129.468 116.122 129.468C116.983 129.468 117.451 128.984 117.484 128.163C117.484 127.961 117.484 127.824 117.484 127.695V127.623L117.156 128.082C116.91 128.283 116.45 128.42 116.007 128.42C114.736 128.42 114.03 127.486 114.03 126.237C114.03 124.658 115.031 123.925 116.155 123.925C116.516 123.925 116.975 124.03 117.197 124.207L117.484 124.626V124.038H118.189V127.26H118.198ZM117.492 126.213V125.979C117.492 124.875 116.787 124.457 116.163 124.457C115.4 124.457 114.809 125.037 114.809 126.157C114.809 127.123 115.252 127.889 116.122 127.889C116.844 127.889 117.492 127.438 117.492 126.213Z" fill="black"/>
<path d="M121.61 123.998V124.521C120.872 124.473 120.314 124.9 120.314 125.875V128.308H119.609V124.038H120.314V124.707L120.708 124.135C120.888 124.014 121.11 123.941 121.315 123.941C121.43 123.941 121.528 123.958 121.61 123.998Z" fill="black"/>
<path d="M126.336 126.173C126.336 127.373 125.655 128.42 124.178 128.42C122.701 128.42 122.021 127.373 122.021 126.173C122.021 124.972 122.701 123.925 124.178 123.925C125.655 123.925 126.336 124.964 126.336 126.173ZM125.564 126.173C125.564 125.166 125.056 124.457 124.178 124.457C123.3 124.457 122.792 125.166 122.792 126.173C122.792 127.18 123.3 127.889 124.178 127.889C125.056 127.889 125.564 127.172 125.564 126.173Z" fill="black"/>
<path d="M131.75 128.308H130.913L129.945 124.715L128.977 128.308H128.14L126.754 124.038H127.566L128.575 127.647L129.527 124.038H130.405L131.373 127.623L132.382 124.038H133.136L131.75 128.308Z" fill="black"/>
<path d="M139.691 127.26C139.691 127.526 139.691 127.856 139.683 128.09C139.642 129.339 138.871 130 137.616 130C136.36 130 135.762 129.492 135.671 128.59V128.509H136.377V128.582C136.442 129.105 136.869 129.468 137.616 129.468C138.477 129.468 138.945 128.984 138.977 128.163C138.977 127.961 138.977 127.824 138.977 127.695V127.623L138.649 128.082C138.403 128.283 137.944 128.42 137.501 128.42C136.229 128.42 135.524 127.486 135.524 126.237C135.524 124.658 136.525 123.925 137.648 123.925C138.009 123.925 138.469 124.03 138.69 124.207L138.977 124.626V124.038H139.683V127.26H139.691ZM138.986 126.213V125.979C138.986 124.875 138.28 124.457 137.657 124.457C136.894 124.457 136.303 125.037 136.303 126.157C136.303 127.123 136.746 127.889 137.616 127.889C138.338 127.889 138.986 127.438 138.986 126.213Z" fill="black"/>
<path d="M141.775 127.084C141.775 127.213 141.775 127.35 141.783 127.487C141.799 127.761 141.931 127.849 142.316 127.809V128.308C142.16 128.333 141.98 128.341 141.816 128.341C141.406 128.341 141.102 128.212 141.078 127.672C141.078 127.527 141.078 127.342 141.078 127.108V122.387H141.783V127.084H141.775Z" fill="black"/>
<path d="M147.247 126.173C147.247 127.373 146.566 128.42 145.089 128.42C143.612 128.42 142.932 127.373 142.932 126.173C142.932 124.972 143.612 123.925 145.089 123.925C146.566 123.925 147.247 124.964 147.247 126.173ZM146.475 126.173C146.475 125.166 145.967 124.457 145.089 124.457C144.211 124.457 143.703 125.166 143.703 126.173C143.703 127.18 144.211 127.889 145.089 127.889C145.967 127.889 146.475 127.172 146.475 126.173Z" fill="black"/>
<path d="M152.423 126.109C152.423 127.688 151.422 128.421 150.298 128.421C149.937 128.421 149.478 128.316 149.257 128.139L148.969 127.72V128.308H148.264V122.387H148.969V124.723L149.298 124.264C149.544 124.063 150.003 123.926 150.446 123.926C151.718 123.926 152.423 124.86 152.423 126.109ZM151.652 126.189C151.652 125.223 151.209 124.457 150.339 124.457C149.618 124.457 148.969 124.908 148.969 126.133V126.367C148.969 127.471 149.675 127.889 150.298 127.889C151.061 127.889 151.652 127.309 151.652 126.189Z" fill="black"/>
<path d="M155.86 127.695L155.623 128.155C155.327 128.356 154.95 128.42 154.531 128.42C153.744 128.42 153.129 127.993 153.129 127.204C153.129 126.237 153.867 125.738 155.573 125.738H155.852V125.625C155.852 125.439 155.852 125.27 155.836 125.109C155.803 124.714 155.573 124.457 154.991 124.457C154.408 124.457 154.105 124.771 154.056 125.359H153.317C153.383 124.448 154.031 123.925 154.991 123.925C156.025 123.925 156.459 124.352 156.533 125.053C156.55 125.222 156.558 125.431 156.558 125.617V127.22C156.558 127.542 156.574 127.832 156.64 128.308H155.934L155.86 127.695ZM155.852 126.688V126.253C154.655 126.165 153.9 126.414 153.9 127.147C153.9 127.663 154.236 127.889 154.769 127.889C155.426 127.889 155.852 127.462 155.852 126.688Z" fill="black"/>
<path d="M158.633 127.084C158.633 127.213 158.633 127.35 158.641 127.487C158.658 127.761 158.789 127.849 159.175 127.809V128.308C159.019 128.333 158.838 128.341 158.674 128.341C158.264 128.341 157.961 128.212 157.936 127.672C157.936 127.527 157.936 127.342 157.936 127.108V122.387H158.641V127.084H158.633Z" fill="black"/>
<path d="M160.824 127.084C160.824 127.213 160.824 127.35 160.832 127.487C160.848 127.761 160.98 127.849 161.365 127.809V128.308C161.209 128.333 161.029 128.341 160.865 128.341C160.454 128.341 160.151 128.212 160.126 127.672C160.126 127.527 160.126 127.342 160.126 127.108V122.387H160.832V127.084H160.824Z" fill="black"/>
<path d="M164.105 128.671C163.752 129.573 163.285 130 162.579 130C162.423 130 162.325 130 162.218 129.984V129.42C162.325 129.42 162.399 129.42 162.473 129.42C162.907 129.42 163.194 129.235 163.416 128.671L163.473 128.518L161.742 124.03H162.538L163.834 127.785L165.122 124.03H165.893L164.105 128.663V128.671Z" fill="black"/>
<path d="M166.517 129.274H165.852L166.492 127.502H167.255V127.583L166.517 129.274Z" fill="black"/>
<path d="M173.039 127.695L172.801 128.155C172.506 128.356 172.128 128.42 171.71 128.42C170.922 128.42 170.307 127.993 170.307 127.204C170.307 126.237 171.045 125.738 172.752 125.738H173.031V125.625C173.031 125.439 173.031 125.27 173.014 125.109C172.981 124.714 172.752 124.457 172.169 124.457C171.587 124.457 171.283 124.771 171.234 125.359H170.496C170.561 124.448 171.209 123.925 172.169 123.925C173.203 123.925 173.638 124.352 173.712 125.053C173.728 125.222 173.736 125.431 173.736 125.617V127.22C173.736 127.542 173.753 127.832 173.818 128.308H173.113L173.039 127.695ZM173.031 126.688V126.253C171.833 126.165 171.078 126.414 171.078 127.147C171.078 127.663 171.414 127.889 171.948 127.889C172.604 127.889 173.031 127.462 173.031 126.688Z" fill="black"/>
<path d="M178.814 125.907V128.308H178.109V125.955C178.109 125.738 178.109 125.56 178.092 125.343C178.051 124.843 177.772 124.473 177.1 124.473C176.427 124.473 175.844 124.972 175.844 126.43V128.308H175.139V124.038H175.844V124.771L176.115 124.279C176.484 123.997 176.804 123.925 177.247 123.925C178.199 123.925 178.732 124.424 178.798 125.174C178.814 125.391 178.814 125.56 178.814 125.907Z" fill="black"/>
<path d="M183.966 128.308H183.26V127.624L182.932 128.083C182.686 128.284 182.227 128.421 181.784 128.421C180.512 128.421 179.807 127.487 179.807 126.238C179.807 124.659 180.808 123.926 181.932 123.926C182.292 123.926 182.752 124.03 182.973 124.208L183.26 124.626V122.387H183.966V128.308ZM183.26 126.214V125.98C183.26 124.876 182.555 124.457 181.932 124.457C181.169 124.457 180.578 125.037 180.578 126.157C180.578 127.124 181.021 127.889 181.89 127.889C182.612 127.889 183.26 127.438 183.26 126.214Z" fill="black"/>
<path d="M188.158 127.059C188.158 127.204 188.158 127.277 188.158 127.389C188.191 127.8 188.363 127.889 188.913 127.825V128.332C188.708 128.364 188.511 128.372 188.314 128.372C187.773 128.372 187.494 128.155 187.453 127.623C187.453 127.51 187.453 127.333 187.453 127.091V124.602H186.87V124.07H187.453V123.079H188.158V124.07H188.97V124.602H188.158V127.059Z" fill="black"/>
<path d="M193.72 125.907V128.308H193.015V125.955C193.015 125.738 193.015 125.56 192.998 125.343C192.957 124.843 192.678 124.457 192.006 124.473C191.325 124.489 190.75 124.972 190.75 126.43V128.308H190.045V122.346H190.75V124.771L191.021 124.279C191.39 123.997 191.71 123.925 192.153 123.925C193.105 123.925 193.638 124.424 193.704 125.174C193.72 125.391 193.72 125.56 193.72 125.907Z" fill="black"/>
<path d="M197.494 127.695L197.256 128.155C196.961 128.356 196.583 128.42 196.165 128.42C195.377 128.42 194.762 127.993 194.762 127.204C194.762 126.237 195.5 125.738 197.207 125.738H197.486V125.625C197.486 125.439 197.486 125.27 197.469 125.109C197.436 124.714 197.207 124.457 196.624 124.457C196.042 124.457 195.738 124.771 195.689 125.359H194.951C195.016 124.448 195.664 123.925 196.624 123.925C197.658 123.925 198.093 124.352 198.166 125.053C198.183 125.222 198.191 125.431 198.191 125.617V127.22C198.191 127.542 198.207 127.832 198.273 128.308H197.568L197.494 127.695ZM197.486 126.688V126.253C196.288 126.165 195.533 126.414 195.533 127.147C195.533 127.663 195.869 127.889 196.403 127.889C197.059 127.889 197.486 127.462 197.486 126.688Z" fill="black"/>
<path d="M200.439 127.059C200.439 127.204 200.439 127.277 200.439 127.389C200.472 127.8 200.644 127.889 201.194 127.825V128.332C200.988 128.364 200.792 128.372 200.595 128.372C200.053 128.372 199.774 128.155 199.733 127.623C199.733 127.51 199.733 127.333 199.733 127.091V124.602H199.151V124.07H199.733V123.079H200.439V124.07H201.251V124.602H200.439V127.059Z" fill="black"/>
<path d="M202.531 124.401H201.899L202.539 122.387H203.302V122.467L202.531 124.401Z" fill="black"/>
<path d="M207.371 125.254H206.633C206.534 124.755 206.222 124.457 205.714 124.457C205.205 124.457 204.992 124.722 204.992 125.093C204.992 125.52 205.353 125.689 205.943 125.842C206.944 126.1 207.42 126.487 207.42 127.212C207.42 128.018 206.723 128.42 205.804 128.42C204.885 128.42 204.229 128.018 204.098 127.051H204.836C204.951 127.671 205.353 127.889 205.853 127.889C206.321 127.889 206.698 127.679 206.698 127.268C206.698 126.857 206.403 126.64 205.673 126.447C204.893 126.237 204.27 125.923 204.27 125.174C204.27 124.424 204.877 123.925 205.771 123.925C206.747 123.925 207.281 124.473 207.371 125.254Z" fill="black"/>
<path d="M213.236 125.254H212.498C212.4 124.755 212.088 124.457 211.579 124.457C211.071 124.457 210.857 124.722 210.857 125.093C210.857 125.52 211.218 125.689 211.809 125.842C212.81 126.1 213.286 126.487 213.286 127.212C213.286 128.018 212.588 128.42 211.67 128.42C210.751 128.42 210.095 128.018 209.963 127.051H210.702C210.816 127.671 211.218 127.889 211.719 127.889C212.186 127.889 212.564 127.679 212.564 127.268C212.564 126.857 212.268 126.64 211.538 126.447C210.759 126.237 210.136 125.923 210.136 125.174C210.136 124.424 210.743 123.925 211.637 123.925C212.613 123.925 213.146 124.473 213.236 125.254Z" fill="black"/>
<path d="M217.855 126.382H214.705C214.771 127.51 215.312 127.889 215.952 127.889C216.518 127.889 216.977 127.542 217.076 126.93H217.814C217.642 127.961 216.813 128.42 215.919 128.42C214.787 128.42 213.942 127.695 213.942 126.189C213.942 124.803 214.82 123.925 216.009 123.925C217.199 123.925 217.872 124.803 217.872 126.052C217.872 126.116 217.872 126.229 217.855 126.382ZM214.721 125.85H217.166C217.1 124.964 216.715 124.457 216.001 124.457C215.287 124.457 214.803 124.94 214.721 125.85Z" fill="black"/>
<path d="M220.972 123.998V124.521C220.234 124.473 219.676 124.9 219.676 125.875V128.308H218.971V124.038H219.676V124.707L220.07 124.135C220.251 124.014 220.472 123.941 220.677 123.941C220.792 123.941 220.89 123.958 220.972 123.998Z" fill="black"/>
<path d="M223.753 128.308H222.892L221.243 124.038H222.023L223.351 127.801L224.656 124.038H225.402L223.753 128.308Z" fill="black"/>
<path d="M227.035 123.079C227.035 123.329 226.838 123.522 226.584 123.522C226.329 123.522 226.133 123.329 226.133 123.079C226.133 122.829 226.329 122.636 226.584 122.636C226.838 122.636 227.035 122.829 227.035 123.079ZM226.231 128.308V124.038H226.937V128.308H226.231Z" fill="black"/>
<path d="M231.859 125.472H231.12C230.965 124.787 230.587 124.457 230.005 124.457C229.324 124.457 228.75 124.98 228.75 126.132C228.75 127.373 229.307 127.889 229.955 127.889C230.53 127.889 230.932 127.566 231.079 126.946H231.818C231.604 127.937 230.882 128.42 229.914 128.42C228.815 128.42 227.978 127.744 227.978 126.181C227.978 124.739 228.93 123.925 230.021 123.925C231.112 123.925 231.727 124.537 231.859 125.472Z" fill="black"/>
<path d="M236.395 126.382H233.245C233.311 127.51 233.852 127.889 234.492 127.889C235.058 127.889 235.517 127.542 235.616 126.93H236.354C236.182 127.961 235.353 128.42 234.459 128.42C233.327 128.42 232.482 127.695 232.482 126.189C232.482 124.803 233.36 123.925 234.549 123.925C235.739 123.925 236.412 124.803 236.412 126.052C236.412 126.116 236.412 126.229 236.395 126.382ZM233.262 125.85H235.706C235.641 124.964 235.255 124.457 234.541 124.457C233.828 124.457 233.344 124.94 233.262 125.85Z" fill="black"/>
<path d="M238.266 127.905C238.266 128.203 238.044 128.421 237.741 128.421C237.437 128.421 237.216 128.203 237.216 127.905C237.216 127.607 237.437 127.39 237.741 127.39C238.044 127.39 238.266 127.607 238.266 127.905Z" fill="black"/>
</svg>
