<svg width="776" height="172" viewBox="0 0 776 172" fill="none" xmlns="http://www.w3.org/2000/svg">
<g clip-path="url(#clip0_6_1362)">
<path d="M5.91 119.39V130.43H4.38V119.39H0V118.14H10.29V119.39H5.91Z" fill="black"/>
<path d="M19.89 125.12V130.43H18.36V125.23C18.36 124.75 18.36 124.36 18.32 123.88C18.23 122.78 17.63 121.92 16.17 121.96C14.69 122 13.45 123.06 13.45 126.29V130.44H11.92V117.25H13.45V122.61L14.04 121.52C14.84 120.9 15.54 120.74 16.5 120.74C18.57 120.74 19.72 121.84 19.87 123.5C19.91 123.98 19.91 124.35 19.91 125.12H19.89Z" fill="black"/>
<path d="M30.89 126.17H24.05C24.19 128.66 25.37 129.5 26.76 129.5C27.99 129.5 28.99 128.73 29.2 127.38H30.8C30.43 129.66 28.63 130.67 26.69 130.67C24.23 130.67 22.4 129.07 22.4 125.74C22.4 122.68 24.31 120.74 26.89 120.74C29.47 120.74 30.93 122.68 30.93 125.44C30.93 125.58 30.93 125.83 30.89 126.17ZM24.07 125H29.38C29.24 123.04 28.4 121.92 26.85 121.92C25.3 121.92 24.25 122.99 24.07 125Z" fill="black"/>
<path d="M38.01 120.9V122.06C36.41 121.95 35.2 122.9 35.2 125.05V130.43H33.67V120.99H35.2V122.47L36.05 121.21C36.44 120.94 36.92 120.78 37.37 120.78C37.62 120.78 37.83 120.82 38.01 120.9Z" fill="black"/>
<path d="M47.75 126.17H40.91C41.05 128.66 42.23 129.5 43.62 129.5C44.85 129.5 45.85 128.73 46.06 127.38H47.66C47.29 129.66 45.49 130.67 43.55 130.67C41.09 130.67 39.26 129.07 39.26 125.74C39.26 122.68 41.17 120.74 43.75 120.74C46.33 120.74 47.79 122.68 47.79 125.44C47.79 125.58 47.79 125.83 47.75 126.17ZM40.93 125H46.24C46.1 123.04 45.26 121.92 43.71 121.92C42.16 121.92 41.11 122.99 40.93 125Z" fill="black"/>
<path d="M63.06 125.12V130.43H61.53V125.23C61.53 124.75 61.53 124.36 61.49 123.88C61.4 122.78 60.8 121.92 59.34 121.96C57.86 122 56.62 123.06 56.62 126.29V130.44H55.09V117.25H56.62V122.61L57.21 121.52C58.01 120.9 58.71 120.74 59.67 120.74C61.74 120.74 62.89 121.84 63.04 123.5C63.08 123.98 63.08 124.35 63.08 125.12H63.06Z" fill="black"/>
<path d="M71.61 129.07L71.09 130.09C70.45 130.54 69.63 130.68 68.72 130.68C67.01 130.68 65.68 129.74 65.68 127.99C65.68 125.85 67.28 124.75 70.99 124.75H71.6V124.5C71.6 124.09 71.6 123.72 71.56 123.36C71.49 122.49 70.99 121.92 69.73 121.92C68.47 121.92 67.81 122.61 67.7 123.91H66.1C66.24 121.9 67.65 120.74 69.73 120.74C71.97 120.74 72.92 121.68 73.08 123.23C73.12 123.6 73.13 124.07 73.13 124.48V128.02C73.13 128.73 73.17 129.37 73.31 130.42H71.78L71.62 129.07H71.61ZM71.59 126.85V125.89C68.99 125.69 67.35 126.25 67.35 127.87C67.35 129.01 68.08 129.51 69.24 129.51C70.66 129.51 71.59 128.57 71.59 126.86V126.85Z" fill="black"/>
<path d="M82.74 123.68H81.14C80.93 122.58 80.25 121.92 79.15 121.92C78.05 121.92 77.58 122.51 77.58 123.33C77.58 124.27 78.36 124.65 79.65 124.99C81.82 125.56 82.86 126.41 82.86 128.02C82.86 129.8 81.35 130.69 79.35 130.69C77.35 130.69 75.93 129.8 75.65 127.66H77.25C77.5 129.03 78.37 129.51 79.46 129.51C80.48 129.51 81.29 129.05 81.29 128.14C81.29 127.23 80.65 126.75 79.06 126.32C77.37 125.86 76.01 125.16 76.01 123.51C76.01 121.86 77.33 120.75 79.27 120.75C81.39 120.75 82.55 121.96 82.74 123.69V123.68Z" fill="black"/>
<path d="M95.22 129.07L94.7 130.09C94.06 130.54 93.24 130.68 92.33 130.68C90.62 130.68 89.29 129.74 89.29 127.99C89.29 125.85 90.89 124.75 94.6 124.75H95.21V124.5C95.21 124.09 95.21 123.72 95.17 123.36C95.1 122.49 94.6 121.92 93.34 121.92C92.08 121.92 91.42 122.61 91.31 123.91H89.71C89.85 121.9 91.26 120.74 93.34 120.74C95.58 120.74 96.53 121.68 96.69 123.23C96.73 123.6 96.74 124.07 96.74 124.48V128.02C96.74 128.73 96.78 129.37 96.92 130.42H95.39L95.23 129.07H95.22ZM95.2 126.85V125.89C92.6 125.69 90.96 126.25 90.96 127.87C90.96 129.01 91.69 129.51 92.85 129.51C94.27 129.51 95.2 128.57 95.2 126.86V126.85Z" fill="black"/>
<path d="M101.59 127.72C101.59 128 101.59 128.31 101.61 128.61C101.65 129.22 101.93 129.41 102.77 129.32V130.42C102.43 130.47 102.04 130.49 101.68 130.49C100.79 130.49 100.13 130.2 100.08 129.01C100.06 128.69 100.06 128.28 100.06 127.76V117.34H101.59V127.72Z" fill="black"/>
<path d="M114.79 130.43H112.97L110.87 122.49L108.77 130.43H106.95L103.94 120.99H105.7L107.89 128.97L109.96 120.99H111.87L113.97 128.91L116.16 120.99H117.8L114.79 130.43Z" fill="black"/>
<path d="M125.18 129.07L124.66 130.09C124.02 130.54 123.2 130.68 122.29 130.68C120.58 130.68 119.25 129.74 119.25 127.99C119.25 125.85 120.85 124.75 124.56 124.75H125.17V124.5C125.17 124.09 125.17 123.72 125.13 123.36C125.06 122.49 124.56 121.92 123.3 121.92C122.04 121.92 121.38 122.61 121.27 123.91H119.67C119.81 121.9 121.22 120.74 123.3 120.74C125.54 120.74 126.49 121.68 126.65 123.23C126.69 123.6 126.7 124.07 126.7 124.48V128.02C126.7 128.73 126.74 129.37 126.88 130.42H125.35L125.19 129.07H125.18ZM125.16 126.85V125.89C122.56 125.69 120.92 126.25 120.92 127.87C120.92 129.01 121.65 129.51 122.81 129.51C124.23 129.51 125.16 128.57 125.16 126.86V126.85Z" fill="black"/>
<path d="M133.92 131.23C133.15 133.22 132.14 134.17 130.61 134.17C130.27 134.17 130.06 134.17 129.83 134.13V132.88C130.06 132.9 130.22 132.9 130.38 132.9C131.32 132.9 131.95 132.49 132.43 131.24L132.55 130.9L128.79 120.98H130.52L133.33 129.28L136.13 120.98H137.8L133.92 131.22V131.23Z" fill="black"/>
<path d="M146.16 123.68H144.56C144.35 122.58 143.67 121.92 142.57 121.92C141.47 121.92 141 122.51 141 123.33C141 124.27 141.78 124.65 143.07 124.99C145.24 125.56 146.28 126.41 146.28 128.02C146.28 129.8 144.77 130.69 142.77 130.69C140.77 130.69 139.35 129.8 139.07 127.66H140.67C140.92 129.03 141.79 129.51 142.88 129.51C143.9 129.51 144.71 129.05 144.71 128.14C144.71 127.23 144.07 126.75 142.48 126.32C140.79 125.86 139.44 125.16 139.44 123.51C139.44 121.86 140.76 120.75 142.7 120.75C144.82 120.75 145.98 121.96 146.17 123.69L146.16 123.68Z" fill="black"/>
<path d="M162.41 125.56C162.41 129.05 160.24 130.67 157.8 130.67C157.02 130.67 156.02 130.44 155.54 130.05L154.92 129.12V130.42H153.39V117.34H154.92V122.5L155.63 121.49C156.16 121.04 157.16 120.74 158.12 120.74C160.88 120.74 162.41 122.81 162.41 125.57V125.56ZM160.74 125.74C160.74 123.6 159.78 121.91 157.89 121.91C156.32 121.91 154.92 122.91 154.92 125.61V126.13C154.92 128.57 156.45 129.5 157.8 129.5C159.46 129.5 160.74 128.22 160.74 125.74Z" fill="black"/>
<path d="M172.68 126.17H165.84C165.98 128.66 167.16 129.5 168.55 129.5C169.78 129.5 170.78 128.73 170.99 127.38H172.59C172.22 129.66 170.42 130.67 168.48 130.67C166.02 130.67 164.19 129.07 164.19 125.74C164.19 122.68 166.1 120.74 168.68 120.74C171.26 120.74 172.72 122.68 172.72 125.44C172.72 125.58 172.72 125.83 172.68 126.17ZM165.86 125H171.17C171.03 123.04 170.19 121.92 168.64 121.92C167.09 121.92 166.04 122.99 165.86 125Z" fill="black"/>
<path d="M183.17 126.17H176.33C176.47 128.66 177.65 129.5 179.04 129.5C180.27 129.5 181.27 128.73 181.48 127.38H183.08C182.71 129.66 180.91 130.67 178.97 130.67C176.51 130.67 174.68 129.07 174.68 125.74C174.68 122.68 176.59 120.74 179.17 120.74C181.75 120.74 183.21 122.68 183.21 125.44C183.21 125.58 183.21 125.83 183.17 126.17ZM176.35 125H181.66C181.52 123.04 180.68 121.92 179.13 121.92C177.58 121.92 176.53 122.99 176.35 125Z" fill="black"/>
<path d="M193.92 125.12V130.43H192.39V125.23C192.39 124.75 192.39 124.36 192.35 123.88C192.26 122.78 191.66 121.96 190.2 121.96C188.74 121.96 187.48 123.06 187.48 126.29V130.44H185.95V120.99H187.48V122.61L188.07 121.52C188.87 120.9 189.57 120.74 190.53 120.74C192.6 120.74 193.75 121.84 193.9 123.5C193.94 123.98 193.94 124.35 193.94 125.12H193.92Z" fill="black"/>
<path d="M207.03 129.07L206.51 130.09C205.87 130.54 205.05 130.68 204.14 130.68C202.43 130.68 201.1 129.74 201.1 127.99C201.1 125.85 202.7 124.75 206.41 124.75H207.02V124.5C207.02 124.09 207.02 123.72 206.98 123.36C206.91 122.49 206.41 121.92 205.15 121.92C203.89 121.92 203.23 122.61 203.12 123.91H201.52C201.66 121.9 203.07 120.74 205.15 120.74C207.39 120.74 208.34 121.68 208.5 123.23C208.54 123.6 208.55 124.07 208.55 124.48V128.02C208.55 128.73 208.59 129.37 208.73 130.42H207.2L207.04 129.07H207.03ZM207.01 126.85V125.89C204.41 125.69 202.77 126.25 202.77 127.87C202.77 129.01 203.5 129.51 204.66 129.51C206.08 129.51 207.01 128.57 207.01 126.86V126.85Z" fill="black"/>
<path d="M224.14 124.16H222.54C222.2 122.65 221.38 121.92 220.12 121.92C218.64 121.92 217.4 123.08 217.4 125.62C217.4 128.36 218.61 129.5 220.02 129.5C221.27 129.5 222.14 128.79 222.46 127.42H224.06C223.6 129.61 222.03 130.68 219.93 130.68C217.54 130.68 215.73 129.18 215.73 125.73C215.73 122.54 217.8 120.74 220.16 120.74C222.52 120.74 223.86 122.09 224.15 124.16H224.14Z" fill="black"/>
<path d="M235.21 125.71C235.21 128.36 233.73 130.68 230.53 130.68C227.33 130.68 225.85 128.37 225.85 125.71C225.85 123.05 227.33 120.74 230.53 120.74C233.73 120.74 235.21 123.04 235.21 125.71ZM233.54 125.71C233.54 123.48 232.44 121.92 230.53 121.92C228.62 121.92 227.52 123.49 227.52 125.71C227.52 127.93 228.62 129.5 230.53 129.5C232.44 129.5 233.54 127.92 233.54 125.71Z" fill="black"/>
<path d="M245.75 125.12V130.43H244.22V125.23C244.22 124.75 244.22 124.36 244.18 123.88C244.09 122.78 243.49 121.96 242.03 121.96C240.57 121.96 239.31 123.06 239.31 126.29V130.44H237.78V120.99H239.31V122.61L239.9 121.52C240.7 120.9 241.4 120.74 242.36 120.74C244.43 120.74 245.58 121.84 245.73 123.5C245.77 123.98 245.77 124.35 245.77 125.12H245.75Z" fill="black"/>
<path d="M255.26 123.68H253.66C253.45 122.58 252.77 121.92 251.67 121.92C250.57 121.92 250.1 122.51 250.1 123.33C250.1 124.27 250.88 124.65 252.17 124.99C254.34 125.56 255.38 126.41 255.38 128.02C255.38 129.8 253.87 130.69 251.87 130.69C249.87 130.69 248.45 129.8 248.17 127.66H249.77C250.02 129.03 250.89 129.51 251.98 129.51C253 129.51 253.81 129.05 253.81 128.14C253.81 127.23 253.17 126.75 251.58 126.32C249.89 125.86 248.54 125.16 248.54 123.51C248.54 121.86 249.86 120.75 251.8 120.75C253.92 120.75 255.08 121.96 255.27 123.69L255.26 123.68Z" fill="black"/>
<path d="M259.67 118.87C259.67 119.42 259.24 119.85 258.69 119.85C258.14 119.85 257.71 119.42 257.71 118.87C257.71 118.32 258.14 117.89 258.69 117.89C259.24 117.89 259.67 118.32 259.67 118.87ZM257.93 130.43V120.99H259.46V130.43H257.93Z" fill="black"/>
<path d="M269.09 123.68H267.49C267.28 122.58 266.6 121.92 265.5 121.92C264.4 121.92 263.93 122.51 263.93 123.33C263.93 124.27 264.71 124.65 266 124.99C268.17 125.56 269.21 126.41 269.21 128.02C269.21 129.8 267.7 130.69 265.7 130.69C263.7 130.69 262.28 129.8 262 127.66H263.6C263.85 129.03 264.72 129.51 265.81 129.51C266.83 129.51 267.64 129.05 267.64 128.14C267.64 127.23 267 126.75 265.41 126.32C263.72 125.86 262.37 125.16 262.37 123.51C262.37 121.86 263.69 120.75 265.63 120.75C267.75 120.75 268.91 121.96 269.1 123.69L269.09 123.68Z" fill="black"/>
<path d="M273.6 127.67C273.6 127.99 273.6 128.15 273.62 128.4C273.69 129.31 274.07 129.5 275.26 129.36V130.48C274.81 130.55 274.39 130.57 273.96 130.57C272.78 130.57 272.18 130.09 272.09 128.91C272.07 128.66 272.07 128.27 272.07 127.73V122.23H270.81V121.05H272.07V118.87H273.6V121.06H275.36V122.24H273.6V127.67Z" fill="black"/>
<path d="M285.53 126.17H278.69C278.83 128.66 280.01 129.5 281.4 129.5C282.63 129.5 283.63 128.73 283.84 127.38H285.44C285.07 129.66 283.27 130.67 281.33 130.67C278.87 130.67 277.04 129.07 277.04 125.74C277.04 122.68 278.95 120.74 281.53 120.74C284.11 120.74 285.57 122.68 285.57 125.44C285.57 125.58 285.57 125.83 285.53 126.17ZM278.71 125H284.02C283.88 123.04 283.04 121.92 281.49 121.92C279.94 121.92 278.89 122.99 278.71 125Z" fill="black"/>
<path d="M296.28 125.12V130.43H294.75V125.23C294.75 124.75 294.75 124.36 294.71 123.88C294.62 122.78 294.02 121.96 292.56 121.96C291.1 121.96 289.84 123.06 289.84 126.29V130.44H288.31V120.99H289.84V122.61L290.43 121.52C291.23 120.9 291.93 120.74 292.89 120.74C294.96 120.74 296.11 121.84 296.26 123.5C296.3 123.98 296.3 124.35 296.3 125.12H296.28Z" fill="black"/>
<path d="M301.41 127.67C301.41 127.99 301.41 128.15 301.43 128.4C301.5 129.31 301.88 129.5 303.07 129.36V130.48C302.62 130.55 302.2 130.57 301.77 130.57C300.59 130.57 299.99 130.09 299.9 128.91C299.88 128.66 299.88 128.27 299.88 127.73V122.23H298.62V121.05H299.88V118.87H301.41V121.06H303.17V122.24H301.41V127.67Z" fill="black"/>
<path d="M312.25 127.67C312.25 127.99 312.25 128.15 312.27 128.4C312.34 129.31 312.72 129.5 313.91 129.36V130.48C313.46 130.55 313.04 130.57 312.61 130.57C311.43 130.57 310.83 130.09 310.74 128.91C310.72 128.66 310.72 128.27 310.72 127.73V122.23H309.46V121.05H310.72V118.87H312.25V121.06H314.01V122.24H312.25V127.67Z" fill="black"/>
<path d="M324.68 125.12V130.43H323.15V125.23C323.15 124.75 323.15 124.36 323.11 123.88C323.02 122.78 322.42 121.92 320.96 121.96C319.48 122 318.24 123.06 318.24 126.29V130.44H316.71V117.25H318.24V122.61L318.83 121.52C319.63 120.9 320.33 120.74 321.29 120.74C323.36 120.74 324.51 121.84 324.66 123.5C324.7 123.98 324.7 124.35 324.7 125.12H324.68Z" fill="black"/>
<path d="M332.32 120.9V122.06C330.72 121.95 329.51 122.9 329.51 125.05V130.43H327.98V120.99H329.51V122.47L330.36 121.21C330.75 120.94 331.23 120.78 331.68 120.78C331.93 120.78 332.14 120.82 332.32 120.9Z" fill="black"/>
<path d="M342.05 126.17H335.21C335.35 128.66 336.53 129.5 337.92 129.5C339.15 129.5 340.15 128.73 340.36 127.38H341.96C341.59 129.66 339.79 130.67 337.85 130.67C335.39 130.67 333.56 129.07 333.56 125.74C333.56 122.68 335.47 120.74 338.05 120.74C340.63 120.74 342.09 122.68 342.09 125.44C342.09 125.58 342.09 125.83 342.05 126.17ZM335.23 125H340.54C340.4 123.04 339.56 121.92 338.01 121.92C336.46 121.92 335.41 122.99 335.23 125Z" fill="black"/>
<path d="M350.08 129.07L349.56 130.09C348.92 130.54 348.1 130.68 347.19 130.68C345.48 130.68 344.15 129.74 344.15 127.99C344.15 125.85 345.75 124.75 349.46 124.75H350.07V124.5C350.07 124.09 350.07 123.72 350.03 123.36C349.96 122.49 349.46 121.92 348.2 121.92C346.94 121.92 346.28 122.61 346.17 123.91H344.57C344.71 121.9 346.12 120.74 348.2 120.74C350.44 120.74 351.39 121.68 351.55 123.23C351.59 123.6 351.6 124.07 351.6 124.48V128.02C351.6 128.73 351.64 129.37 351.78 130.42H350.25L350.09 129.07H350.08ZM350.07 126.85V125.89C347.47 125.69 345.83 126.25 345.83 127.87C345.83 129.01 346.56 129.51 347.72 129.51C349.14 129.51 350.07 128.57 350.07 126.86V126.85Z" fill="black"/>
<path d="M363.24 130.43H361.71V128.92L361 129.94C360.47 130.39 359.47 130.69 358.51 130.69C355.75 130.69 354.22 128.62 354.22 125.86C354.22 122.37 356.39 120.75 358.83 120.75C359.61 120.75 360.61 120.98 361.09 121.37L361.71 122.3V117.34H363.24V130.43ZM361.71 125.8V125.28C361.71 122.84 360.18 121.91 358.83 121.91C357.17 121.91 355.89 123.19 355.89 125.67C355.89 127.81 356.85 129.5 358.74 129.5C360.31 129.5 361.71 128.5 361.71 125.8Z" fill="black"/>
<path d="M376.47 129.07L375.95 130.09C375.31 130.54 374.49 130.68 373.58 130.68C371.87 130.68 370.54 129.74 370.54 127.99C370.54 125.85 372.14 124.75 375.85 124.75H376.46V124.5C376.46 124.09 376.46 123.72 376.42 123.36C376.35 122.49 375.85 121.92 374.59 121.92C373.33 121.92 372.67 122.61 372.56 123.91H370.96C371.1 121.9 372.51 120.74 374.59 120.74C376.83 120.74 377.78 121.68 377.94 123.23C377.98 123.6 377.99 124.07 377.99 124.48V128.02C377.99 128.73 378.03 129.37 378.17 130.42H376.64L376.48 129.07H376.47ZM376.45 126.85V125.89C373.85 125.69 372.21 126.25 372.21 127.87C372.21 129.01 372.94 129.51 374.1 129.51C375.52 129.51 376.45 128.57 376.45 126.86V126.85Z" fill="black"/>
<path d="M389.36 125.12V130.43H387.83V125.23C387.83 124.75 387.83 124.36 387.79 123.88C387.7 122.78 387.1 121.96 385.64 121.96C384.18 121.96 382.92 123.06 382.92 126.29V130.44H381.39V120.99H382.92V122.61L383.51 121.52C384.31 120.9 385.01 120.74 385.97 120.74C388.04 120.74 389.19 121.84 389.34 123.5C389.38 123.98 389.38 124.35 389.38 125.12H389.36Z" fill="black"/>
<path d="M400.9 130.43H399.37V128.92L398.66 129.94C398.13 130.39 397.13 130.69 396.17 130.69C393.41 130.69 391.88 128.62 391.88 125.86C391.88 122.37 394.05 120.75 396.49 120.75C397.27 120.75 398.27 120.98 398.75 121.37L399.37 122.3V117.34H400.9V130.43ZM399.37 125.8V125.28C399.37 122.84 397.84 121.91 396.49 121.91C394.83 121.91 393.55 123.19 393.55 125.67C393.55 127.81 394.51 129.5 396.4 129.5C397.97 129.5 399.37 128.5 399.37 125.8Z" fill="black"/>
<path d="M410.62 118.87C410.62 119.42 410.19 119.85 409.64 119.85C409.09 119.85 408.66 119.42 408.66 118.87C408.66 118.32 409.09 117.89 409.64 117.89C410.19 117.89 410.62 118.32 410.62 118.87ZM408.87 130.43V120.99H410.4V130.43H408.87Z" fill="black"/>
<path d="M415.66 127.67C415.66 127.99 415.66 128.15 415.68 128.4C415.75 129.31 416.13 129.5 417.32 129.36V130.48C416.87 130.55 416.45 130.57 416.02 130.57C414.84 130.57 414.24 130.09 414.15 128.91C414.13 128.66 414.13 128.27 414.13 127.73V122.23H412.87V121.05H414.13V118.87H415.66V121.06H417.42V122.24H415.66V127.67Z" fill="black"/>
<path d="M433.69 125.56C433.69 129.05 431.52 130.67 429.08 130.67C428.3 130.67 427.3 130.44 426.82 130.05L426.2 129.12V133.91H424.67V120.99H426.2V122.5L426.91 121.49C427.44 121.04 428.44 120.74 429.4 120.74C432.16 120.74 433.69 122.81 433.69 125.57V125.56ZM432.02 125.74C432.02 123.6 431.06 121.91 429.17 121.91C427.6 121.91 426.2 122.91 426.2 125.61V126.13C426.2 128.57 427.73 129.5 429.08 129.5C430.74 129.5 432.02 128.22 432.02 125.74Z" fill="black"/>
<path d="M440.6 120.9V122.06C439 121.95 437.79 122.9 437.79 125.05V130.43H436.26V120.99H437.79V122.47L438.64 121.21C439.03 120.94 439.51 120.78 439.96 120.78C440.21 120.78 440.42 120.82 440.6 120.9Z" fill="black"/>
<path d="M451.21 125.71C451.21 128.36 449.73 130.68 446.53 130.68C443.33 130.68 441.85 128.37 441.85 125.71C441.85 123.05 443.33 120.74 446.53 120.74C449.73 120.74 451.21 123.04 451.21 125.71ZM449.54 125.71C449.54 123.48 448.44 121.92 446.53 121.92C444.62 121.92 443.52 123.49 443.52 125.71C443.52 127.93 444.62 129.5 446.53 129.5C448.44 129.5 449.54 127.92 449.54 125.71Z" fill="black"/>
<path d="M462.8 125.56C462.8 129.05 460.63 130.67 458.19 130.67C457.41 130.67 456.41 130.44 455.93 130.05L455.31 129.12V133.91H453.78V120.99H455.31V122.5L456.02 121.49C456.55 121.04 457.55 120.74 458.51 120.74C461.27 120.74 462.8 122.81 462.8 125.57V125.56ZM461.13 125.74C461.13 123.6 460.17 121.91 458.28 121.91C456.71 121.91 455.31 122.91 455.31 125.61V126.13C455.31 128.57 456.84 129.5 458.19 129.5C459.85 129.5 461.13 128.22 461.13 125.74Z" fill="black"/>
<path d="M473.07 126.17H466.23C466.37 128.66 467.55 129.5 468.94 129.5C470.17 129.5 471.17 128.73 471.38 127.38H472.98C472.61 129.66 470.81 130.67 468.87 130.67C466.41 130.67 464.58 129.07 464.58 125.74C464.58 122.68 466.49 120.74 469.07 120.74C471.65 120.74 473.11 122.68 473.11 125.44C473.11 125.58 473.11 125.83 473.07 126.17ZM466.25 125H471.56C471.42 123.04 470.58 121.92 469.03 121.92C467.48 121.92 466.43 122.99 466.25 125Z" fill="black"/>
<path d="M477.31 127.72C477.31 128 477.31 128.31 477.33 128.61C477.37 129.22 477.65 129.41 478.49 129.32V130.42C478.15 130.47 477.76 130.49 477.4 130.49C476.51 130.49 475.85 130.2 475.8 129.01C475.78 128.69 475.78 128.28 475.78 127.76V117.34H477.31V127.72Z" fill="black"/>
<path d="M487.18 123.68H485.58C485.37 122.58 484.69 121.92 483.59 121.92C482.49 121.92 482.02 122.51 482.02 123.33C482.02 124.27 482.8 124.65 484.09 124.99C486.26 125.56 487.3 126.41 487.3 128.02C487.3 129.8 485.79 130.69 483.79 130.69C481.79 130.69 480.37 129.8 480.09 127.66H481.69C481.94 129.03 482.81 129.51 483.9 129.51C484.92 129.51 485.73 129.05 485.73 128.14C485.73 127.23 485.09 126.75 483.5 126.32C481.81 125.86 480.46 125.16 480.46 123.51C480.46 121.86 481.78 120.75 483.72 120.75C485.84 120.75 487 121.96 487.19 123.69L487.18 123.68Z" fill="black"/>
<path d="M502.24 130.43H500.71V128.83L500.12 129.93C499.32 130.52 498.62 130.68 497.66 130.68C495.7 130.68 494.56 129.58 494.35 128.28C494.28 127.8 494.26 127.43 494.26 126.66V120.99H495.79V126.37C495.79 126.67 495.81 127.19 495.86 127.67C496 128.74 496.77 129.47 498.05 129.47C499.53 129.47 500.7 128.37 500.7 125.14V120.99H502.23V130.43H502.24Z" fill="black"/>
<path d="M511.87 123.68H510.27C510.06 122.58 509.38 121.92 508.28 121.92C507.18 121.92 506.71 122.51 506.71 123.33C506.71 124.27 507.49 124.65 508.78 124.99C510.95 125.56 511.99 126.41 511.99 128.02C511.99 129.8 510.48 130.69 508.48 130.69C506.48 130.69 505.06 129.8 504.78 127.66H506.38C506.63 129.03 507.5 129.51 508.59 129.51C509.61 129.51 510.42 129.05 510.42 128.14C510.42 127.23 509.78 126.75 508.19 126.32C506.5 125.86 505.15 125.16 505.15 123.51C505.15 121.86 506.47 120.75 508.41 120.75C510.53 120.75 511.69 121.96 511.88 123.69L511.87 123.68Z" fill="black"/>
<path d="M520.7 120.13V121.06H522.64V122.24H520.7V130.43H519.17V122.23H518.16V121.05H519.17V120.27C519.17 119.91 519.19 119.45 519.22 119.13C519.38 117.76 520.31 116.99 521.71 116.99C522.1 116.99 522.48 117.03 522.8 117.08V118.34C521.64 118.13 520.88 118.39 520.75 119.16C520.71 119.41 520.7 119.85 520.7 120.12V120.13Z" fill="black"/>
<path d="M533.56 125.71C533.56 128.36 532.08 130.68 528.88 130.68C525.68 130.68 524.2 128.37 524.2 125.71C524.2 123.05 525.68 120.74 528.88 120.74C532.08 120.74 533.56 123.04 533.56 125.71ZM531.88 125.71C531.88 123.48 530.78 121.92 528.87 121.92C526.96 121.92 525.86 123.49 525.86 125.71C525.86 127.93 526.96 129.5 528.87 129.5C530.78 129.5 531.88 127.92 531.88 125.71Z" fill="black"/>
<path d="M540.46 120.9V122.06C538.86 121.95 537.65 122.9 537.65 125.05V130.43H536.12V120.99H537.65V122.47L538.5 121.21C538.89 120.94 539.37 120.78 539.82 120.78C540.07 120.78 540.28 120.82 540.46 120.9Z" fill="black"/>
<path d="M552.25 130.43H550.43L548.33 122.49L546.23 130.43H544.41L541.4 120.99H543.16L545.35 128.97L547.42 120.99H549.33L551.43 128.91L553.62 120.99H555.26L552.25 130.43Z" fill="black"/>
<path d="M562.65 129.07L562.13 130.09C561.49 130.54 560.67 130.68 559.76 130.68C558.05 130.68 556.72 129.74 556.72 127.99C556.72 125.85 558.32 124.75 562.03 124.75H562.64V124.5C562.64 124.09 562.64 123.72 562.6 123.36C562.53 122.49 562.03 121.92 560.77 121.92C559.51 121.92 558.85 122.61 558.74 123.91H557.14C557.28 121.9 558.69 120.74 560.77 120.74C563.01 120.74 563.96 121.68 564.12 123.23C564.16 123.6 564.17 124.07 564.17 124.48V128.02C564.17 128.73 564.21 129.37 564.35 130.42H562.82L562.66 129.07H562.65ZM562.63 126.85V125.89C560.03 125.69 558.39 126.25 558.39 127.87C558.39 129.01 559.12 129.51 560.28 129.51C561.7 129.51 562.63 128.57 562.63 126.86V126.85Z" fill="black"/>
<path d="M571.9 120.9V122.06C570.3 121.95 569.09 122.9 569.09 125.05V130.43H567.56V120.99H569.09V122.47L569.94 121.21C570.33 120.94 570.81 120.78 571.26 120.78C571.51 120.78 571.72 120.82 571.9 120.9Z" fill="black"/>
<path d="M582.18 130.43H580.65V128.92L579.94 129.94C579.41 130.39 578.41 130.69 577.45 130.69C574.69 130.69 573.16 128.62 573.16 125.86C573.16 122.37 575.33 120.75 577.77 120.75C578.55 120.75 579.55 120.98 580.03 121.37L580.65 122.3V117.34H582.18V130.43ZM580.65 125.8V125.28C580.65 122.84 579.12 121.91 577.77 121.91C576.11 121.91 574.83 123.19 574.83 125.67C574.83 127.81 575.79 129.5 577.68 129.5C579.25 129.5 580.65 128.5 580.65 125.8Z" fill="black"/>
<path d="M591.99 127.67C591.99 127.99 591.99 128.15 592.01 128.4C592.08 129.31 592.46 129.5 593.65 129.36V130.48C593.21 130.55 592.78 130.57 592.35 130.57C591.17 130.57 590.57 130.09 590.48 128.91C590.46 128.66 590.46 128.27 590.46 127.73V122.23H589.2V121.05H590.46V118.87H591.99V121.06H593.75V122.24H591.99V127.67Z" fill="black"/>
<path d="M604.79 125.71C604.79 128.36 603.31 130.68 600.11 130.68C596.91 130.68 595.43 128.37 595.43 125.71C595.43 123.05 596.91 120.74 600.11 120.74C603.31 120.74 604.79 123.04 604.79 125.71ZM603.12 125.71C603.12 123.48 602.02 121.92 600.11 121.92C598.2 121.92 597.1 123.49 597.1 125.71C597.1 127.93 598.2 129.5 600.11 129.5C602.02 129.5 603.12 127.92 603.12 125.71Z" fill="black"/>
<path d="M615.6 130.43H614.07V128.92L613.36 129.94C612.83 130.39 611.83 130.69 610.87 130.69C608.11 130.69 606.58 128.62 606.58 125.86C606.58 122.37 608.75 120.75 611.19 120.75C611.97 120.75 612.97 120.98 613.45 121.37L614.07 122.3V117.34H615.6V130.43ZM614.07 125.8V125.28C614.07 122.84 612.54 121.91 611.19 121.91C609.53 121.91 608.25 123.19 608.25 125.67C608.25 127.81 609.21 129.5 611.1 129.5C612.67 129.5 614.07 128.5 614.07 125.8Z" fill="black"/>
<path d="M624.27 129.07L623.75 130.09C623.11 130.54 622.29 130.68 621.38 130.68C619.67 130.68 618.34 129.74 618.34 127.99C618.34 125.85 619.94 124.75 623.65 124.75H624.26V124.5C624.26 124.09 624.26 123.72 624.22 123.36C624.15 122.49 623.65 121.92 622.39 121.92C621.13 121.92 620.47 122.61 620.36 123.91H618.76C618.9 121.9 620.31 120.74 622.39 120.74C624.63 120.74 625.58 121.68 625.74 123.23C625.78 123.6 625.79 124.07 625.79 124.48V128.02C625.79 128.73 625.83 129.37 625.97 130.42H624.44L624.28 129.07H624.27ZM624.25 126.85V125.89C621.65 125.69 620.01 126.25 620.01 127.87C620.01 129.01 620.74 129.51 621.9 129.51C623.32 129.51 624.25 128.57 624.25 126.86V126.85Z" fill="black"/>
<path d="M633.01 131.23C632.24 133.22 631.23 134.17 629.7 134.17C629.36 134.17 629.15 134.17 628.92 134.13V132.88C629.15 132.9 629.31 132.9 629.47 132.9C630.41 132.9 631.04 132.49 631.52 131.24L631.64 130.9L627.88 120.98H629.61L632.42 129.28L635.22 120.98H636.89L633.01 131.22V131.23Z" fill="black"/>
<path d="M638.6 132.56H637.16L638.55 128.64H640.21V128.82L638.61 132.56H638.6Z" fill="black"/>
<path d="M653.47 129.07L652.95 130.09C652.31 130.54 651.49 130.68 650.58 130.68C648.87 130.68 647.54 129.74 647.54 127.99C647.54 125.85 649.14 124.75 652.85 124.75H653.46V124.5C653.46 124.09 653.46 123.72 653.42 123.36C653.35 122.49 652.85 121.92 651.59 121.92C650.33 121.92 649.67 122.61 649.56 123.91H647.96C648.1 121.9 649.51 120.74 651.59 120.74C653.83 120.74 654.78 121.68 654.94 123.23C654.98 123.6 654.99 124.07 654.99 124.48V128.02C654.99 128.73 655.03 129.37 655.17 130.42H653.64L653.48 129.07H653.47ZM653.45 126.85V125.89C650.85 125.69 649.21 126.25 649.21 127.87C649.21 129.01 649.94 129.51 651.1 129.51C652.52 129.51 653.45 128.57 653.45 126.86V126.85Z" fill="black"/>
<path d="M664.59 123.68H662.99C662.78 122.58 662.1 121.92 661 121.92C659.9 121.92 659.43 122.51 659.43 123.33C659.43 124.27 660.21 124.65 661.5 124.99C663.67 125.56 664.71 126.41 664.71 128.02C664.71 129.8 663.2 130.69 661.2 130.69C659.2 130.69 657.78 129.8 657.5 127.66H659.1C659.35 129.03 660.22 129.51 661.31 129.51C662.32 129.51 663.14 129.05 663.14 128.14C663.14 127.23 662.5 126.75 660.91 126.32C659.22 125.86 657.87 125.16 657.87 123.51C657.87 121.86 659.19 120.75 661.13 120.75C663.25 120.75 664.41 121.96 664.6 123.69L664.59 123.68Z" fill="black"/>
<path d="M681.36 130.43H679.54L677.44 122.49L675.34 130.43H673.52L670.51 120.99H672.27L674.46 128.97L676.53 120.99H678.44L680.54 128.91L682.73 120.99H684.37L681.36 130.43Z" fill="black"/>
<path d="M694.22 126.17H687.38C687.52 128.66 688.7 129.5 690.09 129.5C691.32 129.5 692.32 128.73 692.53 127.38H694.13C693.76 129.66 691.96 130.67 690.02 130.67C687.56 130.67 685.73 129.07 685.73 125.74C685.73 122.68 687.64 120.74 690.22 120.74C692.8 120.74 694.26 122.68 694.26 125.44C694.26 125.58 694.26 125.83 694.22 126.17ZM687.4 125H692.71C692.57 123.04 691.73 121.92 690.18 121.92C688.63 121.92 687.58 122.99 687.4 125Z" fill="black"/>
<path d="M709.19 124.16H707.59C707.25 122.65 706.43 121.92 705.17 121.92C703.69 121.92 702.45 123.08 702.45 125.62C702.45 128.36 703.66 129.5 705.07 129.5C706.32 129.5 707.19 128.79 707.51 127.42H709.11C708.65 129.61 707.08 130.68 704.98 130.68C702.59 130.68 700.78 129.18 700.78 125.73C700.78 122.54 702.85 120.74 705.21 120.74C707.57 120.74 708.91 122.09 709.2 124.16H709.19Z" fill="black"/>
<path d="M720.27 125.71C720.27 128.36 718.79 130.68 715.59 130.68C712.39 130.68 710.91 128.37 710.91 125.71C710.91 123.05 712.39 120.74 715.59 120.74C718.79 120.74 720.27 123.04 720.27 125.71ZM718.59 125.71C718.59 123.48 717.49 121.92 715.58 121.92C713.67 121.92 712.57 123.49 712.57 125.71C712.57 127.93 713.67 129.5 715.58 129.5C717.49 129.5 718.59 127.92 718.59 125.71Z" fill="black"/>
<path d="M730.81 125.12V130.43H729.28V125.23C729.28 124.75 729.28 124.36 729.24 123.88C729.15 122.78 728.55 121.96 727.08 121.96C725.61 121.96 724.36 123.06 724.36 126.29V130.44H722.83V120.99H724.36V122.61L724.95 121.52C725.75 120.9 726.45 120.74 727.41 120.74C729.48 120.74 730.63 121.84 730.78 123.5C730.82 123.98 730.82 124.35 730.82 125.12H730.81Z" fill="black"/>
<path d="M735.93 127.67C735.93 127.99 735.93 128.15 735.95 128.4C736.02 129.31 736.4 129.5 737.59 129.36V130.48C737.14 130.55 736.72 130.57 736.29 130.57C735.11 130.57 734.51 130.09 734.42 128.91C734.4 128.66 734.4 128.27 734.4 127.73V122.23H733.14V121.05H734.4V118.87H735.93V121.06H737.69V122.24H735.93V127.67Z" fill="black"/>
<path d="M742.13 118.87C742.13 119.42 741.7 119.85 741.15 119.85C740.6 119.85 740.17 119.42 740.17 118.87C740.17 118.32 740.6 117.89 741.15 117.89C741.7 117.89 742.13 118.32 742.13 118.87ZM740.38 130.43V120.99H741.91V130.43H740.38Z" fill="black"/>
<path d="M753.31 125.12V130.43H751.78V125.23C751.78 124.75 751.78 124.36 751.74 123.88C751.65 122.78 751.05 121.96 749.59 121.96C748.13 121.96 746.87 123.06 746.87 126.29V130.44H745.34V120.99H746.87V122.61L747.46 121.52C748.26 120.9 748.96 120.74 749.92 120.74C751.99 120.74 753.14 121.84 753.29 123.5C753.33 123.98 753.33 124.35 753.33 125.12H753.31Z" fill="black"/>
<path d="M764.44 130.43H762.91V128.83L762.32 129.93C761.52 130.52 760.82 130.68 759.86 130.68C757.9 130.68 756.76 129.58 756.55 128.28C756.48 127.8 756.46 127.43 756.46 126.66V120.99H757.99V126.37C757.99 126.67 758.01 127.19 758.06 127.67C758.2 128.74 758.97 129.47 760.25 129.47C761.73 129.47 762.9 128.37 762.9 125.14V120.99H764.43V130.43H764.44Z" fill="black"/>
<path d="M775.57 126.17H768.73C768.87 128.66 770.05 129.5 771.44 129.5C772.67 129.5 773.67 128.73 773.88 127.38H775.48C775.11 129.66 773.31 130.67 771.37 130.67C768.91 130.67 767.08 129.07 767.08 125.74C767.08 122.68 768.99 120.74 771.57 120.74C774.15 120.74 775.61 122.68 775.61 125.44C775.61 125.58 775.61 125.83 775.57 126.17ZM768.75 125H774.06C773.92 123.04 773.08 121.92 771.53 121.92C769.98 121.92 768.93 122.99 768.75 125Z" fill="black"/>
<path d="M238.69 164.82C238.69 165.14 238.69 165.3 238.71 165.55C238.78 166.46 239.16 166.65 240.35 166.51V167.63C239.9 167.7 239.48 167.72 239.05 167.72C237.87 167.72 237.27 167.24 237.18 166.06C237.16 165.81 237.16 165.42 237.16 164.88V159.38H235.9V158.2H237.16V156.01H238.69V158.2H240.45V159.38H238.69V164.81V164.82Z" fill="black"/>
<path d="M251.49 162.87C251.49 165.52 250.01 167.84 246.81 167.84C243.61 167.84 242.13 165.53 242.13 162.87C242.13 160.21 243.61 157.9 246.81 157.9C250.01 157.9 251.49 160.2 251.49 162.87ZM249.82 162.87C249.82 160.64 248.72 159.08 246.81 159.08C244.9 159.08 243.8 160.65 243.8 162.87C243.8 165.09 244.9 166.66 246.81 166.66C248.72 166.66 249.82 165.08 249.82 162.87Z" fill="black"/>
<path d="M266.86 165.27C266.86 165.86 266.86 166.59 266.84 167.1C266.75 169.86 265.08 171.32 262.35 171.32C259.62 171.32 258.33 170.2 258.13 168.2L258.11 168.02H259.66L259.68 168.18C259.8 169.34 260.73 170.14 262.35 170.14C264.22 170.14 265.23 169.07 265.31 167.26C265.33 166.81 265.33 166.51 265.33 166.23V166.07L264.62 167.09C264.09 167.54 263.09 167.84 262.13 167.84C259.37 167.84 257.84 165.77 257.84 163.01C257.84 159.52 260.01 157.9 262.45 157.9C263.23 157.9 264.23 158.13 264.71 158.52L265.33 159.45V158.15H266.86V165.27ZM265.33 162.95V162.43C265.33 159.99 263.8 159.06 262.45 159.06C260.79 159.06 259.51 160.34 259.51 162.82C259.51 164.96 260.47 166.65 262.36 166.65C263.93 166.65 265.33 165.65 265.33 162.95Z" fill="black"/>
<path d="M274.62 158.06V159.22C273.02 159.11 271.81 160.06 271.81 162.21V167.59H270.28V158.15H271.81V159.63L272.66 158.37C273.05 158.1 273.53 157.94 273.98 157.94C274.23 157.94 274.44 157.98 274.62 158.06Z" fill="black"/>
<path d="M285.23 162.87C285.23 165.52 283.75 167.84 280.55 167.84C277.35 167.84 275.87 165.53 275.87 162.87C275.87 160.21 277.35 157.9 280.55 157.9C283.75 157.9 285.23 160.2 285.23 162.87ZM283.56 162.87C283.56 160.64 282.46 159.08 280.55 159.08C278.64 159.08 277.54 160.65 277.54 162.87C277.54 165.09 278.64 166.66 280.55 166.66C282.46 166.66 283.56 165.08 283.56 162.87Z" fill="black"/>
<path d="M297.34 167.58H295.52L293.42 159.64L291.32 167.58H289.5L286.49 158.14H288.25L290.44 166.12L292.51 158.14H294.42L296.52 166.06L298.71 158.14H300.35L297.34 167.58Z" fill="black"/>
<path d="M315.29 165.27C315.29 165.86 315.29 166.59 315.27 167.1C315.18 169.86 313.51 171.32 310.78 171.32C308.05 171.32 306.76 170.2 306.56 168.2L306.54 168.02H308.09L308.11 168.18C308.23 169.34 309.16 170.14 310.78 170.14C312.65 170.14 313.66 169.07 313.74 167.26C313.76 166.81 313.76 166.51 313.76 166.23V166.07L313.05 167.09C312.52 167.54 311.52 167.84 310.56 167.84C307.8 167.84 306.27 165.77 306.27 163.01C306.27 159.52 308.44 157.9 310.88 157.9C311.66 157.9 312.66 158.13 313.14 158.52L313.76 159.45V158.15H315.29V165.27ZM313.75 162.95V162.43C313.75 159.99 312.22 159.06 310.87 159.06C309.21 159.06 307.93 160.34 307.93 162.82C307.93 164.96 308.89 166.65 310.78 166.65C312.35 166.65 313.75 165.65 313.75 162.95Z" fill="black"/>
<path d="M320.16 164.88C320.16 165.16 320.16 165.47 320.18 165.77C320.22 166.38 320.5 166.57 321.34 166.48V167.58C321 167.63 320.61 167.65 320.25 167.65C319.36 167.65 318.7 167.36 318.65 166.17C318.63 165.85 318.63 165.44 318.63 164.92V154.48H320.16V164.86V164.88Z" fill="black"/>
<path d="M332.4 162.87C332.4 165.52 330.92 167.84 327.72 167.84C324.52 167.84 323.04 165.53 323.04 162.87C323.04 160.21 324.52 157.9 327.72 157.9C330.92 157.9 332.4 160.2 332.4 162.87ZM330.72 162.87C330.72 160.64 329.62 159.08 327.71 159.08C325.8 159.08 324.7 160.65 324.7 162.87C324.7 165.09 325.8 166.66 327.71 166.66C329.62 166.66 330.72 165.08 330.72 162.87Z" fill="black"/>
<path d="M343.99 162.72C343.99 166.21 341.82 167.83 339.38 167.83C338.6 167.83 337.6 167.6 337.12 167.21L336.5 166.28V167.58H334.97V154.49H336.5V159.65L337.21 158.64C337.74 158.19 338.74 157.89 339.7 157.89C342.46 157.89 343.99 159.96 343.99 162.72ZM342.31 162.9C342.31 160.76 341.35 159.07 339.46 159.07C337.89 159.07 336.49 160.07 336.49 162.77V163.29C336.49 165.73 338.02 166.66 339.37 166.66C341.03 166.66 342.31 165.38 342.31 162.9Z" fill="black"/>
<path d="M351.8 166.23L351.28 167.25C350.64 167.7 349.82 167.84 348.91 167.84C347.2 167.84 345.87 166.9 345.87 165.15C345.87 163.01 347.47 161.91 351.18 161.91H351.79V161.66C351.79 161.25 351.79 160.88 351.75 160.52C351.68 159.65 351.18 159.08 349.92 159.08C348.66 159.08 348 159.77 347.89 161.07H346.29C346.43 159.06 347.84 157.9 349.92 157.9C352.16 157.9 353.11 158.84 353.27 160.39C353.31 160.76 353.32 161.23 353.32 161.64V165.18C353.32 165.89 353.36 166.53 353.5 167.58H351.97L351.81 166.23H351.8ZM351.78 164V163.04C349.18 162.84 347.54 163.4 347.54 165.02C347.54 166.16 348.27 166.66 349.43 166.66C350.85 166.66 351.78 165.72 351.78 164.01V164Z" fill="black"/>
<path d="M358.18 164.88C358.18 165.16 358.18 165.47 358.2 165.77C358.24 166.38 358.52 166.57 359.36 166.48V167.58C359.02 167.63 358.63 167.65 358.27 167.65C357.38 167.65 356.72 167.36 356.67 166.17C356.65 165.85 356.65 165.44 356.65 164.92V154.48H358.18V164.86V164.88Z" fill="black"/>
<path d="M363.28 164.88C363.28 165.16 363.28 165.47 363.3 165.77C363.34 166.38 363.62 166.57 364.46 166.48V167.58C364.12 167.63 363.73 167.65 363.37 167.65C362.48 167.65 361.82 167.36 361.77 166.17C361.75 165.85 361.75 165.44 361.75 164.92V154.48H363.28V164.86V164.88Z" fill="black"/>
<path d="M370.76 168.39C369.99 170.38 368.98 171.33 367.45 171.33C367.11 171.33 366.9 171.33 366.67 171.29V170.04C366.9 170.06 367.06 170.06 367.22 170.06C368.16 170.06 368.79 169.65 369.27 168.4L369.39 168.06L365.63 158.14H367.36L370.17 166.44L372.97 158.14H374.64L370.76 168.38V168.39Z" fill="black"/>
<path d="M376.35 169.72H374.91L376.3 165.8H377.96V165.98L376.36 169.72H376.35Z" fill="black"/>
<path d="M391.22 166.23L390.7 167.25C390.06 167.7 389.24 167.84 388.33 167.84C386.62 167.84 385.29 166.9 385.29 165.15C385.29 163.01 386.89 161.91 390.6 161.91H391.21V161.66C391.21 161.25 391.21 160.88 391.17 160.52C391.1 159.65 390.6 159.08 389.34 159.08C388.08 159.08 387.42 159.77 387.31 161.07H385.71C385.85 159.06 387.26 157.9 389.34 157.9C391.58 157.9 392.53 158.84 392.69 160.39C392.73 160.76 392.74 161.23 392.74 161.64V165.18C392.74 165.89 392.78 166.53 392.92 167.58H391.39L391.23 166.23H391.22ZM391.2 164V163.04C388.6 162.84 386.96 163.4 386.96 165.02C386.96 166.16 387.69 166.66 388.85 166.66C390.27 166.66 391.2 165.72 391.2 164.01V164Z" fill="black"/>
<path d="M404.11 162.28V167.59H402.58V162.39C402.58 161.91 402.58 161.52 402.54 161.04C402.45 159.94 401.85 159.12 400.39 159.12C398.93 159.12 397.67 160.22 397.67 163.45V167.6H396.14V158.16H397.67V159.78L398.26 158.69C399.06 158.07 399.76 157.91 400.72 157.91C402.79 157.91 403.94 159.01 404.09 160.67C404.13 161.15 404.13 161.52 404.13 162.29L404.11 162.28Z" fill="black"/>
<path d="M415.65 167.58H414.12V166.07L413.41 167.09C412.88 167.54 411.88 167.84 410.92 167.84C408.16 167.84 406.63 165.77 406.63 163.01C406.63 159.52 408.8 157.9 411.24 157.9C412.02 157.9 413.02 158.13 413.5 158.52L414.12 159.45V154.5H415.65V167.59V167.58ZM414.12 162.95V162.43C414.12 159.99 412.59 159.06 411.24 159.06C409.58 159.06 408.3 160.34 408.3 162.82C408.3 164.96 409.26 166.65 411.15 166.65C412.72 166.65 414.12 165.65 414.12 162.95Z" fill="black"/>
<path d="M425.46 164.82C425.46 165.14 425.46 165.3 425.48 165.55C425.55 166.46 425.93 166.65 427.12 166.51V167.63C426.67 167.7 426.25 167.72 425.82 167.72C424.64 167.72 424.04 167.24 423.95 166.06C423.93 165.81 423.93 165.42 423.93 164.88V159.38H422.67V158.2H423.93V156.01H425.46V158.2H427.22V159.38H425.46V164.81V164.82Z" fill="black"/>
<path d="M437.88 162.28V167.59H436.35V162.39C436.35 161.91 436.35 161.52 436.31 161.04C436.22 159.94 435.62 159.08 434.16 159.12C432.68 159.16 431.44 160.22 431.44 163.45V167.6H429.91V154.42H431.44V159.78L432.03 158.69C432.83 158.07 433.53 157.91 434.49 157.91C436.56 157.91 437.71 159.01 437.86 160.67C437.9 161.15 437.9 161.52 437.9 162.29L437.88 162.28Z" fill="black"/>
<path d="M446.43 166.23L445.91 167.25C445.27 167.7 444.45 167.84 443.54 167.84C441.83 167.84 440.5 166.9 440.5 165.15C440.5 163.01 442.1 161.91 445.81 161.91H446.42V161.66C446.42 161.25 446.42 160.88 446.38 160.52C446.31 159.65 445.81 159.08 444.55 159.08C443.29 159.08 442.63 159.77 442.52 161.07H440.92C441.06 159.06 442.47 157.9 444.55 157.9C446.79 157.9 447.74 158.84 447.9 160.39C447.94 160.76 447.95 161.23 447.95 161.64V165.18C447.95 165.89 447.99 166.53 448.13 167.58H446.6L446.44 166.23H446.43ZM446.41 164V163.04C443.81 162.84 442.17 163.4 442.17 165.02C442.17 166.16 442.9 166.66 444.06 166.66C445.48 166.66 446.41 165.72 446.41 164.01V164Z" fill="black"/>
<path d="M453.18 164.82C453.18 165.14 453.18 165.3 453.2 165.55C453.27 166.46 453.65 166.65 454.84 166.51V167.63C454.39 167.7 453.97 167.72 453.54 167.72C452.36 167.72 451.76 167.24 451.67 166.06C451.65 165.81 451.65 165.42 451.65 164.88V159.38H450.39V158.2H451.65V156.01H453.18V158.2H454.94V159.38H453.18V164.81V164.82Z" fill="black"/>
<path d="M458.07 158.95H456.7L458.09 154.5H459.75V154.68L458.08 158.95H458.07Z" fill="black"/>
<path d="M468.95 160.83H467.35C467.14 159.73 466.46 159.07 465.36 159.07C464.26 159.07 463.79 159.66 463.79 160.48C463.79 161.42 464.57 161.8 465.86 162.14C468.03 162.71 469.07 163.56 469.07 165.17C469.07 166.95 467.56 167.84 465.56 167.84C463.56 167.84 462.14 166.95 461.86 164.81H463.46C463.71 166.18 464.58 166.66 465.67 166.66C466.69 166.66 467.5 166.2 467.5 165.29C467.5 164.38 466.86 163.9 465.27 163.47C463.58 163.01 462.22 162.31 462.22 160.66C462.22 159.01 463.54 157.9 465.48 157.9C467.6 157.9 468.76 159.11 468.95 160.84V160.83Z" fill="black"/>
<path d="M482.39 160.83H480.79C480.58 159.73 479.9 159.07 478.8 159.07C477.7 159.07 477.23 159.66 477.23 160.48C477.23 161.42 478.01 161.8 479.3 162.14C481.47 162.71 482.51 163.56 482.51 165.17C482.51 166.95 481 167.84 479 167.84C477 167.84 475.58 166.95 475.3 164.81H476.9C477.15 166.18 478.02 166.66 479.11 166.66C480.13 166.66 480.94 166.2 480.94 165.29C480.94 164.38 480.3 163.9 478.71 163.47C477.02 163.01 475.67 162.31 475.67 160.66C475.67 159.01 476.99 157.9 478.93 157.9C481.05 157.9 482.21 159.11 482.4 160.84L482.39 160.83Z" fill="black"/>
<path d="M492.77 163.33H485.93C486.07 165.82 487.25 166.66 488.64 166.66C489.87 166.66 490.87 165.89 491.08 164.54H492.68C492.31 166.82 490.51 167.83 488.57 167.83C486.11 167.83 484.28 166.23 484.28 162.9C484.28 159.84 486.19 157.9 488.77 157.9C491.35 157.9 492.81 159.84 492.81 162.6C492.81 162.74 492.81 162.99 492.77 163.33ZM485.95 162.15H491.26C491.12 160.19 490.28 159.07 488.73 159.07C487.18 159.07 486.13 160.14 485.95 162.15Z" fill="black"/>
<path d="M499.9 158.06V159.22C498.3 159.11 497.09 160.06 497.09 162.21V167.59H495.56V158.15H497.09V159.63L497.94 158.37C498.33 158.1 498.81 157.94 499.26 157.94C499.51 157.94 499.72 157.98 499.9 158.06Z" fill="black"/>
<path d="M506.29 167.58H504.42L500.84 158.14H502.53L505.41 166.46L508.24 158.14H509.86L506.28 167.58H506.29Z" fill="black"/>
<path d="M513.75 156.03C513.75 156.58 513.32 157.01 512.77 157.01C512.22 157.01 511.79 156.58 511.79 156.03C511.79 155.48 512.22 155.05 512.77 155.05C513.32 155.05 513.75 155.48 513.75 156.03ZM512 167.58V158.14H513.53V167.58H512Z" fill="black"/>
<path d="M524.59 161.32H522.99C522.65 159.81 521.83 159.08 520.57 159.08C519.09 159.08 517.85 160.24 517.85 162.78C517.85 165.52 519.06 166.66 520.47 166.66C521.72 166.66 522.59 165.95 522.91 164.58H524.51C524.05 166.77 522.48 167.84 520.38 167.84C517.99 167.84 516.18 166.34 516.18 162.89C516.18 159.7 518.25 157.9 520.61 157.9C522.97 157.9 524.31 159.25 524.6 161.32H524.59Z" fill="black"/>
<path d="M534.79 163.33H527.95C528.09 165.82 529.27 166.66 530.66 166.66C531.89 166.66 532.89 165.89 533.1 164.54H534.7C534.33 166.82 532.53 167.83 530.59 167.83C528.13 167.83 526.3 166.23 526.3 162.9C526.3 159.84 528.21 157.9 530.79 157.9C533.37 157.9 534.83 159.84 534.83 162.6C534.83 162.74 534.83 162.99 534.79 163.33ZM527.97 162.15H533.28C533.14 160.19 532.3 159.07 530.75 159.07C529.2 159.07 528.15 160.14 527.97 162.15Z" fill="black"/>
<path d="M539.19 166.69C539.19 167.35 538.71 167.83 538.05 167.83C537.39 167.83 536.91 167.35 536.91 166.69C536.91 166.03 537.39 165.55 538.05 165.55C538.71 165.55 539.19 166.03 539.19 166.69Z" fill="black"/>
</g>
<g clip-path="url(#clip1_6_1362)">
<path d="M28.06 50.3002C27.66 50.3002 27.35 50.1902 27.12 49.9802C26.89 49.7602 26.77 49.5102 26.77 49.2302C27.02 45.7502 27.18 41.8902 27.25 37.6502V31.3002C25.56 32.4902 23.66 33.6202 21.54 34.6902L21 34.1002C23.26 32.5602 25.34 30.8902 27.25 29.0902V26.5602C27.25 25.5902 27.2 24.6802 27.09 23.8102L30.86 25.5302C32.8 23.4102 34.31 21.6202 35.38 20.1402H30.59C28.04 20.1802 25.35 20.4302 22.51 20.8902L21.11 18.2002C22.94 18.4202 25.17 18.5602 27.79 18.6302H31.02V10.8202H28.49C27.05 10.8602 25.55 11.1102 23.97 11.5702L22.62 8.82023C24.2 9.04023 26.1 9.18023 28.33 9.25023H31.02C31.02 5.77023 30.84 2.93023 30.48 0.740234C33.71 1.53023 35.72 2.14023 36.51 2.57023C37.12 2.93023 37.14 3.29023 36.56 3.65023L35.64 4.24023V9.25023H37.42L39.79 5.75023C40.76 6.65023 41.73 7.56023 42.7 8.50023C43.88 6.31023 44.66 4.17023 45.02 2.09023C47.82 3.49023 49.56 4.48023 50.24 5.05023C50.74 5.48023 50.69 5.75023 50.08 5.86023L49 6.02023C46.81 10.4002 44.12 14.6002 40.92 18.6202H43.61L44.74 16.8402C44.81 16.7302 44.94 16.5502 45.12 16.3002C45.66 15.4702 46.04 15.0602 46.25 15.0602C46.61 15.0602 47.45 15.6602 48.78 16.8602C50.11 18.0602 50.77 18.8602 50.77 19.2602C50.63 19.8302 50.16 20.1202 49.37 20.1202H39.68C37.67 22.4502 35.73 24.4302 33.86 26.0402H40.48L41.5 24.5302C41.57 24.4202 41.7 24.2602 41.88 24.0502C42.38 23.3702 42.74 23.0302 42.96 23.0302C43.32 23.0302 44.21 23.6502 45.63 24.8902C47.05 26.1302 47.76 26.9502 47.76 27.3402C47.33 27.8402 46.63 28.2002 45.66 28.4202V35.3102C45.73 39.7602 45.88 43.9802 46.09 47.9702C45.84 48.2902 45.25 48.6302 44.31 48.9902C43.34 49.3802 42.48 49.5802 41.73 49.5802C41.12 49.5802 40.81 49.2202 40.81 48.5002C40.85 48.2802 40.88 47.9802 40.92 47.5802C40.96 47.2902 40.99 47.0402 41.03 46.8302V45.4302H31.77V46.5602C31.81 46.8802 31.82 47.2602 31.82 47.6902C31.86 48.0802 31.89 48.3702 31.93 48.5502C31.82 48.9402 31.45 49.3202 30.8 49.6802C30.01 50.0702 29.09 50.2702 28.05 50.2702L28.06 50.3002ZM31.77 34.9002H41.03V27.5802H32.2L31.77 27.9002V34.9002ZM31.77 43.8902H41.03V36.4602H31.77V43.8902ZM35.65 18.6302H36.51C38.48 15.9002 40.14 13.3002 41.46 10.8202H35.64V18.6302H35.65ZM52.13 50.6202C51.73 50.6202 51.4 50.5102 51.13 50.3002C50.86 50.0902 50.73 49.8302 50.73 49.5502C51.05 44.9202 51.25 40.2502 51.32 35.5502V13.1902C51.32 8.67023 51.09 4.99023 50.62 2.15023L56.71 5.11023H62.85L64.09 3.76023C64.2 3.65023 64.34 3.49023 64.52 3.28023C65.13 2.67023 65.54 2.36023 65.76 2.36023C66.08 2.36023 66.98 3.10023 68.45 4.57023C69.92 6.04023 70.66 6.98023 70.66 7.37023C70.26 7.80023 69.48 8.02024 68.29 8.02024C65.31 13.9102 62.71 18.3802 60.48 21.4302C63.39 23.4102 65.6 25.6702 67.1 28.2202C68.39 30.4802 69.04 32.8202 69.04 35.2202C69.04 38.0202 68.45 40.0902 67.26 41.4102C66 42.8502 63.92 43.6202 61.01 43.7302C61.01 41.7202 60.79 40.3902 60.36 39.7402C59.89 39.2402 58.94 38.8602 57.51 38.6102V37.8002H61.71C62.21 37.8002 62.64 37.6902 63 37.4802C63.93 36.9102 64.4 35.7402 64.4 33.9802C64.4 29.4602 62.66 25.3102 59.18 21.5402C60.54 17.2002 61.85 12.2402 63.11 6.68023H56V36.1402C56.07 40.5902 56.22 44.8102 56.43 48.8002C56.14 49.2302 55.68 49.6302 55.03 49.9802C54.13 50.4102 53.16 50.6302 52.12 50.6302L52.13 50.6202Z" fill="#B72724"/>
<path d="M81.56 38.1595C80.5 38.2895 79.68 37.9495 79.11 37.1595C78.61 36.4795 78.46 35.7395 78.68 34.9495C78.9 34.2695 79.34 33.5995 80.03 32.9595C81.61 31.6995 82.92 29.7495 83.96 27.0895C85.11 24.1795 85.65 21.0895 85.58 17.8295H86.33C87.77 22.1695 88.16 26.1395 87.51 29.7295C87.01 32.5995 85.97 34.8595 84.39 36.5195C83.56 37.4895 82.62 38.0395 81.56 38.1595ZM99.74 48.8995C96.97 48.8995 95.13 48.5395 94.19 47.8195C93.18 47.0995 92.68 45.6695 92.68 43.5095V23.5795C92.68 19.0595 92.45 15.3795 91.98 12.5395C95.39 13.3695 97.53 14.0095 98.39 14.4795C99 14.7995 99.04 15.1395 98.5 15.4995L97.58 16.0895V42.0995C97.58 42.7495 97.78 43.1895 98.17 43.4195C98.56 43.6495 99.34 43.7695 100.49 43.7695H106.68C109.44 43.7695 111.28 43.7195 112.17 43.6095C112.89 43.5695 113.39 43.2695 113.68 42.6895C114.22 41.6495 115.01 38.7395 116.05 33.9695H116.64L116.8 43.0695C117.59 43.3895 118.13 43.7195 118.42 44.0395C118.71 44.3595 118.85 44.7895 118.85 45.3295C118.85 46.6595 118.04 47.5695 116.43 48.0795C114.63 48.6195 111.26 48.8895 106.31 48.8895H99.74V48.8995ZM109.08 13.5995C108.13 14.5195 106.97 14.5795 105.61 13.7895C104.75 12.0295 103.33 10.1795 101.36 8.23953C99.03 5.97953 96.35 4.07953 93.34 2.52953L93.45 2.14953L93.61 1.76953C98.56 2.30953 102.5 3.41953 105.4 5.10953C107.77 6.46953 109.24 8.06953 109.82 9.89953C110.29 11.4395 110.04 12.6695 109.09 13.5895L109.08 13.5995ZM125.21 36.6195C123.99 37.4495 122.82 37.0995 121.71 35.5995C121.71 32.6595 121.24 29.7095 120.31 26.7695C119.16 23.1095 117.46 20.1095 115.19 17.7795L115.57 17.2395C119.73 19.3195 122.82 21.8495 124.83 24.8295C126.45 27.2395 127.22 29.6795 127.15 32.1495C127.08 34.2995 126.43 35.7895 125.21 36.6195Z" fill="#B72724"/>
<path d="M154.43 34.7398C153.98 35.8198 153.07 36.1898 151.71 35.8698C150.85 34.8298 149.54 33.6798 147.78 32.4198C146.13 31.2698 144.55 30.3598 143.04 29.6698L143.42 29.0798C147.08 28.7898 149.92 29.1898 151.93 30.2698C152.76 29.2298 153.55 28.1298 154.3 26.9798C153.65 27.1998 152.56 27.3398 151.01 27.4098C151.01 26.5098 150.81 25.8498 150.42 25.4198C149.95 24.9498 149.04 24.5898 147.67 24.3398V23.4798C149.32 23.6198 150.67 23.6998 151.71 23.6998C152.32 23.6998 152.77 23.5598 153.06 23.2698C153.31 23.0498 153.54 22.6598 153.76 22.0898H142.83C142.79 22.3098 142.74 22.6298 142.67 23.0598C142.56 23.6298 142.47 24.0698 142.4 24.3498C141.39 24.8898 140.03 24.9198 138.31 24.4598C138.85 22.1298 139.4 19.4998 139.98 16.5998H138.74C138.17 16.6398 137.59 16.8898 137.02 17.3498L135.67 14.5998C136.53 14.8198 137.57 14.9598 138.79 15.0298H140.24C140.46 13.8798 140.76 12.2698 141.16 10.1798C141.27 9.67977 141.34 9.29977 141.38 9.04977C140.05 10.1298 138.69 11.0198 137.29 11.7398L136.64 11.1498C136.75 11.0398 136.91 10.8498 137.12 10.5598C137.23 10.4198 137.32 10.3098 137.39 10.2398C138.47 8.87977 139.44 7.18976 140.3 5.17977C141.13 3.30977 141.68 1.58977 141.97 0.00976562C144.84 1.01977 146.62 1.76977 147.3 2.26977C147.84 2.62977 147.82 2.91977 147.25 3.12977L146.28 3.50977C146.1 3.82977 145.8 4.27977 145.36 4.85977C145.25 5.03977 145.16 5.16976 145.09 5.23977H155.81L156.89 3.67977C156.96 3.56977 157.05 3.42977 157.16 3.24977C157.73 2.45977 158.15 2.05977 158.4 2.05977C158.76 2.05977 159.55 2.60977 160.77 3.69977C161.99 4.79977 162.6 5.53977 162.6 5.92977C162.46 6.50977 162.01 6.78977 161.25 6.78977H143.75C143.32 7.21977 142.89 7.64977 142.46 8.07977L145.85 9.52977H154.79L155.71 8.44977C155.82 8.33977 155.94 8.19977 156.09 8.01977C156.52 7.54977 156.84 7.31977 157.06 7.31977C157.42 7.31977 158.15 7.79977 159.24 8.74977C160.33 9.69977 160.88 10.3698 160.88 10.7698C160.52 11.2398 159.87 11.5198 158.94 11.6298C158.87 13.1698 158.8 14.3098 158.72 15.0198H159.42L160.23 13.7298C160.3 13.6198 160.41 13.4798 160.55 13.2998C160.94 12.7298 161.25 12.4398 161.47 12.4398C161.83 12.4398 162.49 12.8898 163.46 13.7898C164.43 14.6898 164.91 15.3298 164.91 15.7298C164.8 16.2998 164.37 16.5898 163.62 16.5898H158.61C158.47 18.0298 158.3 19.3398 158.13 20.5198H158.45L159.31 19.2298C159.38 19.1198 159.49 18.9798 159.63 18.7998C160.02 18.2298 160.33 17.9398 160.55 17.9398C160.87 17.9398 161.52 18.3898 162.49 19.2898C163.46 20.1898 163.94 20.8298 163.94 21.2298C163.8 21.7998 163.35 22.0898 162.59 22.0898H157.8C157.37 23.7398 156.85 24.9598 156.24 25.7498C159.83 27.7298 161.03 28.7098 159.85 28.7098H159.1C158.09 29.3198 156.25 30.2398 153.55 31.4598C154.59 32.5698 154.89 33.6698 154.44 34.7498L154.43 34.7398ZM137.49 49.9798L137.01 49.2798C139.31 48.2698 141.71 46.9498 144.23 45.2898C146.67 43.7098 148.61 42.2398 150.05 40.8698L152.42 42.6498L154.79 44.3698C154.43 44.8398 153.8 44.9498 152.9 44.6898C151.1 45.7698 148.78 46.7998 145.93 47.7898C143.08 48.7798 140.27 49.4998 137.5 49.9698L137.49 49.9798ZM158.17 50.6798C157.38 50.6798 156.99 50.3198 156.99 49.5998C157.13 47.9498 157.24 45.8298 157.31 43.2498V39.5298C157.17 39.5298 156.95 39.5498 156.66 39.5798C150.16 40.0798 144.99 40.4798 141.15 40.7698C140.72 41.4198 140.23 41.7798 139.7 41.8498L137.22 36.7898C139.55 36.8598 144.79 36.8598 152.95 36.7898H154.3C154.55 36.5698 154.96 36.2698 155.54 35.8698C156.58 35.1198 157.35 34.5198 157.86 34.0898C161.27 31.3998 163.78 28.8498 165.4 26.4398C167.84 28.0598 169.35 29.1698 169.92 29.7798C170.35 30.2498 170.28 30.5198 169.7 30.5898L168.73 30.6398C165.79 32.6898 162.11 34.7198 157.69 36.7298H158.93C165.39 36.6598 170.35 36.5898 173.79 36.5098C171.99 35.0698 170.32 33.9998 168.78 33.2798L169.21 32.6898C172.62 32.8698 175.42 33.5198 177.61 34.6298C179.37 35.5298 180.55 36.6398 181.16 37.9698C181.66 39.1198 181.62 40.0798 181.03 40.8498C180.44 41.6198 179.55 41.7898 178.36 41.3598C177.64 40.2098 176.64 39.0398 175.34 37.8598C173.54 38.0798 170.42 38.3798 165.97 38.7798C164.28 38.9598 163.01 39.0898 162.15 39.1598V42.6598C162.15 43.2298 162.17 43.9498 162.2 44.8098C162.27 46.8198 162.34 48.3498 162.42 49.3898C162.24 49.6798 161.81 49.9498 161.13 50.1998C160.27 50.5198 159.28 50.6798 158.17 50.6798ZM143.15 20.5198H146.76C146.94 19.5198 147.15 18.1998 147.41 16.5898H143.91C143.73 17.6298 143.48 18.9398 143.16 20.5198H143.15ZM144.17 15.0298H147.67C147.85 13.3798 148.01 12.0698 148.15 11.0998H144.81C144.77 11.4598 144.67 12.0698 144.49 12.9298C144.35 13.8298 144.24 14.5298 144.17 15.0298ZM150.25 20.5198H154.24C154.28 20.4098 154.31 20.2298 154.35 19.9798C154.57 18.6198 154.73 17.4798 154.83 16.5898H150.9C150.83 17.0198 150.72 17.6698 150.58 18.5298C150.44 19.4598 150.33 20.1298 150.26 20.5198H150.25ZM151.17 15.0298H154.94C155.05 13.7698 155.16 12.4598 155.26 11.0998H151.71C151.67 11.3498 151.62 11.7498 151.55 12.2798C151.41 13.4998 151.28 14.4198 151.17 15.0298ZM181.44 28.4898C177.13 26.9798 173.79 24.7398 171.42 21.7598C168.4 24.0598 164.69 25.8898 160.27 27.2498L159.95 26.5498C163.94 24.6098 167.2 22.2098 169.75 19.3298C168.42 17.1398 167.18 14.1598 166.03 10.3898C164.81 11.6798 163.66 12.6498 162.58 13.2998L161.88 12.8198C161.88 12.8198 161.97 12.6998 162.04 12.5498C162.43 11.9798 162.72 11.5298 162.9 11.1998C163.73 9.68976 164.44 7.85977 165.05 5.70977C165.59 3.65977 165.89 1.86977 165.97 0.319766C168.99 1.28977 170.85 2.02977 171.57 2.52977C172.14 2.88977 172.13 3.17977 171.52 3.38977L170.55 3.76977C169.9 5.09977 169.17 6.36977 168.34 7.58977H176.9L178.03 5.91977C178.14 5.77977 178.28 5.57977 178.46 5.32977C179 4.57977 179.38 4.19977 179.59 4.19977C179.95 4.19977 180.79 4.77977 182.12 5.94977C183.45 7.11977 184.11 7.89977 184.11 8.28977C184 8.85977 183.54 9.14977 182.71 9.14977H180.02C178.8 13.2098 176.77 16.6498 173.93 19.4898C176.66 21.4698 180.16 22.9398 184.43 23.9098L184.32 24.4498C182.63 25.0598 181.66 26.4098 181.41 28.4898H181.44ZM179.88 49.4898C179.31 50.3198 178.44 50.5298 177.29 50.1398C176.21 48.9198 174.69 47.6598 172.71 46.3698C170.38 44.8298 167.88 43.5498 165.22 42.5498L165.44 41.8498C169.53 41.8498 172.87 42.3498 175.46 43.3598C177.58 44.1898 179.01 45.2598 179.77 46.5898C180.42 47.6998 180.45 48.6698 179.88 49.4998V49.4898ZM171.31 17.1798C172.89 14.9498 174.07 12.2798 174.86 9.15977H167.21L166.83 9.58977C167.83 12.5298 169.33 15.0698 171.3 17.1798H171.31Z" fill="#B72724"/>
<path d="M215.37 50.6803C214.62 50.6803 214.24 50.3203 214.24 49.6003C214.38 48.3103 214.49 46.6903 214.56 44.7503V41.7903H203.25C200.7 41.8303 198.01 42.0803 195.17 42.5403L193.77 39.7903C195.74 40.0103 198.13 40.1503 200.93 40.2203H214.56V33.8103H204.49C201.94 33.8503 199.25 34.1003 196.41 34.5603L195.01 31.8103C196.59 32.0303 198.49 32.1703 200.72 32.2403H203.47V24.7503H200.18C198.24 24.7903 196.23 25.0403 194.15 25.5003L192.75 22.7503C194.72 22.9703 197.11 23.1103 199.91 23.1803H203.46V16.0203H201.09C199.76 16.0603 198.4 16.3103 197 16.7703L195.55 14.0203C197.52 14.2403 199.91 14.3803 202.71 14.4503H231.58L232.76 12.8303C232.87 12.7203 233.01 12.5403 233.19 12.2903C233.73 11.5703 234.11 11.2103 234.32 11.2103C234.68 11.2103 235.55 11.7703 236.93 12.8803C238.31 13.9903 239 14.7503 239 15.1403C238.86 15.7103 238.39 16.0003 237.6 16.0003H230.71V23.1603H233.67L234.96 21.3803C235.07 21.2403 235.23 21.0203 235.44 20.7303C236.01 19.9803 236.41 19.6003 236.62 19.6003C236.98 19.6003 237.88 20.2103 239.31 21.4303C240.75 22.6503 241.46 23.4603 241.46 23.8503C241.32 24.4203 240.85 24.7103 240.06 24.7103H230.69V32.2003H232.79L233.92 30.5303C234.03 30.3903 234.17 30.1903 234.35 29.9403C234.89 29.1903 235.27 28.8103 235.48 28.8103C235.84 28.8103 236.68 29.3903 238.01 30.5603C239.34 31.7303 240 32.5103 240 32.9003C239.86 33.4703 239.43 33.7603 238.71 33.7603H219.32V40.1703H231.92L233.21 38.3403C233.32 38.2003 233.46 38.0003 233.64 37.7503C234.29 36.8903 234.72 36.4603 234.93 36.4603C235.29 36.4603 236.23 37.1003 237.76 38.3703C239.29 39.6403 240.05 40.4803 240.05 40.8703C239.91 41.4503 239.46 41.7303 238.7 41.7303H219.31V44.2603C219.31 44.6603 219.33 45.1603 219.36 45.7703C219.43 47.2103 219.5 48.2803 219.58 49.0003C219.4 49.3603 218.97 49.7003 218.29 50.0203C217.43 50.4103 216.44 50.6103 215.33 50.6103L215.37 50.6803ZM207.88 13.5203C207.23 13.5203 206.91 13.1603 206.91 12.4403C206.95 12.1203 206.98 11.6903 207.02 11.1503C207.06 10.7203 207.09 10.3603 207.13 10.0703V8.35031H202.18C199.63 8.39031 196.94 8.64031 194.1 9.10031L192.86 6.35031C194.83 6.57031 197.22 6.71031 200.02 6.78031H207.13C207.13 4.12031 207 1.97031 206.75 0.320312C209.95 1.11031 211.96 1.72031 212.78 2.15031C213.35 2.47031 213.37 2.81031 212.83 3.17031L211.91 3.71031V6.78031H222.03C222.03 4.12031 221.9 1.97031 221.65 0.320312C224.92 1.07031 226.95 1.67031 227.74 2.10031C228.35 2.42031 228.39 2.77031 227.85 3.12031L226.93 3.71031V6.78031H233.29L234.53 4.90031C234.64 4.76031 234.8 4.52031 235.01 4.20031C235.58 3.41031 235.98 3.01031 236.19 3.01031C236.55 3.01031 237.46 3.66031 238.91 4.95031C240.36 6.24031 241.09 7.09031 241.09 7.48031C240.98 8.05031 240.52 8.34031 239.69 8.34031H226.93V9.58031C226.97 9.83031 226.98 10.1503 226.98 10.5503C227.05 11.1203 227.11 11.5403 227.14 11.7903C227.03 12.1503 226.58 12.4903 225.79 12.8103C224.93 13.1303 223.96 13.2903 222.88 13.2903C222.16 13.2903 221.8 12.9303 221.8 12.2103C221.84 11.9203 221.87 11.5103 221.91 10.9703C221.95 10.6103 221.98 10.2903 222.02 10.0003V8.33031H211.9V9.68031C211.94 9.97031 211.95 10.3103 211.95 10.7003C212.02 11.3103 212.08 11.7603 212.11 12.0503C212 12.4503 211.53 12.7903 210.68 13.0703C209.84 13.3603 208.89 13.5003 207.85 13.5003L207.88 13.5203ZM208.2 23.2103H214.55V16.0503H208.2V23.2103ZM208.2 32.2603H214.55V24.7703H208.2V32.2603ZM219.35 23.2103H225.87V16.0503H219.35V23.2103ZM219.35 32.2603H225.87V24.7703H219.35V32.2603Z" fill="#B72724"/>
<path d="M263.57 50.7302L263.14 49.9202C267.74 48.2702 271.24 46.3502 273.64 44.1602C275.72 42.2602 277.16 39.9802 277.95 37.3202H273.8C271.36 37.3602 268.85 37.6102 266.26 38.0702L264.86 35.3202C266.83 35.5402 269.22 35.6802 272.02 35.7502H278.32C278.61 34.2402 278.79 32.1802 278.86 29.5602H274.39V31.2802C274.39 31.5702 273.98 31.8902 273.15 32.2502C272.22 32.6802 271.3 32.9002 270.4 32.9002C270.08 32.9002 269.81 32.7902 269.59 32.5802C269.37 32.3602 269.27 32.1102 269.27 31.8302C269.52 28.4902 269.68 24.8302 269.75 20.8402V14.8102C269.46 14.9902 269.12 15.0802 268.73 15.0802H262.32V20.4102C264.73 21.5202 266.52 22.8202 267.71 24.2902C268.68 25.5102 269.13 26.7002 269.06 27.8402C268.99 28.8802 268.56 29.5702 267.77 29.9102C266.98 30.2502 266.15 30.0302 265.29 29.2402C265 27.1602 264.02 24.6402 262.33 21.7002V36.1302C262.4 40.5802 262.55 44.8002 262.76 48.7902C262.54 49.2202 262.01 49.6302 261.14 50.0302C260.24 50.4202 259.36 50.6202 258.5 50.6202C258.03 50.6202 257.67 50.5102 257.4 50.3002C257.13 50.0902 257 49.8302 257 49.5502C257 49.3002 257.02 48.9402 257.05 48.4702C257.3 44.2002 257.46 39.9302 257.53 35.6502V28.1602C255.56 31.9702 253.13 35.4002 250.26 38.4502L249.51 37.8002C253.06 32.1602 255.56 24.5902 257 15.0702H254.79C253.57 15.1102 252.31 15.3602 251.02 15.8202L249.67 13.0702C251.14 13.2902 252.94 13.4302 255.06 13.5002H257.54V11.4502C257.54 6.93016 257.31 3.25016 256.84 0.410156C260.25 1.24016 262.37 1.88016 263.19 2.35016C263.8 2.71016 263.82 3.07016 263.24 3.43016L262.32 4.02016V13.5002H263.18L265.66 9.84016C267.02 11.1702 268.39 12.5002 269.75 13.8302V12.4802L274.7 14.6302H288.76L289.78 13.3402C289.85 13.2702 289.94 13.1602 290.05 13.0202C290.55 12.3702 290.93 12.0502 291.18 12.0502C291.54 12.0502 292.42 12.5902 293.82 13.6702C295.22 14.7502 295.92 15.4802 295.92 15.8802C295.52 16.3502 294.88 16.6902 293.98 16.9002V21.3702C294.05 25.0302 294.16 27.9202 294.3 30.0402C294.08 30.4002 293.53 30.7902 292.63 31.2202C291.66 31.6502 290.78 31.8702 289.99 31.8702H289.18V29.5502H284.06C283.92 32.3502 283.7 34.4202 283.41 35.7402H290.47L291.82 33.8002C291.93 33.6602 292.07 33.4602 292.25 33.2102C292.9 32.2802 293.33 31.8102 293.54 31.8102C293.9 31.8102 294.81 32.4802 296.29 33.8302C297.76 35.1802 298.5 36.0502 298.5 36.4402C298.36 37.0102 297.89 37.3002 297.1 37.3002H284.39C286.33 41.1402 291.36 43.7402 299.47 45.1102L299.42 45.7602C298.09 46.0802 297.12 46.5702 296.51 47.2102C295.86 47.9602 295.49 49.0802 295.38 50.5502C288.88 48.5002 284.88 44.0902 283.37 37.3002H283.05C282.15 40.6002 280.36 43.2402 277.66 45.2202C274.57 47.5502 269.87 49.3802 263.55 50.7102L263.57 50.7302ZM274.98 13.0902C274.37 13.0902 274.06 12.7302 274.06 12.0102C274.1 11.7602 274.13 11.4002 274.17 10.9302C274.21 10.6102 274.24 10.3202 274.28 10.0702V8.56016H271.91C270.58 8.60016 269.22 8.85016 267.82 9.31016L266.47 6.56016C267.91 6.78016 269.67 6.92016 271.75 6.99016H274.28C274.28 4.41016 274.15 2.29016 273.9 0.640156C276.99 1.39016 278.91 1.99016 279.66 2.42016C280.23 2.74016 280.25 3.09016 279.71 3.44016L278.79 4.03016V6.99016H284.88C284.88 4.41016 284.75 2.29016 284.5 0.640156C287.55 1.39016 289.45 1.99016 290.21 2.42016C290.78 2.74016 290.8 3.09016 290.26 3.44016L289.34 4.03016V6.99016H291.12L292.25 5.27016C292.36 5.13016 292.5 4.93016 292.68 4.68016C293.22 3.93016 293.6 3.55016 293.81 3.55016C294.17 3.55016 294.99 4.14016 296.26 5.33016C297.53 6.52016 298.17 7.31016 298.17 7.70016C298.13 8.27016 297.7 8.56016 296.88 8.56016H289.34V9.53016C289.38 9.82016 289.39 10.1402 289.39 10.5002C289.43 10.8202 289.46 11.0402 289.5 11.1502C289.43 11.5102 288.96 11.8802 288.1 12.2502C287.24 12.6302 286.38 12.8202 285.51 12.8202C284.94 12.8202 284.65 12.4602 284.65 11.7402C284.69 11.5202 284.72 11.2202 284.76 10.8202C284.8 10.5002 284.83 10.2302 284.87 10.0102V8.56016H278.78V9.64016C278.82 9.96016 278.83 10.3202 278.83 10.7202C278.87 11.0802 278.9 11.3302 278.94 11.4702C278.87 11.8302 278.4 12.1902 277.54 12.5502C276.68 12.9102 275.82 13.0902 274.96 13.0902H274.98ZM274.39 21.3302H289.2V16.2102H274.39V21.3302ZM274.39 28.0002H289.2V22.8802H274.39V28.0002Z" fill="#B72724"/>
<path d="M315.38 50.6196C314.91 50.6196 314.55 50.5096 314.28 50.2996C314.01 50.0896 313.88 49.8296 313.88 49.5496C313.88 49.3296 313.9 49.0297 313.93 48.6297C314.18 44.3596 314.34 40.0996 314.41 35.8696V28.4396C312.58 32.0696 310.32 35.3196 307.62 38.1896L306.97 37.4897C310.24 31.9297 312.55 24.5096 313.92 15.2496H311.71C310.53 15.2896 309.3 15.5396 308.05 15.9996L306.7 13.2496C308.14 13.4696 309.9 13.6096 311.98 13.6796H314.4V11.5296C314.4 7.00965 314.17 3.32965 313.7 0.489648C317 1.31965 319.07 1.93965 319.89 2.37965C320.5 2.73965 320.54 3.09965 320 3.45965L319.08 4.04965V13.6896H320.05L321.18 11.9096C321.29 11.7696 321.43 11.5696 321.61 11.3196C322.15 10.4896 322.53 10.0796 322.74 10.0796C323.06 10.0796 323.84 10.6996 325.08 11.9396C326.32 13.1796 326.94 13.9996 326.94 14.3896C326.83 14.9596 326.37 15.2496 325.54 15.2496H319.08V21.4996C321.52 22.5796 323.33 23.8496 324.52 25.3196C325.52 26.5796 325.97 27.7996 325.87 28.9796C325.8 30.0596 325.35 30.7696 324.52 31.1096C323.69 31.4496 322.85 31.2096 321.99 30.3796C321.7 28.1496 320.73 25.6096 319.08 22.7296V36.1896C319.15 40.6396 319.3 44.8596 319.51 48.8496C319.29 49.2796 318.77 49.6796 317.95 50.0396C317.05 50.4296 316.19 50.6297 315.37 50.6297L315.38 50.6196ZM321.68 49.2796L321.25 48.5296C323.48 47.0596 325.36 45.1896 326.91 42.9296C328.42 40.7796 329.51 38.4096 330.2 35.8196H328.05C326.94 35.8596 325.75 36.1096 324.5 36.5696L323.05 33.8797C324.34 34.0997 325.92 34.2397 327.79 34.3097H330.05L331.18 33.0696C331.25 32.9996 331.34 32.8896 331.45 32.7496C332.02 32.0996 332.44 31.7796 332.69 31.7796C333.05 31.7796 333.86 32.3096 335.11 33.3696C336.37 34.4296 337 35.1596 337 35.5496C336.71 35.9796 336.05 36.2096 335.01 36.2496C332.82 42.2496 328.39 46.5896 321.71 49.2796H321.68ZM325.23 22.1896L323.83 19.4396C325.8 19.6596 328.19 19.7997 330.99 19.8696H337.08V15.4496H333.96C332.13 15.4896 330.23 15.7396 328.25 16.1996L326.85 13.4496C328.75 13.6696 331.05 13.8096 333.74 13.8796H337.08V9.83965H333.36C331.13 9.87965 328.84 10.1296 326.47 10.5896L325.12 7.83965C326.84 8.05965 328.89 8.19965 331.26 8.26965H334.06L333.95 8.21965C333.7 8.07965 333.52 7.96965 333.41 7.89965C333.23 6.78965 332.76 5.56965 332.01 4.23965C331.29 3.05965 330.5 2.02965 329.64 1.16965L330.18 0.789648C332.69 1.18965 334.58 1.93965 335.83 3.04965C336.91 3.97965 337.43 5.00965 337.39 6.11965C337.35 7.15965 336.92 7.87965 336.1 8.26965H341.38C342.53 5.46965 343.23 2.75965 343.48 0.139648C346.68 0.969648 348.69 1.60965 349.51 2.07965C350.08 2.39965 350.08 2.68965 349.51 2.93965L348.54 3.31965C346.89 5.00965 345.07 6.65965 343.1 8.27965H347.57L348.75 6.65965C348.86 6.51965 349.02 6.31965 349.23 6.06965C349.73 5.34965 350.09 4.98965 350.31 4.98965C350.67 4.98965 351.53 5.55965 352.9 6.68965C354.26 7.81965 354.95 8.57965 354.95 8.97965C354.81 9.54965 354.36 9.83965 353.6 9.83965H341.81V13.8796H346.12L347.3 12.2596C347.41 12.1496 347.55 11.9696 347.73 11.7196C348.27 10.9996 348.65 10.6396 348.86 10.6396C349.22 10.6396 350.05 11.1996 351.36 12.3096C352.67 13.4196 353.33 14.1796 353.33 14.5696C353.22 15.1396 352.79 15.4296 352.04 15.4296H341.81V19.8496H347.9L349.14 18.0696C349.25 17.9296 349.41 17.7097 349.62 17.4196C350.19 16.6696 350.59 16.2896 350.8 16.2896C351.16 16.2896 352.05 16.8997 353.47 18.1196C354.89 19.3396 355.6 20.1497 355.6 20.5396C355.46 21.1096 354.99 21.3996 354.2 21.3996H333.3C330.75 21.4396 328.06 21.6896 325.22 22.1496L325.23 22.1896ZM335.46 50.7296C335.28 49.1096 334.89 48.0496 334.28 47.5496C333.45 46.7996 332.04 46.2797 330.03 45.9897V45.1796C332.11 45.2896 334.18 45.4096 336.22 45.5597C336.61 45.5597 336.88 45.4796 337.03 45.3196C337.17 45.1596 337.25 44.8797 337.25 44.4897V30.4296H334.4C332.78 30.4697 331.06 30.7197 329.23 31.1796L327.99 28.4296C329.71 28.6496 331.76 28.7896 334.13 28.8596H337.09L337.9 27.5696C337.97 27.4596 338.08 27.2996 338.22 27.0896C338.61 26.5196 338.92 26.2296 339.14 26.2296C339.5 26.2296 340.42 26.8496 341.91 28.0896C343.4 29.3296 344.15 30.1497 344.15 30.5396C343.65 31.1096 342.91 31.4896 341.94 31.6696C342.51 33.1096 343.38 34.6096 344.53 36.1896C347.04 32.7396 348.78 29.8196 349.75 27.4096C352.33 29.2796 353.95 30.5496 354.6 31.2296C355.07 31.7296 355.01 31.9996 354.44 32.0396L353.47 32.0896C350.89 33.7397 348.1 35.3596 345.12 36.9396C348.1 40.4596 351.8 42.8596 356.21 44.1596L356.16 44.7496C354.26 45.2496 353.04 46.7997 352.5 49.3797C347.51 46.3997 343.99 41.5196 341.94 34.7296V45.0196C341.94 46.8097 341.56 48.1096 340.81 48.8997C339.88 49.8697 338.1 50.4796 335.48 50.7296H335.46ZM344.59 27.9496C344.14 28.6996 343.41 28.9597 342.41 28.6996C341.55 27.7997 340.27 26.8897 338.59 25.9496C336.69 24.9096 334.64 24.0796 332.45 23.4696L332.61 22.6596C335.91 22.2996 338.62 22.4396 340.74 23.0896C342.5 23.5896 343.72 24.3796 344.4 25.4596C344.97 26.3596 345.04 27.1796 344.59 27.9396V27.9496Z" fill="#B72724"/>
<path d="M364.66 57.5204L363.8 55.9604C367.35 54.0604 369.36 51.4204 369.83 48.0404C368.14 47.4704 366.92 46.9104 366.17 46.3704C364.91 45.4404 364.28 44.2704 364.28 42.8704C364.28 41.7904 364.64 40.8804 365.36 40.1204C366.15 39.3304 367.15 38.9404 368.38 38.9404C369.74 38.9404 370.85 39.4404 371.69 40.4504C372.53 41.4604 372.96 42.8004 372.96 44.4904C372.96 47.0704 372.35 49.4604 371.13 51.6504C369.69 54.2304 367.54 56.1904 364.67 57.5204H364.66Z" fill="#B72724"/>
<path d="M425.36 47.9497C421.08 47.9497 417.72 46.9897 415.28 45.0797C412.84 43.1597 411.62 40.5097 411.62 37.1197C411.62 32.2797 414.87 28.4297 421.36 25.5597C415.71 22.5297 412.89 18.2797 412.89 12.7897C412.89 9.39973 414.14 6.65973 416.64 4.55973C419.1 2.49973 422.17 1.46973 425.84 1.46973C429.51 1.46973 432.5 2.47973 434.67 4.49973C436.77 6.39973 437.82 8.85973 437.82 11.8797C437.82 16.2797 435.04 19.9297 429.47 22.8297C433.02 24.5197 435.6 26.3997 437.22 28.4597C438.87 30.5597 439.7 33.0597 439.7 35.9597C439.7 39.5497 438.38 42.4497 435.74 44.6397C433.1 46.8397 429.64 47.9397 425.36 47.9397V47.9497ZM425.73 45.5897C428.11 45.5897 430.01 44.8497 431.42 43.3797C432.83 41.9097 433.54 39.9397 433.54 37.4797C433.54 35.2597 432.81 33.3497 431.36 31.7297C429.79 29.9997 427.06 28.2397 423.19 26.4697C421.21 27.8797 419.78 29.3097 418.89 30.7697C417.96 32.3397 417.5 34.2197 417.5 36.3997C417.5 39.2197 418.25 41.4597 419.74 43.1197C421.23 44.7697 423.23 45.5997 425.73 45.5997V45.5897ZM427.6 21.9897C429.33 20.4997 430.57 18.9397 431.29 17.3297C432.02 15.7597 432.38 13.8997 432.38 11.7597C432.38 9.49973 431.81 7.66973 430.69 6.24973C429.44 4.71973 427.79 3.94973 425.73 3.94973C423.79 3.94973 422.14 4.59973 420.77 5.88973C419.36 7.25973 418.65 9.00973 418.65 11.1197C418.65 13.2297 419.23 15.0997 420.4 16.7197C421.81 18.6597 424.21 20.4097 427.6 21.9797V21.9897Z" fill="#B72724"/>
<path d="M455.2 47.8899C453.91 47.8899 452.8 47.4399 451.87 46.5299C450.94 45.6199 450.48 44.5299 450.48 43.2599C450.48 41.9899 450.94 40.8999 451.87 39.9899C452.8 39.0799 453.91 38.6299 455.2 38.6299C456.49 38.6299 457.59 39.0799 458.5 39.9899C459.41 40.8999 459.86 41.9999 459.86 43.2899C459.86 44.5799 459.41 45.6699 458.5 46.5599C457.59 47.4499 456.49 47.8899 455.2 47.8899Z" fill="#B72724"/>
<path d="M468.57 47.0496V42.9996C470.47 40.8196 473.17 37.6696 476.68 33.5596C477.81 32.2696 478.64 31.3196 479.16 30.7196C482.63 26.6496 484.99 23.4796 486.24 21.2196C487.69 18.5996 488.42 15.9396 488.42 13.2296C488.42 10.7296 487.7 8.70961 486.27 7.17961C484.84 5.64961 482.91 4.87961 480.49 4.87961C478.27 4.87961 476.25 5.46961 474.44 6.62961C472.91 7.63961 471.29 9.22961 469.6 11.4096L468.51 10.6196C469.32 7.75961 470.99 5.51961 473.53 3.89961C476.03 2.36961 478.98 1.59961 482.36 1.59961C486.56 1.59961 489.78 2.68961 492.04 4.86961C494.18 6.96961 495.25 9.82961 495.25 13.4596C495.25 16.1996 494.12 19.0496 491.86 21.9896C490.08 24.2496 486.45 27.9396 480.97 33.0596C478.67 35.2796 475.85 38.1196 472.5 41.5896H496.83V47.0396H468.57V47.0496Z" fill="#B72724"/>
<path d="M532.45 50.6804C532.05 50.6804 531.73 50.5704 531.48 50.3604C531.23 50.1404 531.1 49.8904 531.1 49.6104C531.1 49.3604 531.12 49.0204 531.15 48.5904C531.4 44.6804 531.56 40.7604 531.63 36.8504V29.9004C529.4 34.1404 526.57 37.8704 523.12 41.1004L522.42 40.4504C526.19 34.9204 528.94 27.7204 530.66 18.8504H528.29C527 18.8904 525.67 19.1404 524.3 19.6004L522.9 16.8504C524.52 17.0704 526.49 17.2104 528.82 17.2804H531.62V8.77039C528.24 9.52039 525.37 10.0604 523 10.3904L522.78 9.64039C525.62 8.60039 528.63 7.18039 531.83 5.39039C534.88 3.70039 537.29 2.12039 539.05 0.650391L544.92 5.39039C544.38 5.97039 543.36 6.02039 541.85 5.55039C540.31 6.20039 538.47 6.84039 536.36 7.49039V17.2904H537.98L539.11 15.4604C539.18 15.3504 539.27 15.1904 539.38 14.9804C539.95 14.0804 540.37 13.6304 540.62 13.6304C540.94 13.6304 541.78 14.2604 543.12 15.5104C544.47 16.7704 545.14 17.5904 545.14 17.9904C545 18.5604 544.53 18.8504 543.74 18.8504H536.36V23.4804C539.05 24.4904 541.08 25.7404 542.45 27.2504C543.56 28.5104 544.12 29.7604 544.12 31.0204C544.08 32.1704 543.64 32.9604 542.8 33.3904C541.96 33.8204 541.05 33.6204 540.08 32.8004C539.83 30.3904 538.59 27.6504 536.36 24.5604V36.2504C536.43 40.7004 536.58 44.9204 536.79 48.9104C536.5 49.3404 536.02 49.7204 535.34 50.0404C534.48 50.4704 533.51 50.6904 532.43 50.6904L532.45 50.6804ZM540.26 50.6204L540.04 49.8104C548.37 47.1204 554.76 42.7204 559.21 36.6204C560.25 35.2204 561.26 33.3704 562.25 31.0704C563.24 28.7704 563.86 26.8704 564.11 25.3604L567.72 27.4604C570.38 28.5704 571.06 29.2604 569.77 29.5104L568.75 29.6704C566.06 35.9504 562.2 40.8404 557.17 44.3204C552.65 47.4804 547.01 49.5804 540.26 50.6204ZM543.49 27.4104L542.68 26.9304C543.47 25.2804 544.24 23.2004 545 20.6804C545.5 18.9604 545.92 17.0004 546.24 14.8104C546.53 12.5504 546.62 10.6804 546.51 9.21039L550.44 10.5604C553.13 11.1304 553.89 11.6904 552.7 12.2304L551.73 12.6104C549.68 19.1504 546.94 24.0804 543.49 27.4204V27.4104ZM553.02 34.7404C552.95 33.2004 552.61 32.1204 552 31.5104C551.28 30.7604 549.95 30.2404 548.01 29.9504V29.1404C549.91 29.2504 551.8 29.3604 553.66 29.4604C554.31 29.4604 554.63 29.1604 554.63 28.5404V12.1204C554.63 7.60039 554.4 3.92039 553.93 1.08039C557.2 1.87039 559.24 2.48039 560.07 2.91039C560.68 3.23039 560.72 3.57039 560.18 3.93039L559.26 4.47039V28.7604C559.26 30.7404 558.92 32.1204 558.24 32.9104C557.34 33.9204 555.6 34.5304 553.02 34.7404ZM569.71 25.6404C568.78 26.2104 567.75 25.9504 566.64 24.8304C566.53 20.4104 565.02 15.3204 562.12 9.53039L562.82 9.26039C565.76 11.4104 567.95 13.7504 569.39 16.2604C570.61 18.3404 571.2 20.3404 571.17 22.2404C571.13 23.9304 570.65 25.0604 569.72 25.6304L569.71 25.6404Z" fill="#B72724"/>
<path d="M581.35 11.6299L579.95 8.87992C581.92 9.09992 584.31 9.23992 587.11 9.30992H591.04C591.04 5.67992 590.86 2.71992 590.5 0.419922C593.7 1.16992 595.71 1.76992 596.53 2.19992C597.1 2.51992 597.16 2.85992 596.69 3.21992L595.88 3.75992V9.30992H599.7L600.99 7.36992C601.1 7.22992 601.24 7.02992 601.42 6.77992C602.07 5.84992 602.5 5.37992 602.71 5.37992C603.07 5.37992 603.99 6.04992 605.48 7.39992C606.97 8.74992 607.71 9.61992 607.71 10.0099C607.6 10.5799 607.14 10.8699 606.31 10.8699H589.4C586.85 10.9099 584.16 11.1599 581.32 11.6199L581.35 11.6299ZM580.65 45.1299L580 44.6499C580.47 43.9299 580.93 43.0699 581.4 42.0699C582.15 40.4499 582.8 38.5699 583.34 36.4199C583.88 34.2699 584.18 32.4299 584.26 30.9299L587.92 32.4399C590.54 33.0899 591.24 33.6399 590.02 34.1099L589.1 34.4899C586.95 39.0899 584.13 42.6399 580.64 45.1499L580.65 45.1299ZM589.75 50.6799C589.61 48.9899 589.34 47.8599 588.94 47.2899C588.33 46.4999 587.11 45.9599 585.28 45.6699V44.9199C586.9 45.0299 588.51 45.1399 590.13 45.2399C590.78 45.2399 591.1 44.9199 591.1 44.2699V27.0899H588.14V28.2799C588.14 28.5299 587.73 28.8199 586.9 29.1399C586 29.5399 585.12 29.7299 584.26 29.7299C583.69 29.7299 583.4 29.3699 583.4 28.6499C583.47 27.9299 583.54 26.9599 583.62 25.7399C583.66 25.1999 583.67 24.7499 583.67 24.3899V21.6999C583.67 18.4299 583.51 15.6699 583.19 13.4099L588.36 15.7299H598.32L600.58 13.1999L604.46 16.2199L604.41 16.0599H611.25C611.29 15.0899 611.3 13.6399 611.3 11.6999C611.3 7.02992 611.07 3.27992 610.6 0.439922C614.12 0.799922 616.33 1.13992 617.22 1.45992C617.87 1.67992 617.9 1.97992 617.33 2.37992L616.41 2.96992C616.41 3.68992 616.39 4.77992 616.36 6.25992C616.32 10.7099 616.27 13.9799 616.2 16.0599H620.56L621.85 14.2299C621.96 14.0899 622.12 13.8499 622.33 13.5299C622.9 12.7399 623.3 12.3499 623.52 12.3499C623.88 12.3499 624.79 12.9899 626.24 14.2599C627.69 15.5299 628.42 16.3699 628.42 16.7599C628.28 17.3299 627.81 17.6199 627.02 17.6199H616.14C616.1 17.9799 616.07 18.5399 616.03 19.2899C615.96 20.0799 615.9 20.6499 615.87 21.0099C618.02 21.6199 619.35 22.1099 619.86 22.4599C620.26 22.7799 620.22 23.1099 619.75 23.4299L618.94 23.9699V43.8399C618.94 44.2399 619.01 44.4999 619.16 44.6499C619.3 44.7899 619.59 44.8699 620.02 44.8699H621.96C623.04 44.8699 623.68 44.8499 623.9 44.8199C624.22 44.8199 624.49 44.5899 624.71 44.1199C625 43.4699 625.59 40.8299 626.49 36.1999C626.53 36.0199 626.56 35.8799 626.6 35.7699H627.19L627.35 44.4399C628.32 44.9399 628.8 45.6599 628.8 46.5899C628.8 47.6299 628.28 48.3799 627.24 48.8499C626.09 49.3899 624.22 49.6599 621.64 49.6599H618.62C616.79 49.6599 615.57 49.3399 614.96 48.6899C614.42 48.0799 614.15 46.9099 614.15 45.1899V31.3999C613 35.4899 611.28 39.0499 608.98 42.0599C606.4 45.3599 602.97 48.2299 598.69 50.6799L598.1 49.8699C602.84 45.9199 606.23 41.1299 608.28 35.4899C609.93 30.9299 610.9 24.9699 611.19 17.6099H604.83V17.5599C604.47 17.7799 604.02 17.9399 603.48 18.0399V21.3299C603.48 21.8299 603.5 22.4999 603.53 23.3199C603.6 25.1899 603.67 26.6099 603.75 27.5699C603.57 27.8899 603.01 28.2299 602.08 28.5699C601.15 28.9099 600.3 29.0799 599.55 29.0799H598.8V27.0899H595.84V44.3799C595.84 46.3499 595.5 47.7899 594.82 48.6899C593.92 49.7999 592.24 50.4699 589.76 50.6799H589.75ZM588.13 25.5799H598.79V17.2899H588.13V25.5799ZM600.14 40.7699C600.14 39.3699 599.85 37.8299 599.28 36.1399C598.74 34.6299 598.08 33.2499 597.29 31.9899L597.88 31.6699C600.39 32.7499 602.24 34.0599 603.43 35.5999C604.4 36.8599 604.79 38.1099 604.61 39.3699C604.43 40.5199 603.89 41.2699 602.99 41.6299C602.02 41.9899 601.07 41.6999 600.14 40.7699ZM621.58 11.4699C621.36 10.2899 620.88 8.93992 620.13 7.42992C619.45 6.13992 618.68 4.96992 617.81 3.92992L618.29 3.54992C620.91 4.19992 622.87 5.16992 624.16 6.45992C625.27 7.49992 625.79 8.60992 625.72 9.79992C625.68 10.8799 625.24 11.6099 624.37 12.0099C623.47 12.4399 622.54 12.2599 621.57 11.4699H621.58Z" fill="#B72724"/>
<path d="M681.68 50.7297C673.35 49.5397 666.92 47.4797 662.4 44.5397C656.01 47.8097 647.95 49.8497 638.22 50.6797L637.9 49.8197C646.55 48.2397 653.73 45.7497 659.44 42.3297C657.29 40.4297 655.56 38.2897 654.27 35.9197C649.67 39.6897 644.59 42.4597 639.03 44.2097L638.65 43.4597C641.85 41.7697 644.92 39.5597 647.89 36.8097C650.86 34.0597 653.16 31.3097 654.81 28.5397C653.98 28.3197 653.43 27.9497 653.14 27.4097C652.89 26.9097 652.76 26.1197 652.76 25.0397V21.2197C652.76 19.5697 652.69 18.2197 652.54 17.1797C655.12 17.9297 656.76 18.5297 657.44 18.9597C657.94 19.2797 657.98 19.5897 657.55 19.8797L656.85 20.3597V24.2397C656.85 24.5597 656.94 24.7697 657.12 24.8597C657.3 24.9497 657.77 24.9897 658.52 24.9897H663.04C665.37 24.9897 666.74 24.9697 667.13 24.9397C667.67 24.8697 668.03 24.7197 668.21 24.5097C668.57 23.9697 669.05 22.7497 669.66 20.8497H670.25L670.41 24.5697C671.45 24.9297 671.97 25.4897 671.97 26.2397C671.97 27.1697 671.36 27.8197 670.14 28.1797C668.85 28.5797 666.35 28.7697 662.65 28.7697H657.96C659.43 29.3797 660.33 29.8697 660.65 30.2197C660.9 30.5097 660.76 30.6897 660.22 30.7597L659.36 30.8697C658.64 31.7297 658.09 32.3797 657.69 32.8097H668.89L670.29 31.4597C670.4 31.3497 670.56 31.2097 670.77 31.0297C671.45 30.4197 671.9 30.1097 672.12 30.1097C672.44 30.1097 673.23 30.7497 674.49 32.0197C675.75 33.2897 676.37 34.1297 676.37 34.5197C676.08 34.8797 675.31 35.1097 674.05 35.2197C671.93 37.9897 669.29 40.3697 666.13 42.3797C671.23 44.0997 677.62 45.1097 685.3 45.3997V46.0497C683.36 46.6197 682.14 48.1897 681.64 50.7397L681.68 50.7297ZM679.55 27.2197C678.71 27.9597 677.67 27.9297 676.45 27.1397C676.05 25.6997 675.21 24.1197 673.92 22.3997C672.73 20.8897 671.44 19.5997 670.04 18.5197L670.52 18.0897C672.67 18.4497 674.54 19.0097 676.12 19.7597C676.8 18.4697 677.47 16.9597 678.11 15.2397H645.26C645.22 16.7097 644.94 18.0197 644.4 19.1697C643.86 20.1797 643.2 20.9297 642.41 21.4297C641.66 21.8997 640.87 22.0597 640.04 21.9097C639.18 21.7697 638.62 21.2997 638.37 20.5097C637.9 19.1797 638.46 18.0897 640.04 17.2197C641.04 16.6797 641.91 15.8597 642.62 14.7397C643.41 13.4797 643.79 12.1697 643.75 10.8097H644.56C644.88 11.8497 645.1 12.7997 645.21 13.6597H651.08C650.68 13.5497 650.27 13.3197 649.84 12.9597C649.8 11.9897 649.52 10.9097 648.98 9.72973C648.48 8.64973 647.9 7.71973 647.26 6.92973L647.74 6.60973C645.77 6.64973 643.83 6.64973 641.92 6.60973L641.76 5.58973C647.58 5.18973 653.82 4.49973 660.5 3.48973C667.07 2.51973 672.35 1.51973 676.33 0.469727C678.34 2.51973 679.53 3.84973 679.88 4.45973C680.13 4.99973 679.86 5.20973 679.07 5.10973L677.62 4.83973C672.09 5.51973 665.86 6.01973 658.93 6.34973C660.9 7.02973 662.3 7.94973 663.13 9.09973C663.85 10.0297 664.06 10.9697 663.78 11.8997C663.53 12.7997 662.99 13.3497 662.16 13.5697C661.3 13.8197 660.45 13.5697 659.63 12.8197C659.63 10.7697 658.93 8.63973 657.53 6.40973C653.22 6.54973 649.99 6.62973 647.84 6.62973C650.17 7.16973 651.86 7.99973 652.9 9.10973C653.76 10.0097 654.1 10.9597 653.92 11.9597C653.7 12.8597 653.18 13.4297 652.36 13.6797H668.3C669.92 10.7397 670.99 7.93973 671.53 5.27973C674.55 6.53973 676.43 7.42973 677.18 7.96973C677.75 8.39973 677.74 8.68973 677.13 8.82973L676.16 9.04973C674.65 10.5597 672.69 12.0997 670.29 13.6797H678.1L679.34 12.3297C679.45 12.2197 679.59 12.0797 679.77 11.8997C680.34 11.2897 680.74 10.9797 680.96 10.9797C681.28 10.9797 682.1 11.6497 683.41 12.9697C684.72 14.2997 685.38 15.1597 685.38 15.5597C685.09 15.8797 684.43 16.0797 683.39 16.1497C681.56 17.6897 679.35 19.0197 676.77 20.1397C678.67 21.2197 679.84 22.5297 680.27 24.0697C680.63 25.4297 680.39 26.4897 679.54 27.2197H679.55ZM644.17 28.1097C643.33 27.9297 642.8 27.4797 642.58 26.7597C642.18 25.3597 642.78 24.2697 644.36 23.4697C645.47 23.0797 646.46 22.4097 647.32 21.4797C648.25 20.3997 648.77 19.2497 648.88 18.0297L649.69 18.0797C650.3 20.4897 650.23 22.5997 649.47 24.4297C648.82 26.0097 647.85 27.0997 646.56 27.7197C645.81 28.1497 645.01 28.2797 644.16 28.0997L644.17 28.1097ZM662.02 40.6597C664.71 38.7597 666.87 36.6597 668.48 34.3597H656.09C655.91 34.5397 655.62 34.8097 655.23 35.1697L655.07 35.2797C656.76 37.3597 659.07 39.1597 662.02 40.6697V40.6597ZM662.72 22.3997C662.36 21.3997 661.68 20.3497 660.67 19.2797C659.74 18.2797 658.75 17.4497 657.71 16.7997L658.14 16.3197C660.72 16.2797 662.75 16.6997 664.23 17.5597C665.42 18.2397 666.1 19.0997 666.28 20.1397C666.42 21.1097 666.14 21.8497 665.42 22.3497C664.67 22.9197 663.77 22.9397 662.73 22.3997H662.72Z" fill="#B72724"/>
<path d="M695.36 48.6295L694.01 45.8795C695.98 46.0995 698.37 46.2395 701.17 46.3095H714.15V12.0595C714.15 7.53953 713.92 3.85953 713.45 1.01953C717.08 1.87953 719.34 2.54953 720.24 3.00953C720.92 3.36953 720.98 3.72953 720.4 4.08953L719.48 4.67953V21.3195H729.44L730.95 19.2195C731.06 19.1095 731.2 18.9295 731.38 18.6795C732.13 17.5995 732.64 17.0595 732.89 17.0595C733.25 17.0595 734.28 17.7895 735.99 19.2395C737.7 20.6895 738.55 21.6195 738.55 22.0095C738.44 22.5795 737.99 22.8695 737.2 22.8695H719.48V46.2995H733.27L734.78 44.1495C734.89 43.9695 735.07 43.7395 735.32 43.4495C736 42.4795 736.45 41.9995 736.67 41.9995C737.03 41.9995 738.1 42.7395 739.87 44.2095C741.65 45.6795 742.54 46.6095 742.54 47.0095C742.4 47.5795 741.91 47.8695 741.09 47.8695H703.44C700.89 47.9095 698.2 48.1595 695.36 48.6195V48.6295Z" fill="#B72724"/>
<path d="M757.94 50.5701C755.86 50.5701 754.06 49.8201 752.55 48.3101C751.04 46.8001 750.29 45.0101 750.29 42.9201C750.29 40.8301 751.03 39.0501 752.53 37.5601C754.02 36.0701 755.82 35.3301 757.94 35.3301C760.06 35.3301 761.85 36.0701 763.33 37.5401C764.8 39.0101 765.54 40.8101 765.54 42.9301C765.54 45.0501 764.79 46.8501 763.31 48.3401C761.82 49.8301 760.03 50.5801 757.95 50.5801L757.94 50.5701ZM757.94 48.6301C759.48 48.6301 760.81 48.0701 761.93 46.9601C763.04 45.8501 763.6 44.5001 763.6 42.9201C763.6 41.3401 763.05 40.0001 761.96 38.9101C760.86 37.8201 759.53 37.2701 757.95 37.2701C756.37 37.2701 755.02 37.8201 753.91 38.9101C752.8 40.0101 752.24 41.3401 752.24 42.9201C752.24 44.5001 752.8 45.8501 753.91 46.9601C755.02 48.0701 756.37 48.6301 757.95 48.6301H757.94Z" fill="#B72724"/>
</g>
<defs>
<clipPath id="clip0_6_1362">
<rect width="775.6" height="54.32" fill="white" transform="translate(0 117)"/>
</clipPath>
<clipPath id="clip1_6_1362">
<rect width="744.53" height="57.52" fill="white" transform="translate(21)"/>
</clipPath>
</defs>
</svg>
