<svg width="580" height="602" viewBox="0 0 580 602" fill="none" xmlns="http://www.w3.org/2000/svg">
<path d="M20.53 125.68H3V113.34H51.59V125.68H34.06V176.67H20.53V125.68Z" fill="#A32424"/>
<path d="M62.09 145C62.09 139.93 62.91 135.34 64.56 131.22C66.21 127.1 68.51 123.6 71.46 120.71C74.41 117.82 77.91 115.6 81.96 114.05C86.01 112.5 90.43 111.72 95.24 111.72C100.05 111.72 104.47 112.5 108.52 114.05C112.57 115.6 116.07 117.82 119.02 120.71C121.97 123.6 124.27 127.11 125.92 131.22C127.57 135.33 128.39 139.93 128.39 145C128.39 150.07 127.57 154.66 125.92 158.78C124.27 162.89 121.97 166.4 119.02 169.29C116.07 172.18 112.57 174.4 108.52 175.95C104.47 177.5 100.05 178.28 95.24 178.28C90.43 178.28 86.01 177.5 81.96 175.95C77.91 174.4 74.41 172.18 71.46 169.29C68.51 166.4 66.21 162.89 64.56 158.78C62.91 154.66 62.09 150.07 62.09 145ZM76.14 145C76.14 147.98 76.59 150.71 77.49 153.18C78.39 155.65 79.67 157.8 81.35 159.62C83.03 161.44 85.04 162.86 87.38 163.87C89.72 164.88 92.34 165.39 95.23 165.39C98.12 165.39 100.74 164.88 103.08 163.87C105.42 162.86 107.43 161.44 109.11 159.62C110.79 157.8 112.07 155.65 112.97 153.18C113.87 150.71 114.31 147.98 114.31 145C114.31 142.02 113.86 139.36 112.97 136.86C112.08 134.36 110.79 132.19 109.11 130.37C107.43 128.55 105.42 127.14 103.08 126.12C100.74 125.11 98.12 124.6 95.23 124.6C92.34 124.6 89.72 125.11 87.38 126.12C85.04 127.13 83.03 128.55 81.35 130.37C79.67 132.19 78.38 134.35 77.49 136.86C76.59 139.36 76.14 142.08 76.14 145Z" fill="#A32424"/>
<path d="M145.04 113.33H158.58V139.63L182.44 113.33H200.14L172.81 142.76L202.48 176.66H183.56L158.57 146.6V176.66H145.03V113.33H145.04Z" fill="#A32424"/>
<path d="M229.2 149.65L206.12 113.33H222.95L235.96 137.03L249.76 113.33H265.81L242.73 149.65V176.66H229.19V149.65H229.2Z" fill="#A32424"/>
<path d="M273.97 145C273.97 139.93 274.79 135.34 276.44 131.22C278.09 127.1 280.39 123.6 283.34 120.71C286.29 117.82 289.79 115.6 293.84 114.05C297.89 112.5 302.31 111.72 307.12 111.72C311.93 111.72 316.35 112.5 320.4 114.05C324.45 115.6 327.95 117.82 330.9 120.71C333.85 123.6 336.15 127.11 337.8 131.22C339.45 135.33 340.27 139.93 340.27 145C340.27 150.07 339.45 154.66 337.8 158.78C336.15 162.89 333.85 166.4 330.9 169.29C327.95 172.18 324.45 174.4 320.4 175.95C316.35 177.5 311.93 178.28 307.12 178.28C302.31 178.28 297.89 177.5 293.84 175.95C289.79 174.4 286.29 172.18 283.34 169.29C280.39 166.4 278.09 162.89 276.44 158.78C274.79 154.66 273.97 150.07 273.97 145ZM288.03 145C288.03 147.98 288.48 150.71 289.38 153.18C290.28 155.65 291.56 157.8 293.24 159.62C294.92 161.44 296.93 162.86 299.27 163.87C301.61 164.88 304.23 165.39 307.12 165.39C310.01 165.39 312.63 164.88 314.97 163.87C317.31 162.86 319.32 161.44 321 159.62C322.68 157.8 323.96 155.65 324.86 153.18C325.76 150.71 326.2 147.98 326.2 145C326.2 142.02 325.75 139.36 324.86 136.86C323.96 134.36 322.68 132.19 321 130.37C319.32 128.55 317.31 127.14 314.97 126.12C312.63 125.11 310.01 124.6 307.12 124.6C304.23 124.6 301.61 125.11 299.27 126.12C296.93 127.13 294.92 128.55 293.24 130.37C291.56 132.19 290.27 134.35 289.38 136.86C288.48 139.36 288.03 142.08 288.03 145Z" fill="#A32424"/>
<path d="M389.55 113.33H403.09V163.78H428.17V176.66H389.56V113.33H389.55Z" fill="#A32424"/>
<path d="M444.12 113.33H457.66V176.66H444.12V113.33Z" fill="#A32424"/>
<path d="M479.17 113.33H520.38V126.21H492.7V139.09H518.3V151.97H492.7V176.66H479.16V113.33H479.17Z" fill="#A32424"/>
<path d="M534.1 113.33H575.84V126.21H547.64V138.02H574.28V150.9H547.64V163.78H577.4V176.66H534.1V113.33Z" fill="#A32424"/>
<path d="M3 1.09961H12.06L35.67 55.4696L59.29 1.09961H67.89V65.8996H61.85V8.78961H61.67L36.96 65.8996H34.3L9.22 8.78961H9.04V65.8996H3V1.09961Z" fill="black"/>
<path d="M92.33 1.09961H131.96V6.58961H98.37V29.6496H129.86V35.1396H98.37V60.3996H133.42V65.8896H92.33V1.09961Z" fill="black"/>
<path d="M153.92 1.09961H193.55V6.58961H159.96V29.6496H191.45V35.1396H159.96V60.3996H195.01V65.8896H153.92V1.09961Z" fill="black"/>
<path d="M229.89 6.58961H207.74V1.09961H258.08V6.58961H235.93V65.8996H229.89V6.58961Z" fill="black"/>
<path d="M307.31 52.3498C308.53 55.4598 310.19 57.8598 312.3 59.5298C314.41 61.2098 317.29 62.0498 320.95 62.0498C323.33 62.0498 325.44 61.6798 327.26 60.9498C329.09 60.2198 330.6 59.2098 331.79 57.9298C332.98 56.6498 333.88 55.1498 334.49 53.4498C335.1 51.7398 335.41 49.9098 335.41 47.9598C335.41 45.5798 334.91 43.5398 333.9 41.8298C332.89 40.1198 331.58 38.7298 329.96 37.6698C328.34 36.5998 326.51 35.8298 324.47 35.3398C322.43 34.8498 320.36 34.6098 318.29 34.6098H315.91V29.1198H318.66C320.37 29.1198 322.09 28.8898 323.83 28.4298C325.57 27.9698 327.12 27.2598 328.5 26.2798C329.87 25.2998 330.99 24.0398 331.84 22.4798C332.69 20.9198 333.12 19.0498 333.12 16.8498C333.12 13.3698 332.03 10.5198 329.87 8.28977C327.7 6.05977 324.79 4.94977 321.13 4.94977C318.44 4.94977 316.03 5.63977 313.9 7.00977C311.76 8.37977 310.08 10.2298 308.87 12.5498L303.65 9.61977C305.42 6.26977 307.85 3.81977 310.93 2.29977C314.01 0.779766 317.41 0.00976562 321.14 0.00976562C323.58 0.00976562 325.9 0.359766 328.1 1.05977C330.3 1.75977 332.22 2.79977 333.87 4.16977C335.52 5.53977 336.81 7.26977 337.76 9.33977C338.71 11.4198 339.18 13.8598 339.18 16.6598C339.18 20.1998 338.2 23.3298 336.25 26.0398C334.3 28.7598 331.43 30.6298 327.65 31.6698V31.8498C329.72 32.2198 331.6 32.8998 333.28 33.9098C334.96 34.9198 336.41 36.1498 337.63 37.6198C338.85 39.0798 339.8 40.7298 340.47 42.5598C341.14 44.3898 341.48 46.3398 341.48 48.4198C341.48 50.9798 341.07 53.3898 340.25 55.6498C339.43 57.9098 338.17 59.8798 336.5 61.5498C334.82 63.2298 332.73 64.5598 330.23 65.5298C327.73 66.5098 324.8 66.9898 321.44 66.9898C316.56 66.9898 312.42 65.9698 309.04 63.9198C305.65 61.8798 303.11 58.6598 301.4 54.2598L307.35 52.3398L307.31 52.3498Z" fill="black"/>
<path d="M367.9 29.6498H368.08C369.18 28.7398 370.66 28.0498 372.52 27.5898C374.38 27.1298 376.1 26.8998 377.69 26.8998C380.56 26.8998 383.21 27.4198 385.65 28.4598C388.09 29.4998 390.19 30.9198 391.96 32.7198C393.73 34.5198 395.1 36.6298 396.08 39.0298C397.06 41.4398 397.55 44.0498 397.55 46.8598C397.55 49.6698 397.02 52.4898 395.95 54.9598C394.88 57.4298 393.4 59.5498 391.51 61.3198C389.62 63.0898 387.37 64.4799 384.78 65.4799C382.19 66.4899 379.37 66.9898 376.32 66.9898C373.27 66.9898 370.45 66.4899 367.85 65.4799C365.26 64.4699 363.01 63.0898 361.12 61.3198C359.23 59.5498 357.75 57.4298 356.68 54.9598C355.61 52.4898 355.08 49.7898 355.08 46.8598C355.08 45.1498 355.26 43.5298 355.63 42.0098C356 40.4898 356.48 39.0298 357.1 37.6598C357.71 36.2898 358.35 34.9898 359.02 33.7698C359.69 32.5498 360.36 31.3898 361.03 30.2898L378.6 1.08984H385.56L367.9 29.6398V29.6498ZM376.32 31.6698C374.18 31.6698 372.2 32.0698 370.37 32.8598C368.54 33.6498 366.94 34.7398 365.57 36.1098C364.2 37.4798 363.11 39.0998 362.32 40.9598C361.53 42.8198 361.13 44.7898 361.13 46.8598C361.13 49.1198 361.5 51.1798 362.23 53.0398C362.96 54.8998 364 56.4998 365.34 57.8398C366.68 59.1798 368.28 60.2198 370.14 60.9498C372 61.6798 374.06 62.0498 376.32 62.0498C378.58 62.0498 380.64 61.6798 382.5 60.9498C384.36 60.2198 385.96 59.1798 387.31 57.8398C388.66 56.4998 389.69 54.8998 390.42 53.0398C391.15 51.1798 391.52 49.1198 391.52 46.8598C391.52 44.7898 391.12 42.8198 390.33 40.9598C389.54 39.0998 388.45 37.4798 387.08 36.1098C385.71 34.7398 384.09 33.6498 382.23 32.8598C380.37 32.0698 378.4 31.6698 376.33 31.6698H376.32Z" fill="black"/>
<path d="M409.82 33.5C409.82 31.18 409.93 28.73 410.14 26.13C410.35 23.54 410.75 21 411.33 18.53C411.91 16.06 412.7 13.71 413.71 11.48C414.72 9.25 416.01 7.29 417.6 5.58C419.19 3.87 421.09 2.51 423.32 1.51C425.55 0.5 428.18 0 431.24 0C434.3 0 436.93 0.5 439.16 1.51C441.39 2.52 443.29 3.88 444.88 5.58C446.47 7.29 447.76 9.26 448.77 11.48C449.78 13.71 450.57 16.06 451.15 18.53C451.73 21 452.13 23.53 452.34 26.13C452.55 28.72 452.66 31.18 452.66 33.5C452.66 35.82 452.55 38.35 452.34 40.91C452.13 43.47 451.73 45.99 451.15 48.46C450.57 50.93 449.78 53.28 448.77 55.51C447.76 57.74 446.47 59.71 444.88 61.41C443.29 63.12 441.39 64.48 439.16 65.48C436.93 66.49 434.29 66.99 431.24 66.99C428.19 66.99 425.55 66.49 423.32 65.48C421.09 64.47 419.19 63.12 417.6 61.41C416.01 59.7 414.72 57.73 413.71 55.51C412.7 53.28 411.91 50.93 411.33 48.46C410.75 45.99 410.35 43.47 410.14 40.91C409.93 38.35 409.82 35.88 409.82 33.5ZM415.86 33.5C415.86 35.21 415.92 37.09 416.04 39.13C416.16 41.17 416.41 43.25 416.77 45.35C417.13 47.46 417.67 49.51 418.37 51.53C419.07 53.54 419.99 55.33 421.12 56.88C422.25 58.43 423.64 59.69 425.28 60.63C426.93 61.58 428.91 62.05 431.23 62.05C433.55 62.05 435.45 61.58 437.13 60.63C438.81 59.68 440.21 58.43 441.34 56.88C442.47 55.32 443.38 53.54 444.09 51.53C444.79 49.52 445.33 47.46 445.69 45.35C446.06 43.24 446.3 41.17 446.42 39.13C446.54 37.09 446.6 35.21 446.6 33.5C446.6 31.79 446.54 29.99 446.42 27.92C446.3 25.85 446.05 23.76 445.69 21.65C445.32 19.54 444.79 17.49 444.09 15.47C443.39 13.46 442.47 11.67 441.34 10.12C440.21 8.56 438.81 7.31 437.13 6.37C435.45 5.42 433.48 4.95 431.23 4.95C428.98 4.95 427 5.42 425.33 6.37C423.65 7.32 422.25 8.57 421.12 10.12C419.99 11.67 419.08 13.46 418.37 15.47C417.67 17.48 417.13 19.54 416.77 21.65C416.4 23.75 416.16 25.85 416.04 27.92C415.92 30 415.86 31.86 415.86 33.5Z" fill="black"/>
<path d="M480.66 26.36C478.83 26.36 477.11 26.01 475.49 25.31C473.87 24.61 472.47 23.66 471.28 22.47C470.09 21.28 469.16 19.88 468.49 18.26C467.82 16.64 467.48 14.92 467.48 13.09C467.48 11.26 467.81 9.55 468.49 7.96C469.16 6.37 470.09 4.99 471.28 3.8C472.47 2.61 473.87 1.68 475.49 1.01C477.11 0.34 478.83 0 480.66 0C482.49 0 484.2 0.34 485.79 1.01C487.38 1.68 488.76 2.61 489.95 3.8C491.14 4.99 492.08 6.38 492.79 7.96C493.49 9.55 493.84 11.25 493.84 13.09C493.84 14.93 493.49 16.64 492.79 18.26C492.09 19.88 491.14 21.28 489.95 22.47C488.76 23.66 487.37 24.61 485.79 25.31C484.2 26.01 482.5 26.36 480.66 26.36ZM480.66 21.97C483.1 21.97 485.18 21.12 486.88 19.41C488.59 17.7 489.44 15.63 489.44 13.19C489.44 10.75 488.58 8.68 486.88 6.97C485.17 5.26 483.1 4.41 480.66 4.41C478.22 4.41 476.14 5.27 474.44 6.97C472.73 8.68 471.88 10.75 471.88 13.19C471.88 15.63 472.73 17.71 474.44 19.41C476.15 21.12 478.22 21.97 480.66 21.97Z" fill="black"/>
<line x1="1" y1="248.5" x2="577" y2="248.5" stroke="#A32424"/>
<path d="M555.76 343.401C565.39 344.706 561.385 351.591 557.695 348.801C557.515 347.001 556.345 344.886 555.355 343.671L555.76 343.401ZM555.265 327.021C565.345 327.561 561.925 335.211 558.01 332.646C557.74 330.756 556.255 328.506 554.86 327.336L555.265 327.021ZM543.25 339.756C544.375 343.626 543.61 346.461 542.17 347.676C541.18 348.486 539.11 348.396 538.525 347.001C538.075 345.741 538.75 344.571 539.92 343.896C541.045 343.176 542.53 341.286 542.53 339.711L543.25 339.756ZM557.155 350.196C556.48 357.441 554.68 364.281 539.38 368.871L538.93 368.196C551.08 362.841 551.8 356.451 552.07 350.196H557.155ZM566.65 355.191L568.9 352.986L573.085 356.451C572.815 356.811 572.23 357.036 571.33 357.171C570.97 363.156 570.025 366.621 568.135 367.971C566.92 368.781 565.345 369.186 563.095 369.186C563.095 368.016 562.915 366.981 562.195 366.306C561.52 365.676 559.9 365.136 558.145 364.821V364.191C559.945 364.326 563.005 364.551 563.86 364.551C564.58 364.551 564.94 364.461 565.3 364.236C566.155 363.516 566.785 360.276 567.1 355.191H566.65ZM549.28 334.806C558.685 336.966 554.68 343.716 551.125 340.791C550.99 338.811 549.865 336.471 548.83 335.076L549.28 334.806ZM570.925 336.516C570.7 337.011 570.16 337.371 569.215 337.236C567.775 338.766 565.525 340.791 563.41 342.321H562.69C563.5 340.161 564.355 336.831 564.805 334.581L570.925 336.516ZM572.95 341.691L575.38 339.351L579.52 343.356C579.16 343.671 578.665 343.761 577.765 343.806C576.145 344.841 573.355 346.551 571.6 347.406L571.105 347.136C571.78 345.741 572.905 343.086 573.445 341.691H572.95ZM568.81 355.191V356.496H553.96L554.635 355.191H568.81ZM573.715 329.901C573.715 329.901 576.685 332.196 578.44 333.816C578.35 334.311 577.9 334.536 577.225 334.536H540.19L539.83 333.231H571.105L573.715 329.901ZM573.805 346.686C573.805 346.686 576.505 348.711 578.17 350.196C578.035 350.691 577.585 350.916 576.955 350.916H540.145L539.785 349.611H571.42L573.805 346.686ZM575.65 341.691V342.996H542.26V341.691H575.65Z" fill="black"/>
<path d="M504.82 353.255C520.66 356.72 518.005 364.19 514.405 362.21C513.01 360.14 509.275 356.63 504.505 353.885L504.82 353.255ZM501.985 353.12V356.675H498.475V354.875L501.985 353.12ZM498.07 360.05C499.825 359.645 503.965 358.565 508.06 357.35L508.24 357.98C506.485 359.015 502.84 361.22 499.15 363.155L498.07 360.05ZM501.13 355.325L501.985 355.865V360.185L498.97 361.355L500.005 360.14C500.59 362.075 499.735 363.29 499.06 363.695L496.9 360.635C498.25 359.735 498.475 359.42 498.475 358.79V355.325H501.13ZM517.735 354.11C517.51 354.425 517.105 354.515 516.295 354.2C514.81 354.92 512.02 355.91 510.22 356.63L509.77 356.135C511.21 354.875 513.325 352.535 514.495 351.095L517.735 354.11ZM506.485 350.87C503.245 354.38 497.935 356.855 492.085 358.43L491.68 357.665C496.225 355.82 500.185 353.12 502.66 350.15H506.485V350.87ZM515.08 337.955C515.08 337.955 517.465 339.71 518.95 341.06C518.815 341.555 518.365 341.78 517.735 341.78H492.85L492.49 340.475H513.01L515.08 337.955ZM513.1 333.59C513.1 333.59 515.395 335.3 516.835 336.605C516.745 337.1 516.295 337.325 515.665 337.325H494.785L494.425 336.02H511.12L513.1 333.59ZM508.33 332.6C508.24 333.095 507.925 333.455 507.025 333.635V341.06H503.155V332.105L508.33 332.6ZM499.375 351.77C499.375 352.085 497.755 352.85 496.315 352.85H495.775V342.905L499.6 344.48H512.92V345.785H499.375V351.77ZM510.895 344.48L512.65 342.725L516.295 345.47C516.115 345.74 515.62 346.01 514.945 346.145V351.185C514.9 351.5 513.055 352.22 511.885 352.22H511.255V344.48H510.895ZM512.785 349.97V351.275H497.665V349.97H512.785ZM491.5 367.115C491.5 367.7 489.88 368.825 488.035 368.825H487.27V327.695L491.905 329.675H520.84V330.98H491.5V367.115ZM519.13 329.675L521.335 327.245L525.79 330.8C525.475 331.205 524.8 331.52 523.855 331.745V367.025C523.81 367.385 521.83 368.465 520.255 368.465H519.58V329.675H519.13ZM520.975 364.055V365.36H489.655V364.055H520.975Z" fill="black"/>
<path d="M454.105 345.155C453.835 345.785 452.935 346.235 451.405 345.785L452.71 345.335C449.785 350.96 443.035 359.51 437.725 364.145L437.635 363.605H440.11C439.795 366.485 438.805 368.15 437.545 368.555L435.565 362.84C435.565 362.84 436.78 362.57 437.185 362.165C440.875 358.34 446.05 348.26 447.67 342.59L454.105 345.155ZM436.42 363.11C441.82 362.93 453.925 361.715 465.58 360.185L465.67 360.905C459.505 362.795 450.055 365.27 438.13 367.475L436.42 363.11ZM455.545 329.135L457.165 326.66L461.575 329.63C460.99 330.305 459.64 330.62 457.93 330.71C459.955 337.325 465.22 343.31 473.005 346.19L472.87 346.73C471.025 347.315 469.495 348.98 469 350.735C462.025 346.28 458.11 339.125 456.58 329.855V329.135H455.545ZM457.66 329.135V330.44H451.72L451.315 329.135H457.66ZM448.75 332.105C448.525 332.6 447.94 333.005 446.905 332.87C443.035 341.285 437.59 347.045 431.065 350.645L430.57 350.24C435.34 345.695 440.11 338.045 442.585 329.675L448.75 332.105ZM457.165 351.77C473.23 359.96 469.765 371.885 464.635 367.79C463.735 362.57 460.09 356.27 456.58 352.085L457.165 351.77Z" fill="black"/>
<path d="M378.28 330.935H396.64L399.07 327.785C399.07 327.785 401.86 329.99 403.57 331.52C403.435 332.015 402.985 332.24 402.31 332.24H378.64L378.28 330.935ZM377.29 344.615H397.945L400.375 341.33C400.375 341.33 403.03 343.625 404.605 345.2C404.47 345.695 404.02 345.92 403.39 345.92H377.65L377.29 344.615ZM392.95 330.935H397.135V367.16C397.09 367.43 395.83 368.42 393.67 368.42H392.95V330.935ZM383.05 330.935H387.19V344.57C387.19 352.805 386.56 362.525 377.695 368.915L377.2 368.51C382.555 361.58 383.05 352.85 383.05 344.615V330.935ZM413.515 327.695L418.87 330.89C418.555 331.385 418.15 331.475 417.115 331.295C413.02 335.525 407.62 339.17 401.995 341.6L401.59 340.925C406.27 337.595 410.365 332.96 413.515 327.695ZM413.56 339.215L419.095 342.365C418.78 342.86 418.33 342.995 417.295 342.815C412.705 347.9 406.81 351.635 400.195 354.065L399.835 353.39C405.37 350.015 410.005 345.29 413.56 339.215ZM414.19 350.735L419.995 353.615C419.68 354.11 419.23 354.29 418.195 354.11C413.02 361.49 406.405 365.9 397.945 368.69L397.63 368.015C404.695 364.19 410.185 358.88 414.19 350.735Z" fill="black"/>
<path d="M354.16 363.335C354.16 366.17 353.44 368.06 348.67 368.51C348.58 367.295 348.355 366.35 347.725 365.765C347.095 365.135 346.06 364.685 343.99 364.37V363.785C343.99 363.785 348.355 364.055 349.255 364.055C350.02 364.055 350.2 363.83 350.2 363.245V345.29H354.16V363.335ZM365.41 350.915C365.185 351.23 364.51 351.5 363.655 351.14C362.17 352.265 359.2 354.065 356.68 355.325L356.275 354.92C357.94 352.76 360.145 349.25 361.045 347.45L365.41 350.915ZM355.465 328.37C355.285 329 354.655 329.315 353.71 329.315C352.675 330.44 351.01 332.105 349.885 333.185H348.58C348.85 331.61 349.21 328.775 349.435 326.93L355.465 328.37ZM345.295 350.285L347.455 348.17L351.145 351.365C350.875 351.77 350.38 351.905 349.435 351.95C347.41 358.205 343.27 363.65 335.665 366.755L335.305 366.17C341.29 362.525 344.53 356.63 345.745 350.285H345.295ZM346.96 350.285V351.59H339.715L339.31 350.285H346.96ZM353.8 346.415C355.78 355.415 361.09 359.645 366.31 362.12L366.22 362.615C364.645 362.93 363.52 364.325 362.98 366.17C357.94 361.94 354.835 356.855 353.35 346.595L353.8 346.415ZM359.65 344.75V346.055H344.485V344.75H359.65ZM359.605 338.765V340.07H344.485V338.765H359.605ZM342.055 331.07L346.33 332.78H358.075L359.965 330.575L363.79 333.545C363.52 333.905 363.07 334.175 362.125 334.355V347.27C362.125 347.495 360.82 348.215 358.885 348.215H358.21V334.085H345.79V347.81C345.79 348.08 344.62 348.845 342.685 348.845H342.055V331.07ZM341.155 337.145C340.885 337.685 339.94 338.045 338.545 337.37L339.85 337.055C337.24 341.285 331.165 348.035 326.215 351.77L326.125 351.23H328.15C327.835 353.705 326.935 355.055 325.855 355.37L324.19 350.6C324.19 350.6 325.27 350.42 325.675 350.105C329.41 346.82 334.54 338.72 336.385 334.22L341.155 337.145ZM336.745 329.63C336.52 330.215 335.665 330.62 334.18 330.08L335.53 329.765C333.55 333.14 329.59 338.18 326.305 340.97L326.26 340.43H328.33C328.105 342.77 327.295 344.12 326.35 344.525L324.46 339.845C324.46 339.845 325.315 339.665 325.63 339.395C327.835 336.965 330.67 330.53 331.57 327.11L336.745 329.63ZM328.285 356C329.635 360.905 328.735 364.55 327.34 366.215C326.44 367.385 324.37 367.61 323.65 366.35C323.02 365.27 323.605 364.1 324.64 363.29C325.99 362.03 327.565 358.88 327.52 355.955L328.285 356ZM334.675 353.885C342.865 357.485 339.715 363.65 336.79 361.13C336.7 358.835 335.395 355.91 334.135 354.11L334.675 353.885ZM331.3 355.01C337.735 361.31 333.73 367.7 331.12 364.46C331.66 361.445 331.3 357.755 330.67 355.19L331.3 355.01ZM334.63 344.84C343 349.745 339.715 356.18 336.745 353.435C336.61 350.735 335.305 347.315 334.045 345.11L334.63 344.84ZM325.27 350.555C327.61 350.465 333.01 350.015 338.41 349.52L338.455 350.195C336.07 351.095 331.435 352.85 326.53 354.38L325.27 350.555ZM325.27 339.98C327.25 340.07 331.525 340.07 335.62 339.98L335.665 340.655C334 341.33 330.445 342.68 326.755 343.85L325.27 339.98Z" fill="black"/>
<path d="M291.25 350.96C289.36 350.96 288.055 349.52 288.055 347.855C288.055 346.055 289.36 344.57 291.25 344.57C293.095 344.57 294.4 346.055 294.4 347.855C294.4 349.52 293.095 350.96 291.25 350.96Z" fill="#931F1C"/>
<path d="M226.225 330.035V328.145L230.77 330.035H246.97V331.295H230.5V345.38C230.5 345.785 228.655 346.775 226.855 346.775H226.225V330.035ZM244.9 330.035H244.45L246.565 327.695L251.065 331.115C250.795 331.475 250.12 331.88 249.22 332.06V345.2C249.175 345.515 247.06 346.46 245.575 346.46H244.9V330.035ZM228.43 341.69H247.15V342.95H228.43V341.69ZM219.115 349.7V347.9L223.48 349.7H233.38V351.005H223.255V367.115C223.255 367.52 221.5 368.465 219.745 368.465H219.115V349.7ZM231.04 349.7H230.59L232.66 347.45L237.07 350.825C236.755 351.185 236.125 351.545 235.225 351.725V366.35C235.18 366.71 233.155 367.655 231.715 367.655H231.04V349.7ZM220.69 362.885H233.02V364.145H220.69V362.885ZM239.95 349.7V347.9L244.315 349.7H254.8V351.005H244.09V367.205C244.09 367.61 242.335 368.555 240.58 368.555H239.95V349.7ZM252.19 349.7H251.74L253.855 347.405L258.31 350.825C258.04 351.185 257.365 351.545 256.42 351.725V366.755C256.375 367.07 254.305 367.925 252.865 367.925H252.19V349.7ZM241.255 362.885H254.17V364.145H241.255V362.885Z" fill="black"/>
<path d="M166.735 327.92C176.95 329.225 173.575 336.515 169.705 333.995C169.21 332.015 167.635 329.585 166.285 328.19L166.735 327.92ZM174.52 363.335V364.64H166.87V363.335H174.52ZM172.495 352.895L174.295 350.96L178.165 353.93C177.895 354.245 177.265 354.56 176.5 354.695V365.495C176.455 365.81 174.7 366.665 173.485 366.665H172.9V352.895H172.495ZM168.58 367.34C168.58 367.7 167.05 368.51 165.475 368.51H164.935V351.275L168.76 352.895H174.61V354.2H168.58V367.34ZM175.825 333.32C175.825 333.32 177.985 335.075 179.335 336.38C179.2 336.875 178.795 337.1 178.165 337.1H163.495L163.135 335.795H173.89L175.825 333.32ZM174.25 345.02C174.25 345.02 176.275 346.64 177.49 347.855C177.4 348.35 176.95 348.575 176.365 348.575H165.025L164.665 347.27H172.495L174.25 345.02ZM174.385 339.215C174.385 339.215 176.365 340.835 177.58 342.05C177.49 342.545 177.085 342.77 176.455 342.77H165.025L164.665 341.465H172.54L174.385 339.215ZM204.49 343.4C204.31 343.94 203.905 344.165 202.735 344.165C199.54 356.09 194.59 363.695 184.915 368.645L184.51 367.88C192.61 362.12 196.885 354.29 199.36 341.78L204.49 343.4ZM186.625 344.57L188.47 342.635L192.025 345.605C191.755 345.965 191.215 346.19 190.36 346.325C190.18 355.55 189.955 359.33 188.425 360.77C187.615 361.49 186.58 361.715 185.455 361.805C185.455 361.13 185.275 360.275 184.87 359.825C184.51 359.375 183.655 358.97 182.755 358.745V358.07C183.61 358.115 184.915 358.205 185.455 358.205C185.77 358.205 185.905 358.115 186.04 357.935C186.715 357.035 186.94 353.39 187.075 344.57H186.625ZM179.695 336.11V334.85L184.015 336.56H183.34V346.055C183.34 352.895 182.98 362.435 176.41 368.825L175.825 368.42C179.425 361.715 179.695 353.39 179.695 346.055V336.11ZM196.885 328.055C196.84 328.64 196.435 329.18 195.265 329.315C195.04 342.41 195.67 355.64 201.43 362.165C202.015 362.93 202.195 362.885 202.6 362.03C203.185 360.86 204.04 358.7 204.625 356.9L205.165 356.99L204.31 364.19C205.48 366.485 205.705 367.61 205.075 368.15C203.455 369.59 200.62 367.835 199.09 365.945C192.16 357.62 191.305 343.625 191.26 327.425L196.885 328.055ZM201.205 333.635C201.205 333.635 203.815 335.66 205.39 337.145C205.255 337.64 204.805 337.865 204.175 337.865H182.035V336.56H198.91L201.205 333.635ZM197.56 328.46C206.92 329.225 203.905 335.885 200.44 333.59C199.99 331.925 198.46 329.945 197.155 328.82L197.56 328.46ZM188.785 344.57V345.875H181.675V344.57H188.785Z" fill="black"/>
<path d="M130.6 350.96C128.71 350.96 127.405 349.52 127.405 347.855C127.405 346.055 128.71 344.57 130.6 344.57C132.445 344.57 133.75 346.055 133.75 347.855C133.75 349.52 132.445 350.96 130.6 350.96Z" fill="#931F1C"/>
<path d="M70.165 344.616C70.03 345.201 69.715 345.606 68.725 345.741V363.066C68.725 363.066 67.33 363.066 66.025 363.066H65.035V344.076L70.165 344.616ZM64.315 347.046C64.135 347.676 63.64 348.081 62.605 348.126C62.065 354.921 60.76 363.381 56.305 368.691L55.765 368.241C58.285 362.346 59.095 353.031 58.87 345.966L64.315 347.046ZM72.1 348.306C72.1 348.306 74.395 350.286 75.745 351.681C75.61 352.176 75.205 352.401 74.62 352.401H66.61V351.096H70.075L72.1 348.306ZM72.28 338.991C72.28 338.991 74.755 340.926 76.24 342.366C76.105 342.861 75.7 343.086 75.07 343.086H56.845L56.485 341.781H70.165L72.28 338.991ZM71.56 331.161C71.56 331.161 73.9 333.051 75.34 334.401C75.205 334.896 74.755 335.121 74.125 335.121H58.06L57.7 333.816H69.49L71.56 331.161ZM69.58 327.561C69.49 328.146 69.085 328.551 68.05 328.686V342.501H64.18V327.021L69.58 327.561ZM60.715 353.526C64 362.661 69.31 363.831 80.11 363.831C84.205 363.831 94.015 363.831 98.335 363.696V364.281C96.67 364.641 95.86 366.036 95.77 367.701C92.305 367.701 83.71 367.701 79.93 367.701C68.59 367.701 63.235 365.361 60.13 353.796L60.715 353.526ZM75.16 355.731C76.87 354.966 81.055 352.986 85.15 350.871L85.465 351.411C83.8 352.896 80.47 356.136 76.87 359.196L75.16 355.731ZM76.06 333.006L80.47 335.256H79.795V337.956C79.795 337.956 78.58 337.956 76.06 337.956V333.006ZM78.85 335.931L79.795 336.471V355.551L76.105 357.036L77.365 355.641C78.22 357.801 77.23 359.286 76.51 359.736L73.945 356.226C75.79 355.056 76.06 354.741 76.06 353.886V335.931H78.85ZM97.57 340.431C97.39 340.971 96.85 341.376 95.86 341.331C93.07 351.006 87.31 358.296 78.67 361.986L78.13 361.446C85.42 357.216 90.505 349.206 92.485 338.991L97.57 340.431ZM89.2 327.651C89.155 328.191 88.75 328.686 87.715 328.866C87.715 338.541 88.705 351.951 93.88 355.911C94.42 356.406 94.69 356.361 95.005 355.821C95.5 354.921 96.265 352.896 96.76 351.411L97.255 351.546L96.49 357.666C97.48 359.151 97.975 360.456 97.3 361.086C96.13 362.346 93.79 361.401 92.08 360.006C85.195 354.876 83.98 339.756 83.665 327.066L89.2 327.651ZM89.56 328.191C97.795 329.856 94.645 335.571 91.63 333.276C91.405 331.656 90.235 329.676 89.11 328.506L89.56 328.191ZM93.925 332.421C93.925 332.421 96.445 334.401 97.975 335.841C97.885 336.336 97.435 336.561 96.805 336.561H78.085V335.256H91.72L93.925 332.421Z" fill="black"/>
<path d="M37.135 328.82C37.135 328.82 40.42 331.295 42.4 333.005C42.31 333.5 41.815 333.725 41.14 333.725H5.455L5.05 332.42H34.255L37.135 328.82ZM33.355 343.67C33.355 343.67 36.505 346.055 38.44 347.765C38.35 348.26 37.855 348.485 37.225 348.485H8.56L8.2 347.18H30.52L33.355 343.67ZM39.385 359.69C39.385 359.69 42.76 362.21 44.785 364.01C44.65 364.505 44.2 364.73 43.525 364.73H2.98L2.62 363.425H36.415L39.385 359.69Z" fill="black"/>
<path d="M576 445.8H574.4V405.8H576V445.8Z" fill="#931F1C"/>
<path d="M541.48 443C541.48 443.24 540.32 444.12 538.32 444.12H537.68V420.88H541.48V443ZM546 410.92C545.56 411.32 544.72 411.32 543.6 410.92C540.24 411.64 534.88 412.44 530.24 412.76L530.12 412.24C534.08 410.92 539.16 408.64 541.72 407.08L546 410.92ZM533.6 411.48C533.48 411.76 533.12 411.88 532.6 411.96V421.44C532.6 428.96 531.68 438.4 522.16 444.44L521.68 443.96C527.92 437.44 528.92 429.28 528.92 421.36V409.92L533.6 411.48ZM542.68 417.8C542.68 417.8 545.08 419.76 546.56 421.12C546.44 421.56 546.04 421.76 545.48 421.76H530.64V420.6H540.56L542.68 417.8ZM527.32 410.52C526.88 410.92 526.12 410.92 525.04 410.56C522.08 411.4 517.28 412.48 513.24 413.04L513.04 412.44C516.52 411.08 521.04 408.68 523.28 407.12L527.32 410.52ZM516.44 412C516.32 412.28 516 412.44 515.48 412.48V423.2C515.48 429.88 515.24 438.6 509.32 444.52L508.76 444.12C511.76 437.92 511.88 430.12 511.88 423.08V410.52L516.44 412ZM521.56 417.56L523.4 415.6L527.24 418.56C527 418.88 526.4 419.2 525.56 419.36V430.56C525.52 430.84 523.72 431.56 522.56 431.56H521.96V417.56H521.56ZM524.16 428V429.16H513.12V428H524.16ZM524.16 417.56V418.72H513.12V417.56H524.16Z" fill="black"/>
<path d="M469.12 443.32C469.12 443.56 467.96 444.52 466.08 444.52H465.44V431.36H469.12V443.32ZM465.44 428.6L469.76 430.64H469.12V433C469.12 433 467.96 433 465.44 433V428.6ZM493.4 430.64V431.8H463.32L462.96 430.64H493.4ZM490.52 430.64L492.24 428.68L496.24 431.64C495.96 431.92 495.36 432.28 494.56 432.4V440.08C494.56 442.44 493.96 443.84 489.48 444.24C489.36 443.24 489.16 442.44 488.6 441.96C488 441.48 487.12 441.08 485.24 440.8V440.24C485.24 440.24 489.16 440.52 490.04 440.52C490.72 440.52 490.92 440.28 490.92 439.72V430.64H490.52ZM483.8 432.72C492.36 435.2 489.6 441.36 486.68 439.04C486.56 436.96 484.92 434.44 483.4 433.04L483.8 432.72ZM470.24 436.08C473.28 436.08 480.28 435.76 487.48 435.36L487.52 435.96C484.28 436.88 479.6 438 472.96 439.48C472.68 439.96 472.28 440.24 471.88 440.32L470.24 436.08ZM481.68 416.4V436.64L478.04 436.8V416.4H481.68ZM487.16 416.4L488.96 414.48L492.76 417.32C492.52 417.6 491.96 417.92 491.28 418.04V427.6C491.24 427.92 489.44 428.76 488.2 428.76H487.56V416.4H487.16ZM472.32 427.96C472.32 428.32 470.72 429.12 469.16 429.12H468.64V414.8L472.56 416.4H488.92V417.56H472.32V427.96ZM488.96 421.24V422.4H470.68V421.24H488.96ZM488.96 426.08V427.24H470.68V426.08H488.96ZM476.96 406.96C485.84 407.56 481.96 414.32 478.48 411.52C478.52 409.96 477.72 408.16 476.64 407.2L476.96 406.96ZM493 412L495.08 409.96L498.76 413.44C498.44 413.72 498 413.8 497.2 413.88C496.16 415.04 494.4 416.6 493 417.52L492.56 417.24C492.92 415.8 493.28 413.36 493.44 412H493ZM466.2 410.04C467.88 414.6 466.68 417.68 464.96 418.84C463.8 419.68 462.04 419.48 461.52 418.24C461.08 417.04 461.8 416.08 462.84 415.48C464.32 414.64 465.76 412.44 465.56 410.04H466.2ZM494.84 412V413.16H466.16V412H494.84Z" fill="black"/>
<path d="M414.04 416.159H444.08L446.48 413.199C446.48 413.199 449.2 415.279 450.88 416.679C450.8 417.119 450.36 417.319 449.76 417.319H414.4L414.04 416.159ZM415.56 424.279H428.16L430.4 421.479C430.4 421.479 432.88 423.439 434.44 424.799C434.32 425.239 433.92 425.439 433.36 425.439H415.88L415.56 424.279ZM434.04 407.439L439.52 407.999C439.44 408.479 439.12 408.959 438.08 409.119C437.92 420.879 439.28 432.639 446.48 438.199C447.08 438.759 447.36 438.759 447.76 438.039C448.36 436.999 449.32 434.919 449.92 433.239L450.4 433.359L449.56 439.839C450.88 441.879 451.08 442.919 450.52 443.479C449 445.079 446.04 443.599 444.24 442.039C435.76 434.759 434.08 421.999 434.04 407.439ZM440.52 408.519C450.04 408.639 448.08 415.279 444.52 413.559C443.76 411.919 441.76 409.919 440.16 408.839L440.52 408.519ZM422.76 424.319H426.56V438.559L422.76 439.039V424.319ZM414.48 439.279C418.04 438.679 426.48 436.879 435.32 434.879L435.44 435.439C431.52 437.239 426 439.559 417.96 442.519C417.76 443.039 417.4 443.399 417 443.519L414.48 439.279Z" fill="black"/>
<path d="M382.24 407.12C392.64 408.52 389.64 415.88 385.8 413.44C385.2 411.36 383.44 408.88 381.92 407.4L382.24 407.12ZM370.2 413.44V412.12L374.64 413.84H374.04V423.68C374.04 430.24 373.56 438.8 366.48 444.52L366 444.16C369.84 438.16 370.2 430.68 370.2 423.68V413.44ZM399.4 410.84C399.4 410.84 401.96 412.88 403.48 414.36C403.36 414.8 402.96 415 402.4 415H371.84V413.84H397.16L399.4 410.84ZM397.96 418.88C397.96 418.88 400.56 420.96 402.12 422.44C402 422.88 401.6 423.08 401.04 423.08H387.56V421.92H395.64L397.96 418.88ZM390.84 415.92C390.76 416.48 390.4 416.88 389.36 417.04V430.6H385.56V415.44L390.84 415.92ZM396.8 439.64V440.8H378.08V439.64H396.8ZM376.56 428.28L380.6 429.88H394.68L396.48 427.8L400.08 430.6C399.84 430.92 399.44 431.16 398.56 431.32V443.2C398.56 443.4 397.32 444.12 395.48 444.12H394.84V431.04H380.16V443.4C380.16 443.68 379.08 444.36 377.2 444.36H376.56V428.28Z" fill="black"/>
<path d="M340.36 417.88H336.96V410.56H340.36V417.88ZM346.72 410.44V417.96H343.36V410.44H346.72ZM344.84 431.52C344.84 431.52 346.92 433.2 348.16 434.4C348.04 434.84 347.68 435.04 347.12 435.04H336.16L335.84 433.88H343.04L344.84 431.52ZM321.2 432.68C321.72 432.68 321.88 432.68 322.28 431.84C323 430.36 323 430.36 329.68 413.68L330.36 413.84C328.92 418.96 326.2 428.36 325.72 430.48C325.4 431.84 325.16 433.2 325.2 434.24C325.24 436.24 326.68 437.88 326.56 441.32C326.48 443.2 325.4 444.44 323.68 444.44C322.88 444.44 322.08 443.8 321.88 442.4C322.56 438.28 322.36 434.72 321.44 434.12C320.92 433.72 320.28 433.6 319.48 433.52V432.68C319.48 432.68 320.76 432.68 321.2 432.68ZM318.88 416.8C328.44 417.76 325.76 424.72 322.16 422.44C321.64 420.52 320 418.36 318.52 417.08L318.88 416.8ZM321.92 407.72C331.76 409.04 329.04 416.08 325.44 413.76C324.92 411.72 323.08 409.4 321.56 408L321.92 407.72ZM330.72 415.64L334.64 417.16H349.56L351.36 415.04L354.96 417.88C354.68 418.24 354.2 418.56 353.32 418.68V442.92C353.32 443.12 352.04 443.96 350.32 443.96H349.76V418.32H334.16V443.2C334.16 443.44 333.08 444.2 331.32 444.2H330.72V415.64ZM340.36 421.4C340.32 424.56 339.8 428.84 334.2 431.52L333.76 431C337.08 428.08 337.4 424.48 337.4 421.4V417.68H340.36V421.4ZM346.28 417.88C346.28 418.32 346.28 418.72 346.28 419.04V426.04C346.28 426.48 346.36 426.6 346.88 426.6H348.04C348.48 426.6 348.92 426.6 349.12 426.6C349.32 426.6 349.6 426.6 349.72 426.56C349.92 426.56 350.24 426.48 350.48 426.44H350.8L350.96 426.48C351.8 426.76 352.12 427.04 352.12 427.64C352.12 428.76 351.08 429.2 347.72 429.2H345.96C343.68 429.2 343.36 428.52 343.36 426.72V417.88H346.28ZM351.56 439.48V440.64H332.52V439.48H351.56ZM351.88 407.24C351.88 407.24 354.36 409.12 355.8 410.48C355.68 410.92 355.28 411.12 354.76 411.12H329.6L329.28 409.96H349.8L351.88 407.24Z" fill="black"/>
<path d="M290.4 445.8H288.8V405.8H290.4V445.8Z" fill="#931F1C"/>
<path d="M256.6 414.12C256.6 414.12 259 416.04 260.4 417.44C260.32 417.88 259.92 418.08 259.36 418.08H248.6V416.92H254.48L256.6 414.12ZM240.04 424.76L244.16 426.36H253.48L255.32 424.2L259.04 427.08C258.76 427.4 258.36 427.64 257.48 427.8V443.04C257.48 443.24 256.16 444 254.32 444H253.64V427.52H243.68V443.36C243.68 443.68 242.56 444.36 240.68 444.36H240.04V424.76ZM252.04 407.72C251.96 408.28 251.6 408.68 250.56 408.84V426.96H246.84V407.24L252.04 407.72ZM254.8 440.04V441.2H242.32V440.04H254.8ZM228.16 407.32C237.4 411.2 233.6 418.08 230.24 415.04C230.04 412.56 228.8 409.6 227.72 407.52L228.16 407.32ZM239.48 420.64C239.32 421.12 238.92 421.48 237.96 421.48C236.76 425.84 234.48 432.6 232.28 437.76H231.6C232.6 432.28 233.72 424.56 234.32 419.2L239.48 420.64ZM225.6 419.72C234.4 429.24 229.28 437 227.08 433.28C227.12 430.04 226.84 424.16 225.04 419.96L225.6 419.72ZM223.16 437.96C225.92 437.48 232.64 435.92 239.4 434.24L239.52 434.76C236.56 436.32 232.28 438.6 226.2 441.32C226.04 441.8 225.68 442.2 225.24 442.32L223.16 437.96ZM237.48 413.56C237.48 413.56 239.92 415.72 241.24 417.16C241.12 417.6 240.76 417.8 240.2 417.8H223.56L223.24 416.64H235.4L237.48 413.56Z" fill="black"/>
<path d="M181.44 417.64L182.44 418.24V440.52H182.72L181.32 442.4L176.96 440.08C177.48 439.52 178.48 438.84 179.16 438.6L178.44 440.04V417.64H181.44ZM183.92 416.96C183.84 417.56 183.44 417.96 182.44 418.12V419.48H178.44V416.4L183.92 416.96ZM211.64 416.92C211.56 417.48 211.24 417.88 210.16 418.04V443.12C210.16 443.56 208.44 444.4 206.92 444.4H206.16V416.36L211.64 416.92ZM197.68 408.6C197.6 409.2 197.28 409.56 196.24 409.72V439.96H192.16V408.08L197.68 408.6ZM208.12 439.36V440.52H180.16V439.36H208.12Z" fill="black"/>
<path d="M160.04 427.68V428.84H132.6V427.68H160.04ZM158.4 415.88L160.36 413.76L164.48 416.92C164.24 417.24 163.64 417.56 162.84 417.72V431.12C162.8 431.4 160.8 432.2 159.48 432.2H158.8V415.88H158.4ZM134.6 431.4C134.6 431.8 132.92 432.72 131.24 432.72H130.64V414.12L134.96 415.88H159.8V417.04H134.6V431.4ZM150.16 407.8C150.08 408.36 149.76 408.76 148.72 408.92V442.92C148.72 443.4 147 444.4 145.44 444.4H144.68V407.24L150.16 407.8Z" fill="black"/>
<path d="M92.12 421.36H114.04L115.6 419C115.6 419 117.4 420.68 118.4 421.88C118.32 422.32 117.96 422.52 117.44 422.52H92.44L92.12 421.36ZM92.68 411.8H111.2L113.4 408.88C113.4 408.88 115.88 410.88 117.4 412.32C117.28 412.76 116.88 412.96 116.32 412.96H93L92.68 411.8ZM102.08 407.4L107.2 407.92C107.12 408.48 106.8 408.88 105.8 409V441.8L102.08 440.32V407.4ZM94.72 416.28H111.6V417.44H95.08L94.72 416.28ZM94.44 426.72H111.84V427.88H94.8L94.44 426.72ZM110.28 416.28H109.88L111.64 414.48L115.24 417.2C115 417.48 114.48 417.8 113.8 417.92V428.24C113.76 428.52 112.04 429.32 110.84 429.32H110.28V416.28ZM104 432.72H109.4L111.52 430C111.52 430 113.92 431.88 115.4 433.24C115.28 433.68 114.88 433.88 114.32 433.88H104V432.72ZM94.72 429.6L99.92 430.52C99.8 431.08 99.36 431.44 98.44 431.48C97.12 438.04 94.28 442.08 89.88 444.44L89.36 444C92.48 440.6 94.44 435.76 94.72 429.6ZM96.96 433.8C99.32 438.84 103.2 439.8 110.16 439.8C112 439.8 116.24 439.8 118.32 439.76V440.24C117.16 440.52 116.6 441.8 116.6 443.32C115.12 443.32 111.56 443.32 109.96 443.32C102.6 443.32 98.72 441.52 96.48 434L96.96 433.8ZM80.6 416.56H89.68L91.48 413.68C91.48 413.68 93.52 415.72 94.64 417.08C94.52 417.52 94.16 417.72 93.6 417.72H80.92L80.6 416.56ZM85.64 407.24L90.76 407.72C90.64 408.32 90.24 408.72 89.28 408.84V439.68C89.28 442.44 88.76 444 84.48 444.44C84.36 443.24 84.2 442.32 83.72 441.76C83.16 441.16 82.4 440.76 80.8 440.48V439.88C80.8 439.88 84.12 440.12 84.8 440.12C85.44 440.12 85.64 439.96 85.64 439.4V407.24ZM80 427.44C82.24 426.92 88.08 425.28 93.72 423.52L93.88 424.04C91.4 425.64 87.68 428.04 82.64 430.84C82.52 431.36 82.16 431.76 81.72 431.92L80 427.44Z" fill="black"/>
<path d="M42.08 430.48C47.16 436.96 58.84 439.48 70.44 440L70.4 440.48C68.76 440.92 67.76 442.2 67.4 444.08C55.92 442.6 46.36 439.04 41.56 430.96L42.08 430.48ZM58.88 430.28L61.44 428.2L65 431.64C64.68 432.04 64.24 432.12 63.12 432.16C56.76 439.24 46.04 443.12 33.16 444.32L32.96 443.68C44.28 441.44 54.64 437 59.4 430.28H58.88ZM61.56 430.28V431.44H34.72L34.36 430.28H61.56ZM58.6 407.16C66.24 408.36 63.36 413.96 60.56 411.76C60.4 410.24 59.32 408.44 58.2 407.44L58.6 407.16ZM41.52 407.2C49.16 408.36 46.32 413.96 43.48 411.8C43.36 410.28 42.24 408.48 41.12 407.48L41.52 407.2ZM42.24 408.76C42.04 409.2 41.56 409.56 40.72 409.48C38.84 413.44 36.16 416.8 33.32 418.92L32.76 418.52C34.76 415.84 36.72 411.56 37.92 407.2L42.24 408.76ZM58.72 408.64C58.6 409.12 58.12 409.44 57.24 409.4C55.56 413.32 53.16 416.6 50.36 418.68L49.84 418.28C51.68 415.6 53.4 411.48 54.32 407.2L58.72 408.64ZM62.76 412.64V426.6H59.6V412.64H62.76ZM56.12 428.08C56.12 428.32 55.08 429.16 53.4 429.16H52.84V414.32L54.88 411.36L56.64 412.08H56.12V428.08ZM66.68 423.84C66.68 423.84 68.68 425.36 69.88 426.56C69.76 427 69.4 427.2 68.84 427.2H54.52V426.04H65L66.68 423.84ZM65.68 419.52C65.68 419.52 67.4 420.88 68.44 421.96C68.36 422.4 67.96 422.6 67.44 422.6H54.52V421.44H64.16L65.68 419.52ZM65.68 414.8C65.68 414.8 67.36 416.16 68.4 417.24C68.32 417.68 67.96 417.88 67.4 417.88H54.52V416.72H64.16L65.68 414.8ZM66.12 410.08C66.12 410.08 68 411.48 69.2 412.6C69.12 413.04 68.72 413.24 68.2 413.24H54.48V412.08H64.44L66.12 410.08ZM45.6 412.64V426.6H42.52V412.64H45.6ZM39.36 428.24C39.36 428.48 38.32 429.28 36.68 429.28H36.12V414.48L38.2 411.4L39.84 412.08H39.36V428.24ZM49.04 423.92C49.04 423.92 50.96 425.4 52.12 426.56C52 427 51.64 427.2 51.08 427.2H37.76V426.04H47.36L49.04 423.92ZM48.2 419.48C48.2 419.48 49.88 420.8 50.88 421.84C50.76 422.28 50.44 422.48 49.92 422.48H37.76V421.32H46.72L48.2 419.48ZM48.2 414.8C48.2 414.8 49.84 416.12 50.88 417.16C50.76 417.6 50.4 417.8 49.88 417.8H37.76V416.64H46.72L48.2 414.8ZM48.48 410.08C48.48 410.08 50.36 411.52 51.56 412.6C51.44 413.04 51.08 413.24 50.52 413.24H37.64V412.08H46.84L48.48 410.08Z" fill="black"/>
<path d="M4.79995 445.8H3.19995V405.8H4.79995V445.8Z" fill="#931F1C"/>
<path d="M273.615 569.168L268.877 573.905L273.615 578.643L278.352 573.905L273.615 569.168Z" fill="black"/>
<path d="M263.56 566.84C263.56 566.18 263.72 565.5 264.04 564.87L267.37 558.51C266.65 559.89 266.72 561.47 267.42 562.74C265.44 563.21 263.91 564.82 263.55 566.84H263.56ZM283.63 566.84C283.63 566.18 283.47 565.5 283.15 564.87L279.82 558.51C280.54 559.89 280.47 561.47 279.77 562.74C281.75 563.21 283.28 564.82 283.64 566.84H283.63Z" fill="#A20000"/>
<path d="M273.59 569.16L268.85 573.9L264.79 569.84C263.99 569.04 263.55 567.95 263.55 566.84C263.9 564.82 265.44 563.21 267.42 562.74C267.62 563.1 267.87 563.44 268.17 563.74L273.59 569.16ZM279.76 562.74C279.56 563.1 279.31 563.44 279.01 563.74L273.59 569.16L278.33 573.9L282.39 569.84C283.19 569.04 283.63 567.95 283.63 566.84C283.28 564.82 281.74 563.21 279.76 562.74ZM279.81 558.51C279.09 557.13 277.74 556.28 276.3 556.14C275.41 556.05 274.51 556 273.59 556C272.67 556 271.77 556.05 270.88 556.14C269.44 556.28 268.09 557.13 267.37 558.51C266.65 559.89 266.72 561.47 267.42 562.74C267.8 562.65 268.2 562.6 268.61 562.6H278.57C278.98 562.6 279.38 562.65 279.76 562.74C280.46 561.47 280.53 559.89 279.81 558.51Z" fill="#E40012"/>
<path d="M292.53 588.1L287.79 592.84L283.05 588.11L287.79 583.37L292.52 588.1H292.53ZM273.59 597.57C270.98 600.18 266.74 600.19 264.12 597.57C269.35 602.8 277.83 602.8 283.06 597.57C280.45 600.18 276.21 600.18 273.59 597.57ZM264.12 578.63C258.89 583.86 258.89 592.34 264.12 597.57C261.51 594.95 261.51 590.71 264.12 588.1C261.51 585.49 261.51 581.25 264.12 578.63Z" fill="#002063"/>
<path d="M292.53 588.1L287.8 583.37L293.84 577.33L298.57 582.07L292.53 588.11V588.1ZM278.33 573.89L273.6 578.62L283.07 588.09L287.81 583.35L278.34 573.88L278.33 573.89ZM303.31 598.87L292.53 588.09L287.79 592.83L293.83 598.87H303.3H303.31ZM264.12 597.57C266.73 600.18 270.97 600.18 273.59 597.57L264.12 588.1C261.51 590.71 261.51 594.95 264.12 597.57ZM283.06 588.1L273.59 597.57C276.2 600.18 280.44 600.18 283.06 597.57L287.79 592.84L283.06 588.1ZM268.86 573.89L264.13 578.62C261.52 581.24 261.52 585.47 264.13 588.09L273.6 578.62L268.86 573.89Z" fill="#004096"/>
<path d="M532.53 585.06C535.25 585.06 536.68 585.1 538.41 585.21V582.89C536.68 582.99 535.25 583.04 532.53 583.04H523.57V580.41H531.07C533.79 580.41 535.23 580.45 536.95 580.56V578.24C535.22 578.34 533.79 578.39 531.07 578.39H524.12V575.99H528.5C531.22 575.99 532.65 576.03 534.38 576.14V573.82C532.65 573.92 531.22 573.97 528.5 573.97H524.12V571.72H528.5C531.22 571.72 532.65 571.76 534.38 571.87V569.55C532.65 569.65 531.22 569.7 528.5 569.7H524.12V568.94C524.12 568.41 524.12 567.92 524.12 567.45H530.36C533.08 567.45 534.51 567.49 536.24 567.6V565.28C534.51 565.38 533.08 565.43 530.36 565.43H524.14C524.17 563.87 524.22 562.59 524.3 561.28H520.01C520.09 562.59 520.14 563.88 520.17 565.43H513.37C514.34 564.31 515.28 563.11 516.14 561.87L512.34 560.64C512.34 560.64 509.45 567.64 503.37 572.33L504.64 573.74C504.64 573.74 506.53 572.29 508.98 569.99C508.99 570.85 509 571.79 509 572.87C509 576.29 508.94 578.37 508.82 580.54L508.96 580.5L508.82 580.58C510.55 580.48 511.98 580.43 514.7 580.43H519.65V583.06H510.64C507.92 583.06 506.48 583.02 504.76 582.91V585.23C506.49 585.13 507.92 585.08 510.64 585.08H516.61C514.85 587.14 510.75 591.19 504.39 592.93L505.43 594.75C505.43 594.75 513.77 592.23 519.65 587.18V587.86C519.65 591.28 519.59 593.36 519.47 595.53H523.76C523.63 593.36 523.58 591.28 523.58 587.86V586.35C530.38 592.91 536.93 594.41 536.93 594.41L538.9 590.99C530.77 589.32 526.61 586.39 525.08 585.07H532.53V585.06ZM520.21 573.95H512.92V571.7H520.21V573.95ZM520.21 568.9V569.66H512.92V567.41H520.2C520.2 567.88 520.2 568.37 520.2 568.9H520.21ZM512.92 578.38V575.98H520.21V578.38H512.92ZM373.01 570.81C375.47 570.83 377.22 570.89 379.03 570.99V567.99C377.22 568.1 375.47 568.15 373.01 568.17C373.03 565.54 373.08 563.73 373.19 561.85H368.6C368.71 563.73 368.77 565.55 368.78 568.18H358.4C358.42 565.55 358.47 563.73 358.58 561.85H353.99C354.1 563.73 354.16 565.55 354.17 568.18C351.19 568.18 349.24 568.11 347.21 567.99V570.99C349.24 570.87 351.19 570.81 354.16 570.8C354.12 573.4 353.97 579.34 353.8 582.03H353.59C350.08 582.03 347.96 581.97 345.73 581.84V584.84C347.93 584.71 350.03 584.65 353.45 584.65C352.55 589.19 350.25 591.76 346.16 593.31L347.57 595.49C349.94 594.14 352.92 592.56 354.83 590.27C356.18 588.65 357.06 586.61 357.56 584.66H368.78V587.25C368.78 590.76 368.72 592.88 368.59 595.11H373.18C373.05 592.88 372.99 590.76 372.99 587.25V584.66C376.14 584.66 378.16 584.72 380.26 584.85V581.85C378.16 581.97 376.14 582.03 372.99 582.04V570.82L373.01 570.81ZM358.03 582.03C358.27 579.38 358.38 574.79 358.4 570.8H368.79V582.03H358.02H358.03ZM319.6 566.97C316.09 566.97 313.97 567.03 311.74 567.16V563.73C313.97 563.86 316.09 563.92 319.6 563.92H331.59C335.1 563.92 337.22 563.86 339.45 563.73V567.16C337.22 567.03 335.1 566.97 331.59 566.97H319.6ZM333.67 590.48C337.18 590.48 339.3 590.42 341.53 590.29V593.72C339.3 593.59 337.18 593.53 333.67 593.53H317.52C314.01 593.53 311.89 593.59 309.66 593.72V590.29C311.89 590.42 314.01 590.48 317.52 590.48H333.67ZM416.96 581.86C415.71 583.19 415.14 584.15 414.24 585.63C408.7 581.51 405.25 577.64 403.26 572.61C404.19 572.02 404.8 571.58 405.59 570.78C407.99 575.33 411.79 579.25 416.96 581.86ZM409.72 563.21C413.23 563.21 415.35 563.15 417.58 563.02V566.02C415.35 565.89 413.23 565.83 409.72 565.83H402.67C402.65 566.95 402.63 568.2 402.63 569.72V587.25C402.63 590.76 402.69 592.88 402.82 595.11H398.43C398.56 592.88 398.62 590.76 398.62 587.25V574.97C396.08 579.18 392.06 582.69 385.79 585.64C385.4 584.82 385.06 584.21 384.61 583.43C392.6 579.71 396.27 573.48 397.63 565.83H392.32C388.81 565.83 386.69 565.89 384.46 566.02V563.02C386.69 563.15 388.81 563.21 392.32 563.21H409.72ZM450.68 561.86H446.09C446.2 563.73 446.26 565.53 446.27 568.13C444.88 568.11 443.78 568.07 442.63 568V570.38C443.78 570.31 444.88 570.27 446.27 570.25C446.24 572.74 446.03 581.23 445.81 583.06C445.38 586.72 444.2 589.24 442.16 591.04L442.01 589.93C439.02 590.23 436.73 590.47 434.56 590.69V588.43H435.49C438.27 588.43 439.75 588.48 441.52 588.58V586.2C439.75 586.3 438.28 586.35 435.49 586.35H434.56V583.92H435.18C437.96 583.92 439.76 583.97 441.53 584.07C441.43 582.4 441.44 579.38 441.44 578.29C441.44 575.65 441.44 574.18 441.53 572.51C439.76 572.61 437.96 572.66 435.18 572.66H434.56V570.24H435.72C438.5 570.24 439.98 570.29 441.75 570.39V568.01C439.98 568.11 438.51 568.16 435.72 568.16H434.56V565.33C437.07 565.07 439.48 564.69 441.54 564.17L440.46 561.08C436.06 562.91 428.93 564 423.62 564.15L423.72 565.87C425.93 565.87 428.42 565.8 430.94 565.64V568.17H429.84C427.06 568.17 425.37 568.12 423.6 568.02V570.4C425.37 570.3 427.05 570.25 429.84 570.25H430.94V572.67H430.39C427.61 572.67 425.69 572.62 423.92 572.52C424.02 574.19 424.01 575.67 424.01 578.3C424.01 579.39 424.01 582.41 423.92 584.08C425.69 583.98 427.6 583.93 430.39 583.93H430.94V586.36H430.03C427.25 586.36 425.56 586.31 423.79 586.21V588.59C425.56 588.49 427.24 588.44 430.03 588.44H430.94V591.05C428.76 591.25 426.38 591.46 423.27 591.71L423.79 594.81C430.79 593.59 434.38 593.03 441.08 591.88C440.25 592.44 439.31 592.92 438.25 593.32L439.66 595.5C442.03 594.15 445.01 592.57 446.92 590.28C448.57 588.31 449.54 585.71 449.94 583.42C450.31 581.24 450.47 575.16 450.48 570.24H454.21C454.16 577.68 453.94 586.2 453.34 589.8C452.88 592.57 452.78 592.67 450.5 592.25C449.79 592.12 449.08 591.97 448.58 591.86C448.42 592.72 448.3 593.29 448.12 593.98C449.52 594.38 452.71 595.19 454.17 595.11C455.45 595.04 456.39 594.33 456.79 592.22C457.57 588.06 457.91 574.37 457.91 568.16H450.48C450.5 565.55 450.55 563.74 450.66 561.87L450.68 561.86ZM434.56 581.95V579.24H435.18C436.27 579.24 437.22 579.24 438.08 579.26C438.08 580.36 438.08 581.33 438.06 581.93C437.21 581.94 436.26 581.95 435.18 581.95H434.56ZM435.18 574.59C436.25 574.59 437.2 574.59 438.05 574.61C438.06 575.32 438.07 576.27 438.07 577.27C437.21 577.28 436.26 577.29 435.18 577.29H434.56V574.59H435.18ZM430.95 574.59V577.29H430.4C429.29 577.29 428.29 577.29 427.39 577.27C427.39 576.27 427.4 575.33 427.41 574.61C428.3 574.6 429.3 574.59 430.4 574.59H430.95ZM430.4 581.95C429.31 581.95 428.3 581.95 427.41 581.93C427.4 581.33 427.39 580.36 427.39 579.26C428.29 579.24 429.29 579.24 430.4 579.24H430.95V581.95H430.4ZM329.45 576.65C332.96 576.65 335.08 576.59 337.31 576.46V579.89C335.08 579.76 332.96 579.7 329.45 579.7H321.73C318.22 579.7 316.1 579.76 313.87 579.89V576.46C316.1 576.59 318.22 576.65 321.73 576.65H329.45ZM559.57 570.08C559.57 570.47 559.58 570.88 559.59 571.31H559.2C555.78 571.31 553.7 571.25 551.53 571.13C551.66 572.25 551.71 573.32 551.71 575.09C551.71 576.86 551.65 577.93 551.53 579.05C553.7 578.92 555.78 578.87 559.2 578.87H559.6V580.52C553.11 580.63 550.26 580.32 550.26 580.32L550.89 583.12C557.98 582.75 563.12 582.44 569 581.74C570.02 582.85 570.7 583.85 570.7 583.85L573.12 581.88C571.07 580.26 569.44 579.35 568.61 578.93C569.51 578.96 570.34 579 571.18 579.05C571.05 577.93 571 576.86 571 575.09C571 573.32 571.06 572.25 571.18 571.13C569.01 571.26 566.93 571.31 563.51 571.31H563.01C563.01 570.88 563.02 570.47 563.03 570.08H565.33C568.75 570.08 570.83 570.14 573 570.26V568C570.83 568.13 568.75 568.18 565.33 568.18H563.08C563.11 567.48 563.14 566.81 563.18 566.13H559.42C559.46 566.81 559.49 567.48 559.52 568.18H557.71C554.29 568.18 552.21 568.12 550.04 568V570.26C552.21 570.13 554.29 570.08 557.71 570.08H559.57ZM559.6 573.06C559.6 573.31 559.6 573.55 559.6 573.81V574.16H554.95V573.05H559.6V573.06ZM554.95 577.12V575.91H559.6V577.12H554.95ZM567.75 577.12H562.99V575.91H567.75V577.12ZM567.52 580.34C566.63 580.37 565.16 580.4 563 580.45V578.86H563.51C565.13 578.86 566.45 578.87 567.62 578.9L566.53 579.6C566.87 579.81 567.2 580.07 567.53 580.33L567.52 580.34ZM567.75 573.06V574.17H562.99V573.82C562.99 573.56 562.99 573.31 562.99 573.07H567.74L567.75 573.06ZM573.34 586.46C571.65 586.36 570.01 586.3 567.76 586.28V589.79C567.76 591.23 567.4 592.35 566.15 592.42C564.72 592.49 563.19 592.13 560 591.68L559.66 589.85L562.09 590.12C564.08 590.33 564.36 590.14 564.36 589.46V586.27H557.45C556.5 586.27 555.66 586.27 554.89 586.28C557.63 587.3 560.05 588.72 560.05 588.72L557.85 591.22C555.51 588.5 553.01 587.35 553.01 587.35L553.97 586.3C552.39 586.33 551.1 586.38 549.77 586.46V584.2C551.94 584.33 554.02 584.38 557.44 584.38H564.32C564.29 583.77 564.24 583.26 564.17 582.74H567.93C567.86 583.26 567.81 583.77 567.78 584.37C570.01 584.35 571.64 584.29 573.33 584.19V586.45L573.34 586.46ZM578 595.29C577.87 593.12 577.82 590.99 577.82 587.57V570.98C577.82 567.56 577.88 565.14 578 562.96C575.83 563.09 573.75 563.14 570.33 563.14H552.68C549.26 563.14 547.18 563.08 545.01 562.96C545.14 565.13 545.19 567.55 545.19 570.98V587.57C545.19 590.99 545.13 593.12 545.01 595.29C547.18 595.16 549.26 595.11 552.68 595.11H570.33C573.75 595.11 575.83 595.17 578 595.29ZM549.19 592.83C549.13 591.41 549.11 589.87 549.11 587.57V570.98C549.11 568.64 549.14 566.95 549.19 565.42H573.9V592.83H549.19ZM488.45 591.7C489.65 591.7 495.88 591.64 498.11 591.51V594.1C495.88 593.97 489.65 593.91 488.45 593.91H478.89C477.69 593.91 471.46 593.97 469.23 594.1V591.51C471.46 591.64 477.69 591.7 478.89 591.7H481.55V588.13C479.83 588.13 475.01 588.2 472.96 588.32V585.73C475 585.85 479.83 585.91 481.55 585.92V582.35C480.43 582.35 476.98 582.39 474.54 582.47C473.81 583.81 472.85 585.12 471.62 586.49L469.87 585.43C471.78 582.95 472.74 579.47 472.88 576.64H476.32C476.19 577.86 475.94 578.98 475.59 580.04C477.88 580.1 480.57 580.13 481.54 580.13C481.52 578.21 481.47 578.51 481.36 576.64H485.98C485.87 578.51 485.81 578.21 485.8 580.13C487.25 580.13 493.11 580.07 495.28 579.94V582.53C493.12 582.4 487.24 582.34 485.8 582.34V585.91C487.52 585.91 492.34 585.85 494.39 585.75V588.32C492.35 588.18 487.52 588.14 485.8 588.13V591.7H488.46H488.45ZM473.48 575.42H490.02C493.53 575.42 495.65 575.48 497.88 575.61V573.17C496.2 573.27 494.59 573.33 492.39 573.35L493.52 572.05C491.87 571.13 490.07 570.34 488.26 569.66C490.35 568.79 492.08 567.92 493.63 567.18L493.07 566.61C494.7 566.64 496.04 566.69 497.4 566.77V564.33C495.17 564.46 493.05 564.52 489.54 564.52H483.97C484 563.39 484.05 562.39 484.11 561.36H479.52C479.58 562.38 479.63 563.39 479.66 564.52H474.24C470.73 564.52 468.61 564.46 466.38 564.33V566.77C468.25 566.66 470.06 566.6 472.66 566.59L471.82 567.86C471.82 567.86 475.53 568.35 480.3 569.68C476.84 570.53 473.51 571.06 470.56 571.54L471.58 573.37C469.19 573.35 467.55 573.29 465.77 573.19C465.99 579.48 466.03 588.76 461.89 594.05L463.62 595.51C468.61 590.07 469.85 586.02 469.88 575.47C470.93 575.45 472.09 575.44 473.48 575.44V575.42ZM476.82 566.57H489.46C487.85 567.3 486.23 567.9 484.62 568.43C481.68 567.55 478.91 566.95 476.82 566.57ZM490.16 573.36C490.16 573.36 490.07 573.36 490.02 573.36H474.36C478.52 572.77 481.85 571.93 484.62 571.02C486.47 571.68 488.36 572.45 490.17 573.36H490.16Z" fill="black"/>
<path d="M6.82 579.04C6.82 573.33 9.83 568.34 14.35 565.54V556H0V601.49H14.35V592.54C9.83 589.74 6.82 584.74 6.82 579.04Z" fill="#1226AA"/>
<path d="M31.02 556V565.54C35.54 568.33 38.56 573.33 38.56 579.04C38.56 584.75 35.55 589.74 31.02 592.54V601.49H45.37V556H31.02Z" fill="#1226AA"/>
<path d="M22.69 563.17C19.63 563.17 16.78 564.04 14.35 565.54V592.54C14.35 592.54 14.38 592.56 14.4 592.57L14.34 592.63L22.73 600.91L27.46 595.92L17.62 585.61C15.84 584.15 14.7 581.93 14.7 579.44C14.7 575.03 18.27 571.45 22.68 571.45C27.09 571.45 30.67 575.02 30.67 579.44C30.67 583.86 27.09 587.43 22.68 587.43C21.78 587.43 20.92 587.27 20.11 587L27.07 594.29L28.02 595.29L30.72 592.71C30.82 592.66 30.91 592.61 31.01 592.55V565.54C28.59 564.04 25.73 563.17 22.68 563.17H22.69Z" fill="#1226AA"/>
<path d="M66.86 575.51H79.92C80.72 573.55 81.35 571.52 81.8 569.41L85.19 570.54C85.59 570.64 85.79 570.8 85.79 571.03C85.79 571.31 85.5 571.61 84.92 571.93C84.57 573.21 84.19 574.4 83.79 575.51H101.48V578.67H82.55C81.65 580.73 80.69 582.45 79.69 583.83C77.46 587.09 74.02 590.22 69.38 593.2L66.41 590.75C68.89 589.32 70.98 587.87 72.66 586.38C74.79 584.52 76.59 582.28 78.04 579.64C78.21 579.29 78.38 578.96 78.53 578.66H66.86V575.5V575.51ZM82.36 561.43L85.79 561.73C86.42 561.76 86.73 561.93 86.73 562.26C86.73 562.46 86.48 562.76 85.98 563.16V565.72H100.36V572.87H96.9V568.88H71.3V572.87H67.84V565.72H82.37V561.43H82.36ZM85.68 580.1L89.03 581.42C89.51 581.57 89.75 581.76 89.75 581.98C89.75 582.16 89.45 582.43 88.85 582.81C87.5 585.27 85.76 587.97 83.66 590.9C87.25 590.5 90.75 590.06 94.16 589.58C93.13 588.18 92.06 586.9 90.96 585.74L93.48 583.71C96.24 586.37 98.96 589.77 101.65 593.91L98.45 596.06C97.75 594.86 97.04 593.7 96.34 592.6C91.85 593.35 85.25 594.33 76.54 595.54C76.26 595.99 75.98 596.22 75.67 596.22C75.36 596.22 75.21 596.03 75.18 595.66L74.24 591.71C76 591.58 77.75 591.45 79.51 591.3C80.54 589.85 81.4 588.51 82.11 587.31C83.56 584.88 84.76 582.48 85.69 580.12L85.68 580.1Z" fill="#222222"/>
<path d="M115.94 561.73C117.27 562.56 118.57 563.63 119.85 564.93L118.01 566.17H125.76L128.77 561.43L131.48 562.82C131.86 563.02 132.05 563.2 132.05 563.35C132.05 563.65 131.8 563.91 131.3 564.14L129.68 566.17H137.47V569.03H127.98V576.93H130.35L132.99 570.91L135.55 572.19C135.93 572.39 136.11 572.57 136.11 572.72C136.11 573.02 135.87 573.27 135.39 573.47L133.66 576.93H139.61V579.94H106.15V576.93H111.38C110.85 575.27 110.21 573.73 109.46 572.3L112.96 571.66C113.66 573.32 114.29 575.07 114.84 576.93H116.99V569.03H108.26V566.17H116.16C115.31 565.22 114.43 564.39 113.53 563.69L115.94 561.73ZM111.57 581.61H134.46V596.06H131.15V594.93H114.89V596.06H111.58V581.61H111.57ZM114.89 587.03H131.15V584.62H114.89V587.03ZM114.89 592.07H131.15V589.74H114.89V592.07ZM120.34 576.94H124.67V569.04H120.34V576.94Z" fill="#222222"/>
<path d="M156.89 563.69H164.04V561.58L167.31 561.84C167.91 561.89 168.21 562.07 168.21 562.37C168.21 562.57 167.97 562.86 167.5 563.24V563.69H175.56V568.81H179.02V571.82H175.56V576.94H167.5V579.35H176.01V582.36H167.5V584.69H176.91V587.85H167.5V592.14C169.56 592.22 171.87 592.25 174.43 592.25C175.63 592.25 177.16 592.21 179.02 592.14L177.36 595.9C170.61 595.9 165.4 595.7 161.74 595.3C158.78 595 156.36 594.51 154.48 593.83C153.05 593.35 151.78 592.75 150.68 592.02C149.42 593.78 147.88 595.22 146.05 596.35L143.49 593.6C145.27 592.7 146.75 591.44 147.93 589.84C146.73 588.59 145.43 586.69 144.05 584.16L146.87 583.11C147.9 584.64 148.84 585.87 149.69 586.8C150.62 584.67 151.21 581.71 151.46 577.92H148.49L147.17 580.55L144.08 579.46L149.95 567.08H144.23V563.92H150.63L151.61 563.58C151.94 563.58 152.25 563.69 152.55 563.92L154.43 565.24C154.66 565.42 154.77 565.59 154.77 565.77C154.77 566.1 154.51 566.42 153.98 566.75L150.07 574.77H154.78C154.58 580.97 153.86 585.56 152.63 588.55C152.55 588.73 152.47 588.89 152.37 589.04C154 590.09 155.89 590.83 158.05 591.26C159.38 591.59 161.37 591.84 164.03 592.01V587.87H154.77V584.71H164.03V582.38H155.98V579.37H164.03V576.96H156.88V573.95H164.03V571.84H153.72V568.83H164.03V566.76H156.88V563.71L156.89 563.69ZM167.51 566.74V568.81H172.25V566.74H167.51ZM167.51 571.82V573.93H172.25V571.82H167.51Z" fill="#222222"/>
<path d="M182.64 567.309H196.49V570.319H182.64V567.309ZM183.47 583.489H195.67V595.759H192.51V593.879H186.64V596.059H183.48V583.489H183.47ZM183.99 572.799H194.98V575.659H183.99V572.799ZM183.99 577.919H194.98V580.779H183.99V577.919ZM184.14 562.109H194.83V564.969H184.14V562.109ZM186.63 591.019H192.5V586.349H186.63V591.019ZM199.8 562.259H210.94V570.469C210.94 571.669 211.11 572.279 211.47 572.279H213.5C213.7 572.279 213.88 572.149 214.03 571.899C214.18 571.599 214.36 570.419 214.56 568.359L217.72 569.529C217.17 572.119 216.56 573.719 215.91 574.349C215.21 574.979 214.2 575.289 212.9 575.289H211.17C208.81 575.289 207.63 573.949 207.63 571.259V565.119H203.04C202.91 567.879 202.56 569.929 201.99 571.259C201.31 572.869 200.17 574.509 198.57 576.189L195.9 574.039C197.43 572.709 198.46 571.429 198.99 570.199C199.54 569.149 199.82 566.499 199.82 562.259H199.8ZM198.75 577.689H211.21C211.69 577.359 211.95 577.199 212 577.199C212.28 577.199 212.53 577.329 212.75 577.579L214.56 579.269C214.76 579.469 214.86 579.699 214.86 579.949C214.86 580.199 214.52 580.509 213.84 580.889C212.41 585.079 210.8 588.139 209.02 590.069C211.13 591.099 213.93 591.979 217.41 592.699L215.19 596.049C211.58 595.099 208.63 593.899 206.34 592.469C204.28 593.899 201.67 595.089 198.51 596.049L196.18 592.959C198.46 592.459 200.29 591.889 201.68 591.269C202.36 590.969 202.96 590.629 203.49 590.249C201.78 588.639 200 586.339 198.14 583.319L200.55 581.739C202.33 584.579 204.18 586.729 206.08 588.209C206.36 587.909 206.61 587.589 206.83 587.269C207.98 585.809 209.05 583.619 210.03 580.679H198.74V577.669L198.75 577.689Z" fill="#222222"/>
</svg>
