<svg width="495" height="249" viewBox="0 0 495 249" fill="none" xmlns="http://www.w3.org/2000/svg">
<path d="M170.68 46.11L130.07 5.5C126.55 1.98 121.78 0 116.8 0H59.37C54.39 0 49.62 1.98 46.1 5.5L5.5 46.11C1.98 49.63 0 54.4 0 59.38V116.81C0 121.79 1.98 126.56 5.5 130.08L46.11 170.69C49.63 174.21 54.4 176.19 59.38 176.19H116.81C121.79 176.19 126.56 174.21 130.08 170.69L170.69 130.08C174.21 126.56 176.19 121.79 176.19 116.81V59.38C176.19 54.4 174.21 49.63 170.69 46.11H170.68ZM168.36 101.87C168.36 114.34 163.41 126.3 154.59 135.11L135.11 154.59C126.29 163.41 114.34 168.36 101.87 168.36H74.32C61.85 168.36 49.89 163.41 41.08 154.59L21.6 135.11C12.78 126.29 7.83 114.34 7.83 101.87V74.32C7.83 61.85 12.78 49.89 21.6 41.08L41.08 21.6C49.9 12.78 61.85 7.83 74.32 7.83H101.87C114.34 7.83 126.3 12.78 135.11 21.6L154.59 41.08C163.41 49.9 168.36 61.85 168.36 74.32V101.87Z" fill="#C9A063"/>
<path d="M120.95 58.34C119.48 57.68 117.29 56.38 115.93 54.08C114.39 51.47 114.17 47.99 115.3 43.73L110.72 37.79H65.46L60.88 43.73C62 47.99 61.79 51.47 60.25 54.08C58.89 56.39 56.7 57.69 55.24 58.34L46.42 53.5L41.86 61.8L52.53 67.66L55.88 68.12C56.71 67.93 64.09 66.05 68.32 59.04C70.39 55.61 71.29 51.67 71.03 47.25H105.16C104.9 51.66 105.8 55.61 107.87 59.04C112.1 66.05 119.48 67.93 120.31 68.12L123.66 67.66L134.33 61.8L129.77 53.5L120.95 58.34Z" fill="#C9A063"/>
<path d="M62.72 90.2305H114.37L116.66 89.6405L126.83 84.0105L122.24 75.7305L113.15 80.7605H63.71L53.34 76.2305L49.55 84.9105L60.83 89.8305L62.72 90.2305Z" fill="#C9A063"/>
<path d="M119.03 103.84H58.05L45.93 99.49L42.73 108.4L55.62 113.03L55.79 113.06V136.8L60.52 141.53H115.63L120.36 136.8V113.23L122 112.87L133.64 107.58L129.72 98.96L119.02 103.83L119.03 103.84ZM65.27 132.08V113.32H110.91V132.08H65.27Z" fill="#C9A063"/>
<path d="M223.06 102.82C222 100.32 218.69 94.2597 218.31 93.5797L218.04 93.0997L216.92 93.7697V90.2597H221.71V86.2997H216.92V74.2197H212.99V86.2997H207.81V90.2597H210.62C210.41 95.6697 209.14 102.38 206.17 104.24L205.73 104.51L207.69 107.91L208.16 107.62C210.3 106.28 211.92 103.77 212.99 100.14V123.28H216.92V99.1797C217.91 101.05 219.04 103.24 219.53 104.42L219.74 104.93L223.24 103.31L223.04 102.84L223.06 102.82Z" fill="white"/>
<path d="M245.35 83.8V81.02H251.14V76.94H245.35V74.21H241.17V76.94H233.46V74.21H229.28V76.94H223.7V81.02H229.28V83.8H233.46V81.02H241.17V83.8H245.35Z" fill="white"/>
<path d="M247.48 101.72V98.4803H253.95V94.4003H247.48V91.3103H243.52V94.4003H239.46V89.6103H251.14V85.5303H223.7V89.6103H235.38V94.4003H231.62V91.3103H227.66V94.4003H220.89V98.4803H227.66V101.72H231.62V98.4803H235.38V103.96H222.83V108.04H235.38V111.02H225.1V115.1H235.38V124.18H239.46V115.1H249.73V111.02H239.46V108.04H252V103.96H239.46V98.4803H243.52V101.72H247.48Z" fill="white"/>
<path d="M310.32 78.4598L309.06 70.4598L298.85 72.1598V47.5598H309.92V39.4498H298.85V15.5898H290.93V39.4298H277.89V47.5398H290.93V73.4598L277.18 75.7398L278.44 83.7398L290.93 81.6698V105.55C290.93 105.55 291.03 110.56 288.42 113.23C287.15 114.54 285.36 115.13 282.91 115.04L282.36 115.02L282.32 123.12L282.84 123.14C283.08 123.14 283.31 123.15 283.55 123.15C287.87 123.15 291.31 121.76 294.07 118.9C298.86 113.94 298.89 106.72 298.85 105.34V80.3498L310.32 78.4498V78.4598Z" fill="white"/>
<path d="M380.55 51.3202C365.07 45.8402 357.27 19.8302 357.19 19.5602L356.35 16.6602H333.73L332.94 19.6702C332.87 19.9102 326.28 44.0902 310.48 51.0902L310 51.3002L313.13 58.7502L313.63 58.5302C329.3 51.5902 337 32.9002 339.69 24.7702H350.55C353.61 33.4802 362.17 53.4002 377.97 58.9902L378.48 59.1702L381.05 51.5002L380.56 51.3302L380.55 51.3202Z" fill="white"/>
<path d="M364.73 56.6602H324.84V64.7702H364.73V56.6602Z" fill="white"/>
<path d="M319.89 122.12H370.44V75.8096H319.89V122.12ZM327.81 114V83.9196H362.51V114H327.81Z" fill="white"/>
<path d="M459.6 68.5897V24.8397H444.36L446.94 14.2697L439.27 12.2197L436.19 24.8397H423.93V68.5897H454.6H459.6ZM451.68 60.3597H431.85V51.1797H451.68V60.3597ZM451.68 42.9497H431.85V33.0697H451.68V42.9497Z" fill="white"/>
<path d="M422.85 91.26C422.85 91.26 420.64 95.05 415.61 99.53C410.93 103.69 402.77 109.37 390.44 112.74L389.94 112.88L391.93 120.85L392.46 120.71C419.33 113.35 429.27 96.17 429.68 95.44L429.93 94.99L423.12 90.79L422.85 91.27V91.26Z" fill="white"/>
<path d="M493.93 112.839C475.18 105.919 465.19 91.9794 461.4 85.4994H492.48V77.2694H446.15V71.6494H438.23V77.2694H390.92V85.4994H438.23V105.079C438.23 105.079 438.19 107.979 437.11 110.699C435.63 114.439 433.4 114.919 431.62 114.919H431.09V123.149H431.62C437.59 123.149 442.17 119.749 444.53 113.589C446.05 109.609 446.14 105.829 446.15 105.109V85.4994H452.37C454.03 89.2394 464.61 110.759 491.28 120.589L491.8 120.779L494.42 113.009L493.93 112.829V112.839Z" fill="white"/>
<path d="M418 33.3598L392.9 20.5498V29.6898L418 42.4398V33.3598Z" fill="white"/>
<path d="M418 49.3496L392.9 57.1696V65.7496L418 57.9296V49.3496Z" fill="white"/>
<path d="M490.68 20.5498L465.53 33.3898V42.6198L490.68 29.6898V20.5498Z" fill="white"/>
<path d="M490.68 57.1701L465.53 49.3301V57.9101L490.68 65.7501V57.1701Z" fill="white"/>
<path d="M211.38 40.9201V61.2201H215.44V59.7301H224.18V32.2401H215.11C216.03 27.9601 216.2 23.6601 216.23 21.8101H224.25V17.6201H208.68V21.8101H212.17C212.11 26.4801 211.22 35.2501 208.2 38.2901C207.52 38.9801 206.59 39.2901 205.74 39.2401L205.21 39.2201V43.4001L205.74 43.4201C207.74 43.5001 209.54 42.7901 211.04 41.2801C211.15 41.1701 211.27 41.0401 211.38 40.9201ZM220.12 36.4201V55.5401H215.44V36.4201H220.12Z" fill="white"/>
<path d="M235.93 25.0302H227.83V54.2302H250.05V25.0302H240.12L241.01 21.3902H251.99V17.2002H226.82V21.3902H236.82L235.93 25.0302ZM231.88 33.1602V29.2102H245.97V33.1602H231.88ZM231.88 40.8902V37.3502H245.97V40.8902H231.88ZM231.88 50.0402V45.0702H245.97V50.0402H231.88Z" fill="white"/>
<path d="M251.67 61.8803C248.81 60.6003 247.71 58.1603 247.3 56.7803H243.12C243.42 58.3803 244.75 63.3403 250.05 65.7203L250.55 65.9403L252.14 62.0903L251.67 61.8803Z" fill="white"/>
<path d="M231.19 56.7803C230.79 58.1503 229.7 60.5903 226.82 61.8803L226.35 62.0903L227.94 65.9403L228.44 65.7203C233.74 63.3503 235.07 58.3803 235.37 56.7803H231.19Z" fill="white"/>
<path d="M220.75 165.39C220.09 165.75 218.54 166.17 216.58 166.17C210.93 166.17 208.02 162.26 208.02 157.11C208.02 150.95 212.01 147.54 216.93 147.54C218.85 147.54 220.3 147.96 220.95 148.34L220.2 151.57C219.47 151.21 218.42 150.89 217.1 150.89C214.19 150.89 211.91 152.85 211.91 156.87C211.91 160.49 213.84 162.77 217.12 162.77C218.25 162.77 219.47 162.52 220.2 162.19L220.75 165.39Z" fill="#C9A063"/>
<path d="M239.8 156.68C239.8 162.61 236.57 166.19 231.8 166.19C227.03 166.19 224.12 162.14 224.12 156.98C224.12 151.82 227.26 147.53 232.06 147.53C236.86 147.53 239.8 151.68 239.8 156.68ZM228.02 156.9C228.02 160.44 229.53 162.94 231.99 162.94C234.45 162.94 235.91 160.33 235.91 156.82C235.91 153.56 234.52 150.78 231.98 150.78C229.44 150.78 228.02 153.39 228.02 156.91V156.9Z" fill="#C9A063"/>
<path d="M248.32 147.82V158.21C248.32 161.33 249.4 162.92 251.28 162.92C253.16 162.92 254.28 161.41 254.28 158.21V147.82H257.97V157.96C257.97 163.53 255.43 166.18 251.16 166.18C246.89 166.18 244.64 163.65 244.64 157.91V147.82H248.33H248.32Z" fill="#C9A063"/>
<path d="M263.59 165.89V147.82H267.89L271.28 154.45C272.26 156.34 273.21 158.61 273.95 160.65H274.01C273.78 158.25 273.71 155.82 273.71 153.09V147.82H277.1V165.89H273.24L269.74 158.93C268.77 156.98 267.7 154.67 266.91 152.55H266.83C266.94 154.95 266.99 157.51 266.99 160.46V165.89H263.6H263.59Z" fill="#C9A063"/>
<path d="M285.86 151.25H281.46V147.82H294.01V151.25H289.55V165.89H285.86V151.25Z" fill="#C9A063"/>
<path d="M298.39 147.821H302.08V162.461H308.57V165.881H298.39V147.811V147.821Z" fill="#C9A063"/>
<path d="M322.87 158.25H316.87V162.55H323.58V165.9H313.18V147.83H323.23V151.18H316.87V154.94H322.87V158.26V158.25Z" fill="#C9A063"/>
<path d="M328.65 161.67C329.63 162.25 331.16 162.81 332.74 162.81C334.43 162.81 335.33 162.03 335.33 160.84C335.33 159.73 334.55 159.08 332.6 158.31C329.88 157.24 328.1 155.6 328.1 152.96C328.1 149.88 330.43 147.54 334.27 147.54C336.13 147.54 337.47 147.95 338.44 148.45L337.62 151.73C336.97 151.39 335.8 150.87 334.22 150.87C332.64 150.87 331.85 151.69 331.85 152.62C331.85 153.77 332.75 154.28 334.87 155.16C337.76 156.36 339.1 158.02 339.1 160.57C339.1 163.59 337.02 166.18 332.52 166.18C330.67 166.18 328.82 165.62 327.91 165.06L328.66 161.68L328.65 161.67Z" fill="#C9A063"/>
<path d="M344.14 161.67C345.12 162.25 346.65 162.81 348.23 162.81C349.92 162.81 350.82 162.03 350.82 160.84C350.82 159.73 350.04 159.08 348.09 158.31C345.37 157.24 343.59 155.6 343.59 152.96C343.59 149.88 345.92 147.54 349.76 147.54C351.62 147.54 352.96 147.95 353.93 148.45L353.11 151.73C352.46 151.39 351.29 150.87 349.71 150.87C348.13 150.87 347.34 151.69 347.34 152.62C347.34 153.77 348.24 154.28 350.36 155.16C353.25 156.36 354.59 158.02 354.59 160.57C354.59 163.59 352.51 166.18 348.01 166.18C346.16 166.18 344.31 165.62 343.4 165.06L344.15 161.68L344.14 161.67Z" fill="#C9A063"/>
<path d="M366.82 148.061C367.95 147.851 369.55 147.681 371.8 147.681C374.05 147.681 375.7 148.171 376.79 149.141C377.83 150.041 378.52 151.551 378.52 153.321C378.52 155.091 378 156.601 377.03 157.601C375.77 158.911 373.89 159.521 371.73 159.521C371.24 159.521 370.81 159.481 370.47 159.431V165.901H366.82V148.071V148.061ZM370.47 156.261C370.78 156.341 371.16 156.371 371.69 156.371C373.65 156.371 374.86 155.271 374.86 153.441C374.86 151.781 373.83 150.791 371.97 150.791C371.24 150.791 370.73 150.861 370.46 150.921V156.261H370.47Z" fill="#C9A063"/>
<path d="M383.3 147.821H386.99V162.461H393.48V165.881H383.3V147.811V147.821Z" fill="#C9A063"/>
<path d="M407.78 158.25H401.78V162.55H408.49V165.9H398.09V147.83H408.14V151.18H401.78V154.94H407.78V158.26V158.25Z" fill="#C9A063"/>
<path d="M417.22 161.25L416.07 165.89H412.26L417.24 147.82H422.07L427.15 165.89H423.18L421.93 161.25H417.24H417.22ZM421.36 158.21L420.34 154.37C420.06 153.3 419.77 151.95 419.52 150.89H419.47C419.23 151.95 418.99 153.32 418.72 154.37L417.74 158.2H421.35L421.36 158.21Z" fill="#C9A063"/>
<path d="M431.86 161.67C432.84 162.25 434.37 162.81 435.95 162.81C437.64 162.81 438.54 162.03 438.54 160.84C438.54 159.73 437.76 159.08 435.81 158.31C433.09 157.24 431.31 155.6 431.31 152.96C431.31 149.88 433.64 147.54 437.48 147.54C439.34 147.54 440.68 147.95 441.65 148.45L440.83 151.73C440.18 151.39 439.01 150.87 437.43 150.87C435.85 150.87 435.06 151.69 435.06 152.62C435.06 153.77 435.96 154.28 438.08 155.16C440.97 156.36 442.31 158.02 442.31 160.57C442.31 163.59 440.23 166.18 435.73 166.18C433.88 166.18 432.03 165.62 431.12 165.06L431.87 161.68L431.86 161.67Z" fill="#C9A063"/>
<path d="M450.89 147.82V158.21C450.89 161.33 451.97 162.92 453.85 162.92C455.73 162.92 456.85 161.41 456.85 158.21V147.82H460.54V157.96C460.54 163.53 458 166.18 453.73 166.18C449.46 166.18 447.21 163.65 447.21 157.91V147.82H450.9H450.89Z" fill="#C9A063"/>
<path d="M466.15 148.071C467.33 147.851 469.09 147.681 471.05 147.681C473.47 147.681 475.16 148.091 476.33 149.111C477.3 149.971 477.84 151.241 477.84 152.901C477.84 155.191 476.36 156.781 474.96 157.341V157.421C476.09 157.931 476.73 159.121 477.14 160.791C477.64 162.831 478.14 165.191 478.46 165.891H474.68C474.43 165.371 474.02 163.911 473.56 161.681C473.11 159.421 472.42 158.821 470.9 158.801H469.8V165.891H466.15V148.071ZM469.81 155.841H471.25C473.08 155.841 474.17 154.811 474.17 153.241C474.17 151.591 473.15 150.741 471.46 150.731C470.58 150.731 470.06 150.791 469.8 150.871V155.851L469.81 155.841Z" fill="#C9A063"/>
<path d="M492.62 158.25H486.62V162.55H493.33V165.9H482.93V147.83H492.98V151.18H486.62V154.94H492.62V158.26V158.25Z" fill="#C9A063"/>
<mask id="mask0_1_1344" style="mask-type:luminance" maskUnits="userSpaceOnUse" x="114" y="223" width="17" height="26">
<path d="M114.83 248.109L114.78 223.999H120.42L120.44 233.1H124.96L124.94 223.979H130.45L130.5 248.079H124.99L124.97 238.089H120.45L120.47 248.1H114.83V248.109Z" fill="white"/>
</mask>
<g mask="url(#mask0_1_1344)">
<path d="M114.78 224L114.83 248.11H114.78V224Z" fill="white"/>
<path d="M114.83 223.97L114.88 248.11H114.83L114.78 224V223.97H114.83Z" fill="white"/>
<path d="M114.89 223.97L114.93 248.11H114.88L114.83 223.97H114.89Z" fill="#FEFEFE"/>
<path d="M114.94 223.97L114.99 248.11H114.93L114.89 223.97H114.94Z" fill="#FCFCFD"/>
<path d="M114.99 223.97L115.04 248.11H114.99L114.94 223.97H114.99Z" fill="#FAFAFB"/>
<path d="M115.04 223.97L115.09 248.11H115.04L114.99 223.97H115.04Z" fill="#F8F8F9"/>
<path d="M115.09 223.97L115.14 248.11H115.09L115.04 223.97H115.09Z" fill="#F6F6F7"/>
<path d="M115.15 223.97L115.19 248.11H115.14L115.09 223.97H115.15Z" fill="#F4F4F5"/>
<path d="M115.2 223.97L115.25 248.11H115.19L115.15 223.97H115.2Z" fill="#F2F2F3"/>
<path d="M115.25 223.97L115.3 248.11H115.25L115.2 223.97H115.25Z" fill="#F0F0F1"/>
<path d="M115.3 223.97L115.35 248.11H115.3L115.25 223.97H115.3Z" fill="#EFEEF0"/>
<path d="M115.35 223.97L115.4 248.11H115.35L115.3 223.97H115.35Z" fill="#EDECEE"/>
<path d="M115.41 223.97L115.45 248.11H115.4L115.35 223.97H115.41Z" fill="#EBEBEC"/>
<path d="M115.46 223.97L115.5 248.11H115.45L115.41 223.97H115.46Z" fill="#E9E9EA"/>
<path d="M115.51 223.97L115.56 248.11H115.5L115.46 223.97H115.51Z" fill="#E8E7E9"/>
<path d="M115.56 223.97L115.61 248.11H115.56L115.51 223.97H115.56Z" fill="#E6E5E7"/>
<path d="M115.61 223.97L115.66 248.11H115.61L115.56 223.97H115.61Z" fill="#E4E3E5"/>
<path d="M115.66 223.97L115.71 248.11H115.66L115.61 223.97H115.66Z" fill="#E2E2E4"/>
<path d="M115.72 223.97L115.76 248.11H115.71L115.66 223.97H115.72Z" fill="#E1E0E2"/>
<path d="M115.77 223.97L115.82 248.11H115.76L115.72 223.97H115.77Z" fill="#DFDEE1"/>
<path d="M115.82 223.97L115.87 248.11H115.82L115.77 223.97H115.82Z" fill="#DDDDDF"/>
<path d="M115.87 223.97L115.92 248.11H115.87L115.82 223.97H115.87Z" fill="#DCDBDE"/>
<path d="M115.92 223.97L115.97 248.11H115.92L115.87 223.97H115.92Z" fill="#DAD9DC"/>
<path d="M115.98 223.97L116.02 248.11H115.97L115.92 223.97H115.98Z" fill="#D9D8DB"/>
<path d="M116.03 223.97L116.08 248.11H116.02L115.98 223.97H116.03Z" fill="#D7D6D9"/>
<path d="M116.08 223.97L116.13 248.11H116.08L116.03 223.97H116.08Z" fill="#D6D5D8"/>
<path d="M116.13 223.97L116.18 248.11H116.13L116.08 223.97H116.13Z" fill="#D4D3D6"/>
<path d="M116.18 223.97L116.23 248.11H116.18L116.13 223.97H116.18Z" fill="#D3D2D5"/>
<path d="M116.24 223.97L116.28 248.11H116.23L116.18 223.97H116.24Z" fill="#D1D0D4"/>
<path d="M116.29 223.97L116.33 248.11H116.28L116.24 223.97H116.29Z" fill="#D0CFD2"/>
<path d="M116.34 223.97L116.39 248.11H116.33L116.29 223.97H116.34Z" fill="#CECED1"/>
<path d="M116.39 223.97L116.44 248.11H116.39L116.34 223.97H116.39Z" fill="#CDCCD0"/>
<path d="M116.44 223.97L116.49 248.11H116.44L116.39 223.97H116.44Z" fill="#CCCBCF"/>
<path d="M116.5 223.97L116.54 248.11H116.49L116.44 223.97H116.5Z" fill="#CACACD"/>
<path d="M116.55 223.97L116.59 248.11H116.54L116.5 223.97H116.55Z" fill="#C9C8CC"/>
<path d="M116.6 223.97L116.65 248.11H116.59L116.55 223.97H116.6Z" fill="#C8C7CB"/>
<path d="M116.65 223.97L116.7 248.11H116.65L116.6 223.97H116.65Z" fill="#C7C6CA"/>
<path d="M116.7 223.97L116.75 248.11H116.7L116.65 223.97H116.7Z" fill="#C5C5C9"/>
<path d="M116.75 223.97L116.8 248.11H116.75L116.7 223.97H116.75Z" fill="#C4C3C8"/>
<path d="M116.81 223.97L116.85 248.11H116.8L116.75 223.97H116.81Z" fill="#C3C2C7"/>
<path d="M116.86 223.97L116.91 248.11H116.85L116.81 223.97H116.86Z" fill="#C2C1C5"/>
<path d="M116.91 223.97L116.96 248.11H116.91L116.86 223.97H116.91Z" fill="#C1C0C4"/>
<path d="M116.96 223.97L117.01 248.11H116.96L116.91 223.97H116.96Z" fill="#C0BFC3"/>
<path d="M117.01 223.97L117.06 248.11H117.01L116.96 223.97H117.01Z" fill="#BEBEC2"/>
<path d="M117.07 223.97L117.11 248.11H117.06L117.01 223.97H117.07Z" fill="#BDBDC1"/>
<path d="M117.12 223.97L117.17 248.11H117.11L117.07 223.97H117.12Z" fill="#BCBCC0"/>
<path d="M117.17 223.97L117.22 248.11H117.17L117.12 223.97H117.17Z" fill="#BBBBBF"/>
<path d="M117.22 223.97L117.27 248.11H117.22L117.17 223.97H117.22Z" fill="#BABABF"/>
<path d="M117.27 223.97L117.32 248.11H117.27L117.22 223.97H117.27Z" fill="#B9B9BE"/>
<path d="M117.33 223.97L117.37 248.11H117.32L117.27 223.97H117.33Z" fill="#B8B8BD"/>
<path d="M117.38 223.97L117.42 248.11H117.37L117.33 223.97H117.38Z" fill="#B7B7BC"/>
<path d="M117.43 223.97L117.48 248.11H117.42L117.38 223.97H117.43Z" fill="#B6B6BB"/>
<path d="M117.48 223.97L117.53 248.11H117.48L117.43 223.97H117.48Z" fill="#B5B5BA"/>
<path d="M117.53 223.97L117.58 248.11H117.53L117.48 223.97H117.53Z" fill="#B4B4B9"/>
<path d="M117.58 223.97L117.63 248.11H117.58L117.53 223.97H117.58Z" fill="#B3B3B9"/>
<path d="M117.64 223.97L117.68 248.11H117.63L117.58 223.97H117.64Z" fill="#B2B2B8"/>
<path d="M117.69 223.97L117.74 248.11H117.68L117.64 223.97H117.69Z" fill="#B2B2B7"/>
<path d="M117.74 223.97L117.79 248.11H117.74L117.69 223.97H117.74Z" fill="#B1B1B6"/>
<path d="M117.79 223.97L117.84 248.11H117.79L117.74 223.97H117.79Z" fill="#B0B0B6"/>
<path d="M117.84 223.97L117.89 248.11H117.84L117.79 223.97H117.84Z" fill="#AFAFB5"/>
<path d="M117.9 223.97L117.94 248.11H117.89L117.84 223.97H117.9Z" fill="#AEAFB4"/>
<path d="M117.95 223.97L118 248.11H117.94L117.9 223.97H117.95Z" fill="#ADAEB4"/>
<path d="M118 223.97L118.05 248.11H118L117.95 223.97H118Z" fill="#ADADB3"/>
<path d="M118.05 223.97L118.1 248.11H118.05L118 223.97H118.05Z" fill="#ACADB2"/>
<path d="M118.1 223.97L118.15 248.11H118.1L118.05 223.97H118.1Z" fill="#ABACB2"/>
<path d="M118.16 223.97L118.2 248.11H118.15L118.1 223.97H118.16Z" fill="#ABABB1"/>
<path d="M118.21 223.97L118.26 248.11H118.2L118.16 223.97H118.21Z" fill="#AAABB1"/>
<path d="M118.26 223.97L118.31 248.11H118.26L118.21 223.97H118.26Z" fill="#A9AAB0"/>
<path d="M118.31 223.97L118.36 248.11H118.31L118.26 223.97H118.31Z" fill="#A9A9AF"/>
<path d="M118.36 223.97L118.41 248.11H118.36L118.31 223.97H118.36Z" fill="#A8A9AF"/>
<path d="M118.42 223.97L118.46 248.11H118.41L118.36 223.97H118.42Z" fill="#A7A8AE"/>
<path d="M118.47 223.97L118.51 248.11H118.46L118.42 223.97H118.47Z" fill="#A7A8AE"/>
<path d="M118.52 223.97L118.57 248.11H118.51L118.47 223.97H118.52Z" fill="#A6A7AD"/>
<path d="M118.57 223.97L118.62 248.11H118.57L118.52 223.97H118.57Z" fill="#A6A7AD"/>
<path d="M118.62 223.97L118.67 248.11H118.62L118.57 223.97H118.62Z" fill="#A5A6AD"/>
<path d="M118.67 223.97L118.72 248.11H118.67L118.62 223.97H118.67Z" fill="#A4A6AC"/>
<path d="M118.73 223.97L118.77 248.11H118.72L118.67 223.97H118.73Z" fill="#A4A5AC"/>
<path d="M118.78 223.97L118.83 248.11H118.77L118.73 223.97H118.78Z" fill="#A3A5AB"/>
<path d="M118.83 223.97L118.88 248.11H118.83L118.78 223.97H118.83Z" fill="#A3A4AB"/>
<path d="M118.88 223.97L118.93 248.11H118.88L118.83 223.97H118.88Z" fill="#A3A4AA"/>
<path d="M118.93 223.97L118.98 248.11H118.93L118.88 223.97H118.93Z" fill="#A2A3AA"/>
<path d="M118.99 223.97L119.03 248.11H118.98L118.93 223.97H118.99Z" fill="#A2A3AA"/>
<path d="M119.04 223.97L119.09 248.11H119.03L118.99 223.97H119.04Z" fill="#A1A3A9"/>
<path d="M119.09 223.97L119.14 248.11H119.09L119.04 223.97H119.09Z" fill="#A1A2A9"/>
<path d="M119.14 223.97L119.19 248.11H119.14L119.09 223.97H119.14Z" fill="#A0A2A9"/>
<path d="M119.19 223.97L119.24 248.11H119.19L119.14 223.97H119.19Z" fill="#A0A2A8"/>
<path d="M119.25 223.97L119.29 248.11H119.24L119.19 223.97H119.25Z" fill="#A0A1A8"/>
<path d="M119.3 223.97L119.34 248.11H119.29L119.25 223.97H119.3Z" fill="#9FA1A8"/>
<path d="M119.35 223.97L119.4 248.11H119.34L119.3 223.97H119.35Z" fill="#9FA1A8"/>
<path d="M119.4 223.97L119.45 248.11H119.4L119.35 223.97H119.4Z" fill="#9FA0A7"/>
<path d="M119.45 223.97L119.5 248.11H119.45L119.4 223.97H119.45Z" fill="#9EA0A7"/>
<path d="M119.51 223.97L119.55 248.11H119.5L119.45 223.97H119.51Z" fill="#9EA0A7"/>
<path d="M119.56 223.97L119.6 248.11H119.55L119.51 223.97H119.56Z" fill="#9EA0A7"/>
<path d="M119.61 223.97L119.66 248.11H119.6L119.56 223.97H119.61Z" fill="#9E9FA7"/>
<path d="M119.66 223.97L119.71 248.11H119.66L119.61 223.97H119.66Z" fill="#9D9FA6"/>
<path d="M119.71 223.97L119.76 248.11H119.71L119.66 223.97H119.71Z" fill="#9D9FA6"/>
<path d="M119.76 223.97L119.81 248.11H119.76L119.71 223.97H119.76Z" fill="#9D9FA6"/>
<path d="M119.82 223.97L119.86 248.11H119.81L119.76 223.97H119.82Z" fill="#9D9FA6"/>
<path d="M119.87 223.97L119.92 248.11H119.86L119.82 223.97H119.87Z" fill="#9D9FA6"/>
<path d="M119.92 223.97L119.97 248.11H119.92L119.87 223.97H119.92Z" fill="#9C9EA6"/>
<path d="M119.97 223.97L120.02 248.11H119.97L119.92 223.97H119.97Z" fill="#9C9EA5"/>
<path d="M120.02 223.97L120.07 248.11H120.02L119.97 223.97H120.02Z" fill="#9C9EA5"/>
<path d="M120.08 223.97L120.12 248.11H120.07L120.02 223.97H120.08Z" fill="#9C9EA5"/>
<path d="M120.13 223.97L120.18 248.11H120.12L120.08 223.97H120.13Z" fill="#9C9EA5"/>
<path d="M120.18 223.97L120.23 248.11H120.18L120.13 223.97H120.18Z" fill="#9C9EA5"/>
<path d="M120.23 223.97L120.28 248.11H120.23L120.18 223.97H120.23Z" fill="#9C9EA5"/>
<path d="M120.28 223.97L120.33 248.11H120.28L120.23 223.97H120.28Z" fill="#9C9EA5"/>
<path d="M120.34 223.97L120.38 248.11H120.33L120.28 223.97H120.34Z" fill="#9C9EA5"/>
<path d="M120.39 223.97L120.43 248.11H120.38L120.34 223.97H120.39Z" fill="#9B9EA5"/>
<path d="M120.44 223.97L120.49 248.11H120.43L120.39 223.97H120.44Z" fill="#9B9EA5"/>
<path d="M120.49 223.97L120.54 248.11H120.49L120.44 223.97H120.49Z" fill="#9B9DA5"/>
<path d="M120.54 223.97L120.59 248.11H120.54L120.49 223.97H120.54Z" fill="#9B9DA5"/>
<path d="M120.59 223.97L120.64 248.11H120.59L120.54 223.97H120.59Z" fill="#9B9DA5"/>
<path d="M120.65 223.97L120.69 248.11H120.64L120.59 223.97H120.65Z" fill="#9B9DA5"/>
<path d="M120.7 223.97L120.75 248.11H120.69L120.65 223.97H120.7Z" fill="#9B9DA5"/>
<path d="M120.75 223.97L120.8 248.11H120.75L120.7 223.97H120.75Z" fill="#9B9DA5"/>
<path d="M120.86 223.97L120.91 248.11H120.8L120.75 223.97H120.86Z" fill="#9B9DA5"/>
<path d="M120.97 223.97L121.02 248.11H120.91L120.86 223.97H120.97Z" fill="#9B9DA4"/>
<path d="M121.08 223.97L121.13 248.11H121.02L120.97 223.97H121.08Z" fill="#9B9DA3"/>
<path d="M121.19 223.97L121.24 248.11H121.13L121.08 223.97H121.19Z" fill="#9B9CA2"/>
<path d="M121.3 223.97L121.34 248.11H121.24L121.19 223.97H121.3Z" fill="#9B9CA1"/>
<path d="M121.41 223.97L121.45 248.11H121.34L121.3 223.97H121.41Z" fill="#9B9BA0"/>
<path d="M121.52 223.97L121.56 248.11H121.45L121.41 223.97H121.52Z" fill="#9B9B9F"/>
<path d="M121.62 223.97L121.67 248.11H121.56L121.52 223.97H121.62Z" fill="#9A9A9E"/>
<path d="M121.73 223.97L121.78 248.11H121.67L121.62 223.97H121.73Z" fill="#9A9A9D"/>
<path d="M121.84 223.97L121.89 248.11H121.78L121.73 223.97H121.84Z" fill="#9A999D"/>
<path d="M121.95 223.97L122 248.11H121.89L121.84 223.97H121.95Z" fill="#9A999C"/>
<path d="M122.06 223.97L122.11 248.11H122L121.95 223.97H122.06Z" fill="#9A999B"/>
<path d="M122.17 223.97L122.22 248.11H122.11L122.06 223.97H122.17Z" fill="#9A989A"/>
<path d="M122.28 223.97L122.33 248.11H122.22L122.17 223.97H122.28Z" fill="#9A9899"/>
<path d="M122.39 223.97L122.44 248.11H122.33L122.28 223.97H122.39Z" fill="#999798"/>
<path d="M122.5 223.97L122.55 248.11H122.44L122.39 223.97H122.5Z" fill="#999797"/>
<path d="M122.61 223.97L122.66 248.11H122.55L122.5 223.97H122.61Z" fill="#999696"/>
<path d="M122.72 223.97L122.76 248.11H122.66L122.61 223.97H122.72Z" fill="#999695"/>
<path d="M122.83 223.97L122.87 248.11H122.76L122.72 223.97H122.83Z" fill="#999695"/>
<path d="M122.94 223.97L122.98 248.11H122.87L122.83 223.97H122.94Z" fill="#999594"/>
<path d="M123.04 223.97L123.09 248.11H122.98L122.94 223.97H123.04Z" fill="#999593"/>
<path d="M123.15 223.97L123.2 248.11H123.09L123.04 223.97H123.15Z" fill="#989492"/>
<path d="M123.26 223.97L123.31 248.11H123.2L123.15 223.97H123.26Z" fill="#989491"/>
<path d="M123.37 223.97L123.42 248.11H123.31L123.26 223.97H123.37Z" fill="#989490"/>
<path d="M123.48 223.97L123.53 248.11H123.42L123.37 223.97H123.48Z" fill="#98938F"/>
<path d="M123.59 223.97L123.64 248.11H123.53L123.48 223.97H123.59Z" fill="#98938E"/>
<path d="M123.7 223.97L123.75 248.11H123.64L123.59 223.97H123.7Z" fill="#98928E"/>
<path d="M123.81 223.97L123.86 248.11H123.75L123.7 223.97H123.81Z" fill="#98928D"/>
<path d="M123.92 223.97L123.97 248.11H123.86L123.81 223.97H123.92Z" fill="#97918C"/>
<path d="M124.03 223.97L124.08 248.11H123.97L123.92 223.97H124.03Z" fill="#97918B"/>
<path d="M124.14 223.97L124.18 248.11H124.08L124.03 223.97H124.14Z" fill="#97918A"/>
<path d="M124.25 223.97L124.29 248.11H124.18L124.14 223.97H124.25Z" fill="#979089"/>
<path d="M124.36 223.97L124.4 248.11H124.29L124.25 223.97H124.36Z" fill="#979088"/>
<path d="M124.47 223.97L124.51 248.11H124.4L124.36 223.97H124.47Z" fill="#978F88"/>
<path d="M124.57 223.97L124.62 248.11H124.51L124.47 223.97H124.57Z" fill="#978F87"/>
<path d="M124.68 223.97L124.73 248.11H124.62L124.57 223.97H124.68Z" fill="#978F86"/>
<path d="M124.79 223.97L124.84 248.11H124.73L124.68 223.97H124.79Z" fill="#968E85"/>
<path d="M124.9 223.97L124.95 248.11H124.84L124.79 223.97H124.9Z" fill="#968E84"/>
<path d="M125.01 223.97L125.06 248.11H124.95L124.9 223.97H125.01Z" fill="#968D84"/>
<path d="M125.12 223.97L125.17 248.11H125.06L125.01 223.97H125.12Z" fill="#968D83"/>
<path d="M125.23 223.97L125.28 248.11H125.17L125.12 223.97H125.23Z" fill="#968D82"/>
<path d="M125.34 223.97L125.39 248.11H125.28L125.23 223.97H125.34Z" fill="#968C81"/>
<path d="M125.45 223.97L125.5 248.11H125.39L125.34 223.97H125.45Z" fill="#968C80"/>
<path d="M125.56 223.97L125.61 248.11H125.5L125.45 223.97H125.56Z" fill="#968B80"/>
<path d="M125.67 223.97L125.71 248.11H125.61L125.56 223.97H125.67Z" fill="#958B7F"/>
<path d="M125.78 223.97L125.82 248.11H125.71L125.67 223.97H125.78Z" fill="#958B7E"/>
<path d="M125.89 223.97L125.93 248.11H125.82L125.78 223.97H125.89Z" fill="#958A7D"/>
<path d="M125.99 223.97L126.04 248.11H125.93L125.89 223.97H125.99Z" fill="#958A7D"/>
<path d="M126.1 223.97L126.15 248.11H126.04L125.99 223.97H126.1Z" fill="#958A7C"/>
<path d="M126.21 223.97L126.26 248.11H126.15L126.1 223.97H126.21Z" fill="#95897B"/>
<path d="M126.32 223.97L126.37 248.11H126.26L126.21 223.97H126.32Z" fill="#95897A"/>
<path d="M126.43 223.97L126.48 248.11H126.37L126.32 223.97H126.43Z" fill="#958879"/>
<path d="M126.54 223.97L126.59 248.11H126.48L126.43 223.97H126.54Z" fill="#948879"/>
<path d="M126.65 223.97L126.7 248.11H126.59L126.54 223.97H126.65Z" fill="#948878"/>
<path d="M126.76 223.97L126.81 248.11H126.7L126.65 223.97H126.76Z" fill="#948777"/>
<path d="M126.87 223.97L126.92 248.11H126.81L126.76 223.97H126.87Z" fill="#948776"/>
<path d="M126.98 223.97L127.03 248.11H126.92L126.87 223.97H126.98Z" fill="#948776"/>
<path d="M127.09 223.97L127.13 248.11H127.03L126.98 223.97H127.09Z" fill="#948675"/>
<path d="M127.2 223.97L127.24 248.11H127.13L127.09 223.97H127.2Z" fill="#948674"/>
<path d="M127.31 223.97L127.35 248.11H127.24L127.2 223.97H127.31Z" fill="#948673"/>
<path d="M127.42 223.97L127.46 248.11H127.35L127.31 223.97H127.42Z" fill="#938573"/>
<path d="M127.52 223.97L127.57 248.11H127.46L127.42 223.97H127.52Z" fill="#938572"/>
<path d="M127.63 223.97L127.68 248.11H127.57L127.52 223.97H127.63Z" fill="#938471"/>
<path d="M127.74 223.97L127.79 248.11H127.68L127.63 223.97H127.74Z" fill="#938471"/>
<path d="M127.85 223.97L127.9 248.11H127.79L127.74 223.97H127.85Z" fill="#938470"/>
<path d="M127.96 223.97L128.01 248.11H127.9L127.85 223.97H127.96Z" fill="#93836F"/>
<path d="M128.07 223.97L128.12 248.11H128.01L127.96 223.97H128.07Z" fill="#93836F"/>
<path d="M128.18 223.97L128.23 248.11H128.12L128.07 223.97H128.18Z" fill="#93836E"/>
<path d="M128.29 223.97L128.34 248.11H128.23L128.18 223.97H128.29Z" fill="#93826D"/>
<path d="M128.4 223.97L128.45 248.11H128.34L128.29 223.97H128.4Z" fill="#93826D"/>
<path d="M128.51 223.97L128.55 248.11H128.45L128.4 223.97H128.51Z" fill="#92826C"/>
<path d="M128.62 223.97L128.66 248.11H128.55L128.51 223.97H128.62Z" fill="#92816C"/>
<path d="M128.73 223.97L128.77 248.11H128.66L128.62 223.97H128.73Z" fill="#92816B"/>
<path d="M128.84 223.97L128.88 248.11H128.77L128.73 223.97H128.84Z" fill="#92816A"/>
<path d="M128.94 223.97L128.99 248.11H128.88L128.84 223.97H128.94Z" fill="#92816A"/>
<path d="M129.05 223.97L129.1 248.11H128.99L128.94 223.97H129.05Z" fill="#928069"/>
<path d="M129.16 223.97L129.21 248.11H129.1L129.05 223.97H129.16Z" fill="#928069"/>
<path d="M129.27 223.97L129.32 248.11H129.21L129.16 223.97H129.27Z" fill="#928068"/>
<path d="M129.38 223.97L129.43 248.11H129.32L129.27 223.97H129.38Z" fill="#928068"/>
<path d="M129.43 248.11L129.38 223.97H130.5V248.11H129.43Z" fill="#928068"/>
</g>
<path d="M104.12 239.96H109.29V240.65C109.29 241.98 109.45 242.91 109.77 243.45C110.08 243.99 110.61 244.26 111.35 244.26C111.94 244.26 112.41 244.05 112.76 243.64C113.1 243.23 113.27 242.67 113.27 241.96C113.27 240.79 112.43 239.67 110.74 238.6C110.47 238.41 110.26 238.27 110.11 238.18C110.06 238.15 109.97 238.09 109.84 238.01C107.57 236.49 106.16 235.35 105.61 234.57C105.21 233.99 104.91 233.33 104.7 232.6C104.49 231.87 104.38 231.07 104.38 230.21C104.38 228.1 104.98 226.45 106.2 225.24C107.42 224.04 109.1 223.43 111.24 223.43C113.57 223.43 115.35 224.01 116.57 225.19C117.8 226.37 118.42 228.07 118.42 230.31C118.42 230.4 118.42 230.53 118.41 230.7C118.4 230.87 118.39 231 118.4 231.09H113.34V230.8C113.34 229.75 113.17 228.95 112.84 228.41C112.51 227.87 112.03 227.6 111.41 227.6C110.88 227.6 110.45 227.79 110.13 228.17C109.81 228.55 109.65 229.06 109.65 229.68C109.65 230.7 110.57 231.79 112.41 232.93C112.74 233.15 113 233.32 113.18 233.43C113.33 233.51 113.53 233.64 113.79 233.82C115.77 235.07 117.03 236.12 117.59 236.98C117.94 237.53 118.2 238.16 118.38 238.87C118.56 239.57 118.66 240.34 118.66 241.16C118.66 243.57 118.04 245.43 116.79 246.74C115.54 248.05 113.75 248.7 111.42 248.71C108.98 248.71 107.14 248.09 105.91 246.85C104.68 245.61 104.06 243.75 104.06 241.29C104.06 241.13 104.06 240.97 104.06 240.8C104.06 240.63 104.08 240.35 104.11 239.98L104.12 239.96Z" fill="#A6956E"/>
<path d="M182.34 230.28C182.93 230.41 183.49 230.63 184 230.94V230.97L184.08 231L184.33 231.14L184.44 231.21L184.58 231.28L184.68 231.31L184.75 231.38L184.82 231.41L184.86 231.44L185.04 231.58L185.18 231.68L185.32 231.82L185.5 231.92L185.61 231.99L185.72 232.09L185.76 232.16L185.83 232.26L185.87 232.36H185.9L185.87 232.43L185.8 232.47L185.7 232.54L185.6 232.58L185.57 232.62L185.4 232.66H185.26H185.12H185.02H184.95L184.57 232.7H184.47H184.37L184.27 232.74H184.13L183.89 232.85L183.51 232.96L183.27 233.03L183.03 233.21L182.82 233.35L182.65 233.46L182.58 233.5L182.51 233.57L182.48 233.64L182.34 233.89L182.2 234.1L182.1 234.38L181.96 234.7L181.82 235.02L181.61 235.34L181.47 235.59L181.37 235.77H181.58L181.86 235.8H182.07L182.28 235.76H182.56H182.84H183.05L183.26 235.69L183.47 235.62L183.64 235.58L183.78 235.54L183.85 235.57L184.03 235.67L184.21 235.88L184.35 236.05L184.53 236.29L184.67 236.39L184.85 236.56L184.96 236.7L185.03 236.77L185.21 236.91L185.32 237.05L185.39 237.19V237.26L185.29 237.47L185.26 237.57H185.16L184.92 237.54L184.43 237.4L184.05 237.33L183.67 237.26L183.22 237.23L182.7 237.27L181.72 237.34L181.09 237.59L180.43 237.84L179.8 238.09L179.31 238.27L178.89 238.45L178.72 238.52L178.65 239.32L178.62 239.73L177.78 239.67V238.76L177.15 238.94L176.59 239.22L176.07 239.5L175.69 239.71L175.2 239.96L174.78 240.17L174.43 240.38L173.98 240.59L173.67 240.73H173.46L173.11 240.7L172.76 240.67L172.41 240.57L172.16 240.43L172.02 240.29L171.84 240.15L171.8 240.05L171.73 239.95V239.81L171.76 239.77L171.79 239.73L171.96 239.59L172.27 239.45L172.62 239.27L173.11 239.09L173.49 238.91L173.8 238.73L174.18 238.55L174.49 238.41L175.01 238.02L175.29 237.81L175.36 237.64V237.4L175.18 237.09L174.79 236.64L174.65 236.54L174.34 236.47L173.96 236.72L173.37 236.97L172.78 236.8L172.64 236.35L172.92 236.07L173.27 235.75V235.71C173.41 235.69 173.53 235.61 173.62 235.49L173.67 235.51L173.69 235.47L173.76 235.33L173.79 235.23L173.75 235.06L173.68 234.89L173.64 234.82L173.57 234.72L173.43 234.44L173.39 234.27L173.35 234.06V233.89L173.42 233.75L173.66 233.54L173.8 233.47H173.94L174.08 233.5L174.26 233.6L174.37 233.7L174.48 234.01L174.55 234.22L174.73 234.43L174.84 234.53L174.98 234.56H175.08H175.15L175.29 234.49L175.36 234.42L176.44 233.75H176.47L176.57 233.78L176.61 233.85V233.95V234.54L176.58 234.71L175.81 235.27L175.71 235.41L175.61 235.62V235.79L175.65 236L175.72 236.17L176.28 236.97L176.39 237.11L176.46 237.18L176.56 237.21H176.63L176.84 237.24L176.91 237.2L177.08 237.09L177.18 237.05L177.32 236.94L177.53 236.76L177.56 236.59L177.59 236.42L177.55 236.25L177.58 236.01L177.61 235.17V235V234.86V234.48V234.2V233.78V233.47L177.5 233.19V233.05L177.43 232.84L177.36 232.74L177.22 232.64L177.01 232.61H176.87L176.59 232.58L176.35 232.65H176.24C175.86 232.73 175.46 232.65 175.14 232.43L174.99 232.33L174.81 232.23L174.6 232.02L174.49 231.92L174.38 231.78L174.31 231.61L174.27 231.4V231.26V231.16V231.06L174.34 231.02L174.55 230.91L174.76 230.84L174.97 230.73L175.14 230.66L175.21 230.62L175.31 230.58L175.38 230.51L175.45 230.47L175.48 230.4V230.3L175.51 230.2L175.44 229.89L175.37 229.68L175.3 229.51L175.16 229.16L175.09 228.95L175.02 228.74L174.91 228.57L174.8 228.43L174.62 228.22L174.41 228.08L174.16 227.8L173.91 227.56L173.77 227.32L173.59 226.97L173.45 226.69L173.41 226.55V226.45L173.55 226.38H173.72L173.89 226.34H174.03L174.13 226.3L174.23 226.26L174.33 226.15V225.98V225.7V225L174.29 224.51L174.25 224.2V223.89L174.28 223.72L174.35 223.58L174.42 223.51L174.49 223.47L174.63 223.5L174.8 223.53H174.94L175.08 223.56H175.25L175.36 223.63L175.47 223.73L175.61 223.8L175.71 223.83L175.85 223.9L176.02 223.93L176.19 223.96L176.29 223.99L176.4 224.06L176.51 224.13L176.62 224.2L176.69 224.27L176.76 224.34L176.87 224.41L176.94 224.44L177.08 224.47L177.18 224.5L177.28 224.53L177.35 224.56L177.46 224.63L177.57 224.7L177.64 224.77L177.71 224.87L177.78 224.94L177.85 224.97L177.92 225.04L177.99 225.07H178.13L178.34 225L178.44 224.96L178.58 224.92L178.68 224.88L178.85 224.81L178.95 224.74L179.05 224.67L179.15 224.56L179.25 224.49L179.35 224.38L179.42 224.31L179.45 224.24L179.52 224.17L179.59 224.1L179.62 223.96L179.69 223.85L179.72 223.68L179.79 223.54L179.89 223.19L179.96 222.98L180.03 222.81L180.06 222.71L180.13 222.6H180.23H180.26L180.37 222.67L180.51 222.7L180.62 222.77L180.69 222.84L180.73 222.87L180.77 222.9L180.81 222.97L180.91 223L180.98 223.03L181.09 223.1L181.19 223.13L181.3 223.2L181.37 223.23L181.51 223.33L181.62 223.4L181.69 223.47L181.97 223.78L182.08 223.92L182.19 224.02L182.26 224.09L182.4 224.26L182.54 224.4L182.58 224.5L182.69 224.71L182.73 224.85L182.77 224.95V225.05L182.84 225.33L183.05 225.5L183.22 225.57L183.46 225.6H183.67L183.81 225.63H183.88H183.91V225.66L183.98 225.73V225.87L183.91 226.04V226.28L183.88 226.32V226.35L183.85 226.39H183.82L183.72 226.46L183.58 226.53L183.34 226.57L183.1 226.61L182.93 226.65H182.76H182.55L182.34 226.69L182.17 226.73L181.93 226.84L181.76 226.95L181.55 227.09L181.41 227.23L181.24 227.37L181.07 227.48L180.79 227.62L180.65 227.69L180.51 227.76L180.44 227.8L180.37 227.84L180.27 227.91L180.1 228.05L179.96 228.33L180.03 228.68L180.17 228.82L180.24 228.89L180.38 228.99L180.49 229.06L180.7 229.13H180.73L180.8 229.2L180.87 229.27L180.94 229.37L181.05 229.61L181.12 229.71V229.92L181.19 230.09V230.12L181.16 230.29V230.43L181.13 230.47L181.03 230.58L181 230.65L180.9 230.76L180.76 230.87L180.59 230.94L180.35 231.08L179.97 231.26L179.62 231.44L179.41 231.55L179.13 231.69L178.89 231.83L178.68 231.94L178.51 232.01L178.55 233.16V233.44V233.58L178.59 233.65L178.66 233.68L178.9 233.54L179.18 233.36L179.46 233.22L179.84 232.97L180.08 232.86L180.39 232.65L180.63 232.51L180.91 232.3L181.08 232.16L181.29 232.05L181.53 231.91L181.67 231.77L181.81 231.59L182.05 231.31L182.15 231.06L182.18 230.78L182.25 230.57L182.32 230.36L182.42 230.15L182.34 230.28ZM180.87 233.38V233.31V233.24L180.66 233.31L180.52 233.38L180.31 233.45L180.14 233.56L180 233.67L179.83 233.78L179.66 233.96L179.52 234.1L179.31 234.21L179.14 234.35L178.97 234.49L178.62 234.7L178.55 234.77L178.59 234.87V235.11L178.56 235.39V235.74L178.53 236.09H178.67L178.88 235.95L179.05 235.81L179.15 235.7L179.32 235.56L179.49 235.45L179.63 235.31L179.77 235.2L179.87 235.02L179.94 234.91L180.04 234.73L180.14 234.59L180.21 234.42L180.31 234.24L180.38 234.1L180.41 233.96L180.51 233.82L180.58 233.68L180.72 233.54L180.79 233.47L180.86 233.36L180.87 233.38ZM179.46 225.83L179.39 225.59L179.11 225.42L178.9 225.6L178.76 225.71L178.62 225.89L178.45 226.03L178.28 226.17L178 226.28L177.86 226.32L177.62 226.36L177.41 226.57L177.38 226.81V226.98L177.35 227.15L177.28 227.67L177.21 227.84L177.18 228.01L177.04 228.26L177.18 228.47L177.25 228.54L177.29 228.57V228.67L177.54 229.12L177.78 228.7L177.95 228.45L178.09 228.24L178.26 227.92L178.4 227.71L178.54 227.5L178.68 227.29L178.78 227.11L178.88 226.97L179.05 226.69L179.22 226.37L179.32 226.09L179.46 225.81V225.83Z" fill="white"/>
<path d="M183.4 241.349V241.459L183.33 241.669L183.23 241.769L183.05 241.909L182.63 242.049L181.52 242.329L181.1 242.399L179.91 242.619L179.35 242.719L178.93 242.789L178.54 242.899L178.55 243.739L178.51 244.329V244.959L178.52 246.079L178.48 246.889V247.549L178.45 247.969L178.38 248.489L178.31 248.769L178.28 248.809L178.17 248.879L178.07 248.739L177.89 248.599L177.72 248.219L177.58 247.869L177.5 247.549L177.47 247.379V247.059V245.939L177.5 245.309V244.719L177.53 244.399L177.5 244.089L177.43 243.809L177.29 243.569L177.04 243.389L176.73 243.459L176.48 243.569L176.24 243.639L175.96 243.739H175.75H175.54H175.29L175.05 243.709L174.91 243.679L174.77 243.609L174.63 243.539L174.56 243.469L174.45 243.329L174.38 243.119L174.35 242.869L174.38 242.659L174.49 242.379L174.59 242.169L174.84 242.069L175.33 241.789L175.74 241.579L176.13 241.399L176.62 241.189L177.11 240.979L177.53 240.769L177.56 240.069L177.59 239.649L178.44 239.709L178.43 239.749L178.4 240.209V240.559L178.65 240.519L178.85 240.449L179.31 240.269L179.52 240.169L179.76 240.059L180.08 239.959L180.43 239.819L181.02 239.639L181.16 239.569H181.27L181.48 239.609L181.65 239.639L181.83 239.709L182 239.779L182.28 239.949L182.46 240.089L182.7 240.269L182.88 240.439L183.12 240.759L183.26 240.929L183.33 241.179L183.4 241.349Z" fill="white"/>
<path d="M172.68 230.81L172.72 231.02L172.68 231.23L172.65 231.47L172.58 231.61L172.4 231.86L172.3 232.07L172.12 232.28L171.95 232.46L171.74 232.7L171.57 232.84L171.43 232.98L171.29 233.12L171.15 233.26L171.04 233.44L170.94 233.61L170.83 233.75L170.76 233.89L170.55 234.31L170.49 234.66L170.38 235.08V235.26L170.35 235.43V235.57L170.73 235.92L171.12 236.16L172.03 236.76L172.2 237.25L172.07 238.09L171.47 238.61L171.23 238.47L170.18 236.94L170.04 238.02L169.9 239.24L169.83 239.84L169.8 240.33L169.83 240.85V241.34L169.91 242.22V242.85V243.41L169.98 244.07L170.02 244.56L169.98 245.05L169.91 245.64L169.84 245.85L169.74 245.89L169.53 245.78L169.32 245.3L169.14 244.67L168.97 244.07L168.82 243.09L168.75 242.36L168.72 241.52L168.71 240.75V240.12V239.6L168.26 240.09L167.94 240.47L167.63 240.82L167.35 241.14L166.79 241.66L166.41 241.84L165.78 241.63L165.5 241.42L165.29 240.97L165.18 240.48L165.15 240.16L165.32 239.78L165.77 239.22L166.37 238.52L166.51 238.2L166.75 237.71L166.92 237.43L167.31 236.94L167.48 236.63L167.59 236.35L167.66 236L167.58 235.61L167.34 235.26L166.78 234.95L166.39 234.74L166.01 234.5L165.69 234.25L165.38 234.04L164.96 233.76L164.82 233.55L164.75 233.38L164.71 233.27L164.75 233.13L164.82 232.96L165.41 232.54L166 232.22L166.49 231.84L167.09 231.31L167.4 231.03L167.72 230.82L168.03 230.61L168.17 230.5L168.41 230.36L168.66 230.12L168.8 229.8L168.83 229.59L168.8 229.35V229.07L168.76 228.65L168.72 228.34L168.69 227.81L168.62 227.39L168.58 227.01L168.55 226.83L168.51 226.62L168.48 226.48L168.44 226.34L168.41 226.17L168.37 226.06L168.33 225.78L168.26 224.94L168.23 224.77V224.63L168.26 224.52L168.33 224.45L168.4 224.38L168.47 224.35H168.65H168.82L169.45 224.49L169.91 224.66L170.01 224.73L170.26 224.84L171.03 225.36L171.17 225.5L171.45 225.71L171.62 226.13V226.44L171.45 226.86L171.17 227.32L171.03 227.46L170.93 227.56L170.86 227.67L170.72 227.84L170.61 227.98L170.54 228.05L170.4 228.33L170.3 228.47L170.16 228.86V229.03V229.17L170.23 229.31L170.34 229.38L170.48 229.42L170.68 229.38L170.72 229.35L171.1 229.1L171.31 228.99H171.49H171.63L171.77 229.06L171.87 229.24L171.98 229.41L172.12 229.62L172.29 229.94L172.43 230.18L172.54 230.39L172.61 230.6L172.68 230.81Z" fill="white"/>
<path d="M215.95 244.56L215.74 244.49L215.43 244.39L214.87 244.29L214.07 244.19L212.81 244.12L210.43 244.02L208.3 243.95L207.36 243.85L206.59 243.75L205.93 243.65L205.34 243.55L204.85 243.52L204.95 242.89L204.98 242.44L205.01 241.74L205.15 241.18V240.52L205.39 240.45L205.88 240.38L206.33 240.27L206.92 240.16L207.62 240.09L208.46 239.98L209.54 239.91L210.24 239.84L210.59 239.73L210.73 239.45V239.17L210.66 238.89L210.45 238.65L210.13 238.48L209.78 238.34L209.43 238.2L209.05 238.06L208.63 237.96L208.17 237.72L207.89 237.51L207.61 237.37L207.54 237.27L207.71 237.13L207.95 237.06L208.26 236.92L208.47 236.74L208.64 236.6L208.71 236.36L208.74 236.08L208.7 235.87L208.52 235.7L208.34 235.49L208.16 235.32L207.98 235.22L207.67 235.15H207.32H206.94L206.49 235.29L206.28 235.4L205.97 235.47L205.66 235.58H205.38L205.34 235.34L205.44 235.27L205.72 235.16L205.93 235.09L206.24 234.88L206.66 234.63L207.04 234.38L207.46 234.2L207.74 234.06L207.91 233.92L208.05 233.67V233.43V233.22L207.94 233.01L207.8 232.94V232.7L207.94 232.38L208.08 231.96L208.32 231.43L208.46 231.05L208.6 230.7L208.74 230.66L209.23 230.59L209.72 230.55L210.21 230.58H210.56L210.91 230.51L211.19 230.37L211.43 230.23L211.67 229.91L211.63 229.49L211.52 229.25L211.34 229.01L211.16 228.87L210.95 228.77L210.7 228.67L210.35 228.64H209.97L209.87 228.61V228.26L209.8 227.95L209.66 227.64L209.41 227.29L209.16 227.05L208.77 226.7L208.49 226.46L208.1 226.29L207.82 226.19L207.44 226.09H206.95L206.53 226.06L206.11 226.13L205.76 226.2V226.1V225.68L205.79 225.05L205.89 224.7L205.85 224.39L205.78 224.08L205.6 223.77L205.35 223.46L205.17 223.25L204.96 223.04L204.64 222.83L204.32 222.66L203.94 222.63L203.49 222.6L203.07 222.71L202.65 222.89L202.34 223L202.13 223.21L202.17 223.42L202.28 223.63L202.49 223.84L202.74 224.05L203.06 224.22L203.38 224.46L203.52 224.6L203.63 225.02L203.67 225.26V225.78V226.27L203.64 226.97L203.54 227.11L203.12 227.29L202.74 227.43L202.32 227.54L201.8 227.72L201.31 227.9L200.72 228.04L200.2 228.25L200.1 228.5L200.14 228.71L200.21 228.95L200.42 229.05L201.05 229.15L201.43 229.22H201.95L202.58 229.18L203 229.11L203.49 229.04H203.66L203.7 229.32V229.74V229.98L203.63 230.19L203.21 230.33L202.9 230.47L202.38 230.61L201.86 230.75L201.3 230.93L200.88 231L200.57 231.11L200.15 231.22L199.7 231.33L199.21 231.47L198.72 231.58L198.37 231.69L198.16 231.87L198.13 232.08V232.32L198.17 232.56L198.28 232.77L198.49 232.94L198.81 233.11L199.26 233.21L199.64 233.28L200.16 233.24L200.54 233.13L200.96 232.99L201.31 232.85L201.8 232.71L202.22 232.53L202.6 232.39L202.88 232.28L203.26 232.14L203.71 232.03V232.31L203.68 232.87L203.65 233.25L203.41 233.39L203.03 233.57L202.61 233.71L202.23 233.89L201.74 234L201.43 234.14L201.08 234.28H200.63H200.14L200.25 234.59L200.36 234.8L200.47 235.08L200.65 235.39L200.79 235.63L201 235.84L201.35 236.01H201.66H202.29L202.88 235.9L203.33 235.79L203.68 235.72L203.72 236.03L203.51 236.1L203.27 236.21L202.99 236.35L202.68 236.46L202.33 236.6L201.95 236.78L201.64 236.89L201.26 237L200.95 237.11L200.67 237.08L200.25 237.05V237.33L200.32 237.61L200.46 237.85L200.53 238.06L200.71 238.23L200.96 238.54L201.21 238.71L201.46 238.88L201.91 238.91L202.33 238.84L202.82 238.73L203.27 238.66L203.69 238.55V238.86L203.52 238.93L203.35 239.04L203.07 239.22L202.83 239.29L202.52 239.4L202.21 239.51L201.69 239.62L201.24 239.69L200.65 239.8L200.02 239.91L199.64 239.95V240.02L199.71 240.37L199.78 240.58L199.85 240.79L199.96 241L200.07 241.21L200.21 241.35L200.35 241.52L200.46 241.62L200.64 241.72L200.89 241.82H201.24L201.52 241.68L201.69 241.61L201.97 241.5L202.28 241.43L202.56 241.29L202.87 241.22L203.25 241.11L203.56 240.97L203.8 240.9V241.07V241.63L203.84 242.43L203.91 242.92V243.3L203.46 243.23L203.11 243.16L202.62 243.06L202.2 242.96L201.82 242.86L201.47 242.76L201.05 242.69L200.7 242.59L199.97 242.38L199.31 242.21L198.65 242L197.85 241.83L197.57 241.76L197.64 241.34L197.78 240.99L197.85 240.5L197.95 239.91L198.02 239.21L198.05 238.76V238.45L198.08 238.07L198.04 237.86L198 237.55L197.79 237.1L197.61 236.86L197.33 236.55L197.05 236.31L196.73 236.07L196.45 235.9L196.13 235.76L195.81 235.62L195.46 235.48L195.08 235.38L194.91 235.31L194.94 235.1L195.15 234.75L195.32 234.4L195.49 234.08L195.77 233.62L195.98 233.16L196.26 232.74L196.47 232.28L196.89 231.89L197.2 231.57L197.48 231.25L197.69 231L197.76 230.72V230.44L197.65 230.16L197.51 229.81L197.37 229.5L197.19 229.26L197.01 229.02L196.8 228.78L196.62 228.61L196.41 228.47L196.16 228.33L195.91 228.23L195.63 228.09L195.42 228.06L195.35 228.17L195.21 228.35L195.04 228.6L194.8 228.81L194.66 229.02L194.35 229.23L194.04 229.51L193.69 229.76L193.38 230.01L192.89 230.4L192.54 230.58L192.3 230.79H192.16L192.12 230.69V230.52L192.01 230.42L191.87 230.39L191.7 230.43L191.56 230.64L191.49 230.92V231.09L191.63 231.37L191.77 231.68L191.98 232.03L192.23 232.38L192.55 232.69L192.87 232.83L193.19 232.97L193.68 233.07L193.85 233.14L193.78 233.42L193.61 233.67L193.44 234.09L193.23 234.44L193.09 234.93L192.95 235.38L192.92 236.01V236.57L192.99 236.99L193.06 237.23L193.24 237.65L193.35 237.89L193.49 238.06L193.63 238.23L193.91 238.16L194.26 238.12L194.43 238.05L194.85 237.98L195.16 237.94H195.51L195.55 238.32L195.59 238.46L195.63 239.37V240.07V240.56V241.47H195.42L195 241.44L194.58 241.34H194.02L193.64 241.38L193.26 241.49L192.81 241.53L192.39 241.6L192.04 241.67H191.8L191.62 241.5L191.44 241.29L191.23 241.05L191.02 241.02L190.85 241.16L190.68 241.37L190.58 241.58V241.86L190.72 242.17L190.79 242.48L190.86 242.72L190.97 242.93L191.15 243.38L191.26 243.66H191.54L191.96 243.55L192.31 243.44L192.76 243.3L193.14 243.12L193.59 243.01H194.25L194.77 243.04L195.08 243.11V243.32L194.8 243.78L194.56 244.1L194.25 244.45L193.97 244.73L193.66 245.05L193.24 245.4L192.75 245.75L192.33 246.07L191.95 246.32L191.6 246.53L191.22 246.71L190.8 246.92L190.98 247.13L191.26 247.27L192.1 247.48H192.76L193.25 247.41L193.74 247.27L194.26 247.06L194.71 246.81L195.06 246.6L195.48 246.18L195.79 245.83L196.07 245.44L196.28 245.09L196.42 244.74L196.59 244.35L196.8 243.86L196.97 243.44H197.39L197.7 243.51L198.08 243.65L198.67 243.82L199.26 244.03L199.72 244.27L200.28 244.48L201.01 244.69L201.6 244.93L202.23 245.14L202.93 245.38L203.84 245.66L204.43 245.87L204.85 246.04L205.41 246.32L206.18 246.7L206.64 246.91L207.24 247.19L207.73 247.36L208.36 247.57L209.3 247.78L209.96 247.81L210.52 247.7L210.94 247.63L211.39 247.52L211.88 247.34L212.33 247.2L212.75 246.99L213.1 246.85L213.55 246.57L213.97 246.29L214.39 246.08L214.63 245.97L214.98 245.86L215.36 245.68L215.67 245.47L215.84 245.26L215.98 245.01L216.05 244.87L215.98 244.7L215.95 244.56ZM205.67 228.29L205.91 228.18L206.36 228.07H206.71L206.99 228.14L207.1 228.35L207.17 228.7L207.1 229.15L206.82 229.29L206.3 229.4L205.95 229.51L205.71 229.55H205.64L205.67 228.29ZM205.57 231.4L205.95 231.29L206.16 231.22H206.33L206.47 231.18H206.54L206.47 231.46L206.37 231.81L206.34 231.91L206.27 232.12L206.2 232.26L205.99 232.51L205.78 232.62L205.5 232.69L205.57 231.4ZM205.58 238.22L205.93 238.01L206.24 237.9L206.41 237.76L206.69 237.62L206.86 237.51L207.03 237.4L207.13 237.33L207.27 237.47L207.34 237.68L207.45 237.82L207.52 237.96L207.63 238.1L207.67 238.24L207.64 238.31H207.36H207.12L206.56 238.42L205.9 238.53L205.69 238.57L205.45 238.61L205.31 238.58V238.48V238.41L205.59 238.23L205.58 238.22Z" fill="white"/>
<path d="M243.98 246L243.7 245.83L243.38 245.62L242.96 245.34L242.26 244.99L241.8 244.78L241.28 244.57L240.69 244.36L240.31 244.19L239.86 244.05L239.34 243.84L238.89 243.67L238.19 243.43L237.66 243.15L237.1 242.84L236.64 242.6L236.22 242.36V242.15L236.39 241.8L236.46 241.49L236.67 240.9L236.77 240.48L236.87 239.99L237.08 239.33L237.25 238.98L237.39 238.53L237.74 237.93L237.98 237.65L238.05 237.37L237.94 236.99L237.76 236.68L237.48 236.23L237.06 235.74L237.3 235.53L237.65 235.21L238.07 234.86L238.35 234.61L238.66 234.36L239.04 233.97L239.46 233.51L239.74 233.23L240.02 232.84L239.98 232.6L239.87 232.32L239.69 232.01L239.48 231.77L239.2 231.49L238.81 231.14L238.36 230.97L237.8 230.94L237.35 230.87L237.04 230.8L237 230.52L237.14 230.2L237.28 229.85L237.38 229.5L237.55 228.77L237.62 228.39L237.72 228.01V227.59L237.65 227.07L237.47 226.37L237.36 226.02L237.15 225.57L237.04 225.29L236.86 225.01L236.72 224.91L236.37 224.88L235.95 224.99L235.57 225.13L235.26 225.24L234.84 225.49L234.49 225.7L234.32 225.84L234.15 226.02L233.98 226.34L233.7 226.76L233.42 227.15L233.18 227.64L233.01 228.03L232.8 228.42L232.73 228.7L232.87 228.66L233.15 228.45L233.43 228.24L233.81 227.92L234.16 227.67L234.54 227.39L234.89 227.11L235.2 226.9L235.41 226.69L235.58 226.58L235.65 226.61L235.76 226.82L235.87 227.13V227.37L235.77 227.65L235.7 228.03L235.63 228.38L235.49 228.97L235.42 229.39L235.32 229.91L235.11 230.3L234.9 230.72L234.66 231.04V231.32L234.73 231.63L234.91 232.08L235.12 232.57L235.33 232.92L235.58 233.27L235.72 233.55L235.96 233.62L236.24 233.48L236.69 233.37L237.04 233.3L237.35 233.19L237.52 233.22L237.35 233.43L237.04 233.82L236.73 234.03L236.14 234.52L235.79 234.84L235.3 235.23L234.88 235.48L234.57 235.73L234.15 236.08L233.84 236.26L233.53 236.44L233.15 236.58L232.77 236.69L232.28 236.8L232 236.87L231.96 236.66L232.1 236.41L232.17 235.99L232.27 234.91L232.34 234.07L232.44 233.69L232.54 233.38L232.64 232.75L232.81 232.26L232.95 231.94L233.12 231.62L233.22 231.24L233.29 230.86L233.32 230.51V230.09L233.21 229.74L233.07 229.5L232.79 229.33L232.51 229.16L232.19 228.95L231.94 228.78L231.59 228.57L231.27 228.36L230.89 228.26L230.93 228.36V228.64V228.95L231.04 229.33L231.11 229.75V230.17V230.83L231.08 231.7L231.05 232.19V232.75L230.91 233.31L230.84 233.62L230.77 233.97L230.67 234.28L230.43 234.56L230.26 234.91V235.22V235.53L230.37 235.84L230.51 236.19L230.69 236.57L230.87 236.78L231.08 237.13L230.98 237.17L230.67 237.24L230.46 237.35L230.29 237.53V237.67L230.47 237.88L230.68 238.12L230.89 238.33L231.14 238.47L231.46 238.64L231.88 238.78L232.37 238.81L232.79 238.67L233.24 238.56L233.8 238.42L234.36 238.21L234.85 238.1L235.2 238.03L235.27 238.2L235.24 238.65L235.14 239L235 239.52L234.83 239.94L234.73 240.29L234.56 240.61L234.46 240.89L234.25 240.96L234 240.79L233.72 240.62L233.47 240.45L233.19 240.24L232.91 240L232.66 239.79L232.38 239.58H232.29L231.82 239.51L231.33 239.48L230.95 239.45L230.6 239.42L230.29 239.39L229.94 239.43L229.63 239.5L229.32 239.61L229.04 239.72L228.83 239.83L228.59 240.04L228.31 240.29L228.2 240.12L228.02 239.95L227.63 239.74L227.28 239.6L226.93 239.53L226.48 239.5L225.89 239.57L225.19 239.75L224.77 239.89L224.32 240.07L223.69 240.35L223.17 240.63L222.79 240.95L222.44 241.2L222.27 241.38L222.2 241.42L221.95 241.25L221.7 241.04L221.35 240.87L220.97 240.91L221.01 241.05L221.08 241.47L221.19 241.82L221.3 242.34L221.34 242.72L221.45 243.14L221.56 243.56L221.67 244.01L221.71 244.39L221.85 244.7L221.92 245.05L222.03 245.4L222.28 245.82L222.39 246.06L222.6 246.34L222.81 246.55L223.06 246.72L223.45 246.89L223.52 246.61L223.55 246.33L223.58 246.05H223.86L224.52 245.98L225.04 245.91L225.39 245.84L225.84 245.77L226.22 245.66L226.74 245.48L227.12 245.34L227.43 245.16L227.6 245.12L227.77 245.19L227.95 245.29L228.13 245.43L228.45 245.64L228.7 245.74L229.02 245.91L229.44 246.01L230.17 246.11L230.83 246.18L231.63 246.11L232.15 246L232.67 245.82L233.05 245.61L233.47 245.36L233.89 245.11L234.38 244.72L234.59 244.51L234.9 244.19L235.14 243.91L235.39 244.01L235.53 244.15L235.78 244.32L236.17 244.6L236.24 244.77L236.52 244.98L236.84 245.22L237.33 245.67L237.54 245.84L237.86 246.12L238.11 246.4L238.43 246.64L238.71 246.78L239.2 246.88L239.69 246.95L240.21 247.02H240.8L241.15 246.95H241.71L242.41 246.91L242.76 247.01L243.14 247.04L243.45 246.97L243.66 246.79L243.87 246.54L244.04 246.22V246.01L243.98 246ZM225.99 242.09L225.78 242.61L225.54 243.24L225.33 243.73L225.16 244.01L224.64 244.22L224.08 244.4L223.77 244.51L223.59 244.34V243.96L223.45 243.61L223.38 243.26L223.27 242.84L223.2 242.6L223.16 242.39L223.44 242.04L223.89 241.72L224.31 241.44L224.59 241.3L224.83 241.16L225.04 241.02L225.21 240.88L225.52 240.81L225.87 240.77L226.08 240.8L226.12 241.08L226.16 241.53L225.99 242.09ZM233.3 242.77L232.88 243.16L232.43 243.58L231.91 244L231.28 244.39L230.72 244.6L230.09 244.71L229.43 244.78L228.56 244.75L228.31 244.65L227.79 244.55L227.47 244.34L227.36 244.13L227.29 243.92L227.53 243.64L227.81 243.22L228.09 242.8L228.37 242.45L228.58 242.03V241.65L228.61 241.27L228.57 240.85V240.57L229.13 240.53L230 240.6L230.38 240.63L230.73 240.73L231.04 240.76L231.6 240.93L231.88 241.03L232.06 241.24L232.52 241.45L232.84 241.69L233.16 242L233.48 242.35L233.31 242.77H233.3Z" fill="white"/>
<path d="M227.23 227.71L227.33 228.27L227.3 228.62L226.91 228.9L226.18 229.08L225.55 229.32L224.61 229.57L223.77 229.85L222.61 230.06L223.14 229.36L223.66 228.56L223.9 228.07L223.83 227.86L223.55 227.47L223.27 227.06L223.13 226.95L222.82 226.5L222.64 226.11L222.61 225.76L223.48 225.8L224.18 225.93L224.91 226.11L225.65 226.35L226.42 226.66L226.91 226.98L227.08 227.26L227.23 227.71Z" fill="white"/>
<path d="M223.51 239.47L223.47 239.4L223.05 239.44L222.56 239.51H222.25L221.86 239.37L221.69 239.09L221.55 238.84L221.34 238.46L221.23 238.08V237.9H221.58L221.93 237.83L222.38 237.69L222.7 237.62L222.98 237.51L223.15 237.34L223.4 237.16L223.68 236.92L223.96 236.67L224.13 236.5L224.37 236.29L224.83 236.43L224.62 236.64L225.32 236.42L225.88 236.18L226.37 236L226.79 236.04L227.24 236.18L227.56 236.49L227.77 236.8L227.7 237.22L227.52 237.57L226.9 237.96L225.99 238.42L225.25 238.77L224.52 239.22L223.96 239.54L223.4 239.82L222.88 240L223.26 239.72L223.51 239.47Z" fill="white"/>
<path d="M222.66 234.44L223.18 234.26L223.67 233.98L224.16 233.8L224.65 233.63L225.21 233.38L225.59 233.24L226.05 233.03L226.47 232.89H226.68L227.06 232.96L227.38 233.17L227.62 233.38L227.87 233.73L227.83 234.08L227.66 234.43L227.27 234.71L226.82 235.06L226.23 235.48L225.63 235.86L225.25 236.18L224.83 236.43L224.37 236.29L224.58 236.15L224.69 236.04L224.76 235.87L224.65 235.8L224.2 235.87L223.67 236.01L223.39 236.08L223.18 236.01L222.76 235.8L222.59 235.52L222.41 235.28L222.27 234.96L222.13 234.65L222.06 234.44L222.03 234.33H222.31L222.66 234.44Z" fill="white"/>
<path d="M218.81 232.97L218.28 232.56L218.04 232.21L219.3 232.13L220.34 231.75L221.29 231.4L222.44 230.97L223.63 230.45L224.68 230.17L225.48 229.88L226.39 229.57L227.3 229.32L228.1 229.14L228.84 229.18L229.26 229.42L229.5 229.77L229.71 230.09L229.68 230.51L229.08 230.89L228 231.38L226.92 231.77L225.73 232.26L224.75 232.65L223.63 233.04L222.59 233.42L221.61 233.77L221.05 233.91L220.52 233.95L219.89 233.81L219.37 233.5L218.81 232.97Z" fill="white"/>
<path d="M146.44 235.93L146.25 234.98L145.77 234.21L145.11 233.73L144.04 233.59L143.27 233.88L142.43 234.21L142.58 233.95L143.09 233.07L143.6 232.26L144.15 231.45L144.74 230.68L145.44 230.09L146.17 229.35L146.43 228.87L146.36 228.58L145.77 227.74L145.18 227.08L144.33 226.68L143.71 226.9L143.6 227.01L142.79 227.53L142.31 227.68L141.39 228.05L140.55 228.46L139.78 228.39L138.9 228.17V228.46L139.34 228.9L139.97 229.63L140.6 230.47L140.78 230.62L141.59 231.17L141.52 231.57L141.23 232.31L140.72 233.3L139.95 234.48L139.77 234.85L139.29 235.77L138.41 237.46L138.23 237.76L137.72 238.57L137.17 239.42L136.62 240.23L136.03 241.04L135.55 240.78L135.81 241.77L136.29 242.58L136.55 242.51L137.03 242.18L137.65 241.52L138.38 240.56L139.26 239.27L139.3 239.42L139.74 240.85L140.04 241.77L140.22 242.17L141.07 242.5L141.77 242.06V241.36L141.88 241.32L142.91 241.02L143.54 240.84L144.49 240.65H144.75L145.26 240.1L145.11 239.25V239.14L145.15 238.96L145.55 238.11L145.99 237.23L146.5 236.31L146.46 235.94L146.44 235.93ZM143.39 236.97L143.06 237.89L142.73 238.85L142.29 239.04L141.45 239.41L141.34 239.04L141.08 238.12L140.71 237.13L141.15 236.43H141.22L142.14 236.28L143.17 236.09L143.61 236.42L143.39 236.97Z" fill="white"/>
<path d="M158.6 244.99L158.16 244.15L157.68 243.82L157.27 243.42L156.53 242.91L155.87 242.54L155.98 242.47L156.24 242.21L156.5 241.77L156.72 241.26L156.9 240.6L157.08 239.83L157.23 238.95L157.34 237.92L157.45 236.78L157.52 235.53L157.55 234.17L157.58 232.66L157.61 231.04L157.54 230.71L157.24 229.83L156.69 229.13L155.88 228.54L155.59 228.58L154.56 228.73L153.6 228.88L152.72 229.07L153.12 228.44L153.27 228.33L154.12 227.89L154.96 227.45L155.84 226.97L156.72 226.49L157.6 226.01L157.82 225.09L157.75 224.98L157.09 224.39L156.1 224.06L155.47 224.17L154.66 224.36L153.78 224.58L152.86 224.8L151.87 225.06L150.88 225.36L149.81 225.69L148.67 226.02L148.12 225.87L147.83 226.02V226.09L148.24 227.08L148.83 227.78L149.53 228.15L150.23 228.07L151.22 227.92L151.07 228.18L150.56 229.03L150.12 229.91L149.31 230.24L149.05 231.05L148.83 231.93L148.65 232.85L148.47 233.81L148.32 234.77L148.21 235.76L148.14 236.79L148.07 237.86L148.04 238.93L148.33 239.7L148.77 240.54L147.89 240.87L146.93 241.13L146.19 240.91L145.9 241.54L145.97 241.65L146.63 242.27L147.51 242.71H147.62L148.47 242.6L149.43 242.41L150.46 242.04L150.24 242.59L149.47 243.62L148.85 244.47L148.15 245.21L147.45 245.8L146.68 246.28L147.49 246.57L147.93 246.53L148.89 246.27L149.66 245.79L149.88 245.6L150.76 244.68L151.46 243.91L151.97 243.25L152.34 242.7L152.71 242.18L153.3 241.3L153.7 240.64L153.81 240.82L154.4 241.66L154.99 242.36L154.62 242.25H154.47L153.63 242.55L153.26 242.48L153.78 243.1L154.37 243.94L154.48 244.05L155.07 244.89L155.51 245.4L156.32 246.13L157.02 246.86L157.5 247.26H157.54L158.46 246.93L158.79 245.97L158.6 244.98V244.99ZM155.55 231.02L155.48 231.98L155.41 232.94L155.34 233.9L155.31 234.86L155.28 235.85L155.24 236.88L155.21 237.87V238.9V239.97L154.73 239.9L153.77 239.76L153.73 239.69L153.03 239.07L152.15 238.85L152.04 238.96L151.42 239.44L150.54 239.88L149.36 240.29L149.4 239.85V239.62L149.44 238.9L149.47 237.8L149.54 237.87L150.31 238.38H150.46L151.42 238.27L151.2 238.46L150.32 239.05L149.77 239.64L150.54 239.27L150.65 239.23L151.5 238.71L152.31 238.19L153.16 237.67L154 237.12H154.07L154.22 236.42L153.89 236.05L153.01 235.61L152.57 235.76L151.72 236.09L150.77 236.46L149.7 236.87H149.55V236.43V236.21V235.25V234.22L149.81 234.59L150.55 235.07L151.32 234.85L151.17 235L150.51 235.77L150.47 235.81L149.81 236.44H149.85L150.77 236L151.47 235.52L152.28 234.93L153.05 234.34L153.86 233.71L154.37 233.34L154.59 232.68L154.22 232.28L153.3 231.84L152.68 232.14L151.87 232.51L150.92 232.99L149.93 233.47L149.6 233.36V232.55L150.41 232.07L151.37 231.52L152.32 231.04L153.2 230.71L154.08 230.41L154.89 230.22L155.66 230.14L155.59 231.06L155.55 231.02Z" fill="white"/>
<path fill-rule="evenodd" clip-rule="evenodd" d="M288.41 237.7V245.19L288.06 245.89H295.18L294.83 245.2V224.76L295.18 224.06H272.49L272.84 224.76V245.19L272.49 245.89H279.61L279.26 245.2V237.71C279.26 235.31 281.12 233.1 283.87 233.1C286.46 233.1 288.41 235.22 288.41 237.71V237.7Z" fill="white"/>
<path d="M304.06 226.82H306.95L308.14 225.56L309.66 226.64C309.83 226.79 309.92 226.94 309.92 227.07C309.92 227.31 309.79 227.42 309.57 227.42H307.96V244.95C307.96 245.17 307.87 245.32 307.7 245.43C307.42 245.5 307.14 245.54 306.85 245.54C306.46 245.54 306.26 245.43 306.26 245.21L306.35 241.74V239.98C305.33 240.48 304.22 240.96 303.03 241.39L302.83 242.13C302.79 242.33 302.7 242.41 302.53 242.41C302.36 242.41 302.23 242.3 302.18 242.04L301.42 240.04C301.88 240 302.33 239.93 302.76 239.84V227.45C302.37 227.49 302.02 227.52 301.68 227.56L301.25 226.54C302.18 226.71 303.12 226.8 304.05 226.8L304.06 226.82ZM306.35 230.9V227.43H304.31V230.9H306.35ZM306.35 235.13V231.49H304.31V235.13H306.35ZM306.35 239.32V235.72H304.31V239.65C305 239.56 305.68 239.45 306.35 239.32ZM312.95 226.58C313.17 226.67 313.3 226.78 313.3 226.91C313.3 227.13 312.97 227.28 312.37 227.34C311.83 228.1 311.13 228.97 310.29 229.94C310.38 230.03 310.49 230.11 310.57 230.16C310.96 230.51 311.18 230.83 311.18 231.14C311.18 231.77 310.9 232.07 310.33 232.07C310.18 232.07 310.05 231.94 309.94 231.66C309.55 230.88 309.03 230.1 308.38 229.27L308.81 229.03C309.18 229.25 309.5 229.44 309.76 229.59C310.02 228.94 310.22 228.42 310.39 228.01C310.67 227.25 310.91 226.51 311.08 225.8L312.95 226.58ZM314.42 229.49C314.62 229.58 314.72 229.66 314.72 229.79C314.72 230.01 314.44 230.16 313.87 230.2C313.13 231.18 312.2 232.28 311.07 233.52C311.2 233.52 311.33 233.52 311.46 233.5C312.18 233.46 312.78 233.39 313.28 233.35C313.15 233.05 313 232.72 312.85 232.42L313.28 232.16C313.8 232.59 314.23 233.03 314.58 233.42C314.88 233.83 315.06 234.18 315.06 234.46C315.06 235.09 314.8 235.39 314.3 235.39C314.04 235.39 313.87 235.19 313.78 234.78C313.69 234.52 313.63 234.24 313.54 233.98C313.11 234.15 312.59 234.35 311.98 234.57C311.07 234.92 310.4 235.13 309.96 235.22L309.7 235.83C309.61 236 309.5 236.07 309.37 236.07C309.2 236.07 309.09 235.94 309.07 235.66L308.53 233.71C309.09 233.69 309.68 233.64 310.27 233.6C310.75 232.78 311.14 232.12 311.42 231.63C311.92 230.65 312.33 229.7 312.68 228.79L314.42 229.51V229.49ZM310.63 236.65C310.93 236.69 311.09 236.82 311.09 237C311.09 237.11 311 237.2 310.87 237.26L310.59 237.41V240.21H312.54C312.58 239.78 312.63 239.3 312.63 238.78V238.35C312.63 237.94 312.56 237.07 312.46 235.73L314.39 236.01C314.78 236.05 315 236.21 315 236.42C315 236.62 314.74 236.81 314.24 237.01V238.79C314.24 239.7 314.13 240.5 313.96 241.24C313.79 241.91 313.55 242.5 313.2 242.98C312.83 243.5 312.35 243.93 311.77 244.32C311.16 244.73 310.27 245.12 309.15 245.49L309 244.97C309.74 244.64 310.32 244.3 310.71 243.91C311.19 243.52 311.58 243.06 311.88 242.54C312.12 242.13 312.31 241.59 312.44 240.91C312.44 240.87 312.46 240.84 312.46 240.82H310.59V241.67C310.59 241.89 310.46 242.06 310.24 242.19C310 242.3 309.78 242.34 309.57 242.34C309.24 242.34 309.07 242.21 309.07 241.91L309.14 239.89V238.52C309.14 237.31 309.07 236.61 308.99 236.42L310.64 236.66L310.63 236.65ZM319.39 226.67C319.61 226.76 319.74 226.87 319.74 227C319.74 227.22 319.41 227.37 318.81 227.43C318.25 228.19 317.55 229.08 316.68 230.1C316.79 230.19 316.9 230.27 317.01 230.34C317.4 230.64 317.62 230.95 317.62 231.23C317.62 231.86 317.34 232.16 316.77 232.16C316.62 232.16 316.49 232.03 316.36 231.77C315.97 231.03 315.47 230.3 314.82 229.54L315.25 229.28C315.6 229.48 315.9 229.65 316.16 229.78C316.44 229.09 316.66 228.54 316.83 228.11C317.09 227.35 317.33 226.61 317.52 225.9L319.39 226.68V226.67ZM321.11 229.49C321.33 229.58 321.44 229.66 321.44 229.79C321.44 230.01 321.16 230.16 320.59 230.2C319.85 231.07 318.94 232.07 317.86 233.19C317.95 233.19 318.01 233.17 318.08 233.17C318.82 233.1 319.42 233.04 319.95 232.97C319.82 232.71 319.71 232.47 319.58 232.23L319.99 231.97C320.55 232.43 321.03 232.86 321.42 233.29C321.77 233.7 321.94 234.05 321.94 234.35C321.94 235.04 321.66 235.37 321.09 235.37C320.81 235.37 320.63 235.15 320.55 234.72C320.46 234.33 320.33 233.96 320.18 233.57C319.75 233.76 319.23 233.98 318.62 234.2C317.8 234.55 317.17 234.76 316.78 234.85L316.52 235.46C316.43 235.63 316.32 235.7 316.19 235.7C316.02 235.7 315.91 235.57 315.89 235.29L315.35 233.34C315.91 233.32 316.46 233.27 317 233.23C317.48 232.49 317.87 231.88 318.13 231.43C318.65 230.52 319.06 229.63 319.41 228.76L321.12 229.48L321.11 229.49ZM317.35 236.19C317.7 236.23 317.87 236.36 317.87 236.56C317.87 236.71 317.78 236.82 317.61 236.89L317.26 237.09V240.21H319.36L319.38 239.8V238.87C319.38 237.57 319.31 236.79 319.21 236.57L320.95 236.83C321.25 236.87 321.43 237 321.43 237.18C321.43 237.31 321.34 237.42 321.21 237.48L320.91 237.68V241.67C320.91 241.89 320.78 242.06 320.56 242.19C320.32 242.3 320.1 242.34 319.91 242.34C319.52 242.34 319.32 242.19 319.3 241.84L319.34 240.82H317.26V244.7C317.26 244.96 317.11 245.16 316.85 245.29C316.59 245.42 316.33 245.49 316.09 245.49C315.76 245.49 315.59 245.32 315.57 244.97L315.66 242.78V238.29C315.66 236.92 315.6 236.12 315.49 235.9L317.36 236.2L317.35 236.19Z" fill="white"/>
<path d="M327.45 227.43H329.49L330.68 226.15L332.2 227.26C332.37 227.39 332.46 227.54 332.46 227.67C332.46 227.91 332.33 228.02 332.11 228.02H328.9C328.49 229.86 328.1 231.34 327.71 232.42C327.58 232.83 327.43 233.22 327.3 233.57L327.8 233.85H329.41L330.34 232.92L331.6 233.9C331.82 234.05 331.95 234.18 331.95 234.29C331.95 234.44 331.86 234.55 331.73 234.62L331.19 234.88V241.5L331.28 243.37C331.28 243.52 331.17 243.65 331 243.76C330.83 243.89 330.61 243.96 330.35 243.96C329.83 243.96 329.59 243.81 329.59 243.55V242.44H327.81V243.87C327.81 244.17 327.66 244.37 327.35 244.5C327.13 244.59 326.87 244.63 326.61 244.63C326.28 244.63 326.11 244.46 326.11 244.13C326.11 243.7 326.13 242.98 326.2 241.92V235.87C326.16 235.98 326.11 236.07 326.07 236.11C325.55 237.02 325.03 237.76 324.51 238.37L324.25 237.96C324.53 237.48 324.84 236.79 325.16 235.88C325.57 234.66 325.94 233.34 326.24 231.95C326.5 230.78 326.76 229.48 326.98 228.07C326.35 228.09 325.72 228.13 325.09 228.22L324.66 227.2C325.59 227.37 326.53 227.46 327.46 227.46L327.45 227.43ZM329.57 241.83V234.45H327.79V241.83H329.57ZM337.66 242.33C337.86 242.46 337.96 242.61 337.96 242.76C337.96 242.96 337.61 243.06 336.94 243.09C335.9 243.68 334.84 244.17 333.75 244.59C333.08 244.83 332.06 245.13 330.67 245.48L330.41 245.05C331.67 244.44 332.69 243.9 333.47 243.42C334.4 242.77 335.27 242.08 336.09 241.32L337.65 242.34L337.66 242.33ZM335.5 226.74H341.44L342.7 225.31L344.39 226.52C344.56 226.69 344.65 226.85 344.65 227C344.65 227.24 344.54 227.35 344.32 227.35H339.18C338.7 228.39 338.12 229.41 337.44 230.39H341.08L342.1 229.37L343.36 230.41C343.58 230.56 343.71 230.69 343.71 230.82C343.71 230.97 343.62 231.08 343.49 231.15L342.95 231.41V239.05L343.04 240.92C343.04 241.09 342.93 241.25 342.76 241.38C342.59 241.53 342.37 241.6 342.11 241.6C341.55 241.6 341.26 241.47 341.26 241.17V240.67H335.16V241.02C335.16 241.28 335.03 241.45 334.79 241.54C334.53 241.71 334.27 241.78 333.97 241.78C333.58 241.78 333.38 241.58 333.38 241.17L333.47 239.07V230.94C333.47 230.2 333.41 229.7 333.3 229.49L335.17 230.42H336.73L337.32 227.38H335.5C334.72 227.38 333.92 227.45 333.14 227.53L332.71 226.53C333.64 226.7 334.58 226.77 335.51 226.77L335.5 226.74ZM341.27 233.53V230.99H335.17V233.53H341.27ZM341.27 236.65V234.11H335.17V236.65H341.27ZM341.27 240.06V237.26H335.17V240.06H341.27ZM343.48 242.83C344.37 243.29 344.82 243.78 344.82 244.37C344.82 244.96 344.49 245.3 343.89 245.3C343.72 245.3 343.5 245.15 343.24 244.89C342.24 243.94 340.92 242.98 339.31 241.98L339.57 241.57C341.2 241.94 342.5 242.35 343.47 242.83H343.48Z" fill="white"/>
<path d="M349.67 231.829V227.429C349.67 227.209 349.63 226.799 349.58 226.149L351.55 226.429C351.92 226.469 352.11 226.599 352.11 226.819C352.11 227.059 351.83 227.249 351.26 227.429V231.829H351.69L352.71 230.719L354.08 231.699C354.23 231.829 354.32 231.959 354.32 232.069C354.32 232.309 354.23 232.419 354.06 232.419H351.26V238.969C351.48 238.879 351.69 238.799 351.91 238.709C352.71 238.379 353.41 238.039 353.97 237.669L354.06 238.189C353.6 238.649 353.11 239.079 352.56 239.489C351.95 239.969 351.19 240.469 350.26 240.989C349.7 241.289 349.18 241.549 348.72 241.749L348.48 242.339C348.37 242.639 348.22 242.769 348.05 242.769C347.92 242.749 347.81 242.619 347.75 242.359L347.21 240.129C347.84 240.059 348.62 239.889 349.53 239.609C349.57 239.609 349.62 239.589 349.66 239.569V232.429C348.92 232.449 348.23 232.519 347.53 232.599L347.12 231.579C347.97 231.749 348.81 231.839 349.66 231.839L349.67 231.829ZM364.07 230.809L365.18 229.619L366.87 230.699C367.09 230.849 367.22 230.999 367.22 231.129C367.22 231.299 366.85 231.539 366.11 231.819C365.76 235.719 365.55 237.919 365.44 238.389C365.27 238.849 365.01 239.149 364.66 239.319C364.29 239.579 363.79 239.689 363.14 239.689C363.08 238.909 362.94 238.479 362.73 238.349L361.71 237.829L361.8 237.329L363.32 237.659C363.49 237.659 363.65 237.619 363.78 237.509C363.91 237.419 364 237.229 364.06 236.919C364.15 236.569 364.28 234.749 364.49 231.429L361.19 232.489V239.779C361.19 240.039 361.04 240.239 360.78 240.369C360.52 240.499 360.26 240.539 360.02 240.539C359.63 240.539 359.43 240.339 359.41 239.949L359.5 237.649V233.029L356.96 233.849V242.049C356.96 242.509 357.26 242.789 357.89 242.869C358.5 242.999 359.73 243.069 361.56 243.069C363.39 243.069 364.4 242.999 364.92 242.849C365.33 242.759 365.61 242.589 365.74 242.329L366.61 239.679H367.04V242.039C367.04 242.299 367.17 242.519 367.43 242.689C367.6 242.859 367.71 243.099 367.71 243.409C367.71 243.689 367.54 243.909 367.23 244.059C366.93 244.259 366.41 244.409 365.67 244.519C364.74 244.609 363.39 244.669 361.64 244.669C359.56 244.669 358.13 244.579 357.34 244.429C356.65 244.339 356.1 244.129 355.76 243.759C355.41 243.389 355.26 242.909 355.26 242.309V234.409L354.63 234.609L353.39 235.199L352.96 234.009L354.33 233.939L355.26 233.639V229.689C355.26 228.779 355.22 228.209 355.17 227.999L357.34 228.259C357.64 228.299 357.8 228.409 357.8 228.589C357.8 228.739 357.69 228.869 357.47 228.959L356.95 229.259V233.119L359.49 232.319V228.179C359.49 226.729 359.42 225.879 359.32 225.619L361.27 225.919C361.62 225.989 361.79 226.119 361.79 226.309C361.79 226.459 361.7 226.589 361.53 226.679L361.18 226.899V231.779L364.13 230.849L364.06 230.809H364.07Z" fill="white"/>
<path d="M373.49 234.959C373.49 237.629 373.19 239.799 372.58 241.469C372.06 242.989 371.3 244.289 370.35 245.399L370.02 245.049C370.5 244.139 370.91 243.049 371.23 241.729C371.6 240.209 371.79 237.959 371.79 234.959V233.939C371.79 233.289 371.75 232.749 371.7 232.329L373.35 233.349H386.95L388.32 231.829L390.06 233.109C390.23 233.279 390.34 233.439 390.34 233.609C390.34 233.829 390.19 233.939 389.93 233.939H373.49V234.959ZM381.87 225.649C382.26 225.719 382.48 225.849 382.48 226.059C382.48 226.319 382.2 226.559 381.63 226.729V227.579H386.38L387.64 226.149L389.31 227.389C389.48 227.539 389.59 227.689 389.59 227.849C389.59 228.089 389.48 228.199 389.26 228.199H384.68L385.92 228.829C386.16 228.939 386.29 229.089 386.29 229.289C386.29 229.509 385.94 229.619 385.27 229.639C384.79 229.939 384.29 230.199 383.82 230.439C384.3 230.609 384.73 230.789 385.08 230.939C385.77 231.239 386.12 231.629 386.12 232.089C386.12 232.609 385.84 232.869 385.27 232.869C385.14 232.869 384.81 232.739 384.34 232.439C383.71 232.049 382.95 231.639 382.08 231.229C381.13 231.619 380.11 231.949 379 232.209C377.98 232.489 376.46 232.769 374.42 233.029L374.25 232.529C375.46 232.289 376.33 232.099 376.85 231.969C377.85 231.709 378.74 231.429 379.52 231.079C379.91 230.929 380.28 230.749 380.63 230.579C379.07 229.949 377.66 229.469 376.38 229.149L376.71 228.799C378.62 229.099 380.31 229.429 381.79 229.819C381.83 229.839 381.9 229.859 381.94 229.859C382.11 229.749 382.29 229.639 382.46 229.529C383.11 229.099 383.67 228.639 384.15 228.209H374.43C373.63 228.209 372.85 228.279 372.07 228.359L371.64 227.359C372.57 227.529 373.51 227.599 374.44 227.599H379.95V226.669C379.95 226.469 379.91 226.059 379.86 225.409L381.88 225.669L381.87 225.649ZM378.29 235.259C378.53 235.349 378.66 235.499 378.66 235.719C378.66 235.919 378.38 236.069 377.81 236.149C377.53 236.669 377.27 237.099 377.05 237.489H380.69V235.709C380.69 235.509 380.65 235.099 380.6 234.449L382.62 234.709C383.01 234.779 383.23 234.909 383.23 235.119C383.23 235.379 382.95 235.619 382.38 235.789V237.479H385.94L387.13 236.139L388.74 237.309C388.91 237.459 389 237.609 389 237.739C389 237.979 388.87 238.089 388.65 238.089H382.38V240.629H385.53L386.7 239.259L388.3 240.429C388.47 240.579 388.56 240.729 388.56 240.889C388.56 241.109 388.45 241.219 388.23 241.219H382.37V244.189H387.12L388.4 242.759L390.07 243.969C390.24 244.119 390.33 244.269 390.33 244.449C390.33 244.669 390.22 244.779 390 244.779H375.92C375.14 244.779 374.34 244.819 373.56 244.949L373.13 243.929C374.06 244.099 375 244.189 375.93 244.189H380.68V241.219H378.64C377.86 241.219 377.06 241.289 376.28 241.389L375.85 240.369C376.78 240.539 377.72 240.629 378.65 240.629H380.69V238.089H376.68C376.42 238.479 376.18 238.809 375.96 239.109C375.5 239.669 374.85 240.349 373.99 241.129L373.58 240.889C374.27 239.849 374.79 238.889 375.16 238.029C375.59 237.079 375.98 235.929 376.37 234.619L378.28 235.249L378.29 235.259Z" fill="white"/>
</svg>
