<svg width="157" height="160" viewBox="0 0 157 160" fill="none" xmlns="http://www.w3.org/2000/svg">
<path d="M54.94 106.546C54.94 106.722 54.94 106.918 54.95 107.114C54.97 107.496 55.15 107.62 55.66 107.568V108.27C55.45 108.301 55.21 108.311 54.99 108.311C54.44 108.311 54.04 108.136 54.01 107.372C54 107.165 54 106.907 54 106.587V99.9912H54.94V106.556V106.546Z" fill="black"/>
<path d="M63.7 105.277C63.7 106.959 62.79 108.415 60.83 108.415C58.87 108.415 57.96 106.949 57.96 105.277C57.96 103.604 58.87 102.139 60.83 102.139C62.79 102.139 63.7 103.594 63.7 105.277ZM62.68 105.277C62.68 103.873 62 102.882 60.84 102.882C59.68 102.882 59 103.873 59 105.277C59 106.681 59.68 107.672 60.84 107.672C62 107.672 62.68 106.67 62.68 105.277Z" fill="black"/>
<path d="M71.22 104.296H70.2401C70.0301 103.336 69.53 102.881 68.76 102.881C67.85 102.881 67.09 103.614 67.09 105.225C67.09 106.959 67.83 107.681 68.69 107.681C69.45 107.681 69.99 107.227 70.18 106.36H71.16C70.88 107.743 69.92 108.425 68.63 108.425C67.17 108.425 66.05 107.475 66.05 105.297C66.05 103.284 67.3201 102.148 68.7701 102.148C70.22 102.148 71.04 103.005 71.21 104.306L71.22 104.296Z" fill="black"/>
<path d="M77.23 107.403L76.91 108.043C76.52 108.321 76.02 108.414 75.46 108.414C74.41 108.414 73.59 107.816 73.59 106.711C73.59 105.359 74.57 104.657 76.84 104.657H77.21V104.502C77.21 104.244 77.21 104.007 77.19 103.78C77.15 103.232 76.84 102.871 76.07 102.871C75.3 102.871 74.89 103.315 74.83 104.131H73.85C73.94 102.861 74.8 102.128 76.08 102.128C77.46 102.128 78.03 102.727 78.13 103.707C78.15 103.945 78.16 104.234 78.16 104.492V106.732C78.16 107.186 78.18 107.589 78.27 108.249H77.33L77.23 107.392V107.403ZM77.22 105.999V105.39C75.63 105.266 74.62 105.617 74.62 106.639C74.62 107.361 75.07 107.671 75.78 107.671C76.65 107.671 77.22 107.072 77.22 105.989V105.999Z" fill="black"/>
<path d="M82.63 106.515C82.63 106.722 82.63 106.815 82.64 106.98C82.68 107.558 82.91 107.682 83.64 107.589V108.301C83.37 108.343 83.11 108.353 82.84 108.353C82.12 108.353 81.75 108.054 81.69 107.31C81.68 107.155 81.68 106.908 81.68 106.567V103.088H80.9V102.345H81.68V100.962H82.62V102.345H83.7V103.088H82.62V106.526L82.63 106.515Z" fill="black"/>
<path d="M87.69 100.951C87.69 101.302 87.43 101.571 87.09 101.571C86.75 101.571 86.49 101.302 86.49 100.951C86.49 100.6 86.75 100.332 87.09 100.332C87.43 100.332 87.69 100.6 87.69 100.951ZM86.62 108.26V102.293H87.56V108.26H86.62Z" fill="black"/>
<path d="M96.1799 105.277C96.1799 106.959 95.2699 108.415 93.3099 108.415C91.3499 108.415 90.4399 106.949 90.4399 105.277C90.4399 103.604 91.3499 102.139 93.3099 102.139C95.2699 102.139 96.1799 103.594 96.1799 105.277ZM95.1599 105.277C95.1599 103.873 94.4799 102.882 93.3199 102.882C92.1599 102.882 91.4799 103.873 91.4799 105.277C91.4799 106.681 92.1599 107.672 93.3199 107.672C94.4799 107.672 95.1599 106.67 95.1599 105.277Z" fill="black"/>
<path d="M103.9 104.904V108.259H102.96V104.966C102.96 104.667 102.96 104.419 102.94 104.109C102.89 103.408 102.51 102.891 101.62 102.891C100.73 102.891 99.95 103.593 99.95 105.627V108.249H99.01V102.282H99.95V103.304L100.31 102.613C100.8 102.22 101.23 102.117 101.82 102.117C103.09 102.117 103.79 102.819 103.88 103.862C103.9 104.161 103.9 104.398 103.9 104.884V104.904Z" fill="black"/>
<path d="M78.96 51C72.18 51 66.67 56.6877 66.67 63.6864C66.67 72.4813 78.97 87.5006 78.97 87.5006C78.97 87.5006 91.25 72.0477 91.25 63.6864C91.25 56.6877 85.74 51 78.96 51ZM82.67 67.4026C81.65 68.4555 80.3 68.9819 78.96 68.9819C77.62 68.9819 76.27 68.4555 75.25 67.4026C73.21 65.2968 73.21 61.8594 75.25 59.7432C76.24 58.7213 77.56 58.1535 78.96 58.1535C80.36 58.1535 81.68 58.7213 82.67 59.7432C84.71 61.849 84.71 65.2865 82.67 67.4026Z" stroke="#A32424" stroke-width="1.21" stroke-miterlimit="10"/>
</svg>
