<svg width="157" height="160" viewBox="0 0 157 160" fill="none" xmlns="http://www.w3.org/2000/svg">
<path d="M54.75 104.103V107.747H53.81V104.547C53.81 104.021 53.8 103.69 53.77 103.391C53.68 102.72 53.27 102.39 52.61 102.39C51.88 102.39 51.34 102.989 51.34 104.795V107.747H50.4V104.547C50.4 104.021 50.39 103.69 50.36 103.391C50.27 102.72 49.86 102.39 49.2 102.39C48.47 102.39 47.94 102.989 47.94 104.795V107.747H47V101.781H47.94V102.648L48.31 101.977C48.6 101.729 49.02 101.626 49.53 101.626C50.41 101.626 50.98 102.09 51.2 102.741L51.71 101.977C52 101.729 52.42 101.626 52.93 101.626C53.97 101.626 54.56 102.256 54.69 103.081C54.73 103.381 54.74 103.618 54.74 104.103H54.75Z" fill="black"/>
<path d="M62.17 105.063H57.98C58.07 106.643 58.79 107.169 59.64 107.169C60.39 107.169 61 106.684 61.14 105.827H62.12C61.89 107.272 60.79 107.912 59.6 107.912C58.09 107.912 56.97 106.901 56.97 104.795C56.97 102.854 58.14 101.626 59.72 101.626C61.3 101.626 62.2 102.854 62.2 104.599C62.2 104.692 62.2 104.847 62.18 105.063H62.17ZM57.99 104.31H61.24C61.15 103.071 60.64 102.359 59.69 102.359C58.74 102.359 58.1 103.03 57.99 104.31Z" fill="black"/>
<path d="M68.35 103.484H67.37C67.24 102.782 66.83 102.369 66.15 102.369C65.47 102.369 65.19 102.741 65.19 103.257C65.19 103.856 65.67 104.093 66.46 104.3C67.79 104.661 68.42 105.198 68.42 106.209C68.42 107.334 67.49 107.902 66.27 107.902C65.05 107.902 64.18 107.334 64 105.992H64.98C65.13 106.86 65.67 107.159 66.33 107.159C66.95 107.159 67.45 106.87 67.45 106.292C67.45 105.714 67.06 105.414 66.09 105.146C65.05 104.857 64.22 104.413 64.22 103.37C64.22 102.328 65.03 101.626 66.22 101.626C67.52 101.626 68.23 102.39 68.35 103.484Z" fill="black"/>
<path d="M74.46 103.484H73.48C73.35 102.782 72.94 102.369 72.26 102.369C71.58 102.369 71.3 102.741 71.3 103.257C71.3 103.856 71.78 104.093 72.57 104.3C73.9 104.661 74.53 105.198 74.53 106.209C74.53 107.334 73.6 107.902 72.38 107.902C71.16 107.902 70.29 107.334 70.11 105.992H71.09C71.24 106.86 71.78 107.159 72.44 107.159C73.06 107.159 73.56 106.87 73.56 106.292C73.56 105.714 73.17 105.414 72.2 105.146C71.16 104.857 70.33 104.413 70.33 103.37C70.33 102.328 71.14 101.626 72.33 101.626C73.63 101.626 74.34 102.39 74.46 103.484Z" fill="black"/>
<path d="M81.49 105.063H77.3C77.39 106.643 78.11 107.169 78.96 107.169C79.71 107.169 80.32 106.684 80.46 105.827H81.44C81.21 107.272 80.11 107.912 78.92 107.912C77.41 107.912 76.29 106.901 76.29 104.795C76.29 102.854 77.46 101.626 79.04 101.626C80.62 101.626 81.52 102.854 81.52 104.599C81.52 104.692 81.52 104.847 81.5 105.063H81.49ZM77.32 104.31H80.57C80.48 103.071 79.97 102.359 79.02 102.359C78.07 102.359 77.43 103.03 77.32 104.31Z" fill="black"/>
<path d="M88.75 104.393V107.747H87.81V104.455C87.81 104.155 87.81 103.907 87.79 103.598C87.74 102.896 87.36 102.38 86.47 102.38C85.58 102.38 84.8 103.082 84.8 105.115V107.737H83.86V101.771H84.8V102.793L85.16 102.101C85.65 101.709 86.08 101.605 86.67 101.605C87.94 101.605 88.64 102.307 88.73 103.35C88.75 103.649 88.75 103.887 88.75 104.372V104.393Z" fill="black"/>
<path d="M96.49 106.282C96.49 106.654 96.49 107.118 96.4799 107.438C96.4299 109.183 95.4 110.112 93.7299 110.112C92.0599 110.112 91.26 109.399 91.14 108.14V108.027H92.0799V108.13C92.1699 108.863 92.7299 109.368 93.7299 109.368C94.88 109.368 95.4999 108.697 95.5399 107.541C95.5499 107.263 95.5499 107.067 95.5499 106.891V106.788L95.11 107.428C94.78 107.707 94.1699 107.903 93.5799 107.903C91.8899 107.903 90.95 106.592 90.95 104.847C90.95 102.638 92.28 101.616 93.78 101.616C94.26 101.616 94.87 101.761 95.16 102.008L95.5399 102.597V101.771H96.4799V106.272L96.49 106.282ZM95.56 104.827V104.496C95.56 102.958 94.6199 102.37 93.7899 102.37C92.7799 102.37 91.99 103.185 91.99 104.744C91.99 106.096 92.58 107.17 93.74 107.17C94.7 107.17 95.56 106.54 95.56 104.827Z" fill="black"/>
<path d="M103.98 105.063H99.79C99.88 106.643 100.6 107.169 101.45 107.169C102.2 107.169 102.81 106.684 102.95 105.827H103.93C103.7 107.272 102.6 107.912 101.41 107.912C99.9 107.912 98.78 106.901 98.78 104.795C98.78 102.854 99.95 101.626 101.53 101.626C103.11 101.626 104.01 102.854 104.01 104.599C104.01 104.692 104.01 104.847 103.99 105.063H103.98ZM99.81 104.31H103.06C102.97 103.071 102.46 102.359 101.51 102.359C100.56 102.359 99.92 103.03 99.81 104.31Z" fill="black"/>
<path d="M109.02 101.729V102.462C108.04 102.39 107.3 102.989 107.3 104.351V107.748H106.36V101.781H107.3V102.72L107.82 101.926C108.06 101.76 108.35 101.657 108.63 101.657C108.78 101.657 108.91 101.678 109.02 101.74V101.729Z" fill="black"/>
<path d="M62.1999 85.9981V85.5749C62.1999 83.6652 62.1999 81.7452 62.1999 79.8355C62.1999 79.5671 62.1299 79.3916 61.9099 79.2162C59.1399 76.9658 57.1299 74.1684 56.1899 70.6381C54.9499 65.9516 55.6499 61.5233 58.1199 57.4355C60.9399 52.78 65.0899 50.1065 70.3299 49.26C74.5499 48.5787 78.5899 49.2187 82.3299 51.3865C86.8399 53.9981 89.8299 57.8587 90.7899 63.1645C91.7099 68.2742 90.4499 72.8575 87.1899 76.8007C84.3199 80.2691 80.6399 82.2716 76.2899 83.0149C73.6799 83.4587 71.0999 83.3039 68.5499 82.6123C68.3399 82.5504 68.1699 82.571 67.9699 82.6845C66.1699 83.7271 64.3599 84.7594 62.5499 85.802C62.4399 85.8639 62.33 85.9155 62.18 85.9878L62.1999 85.9981ZM61.9599 71.9387C62.1599 71.9387 62.2699 71.8355 62.3799 71.7736C65.0299 70.2562 67.6899 68.7491 70.3399 67.2213C70.5699 67.0871 70.6999 67.1078 70.8799 67.3039C72.2499 68.7904 73.6399 70.2665 75.0099 71.7529C75.1599 71.9181 75.24 71.98 75.43 71.7736C78.47 68.4291 81.52 65.0949 84.57 61.7504C84.62 61.6884 84.6699 61.6162 84.7199 61.5542C84.5999 61.5645 84.5099 61.6058 84.4199 61.6575C81.7599 63.1749 79.0899 64.6923 76.4399 66.2304C76.1699 66.3852 76.03 66.3542 75.82 66.1271C74.47 64.651 73.0899 63.2058 71.7399 61.7297C71.5499 61.5233 71.4499 61.5439 71.2799 61.74C68.4099 64.8987 65.5299 68.0471 62.6499 71.1955C62.4399 71.4329 62.2199 71.6704 61.9799 71.9387H61.9599Z" stroke="#A32424" stroke-width="1.21" stroke-linejoin="bevel"/>
</svg>
