<svg width="180" height="57" viewBox="0 0 180 57" fill="none" xmlns="http://www.w3.org/2000/svg">
<path d="M5.48 39.8823H0V35.998H15.2V39.8823H9.72V55.9326H5.48V39.8823Z" fill="#A32424"/>
<path d="M18.49 45.9699C18.49 44.3699 18.75 42.9309 19.26 41.6328C19.77 40.3347 20.5 39.2378 21.42 38.3221C22.34 37.4165 23.44 36.712 24.71 36.219C25.98 35.7259 27.36 35.4844 28.86 35.4844C30.36 35.4844 31.75 35.7259 33.01 36.219C34.28 36.712 35.37 37.4064 36.3 38.3221C37.22 39.2378 37.94 40.3347 38.46 41.6328C38.98 42.9309 39.23 44.3699 39.23 45.9699C39.23 47.5699 38.97 49.0089 38.46 50.307C37.94 51.6051 37.22 52.702 36.3 53.6177C35.38 54.5334 34.28 55.2278 33.01 55.7209C31.74 56.2039 30.36 56.4554 28.86 56.4554C27.36 56.4554 25.97 56.2139 24.71 55.7209C23.44 55.2378 22.35 54.5334 21.42 53.6177C20.5 52.712 19.78 51.6051 19.26 50.307C18.74 49.0089 18.49 47.5699 18.49 45.9699ZM22.89 45.9699C22.89 46.9058 23.03 47.7712 23.31 48.546C23.59 49.3209 23.99 50.0051 24.52 50.5787C25.04 51.1523 25.67 51.5951 26.41 51.9171C27.14 52.2391 27.96 52.4001 28.87 52.4001C29.78 52.4001 30.59 52.2391 31.33 51.9171C32.06 51.5951 32.69 51.1523 33.22 50.5787C33.74 50.0051 34.15 49.3309 34.43 48.546C34.71 47.7712 34.85 46.9058 34.85 45.9699C34.85 45.0341 34.71 44.1988 34.43 43.4039C34.15 42.6089 33.75 41.9347 33.22 41.3611C32.69 40.7875 32.07 40.3448 31.33 40.0227C30.6 39.7007 29.78 39.5397 28.87 39.5397C27.96 39.5397 27.15 39.7007 26.41 40.0227C25.68 40.3448 25.05 40.7875 24.52 41.3611C23.99 41.9347 23.59 42.619 23.31 43.4039C23.03 44.1888 22.89 45.0441 22.89 45.9699Z" fill="#A32424"/>
<path d="M44.44 35.998H48.68V44.2798L56.15 35.998H61.69L53.14 45.266L62.42 55.9427H56.5L48.68 46.4836V55.9427H44.44V35.998Z" fill="#A32424"/>
<path d="M70.78 47.4393L63.56 36.0078H68.83L72.9 43.4745L77.22 36.0078H82.24L75.02 47.4393V55.9424H70.78V47.4393Z" fill="#A32424"/>
<path d="M84.79 45.9699C84.79 44.3699 85.05 42.9309 85.56 41.6328C86.07 40.3347 86.8 39.2378 87.72 38.3221C88.64 37.4165 89.74 36.712 91.01 36.219C92.28 35.7259 93.66 35.4844 95.16 35.4844C96.66 35.4844 98.05 35.7259 99.31 36.219C100.58 36.712 101.67 37.4064 102.6 38.3221C103.52 39.2378 104.24 40.3347 104.76 41.6328C105.28 42.9309 105.53 44.3699 105.53 45.9699C105.53 47.5699 105.27 49.0089 104.76 50.307C104.24 51.6051 103.52 52.702 102.6 53.6177C101.68 54.5334 100.58 55.2278 99.31 55.7209C98.04 56.2039 96.66 56.4554 95.16 56.4554C93.66 56.4554 92.27 56.2139 91.01 55.7209C89.74 55.2378 88.65 54.5334 87.72 53.6177C86.8 52.712 86.08 51.6051 85.56 50.307C85.04 49.0089 84.79 47.5699 84.79 45.9699ZM89.18 45.9699C89.18 46.9058 89.32 47.7712 89.6 48.546C89.88 49.3209 90.28 50.0051 90.81 50.5787C91.33 51.1523 91.96 51.5951 92.7 51.9171C93.43 52.2391 94.25 52.4001 95.16 52.4001C96.07 52.4001 96.88 52.2391 97.62 51.9171C98.35 51.5951 98.98 51.1523 99.51 50.5787C100.03 50.0051 100.44 49.3309 100.72 48.546C101 47.7712 101.14 46.9058 101.14 45.9699C101.14 45.0341 101 44.1988 100.72 43.4039C100.44 42.6089 100.04 41.9347 99.51 41.3611C98.98 40.7875 98.36 40.3448 97.62 40.0227C96.89 39.7007 96.07 39.5397 95.16 39.5397C94.25 39.5397 93.44 39.7007 92.7 40.0227C91.97 40.3448 91.34 40.7875 90.81 41.3611C90.28 41.9347 89.88 42.619 89.6 43.4039C89.32 44.1888 89.18 45.0441 89.18 45.9699Z" fill="#A32424"/>
<path d="M120.95 35.998H125.19V51.8874H133.04V55.9427H120.96V35.998H120.95Z" fill="#A32424"/>
<path d="M138.03 35.998H142.27V55.9427H138.03V35.998Z" fill="#A32424"/>
<path d="M148.99 35.998H161.89V40.0534H153.23V44.1087H161.24V48.1641H153.23V55.9427H148.99V35.998Z" fill="#A32424"/>
<path d="M166.18 35.9974H179.24V40.0527H170.42V43.7659H178.75V47.8213H170.42V51.8766H179.73V55.932H166.18V35.9873V35.9974Z" fill="#A32424"/>
<path d="M2.14 0.657227H4.97L12.36 17.7742L19.75 0.657227H22.44V21.0648H20.55V3.08238H20.49L12.76 21.0648H11.93L4.08 3.08238H4.02V21.0648H2.13V0.657227H2.14Z" fill="black"/>
<path d="M30.09 0.657227H42.49V2.38804H31.98V9.65345H41.83V11.3843H31.98V19.334H42.95V21.0648H30.09V0.657227Z" fill="black"/>
<path d="M49.36 0.657227H61.76V2.38804H51.25V9.65345H61.1V11.3843H51.25V19.334H62.22V21.0648H49.36V0.657227Z" fill="black"/>
<path d="M73.13 2.38804H66.2V0.657227H81.95V2.38804H75.02V21.0648H73.13V2.38804Z" fill="black"/>
<path d="M97.36 16.7978C97.74 17.7739 98.26 18.5286 98.92 19.0619C99.58 19.5953 100.48 19.8569 101.63 19.8569C102.37 19.8569 103.03 19.7462 103.61 19.5148C104.18 19.2833 104.66 18.9714 105.03 18.5588C105.4 18.1563 105.68 17.6833 105.87 17.15C106.06 16.6166 106.16 16.033 106.16 15.4192C106.16 14.6745 106 14.0305 105.69 13.4871C105.38 12.9537 104.96 12.511 104.46 12.1789C103.95 11.8468 103.38 11.5953 102.74 11.4443C102.1 11.2934 101.46 11.2129 100.81 11.2129H100.07V9.48205H100.93C101.46 9.48205 102 9.41161 102.55 9.27073C103.1 9.12984 103.58 8.8984 104.01 8.59651C104.44 8.28456 104.79 7.89211 105.06 7.39903C105.33 6.90595 105.46 6.3223 105.46 5.62796C105.46 4.5311 105.12 3.63551 104.44 2.9311C103.76 2.2267 102.85 1.8745 101.71 1.8745C100.87 1.8745 100.12 2.08582 99.45 2.51852C98.78 2.95123 98.26 3.53488 97.87 4.2594L96.24 3.33362C96.79 2.27701 97.55 1.51223 98.52 1.02922C99.48 0.546197 100.55 0.304688 101.71 0.304688C102.47 0.304688 103.2 0.415379 103.89 0.636763C104.58 0.858147 105.18 1.18016 105.69 1.61286C106.21 2.04557 106.61 2.58896 106.91 3.24305C107.21 3.89714 107.35 4.66192 107.35 5.54746C107.35 6.66444 107.04 7.6506 106.43 8.50595C105.82 9.36129 104.92 9.955 103.74 10.277V10.3374C104.39 10.4481 104.98 10.6695 105.5 10.9814C106.03 11.3034 106.48 11.6858 106.86 12.1487C107.24 12.6116 107.54 13.1248 107.75 13.7085C107.96 14.282 108.06 14.8959 108.06 15.55C108.06 16.355 107.93 17.1198 107.67 17.8242C107.41 18.5387 107.02 19.1525 106.5 19.6858C105.97 20.2192 105.32 20.6317 104.54 20.9437C103.76 21.2556 102.84 21.4066 101.79 21.4066C100.26 21.4066 98.97 21.0846 97.91 20.4405C96.85 19.7965 96.05 18.7802 95.52 17.4015L97.38 16.7978H97.36Z" fill="black"/>
<path d="M116.31 9.65345H116.37C116.71 9.36163 117.18 9.15031 117.76 9.00943C118.34 8.86855 118.88 8.79811 119.38 8.79811C120.28 8.79811 121.11 8.95911 121.87 9.29119C122.63 9.6132 123.29 10.066 123.85 10.6296C124.4 11.1931 124.83 11.8572 125.14 12.622C125.45 13.3767 125.6 14.2019 125.6 15.0874C125.6 15.973 125.43 16.8585 125.1 17.6333C124.77 18.4082 124.3 19.0824 123.71 19.6358C123.12 20.1893 122.42 20.6321 121.6 20.944C120.79 21.266 119.91 21.417 118.95 21.417C117.99 21.417 117.11 21.256 116.3 20.944C115.49 20.6321 114.79 20.1893 114.2 19.6358C113.61 19.0824 113.14 18.4082 112.81 17.6333C112.48 16.8585 112.31 16.0031 112.31 15.0874C112.31 14.5541 112.37 14.0409 112.48 13.5579C112.59 13.0748 112.75 12.622 112.94 12.1893C113.13 11.7566 113.33 11.3541 113.54 10.9616C113.75 10.5792 113.96 10.217 114.17 9.86477L119.66 0.657227H121.84L116.31 9.64339V9.65345ZM118.95 10.2874C118.28 10.2874 117.66 10.4082 117.09 10.6597C116.52 10.9113 116.02 11.2535 115.59 11.6862C115.16 12.1189 114.82 12.6321 114.57 13.2157C114.32 13.7994 114.2 14.4233 114.2 15.0774C114.2 15.7918 114.31 16.4358 114.54 17.0195C114.77 17.6031 115.09 18.1063 115.51 18.5289C115.93 18.9516 116.43 19.2736 117.01 19.505C117.59 19.7365 118.24 19.8472 118.94 19.8472C119.64 19.8472 120.29 19.7365 120.87 19.505C121.45 19.2736 121.95 18.9516 122.37 18.5289C122.79 18.1063 123.11 17.6031 123.34 17.0195C123.57 16.4358 123.68 15.7818 123.68 15.0774C123.68 14.4233 123.56 13.8094 123.31 13.2157C123.06 12.6321 122.72 12.1189 122.29 11.6862C121.86 11.2535 121.35 10.9113 120.77 10.6597C120.19 10.4082 119.57 10.2874 118.92 10.2874H118.95Z" fill="black"/>
<path d="M129.43 10.8607C129.43 10.1261 129.46 9.36129 129.53 8.53613C129.6 7.72104 129.72 6.92607 129.9 6.14117C130.08 5.36632 130.33 4.62167 130.64 3.91727C130.96 3.21286 131.36 2.59903 131.86 2.05563C132.36 1.5223 132.95 1.08959 133.65 0.777644C134.35 0.465694 135.17 0.304688 136.13 0.304688C137.09 0.304688 137.91 0.465694 138.61 0.777644C139.31 1.09966 139.9 1.5223 140.4 2.05563C140.9 2.58896 141.3 3.21286 141.62 3.91727C141.94 4.62167 142.18 5.35626 142.36 6.14117C142.54 6.91601 142.67 7.72104 142.73 8.53613C142.8 9.35123 142.83 10.1261 142.83 10.8607C142.83 11.5953 142.8 12.3902 142.73 13.1953C142.66 14.0003 142.54 14.7953 142.36 15.5701C142.18 16.3449 141.93 17.0896 141.62 17.794C141.31 18.4984 140.9 19.1122 140.4 19.6556C139.9 20.189 139.31 20.6217 138.61 20.9336C137.91 21.2556 137.09 21.4066 136.13 21.4066C135.17 21.4066 134.35 21.2456 133.65 20.9336C132.95 20.6217 132.36 20.189 131.86 19.6556C131.36 19.1223 130.96 18.4984 130.64 17.794C130.33 17.0896 130.08 16.355 129.9 15.5701C129.72 14.7953 129.59 14.0003 129.53 13.1953C129.46 12.3902 129.43 11.6154 129.43 10.8607ZM131.32 10.8607C131.32 11.394 131.34 11.9877 131.38 12.6317C131.42 13.2758 131.49 13.9298 131.61 14.594C131.72 15.2581 131.89 15.9022 132.11 16.5361C132.33 17.1701 132.62 17.7336 132.97 18.2267C133.32 18.7198 133.76 19.1122 134.27 19.4041C134.79 19.7059 135.41 19.8468 136.13 19.8468C136.85 19.8468 137.45 19.6959 137.98 19.4041C138.5 19.1022 138.94 18.7097 139.3 18.2267C139.65 17.7336 139.94 17.1701 140.16 16.5361C140.38 15.9022 140.55 15.2581 140.66 14.594C140.77 13.9298 140.85 13.2758 140.89 12.6317C140.93 11.9877 140.95 11.394 140.95 10.8607C140.95 10.3273 140.93 9.75374 140.89 9.09966C140.85 8.44557 140.78 7.79148 140.66 7.12733C140.55 6.46318 140.38 5.81915 140.16 5.18519C139.94 4.55123 139.65 3.98771 139.3 3.49462C138.95 3.00154 138.51 2.60909 137.98 2.31727C137.45 2.01538 136.84 1.8745 136.13 1.8745C135.42 1.8745 134.81 2.02544 134.28 2.31727C133.75 2.61915 133.32 3.01161 132.96 3.49462C132.6 3.97764 132.32 4.55123 132.1 5.18519C131.88 5.81915 131.71 6.46318 131.6 7.12733C131.49 7.79148 131.41 8.44557 131.37 9.09966C131.33 9.75374 131.31 10.3374 131.31 10.8607H131.32Z" fill="black"/>
<path d="M151.6 8.61634C151.03 8.61634 150.49 8.50565 149.98 8.28426C149.47 8.06288 149.04 7.76099 148.66 7.38867C148.29 7.01634 148 6.57357 147.79 6.06036C147.58 5.54716 147.48 5.00376 147.48 4.43018C147.48 3.85659 147.58 3.31319 147.79 2.82011C148 2.31697 148.29 1.88426 148.66 1.51194C149.03 1.13961 149.47 0.847786 149.98 0.636466C150.49 0.425145 151.03 0.314453 151.6 0.314453C152.17 0.314453 152.71 0.425145 153.2 0.636466C153.7 0.847786 154.13 1.13961 154.5 1.51194C154.87 1.88426 155.17 2.32703 155.39 2.82011C155.61 3.32326 155.72 3.85659 155.72 4.43018C155.72 5.00376 155.61 5.54716 155.39 6.06036C155.17 6.57357 154.87 7.01634 154.5 7.38867C154.13 7.76099 153.69 8.06288 153.2 8.28426C152.7 8.50565 152.17 8.61634 151.6 8.61634ZM151.6 7.22766C152.36 7.22766 153.01 6.95596 153.55 6.42263C154.08 5.8893 154.35 5.23521 154.35 4.46036C154.35 3.68552 154.08 3.0415 153.55 2.4981C153.02 1.96477 152.37 1.69307 151.6 1.69307C150.83 1.69307 150.19 1.96477 149.65 2.4981C149.12 3.03143 148.85 3.68552 148.85 4.46036C148.85 5.23521 149.12 5.87923 149.65 6.42263C150.18 6.95596 150.83 7.22766 151.6 7.22766Z" fill="black"/>
</svg>
