<svg width="37" height="40" viewBox="0 0 37 40" fill="none" xmlns="http://www.w3.org/2000/svg">
<path d="M36.636 22.6299H0V23.5872H36.636V22.6299Z" fill="#9E2019"/>
<path d="M36.636 11.3154H0V12.2727H36.636V11.3154Z" fill="#9E2019"/>
<path d="M36.636 0H0V0.957297H36.636V0Z" fill="#9E2019"/>
<path d="M8.85707 36.4977V39.7404H7.99464V36.8944C7.99464 36.4201 7.98601 36.1355 7.95151 35.8595C7.8739 35.2558 7.49443 34.9712 6.89073 34.9712C6.21803 34.9712 5.72645 35.5059 5.72645 37.1186V39.7404H4.86402V36.8944C4.86402 36.4201 4.85539 36.1355 4.8209 35.8595C4.74328 35.2558 4.36381 34.9712 3.76011 34.9712C3.08741 34.9712 2.59583 35.5059 2.59583 37.1186V39.7404H1.7334V34.4279H2.59583V35.1954L2.9408 34.5917C3.20815 34.3675 3.58762 34.2812 4.06196 34.2812C4.87264 34.2812 5.3901 34.6952 5.59708 35.273L6.07142 34.5917C6.33877 34.3675 6.71824 34.2812 7.19258 34.2812C8.14125 34.2812 8.68458 34.8418 8.80532 35.5749C8.84844 35.8422 8.85707 36.0579 8.85707 36.4891V36.4977Z" fill="black"/>
<path d="M17.8779 37.343H14.0314C14.1091 38.7488 14.7731 39.2145 15.5579 39.2145C16.2479 39.2145 16.8085 38.7833 16.9292 38.0244H17.8348C17.6278 39.3094 16.6101 39.8786 15.5234 39.8786C14.1436 39.8786 13.1086 38.973 13.1086 37.1016C13.1086 35.3767 14.1781 34.29 15.6356 34.29C17.0931 34.29 17.9124 35.3853 17.9124 36.9377C17.9124 37.0153 17.9124 37.1619 17.8951 37.3517L17.8779 37.343ZM14.0401 36.6876H17.0241C16.9465 35.5837 16.4721 34.9541 15.6011 34.9541C14.73 34.9541 14.1349 35.5578 14.0401 36.6876Z" fill="black"/>
<path d="M26.7614 36.7568V39.7408H25.899V36.8171C25.899 36.5498 25.899 36.3255 25.8818 36.0582C25.83 35.4372 25.4937 34.9801 24.6657 34.9801C23.8378 34.9801 23.1306 35.6011 23.1306 37.4122V39.7494H22.2682V34.4368H23.1306V35.351L23.4583 34.7387C23.9068 34.3851 24.3035 34.2988 24.8382 34.2988C26.0025 34.2988 26.6493 34.9198 26.7356 35.8512C26.7528 36.1186 26.7528 36.3342 26.7528 36.7654L26.7614 36.7568Z" fill="black"/>
<path d="M35.8599 39.7403H34.9974V38.8347L34.6697 39.4557C34.2213 39.7834 33.8245 39.8783 33.2898 39.8783C32.1859 39.8783 31.5477 39.2573 31.427 38.5243C31.3839 38.2569 31.3752 38.0413 31.3752 37.6101V34.4277H32.2377V37.4549C32.2377 37.6273 32.2463 37.9119 32.2808 38.1879C32.3584 38.7916 32.7896 39.197 33.5141 39.197C34.342 39.197 35.0061 38.576 35.0061 36.7649V34.4277H35.8685V39.7403H35.8599Z" fill="black"/>
</svg>
