<svg width="682" height="54" viewBox="0 0 682 54" fill="none" xmlns="http://www.w3.org/2000/svg">
<path d="M322.668 15.5359L317.082 21.1221L322.668 26.7082L328.254 21.1221L322.668 15.5359Z" fill="black"/>
<path d="M310.81 12.78C310.81 12 310.99 11.2 311.38 10.46L315.31 2.95996C314.46 4.58996 314.55 6.44996 315.37 7.93996C313.04 8.48996 311.23 10.4 310.81 12.78ZM334.48 12.78C334.48 12 334.3 11.2 333.91 10.46L329.98 2.95996C330.83 4.58996 330.74 6.44996 329.92 7.94996C332.25 8.49996 334.06 10.41 334.48 12.79V12.78Z" fill="#A20000"/>
<path d="M322.65 15.52L317.07 21.11L312.28 16.33C311.34 15.39 310.82 14.11 310.82 12.79C311.24 10.41 313.05 8.51 315.38 7.95C315.62 8.38 315.91 8.78 316.26 9.13L322.65 15.52ZM329.92 7.94C329.68 8.37 329.39 8.77 329.04 9.12L322.65 15.52L328.23 21.1L333.01 16.32C333.95 15.38 334.47 14.1 334.47 12.78C334.05 10.4 332.24 8.5 329.91 7.94H329.92ZM329.98 2.96C329.13 1.33 327.54 0.33 325.84 0.16C324.79 0.05 323.73 0 322.65 0C321.57 0 320.51 0.05 319.46 0.16C317.76 0.33 316.17 1.33 315.32 2.96C314.47 4.59 314.56 6.45 315.38 7.95C315.83 7.84 316.3 7.79 316.78 7.79H328.52C329 7.79 329.47 7.85 329.92 7.95C330.74 6.46 330.83 4.59 329.98 2.96Z" fill="#E40012"/>
<path d="M344.98 37.8497L339.4 43.4297L333.82 37.8497L339.4 32.2697L344.98 37.8497ZM322.65 49.0197C319.57 52.0997 314.57 52.0997 311.48 49.0197C317.65 55.1897 327.65 55.1897 333.81 49.0197C330.73 52.0997 325.73 52.0997 322.64 49.0197H322.65ZM311.48 26.6897C305.31 32.8597 305.31 42.8597 311.48 49.0197C308.4 45.9297 308.4 40.9397 311.48 37.8497C308.4 34.7697 308.4 29.7697 311.48 26.6797V26.6897Z" fill="#002063"/>
<path d="M344.98 37.8496L339.4 32.2696L346.53 25.1396L352.11 30.7196L344.98 37.8496ZM328.23 21.0996L322.65 26.6796L333.82 37.8496L339.4 32.2696L328.23 21.0996ZM357.69 50.5596L344.98 37.8496L339.4 43.4296L346.53 50.5496H357.7L357.69 50.5596ZM311.48 49.0196C314.56 52.0996 319.56 52.0996 322.65 49.0196L311.48 37.8496C308.4 40.9296 308.4 45.9296 311.48 49.0196ZM333.82 37.8496L322.65 49.0196C325.73 52.0996 330.73 52.0996 333.82 49.0196L339.4 43.4396L333.82 37.8596V37.8496ZM317.06 21.0996L311.48 26.6796C308.4 29.7596 308.4 34.7596 311.48 37.8496L322.65 26.6796L317.06 21.0996Z" fill="#004096"/>
<path d="M628.01 34.2601C631.22 34.2601 632.91 34.3101 634.95 34.4301V31.6901C632.91 31.8101 631.22 31.8601 628.01 31.8601H617.45V28.7601H626.3C629.51 28.7601 631.2 28.8101 633.24 28.9301V26.1901C631.2 26.3101 629.51 26.3601 626.3 26.3601H618.1V23.5301H623.27C626.48 23.5301 628.17 23.5801 630.21 23.7001V20.9601C628.17 21.0801 626.48 21.1301 623.27 21.1301H618.1V18.4701H623.27C626.48 18.4701 628.17 18.5201 630.21 18.6401V15.9001C628.17 16.0201 626.48 16.0701 623.27 16.0701H618.1V15.1701C618.1 14.5401 618.1 13.9701 618.1 13.4101H625.46C628.67 13.4101 630.36 13.4601 632.4 13.5801V10.8401C630.36 10.9601 628.67 11.0101 625.46 11.0101H618.13C618.16 9.17012 618.22 7.66012 618.32 6.11012H613.26C613.35 7.66012 613.41 9.17012 613.45 11.0101H605.44C606.58 9.69012 607.69 8.28012 608.7 6.82012L604.22 5.37012C604.22 5.37012 600.81 13.6201 593.64 19.1501L595.13 20.8201C595.13 20.8201 597.36 19.1101 600.24 16.4001C600.25 17.4101 600.26 18.5201 600.26 19.8001C600.26 23.8401 600.19 26.2801 600.04 28.8501L600.2 28.8001L600.04 28.8901C602.08 28.7701 603.77 28.7201 606.98 28.7201H612.82V31.8201H602.19C598.98 31.8201 597.29 31.7701 595.25 31.6501V34.3901C597.29 34.2701 598.98 34.2201 602.19 34.2201H609.23C607.16 36.6501 602.32 41.4201 594.82 43.4801L596.05 45.6301C596.05 45.6301 605.89 42.6601 612.82 36.7001V37.5001C612.82 41.5401 612.75 43.9801 612.6 46.5501H617.66C617.51 43.9901 617.44 41.5401 617.44 37.5001V35.7201C625.46 43.4601 633.18 45.2301 633.18 45.2301L635.51 41.1901C625.92 39.2201 621.02 35.7601 619.22 34.2101H628.01V34.2601ZM613.48 21.1601H604.89V18.5001H613.48V21.1601ZM613.48 15.2201V16.1201H604.89V13.4601H613.48C613.48 14.0201 613.48 14.5901 613.48 15.2201ZM604.88 26.3901V23.5601H613.47V26.3901H604.88ZM439.89 17.4701C442.79 17.4901 444.86 17.5601 446.99 17.6901V14.1601C444.86 14.2901 442.8 14.3501 439.9 14.3701C439.92 11.2701 439.99 9.13012 440.12 6.91012H434.7C434.83 9.13012 434.9 11.2701 434.92 14.3801H422.68C422.7 11.2801 422.77 9.13012 422.9 6.91012H417.48C417.61 9.13012 417.68 11.2701 417.7 14.3701C414.19 14.3601 411.89 14.2901 409.5 14.1501V17.6801C411.89 17.5401 414.19 17.4701 417.69 17.4601C417.64 20.5301 417.46 27.5301 417.26 30.7001H417.02C412.88 30.7001 410.38 30.6301 407.75 30.4801V34.0101C410.34 33.8601 412.82 33.7901 416.85 33.7901C415.78 39.1401 413.08 42.1701 408.25 44.0001L409.91 46.5701C412.71 44.9801 416.22 43.1101 418.48 40.4101C420.08 38.5001 421.11 36.0901 421.7 33.7901H434.93V36.8501C434.93 40.9901 434.86 43.4901 434.71 46.1201H440.13C439.97 43.4901 439.91 40.9901 439.91 36.8501V33.7901C443.63 33.7901 446.01 33.8701 448.48 34.0101V30.4801C446.01 30.6301 443.63 30.6901 439.91 30.7001V17.4701H439.89ZM422.22 30.7001C422.51 27.5801 422.64 22.1601 422.66 17.4601H434.92V30.7001H422.22ZM376.9 12.9401C372.76 12.9401 370.26 13.0101 367.63 13.1601V9.12012C370.26 9.27012 372.76 9.34012 376.9 9.34012H391.04C395.18 9.34012 397.68 9.27012 400.31 9.12012V13.1601C397.68 13.0001 395.18 12.9401 391.04 12.9401H376.9ZM393.5 40.6601C397.64 40.6601 400.14 40.5901 402.77 40.4401V44.4801C400.14 44.3201 397.64 44.2601 393.5 44.2601H374.45C370.31 44.2601 367.81 44.3301 365.18 44.4801V40.4401C367.81 40.5901 370.31 40.6601 374.45 40.6601H393.5ZM491.72 30.5001C490.24 32.0701 489.58 33.2001 488.51 34.9401C481.98 30.0901 477.9 25.5101 475.57 19.5901C476.67 18.8901 477.39 18.3701 478.31 17.4401C481.14 22.8101 485.62 27.4301 491.72 30.5001ZM483.18 8.50012C487.32 8.50012 489.82 8.43012 492.45 8.28012V11.8101C489.82 11.6501 487.32 11.5901 483.18 11.5901H474.86C474.83 12.9101 474.82 14.3901 474.82 16.1801V36.8501C474.82 40.9901 474.89 43.4901 475.04 46.1201H469.86C470.02 43.4901 470.08 40.9901 470.08 36.8501V22.3601C467.09 27.3301 462.34 31.4701 454.95 34.9401C454.49 33.9701 454.09 33.2501 453.56 32.3301C462.98 27.9401 467.31 20.6001 468.92 11.5801H462.66C458.52 11.5801 456.02 11.6501 453.39 11.8001V8.27012C456.02 8.43012 458.52 8.49012 462.66 8.49012H483.18V8.50012ZM531.49 6.91012H526.07C526.2 9.11012 526.27 11.2401 526.29 14.3101C524.65 14.2801 523.35 14.2301 521.99 14.1501V16.9501C523.35 16.8701 524.64 16.8201 526.29 16.7901C526.25 19.7301 526.01 29.7401 525.75 31.9001C525.24 36.2101 523.85 39.1801 521.45 41.3001L521.27 40.0001C517.75 40.3601 515.04 40.6401 512.48 40.8901V38.2201H513.58C516.86 38.2201 518.6 38.2701 520.69 38.4001V35.6001C518.6 35.7201 516.87 35.7801 513.58 35.7801H512.48V32.9101H513.21C516.49 32.9101 518.62 32.9601 520.7 33.0901C520.58 31.1201 520.59 27.5601 520.59 26.2701C520.59 23.1601 520.59 21.4301 520.7 19.4501C518.61 19.5701 516.49 19.6301 513.21 19.6301H512.48V16.7801H513.85C517.13 16.7801 518.87 16.8301 520.96 16.9601V14.1601C518.87 14.2801 517.14 14.3401 513.85 14.3401H512.48V11.0001C515.44 10.6901 518.29 10.2501 520.71 9.63012L519.44 5.99012C514.25 8.15012 505.85 9.44012 499.58 9.61012L499.7 11.6301C502.31 11.6301 505.25 11.5501 508.22 11.3601V14.3501H506.93C503.65 14.3501 501.66 14.3001 499.57 14.1701V16.9701C501.66 16.8501 503.64 16.7901 506.93 16.7901H508.22V19.6401H507.57C504.29 19.6401 502.03 19.5901 499.94 19.4601C500.06 21.4301 500.05 23.1701 500.05 26.2801C500.05 27.5701 500.05 31.1201 499.94 33.1001C502.02 32.9801 504.28 32.9201 507.57 32.9201H508.22V35.7901H507.15C503.87 35.7901 501.88 35.7401 499.79 35.6101V38.4101C501.88 38.2901 503.86 38.2301 507.15 38.2301H508.22V41.3101C505.64 41.5501 502.85 41.7901 499.17 42.0901L499.79 45.7501C508.05 44.3201 512.28 43.6501 520.18 42.3001C519.2 42.9601 518.1 43.5201 516.84 44.0001L518.5 46.5701C521.3 44.9801 524.81 43.1101 527.07 40.4101C529.01 38.0901 530.16 35.0201 530.63 32.3201C531.07 29.7501 531.25 22.5701 531.27 16.7701H535.67C535.61 25.5401 535.35 35.5901 534.65 39.8401C534.11 43.1101 533.99 43.2201 531.3 42.7301C530.46 42.5801 529.63 42.4001 529.04 42.2701C528.85 43.2901 528.71 43.9601 528.49 44.7701C530.14 45.2501 533.9 46.1901 535.63 46.1101C537.14 46.0301 538.25 45.1901 538.72 42.7001C539.64 37.7901 540.05 21.6501 540.05 14.3201H531.28C531.3 11.2401 531.37 9.11012 531.5 6.90012L531.49 6.91012ZM512.48 30.6101V27.4101H513.21C514.49 27.4101 515.61 27.4101 516.62 27.4401C516.62 28.7301 516.62 29.8801 516.6 30.5901C515.6 30.6101 514.48 30.6201 513.21 30.6201H512.48V30.6101ZM513.2 21.9301C514.47 21.9301 515.59 21.9301 516.59 21.9601C516.6 22.8001 516.61 23.9201 516.62 25.0901C515.61 25.1101 514.49 25.1201 513.21 25.1201H512.48V21.9301H513.21H513.2ZM508.22 21.9301V25.1201H507.57C506.26 25.1201 505.08 25.1201 504.02 25.0901C504.02 23.9101 504.03 22.8001 504.05 21.9601C505.1 21.9401 506.28 21.9301 507.57 21.9301H508.22ZM507.57 30.6101C506.29 30.6101 505.09 30.6101 504.04 30.5801C504.03 29.8801 504.02 28.7201 504.02 27.4301C505.08 27.4101 506.26 27.4001 507.57 27.4001H508.22V30.6001H507.57V30.6101ZM388.52 24.3501C392.66 24.3501 395.16 24.2801 397.79 24.1301V28.1701C395.16 28.0101 392.66 27.9501 388.52 27.9501H379.42C375.28 27.9501 372.78 28.0201 370.15 28.1701V24.1301C372.78 24.2901 375.28 24.3501 379.42 24.3501H388.52ZM659.9 16.6001C659.9 17.0601 659.92 17.5401 659.92 18.0501H659.46C655.42 18.0501 652.98 17.9801 650.41 17.8301C650.56 19.1501 650.63 20.4201 650.63 22.5101C650.63 24.6001 650.56 25.8601 650.41 27.1801C652.97 27.0301 655.42 26.9601 659.46 26.9601H659.93V28.9101C652.28 29.0401 648.92 28.6701 648.92 28.6701L649.66 31.9801C658.02 31.5401 664.09 31.1701 671.02 30.3601C672.22 31.6701 673.02 32.8501 673.02 32.8501L675.87 30.5201C673.45 28.6101 671.53 27.5401 670.56 27.0401C671.62 27.0701 672.6 27.1201 673.59 27.1801C673.44 25.8601 673.37 24.5901 673.37 22.5101C673.37 20.4301 673.44 19.1601 673.59 17.8301C671.03 17.9801 668.58 18.0501 664.54 18.0501H663.96C663.96 17.5401 663.97 17.0601 663.98 16.6001H666.69C670.73 16.6001 673.17 16.6701 675.74 16.8201V14.1501C673.18 14.3001 670.73 14.3701 666.69 14.3701H664.04C664.07 13.5401 664.11 12.7501 664.16 11.9601H659.72C659.77 12.7601 659.81 13.5501 659.84 14.3701H657.71C653.67 14.3701 651.23 14.3001 648.66 14.1501V16.8201C651.22 16.6701 653.67 16.6001 657.71 16.6001H659.9ZM659.93 20.1201C659.93 20.4101 659.93 20.7001 659.93 21.0101V21.4201H654.45V20.1201H659.93ZM654.45 24.9101V23.4801H659.93V24.9101H654.45ZM669.55 24.9101H663.94V23.4801H669.55V24.9101ZM669.27 28.7101C668.21 28.7401 666.49 28.7901 663.93 28.8401V26.9701H664.53C666.45 26.9701 668 26.9901 669.38 27.0201L668.1 27.8501C668.51 28.1001 668.9 28.4001 669.27 28.7101ZM669.55 20.1201V21.4201H663.94V21.0101C663.94 20.7001 663.94 20.4101 663.94 20.1201H669.55ZM676.13 35.9201C674.14 35.8001 672.2 35.7401 669.55 35.7101V39.8401C669.55 41.5401 669.13 42.8601 667.65 42.9401C665.97 43.0201 664.16 42.6001 660.39 42.0701L659.99 39.9101L662.86 40.2301C665.21 40.4801 665.54 40.2501 665.54 39.4601V35.7001H657.39C656.27 35.7001 655.28 35.7001 654.37 35.7201C657.6 36.9301 660.46 38.5901 660.46 38.5901L657.87 41.5301C655.11 38.3201 652.16 36.9701 652.16 36.9701L653.3 35.7301C651.43 35.7601 649.91 35.8201 648.35 35.9201V33.2501C650.91 33.4001 653.36 33.4701 657.4 33.4701H665.51C665.48 32.7601 665.42 32.1501 665.33 31.5301H669.77C669.68 32.1401 669.63 32.7501 669.59 33.4601C672.22 33.4401 674.15 33.3701 676.13 33.2501V35.9201ZM681.63 46.3401C681.48 43.7801 681.41 41.2701 681.41 37.2301V17.6701C681.41 13.6301 681.48 10.7801 681.63 8.22012C679.07 8.37012 676.62 8.44012 672.58 8.44012H651.76C647.72 8.44012 645.28 8.37012 642.71 8.22012C642.86 10.7801 642.93 13.6401 642.93 17.6701V37.2301C642.93 41.2701 642.86 43.7701 642.71 46.3401C645.27 46.1901 647.72 46.1201 651.76 46.1201H672.58C676.62 46.1201 679.06 46.1901 681.63 46.3401ZM647.65 43.4401C647.58 41.7601 647.55 39.9501 647.55 37.2301V17.6701C647.55 14.9101 647.58 12.9201 647.65 11.1201H676.79V43.4401H647.65ZM576.03 42.1001C577.45 42.1001 584.79 42.0301 587.42 41.8801V44.9401C584.79 44.7801 577.45 44.7201 576.03 44.7201H564.76C563.34 44.7201 556 44.7901 553.37 44.9401V41.8801C556 42.0301 563.34 42.1001 564.76 42.1001H567.89V37.8901C565.87 37.9001 560.17 37.9701 557.77 38.1101V35.0501C560.18 35.1901 565.87 35.2601 567.89 35.2701V31.0701C566.57 31.0701 562.5 31.1201 559.62 31.2101C558.76 32.7901 557.63 34.3301 556.17 35.9601L554.11 34.7101C556.37 31.7801 557.5 27.6801 557.66 24.3401H561.72C561.57 25.7801 561.28 27.0901 560.86 28.3501C563.56 28.4201 566.73 28.4501 567.87 28.4601C567.85 26.2001 567.78 26.5501 567.65 24.3501H573.1C572.97 26.5501 572.9 26.2001 572.88 28.4601C574.59 28.4601 581.51 28.3901 584.05 28.2401V31.3001C581.5 31.1501 574.57 31.0801 572.87 31.0801V35.2801C574.89 35.2801 580.59 35.2001 582.99 35.0901V38.1201C580.58 37.9501 574.89 37.9001 572.87 37.9001V42.1101H576L576.03 42.1001ZM558.37 22.9001H577.87C582.01 22.9001 584.51 22.9701 587.14 23.1201V20.2401C585.16 20.3601 583.26 20.4201 580.67 20.4501L582.01 18.9201C580.06 17.8301 577.95 16.9001 575.81 16.1001C578.27 15.0701 580.31 14.0501 582.14 13.1701L581.48 12.4901C583.41 12.5201 584.98 12.5901 586.59 12.6801V9.80012C583.96 9.95012 581.46 10.0201 577.32 10.0201H570.75C570.79 8.69012 570.84 7.51012 570.91 6.30012H565.49C565.56 7.51012 565.61 8.69012 565.65 10.0201H559.26C555.12 10.0201 552.62 9.95012 549.99 9.80012V12.6801C552.2 12.5501 554.33 12.4801 557.4 12.4601L556.41 13.9501C556.41 13.9501 560.78 14.5301 566.41 16.1001C562.32 17.1001 558.4 17.7301 554.92 18.2901L556.12 20.4501C553.3 20.4301 551.37 20.3601 549.26 20.2401C549.51 27.6501 549.57 38.6101 544.68 44.8401L546.72 46.5601C552.6 40.1401 554.06 35.3701 554.11 22.9301C555.34 22.9101 556.72 22.9001 558.35 22.9001H558.37ZM562.31 12.4701H577.22C575.32 13.3301 573.41 14.0401 571.51 14.6601C568.04 13.6201 564.78 12.9201 562.31 12.4701ZM578.04 20.4701C577.98 20.4701 577.93 20.4701 577.87 20.4701H559.4C564.3 19.7701 568.23 18.7901 571.5 17.7101C573.68 18.4801 575.91 19.4001 578.04 20.4701Z" fill="black"/>
<path d="M8.04 27.17C8.04 20.44 11.59 14.55 16.92 11.25V0H0V53.65H16.93V43.09C11.6 39.79 8.05 33.9 8.05 27.17H8.04Z" fill="#1226AA"/>
<path d="M36.58 0V11.24C41.91 14.53 45.47 20.43 45.47 27.16C45.47 33.89 41.92 39.78 36.58 43.08V53.64H53.51V0H36.58Z" fill="#1226AA"/>
<path d="M26.76 8.4502C23.15 8.4502 19.79 9.4702 16.93 11.2402V43.0802C16.93 43.0802 16.97 43.1002 16.98 43.1102L16.91 43.1802L26.8 52.9502L32.38 47.0702L20.78 34.9202C18.68 33.1902 17.34 30.5802 17.34 27.6402C17.34 22.4402 21.56 18.2202 26.76 18.2202C31.96 18.2202 36.18 22.4402 36.18 27.6402C36.18 32.8402 31.96 37.0602 26.76 37.0602C25.7 37.0602 24.68 36.8702 23.72 36.5502L31.93 45.1502L33.06 46.3302L36.24 43.2902C36.35 43.2302 36.47 43.1702 36.58 43.1002V11.2402C33.72 9.4702 30.36 8.4502 26.75 8.4502H26.76Z" fill="#1226AA"/>
<path d="M78.84 23.0102H94.24C95.19 20.7002 95.93 18.3002 96.46 15.8202L100.45 17.1502C100.92 17.2702 101.16 17.4602 101.16 17.7302C101.16 18.0602 100.82 18.4102 100.14 18.8002C99.73 20.3102 99.28 21.7202 98.81 23.0202H119.67V26.7502H97.34C96.28 29.1802 95.15 31.2002 93.97 32.8302C91.34 36.6802 87.28 40.3602 81.81 43.8802L78.3 40.9902C81.23 39.3002 83.69 37.5902 85.67 35.8402C88.18 33.6502 90.3 31.0002 92.02 27.8902C92.23 27.4802 92.42 27.0902 92.6 26.7402H78.84V23.0102ZM97.13 6.41016L101.17 6.76016C101.91 6.79016 102.28 7.00016 102.28 7.38016C102.28 7.62016 101.98 7.97016 101.39 8.45016V11.4702H118.35V19.9002H114.27V15.1902H84.09V19.9002H80.01V11.4702H97.14V6.41016H97.13ZM101.04 28.4202L104.99 29.9702C105.55 30.1502 105.83 30.3702 105.83 30.6302C105.83 30.8402 105.47 31.1602 104.76 31.6102C103.16 34.5102 101.12 37.6902 98.63 41.1502C102.86 40.6802 106.99 40.1602 111.01 39.6002C109.8 37.9402 108.54 36.4302 107.24 35.0702L110.22 32.6702C113.47 35.8102 116.68 39.8202 119.85 44.7002L116.08 47.2302C115.25 45.8102 114.42 44.4502 113.59 43.1502C108.29 44.0402 100.51 45.1902 90.24 46.6102C89.91 47.1402 89.57 47.4102 89.22 47.4102C88.87 47.4102 88.67 47.1902 88.64 46.7402L87.53 42.0802C89.6 41.9302 91.67 41.7702 93.74 41.5902C94.95 39.8702 95.97 38.3102 96.8 36.8802C98.52 34.0102 99.92 31.1802 101.02 28.4002L101.04 28.4202Z" fill="#222222"/>
<path d="M136.73 6.76039C138.3 7.74039 139.84 9.00039 141.35 10.5304L139.18 11.9904H148.32L151.87 6.40039L155.07 8.04039C155.51 8.28039 155.74 8.48039 155.74 8.66039C155.74 9.02039 155.44 9.33039 154.85 9.59039L152.94 11.9904H162.13V15.3604H150.94V24.6804H153.74L156.85 17.5804L159.87 19.0904C160.31 19.3304 160.54 19.5304 160.54 19.7104C160.54 20.0604 160.26 20.3604 159.7 20.6004L157.66 24.6804H164.67V28.2304H125.21V24.6804H131.38C130.76 22.7304 130 20.9104 129.12 19.2204L133.25 18.4704C134.08 20.4204 134.82 22.4904 135.47 24.6804H138V15.3604H127.7V11.9904H137.02C136.01 10.8704 134.98 9.89039 133.91 9.06039L136.75 6.75039L136.73 6.76039ZM131.58 30.2004H158.57V47.2504H154.66V45.9204H135.48V47.2504H131.57V30.2004H131.58ZM135.48 36.5904H154.66V33.7504H135.48V36.5904ZM135.48 42.5404H154.66V39.7904H135.48V42.5404ZM141.92 24.7004H147.02V15.3804H141.92V24.7004Z" fill="#222222"/>
<path d="M185.02 9.07008H193.45V6.58008L197.31 6.89008C198.02 6.95008 198.38 7.16008 198.38 7.51008C198.38 7.75008 198.1 8.09008 197.54 8.53008V9.06008H207.04V15.1001H211.12V18.6501H207.04V24.6901H197.54V27.5301H207.57V31.0801H197.54V33.8301H208.64V37.5601H197.54V42.6201C199.97 42.7101 202.69 42.7501 205.71 42.7501C207.13 42.7501 208.93 42.7101 211.12 42.6201L209.17 47.0601C201.21 47.0601 195.07 46.8201 190.75 46.3501C187.26 45.9901 184.4 45.4201 182.18 44.6201C180.49 44.0601 179 43.3501 177.7 42.4901C176.22 44.5601 174.4 46.2601 172.24 47.5901L169.22 44.3501C171.32 43.2801 173.07 41.8001 174.46 39.9101C173.04 38.4301 171.51 36.2001 169.89 33.2101L173.22 31.9701C174.43 33.7801 175.54 35.2301 176.55 36.3201C177.64 33.8001 178.34 30.3101 178.64 25.8401H175.13L173.58 28.9501L169.94 27.6601L176.87 13.0601H170.12V9.33008H177.67L178.82 8.93008C179.2 8.93008 179.58 9.06008 179.93 9.33008L182.15 10.8801C182.42 11.0901 182.55 11.3001 182.55 11.5001C182.55 11.8901 182.24 12.2701 181.62 12.6501L177 22.1001H182.55C182.31 29.4101 181.47 34.8201 180.02 38.3501C179.93 38.5601 179.83 38.7501 179.71 38.9301C181.63 40.1701 183.87 41.0501 186.41 41.5501C187.98 41.9301 190.33 42.2301 193.47 42.4401V37.5601H182.55V33.8301H193.47V31.0801H183.97V27.5301H193.47V24.6901H185.04V21.1401H193.47V18.6501H181.31V15.1001H193.47V12.6601H185.04V9.06008L185.02 9.07008ZM197.54 12.6701V15.1101H203.13V12.6701H197.54ZM197.54 18.6601V21.1501H203.13V18.6601H197.54Z" fill="#222222"/>
<path d="M215.39 13.33H231.73V16.88H215.39V13.33ZM216.36 32.42H230.74V46.89H227.01V44.67H220.09V47.24H216.36V32.41V32.42ZM216.98 19.81H229.94V23.18H216.98V19.81ZM216.98 25.85H229.94V29.22H216.98V25.85ZM217.16 7.20996H229.77V10.58H217.16V7.20996ZM220.09 41.3H227.01V35.8H220.09V41.3ZM235.63 7.37996H248.77V17.06C248.77 18.48 248.98 19.19 249.39 19.19H251.79C252.03 19.19 252.23 19.04 252.41 18.75C252.59 18.39 252.79 17 253.03 14.58L256.76 15.96C256.11 19.01 255.4 20.9 254.63 21.64C253.8 22.38 252.62 22.75 251.08 22.75H249.04C246.26 22.75 244.87 21.17 244.87 18V10.76H239.45C239.3 14.02 238.89 16.43 238.21 18C237.41 19.89 236.06 21.83 234.17 23.81L231.02 21.28C232.82 19.71 234.04 18.2 234.66 16.75C235.31 15.51 235.64 12.39 235.64 7.37996H235.63ZM234.38 25.58H249.07C249.63 25.2 249.94 25 250 25C250.33 25 250.62 25.15 250.89 25.44L253.02 27.44C253.26 27.68 253.38 27.94 253.38 28.24C253.38 28.54 252.98 28.91 252.18 29.35C250.49 34.29 248.6 37.9 246.5 40.18C248.99 41.39 252.28 42.43 256.4 43.29L253.78 47.24C249.52 46.12 246.04 44.71 243.35 43.02C240.92 44.71 237.85 46.11 234.12 47.24L231.37 43.6C234.06 43.01 236.22 42.34 237.85 41.6C238.65 41.25 239.36 40.85 239.98 40.4C237.97 38.51 235.87 35.78 233.68 32.23L236.52 30.37C238.62 33.71 240.8 36.26 243.04 38.01C243.37 37.65 243.66 37.28 243.93 36.9C245.29 35.18 246.55 32.59 247.7 29.13H234.38V25.58Z" fill="#222222"/>
</svg>
