<svg width="43" height="55" viewBox="0 0 43 55" fill="none" xmlns="http://www.w3.org/2000/svg">
<path d="M5.58105 1L37.0094 32.3" stroke="#A32424" stroke-width="1.21" stroke-miterlimit="10"/>
<path d="M37.0094 1L5.58105 32.3" stroke="#A32424" stroke-width="1.21" stroke-miterlimit="10"/>
<path d="M5.18955 50.83H4.20584C3.99505 49.9 3.49316 49.46 2.72025 49.46C1.80681 49.46 1.04393 50.17 1.04393 51.73C1.04393 53.41 1.78673 54.11 2.64998 54.11C3.41285 54.11 3.9549 53.67 4.14561 52.83H5.12932C4.84826 54.17 3.88463 54.83 2.58975 54.83C1.12423 54.83 0 53.91 0 51.8C0 49.85 1.2748 48.75 2.73028 48.75C4.18577 48.75 5.00887 49.58 5.17951 50.84L5.18955 50.83Z" fill="black"/>
<path d="M11.5034 53.0199C11.5034 53.1899 11.5034 53.3799 11.5134 53.5699C11.5335 53.9399 11.7142 54.0599 12.2261 54.0099V54.6899C12.0153 54.7199 11.7744 54.7299 11.5536 54.7299C11.0015 54.7299 10.6 54.5599 10.5699 53.8199C10.5598 53.6199 10.5598 53.3699 10.5598 53.0599V46.6699H11.5034V53.0299V53.0199Z" fill="black"/>
<path d="M22.9062 51.7802C22.9062 53.4102 21.9928 54.8202 20.0254 54.8202C18.058 54.8202 17.1445 53.4002 17.1445 51.7802C17.1445 50.1602 18.058 48.7402 20.0254 48.7402C21.9928 48.7402 22.9062 50.1502 22.9062 51.7802ZM21.8824 51.7802C21.8824 50.4202 21.1998 49.4602 20.0354 49.4602C18.871 49.4602 18.1885 50.4202 18.1885 51.7802C18.1885 53.1402 18.871 54.1002 20.0354 54.1002C21.1998 54.1002 21.8824 53.1302 21.8824 51.7802Z" fill="black"/>
<path d="M32.1913 50.5402H31.2076C31.0771 49.8602 30.6655 49.4602 29.983 49.4602C29.3004 49.4602 29.0193 49.8202 29.0193 50.3202C29.0193 50.9002 29.5011 51.1302 30.2941 51.3302C31.6292 51.6802 32.2615 52.2002 32.2615 53.1802C32.2615 54.2702 31.328 54.8202 30.1034 54.8202C28.8788 54.8202 28.0055 54.2702 27.8248 52.9702H28.8085C28.9591 53.8102 29.5011 54.1002 30.1636 54.1002C30.786 54.1002 31.2879 53.8202 31.2879 53.2602C31.2879 52.7002 30.8964 52.4102 29.9227 52.1502C28.8788 51.8702 28.0457 51.4402 28.0457 50.4302C28.0457 49.4202 28.8587 48.7402 30.0532 48.7402C31.3581 48.7402 32.0708 49.4802 32.1913 50.5402Z" fill="black"/>
<path d="M42.4499 52.0702H38.244C38.3344 53.6002 39.0571 54.1102 39.9103 54.1102C40.6632 54.1102 41.2755 53.6402 41.416 52.8102H42.3997C42.1688 54.2102 41.0647 54.8302 39.8702 54.8302C38.3545 54.8302 37.2302 53.8502 37.2302 51.8102C37.2302 49.9302 38.4046 48.7402 39.9906 48.7402C41.5766 48.7402 42.48 49.9302 42.48 51.6202C42.48 51.7102 42.48 51.8602 42.4599 52.0702H42.4499ZM38.2541 51.3502H41.5164C41.426 50.1502 40.9141 49.4602 39.9605 49.4602C39.0069 49.4602 38.3645 50.1102 38.2541 51.3502Z" fill="black"/>
</svg>
