<svg width="31" height="40" viewBox="0 0 31 40" fill="none" xmlns="http://www.w3.org/2000/svg">
<path d="M4.02832 1L26.7125 23.6769" stroke="white" stroke-width="1.21" stroke-miterlimit="10"/>
<path d="M26.7125 1L4.02832 23.6769" stroke="white" stroke-width="1.21" stroke-miterlimit="10"/>
<path d="M3.74568 37.1017H3.03567C2.88352 36.4279 2.52127 36.1091 1.9634 36.1091C1.30411 36.1091 0.753483 36.6235 0.753483 37.7537C0.753483 38.9709 1.28962 39.4781 1.91269 39.4781C2.46331 39.4781 2.85454 39.1593 2.9922 38.5507H3.70221C3.49935 39.5215 2.80383 39.9997 1.86922 39.9997C0.811443 39.9997 0 39.3332 0 37.8045C0 36.3917 0.920119 35.5947 1.97065 35.5947C3.02118 35.5947 3.61527 36.1961 3.73844 37.1089L3.74568 37.1017Z" fill="#E9C468"/>
<path d="M8.30286 38.6885C8.30286 38.8117 8.30286 38.9493 8.3101 39.087C8.32459 39.355 8.455 39.442 8.8245 39.4057V39.8984C8.67236 39.9201 8.49847 39.9274 8.33908 39.9274C7.94061 39.9274 7.65081 39.8042 7.62907 39.2681C7.62183 39.1232 7.62183 38.9421 7.62183 38.7175V34.0879H8.30286V38.6957V38.6885Z" fill="#E9C468"/>
<path d="M16.5332 37.7904C16.5332 38.9713 15.8739 39.9929 14.4538 39.9929C13.0338 39.9929 12.3745 38.9641 12.3745 37.7904C12.3745 36.6167 13.0338 35.5879 14.4538 35.5879C15.8739 35.5879 16.5332 36.6094 16.5332 37.7904ZM15.7942 37.7904C15.7942 36.8051 15.3015 36.1095 14.4611 36.1095C13.6207 36.1095 13.128 36.8051 13.128 37.7904C13.128 38.7757 13.6207 39.4712 14.4611 39.4712C15.3015 39.4712 15.7942 38.7685 15.7942 37.7904Z" fill="#E9C468"/>
<path d="M23.2348 36.892H22.5248C22.4306 36.3993 22.1336 36.1095 21.6409 36.1095C21.1483 36.1095 20.9454 36.3704 20.9454 36.7326C20.9454 37.1528 21.2932 37.3195 21.8655 37.4644C22.8291 37.7179 23.2856 38.0947 23.2856 38.8047C23.2856 39.5944 22.6118 39.9929 21.7279 39.9929C20.844 39.9929 20.2137 39.5944 20.0833 38.6525H20.7933C20.9019 39.2611 21.2932 39.4712 21.7713 39.4712C22.2205 39.4712 22.5828 39.2684 22.5828 38.8626C22.5828 38.4569 22.3002 38.2468 21.5975 38.0584C20.844 37.8556 20.2426 37.5441 20.2426 36.8123C20.2426 36.0806 20.8295 35.5879 21.6916 35.5879C22.6335 35.5879 23.1479 36.124 23.2348 36.892Z" fill="#E9C468"/>
<path d="M30.6392 38.0005H27.6036C27.6688 39.109 28.1904 39.4785 28.8062 39.4785C29.3496 39.4785 29.7916 39.138 29.893 38.5366H30.603C30.4364 39.5509 29.6394 40.0001 28.7773 40.0001C27.6833 40.0001 26.8718 39.2901 26.8718 37.8121C26.8718 36.4501 27.7195 35.5879 28.8642 35.5879C30.0089 35.5879 30.661 36.4501 30.661 37.6745C30.661 37.7397 30.661 37.8483 30.6465 38.0005H30.6392ZM27.6108 37.4788H29.9655C29.9002 36.6094 29.5308 36.1095 28.8425 36.1095C28.1542 36.1095 27.6905 36.5805 27.6108 37.4788Z" fill="#E9C468"/>
</svg>
