<svg width="157" height="160" viewBox="0 0 157 160" fill="none" xmlns="http://www.w3.org/2000/svg">
<path d="M89.26 71.3729C87.69 71.3729 86.15 71.1148 84.69 70.6194C83.97 70.3716 83.09 70.5987 82.66 71.0632L79.78 73.3135C76.44 71.4658 74.37 69.3394 72.61 65.9226L74.72 63.0219C75.27 62.4542 75.47 61.6284 75.23 60.8542C74.75 59.3368 74.5 57.7471 74.5 56.1265C74.5 54.96 73.58 54 72.44 54H67.73C66.6 54 65.67 54.9497 65.67 56.1265C65.67 69.5561 76.25 80.4774 89.26 80.4774C90.39 80.4774 91.32 79.5277 91.32 78.351V73.4994C91.32 72.3329 90.4 71.3729 89.26 71.3729Z" stroke="#A32424" stroke-width="1.21" stroke-miterlimit="10"/>
<path d="M54.17 102.568H53.19C52.98 101.608 52.48 101.154 51.71 101.154C50.8 101.154 50.04 101.887 50.04 103.497C50.04 105.231 50.78 105.954 51.64 105.954C52.4 105.954 52.94 105.5 53.13 104.633H54.11C53.83 106.016 52.87 106.697 51.58 106.697C50.12 106.697 49 105.747 49 103.569C49 101.556 50.27 100.421 51.72 100.421C53.17 100.421 53.99 101.278 54.16 102.578L54.17 102.568Z" fill="black"/>
<path d="M61.39 103.548C61.39 105.231 60.48 106.686 58.52 106.686C56.56 106.686 55.65 105.22 55.65 103.548C55.65 101.876 56.56 100.41 58.52 100.41C60.48 100.41 61.39 101.866 61.39 103.548ZM60.36 103.548C60.36 102.144 59.68 101.153 58.52 101.153C57.36 101.153 56.68 102.144 56.68 103.548C56.68 104.952 57.36 105.943 58.52 105.943C59.68 105.943 60.36 104.942 60.36 103.548Z" fill="black"/>
<path d="M68.28 103.177V106.532H67.34V103.239C67.34 102.939 67.34 102.692 67.32 102.382C67.27 101.68 66.89 101.164 66 101.164C65.11 101.164 64.33 101.866 64.33 103.899V106.521H63.39V100.555H64.33V101.577L64.69 100.885C65.18 100.493 65.61 100.39 66.2 100.39C67.47 100.39 68.17 101.092 68.26 102.134C68.28 102.434 68.28 102.671 68.28 103.156V103.177Z" fill="black"/>
<path d="M71.85 104.787C71.85 104.993 71.85 105.086 71.86 105.251C71.9 105.83 72.13 105.953 72.86 105.86V106.573C72.59 106.614 72.33 106.624 72.06 106.624C71.34 106.624 70.97 106.325 70.91 105.582C70.9 105.427 70.9 105.179 70.9 104.839V101.36H70.12V100.617H70.9V99.2334H71.84V100.617H72.92V101.36H71.84V104.797L71.85 104.787Z" fill="black"/>
<path d="M78.23 105.674L77.91 106.314C77.52 106.593 77.02 106.686 76.46 106.686C75.41 106.686 74.59 106.087 74.59 104.983C74.59 103.63 75.57 102.928 77.84 102.928H78.21V102.774C78.21 102.516 78.21 102.278 78.19 102.051C78.15 101.504 77.84 101.143 77.07 101.143C76.3 101.143 75.89 101.587 75.83 102.402H74.85C74.94 101.132 75.8 100.399 77.08 100.399C78.46 100.399 79.03 100.998 79.13 101.979C79.15 102.216 79.16 102.505 79.16 102.763V105.003C79.16 105.457 79.18 105.86 79.27 106.521H78.33L78.23 105.664V105.674ZM78.22 104.27V103.661C76.63 103.537 75.62 103.888 75.62 104.91C75.62 105.633 76.07 105.943 76.78 105.943C77.65 105.943 78.22 105.344 78.22 104.26V104.27Z" fill="black"/>
<path d="M86.3599 102.568H85.3799C85.1699 101.608 84.6699 101.154 83.8999 101.154C82.9899 101.154 82.2299 101.887 82.2299 103.497C82.2299 105.231 82.9699 105.954 83.8299 105.954C84.5899 105.954 85.1299 105.5 85.3199 104.633H86.2999C86.0199 106.016 85.0599 106.697 83.7699 106.697C82.3099 106.697 81.1899 105.747 81.1899 103.569C81.1899 101.556 82.4599 100.421 83.9099 100.421C85.3599 100.421 86.1799 101.278 86.3499 102.578L86.3599 102.568Z" fill="black"/>
<path d="M89.45 104.787C89.45 104.993 89.45 105.086 89.46 105.251C89.5 105.83 89.73 105.953 90.46 105.86V106.573C90.19 106.614 89.93 106.624 89.66 106.624C88.94 106.624 88.57 106.325 88.51 105.582C88.5 105.427 88.5 105.179 88.5 104.839V101.36H87.72V100.617H88.5V99.2334H89.44V100.617H90.52V101.36H89.44V104.797L89.45 104.787Z" fill="black"/>
<path d="M102.3 106.531H101.36V105.52L101 106.222C100.51 106.593 100.08 106.696 99.49 106.696C98.29 106.696 97.59 105.995 97.46 105.179C97.42 104.88 97.41 104.642 97.41 104.157V100.575H98.35V103.971C98.35 104.167 98.36 104.487 98.39 104.797C98.48 105.468 98.95 105.933 99.73 105.933C100.64 105.933 101.36 105.231 101.36 103.197V100.575H102.3V106.542V106.531Z" fill="black"/>
<path d="M108.64 102.268H107.66C107.53 101.566 107.12 101.153 106.44 101.153C105.76 101.153 105.48 101.525 105.48 102.041C105.48 102.64 105.96 102.877 106.75 103.084C108.08 103.445 108.71 103.982 108.71 104.993C108.71 106.119 107.78 106.686 106.56 106.686C105.34 106.686 104.47 106.119 104.29 104.777H105.27C105.42 105.644 105.96 105.943 106.62 105.943C107.24 105.943 107.74 105.654 107.74 105.076C107.74 104.498 107.35 104.199 106.38 103.93C105.34 103.641 104.51 103.197 104.51 102.155C104.51 101.112 105.32 100.41 106.51 100.41C107.81 100.41 108.52 101.174 108.64 102.268Z" fill="black"/>
</svg>
